<?xml version="1.0" encoding="UTF-8" standalone="no"?>
<svg
   width="250mm"
   height="250mm"
   version="1.1"
   id="svg1475"
   sodipodi:docname="Berndeutsch_121_25x25.svg"
   inkscape:version="1.2.1 (9c6d41e410, 2022-07-14)"
   xmlns:inkscape="http://www.inkscape.org/namespaces/inkscape"
   xmlns:sodipodi="http://sodipodi.sourceforge.net/DTD/sodipodi-0.dtd"
   xmlns="http://www.w3.org/2000/svg"
   xmlns:svg="http://www.w3.org/2000/svg">
  <defs
     id="defs1479" />
  <sodipodi:namedview
     id="namedview1477"
     pagecolor="#505050"
     bordercolor="#eeeeee"
     borderopacity="1"
     inkscape:showpageshadow="0"
     inkscape:pageopacity="0"
     inkscape:pagecheckerboard="0"
     inkscape:deskcolor="#505050"
     inkscape:document-units="mm"
     showgrid="false"
     inkscape:zoom="0.82501648"
     inkscape:cx="772.10579"
     inkscape:cy="397.56781"
     inkscape:window-width="2560"
     inkscape:window-height="1369"
     inkscape:window-x="-8"
     inkscape:window-y="-8"
     inkscape:window-maximized="1"
     inkscape:current-layer="svg1475" />
  <path
     id="rect745"
     style="fill:#231f20;stroke-width:0mm"
     d="M 0,0 H 944.88189 V 944.88189 H 0 Z" />
  <path
     d="m 166.83248,185.19426 h -16.84062 v -30.20808 h 16.84062 v 3.11999 h -13.32785 v 9.73188 h 12.52198 v 3.09932 h -12.52198 v 11.11624 h 13.32785 z"
     id="path4215"
     style="font-size:42.3173px;font-family:'Open Sans';text-anchor:middle;fill:#ffffff;stroke-width:0mm" />
  <path
     d="m 230.16102,177.15668 q 0,3.9878 -2.89287,6.21931 -2.89286,2.23151 -7.85206,2.23151 -5.37247,0 -8.26534,-1.38436 v -3.3886 q 1.8597,0.78517 4.05002,1.23973 2.19031,0.45457 4.3393,0.45457 3.51276,0 5.28981,-1.32238 1.77704,-1.34304 1.77704,-3.71919 0,-1.57032 -0.64055,-2.5621 -0.61991,-1.01245 -2.10767,-1.8596 -1.46709,-0.84714 -4.48394,-1.92158 -4.21532,-1.50833 -6.03369,-3.57455 -1.79771,-2.06622 -1.79771,-5.39282 0,-3.49191 2.62424,-5.55812 2.62424,-2.06622 6.94288,-2.06622 4.50461,0 8.28599,1.65297 l -1.09515,3.058 q -3.74006,-1.57032 -7.27349,-1.57032 -2.78955,0 -4.35997,1.1984 -1.57041,1.19841 -1.57041,3.32661 0,1.57032 0.57857,2.58277 0.57858,0.99178 1.94236,1.83893 1.38444,0.82649 4.21532,1.83893 4.75256,1.6943 6.52961,3.63654 1.79771,1.94225 1.79771,5.04157 z"
     id="path5064"
     style="font-size:42.3173px;font-family:'Open Sans';text-anchor:middle;fill:#ffffff;stroke-width:0mm" />
  <path
     d="m 296.38243,169.80095 q 0,7.4797 -4.07068,11.44684 -4.05001,3.94647 -11.67478,3.94647 h -8.36865 v -30.20808 h 9.25716 q 7.0462,0 10.95158,3.90515 3.90537,3.90515 3.90537,10.90962 z m -3.71941,0.12397 q 0,-5.90937 -2.97551,-8.90538 -2.95486,-2.99602 -8.80258,-2.99602 h -5.10385 v 24.1334 h 4.27731 q 6.28165,0 9.44314,-3.07866 3.16149,-3.09932 3.16149,-9.15334 z"
     id="path5061"
     style="font-size:42.3173px;font-family:'Open Sans';text-anchor:middle;fill:#ffffff;stroke-width:0mm" />
  <path
     d="m 344.76105,185.19426 v -30.20808 h 3.51277 v 30.20808 z"
     id="path5058"
     style="font-size:42.3173px;font-family:'Open Sans';text-anchor:middle;fill:#ffffff;stroke-width:0mm" />
  <path
     d="m 419.06182,177.15668 q 0,3.9878 -2.89286,6.21931 -2.89287,2.23151 -7.85207,2.23151 -5.37247,0 -8.26533,-1.38436 v -3.3886 q 1.8597,0.78517 4.05002,1.23973 2.19031,0.45457 4.33929,0.45457 3.51277,0 5.28982,-1.32238 1.77704,-1.34304 1.77704,-3.71919 0,-1.57032 -0.64056,-2.5621 -0.61991,-1.01245 -2.10766,-1.8596 -1.4671,-0.84714 -4.48395,-1.92158 -4.21532,-1.50833 -6.03369,-3.57455 -1.79771,-2.06622 -1.79771,-5.39282 0,-3.49191 2.62425,-5.55812 2.62424,-2.06622 6.94287,-2.06622 4.50461,0 8.286,1.65297 l -1.09515,3.058 q -3.74007,-1.57032 -7.2735,-1.57032 -2.78955,0 -4.35996,1.1984 -1.57042,1.19841 -1.57042,3.32661 0,1.57032 0.57858,2.58277 0.57858,0.99178 1.94235,1.83893 1.38444,0.82649 4.21532,1.83893 4.75257,1.6943 6.52961,3.63654 1.79771,1.94225 1.79771,5.04157 z"
     id="path5055"
     style="font-size:42.3173px;font-family:'Open Sans';text-anchor:middle;fill:#ffffff;stroke-width:0mm" />
  <path
     d="m 476.18104,157.69293 q -4.97987,0 -7.87273,3.32661 -2.8722,3.30594 -2.8722,9.07068 0,5.93004 2.76889,9.174 2.78954,3.2233 7.93471,3.2233 3.16149,0 7.21151,-1.13642 v 3.07866 q -3.14083,1.17774 -7.74875,1.17774 -6.67426,0 -10.31101,-4.04978 -3.61608,-4.04978 -3.61608,-11.50882 0,-4.66965 1.73572,-8.18222 1.75638,-3.51256 5.04185,-5.41348 3.30614,-1.90092 7.76941,-1.90092 4.75257,0 8.30666,1.73562 l -1.48775,3.01668 q -3.43012,-1.61165 -6.86023,-1.61165 z"
     id="path5052"
     style="font-size:42.3173px;font-family:'Open Sans';text-anchor:middle;fill:#ffffff;stroke-width:0mm" />
  <path
     d="m 546.88642,185.19426 h -3.51276 V 170.9787 h -15.91077 v 14.21556 h -3.51276 v -30.20808 h 3.51276 v 12.85187 h 15.91077 v -12.85187 h 3.51276 z"
     id="path5049"
     style="font-size:42.3173px;font-family:'Open Sans';text-anchor:middle;fill:#ffffff;stroke-width:0mm" />
  <path
     d="m 609.30572,185.19426 h -3.47144 l -6.09568,-20.22825 q -0.43393,-1.34304 -0.97118,-3.3886 -0.53724,-2.04555 -0.55791,-2.45879 -0.4546,2.7274 -1.44643,5.97136 l -5.90971,20.10428 h -3.47144 l -8.03804,-30.20808 h 3.7194 l 4.77323,18.65793 q 0.99184,3.92581 1.44643,7.10779 0.55791,-3.78118 1.65307,-7.39706 l 5.41379,-18.36866 h 3.7194 l 5.68242,18.53396 q 0.99184,3.20264 1.67373,7.23176 0.3926,-2.93403 1.48776,-7.14911 l 4.75257,-18.61661 h 3.71939 z"
     id="path5046"
     style="font-size:42.3173px;font-family:'Open Sans';text-anchor:middle;fill:#ffffff;stroke-width:0mm" />
  <path
     d="m 658.08722,185.19426 h -3.51276 v -30.20808 h 16.84061 v 3.11999 h -13.32785 v 11.05426 h 12.52197 v 3.11998 h -12.52197 z"
     id="path5043"
     style="font-size:42.3173px;font-family:'Open Sans';text-anchor:middle;fill:#ffffff;stroke-width:0mm" />
  <path
     d="m 735.86983,154.98618 v 19.54641 q 0,5.16554 -3.12017,8.12022 -3.12016,2.95469 -8.57528,2.95469 -5.45512,0 -8.45131,-2.97535 -2.97551,-2.97535 -2.97551,-8.18221 v -19.46376 h 3.51277 v 19.7117 q 0,3.78118 2.06633,5.80607 2.06633,2.02489 6.07502,2.02489 3.82271,0 5.88905,-2.02489 2.06633,-2.04555 2.06633,-5.84739 v -19.67038 z m -17.43986,-5.55812 q 0,-1.07443 0.53725,-1.54966 0.55791,-0.47523 1.32245,-0.47523 0.78521,0 1.34312,0.47523 0.57858,0.47523 0.57858,1.54966 0,1.03311 -0.57858,1.54967 -0.55791,0.49589 -1.34312,0.49589 -0.76454,0 -1.32245,-0.49589 -0.53725,-0.51656 -0.53725,-1.54967 z m 7.87274,0 q 0,-1.07443 0.53724,-1.54966 0.55791,-0.47523 1.32246,-0.47523 0.76454,0 1.32245,0.47523 0.57857,0.47523 0.57857,1.54966 0,1.03311 -0.57857,1.54967 -0.55791,0.49589 -1.32245,0.49589 -0.76455,0 -1.32246,-0.49589 -0.53724,-0.51656 -0.53724,-1.54967 z"
     id="path5040"
     style="font-size:42.3173px;font-family:'Open Sans';text-anchor:middle;fill:#ffffff;stroke-width:0mm" />
  <path
     d="m 784.02115,185.19426 h -3.51277 V 154.98618 H 797.349 v 3.11999 h -13.32785 v 11.05426 h 12.52198 v 3.11998 h -12.52198 z"
     id="path5037"
     style="font-size:42.3173px;font-family:'Open Sans';text-anchor:middle;fill:#ffffff;stroke-width:0mm" />
  <path
     d="m 166.41921,215.45519 h 3.78139 l -10.88958,30.20808 h -3.47143 L 145.012,215.45519 h 3.7194 l 6.94288,19.54641 q 1.19847,3.36793 1.90102,6.5499 0.74388,-3.34727 1.94236,-6.67388 z"
     id="path5034"
     style="font-size:42.3173px;font-family:'Open Sans';text-anchor:middle;fill:#ffffff;stroke-width:0mm" />
  <path
     d="m 218.82718,245.66327 v -30.20808 h 3.51277 v 30.20808 z"
     id="path5031"
     style="font-size:42.3173px;font-family:'Open Sans';text-anchor:middle;fill:#ffffff;stroke-width:0mm" />
  <path
     d="m 292.76634,245.66327 h -16.84061 v -30.20808 h 16.84061 v 3.11999 h -13.32785 v 9.73188 h 12.52198 v 3.09932 h -12.52198 v 11.11625 h 13.32785 z"
     id="path5028"
     style="font-size:42.3173px;font-family:'Open Sans';text-anchor:middle;fill:#ffffff;stroke-width:0mm" />
  <path
     d="m 341.09331,233.10068 v 12.56259 h -3.51276 v -30.20808 h 8.28599 q 5.55843,0 8.20334,2.12821 2.66557,2.1282 2.66557,6.40527 0,5.99202 -6.07502,8.09956 l 8.20334,13.57504 h -4.15333 l -7.31482,-12.56259 z m 0,-3.01668 h 4.81455 q 3.71941,0 5.45513,-1.46701 1.73572,-1.48767 1.73572,-4.44236 0,-2.99602 -1.77705,-4.3184 -1.75638,-1.32237 -5.66175,-1.32237 h -4.5666 z"
     id="path5025"
     style="font-size:42.3173px;font-family:'Open Sans';text-anchor:middle;fill:#ffffff;stroke-width:0mm" />
  <path
     d="m 411.22009,245.66327 h -3.51276 v -27.08809 h -9.56713 v -3.11999 h 22.64701 v 3.11999 h -9.56712 z"
     id="path5022"
     style="font-size:42.3173px;font-family:'Open Sans';text-anchor:middle;fill:#ffffff;stroke-width:0mm" />
  <path
     d="m 484.0021,215.45519 v 19.54641 q 0,5.16553 -3.12015,8.12023 -3.12016,2.95469 -8.57529,2.95469 -5.45511,0 -8.4513,-2.97536 -2.97552,-2.97535 -2.97552,-8.18221 v -19.46376 h 3.51277 v 19.7117 q 0,3.78118 2.06633,5.80607 2.06633,2.02489 6.07502,2.02489 3.82272,0 5.88905,-2.02489 2.06633,-2.04555 2.06633,-5.84739 v -19.67038 z"
     id="path5019"
     style="font-size:42.3173px;font-family:'Open Sans';text-anchor:middle;fill:#ffffff;stroke-width:0mm" />
  <path
     d="m 537.15399,245.66327 h -3.51277 v -27.08809 h -9.56712 v -3.11999 h 22.64702 v 3.11999 h -9.56713 z"
     id="path5016"
     style="font-size:42.3173px;font-family:'Open Sans';text-anchor:middle;fill:#ffffff;stroke-width:0mm" />
  <path
     d="M 608.75814,245.66327 H 587.9915 v -2.74806 l 16.03474,-24.2987 h -15.53883 v -3.16132 h 19.81613 v 2.74807 l -16.03473,24.27804 h 16.48933 z"
     id="path5013"
     style="font-size:42.3173px;font-family:'Open Sans';text-anchor:middle;fill:#ffffff;stroke-width:0mm" />
  <path
     d="m 671.09479,245.66327 -3.76073,-9.6079 h -12.10871 l -3.7194,9.6079 h -3.55409 l 11.9434,-30.33205 h 2.95485 l 11.88142,30.33205 z m -4.85589,-12.76921 -3.51276,-9.35996 q -0.68189,-1.77695 -1.40511,-4.35972 -0.45459,1.98357 -1.30179,4.35972 l -3.55409,9.35996 z m -10.7656,-22.99698 q 0,-1.07444 0.53726,-1.54967 0.5579,-0.47523 1.32245,-0.47523 0.78521,0 1.34311,0.47523 0.57858,0.47523 0.57858,1.54967 0,1.0331 -0.57858,1.54966 -0.5579,0.49589 -1.34311,0.49589 -0.76455,0 -1.32245,-0.49589 -0.53726,-0.51656 -0.53726,-1.54966 z m 7.87274,0 q 0,-1.07444 0.53724,-1.54967 0.55792,-0.47523 1.32246,-0.47523 0.76454,0 1.32245,0.47523 0.57857,0.47523 0.57857,1.54967 0,1.0331 -0.57857,1.54966 -0.55791,0.49589 -1.32245,0.49589 -0.76454,0 -1.32246,-0.49589 -0.53724,-0.51656 -0.53724,-1.54966 z"
     id="path5010"
     style="font-size:42.3173px;font-family:'Open Sans';text-anchor:middle;fill:#ffffff;stroke-width:0mm" />
  <path
     d="m 734.06179,245.66327 -3.76073,-9.6079 h -12.10871 l -3.7194,9.6079 h -3.55409 l 11.9434,-30.33205 h 2.95485 l 11.88142,30.33205 z m -4.85589,-12.76921 -3.51276,-9.35996 q -0.68189,-1.77695 -1.40511,-4.35972 -0.45459,1.98357 -1.30179,4.35972 l -3.55409,9.35996 z m -10.7656,-22.99698 q 0,-1.07444 0.53726,-1.54967 0.5579,-0.47523 1.32244,-0.47523 0.78522,0 1.34312,0.47523 0.57858,0.47523 0.57858,1.54967 0,1.0331 -0.57858,1.54966 -0.5579,0.49589 -1.34312,0.49589 -0.76454,0 -1.32244,-0.49589 -0.53726,-0.51656 -0.53726,-1.54966 z m 7.87274,0 q 0,-1.07444 0.53724,-1.54967 0.55792,-0.47523 1.32246,-0.47523 0.76454,0 1.32245,0.47523 0.57857,0.47523 0.57857,1.54967 0,1.0331 -0.57857,1.54966 -0.55791,0.49589 -1.32245,0.49589 -0.76454,0 -1.32246,-0.49589 -0.53724,-0.51656 -0.53724,-1.54966 z"
     id="path5007"
     style="font-size:42.3173px;font-family:'Open Sans';text-anchor:middle;fill:#ffffff;stroke-width:0mm" />
  <path
     d="m 787.2653,230.55923 8.0587,-15.10404 h 3.80205 l -10.0837,18.49264 v 11.71544 h -3.55409 v -11.55015 l -10.06305,-18.65793 h 3.84338 z"
     id="path5004"
     style="font-size:42.3173px;font-family:'Open Sans';text-anchor:middle;fill:#ffffff;stroke-width:0mm" />
  <path
     d="m 167.98962,306.13229 h -20.76664 v -2.74807 l 16.03474,-24.2987 H 147.7189 v -3.1613 h 19.81613 v 2.74806 l -16.03474,24.27803 h 16.48933 z"
     id="path5001"
     style="font-size:42.3173px;font-family:'Open Sans';text-anchor:middle;fill:#ffffff;stroke-width:0mm" />
  <path
     d="m 231.50413,306.13229 h -3.47144 l -6.09568,-20.22825 q -0.43393,-1.34305 -0.97117,-3.3886 -0.53725,-2.04555 -0.55791,-2.4588 -0.4546,2.72741 -1.44644,5.97137 l -5.90971,20.10428 h -3.47144 l -8.03803,-30.20807 h 3.7194 l 4.77322,18.65792 q 0.99184,3.92581 1.44644,7.10779 0.55791,-3.78119 1.65306,-7.39706 l 5.4138,-18.36865 h 3.7194 l 5.68241,18.53395 q 0.99184,3.20263 1.67373,7.23176 0.3926,-2.93403 1.48776,-7.14911 l 4.75257,-18.6166 h 3.71939 z"
     id="path4998"
     style="font-size:42.3173px;font-family:'Open Sans';text-anchor:middle;fill:#ffffff;stroke-width:0mm" />
  <path
     d="m 293.29326,306.13229 -3.76073,-9.60791 h -12.10871 l -3.7194,9.60791 h -3.5541 l 11.94341,-30.33205 h 2.95485 L 296.93,306.13229 Z m -4.85589,-12.76922 -3.51276,-9.35995 q -0.68189,-1.77695 -1.40511,-4.35972 -0.45459,1.98357 -1.30179,4.35972 l -3.5541,9.35995 z m -10.7656,-22.99697 q 0,-1.07444 0.53725,-1.54967 0.55792,-0.47523 1.32246,-0.47523 0.7852,0 1.34312,0.47523 0.57856,0.47523 0.57856,1.54967 0,1.0331 -0.57856,1.54965 -0.55792,0.4959 -1.34312,0.4959 -0.76454,0 -1.32246,-0.4959 -0.53725,-0.51655 -0.53725,-1.54965 z m 7.87274,0 q 0,-1.07444 0.53724,-1.54967 0.55791,-0.47523 1.32246,-0.47523 0.76454,0 1.32245,0.47523 0.57857,0.47523 0.57857,1.54967 0,1.0331 -0.57857,1.54965 -0.55791,0.4959 -1.32245,0.4959 -0.76455,0 -1.32246,-0.4959 -0.53724,-0.51655 -0.53724,-1.54965 z"
     id="path4995"
     style="font-size:42.3173px;font-family:'Open Sans';text-anchor:middle;fill:#ffffff;stroke-width:0mm" />
  <path
     d="m 358.30586,306.13229 h -4.00868 l -16.51001,-25.35247 h -0.1653 q 0.33062,4.46302 0.33062,8.18222 v 17.17025 h -3.24416 v -30.20807 h 3.96737 l 16.46867,25.24915 h 0.16531 q -0.0413,-0.55788 -0.18597,-3.57456 -0.14464,-3.03733 -0.10332,-4.33904 v -17.33555 h 3.28547 z"
     id="path4992"
     style="font-size:42.3173px;font-family:'Open Sans';text-anchor:middle;fill:#ffffff;stroke-width:0mm" />
  <path
     d="m 419.85736,306.13229 h -20.76665 v -2.74807 l 16.03475,-24.2987 h -15.53882 v -3.1613 h 19.81613 v 2.74806 l -16.03475,24.27803 h 16.48934 z"
     id="path4989"
     style="font-size:42.3173px;font-family:'Open Sans';text-anchor:middle;fill:#ffffff;stroke-width:0mm" />
  <path
     d="m 474.47631,290.30507 h 10.26968 v 14.6908 q -2.39695,0.7645 -4.87654,1.15708 -2.4796,0.39258 -5.74442,0.39258 -6.86022,0 -10.68294,-4.07044 -3.82271,-4.09111 -3.82271,-11.44684 0,-4.71097 1.88037,-8.2442 1.90102,-3.5539 5.45511,-5.41348 3.55409,-1.88026 8.32733,-1.88026 4.83521,0 9.0092,1.77694 l -1.36378,3.09932 q -4.09133,-1.73562 -7.87272,-1.73562 -5.51712,0 -8.61661,3.28529 -3.0995,3.28529 -3.0995,9.11201 0,6.116 2.97552,9.27731 2.99618,3.16131 8.78191,3.16131 3.14083,0 6.13702,-0.72317 v -9.29798 h -6.75692 z"
     id="path4986"
     style="font-size:42.3173px;font-family:'Open Sans';text-anchor:middle;fill:#ffffff;stroke-width:0mm" />
  <path
     d="m 158.56917,532.06733 h 10.26968 v 14.6908 q -2.39695,0.7645 -4.87654,1.15708 -2.4796,0.39258 -5.74442,0.39258 -6.86022,0 -10.68294,-4.07044 -3.82271,-4.09111 -3.82271,-11.44684 0,-4.71097 1.88037,-8.2442 1.90102,-3.5539 5.45511,-5.41348 3.55409,-1.88026 8.32733,-1.88026 4.83521,0 9.0092,1.77694 l -1.36378,3.09932 q -4.09133,-1.73562 -7.87272,-1.73562 -5.51712,0 -8.61661,3.28529 -3.0995,3.28529 -3.0995,9.11201 0,6.116 2.97552,9.27731 2.99618,3.16131 8.78191,3.16131 3.14083,0 6.13702,-0.72317 v -9.29798 h -6.75692 z"
     id="path4986-7"
     style="font-size:42.3173px;font-family:'Open Sans';text-anchor:middle;fill:#ffffff;stroke-width:0mm" />
  <path
     d="m 549.30403,290.98693 q 0,5.80607 -2.33496,9.64923 -2.33495,3.84316 -6.59159,5.20686 l 7.19083,7.4797 h -5.10384 l -5.88905,-6.81851 -1.13649,0.0413 q -6.67424,0 -10.311,-4.07044 -3.61608,-4.09111 -3.61608,-11.52949 0,-7.37639 3.63675,-11.42617 3.63675,-4.07045 10.33167,-4.07045 6.50894,0 10.16635,4.13243 3.65741,4.13244 3.65741,11.40552 z m -24.07277,0 q 0,6.13666 2.60357,9.31863 2.62424,3.16131 7.6041,3.16131 5.0212,0 7.58345,-3.16131 2.56225,-3.16131 2.56225,-9.31863 0,-6.09534 -2.56225,-9.23599 -2.54159,-3.16131 -7.54211,-3.16131 -5.0212,0 -7.64544,3.18197 -2.60357,3.16131 -2.60357,9.21533 z"
     id="path4983"
     style="font-size:42.3173px;font-family:'Open Sans';text-anchor:middle;fill:#ffffff;stroke-width:0mm" />
  <path
     d="m 611.21708,290.73898 q 0,7.47971 -4.07068,11.44683 -4.05001,3.94648 -11.67478,3.94648 h -8.36865 v -30.20807 h 9.25718 q 7.04619,0 10.95156,3.90514 3.90537,3.90515 3.90537,10.90962 z m -3.7194,0.12397 q 0,-5.90938 -2.97552,-8.90538 -2.95486,-2.99602 -8.80258,-2.99602 h -5.10384 v 24.1334 h 4.2773 q 6.28166,0 9.44315,-3.07866 3.16149,-3.09933 3.16149,-9.15334 z"
     id="path4980"
     style="font-size:42.3173px;font-family:'Open Sans';text-anchor:middle;fill:#ffffff;stroke-width:0mm" />
  <path
     d="m 670.1546,275.92422 h 3.7814 l -10.88958,30.20807 h -3.47144 l -10.82759,-30.20807 h 3.71941 l 6.94288,19.54639 q 1.19847,3.36794 1.90102,6.54991 0.74388,-3.34727 1.94235,-6.67388 z"
     id="path4977"
     style="font-size:42.3173px;font-family:'Open Sans';text-anchor:middle;fill:#ffffff;stroke-width:0mm" />
  <path
     d="m 738.20478,290.98693 q 0,7.25242 -3.67807,11.40551 -3.6574,4.15309 -10.18702,4.15309 -6.67426,0 -10.311,-4.07044 -3.61609,-4.09111 -3.61609,-11.52949 0,-7.37639 3.63675,-11.42617 3.63674,-4.07045 10.33166,-4.07045 6.50896,0 10.16636,4.13243 3.65741,4.13244 3.65741,11.40552 z m -24.07278,0 q 0,6.13666 2.60358,9.31863 2.62425,3.16131 7.60411,3.16131 5.02118,0 7.58343,-3.16131 2.56227,-3.16131 2.56227,-9.31863 0,-6.09534 -2.56227,-9.23599 -2.54158,-3.16131 -7.54211,-3.16131 -5.02118,0 -7.64543,3.18197 -2.60358,3.16131 -2.60358,9.21533 z"
     id="path4974"
     style="font-size:42.3173px;font-family:'Open Sans';text-anchor:middle;fill:#ffffff;stroke-width:0mm" />
  <path
     d="m 781.86183,293.5697 v 12.56259 h -3.51276 v -30.20807 h 8.286 q 5.55844,0 8.20334,2.1282 2.66557,2.1282 2.66557,6.40527 0,5.99202 -6.07503,8.09956 l 8.20335,13.57504 h -4.15333 l -7.31482,-12.56259 z m 0,-3.01668 h 4.81456 q 3.71941,0 5.45512,-1.46701 1.73572,-1.48767 1.73572,-4.44237 0,-2.996 -1.77705,-4.31839 -1.75638,-1.32238 -5.66175,-1.32238 h -4.5666 z"
     id="path4971"
     style="font-size:42.3173px;font-family:'Open Sans';text-anchor:middle;fill:#ffffff;stroke-width:0mm" />
  <path
     d="m 170.5932,366.60131 h -4.13266 l -11.01356,-14.64948 -3.16149,2.81006 v 11.83942 h -3.51276 v -30.20808 h 3.51276 v 14.98007 l 13.69979,-14.98007 h 4.15333 l -12.15004,13.12047 z"
     id="path4968"
     style="font-size:42.3173px;font-family:'Open Sans';text-anchor:middle;fill:#ffffff;stroke-width:0mm" />
  <path
     d="m 230.32633,366.60131 -3.76073,-9.60791 h -12.10871 l -3.7194,9.60791 h -3.55409 l 11.9434,-30.33205 h 2.95486 l 11.88141,30.33205 z m -4.85589,-12.76922 -3.51276,-9.35996 q -0.68189,-1.77694 -1.40511,-4.35971 -0.45459,1.98357 -1.30179,4.35971 l -3.55409,9.35996 z"
     id="path4965"
     style="font-size:42.3173px;font-family:'Open Sans';text-anchor:middle;fill:#ffffff;stroke-width:0mm" />
  <path
     d="m 273.98337,336.39323 h 8.53396 q 6.01302,0 8.69926,1.79761 2.68624,1.79761 2.68624,5.68209 0,2.68608 -1.50843,4.44236 -1.48776,1.73563 -4.35996,2.25218 v 0.20662 q 6.88088,1.17774 6.88088,7.23176 0,4.04978 -2.74821,6.32262 -2.72756,2.27284 -7.64544,2.27284 h -10.5383 z m 3.51277,12.93452 h 5.78573 q 3.7194,0 5.35181,-1.15709 1.6324,-1.17774 1.6324,-3.94647 0,-2.54145 -1.81838,-3.65721 -1.81837,-1.13641 -5.78572,-1.13641 h -5.16584 z m 0,2.97534 v 11.3022 h 6.30232 q 3.6574,0 5.49644,-1.40502 1.8597,-1.42569 1.8597,-4.44236 0,-2.81006 -1.90103,-4.13244 -1.88036,-1.32238 -5.7444,-1.32238 z"
     id="path4962"
     style="font-size:42.3173px;font-family:'Open Sans';text-anchor:middle;fill:#ffffff;stroke-width:0mm" />
  <path
     d="m 359.34936,351.208 q 0,7.4797 -4.07067,11.44684 -4.05002,3.94647 -11.67478,3.94647 h -8.36866 v -30.20808 h 9.25717 q 7.0462,0 10.95157,3.90515 3.90537,3.90515 3.90537,10.90962 z m -3.7194,0.12397 q 0,-5.90937 -2.97552,-8.90539 -2.95486,-2.99601 -8.80258,-2.99601 h -5.10384 v 24.1334 h 4.27731 q 6.28165,0 9.44314,-3.07866 3.16149,-3.09932 3.16149,-9.15334 z"
     id="path4959"
     style="font-size:42.3173px;font-family:'Open Sans';text-anchor:middle;fill:#ffffff;stroke-width:0mm" />
  <path
     d="m 420.95251,366.60131 h -3.51276 v -14.21557 h -15.91077 v 14.21557 h -3.51276 v -30.20808 h 3.51276 v 12.85187 h 15.91077 v -12.85187 h 3.51276 z"
     id="path4956"
     style="font-size:42.3173px;font-family:'Open Sans';text-anchor:middle;fill:#ffffff;stroke-width:0mm" />
  <path
     d="m 482.19406,366.60131 -3.76072,-9.60791 h -12.10871 l -3.7194,9.60791 h -3.55409 l 11.9434,-30.33205 h 2.95486 l 11.88142,30.33205 z m -4.85588,-12.76922 -3.51276,-9.35996 q -0.68189,-1.77694 -1.4051,-4.35971 -0.4546,1.98357 -1.3018,4.35971 l -3.55409,9.35996 z"
     id="path4953"
     style="font-size:42.3173px;font-family:'Open Sans';text-anchor:middle;fill:#ffffff;stroke-width:0mm" />
  <path
     d="m 546.96907,336.39323 v 19.5464 q 0,5.16554 -3.12016,8.12023 -3.12016,2.95468 -8.57528,2.95468 -5.45511,0 -8.4513,-2.97534 -2.97552,-2.97536 -2.97552,-8.18222 v -19.46375 h 3.51277 v 19.7117 q 0,3.78118 2.06632,5.80607 2.06634,2.02489 6.07503,2.02489 3.82272,0 5.88904,-2.02489 2.06634,-2.04555 2.06634,-5.8474 v -19.67037 z"
     id="path4950"
     style="font-size:42.3173px;font-family:'Open Sans';text-anchor:middle;fill:#ffffff;stroke-width:0mm" />
  <path
     d="m 588.81803,336.39323 h 8.53395 q 6.01303,0 8.69927,1.79761 2.68623,1.79761 2.68623,5.68209 0,2.68608 -1.50843,4.44236 -1.48776,1.73563 -4.35996,2.25218 v 0.20662 q 6.8809,1.17774 6.8809,7.23176 0,4.04978 -2.74823,6.32262 -2.72756,2.27284 -7.64543,2.27284 h -10.5383 z m 3.51276,12.93452 h 5.78573 q 3.71941,0 5.35181,-1.15709 1.6324,-1.17774 1.6324,-3.94647 0,-2.54145 -1.81837,-3.65721 -1.81837,-1.13641 -5.78573,-1.13641 h -5.16584 z m 0,2.97534 v 11.3022 h 6.30232 q 3.65741,0 5.49645,-1.40502 1.8597,-1.42569 1.8597,-4.44236 0,-2.81006 -1.90104,-4.13244 -1.88035,-1.32238 -5.7444,-1.32238 z"
     id="path4947"
     style="font-size:42.3173px;font-family:'Open Sans';text-anchor:middle;fill:#ffffff;stroke-width:0mm" />
  <path
     d="m 659.59564,366.60131 v -30.20808 h 3.51277 v 30.20808 z"
     id="path4944"
     style="font-size:42.3173px;font-family:'Open Sans';text-anchor:middle;fill:#ffffff;stroke-width:0mm" />
  <path
     d="m 726.05475,366.60131 h -3.51277 v -27.0881 h -9.56712 v -3.11998 h 22.64701 v 3.11998 h -9.56712 z"
     id="path4941"
     style="font-size:42.3173px;font-family:'Open Sans';text-anchor:middle;fill:#ffffff;stroke-width:0mm" />
  <path
     d="M 797.65895,366.60131 H 776.8923 v -2.74808 l 16.03475,-24.29869 h -15.53882 v -3.16131 h 19.81613 v 2.74807 l -16.03475,24.27804 h 16.48934 z"
     id="path4938"
     style="font-size:42.3173px;font-family:'Open Sans';text-anchor:middle;fill:#ffffff;stroke-width:0mm" />
  <path
     d="m 166.83248,427.07031 h -16.84062 v -30.20807 h 16.84062 v 3.11998 h -13.32785 v 9.73187 h 12.52198 v 3.09933 h -12.52198 v 11.11624 h 13.32785 z"
     id="path4935"
     style="font-size:42.3173px;font-family:'Open Sans';text-anchor:middle;fill:#ffffff;stroke-width:0mm" />
  <path
     d="m 218.82718,427.07031 v -30.20807 h 3.51277 v 30.20807 z"
     id="path4932"
     style="font-size:42.3173px;font-family:'Open Sans';text-anchor:middle;fill:#ffffff;stroke-width:0mm" />
  <path
     d="m 293.12795,419.03273 q 0,3.9878 -2.89287,6.21931 -2.89286,2.23151 -7.85206,2.23151 -5.37246,0 -8.26534,-1.38436 v -3.3886 q 1.85971,0.78516 4.05002,1.23973 2.19031,0.45457 4.33929,0.45457 3.51277,0 5.28982,-1.32238 1.77704,-1.34304 1.77704,-3.71919 0,-1.57032 -0.64056,-2.56211 -0.61989,-1.01244 -2.10766,-1.85959 -1.4671,-0.84714 -4.48394,-1.92158 -4.21532,-1.50834 -6.03369,-3.57455 -1.79772,-2.06622 -1.79772,-5.39283 0,-3.4919 2.62425,-5.55812 2.62424,-2.06621 6.94288,-2.06621 4.5046,0 8.28599,1.65297 l -1.09515,3.05801 q -3.74007,-1.57033 -7.2735,-1.57033 -2.78955,0 -4.35996,1.19841 -1.57041,1.19839 -1.57041,3.3266 0,1.57033 0.57857,2.58277 0.57858,0.99178 1.94236,1.83893 1.38444,0.82648 4.21532,1.83893 4.75256,1.6943 6.52961,3.63654 1.79771,1.94225 1.79771,5.04157 z"
     id="path4929"
     style="font-size:42.3173px;font-family:'Open Sans';text-anchor:middle;fill:#ffffff;stroke-width:0mm" />
  <path
     d="m 360.40319,411.92495 q 0,5.80607 -2.33495,9.64923 -2.33496,3.84316 -6.59161,5.20686 l 7.19084,7.4797 h -5.10384 l -5.88905,-6.81851 -1.13648,0.0413 q -6.67426,0 -10.311,-4.07045 -3.61609,-4.0911 -3.61609,-11.52948 0,-7.37639 3.63675,-11.42617 3.63674,-4.07045 10.33166,-4.07045 6.50895,0 10.16636,4.13243 3.65741,4.13244 3.65741,11.40552 z m -24.07278,0 q 0,6.13666 2.60358,9.31863 2.62424,3.16131 7.60411,3.16131 5.02118,0 7.58344,-3.16131 2.56225,-3.16131 2.56225,-9.31863 0,-6.09534 -2.56225,-9.23599 -2.5416,-3.16131 -7.54212,-3.16131 -5.02119,0 -7.64543,3.18197 -2.60358,3.16131 -2.60358,9.21533 z"
     id="path4926"
     style="font-size:42.3173px;font-family:'Open Sans';text-anchor:middle;fill:#ffffff;stroke-width:0mm" />
  <path
     d="m 419.85736,427.07031 h -20.76665 v -2.74807 l 16.03475,-24.29869 h -15.53882 v -3.16131 h 19.81613 v 2.74806 l -16.03475,24.27804 h 16.48934 z"
     id="path4923"
     style="font-size:42.3173px;font-family:'Open Sans';text-anchor:middle;fill:#ffffff;stroke-width:0mm" />
  <path
     d="m 483.37188,427.07031 h -3.47144 l -6.09569,-20.22826 q -0.43393,-1.34304 -0.97117,-3.38859 -0.53725,-2.04555 -0.55791,-2.45879 -0.45459,2.7274 -1.44644,5.97136 l -5.90971,20.10428 h -3.47144 l -8.03803,-30.20807 h 3.7194 l 4.77323,18.65792 q 0.99183,3.92582 1.44643,7.10779 0.55791,-3.78118 1.65306,-7.39705 l 5.4138,-18.36866 h 3.71939 l 5.68243,18.53395 q 0.99183,3.20263 1.67372,7.23176 0.3926,-2.93403 1.48777,-7.14911 l 4.75256,-18.6166 h 3.7194 z"
     id="path4920"
     style="font-size:42.3173px;font-family:'Open Sans';text-anchor:middle;fill:#ffffff;stroke-width:0mm" />
  <path
     d="m 549.30403,411.92495 q 0,7.25241 -3.67808,11.40551 -3.6574,4.15309 -10.18702,4.15309 -6.67424,0 -10.311,-4.07045 -3.61608,-4.0911 -3.61608,-11.52948 0,-7.37639 3.63675,-11.42617 3.63675,-4.07045 10.33167,-4.07045 6.50894,0 10.16635,4.13243 3.65741,4.13244 3.65741,11.40552 z m -24.07277,0 q 0,6.13666 2.60357,9.31863 2.62424,3.16131 7.6041,3.16131 5.0212,0 7.58345,-3.16131 2.56225,-3.16131 2.56225,-9.31863 0,-6.09534 -2.56225,-9.23599 -2.54159,-3.16131 -7.54211,-3.16131 -5.0212,0 -7.64544,3.18197 -2.60357,3.16131 -2.60357,9.21533 z m 4.48393,-20.62083 q 0,-1.07443 0.53725,-1.54967 0.55791,-0.47523 1.32246,-0.47523 0.7852,0 1.34311,0.47523 0.57857,0.47524 0.57857,1.54967 0,1.03311 -0.57857,1.54965 -0.55791,0.4959 -1.34311,0.4959 -0.76455,0 -1.32246,-0.4959 -0.53725,-0.51654 -0.53725,-1.54965 z m 7.87274,0 q 0,-1.07443 0.53724,-1.54967 0.55791,-0.47523 1.32245,-0.47523 0.76455,0 1.32246,0.47523 0.57857,0.47524 0.57857,1.54967 0,1.03311 -0.57857,1.54965 -0.55791,0.4959 -1.32246,0.4959 -0.76454,0 -1.32245,-0.4959 -0.53724,-0.51654 -0.53724,-1.54965 z"
     id="path4917"
     style="font-size:42.3173px;font-family:'Open Sans';text-anchor:middle;fill:#ffffff;stroke-width:0mm" />
  <path
     d="m 596.62876,427.07031 v -30.20807 h 3.51277 v 30.20807 z"
     id="path4914"
     style="font-size:42.3173px;font-family:'Open Sans';text-anchor:middle;fill:#ffffff;stroke-width:0mm" />
  <path
     d="m 674.18396,411.677 q 0,7.4797 -4.07068,11.44683 -4.05002,3.94648 -11.67478,3.94648 h -8.36865 v -30.20807 h 9.25717 q 7.04619,0 10.95156,3.90515 3.90538,3.90514 3.90538,10.90961 z m -3.7194,0.12397 q 0,-5.90937 -2.97552,-8.90538 -2.95486,-2.99602 -8.80258,-2.99602 h -5.10385 v 24.1334 h 4.27731 q 6.28166,0 9.44315,-3.07866 3.16149,-3.09933 3.16149,-9.15334 z"
     id="path4911"
     style="font-size:42.3173px;font-family:'Open Sans';text-anchor:middle;fill:#ffffff;stroke-width:0mm" />
  <path
     d="m 718.8949,414.50772 v 12.56259 h -3.51276 v -30.20807 h 8.28599 q 5.55844,0 8.20334,2.1282 2.66557,2.1282 2.66557,6.40527 0,5.99203 -6.07501,8.09957 l 8.20333,13.57503 h -4.15333 l -7.31482,-12.56259 z m 0,-3.01668 h 4.81455 q 3.71941,0 5.45513,-1.46702 1.73572,-1.48766 1.73572,-4.44236 0,-2.996 -1.77705,-4.31839 -1.75638,-1.32237 -5.66176,-1.32237 h -4.56659 z"
     id="path4908"
     style="font-size:42.3173px;font-family:'Open Sans';text-anchor:middle;fill:#ffffff;stroke-width:0mm" />
  <path
     d="m 798.83677,396.86224 v 19.54639 q 0,5.16555 -3.12017,8.12023 -3.12016,2.95469 -8.57528,2.95469 -5.45512,0 -8.45131,-2.97535 -2.97551,-2.97535 -2.97551,-8.18221 v -19.46375 h 3.51276 v 19.71169 q 0,3.78118 2.06634,5.80607 2.06633,2.02489 6.07502,2.02489 3.82271,0 5.88905,-2.02489 2.06633,-2.04556 2.06633,-5.84739 v -19.67037 z m -17.43986,-5.55812 q 0,-1.07443 0.53725,-1.54967 0.55791,-0.47523 1.32245,-0.47523 0.78521,0 1.34312,0.47523 0.57857,0.47524 0.57857,1.54967 0,1.03311 -0.57857,1.54965 -0.55791,0.4959 -1.34312,0.4959 -0.76454,0 -1.32245,-0.4959 -0.53725,-0.51654 -0.53725,-1.54965 z m 7.87273,0 q 0,-1.07443 0.53725,-1.54967 0.5579,-0.47523 1.32245,-0.47523 0.76455,0 1.32245,0.47523 0.57858,0.47524 0.57858,1.54967 0,1.03311 -0.57858,1.54965 -0.5579,0.4959 -1.32245,0.4959 -0.76455,0 -1.32245,-0.4959 -0.53725,-0.51654 -0.53725,-1.54965 z"
     id="path4905"
     style="font-size:42.3173px;font-family:'Open Sans';text-anchor:middle;fill:#ffffff;stroke-width:0mm" />
  <path
     d="m 167.98962,487.53929 h -20.76664 v -2.74806 l 16.03474,-24.2987 H 147.7189 v -3.16131 h 19.81613 v 2.74807 l -16.03474,24.27804 h 16.48933 z"
     id="path4902"
     style="font-size:42.3173px;font-family:'Open Sans';text-anchor:middle;fill:#ffffff;stroke-width:0mm" />
  <path
     d="m 229.38614,457.33122 h 3.78139 l -10.88957,30.20807 h -3.47144 l -10.82759,-30.20807 h 3.7194 l 6.94288,19.54641 q 1.19847,3.36792 1.90103,6.5499 0.74388,-3.34727 1.94235,-6.67388 z"
     id="path4899"
     style="font-size:42.3173px;font-family:'Open Sans';text-anchor:middle;fill:#ffffff;stroke-width:0mm" />
  <path
     d="m 281.79411,487.53929 v -30.20807 h 3.51277 v 30.20807 z"
     id="path4896"
     style="font-size:42.3173px;font-family:'Open Sans';text-anchor:middle;fill:#ffffff;stroke-width:0mm" />
  <path
     d="m 355.73328,487.53929 h -16.84062 v -30.20807 h 16.84062 v 3.11998 h -13.32785 v 9.73189 h 12.52198 v 3.09932 h -12.52198 v 11.11623 h 13.32785 z"
     id="path4893"
     style="font-size:42.3173px;font-family:'Open Sans';text-anchor:middle;fill:#ffffff;stroke-width:0mm" />
  <path
     d="m 404.06024,474.9767 v 12.56259 h -3.51277 v -30.20807 h 8.286 q 5.55844,0 8.20334,2.1282 2.66558,2.12821 2.66558,6.40527 0,5.99203 -6.07502,8.09957 l 8.20334,13.57503 h -4.15333 l -7.31482,-12.56259 z m 0,-3.01667 h 4.81456 q 3.7194,0 5.45512,-1.46701 1.73572,-1.48768 1.73572,-4.44237 0,-2.99601 -1.77705,-4.31839 -1.75638,-1.32238 -5.66175,-1.32238 h -4.5666 z"
     id="path4890"
     style="font-size:42.3173px;font-family:'Open Sans';text-anchor:middle;fill:#ffffff;stroke-width:0mm" />
  <path
     d="m 470.69493,487.53929 v -30.20807 h 3.51276 v 30.20807 z"
     id="path4887"
     style="font-size:42.3173px;font-family:'Open Sans';text-anchor:middle;fill:#ffffff;stroke-width:0mm" />
  <path
     d="m 532.15347,487.53929 h -3.51277 v -30.20807 h 16.84062 v 3.11998 h -13.32785 v 11.05426 h 12.52198 v 3.11999 h -12.52198 z"
     id="path4884"
     style="font-size:42.3173px;font-family:'Open Sans';text-anchor:middle;fill:#ffffff;stroke-width:0mm" />
  <path
     d="m 609.93595,457.33122 v 19.54641 q 0,5.16553 -3.12016,8.12022 -3.12017,2.95469 -8.57528,2.95469 -5.45513,0 -8.4513,-2.97535 -2.97553,-2.97535 -2.97553,-8.18222 v -19.46375 h 3.51277 v 19.7117 q 0,3.78118 2.06633,5.80607 2.06634,2.02489 6.07502,2.02489 3.82272,0 5.88905,-2.02489 2.06633,-2.04555 2.06633,-5.8474 v -19.67037 z m -17.43984,-5.55812 q 0,-1.07443 0.53724,-1.54966 0.55791,-0.47523 1.32245,-0.47523 0.78521,0 1.34312,0.47523 0.57857,0.47523 0.57857,1.54966 0,1.03311 -0.57857,1.54967 -0.55791,0.49588 -1.34312,0.49588 -0.76454,0 -1.32245,-0.49588 -0.53724,-0.51656 -0.53724,-1.54967 z m 7.87272,0 q 0,-1.07443 0.53724,-1.54966 0.55792,-0.47523 1.32246,-0.47523 0.76454,0 1.32245,0.47523 0.57858,0.47523 0.57858,1.54966 0,1.03311 -0.57858,1.54967 -0.55791,0.49588 -1.32245,0.49588 -0.76454,0 -1.32246,-0.49588 -0.53724,-0.51656 -0.53724,-1.54967 z"
     id="path4881"
     style="font-size:42.3173px;font-family:'Open Sans';text-anchor:middle;fill:#ffffff;stroke-width:0mm" />
  <path
     d="m 658.08722,487.53929 h -3.51276 v -30.20807 h 16.84061 v 3.11998 h -13.32785 v 11.05426 h 12.52197 v 3.11999 h -12.52197 z"
     id="path4878"
     style="font-size:42.3173px;font-family:'Open Sans';text-anchor:middle;fill:#ffffff;stroke-width:0mm" />
  <path
     d="m 722.56264,487.53929 v -30.20807 h 3.51277 v 30.20807 z"
     id="path4875"
     style="font-size:42.3173px;font-family:'Open Sans';text-anchor:middle;fill:#ffffff;stroke-width:0mm" />
  <path
     d="m 789.02168,487.53929 h -3.51276 V 460.4512 h -9.56712 v -3.11998 h 22.64701 v 3.11998 h -9.56713 z"
     id="path4872"
     style="font-size:42.3173px;font-family:'Open Sans';text-anchor:middle;fill:#ffffff;stroke-width:0mm" />
  <path
     d="m 293.19409,539.97074 q 0,3.98779 -2.89287,6.2193 -2.89287,2.23152 -7.85207,2.23152 -5.37246,0 -8.26533,-1.38436 v -3.3886 q 1.8597,0.78516 4.05001,1.23973 2.19032,0.45456 4.3393,0.45456 3.51277,0 5.28982,-1.32237 1.77704,-1.34304 1.77704,-3.71919 0,-1.57033 -0.64056,-2.56211 -0.6199,-1.01244 -2.10766,-1.8596 -1.4671,-0.84714 -4.48394,-1.92157 -4.21532,-1.50834 -6.0337,-3.57456 -1.7977,-2.06621 -1.7977,-5.39282 0,-3.4919 2.62424,-5.55812 2.62424,-2.06621 6.94288,-2.06621 4.5046,0 8.28599,1.65297 l -1.09515,3.05799 q -3.74007,-1.57032 -7.2735,-1.57032 -2.78954,0 -4.35996,1.19841 -1.57041,1.1984 -1.57041,3.3266 0,1.57033 0.57857,2.58278 0.57857,0.99178 1.94235,1.83893 1.38445,0.82648 4.21532,1.83893 4.75257,1.6943 6.52962,3.63654 1.79771,1.94225 1.79771,5.04157 z"
     id="path4869"
     style="font-size:42.3173px;font-family:'Open Sans';text-anchor:middle;fill:#ffffff;stroke-width:0mm" />
  <path
     d="m 356.32633,548.00832 -3.76073,-9.60791 h -12.10871 l -3.7194,9.60791 h -3.55409 l 11.9434,-30.33205 h 2.95486 l 11.88141,30.33205 z m -4.85589,-12.76922 -3.51276,-9.35995 q -0.68189,-1.77695 -1.40511,-4.35972 -0.45459,1.98356 -1.30179,4.35972 l -3.55409,9.35995 z m -10.76559,-22.99698 q 0,-1.07444 0.53724,-1.54966 0.55791,-0.47523 1.32246,-0.47523 0.7852,0 1.34311,0.47523 0.57858,0.47522 0.57858,1.54966 0,1.0331 -0.57858,1.54966 -0.55791,0.4959 -1.34311,0.4959 -0.76455,0 -1.32246,-0.4959 -0.53724,-0.51656 -0.53724,-1.54966 z m 7.87273,0 q 0,-1.07444 0.53724,-1.54966 0.55791,-0.47523 1.32246,-0.47523 0.76454,0 1.32245,0.47523 0.57858,0.47522 0.57858,1.54966 0,1.0331 -0.57858,1.54966 -0.55791,0.4959 -1.32245,0.4959 -0.76455,0 -1.32246,-0.4959 -0.53724,-0.51656 -0.53724,-1.54966 z"
     id="path4866"
     style="font-size:42.3173px;font-family:'Open Sans';text-anchor:middle;fill:#ffffff;stroke-width:0mm" />
  <path
     d="m 413.28023,520.50698 q -4.97986,0 -7.87274,3.32662 -2.8722,3.30593 -2.8722,9.07068 0,5.93004 2.76889,9.174 2.78955,3.2233 7.93472,3.2233 3.16149,0 7.2115,-1.13643 v 3.07866 q -3.14083,1.17775 -7.74875,1.17775 -6.67425,0 -10.311,-4.04979 -3.61608,-4.04978 -3.61608,-11.50882 0,-4.66965 1.73571,-8.18221 1.75639,-3.51257 5.04186,-5.41349 3.30613,-1.90091 7.76941,-1.90091 4.75257,0 8.30666,1.73562 l -1.48776,3.01667 q -3.43012,-1.61165 -6.86022,-1.61165 z"
     id="path4863"
     style="font-size:42.3173px;font-family:'Open Sans';text-anchor:middle;fill:#ffffff;stroke-width:0mm" />
  <path
     d="m 483.98558,548.00832 h -3.51276 v -14.21557 h -15.91077 v 14.21557 h -3.51277 v -30.20808 h 3.51277 v 12.85186 h 15.91077 v -12.85186 h 3.51276 z"
     id="path4860"
     style="font-size:42.3173px;font-family:'Open Sans';text-anchor:middle;fill:#ffffff;stroke-width:0mm" />
  <path
     d="m 545.06182,539.97074 q 0,3.98779 -2.89286,6.2193 -2.89287,2.23152 -7.85207,2.23152 -5.37247,0 -8.26533,-1.38436 v -3.3886 q 1.8597,0.78516 4.05002,1.23973 2.19031,0.45456 4.33929,0.45456 3.51277,0 5.28982,-1.32237 1.77704,-1.34304 1.77704,-3.71919 0,-1.57033 -0.64056,-2.56211 -0.61991,-1.01244 -2.10766,-1.8596 -1.4671,-0.84714 -4.48395,-1.92157 -4.21532,-1.50834 -6.03369,-3.57456 -1.79771,-2.06621 -1.79771,-5.39282 0,-3.4919 2.62425,-5.55812 2.62424,-2.06621 6.94287,-2.06621 4.50461,0 8.286,1.65297 l -1.09515,3.05799 q -3.74007,-1.57032 -7.2735,-1.57032 -2.78955,0 -4.35996,1.19841 -1.57042,1.1984 -1.57042,3.3266 0,1.57033 0.57858,2.58278 0.57858,0.99178 1.94235,1.83893 1.38444,0.82648 4.21532,1.83893 4.75257,1.6943 6.52961,3.63654 1.79771,1.94225 1.79771,5.04157 z"
     id="path4857"
     style="font-size:42.3173px;font-family:'Open Sans';text-anchor:middle;fill:#ffffff;stroke-width:0mm" />
  <path
     d="m 596.69493,548.00832 v -30.20808 h 3.51276 v 30.20808 z"
     id="path4854"
     style="font-size:42.3173px;font-family:'Open Sans';text-anchor:middle;fill:#ffffff;stroke-width:0mm" />
  <path
     d="m 651.78491,517.80024 h 8.53395 q 6.01303,0 8.69926,1.79761 2.68623,1.7976 2.68623,5.68209 0,2.68608 -1.50842,4.44237 -1.48776,1.73562 -4.35996,2.25217 v 0.20662 q 6.88088,1.17774 6.88088,7.23175 0,4.04979 -2.74821,6.32262 -2.72756,2.27285 -7.64544,2.27285 h -10.53829 z m 3.51276,12.93451 h 5.78573 q 3.7194,0 5.35181,-1.15708 1.6324,-1.17774 1.6324,-3.94648 0,-2.54143 -1.81837,-3.65719 -1.81838,-1.13642 -5.78573,-1.13642 h -5.16584 z m 0,2.97535 v 11.3022 h 6.30232 q 3.6574,0 5.49644,-1.40503 1.85971,-1.42569 1.85971,-4.44236 0,-2.81005 -1.90104,-4.13243 -1.88036,-1.32238 -5.7444,-1.32238 z"
     id="path4845"
     style="font-size:42.3173px;font-family:'Open Sans';text-anchor:middle;fill:#ffffff;stroke-width:0mm" />
  <path
     d="m 736.10745,548.00832 h -4.00868 l -16.51,-25.35247 h -0.16531 q 0.33062,4.46302 0.33062,8.18222 v 17.17025 h -3.24415 v -30.20808 h 3.96736 l 16.46867,25.24916 h 0.16531 q -0.0413,-0.55788 -0.18597,-3.57456 -0.14464,-3.03733 -0.10332,-4.33905 v -17.33555 h 3.28547 z"
     id="path4842"
     style="font-size:42.3173px;font-family:'Open Sans';text-anchor:middle;fill:#ffffff;stroke-width:0mm" />
  <path
     d="m 785.52958,548.00832 v -30.20808 h 3.51277 v 30.20808 z"
     id="path4839"
     style="font-size:42.3173px;font-family:'Open Sans';text-anchor:middle;fill:#ffffff;stroke-width:0mm" />
  <path
     d="m 167.35939,608.4773 -3.76072,-9.6079 h -12.10872 l -3.71939,9.6079 h -3.5541 l 11.94341,-30.33205 h 2.95485 l 11.88142,30.33205 z m -4.85588,-12.76921 -3.51277,-9.35996 q -0.68189,-1.77695 -1.4051,-4.35971 -0.4546,1.98356 -1.30179,4.35971 l -3.5541,9.35996 z"
     id="path4836"
     style="font-size:42.3173px;font-family:'Open Sans';text-anchor:middle;fill:#ffffff;stroke-width:0mm" />
  <path
     d="m 224.3133,580.97597 q -4.97987,0 -7.87273,3.32661 -2.87221,3.30595 -2.87221,9.07068 0,5.93004 2.76889,9.174 2.78955,3.2233 7.93472,3.2233 3.16149,0 7.2115,-1.13642 v 3.07867 q -3.14083,1.17773 -7.74875,1.17773 -6.67425,0 -10.311,-4.04977 -3.61608,-4.04979 -3.61608,-11.50883 0,-4.66964 1.73572,-8.18221 1.75638,-3.51257 5.04185,-5.41349 3.30613,-1.90092 7.76941,-1.90092 4.75257,0 8.30667,1.73562 l -1.48777,3.01668 q -3.43011,-1.61165 -6.86022,-1.61165 z"
     id="path4833"
     style="font-size:42.3173px;font-family:'Open Sans';text-anchor:middle;fill:#ffffff;stroke-width:0mm" />
  <path
     d="m 295.01865,608.4773 h -3.51277 v -14.21556 h -15.91076 v 14.21556 h -3.51277 v -30.20807 h 3.51277 v 12.85186 h 15.91076 v -12.85186 h 3.51277 z"
     id="path4830"
     style="font-size:42.3173px;font-family:'Open Sans';text-anchor:middle;fill:#ffffff;stroke-width:0mm" />
  <path
     d="m 348.25315,608.4773 h -3.51276 v -27.08809 h -9.56712 v -3.11998 h 22.647 v 3.11998 h -9.56712 z"
     id="path4827"
     style="font-size:42.3173px;font-family:'Open Sans';text-anchor:middle;fill:#ffffff;stroke-width:0mm" />
  <path
     d="m 407.72799,608.4773 v -30.20807 h 3.51276 v 30.20807 z"
     id="path4824"
     style="font-size:42.3173px;font-family:'Open Sans';text-anchor:middle;fill:#ffffff;stroke-width:0mm" />
  <path
     d="m 484.23974,608.4773 h -4.00869 l -16.51,-25.35247 h -0.16531 q 0.33061,4.46303 0.33061,8.18222 v 17.17025 h -3.24414 v -30.20807 h 3.96736 l 16.46868,25.24915 h 0.16531 q -0.0413,-0.55787 -0.18598,-3.57454 -0.14464,-3.03735 -0.10331,-4.33906 v -17.33555 h 3.28547 z"
     id="path4821"
     style="font-size:42.3173px;font-family:'Open Sans';text-anchor:middle;fill:#ffffff;stroke-width:0mm" />
  <path
     d="m 546.96907,578.26923 v 19.5464 q 0,5.16554 -3.12016,8.12023 -3.12016,2.95468 -8.57528,2.95468 -5.45511,0 -8.4513,-2.97534 -2.97552,-2.97536 -2.97552,-8.18222 v -19.46375 h 3.51277 v 19.71169 q 0,3.78118 2.06632,5.80608 2.06634,2.02488 6.07503,2.02488 3.82272,0 5.88904,-2.02488 2.06634,-2.04557 2.06634,-5.8474 v -19.67037 z m -17.43984,-5.55812 q 0,-1.07443 0.53724,-1.54967 0.55791,-0.47522 1.32245,-0.47522 0.78521,0 1.34312,0.47522 0.57857,0.47524 0.57857,1.54967 0,1.03311 -0.57857,1.54965 -0.55791,0.4959 -1.34312,0.4959 -0.76454,0 -1.32245,-0.4959 -0.53724,-0.51654 -0.53724,-1.54965 z m 7.87272,0 q 0,-1.07443 0.53725,-1.54967 0.55791,-0.47522 1.32245,-0.47522 0.76455,0 1.32246,0.47522 0.57857,0.47524 0.57857,1.54967 0,1.03311 -0.57857,1.54965 -0.55791,0.4959 -1.32246,0.4959 -0.76454,0 -1.32245,-0.4959 -0.53725,-0.51654 -0.53725,-1.54965 z"
     id="path4818"
     style="font-size:42.3173px;font-family:'Open Sans';text-anchor:middle;fill:#ffffff;stroke-width:0mm" />
  <path
     d="m 610.17358,608.4773 h -4.00869 l -16.51,-25.35247 h -0.1653 q 0.33061,4.46303 0.33061,8.18222 v 17.17025 h -3.24414 v -30.20807 h 3.96736 l 16.46867,25.24915 h 0.1653 q -0.0413,-0.55787 -0.18596,-3.57454 -0.14465,-3.03735 -0.10332,-4.33906 v -17.33555 h 3.28547 z"
     id="path4815"
     style="font-size:42.3173px;font-family:'Open Sans';text-anchor:middle;fill:#ffffff;stroke-width:0mm" />
  <path
     d="m 659.59564,608.4773 v -30.20807 h 3.51277 v 30.20807 z"
     id="path4812"
     style="font-size:42.3173px;font-family:'Open Sans';text-anchor:middle;fill:#ffffff;stroke-width:0mm" />
  <path
     d="m 738.20478,593.33194 q 0,7.25242 -3.67807,11.40551 -3.6574,4.15309 -10.18702,4.15309 -6.67426,0 -10.311,-4.07044 -3.61609,-4.09111 -3.61609,-11.52949 0,-7.37639 3.63675,-11.42617 3.63674,-4.07045 10.33166,-4.07045 6.50896,0 10.16636,4.13244 3.65741,4.13243 3.65741,11.40551 z m -24.07278,0 q 0,6.13666 2.60358,9.31863 2.62425,3.16131 7.60411,3.16131 5.02118,0 7.58343,-3.16131 2.56227,-3.16131 2.56227,-9.31863 0,-6.09533 -2.56227,-9.23598 -2.54158,-3.16131 -7.54211,-3.16131 -5.02118,0 -7.64543,3.18196 -2.60358,3.16132 -2.60358,9.21533 z"
     id="path4809"
     style="font-size:42.3173px;font-family:'Open Sans';text-anchor:middle;fill:#ffffff;stroke-width:0mm" />
  <path
     d="m 784.02115,608.4773 h -3.51277 V 578.26923 H 797.349 v 3.11998 h -13.32785 v 11.05426 h 12.52198 v 3.11998 h -12.52198 z"
     id="path4806"
     style="font-size:42.3173px;font-family:'Open Sans';text-anchor:middle;fill:#ffffff;stroke-width:0mm" />
  <path
     d="m 161.34636,641.44499 q -4.97986,0 -7.87273,3.3266 -2.8722,3.30595 -2.8722,9.0707 0,5.93003 2.76889,9.17399 2.78955,3.22329 7.93472,3.22329 3.16149,0 7.2115,-1.13641 v 3.07866 q -3.14083,1.17775 -7.74875,1.17775 -6.67426,0 -10.311,-4.04979 -3.61608,-4.04978 -3.61608,-11.50882 0,-4.66965 1.73571,-8.18222 1.75639,-3.51256 5.04186,-5.41348 3.30613,-1.90092 7.76941,-1.90092 4.75257,0 8.30666,1.73562 l -1.48776,3.01667 q -3.43011,-1.61164 -6.86023,-1.61164 z"
     id="path4803"
     style="font-size:42.3173px;font-family:'Open Sans';text-anchor:middle;fill:#ffffff;stroke-width:0mm" />
  <path
     d="m 293.81194,668.94632 h -20.76665 v -2.74806 l 16.03474,-24.2987 h -15.53882 v -3.16131 h 19.81614 v 2.74807 l -16.03475,24.27803 h 16.48934 z"
     id="path4800"
     style="font-size:42.3173px;font-family:'Open Sans';text-anchor:middle;fill:#ffffff;stroke-width:0mm" />
  <path
     d="m 356.14864,668.94632 -3.76073,-9.6079 H 340.2792 l -3.7194,9.6079 h -3.5541 l 11.94341,-30.33205 h 2.95485 l 11.88142,30.33205 z m -4.85589,-12.76921 -3.51276,-9.35996 q -0.68189,-1.77694 -1.40511,-4.35972 -0.45459,1.98357 -1.30179,4.35972 l -3.5541,9.35996 z m -10.7656,-22.99699 q 0,-1.07443 0.53725,-1.54965 0.55792,-0.47524 1.32246,-0.47524 0.7852,0 1.34312,0.47524 0.57856,0.47522 0.57856,1.54965 0,1.03311 -0.57856,1.54967 -0.55792,0.49588 -1.34312,0.49588 -0.76454,0 -1.32246,-0.49588 -0.53725,-0.51656 -0.53725,-1.54967 z m 7.87274,0 q 0,-1.07443 0.53724,-1.54965 0.55791,-0.47524 1.32246,-0.47524 0.76454,0 1.32245,0.47524 0.57857,0.47522 0.57857,1.54965 0,1.03311 -0.57857,1.54967 -0.55791,0.49588 -1.32245,0.49588 -0.76455,0 -1.32246,-0.49588 -0.53724,-0.51656 -0.53724,-1.54967 z"
     id="path4797"
     style="font-size:42.3173px;font-family:'Open Sans';text-anchor:middle;fill:#ffffff;stroke-width:0mm" />
  <path
     d="m 421.16124,668.94632 h -4.00868 l -16.51001,-25.35246 h -0.1653 q 0.33062,4.46302 0.33062,8.18221 v 17.17025 h -3.24416 v -30.20807 h 3.96737 l 16.46867,25.24915 h 0.16531 q -0.0413,-0.55788 -0.18597,-3.57455 -0.14464,-3.03733 -0.10332,-4.33906 v -17.33554 h 3.28547 z"
     id="path4794"
     style="font-size:42.3173px;font-family:'Open Sans';text-anchor:middle;fill:#ffffff;stroke-width:0mm" />
  <path
     d="m 470.58337,668.94632 v -30.20807 h 3.51276 v 30.20807 z"
     id="path4791"
     style="font-size:42.3173px;font-family:'Open Sans';text-anchor:middle;fill:#ffffff;stroke-width:0mm" />
  <path
     d="m 607.53215,668.94632 h -16.84061 v -30.20807 h 16.84061 v 3.11998 H 594.2043 v 9.73188 h 12.52199 v 3.09932 H 594.2043 v 11.11624 h 13.32785 z"
     id="path4788"
     style="font-size:42.3173px;font-family:'Open Sans';text-anchor:middle;fill:#ffffff;stroke-width:0mm" />
  <path
     d="m 672.83407,638.73825 v 19.5464 q 0,5.16553 -3.12016,8.12022 -3.12016,2.9547 -8.57528,2.9547 -5.45511,0 -8.4513,-2.97536 -2.97552,-2.97534 -2.97552,-8.18221 v -19.46375 h 3.51277 v 19.7117 q 0,3.78117 2.06632,5.80606 2.06634,2.02489 6.07503,2.02489 3.82272,0 5.88904,-2.02489 2.06634,-2.04555 2.06634,-5.84739 v -19.67037 z"
     id="path4785"
     style="font-size:42.3173px;font-family:'Open Sans';text-anchor:middle;fill:#ffffff;stroke-width:0mm" />
  <path
     d="m 720.98534,668.94632 h -3.51276 v -30.20807 h 16.84061 v 3.11998 h -13.32785 v 11.05425 h 12.52199 v 3.11999 h -12.52199 z"
     id="path4782"
     style="font-size:42.3173px;font-family:'Open Sans';text-anchor:middle;fill:#ffffff;stroke-width:0mm" />
  <path
     d="m 785.46064,668.94632 v -30.20807 h 3.51277 v 30.20807 z"
     id="path4779"
     style="font-size:42.3173px;font-family:'Open Sans';text-anchor:middle;fill:#ffffff;stroke-width:0mm" />
  <path
     d="m 233.28986,653.63758 q 0,7.4797 -4.07067,11.44684 -4.05002,3.94647 -11.67477,3.94647 h -8.36866 v -30.20807 h 9.25717 q 7.04619,0 10.95156,3.90514 3.90537,3.90515 3.90537,10.90962 z m -3.71939,0.12397 q 0,-5.90937 -2.97553,-8.90539 -2.95485,-2.99601 -8.80258,-2.99601 h -5.10384 v 24.1334 h 4.27731 q 6.28166,0 9.44315,-3.07866 3.16149,-3.09932 3.16149,-9.15334 z"
     id="path4776-4"
     style="font-size:42.3173px;font-family:'Open Sans';text-anchor:middle;fill:#ffffff;stroke-width:0mm" />
  <path
     d="m 171.50239,714.27 q 0,7.25243 -3.67807,11.40552 -3.65741,4.15309 -10.18702,4.15309 -6.67426,0 -10.31101,-4.07044 -3.61608,-4.09111 -3.61608,-11.52949 0,-7.37639 3.63675,-11.42617 3.63674,-4.07045 10.33166,-4.07045 6.50895,0 10.16636,4.13244 3.65741,4.13243 3.65741,11.4055 z m -24.07278,0 q 0,6.13667 2.60358,9.31864 2.62424,3.16131 7.60411,3.16131 5.02118,0 7.58344,-3.16131 2.56225,-3.16131 2.56225,-9.31864 0,-6.09532 -2.56225,-9.23598 -2.54159,-3.16131 -7.54212,-3.16131 -5.02119,0 -7.64543,3.18197 -2.60358,3.16131 -2.60358,9.21532 z"
     id="path4770"
     style="font-size:42.3173px;font-family:'Open Sans';text-anchor:middle;fill:#ffffff;stroke-width:0mm" />
  <path
     d="m 233.56014,729.41537 h -4.13267 l -11.01355,-14.64947 -3.16149,2.81005 v 11.83942 h -3.51277 v -30.20808 h 3.51277 v 14.98006 l 13.69978,-14.98006 h 4.15333 l -12.15004,13.12048 z"
     id="path4767"
     style="font-size:42.3173px;font-family:'Open Sans';text-anchor:middle;fill:#ffffff;stroke-width:0mm" />
  <path
     d="m 285.5755,713.58815 h 10.26968 v 14.6908 q -2.39695,0.7645 -4.87655,1.15708 -2.4796,0.39258 -5.7444,0.39258 -6.86024,0 -10.68294,-4.07044 -3.82272,-4.09111 -3.82272,-11.44684 0,-4.71098 1.88036,-8.24419 1.90102,-3.5539 5.45512,-5.41349 3.5541,-1.88026 8.32732,-1.88026 4.83522,0 9.00922,1.77694 l -1.36379,3.09932 q -4.09134,-1.73562 -7.87272,-1.73562 -5.51711,0 -8.61662,3.28529 -3.0995,3.28529 -3.0995,9.11201 0,6.116 2.97553,9.27731 2.99618,3.16131 8.78191,3.16131 3.14083,0 6.13701,-0.72317 v -9.29798 h -6.75691 z"
     id="path4764"
     style="font-size:42.3173px;font-family:'Open Sans';text-anchor:middle;fill:#ffffff;stroke-width:0mm" />
  <path
     d="m 356.89042,729.41537 h -20.76665 v -2.74807 l 16.03475,-24.2987 H 336.6197 v -3.16131 h 19.81613 v 2.74807 l -16.03474,24.27803 h 16.48933 z"
     id="path4761"
     style="font-size:42.3173px;font-family:'Open Sans';text-anchor:middle;fill:#ffffff;stroke-width:0mm" />
  <path
     d="m 420.40494,729.41537 h -3.47144 l -6.09568,-20.22825 q -0.43394,-1.34305 -0.97118,-3.3886 -0.53725,-2.04555 -0.55791,-2.4588 -0.45459,2.72742 -1.44643,5.97137 l -5.90972,20.10428 h -3.47143 l -8.03804,-30.20808 h 3.7194 l 4.77323,18.65793 q 0.99184,3.92581 1.44643,7.10779 0.55792,-3.78118 1.65307,-7.39706 l 5.41379,-18.36866 h 3.7194 l 5.68242,18.53396 q 0.99184,3.20263 1.67372,7.23176 0.39261,-2.93403 1.48777,-7.14911 l 4.75256,-18.61661 h 3.7194 z"
     id="path4758"
     style="font-size:42.3173px;font-family:'Open Sans';text-anchor:middle;fill:#ffffff;stroke-width:0mm" />
  <path
     d="m 486.33706,714.27 q 0,7.25243 -3.67806,11.40552 -3.65742,4.15309 -10.18703,4.15309 -6.67425,0 -10.31101,-4.07044 -3.61608,-4.09111 -3.61608,-11.52949 0,-7.37639 3.63675,-11.42617 3.63675,-4.07045 10.33167,-4.07045 6.50894,0 10.16636,4.13244 3.6574,4.13243 3.6574,11.4055 z m -24.07277,0 q 0,6.13667 2.60357,9.31864 2.62425,3.16131 7.60411,3.16131 5.02119,0 7.58344,-3.16131 2.56225,-3.16131 2.56225,-9.31864 0,-6.09532 -2.56225,-9.23598 -2.54159,-3.16131 -7.54211,-3.16131 -5.02119,0 -7.64544,3.18197 -2.60357,3.16131 -2.60357,9.21532 z m 4.48393,-20.62082 q 0,-1.07444 0.53725,-1.54967 0.55792,-0.47523 1.32246,-0.47523 0.7852,0 1.34312,0.47523 0.57856,0.47523 0.57856,1.54967 0,1.0331 -0.57856,1.54965 -0.55792,0.4959 -1.34312,0.4959 -0.76454,0 -1.32246,-0.4959 -0.53725,-0.51655 -0.53725,-1.54965 z m 7.87274,0 q 0,-1.07444 0.53724,-1.54967 0.55791,-0.47523 1.32246,-0.47523 0.76454,0 1.32245,0.47523 0.57857,0.47523 0.57857,1.54967 0,1.0331 -0.57857,1.54965 -0.55791,0.4959 -1.32245,0.4959 -0.76455,0 -1.32246,-0.4959 -0.53724,-0.51655 -0.53724,-1.54965 z"
     id="path4755"
     style="font-size:42.3173px;font-family:'Open Sans';text-anchor:middle;fill:#ffffff;stroke-width:0mm" />
  <path
     d="m 546.96907,699.20729 v 19.54641 q 0,5.16554 -3.12016,8.12022 -3.12016,2.95469 -8.57528,2.95469 -5.45511,0 -8.4513,-2.97534 -2.97552,-2.97536 -2.97552,-8.18222 v -19.46376 h 3.51277 v 19.7117 q 0,3.78117 2.06632,5.80607 2.06634,2.02489 6.07503,2.02489 3.82272,0 5.88904,-2.02489 2.06634,-2.04556 2.06634,-5.84739 v -19.67038 z"
     id="path4752"
     style="font-size:42.3173px;font-family:'Open Sans';text-anchor:middle;fill:#ffffff;stroke-width:0mm" />
  <path
     d="m 595.12034,729.41537 h -3.51276 v -30.20808 h 16.84061 v 3.11999 h -13.32785 v 11.05426 h 12.52199 v 3.11998 h -12.52199 z"
     id="path4749"
     style="font-size:42.3173px;font-family:'Open Sans';text-anchor:middle;fill:#ffffff;stroke-width:0mm" />
  <path
     d="m 659.59564,729.41537 v -30.20808 h 3.51277 v 30.20808 z"
     id="path4746"
     style="font-size:42.3173px;font-family:'Open Sans';text-anchor:middle;fill:#ffffff;stroke-width:0mm" />
  <path
     d="m 799.32235,729.41537 h -3.98802 l -8.12069,-13.28577 -8.26533,13.28577 h -3.71941 l 10.04239,-15.78589 -9.3605,-14.42219 h 3.88471 l 7.5008,11.96339 7.56277,-11.96339 h 3.74007 l -9.3605,14.29821 z"
     id="path4740"
     style="font-size:42.3173px;font-family:'Open Sans';text-anchor:middle;fill:#ffffff;stroke-width:0mm" />
  <path
     d="m 547.3132,668.96554 h -3.98802 l -8.12069,-13.28577 -8.26533,13.28577 h -3.71941 l 10.04239,-15.78589 -9.3605,-14.42219 h 3.88471 l 7.5008,11.96339 7.56277,-11.96339 h 3.74007 l -9.3605,14.29821 z"
     id="path4740-8"
     style="font-size:42.3173px;font-family:'Open Sans';text-anchor:middle;fill:#ffffff;stroke-width:0mm" />
  <path
     d="m 150.77707,789.88442 v -30.20808 h 3.51277 v 27.02611 h 13.32784 v 3.18197 z"
     id="path4737"
     style="font-size:42.3173px;font-family:'Open Sans';text-anchor:middle;fill:#ffffff;stroke-width:0mm" />
  <path
     d="m 220.5629,774.78038 8.0587,-15.10404 h 3.80205 l -10.0837,18.49263 v 11.71545 h -3.5541 v -11.55015 l -10.06304,-18.65793 h 3.84338 z"
     id="path4734"
     style="font-size:42.3173px;font-family:'Open Sans';text-anchor:middle;fill:#ffffff;stroke-width:0mm" />
  <path
     d="m 273.98337,759.67634 h 8.53396 q 6.01302,0 8.69926,1.79761 2.68624,1.79761 2.68624,5.68209 0,2.68609 -1.50843,4.44237 -1.48776,1.73562 -4.35996,2.25217 v 0.20663 q 6.88088,1.17773 6.88088,7.23175 0,4.04979 -2.74821,6.32262 -2.72756,2.27284 -7.64544,2.27284 h -10.5383 z m 3.51277,12.93452 h 5.78573 q 3.7194,0 5.35181,-1.15709 1.6324,-1.17774 1.6324,-3.94647 0,-2.54145 -1.81838,-3.6572 -1.81837,-1.13642 -5.78572,-1.13642 h -5.16584 z m 0,2.97534 v 11.3022 h 6.30232 q 3.6574,0 5.49644,-1.40502 1.8597,-1.42569 1.8597,-4.44236 0,-2.81006 -1.90103,-4.13243 -1.88036,-1.32239 -5.7444,-1.32239 z"
     id="path4731"
     style="font-size:42.3173px;font-family:'Open Sans';text-anchor:middle;fill:#ffffff;stroke-width:0mm" />
  <path
     d="m 483.01027,768.47842 q 0,4.587 -3.14082,7.06646 -3.12017,2.45879 -8.94723,2.45879 h -3.55409 v 11.88075 h -3.51277 v -30.20808 h 7.8314 q 11.32351,0 11.32351,8.80208 z m -15.64214,6.50858 h 3.16148 q 4.66992,0 6.75691,-1.50834 2.087,-1.50833 2.087,-4.83494 0,-2.99602 -1.96301,-4.46302 -1.96302,-1.46702 -6.11635,-1.46702 h -3.92603 z"
     id="path4722"
     style="font-size:42.3173px;font-family:'Open Sans';text-anchor:middle;fill:#ffffff;stroke-width:0mm" />
  <path
     d="m 659.76095,789.88442 -10.24902,-26.77816 h -0.1653 q 0.28929,3.18198 0.28929,7.56235 v 19.21581 h -3.24414 v -30.20808 h 5.28981 l 9.56712,24.91857 h 0.1653 l 9.64978,-24.91857 h 5.24849 v 30.20808 h -3.51276 v -19.46375 q 0,-3.34728 0.28927,-7.27308 h -0.1653 l -10.33166,26.73683 z"
     id="path4713"
     style="font-size:42.3173px;font-family:'Open Sans';text-anchor:middle;fill:#ffffff;stroke-width:0mm" />
  <path
     d="m 219.11404,547.8545 -10.24902,-26.77816 h -0.1653 q 0.28929,3.18198 0.28929,7.56235 v 19.21581 h -3.24414 v -30.20808 h 5.28981 l 9.56712,24.91857 h 0.1653 l 9.64979,-24.91857 h 5.24849 v 30.20808 h -3.51276 v -19.46375 q 0,-3.34728 0.28927,-7.27308 h -0.1653 l -10.33167,26.73683 z"
     id="path4713-7"
     style="font-size:42.3173px;font-family:'Open Sans';text-anchor:middle;fill:#ffffff;stroke-width:0mm" />
  <path
     d="m 737.2956,789.88442 h -4.13267 l -11.01355,-14.64948 -3.16149,2.81006 v 11.83942 h -3.51277 v -30.20808 h 3.51277 v 14.98007 l 13.69979,-14.98007 h 4.15332 l -12.15004,13.12047 z"
     id="path4710"
     style="font-size:42.3173px;font-family:'Open Sans';text-anchor:middle;fill:#ffffff;stroke-width:0mm" />
  <path
     style="fill:#ffffff;stroke-width:0.0681639"
     d="m 799.40337,789.69146 c -1.27857,0.82726 -2.95935,1.03714 -4.37535,0.54635 -0.8321,-0.28841 -1.3342,-0.60353 -1.96205,-1.23137 -0.63516,-0.63517 -0.94765,-1.13643 -1.23223,-1.97657 -0.46379,-1.36925 -0.31595,-2.80179 0.4316,-4.1822 0.28295,-0.52249 1.26089,-1.50043 1.78337,-1.78338 0.96193,-0.52091 1.74159,-0.71221 2.77413,-0.68069 0.84979,0.0259 1.81094,0.30891 2.48509,0.7316 0.53108,0.33297 1.31633,1.11789 1.64635,1.64566 0.8269,1.32236 0.97201,3.14389 0.36841,4.62487 -0.36086,0.88541 -1.1041,1.77827 -1.91933,2.30575 z m -15.96542,-0.66992 -2.38624,-0.0132 0.0126,-0.5289 c 0.0542,-2.2711 0.64885,-4.96001 1.55704,-7.04008 1.66264,-3.80799 4.51696,-7.00478 8.08287,-9.05265 2.61867,-1.50388 5.88933,-2.43374 8.83783,-2.51262 l 0.66456,-0.0178 0.0148,2.38362 0.0148,2.38362 -0.46722,0.0147 c -2.85596,0.0903 -5.7091,1.08385 -8.15101,2.83841 -0.60565,0.43517 -2.51557,2.34381 -2.94116,2.93914 -1.76119,2.46392 -2.7458,5.29242 -2.83765,8.15176 l -0.015,0.46699 -2.38623,-0.0132 z m -9.58865,-0.0101 -2.38503,0.005 0.0247,-1.02205 c 0.12957,-5.35089 1.98844,-10.92425 5.14362,-15.42178 1.09981,-1.56773 1.70949,-2.2841 3.2832,-3.85781 1.57371,-1.5737 2.29008,-2.18339 3.85781,-3.2832 4.4966,-3.15452 10.0728,-5.01409 15.42405,-5.14367 l 1.02433,-0.0248 -0.008,2.38509 -0.008,2.38509 -0.85135,0.025 c -5.0715,0.14904 -10.09565,2.02445 -14.22104,5.30842 -0.80224,0.63861 -2.92813,2.7645 -3.56674,3.56673 -3.28476,4.12639 -5.15934,9.14843 -5.30843,14.22136 l -0.025,0.85168 z"
     id="path5438"
     inkscape:connector-curvature="0" />
  <g
     aria-label=""
     id="text7138"
     style="font-size:42.3185px;font-family:'Open Sans';text-anchor:middle;fill:#ffffff;stroke-width:0mm"
     transform="matrix(1.3625088,0,0,1.3625088,45.954434,-79.29425)">
    <path
       d="m 214.32558,626.25997 q 0,-2.68623 1.8597,-4.56659 1.88036,-1.88037 4.5666,-1.88037 2.68623,0 4.56659,1.88037 1.88036,1.8597 1.88036,4.56659 0,1.73572 -0.84719,3.22348 -0.8472,1.4671 -2.35562,2.33496 -1.50842,0.86786 -3.24414,0.86786 -2.68624,0 -4.5666,-1.8597 -1.8597,-1.8597 -1.8597,-4.5666 z m 2.37628,0 q 0,1.6944 1.19848,2.87221 1.21913,1.17781 2.89286,1.17781 1.65307,0 2.83088,-1.15715 1.19847,-1.17781 1.19847,-2.89287 0,-1.73572 -1.17781,-2.89286 -1.15714,-1.17781 -2.85154,-1.17781 -1.71505,0 -2.91353,1.17781 -1.17781,1.17781 -1.17781,2.89286 z"
       id="path7587" />
  </g>
  <g
     aria-label=""
     id="text7138-3"
     style="font-size:42.3185px;font-family:'Open Sans';text-anchor:middle;fill:#ffffff;stroke-width:0mm"
     transform="matrix(1.3625088,0,0,1.3625088,108.39106,-79.03611)">
    <path
       d="m 214.32558,626.25997 q 0,-2.68623 1.8597,-4.56659 1.88036,-1.88037 4.5666,-1.88037 2.68623,0 4.56659,1.88037 1.88036,1.8597 1.88036,4.56659 0,1.73572 -0.84719,3.22348 -0.8472,1.4671 -2.35562,2.33496 -1.50842,0.86786 -3.24414,0.86786 -2.68624,0 -4.5666,-1.8597 -1.8597,-1.8597 -1.8597,-4.5666 z m 2.37628,0 q 0,1.6944 1.19848,2.87221 1.21913,1.17781 2.89286,1.17781 1.65307,0 2.83088,-1.15715 1.19847,-1.17781 1.19847,-2.89287 0,-1.73572 -1.17781,-2.89286 -1.15714,-1.17781 -2.85154,-1.17781 -1.71505,0 -2.91353,1.17781 -1.17781,1.17781 -1.17781,2.89286 z"
       id="path7587-3" />
  </g>
  <path
     d="M 716.3035,729.47909 V 699.2693 h 3.51277 v 27.02764 h 13.32785 v 3.18215 z"
     id="path11520"
     style="font-size:42.3185px;font-family:'Open Sans';text-anchor:middle;fill:#ffffff;stroke-width:0mm" />
  <g
     aria-label=""
     id="text7138-0"
     style="font-size:42.3185px;font-family:'Open Sans';text-anchor:middle;fill:#ffffff;stroke-width:0mm"
     transform="matrix(1.3625088,0,0,1.3625088,234.82836,-79.28916)">
    <path
       d="m 214.32558,626.25997 q 0,-2.68623 1.8597,-4.56659 1.88036,-1.88037 4.5666,-1.88037 2.68623,0 4.56659,1.88037 1.88036,1.8597 1.88036,4.56659 0,1.73572 -0.84719,3.22348 -0.8472,1.4671 -2.35562,2.33496 -1.50842,0.86786 -3.24414,0.86786 -2.68624,0 -4.5666,-1.8597 -1.8597,-1.8597 -1.8597,-4.5666 z m 2.37628,0 q 0,1.6944 1.19848,2.87221 1.21913,1.17781 2.89286,1.17781 1.65307,0 2.83088,-1.15715 1.19847,-1.17781 1.19847,-2.89287 0,-1.73572 -1.17781,-2.89286 -1.15714,-1.17781 -2.85154,-1.17781 -1.71505,0 -2.91353,1.17781 -1.17781,1.17781 -1.17781,2.89286 z"
       id="path7587-9" />
  </g>
  <g
     aria-label=""
     id="text7138-3-4"
     style="font-size:42.3185px;font-family:'Open Sans';text-anchor:middle;fill:#ffffff;stroke-width:0mm"
     transform="matrix(1.3625088,0,0,1.3625088,297.26499,-79.03102)">
    <path
       d="m 214.32558,626.25997 q 0,-2.68623 1.8597,-4.56659 1.88036,-1.88037 4.5666,-1.88037 2.68623,0 4.56659,1.88037 1.88036,1.8597 1.88036,4.56659 0,1.73572 -0.84719,3.22348 -0.8472,1.4671 -2.35562,2.33496 -1.50842,0.86786 -3.24414,0.86786 -2.68624,0 -4.5666,-1.8597 -1.8597,-1.8597 -1.8597,-4.5666 z m 2.37628,0 q 0,1.6944 1.19848,2.87221 1.21913,1.17781 2.89286,1.17781 1.65307,0 2.83088,-1.15715 1.19847,-1.17781 1.19847,-2.89287 0,-1.73572 -1.17781,-2.89286 -1.15714,-1.17781 -2.85154,-1.17781 -1.71505,0 -2.91353,1.17781 -1.17781,1.17781 -1.17781,2.89286 z"
       id="path7587-3-3" />
  </g>
</svg>
