999
"DXF R12 Output" (www.mydxf.blogspot.com)
 0 
SECTION
 2 
HEADER
 9 
$ACADVER
 1 
AC1009
 9 
$EXTMIN
 10 
 0 
 20 
 0 
 9 
$EXTMAX
 10 
 8.5 
 20 
 11 
 0 
ENDSEC
 0 
SECTION
 2 
ENTITIES
0
LINE
8
Layer 1
10
0.793749
20
297.794000
11
-0.793749
21
296.206000
0
LINE
8
Layer 1
10
0.000000
20
298.323000
11
0.000000
21
295.677000
0
LINE
8
Layer 1
10
2.116660
20
295.942000
11
1.058330
21
294.883670
0
LINE
8
Layer 1
10
1.587500
20
296.471000
11
0.529170
21
295.412670
0
LINE
8
Layer 1
10
1.058330
20
297.000000
11
0.000000
21
295.941670
0
LINE
8
0
10
1.246640
20
176.954000
11
184.613000
21
176.954000
0
LINE
8
0
10
184.613000
20
176.954000
11
184.613000
21
0.857037
0
LINE
8
0
10
184.613000
20
0.857037
11
1.246640
21
0.857037
0
LINE
8
0
10
1.246640
20
0.857037
11
1.246640
21
176.954000
0
LINE
8
0
10
28.859300
20
166.986000
11
28.668048
21
166.047564
0
LINE
8
0
10
28.668048
20
166.047564
11
28.094287
21
165.341350
0
LINE
8
0
10
28.094300
20
165.341000
11
27.192678
21
164.898417
0
LINE
8
0
10
27.192678
20
164.898417
11
26.017830
21
164.750890
0
LINE
8
0
10
26.017800
20
164.751000
11
24.760994
21
164.842521
0
LINE
8
0
10
24.760994
20
164.842521
11
23.832050
21
165.117085
0
LINE
8
0
10
12.112200
20
164.861000
11
7.658720
21
164.861000
0
LINE
8
0
10
7.658720
20
164.861000
11
7.658720
21
172.849000
0
LINE
8
0
10
7.658720
20
172.849000
11
12.112200
21
172.849000
0
LINE
8
0
10
12.112200
20
172.849000
11
12.112200
21
172.024000
0
LINE
8
0
10
12.112200
20
172.024000
11
8.587670
21
172.024000
0
LINE
8
0
10
8.587670
20
172.024000
11
8.587670
21
169.450000
0
LINE
8
0
10
8.587670
20
169.450000
11
11.899100
21
169.450000
0
LINE
8
0
10
11.899100
20
169.450000
11
11.899100
21
168.631000
0
LINE
8
0
10
11.899100
20
168.631000
11
8.587670
21
168.631000
0
LINE
8
0
10
8.587670
20
168.631000
11
8.587670
21
165.691000
0
LINE
8
0
10
8.587670
20
165.691000
11
12.112200
21
165.691000
0
LINE
8
0
10
12.112200
20
165.691000
11
12.112200
21
164.861000
0
LINE
8
0
10
23.832100
20
166.014000
11
24.903120
21
165.686163
0
LINE
8
0
10
24.903100
20
165.686000
11
26.050620
21
165.565792
0
LINE
8
0
10
26.050600
20
165.565000
11
26.864793
21
165.652424
0
LINE
8
0
10
26.864793
20
165.652424
11
27.449480
21
165.914694
0
LINE
8
0
10
27.449500
20
165.915000
11
27.801952
21
166.338458
0
LINE
8
0
10
27.801952
20
166.338458
11
27.919436
21
166.898513
0
LINE
8
0
10
27.919500
20
166.899000
11
27.750106
21
167.576531
0
LINE
8
0
10
27.750100
20
167.576000
11
27.192729
21
168.067757
0
LINE
8
0
10
27.192700
20
168.068000
11
26.006930
21
168.576148
0
LINE
8
0
10
26.006900
20
168.576000
11
25.050634
21
169.011751
0
LINE
8
0
10
25.050634
20
169.011751
11
24.411300
21
169.521265
0
LINE
8
0
10
24.411300
20
169.521000
11
24.054749
21
170.150722
0
LINE
8
0
10
24.054749
20
170.150722
11
23.935899
21
170.947090
0
LINE
8
0
10
23.935900
20
170.947000
11
24.109394
21
171.776156
0
LINE
8
0
10
24.109394
20
171.776156
11
24.629876
21
172.416810
0
LINE
8
0
10
24.629900
20
172.417000
11
25.435896
21
172.826797
0
LINE
8
0
10
25.435896
20
172.826797
11
26.465930
21
172.963396
0
LINE
8
0
10
26.465900
20
172.964000
11
27.609321
21
172.854720
0
LINE
8
0
10
27.609321
20
172.854720
11
28.657120
21
172.526882
0
LINE
8
0
10
23.832100
20
165.117000
11
23.832100
21
166.014000
0
LINE
8
0
10
28.367500
20
171.718000
11
27.392109
21
172.029447
0
LINE
8
0
10
27.392109
20
172.029447
11
26.444040
21
172.133263
0
LINE
8
0
10
26.444100
20
172.133000
11
25.787007
21
172.053772
0
LINE
8
0
10
25.787007
20
172.053772
11
25.291110
21
171.816090
0
LINE
8
0
10
25.291100
20
171.816000
11
24.979630
21
171.437619
0
LINE
8
0
10
24.979630
20
171.437619
11
24.875807
21
170.936301
0
LINE
8
0
10
24.875800
20
170.937000
11
25.028803
21
170.254005
0
LINE
8
0
10
25.028800
20
170.254000
11
25.542452
21
169.767707
0
LINE
8
0
10
25.542400
20
169.767000
11
26.657140
21
169.280707
0
LINE
8
0
10
26.657200
20
169.281000
11
27.717289
21
168.816564
0
LINE
8
0
10
27.717289
20
168.816564
11
28.383950
21
168.319344
0
LINE
8
0
10
28.383900
20
168.319000
11
28.740450
21
167.728890
0
LINE
8
0
10
28.740450
20
167.728890
11
28.859300
21
166.985790
0
LINE
8
0
10
28.657100
20
172.527000
11
28.367487
21
171.718334
0
LINE
8
0
10
46.371500
20
168.931000
11
46.304220
21
168.000080
0
LINE
8
0
10
46.304220
20
168.000080
11
46.102380
21
167.185266
0
LINE
8
0
10
46.102380
20
167.185266
11
45.765980
21
166.486562
0
LINE
8
0
10
45.765980
20
166.486562
11
45.295020
21
165.903970
0
LINE
8
0
10
45.295000
20
165.904000
11
44.700406
21
165.447417
0
LINE
8
0
10
44.700406
20
165.447417
11
43.987645
21
165.121286
0
LINE
8
0
10
43.987645
20
165.121286
11
42.207620
21
164.860380
0
LINE
8
0
10
42.442600
20
172.849000
11
44.098310
21
172.590827
0
LINE
8
0
10
44.098310
20
172.590827
11
44.770430
21
172.268112
0
LINE
8
0
10
44.770430
20
172.268112
11
45.338730
21
171.816310
0
LINE
8
0
10
45.338700
20
171.816000
11
45.790536
21
171.248430
0
LINE
8
0
10
45.790536
20
171.248430
11
46.113277
21
170.578411
0
LINE
8
0
10
46.113277
20
170.578411
11
46.371470
21
168.931030
0
LINE
8
0
10
42.207600
20
164.861000
11
39.994500
21
164.861000
0
LINE
8
0
10
39.994500
20
164.861000
11
39.994500
21
172.849000
0
LINE
8
0
10
39.994500
20
172.849000
11
42.442600
21
172.849000
0
LINE
8
0
10
45.387900
20
168.898000
11
45.191183
21
170.268085
0
LINE
8
0
10
45.191183
20
170.268085
11
44.601033
21
171.252970
0
LINE
8
0
10
44.601000
20
171.253000
11
43.628335
21
171.847206
0
LINE
8
0
10
43.628335
20
171.847206
11
42.273170
21
172.045275
0
LINE
8
0
10
42.054600
20
165.664000
11
43.509494
21
165.867532
0
LINE
8
0
10
43.509494
20
165.867532
11
44.551820
21
166.478130
0
LINE
8
0
10
44.551800
20
166.478000
11
45.178839
21
167.492930
0
LINE
8
0
10
45.178839
20
167.492930
11
45.387853
21
168.898530
0
LINE
8
0
10
42.273200
20
172.046000
11
40.923500
21
172.046000
0
LINE
8
0
10
40.923500
20
172.046000
11
40.923500
21
165.664000
0
LINE
8
0
10
40.923500
20
165.664000
11
42.054600
21
165.664000
0
LINE
8
0
10
78.813800
20
166.986000
11
78.622548
21
166.047564
0
LINE
8
0
10
78.622548
20
166.047564
11
78.048790
21
165.341350
0
LINE
8
0
10
78.048800
20
165.341000
11
77.147177
21
164.898417
0
LINE
8
0
10
77.147177
20
164.898417
11
75.972330
21
164.750890
0
LINE
8
0
10
75.972400
20
164.751000
11
74.715593
21
164.842521
0
LINE
8
0
10
74.715593
20
164.842521
11
73.786650
21
165.117085
0
LINE
8
0
10
59.165100
20
164.861000
11
59.165100
21
172.849000
0
LINE
8
0
10
59.165100
20
172.849000
11
60.094100
21
172.849000
0
LINE
8
0
10
60.094100
20
172.849000
11
60.094100
21
164.861000
0
LINE
8
0
10
60.094100
20
164.861000
11
59.165100
21
164.861000
0
LINE
8
0
10
73.786600
20
166.014000
11
74.857620
21
165.686163
0
LINE
8
0
10
74.857600
20
165.686000
11
76.005120
21
165.565792
0
LINE
8
0
10
76.005200
20
165.565000
11
76.819392
21
165.652424
0
LINE
8
0
10
76.819392
20
165.652424
11
77.404080
21
165.914694
0
LINE
8
0
10
77.404000
20
165.915000
11
77.756452
21
166.338458
0
LINE
8
0
10
77.756452
20
166.338458
11
77.873936
21
166.898513
0
LINE
8
0
10
77.874000
20
166.899000
11
77.704603
21
167.576531
0
LINE
8
0
10
77.704600
20
167.576000
11
77.147232
21
168.067757
0
LINE
8
0
10
77.147200
20
168.068000
11
75.961430
21
168.576148
0
LINE
8
0
10
75.961400
20
168.576000
11
75.005129
21
169.011751
0
LINE
8
0
10
75.005129
20
169.011751
11
74.365800
21
169.521265
0
LINE
8
0
10
74.365800
20
169.521000
11
74.009249
21
170.150722
0
LINE
8
0
10
74.009249
20
170.150722
11
73.890397
21
170.947090
0
LINE
8
0
10
73.890400
20
170.947000
11
74.063896
21
171.776156
0
LINE
8
0
10
74.063896
20
171.776156
11
74.584380
21
172.416810
0
LINE
8
0
10
74.584400
20
172.417000
11
75.390395
21
172.826797
0
LINE
8
0
10
75.390395
20
172.826797
11
76.420430
21
172.963396
0
LINE
8
0
10
76.420400
20
172.964000
11
77.563822
21
172.854720
0
LINE
8
0
10
77.563822
20
172.854720
11
78.611620
21
172.526882
0
LINE
8
0
10
73.786600
20
165.117000
11
73.786600
21
166.014000
0
LINE
8
0
10
78.322100
20
171.718000
11
77.346709
21
172.029447
0
LINE
8
0
10
77.346709
20
172.029447
11
76.398640
21
172.133263
0
LINE
8
0
10
76.398600
20
172.133000
11
75.741505
21
172.053772
0
LINE
8
0
10
75.741505
20
172.053772
11
75.245610
21
171.816090
0
LINE
8
0
10
75.245600
20
171.816000
11
74.934128
21
171.437619
0
LINE
8
0
10
74.934128
20
171.437619
11
74.830303
21
170.936301
0
LINE
8
0
10
74.830300
20
170.937000
11
74.983306
21
170.254005
0
LINE
8
0
10
74.983300
20
170.254000
11
75.496951
21
169.767707
0
LINE
8
0
10
75.497000
20
169.767000
11
76.611740
21
169.280707
0
LINE
8
0
10
76.611700
20
169.281000
11
77.671794
21
168.816564
0
LINE
8
0
10
77.671794
20
168.816564
11
78.338450
21
168.319344
0
LINE
8
0
10
78.338400
20
168.319000
11
78.694950
21
167.728890
0
LINE
8
0
10
78.694950
20
167.728890
11
78.813800
21
166.985790
0
LINE
8
0
10
78.611700
20
172.527000
11
78.322087
21
171.718334
0
LINE
8
0
10
93.918900
20
172.133000
11
92.739959
21
171.913074
0
LINE
8
0
10
92.739959
20
171.913074
11
91.836970
21
171.253301
0
LINE
8
0
10
91.837000
20
171.253000
11
91.267338
21
170.216214
0
LINE
8
0
10
91.267338
20
170.216214
11
91.077451
21
168.854320
0
LINE
8
0
10
91.077500
20
168.855000
11
91.260557
21
167.464419
0
LINE
8
0
10
91.260557
20
167.464419
11
91.809728
21
166.429000
0
LINE
8
0
10
91.809700
20
166.429000
11
92.703124
21
165.789716
0
LINE
8
0
10
92.703124
20
165.789716
11
93.908020
21
165.576622
0
LINE
8
0
10
93.908000
20
165.576000
11
95.815080
21
165.876516
0
LINE
8
0
10
95.815100
20
165.063000
11
94.887518
21
164.829416
0
LINE
8
0
10
94.887518
20
164.829416
11
93.765950
21
164.751554
0
LINE
8
0
10
93.765900
20
164.751000
11
92.201719
21
165.018734
0
LINE
8
0
10
92.201719
20
165.018734
11
91.570239
21
165.353403
0
LINE
8
0
10
91.570239
20
165.353403
11
91.039170
21
165.821940
0
LINE
8
0
10
91.039200
20
165.822000
11
90.620834
21
166.413816
0
LINE
8
0
10
90.620834
20
166.413816
11
90.322001
21
167.118325
0
LINE
8
0
10
90.322001
20
167.118325
11
90.082934
21
168.865430
0
LINE
8
0
10
90.082900
20
168.866000
11
90.197653
21
170.024360
0
LINE
8
0
10
90.197653
20
170.024360
11
90.541909
21
171.029730
0
LINE
8
0
10
90.541900
20
171.029000
11
91.107463
21
171.851325
0
LINE
8
0
10
91.107463
20
171.851325
11
91.875210
21
172.460560
0
LINE
8
0
10
91.875300
20
172.461000
11
92.826104
21
172.838013
0
LINE
8
0
10
92.826104
20
172.838013
11
93.929910
21
172.963684
0
LINE
8
0
10
93.929900
20
172.964000
11
95.107476
21
172.849257
0
LINE
8
0
10
95.107476
20
172.849257
11
96.126580
21
172.505028
0
LINE
8
0
10
95.815100
20
165.877000
11
95.815100
21
165.063000
0
LINE
8
0
10
95.733100
20
171.707000
11
94.826010
21
172.026642
0
LINE
8
0
10
94.826010
20
172.026642
11
93.918920
21
172.133190
0
LINE
8
0
10
96.126500
20
172.505000
11
95.733068
21
171.707261
0
LINE
8
0
10
112.617000
20
164.861000
11
111.688000
21
164.861000
0
LINE
8
0
10
111.688000
20
164.861000
11
111.688000
21
168.620000
0
LINE
8
0
10
111.688000
20
168.620000
11
107.480000
21
168.620000
0
LINE
8
0
10
107.480000
20
168.620000
11
107.480000
21
164.861000
0
LINE
8
0
10
107.480000
20
164.861000
11
106.551000
21
164.861000
0
LINE
8
0
10
106.551000
20
164.861000
11
106.551000
21
172.849000
0
LINE
8
0
10
106.551000
20
172.849000
11
107.480000
21
172.849000
0
LINE
8
0
10
107.480000
20
172.849000
11
107.480000
21
169.450000
0
LINE
8
0
10
107.480000
20
169.450000
11
111.688000
21
169.450000
0
LINE
8
0
10
111.688000
20
169.450000
11
111.688000
21
172.849000
0
LINE
8
0
10
111.688000
20
172.849000
11
112.617000
21
172.849000
0
LINE
8
0
10
112.617000
20
172.849000
11
112.617000
21
164.861000
0
LINE
8
0
10
126.594000
20
170.210000
11
126.337177
21
171.106090
0
LINE
8
0
10
126.337000
20
171.106000
11
126.189461
21
171.756210
0
LINE
8
0
10
126.189000
20
171.756000
11
125.806495
21
170.176920
0
LINE
8
0
10
129.124000
20
164.861000
11
128.206000
21
164.861000
0
LINE
8
0
10
128.206000
20
164.861000
11
126.594010
21
170.210220
0
LINE
8
0
10
123.446000
20
167.915000
11
123.828508
21
166.035400
0
LINE
8
0
10
123.829000
20
166.035000
11
124.266152
21
167.991100
0
LINE
8
0
10
125.807000
20
170.177000
11
124.244190
21
164.860570
0
LINE
8
0
10
124.244190
20
164.860570
11
123.326000
21
164.861000
0
LINE
8
0
10
123.326000
20
164.861000
11
121.200350
21
172.849310
0
LINE
8
0
10
121.200350
20
172.849310
11
122.184000
21
172.849000
0
LINE
8
0
10
122.184000
20
172.849000
11
123.446270
21
167.915040
0
LINE
8
0
10
128.184000
20
167.948000
11
128.626616
21
166.035620
0
LINE
8
0
10
128.626000
20
166.035000
11
129.019435
21
167.925530
0
LINE
8
0
10
124.266000
20
167.991000
11
125.697660
21
172.848460
0
LINE
8
0
10
125.697660
20
172.848460
11
126.681000
21
172.849000
0
LINE
8
0
10
126.681000
20
172.849000
11
128.183710
21
167.947820
0
LINE
8
0
10
129.020000
20
167.926000
11
130.276810
21
172.849030
0
LINE
8
0
10
130.276810
20
172.849030
11
131.260000
21
172.849000
0
LINE
8
0
10
131.260000
20
172.849000
11
129.123420
21
164.860690
0
LINE
8
0
10
142.024000
20
164.861000
11
141.095000
21
164.861000
0
LINE
8
0
10
141.095000
20
164.861000
11
141.095000
21
172.849000
0
LINE
8
0
10
141.095000
20
172.849000
11
145.548000
21
172.849000
0
LINE
8
0
10
145.548000
20
172.849000
11
145.548000
21
172.024000
0
LINE
8
0
10
145.548000
20
172.024000
11
142.024000
21
172.024000
0
LINE
8
0
10
142.024000
20
172.024000
11
142.024000
21
169.101000
0
LINE
8
0
10
142.024000
20
169.101000
11
145.335000
21
169.101000
0
LINE
8
0
10
145.335000
20
169.101000
11
145.335000
21
168.276000
0
LINE
8
0
10
145.335000
20
168.276000
11
142.024000
21
168.276000
0
LINE
8
0
10
142.024000
20
168.276000
11
142.024000
21
164.861000
0
LINE
8
0
10
162.593000
20
167.680000
11
162.386724
21
166.460171
0
LINE
8
0
10
162.386724
20
166.460171
11
161.767882
21
165.532670
0
LINE
8
0
10
161.768000
20
165.533000
11
160.788507
21
164.946989
0
LINE
8
0
10
160.788507
20
164.946989
11
159.500280
21
164.751652
0
LINE
8
0
10
159.500000
20
164.751000
11
158.219966
21
164.947703
0
LINE
8
0
10
158.219966
20
164.947703
11
157.265060
21
165.537812
0
LINE
8
0
10
157.265000
20
165.538000
11
156.674851
21
166.472335
0
LINE
8
0
10
156.674851
20
166.472335
11
156.478135
21
167.701730
0
LINE
8
0
10
162.593000
20
172.849000
11
162.593000
21
167.680000
0
LINE
8
0
10
157.408000
20
167.636000
11
157.544609
21
166.752207
0
LINE
8
0
10
157.544609
20
166.752207
11
157.954438
21
166.100630
0
LINE
8
0
10
157.954000
20
166.101000
11
158.628850
21
165.699399
0
LINE
8
0
10
158.628850
20
165.699399
11
159.560530
21
165.565532
0
LINE
8
0
10
159.561000
20
165.565000
11
160.455793
21
165.698867
0
LINE
8
0
10
160.455793
20
165.698867
11
161.118350
21
166.100468
0
LINE
8
0
10
161.118000
20
166.101000
11
161.527826
21
166.758041
0
LINE
8
0
10
161.527826
20
166.758041
11
161.664438
21
167.647300
0
LINE
8
0
10
156.479000
20
167.702000
11
156.479000
21
172.849000
0
LINE
8
0
10
156.479000
20
172.849000
11
157.408000
21
172.849000
0
LINE
8
0
10
157.408000
20
172.849000
11
157.408000
21
167.636000
0
LINE
8
0
10
157.981000
20
174.319000
11
158.123076
21
174.728797
0
LINE
8
0
10
158.123000
20
174.729000
11
158.472721
21
174.854672
0
LINE
8
0
10
158.473000
20
174.854000
11
158.828192
21
174.728328
0
LINE
8
0
10
158.828000
20
174.729000
11
158.981006
21
174.319203
0
LINE
8
0
10
158.981000
20
174.319000
11
158.827994
21
173.909203
0
LINE
8
0
10
158.828000
20
173.909000
11
158.472808
21
173.777865
0
LINE
8
0
10
158.473000
20
173.778000
11
158.123279
21
173.909135
0
LINE
8
0
10
158.123000
20
173.909000
11
157.980924
21
174.318797
0
LINE
8
0
10
161.664000
20
167.647000
11
161.664000
21
172.849000
0
LINE
8
0
10
161.664000
20
172.849000
11
162.593000
21
172.849000
0
LINE
8
0
10
160.063000
20
174.319000
11
160.205065
21
174.728797
0
LINE
8
0
10
160.205000
20
174.729000
11
160.554721
21
174.854672
0
LINE
8
0
10
160.555000
20
174.854000
11
160.904723
21
174.728328
0
LINE
8
0
10
160.905000
20
174.729000
11
161.058006
21
174.319203
0
LINE
8
0
10
161.058000
20
174.319000
11
160.904994
21
173.909203
0
LINE
8
0
10
160.905000
20
173.909000
11
160.555277
21
173.777865
0
LINE
8
0
10
160.555000
20
173.778000
11
160.205279
21
173.909135
0
LINE
8
0
10
160.205000
20
173.909000
11
160.062935
21
174.318797
0
LINE
8
0
10
175.327000
20
164.861000
11
174.398000
21
164.861000
0
LINE
8
0
10
174.398000
20
164.861000
11
174.398000
21
172.849000
0
LINE
8
0
10
174.398000
20
172.849000
11
178.851000
21
172.849000
0
LINE
8
0
10
178.851000
20
172.849000
11
178.851000
21
172.024000
0
LINE
8
0
10
178.851000
20
172.024000
11
175.327000
21
172.024000
0
LINE
8
0
10
175.327000
20
172.024000
11
175.327000
21
169.101000
0
LINE
8
0
10
175.327000
20
169.101000
11
178.638000
21
169.101000
0
LINE
8
0
10
178.638000
20
169.101000
11
178.638000
21
168.276000
0
LINE
8
0
10
178.638000
20
168.276000
11
175.327000
21
168.276000
0
LINE
8
0
10
175.327000
20
168.276000
11
175.327000
21
164.861000
0
LINE
8
0
10
9.161430
20
151.689000
11
9.664154
21
149.956930
0
LINE
8
0
10
9.664150
20
149.957000
11
10.177802
21
151.721860
0
LINE
8
0
10
12.002900
20
156.858000
11
13.002900
21
156.858000
0
LINE
8
0
10
13.002900
20
156.858000
11
10.123200
21
148.870000
0
LINE
8
0
10
10.123200
20
148.870000
11
9.205140
21
148.870000
0
LINE
8
0
10
9.205140
20
148.870000
11
6.341800
21
156.858000
0
LINE
8
0
10
6.341800
20
156.858000
11
7.325390
21
156.858000
0
LINE
8
0
10
7.325390
20
156.858000
11
9.161420
21
151.689090
0
LINE
8
0
10
10.177800
20
151.722000
11
12.002910
21
156.858120
0
LINE
8
0
10
25.862100
20
148.870000
11
25.862100
21
156.858000
0
LINE
8
0
10
25.862100
20
156.858000
11
26.791100
21
156.858000
0
LINE
8
0
10
26.791100
20
156.858000
11
26.791100
21
148.870000
0
LINE
8
0
10
26.791100
20
148.870000
11
25.862100
21
148.870000
0
LINE
8
0
10
45.415200
20
148.870000
11
40.961700
21
148.870000
0
LINE
8
0
10
40.961700
20
148.870000
11
40.961700
21
156.858000
0
LINE
8
0
10
40.961700
20
156.858000
11
45.415200
21
156.858000
0
LINE
8
0
10
45.415200
20
156.858000
11
45.415200
21
156.033000
0
LINE
8
0
10
45.415200
20
156.033000
11
41.890700
21
156.033000
0
LINE
8
0
10
41.890700
20
156.033000
11
41.890700
21
153.460000
0
LINE
8
0
10
41.890700
20
153.460000
11
45.202100
21
153.460000
0
LINE
8
0
10
45.202100
20
153.460000
11
45.202100
21
152.640000
0
LINE
8
0
10
45.202100
20
152.640000
11
41.890700
21
152.640000
0
LINE
8
0
10
41.890700
20
152.640000
11
41.890700
21
149.701000
0
LINE
8
0
10
41.890700
20
149.701000
11
45.415200
21
149.701000
0
LINE
8
0
10
45.415200
20
149.701000
11
45.415200
21
148.870000
0
LINE
8
0
10
59.457500
20
156.858000
11
60.734800
21
156.717304
0
LINE
8
0
10
60.734800
20
156.717304
11
61.626860
21
156.295213
0
LINE
8
0
10
61.626800
20
156.296000
11
62.155479
21
155.591149
0
LINE
8
0
10
62.155479
20
155.591149
11
62.331707
21
154.602170
0
LINE
8
0
10
62.331700
20
154.602000
11
62.231291
21
153.873926
0
LINE
8
0
10
62.231291
20
153.873926
11
61.930066
21
153.274258
0
LINE
8
0
10
61.930066
20
153.274258
11
61.428026
21
152.802993
0
LINE
8
0
10
61.428026
20
152.802993
11
60.725170
21
152.460130
0
LINE
8
0
10
58.195200
20
152.192000
11
58.195200
21
148.870000
0
LINE
8
0
10
58.195200
20
148.870000
11
57.266300
21
148.870000
0
LINE
8
0
10
57.266300
20
148.870000
11
57.266300
21
156.858000
0
LINE
8
0
10
57.266300
20
156.858000
11
59.457500
21
156.858000
0
LINE
8
0
10
60.725200
20
152.460000
11
62.894560
21
148.870180
0
LINE
8
0
10
62.894560
20
148.870180
11
61.796200
21
148.870000
0
LINE
8
0
10
61.796200
20
148.870000
11
59.861810
21
152.192090
0
LINE
8
0
10
59.861810
20
152.192090
11
58.195200
21
152.192000
0
LINE
8
0
10
59.468400
20
152.990000
11
60.320844
21
153.086986
0
LINE
8
0
10
60.320844
20
153.086986
11
60.911000
21
153.377942
0
LINE
8
0
10
60.911000
20
153.378000
11
61.255255
21
153.868390
0
LINE
8
0
10
61.255255
20
153.868390
11
61.370007
21
154.552750
0
LINE
8
0
10
61.370000
20
154.553000
11
61.252515
21
155.234629
0
LINE
8
0
10
61.252515
20
155.234629
11
60.900061
21
155.694970
0
LINE
8
0
10
60.900100
20
155.695000
11
60.293556
21
155.957268
0
LINE
8
0
10
60.293556
20
155.957268
11
59.402860
21
156.044691
0
LINE
8
0
10
58.195200
20
152.990000
11
59.468400
21
152.990000
0
LINE
8
0
10
59.402800
20
156.044000
11
58.195200
21
156.044000
0
LINE
8
0
10
58.195200
20
156.044000
11
58.195200
21
152.990000
0
LINE
8
0
10
76.740100
20
148.870000
11
75.811200
21
148.870000
0
LINE
8
0
10
75.811200
20
148.870000
11
75.811200
21
156.033000
0
LINE
8
0
10
75.811200
20
156.033000
11
73.281200
21
156.033000
0
LINE
8
0
10
73.281200
20
156.033000
11
73.281200
21
156.858000
0
LINE
8
0
10
73.281200
20
156.858000
11
79.270100
21
156.858000
0
LINE
8
0
10
79.270100
20
156.858000
11
79.270100
21
156.033000
0
LINE
8
0
10
79.270100
20
156.033000
11
76.740100
21
156.033000
0
LINE
8
0
10
76.740100
20
156.033000
11
76.740100
21
148.870000
0
LINE
8
0
10
95.987200
20
151.689000
11
95.780920
21
150.469170
0
LINE
8
0
10
95.780920
20
150.469170
11
95.162082
21
149.541660
0
LINE
8
0
10
95.162100
20
149.542000
11
94.182606
21
148.955989
0
LINE
8
0
10
94.182606
20
148.955989
11
92.894370
21
148.760652
0
LINE
8
0
10
92.894400
20
148.761000
11
91.614368
21
148.957703
0
LINE
8
0
10
91.614368
20
148.957703
11
90.659460
21
149.547814
0
LINE
8
0
10
90.659400
20
149.548000
11
90.069247
21
150.482335
0
LINE
8
0
10
90.069247
20
150.482335
11
89.872530
21
151.711730
0
LINE
8
0
10
95.987200
20
156.858000
11
95.987200
21
151.689000
0
LINE
8
0
10
90.801500
20
151.646000
11
90.938110
21
150.762206
0
LINE
8
0
10
90.938110
20
150.762206
11
91.347938
21
150.110630
0
LINE
8
0
10
91.347900
20
150.110000
11
92.022752
21
149.708399
0
LINE
8
0
10
92.022752
20
149.708399
11
92.954430
21
149.574532
0
LINE
8
0
10
92.954500
20
149.575000
11
93.849295
21
149.708867
0
LINE
8
0
10
93.849295
20
149.708867
11
94.511850
21
150.110468
0
LINE
8
0
10
94.511800
20
150.110000
11
94.921626
21
150.767041
0
LINE
8
0
10
94.921626
20
150.767041
11
95.058233
21
151.656300
0
LINE
8
0
10
89.872600
20
151.711000
11
89.872600
21
156.858000
0
LINE
8
0
10
89.872600
20
156.858000
11
90.801500
21
156.858000
0
LINE
8
0
10
90.801500
20
156.858000
11
90.801500
21
151.646000
0
LINE
8
0
10
95.058300
20
151.657000
11
95.058300
21
156.858000
0
LINE
8
0
10
95.058300
20
156.858000
11
95.987200
21
156.858000
0
LINE
8
0
10
110.043000
20
148.870000
11
109.114000
21
148.870000
0
LINE
8
0
10
109.114000
20
148.870000
11
109.114000
21
156.033000
0
LINE
8
0
10
109.114000
20
156.033000
11
106.584000
21
156.033000
0
LINE
8
0
10
106.584000
20
156.033000
11
106.584000
21
156.858000
0
LINE
8
0
10
106.584000
20
156.858000
11
112.573000
21
156.858000
0
LINE
8
0
10
112.573000
20
156.858000
11
112.573000
21
156.033000
0
LINE
8
0
10
112.573000
20
156.033000
11
110.043000
21
156.033000
0
LINE
8
0
10
110.043000
20
156.033000
11
110.043000
21
148.870000
0
LINE
8
0
10
128.979000
20
148.870000
11
123.487000
21
148.870000
0
LINE
8
0
10
123.487000
20
148.870000
11
123.487000
21
149.597000
0
LINE
8
0
10
123.487000
20
149.597000
11
127.727360
21
156.022620
0
LINE
8
0
10
127.727360
20
156.022620
11
123.618000
21
156.022000
0
LINE
8
0
10
123.618000
20
156.022000
11
123.618000
21
156.858000
0
LINE
8
0
10
123.618000
20
156.858000
11
128.859000
21
156.858000
0
LINE
8
0
10
128.859000
20
156.858000
11
128.859000
21
156.132000
0
LINE
8
0
10
128.859000
20
156.132000
11
124.618640
21
149.711850
0
LINE
8
0
10
124.618640
20
149.711850
11
128.979000
21
149.711000
0
LINE
8
0
10
128.979000
20
149.711000
11
128.979000
21
148.870000
0
LINE
8
0
10
145.464000
20
148.870000
11
144.469475
21
151.410740
0
LINE
8
0
10
144.469475
20
151.410740
11
141.267000
21
151.411000
0
LINE
8
0
10
141.267000
20
151.411000
11
140.283410
21
148.870260
0
LINE
8
0
10
140.283410
20
148.870260
11
139.343000
21
148.870000
0
LINE
8
0
10
139.343000
20
148.870000
11
142.501410
21
156.891100
0
LINE
8
0
10
142.501410
20
156.891100
11
143.283000
21
156.891000
0
LINE
8
0
10
143.283000
20
156.891000
11
146.425020
21
148.869900
0
LINE
8
0
10
146.425020
20
148.869900
11
145.464000
21
148.870000
0
LINE
8
0
10
143.250000
20
154.722000
11
142.878420
21
155.874890
0
LINE
8
0
10
142.879000
20
155.875000
11
142.534746
21
154.722110
0
LINE
8
0
10
144.179000
20
152.247000
11
143.250057
21
154.722170
0
LINE
8
0
10
141.333000
20
158.328000
11
141.475070
21
158.737797
0
LINE
8
0
10
141.475000
20
158.738000
11
141.824723
21
158.863672
0
LINE
8
0
10
141.824000
20
158.864000
11
142.179179
21
158.738328
0
LINE
8
0
10
142.179000
20
158.738000
11
142.332008
21
158.328203
0
LINE
8
0
10
142.332000
20
158.328000
11
142.178992
21
157.918203
0
LINE
8
0
10
142.179000
20
157.918000
11
141.823821
21
157.786865
0
LINE
8
0
10
141.824000
20
157.787000
11
141.474277
21
157.918135
0
LINE
8
0
10
141.475000
20
157.918000
11
141.332930
21
158.327797
0
LINE
8
0
10
142.535000
20
154.722000
11
141.595124
21
152.246830
0
LINE
8
0
10
141.595124
20
152.246830
11
144.179000
21
152.247000
0
LINE
8
0
10
143.414000
20
158.328000
11
143.556076
21
158.737797
0
LINE
8
0
10
143.557000
20
158.738000
11
143.906723
21
158.863672
0
LINE
8
0
10
143.906000
20
158.864000
11
144.255721
21
158.738328
0
LINE
8
0
10
144.256000
20
158.738000
11
144.408998
21
158.328203
0
LINE
8
0
10
144.409000
20
158.328000
11
144.256002
21
157.918203
0
LINE
8
0
10
144.256000
20
157.918000
11
143.906279
21
157.786865
0
LINE
8
0
10
143.906000
20
157.787000
11
143.556277
21
157.918135
0
LINE
8
0
10
143.557000
20
157.918000
11
143.414924
21
158.327797
0
LINE
8
0
10
162.115000
20
148.870000
11
161.120483
21
151.410740
0
LINE
8
0
10
161.120483
20
151.410740
11
157.918000
21
151.411000
0
LINE
8
0
10
157.918000
20
151.411000
11
156.934410
21
148.870260
0
LINE
8
0
10
156.934410
20
148.870260
11
155.995000
21
148.870000
0
LINE
8
0
10
155.995000
20
148.870000
11
159.153410
21
156.891100
0
LINE
8
0
10
159.153410
20
156.891100
11
159.935000
21
156.891000
0
LINE
8
0
10
159.935000
20
156.891000
11
163.077020
21
148.869900
0
LINE
8
0
10
163.077020
20
148.869900
11
162.115000
21
148.870000
0
LINE
8
0
10
159.902000
20
154.722000
11
159.530420
21
155.874890
0
LINE
8
0
10
159.530000
20
155.875000
11
159.185746
21
154.722110
0
LINE
8
0
10
160.831000
20
152.247000
11
159.902049
21
154.722170
0
LINE
8
0
10
157.984000
20
158.328000
11
158.126073
21
158.737797
0
LINE
8
0
10
158.126000
20
158.738000
11
158.475721
21
158.863672
0
LINE
8
0
10
158.476000
20
158.864000
11
158.831189
21
158.738328
0
LINE
8
0
10
158.831000
20
158.738000
11
158.983998
21
158.328203
0
LINE
8
0
10
158.984000
20
158.328000
11
158.831002
21
157.918203
0
LINE
8
0
10
158.831000
20
157.918000
11
158.475811
21
157.786865
0
LINE
8
0
10
158.476000
20
157.787000
11
158.126279
21
157.918135
0
LINE
8
0
10
158.126000
20
157.918000
11
157.983927
21
158.327797
0
LINE
8
0
10
159.186000
20
154.722000
11
158.246132
21
152.246830
0
LINE
8
0
10
158.246132
20
152.246830
11
160.831000
21
152.247000
0
LINE
8
0
10
160.066000
20
158.328000
11
160.208073
21
158.737797
0
LINE
8
0
10
160.208000
20
158.738000
11
160.557723
21
158.863672
0
LINE
8
0
10
160.558000
20
158.864000
11
160.907723
21
158.738328
0
LINE
8
0
10
160.907000
20
158.738000
11
161.059998
21
158.328203
0
LINE
8
0
10
161.060000
20
158.328000
11
160.907002
21
157.918203
0
LINE
8
0
10
160.907000
20
157.918000
11
160.557277
21
157.786865
0
LINE
8
0
10
160.558000
20
157.787000
11
160.208277
21
157.918135
0
LINE
8
0
10
160.208000
20
157.918000
11
160.065927
21
158.327797
0
LINE
8
0
10
176.185000
20
152.864000
11
178.316120
21
156.858150
0
LINE
8
0
10
178.316120
20
156.858150
11
179.321000
21
156.858000
0
LINE
8
0
10
179.321000
20
156.858000
11
176.654380
21
151.967760
0
LINE
8
0
10
176.654380
20
151.967760
11
176.655000
21
148.870000
0
LINE
8
0
10
176.655000
20
148.870000
11
175.715000
21
148.870000
0
LINE
8
0
10
175.715000
20
148.870000
11
175.715000
21
151.924000
0
LINE
8
0
10
175.715000
20
151.924000
11
173.053840
21
156.857960
0
LINE
8
0
10
173.053840
20
156.857960
11
174.070000
21
156.858000
0
LINE
8
0
10
174.070000
20
156.858000
11
176.185000
21
152.864000
0
LINE
8
0
10
12.418200
20
132.879000
11
6.926490
21
132.879000
0
LINE
8
0
10
6.926490
20
132.879000
11
6.926490
21
133.606000
0
LINE
8
0
10
6.926490
20
133.606000
11
11.166850
21
140.031620
0
LINE
8
0
10
11.166850
20
140.031620
11
7.057640
21
140.032000
0
LINE
8
0
10
7.057640
20
140.032000
11
7.057640
21
140.868000
0
LINE
8
0
10
7.057640
20
140.868000
11
12.298000
21
140.868000
0
LINE
8
0
10
12.298000
20
140.868000
11
12.298000
21
140.141000
0
LINE
8
0
10
12.298000
20
140.141000
11
8.057620
21
133.721000
0
LINE
8
0
10
8.057620
20
133.721000
11
12.418200
21
133.721000
0
LINE
8
0
10
12.418200
20
133.721000
11
12.418200
21
132.879000
0
LINE
8
0
10
26.684500
20
138.229000
11
26.427675
21
139.125092
0
LINE
8
0
10
26.427700
20
139.125000
11
26.280162
21
139.775210
0
LINE
8
0
10
26.280100
20
139.775000
11
25.897593
21
138.195920
0
LINE
8
0
10
29.214500
20
132.879000
11
28.296500
21
132.879000
0
LINE
8
0
10
28.296500
20
132.879000
11
26.684510
21
138.228220
0
LINE
8
0
10
23.537000
20
135.934000
11
23.919507
21
134.054390
0
LINE
8
0
10
23.919500
20
134.054000
11
24.356650
21
136.010100
0
LINE
8
0
10
25.897600
20
138.196000
11
24.334790
21
132.879560
0
LINE
8
0
10
24.334790
20
132.879560
11
23.416800
21
132.879000
0
LINE
8
0
10
23.416800
20
132.879000
11
21.291200
21
140.868000
0
LINE
8
0
10
21.291200
20
140.868000
11
22.274700
21
140.868000
0
LINE
8
0
10
22.274700
20
140.868000
11
23.536970
21
135.934050
0
LINE
8
0
10
28.274600
20
135.967000
11
28.717218
21
134.054610
0
LINE
8
0
10
28.717300
20
134.054000
11
29.110735
21
135.944530
0
LINE
8
0
10
24.356700
20
136.010000
11
25.788370
21
140.867460
0
LINE
8
0
10
25.788370
20
140.867460
11
26.771900
21
140.868000
0
LINE
8
0
10
26.771900
20
140.868000
11
28.274600
21
135.966830
0
LINE
8
0
10
29.110700
20
135.945000
11
30.367510
21
140.868030
0
LINE
8
0
10
30.367510
20
140.868030
11
31.351100
21
140.868000
0
LINE
8
0
10
31.351100
20
140.868000
11
29.214530
21
132.879690
0
LINE
8
0
10
45.554600
20
132.879000
11
44.560080
21
135.419750
0
LINE
8
0
10
44.560080
20
135.419750
11
41.357900
21
135.420000
0
LINE
8
0
10
41.357900
20
135.420000
11
40.374310
21
132.879250
0
LINE
8
0
10
40.374310
20
132.879250
11
39.434400
21
132.879000
0
LINE
8
0
10
39.434400
20
132.879000
11
42.592820
21
140.900100
0
LINE
8
0
10
42.592820
20
140.900100
11
43.374300
21
140.901000
0
LINE
8
0
10
43.374300
20
140.901000
11
46.516320
21
132.879900
0
LINE
8
0
10
46.516320
20
132.879900
11
45.554600
21
132.879000
0
LINE
8
0
10
43.341500
20
138.731000
11
42.969922
21
139.883900
0
LINE
8
0
10
42.969900
20
139.884000
11
42.625643
21
138.731100
0
LINE
8
0
10
44.270400
20
136.256000
11
43.341457
21
138.731170
0
LINE
8
0
10
41.423500
20
142.338000
11
41.565573
21
142.747802
0
LINE
8
0
10
41.565500
20
142.747000
11
41.915223
21
142.872672
0
LINE
8
0
10
41.915300
20
142.873000
11
42.270487
21
142.747328
0
LINE
8
0
10
42.270500
20
142.747000
11
42.423500
21
142.337198
0
LINE
8
0
10
42.423500
20
142.338000
11
42.270500
21
141.928209
0
LINE
8
0
10
42.270500
20
141.928000
11
41.915313
21
141.796862
0
LINE
8
0
10
41.915300
20
141.797000
11
41.565577
21
141.928138
0
LINE
8
0
10
41.565500
20
141.928000
11
41.423427
21
142.337791
0
LINE
8
0
10
42.625600
20
138.731000
11
41.685722
21
136.255830
0
LINE
8
0
10
41.685722
20
136.255830
11
44.270400
21
136.256000
0
LINE
8
0
10
43.505400
20
142.338000
11
43.647470
21
142.747802
0
LINE
8
0
10
43.647500
20
142.747000
11
43.997223
21
142.872672
0
LINE
8
0
10
43.997200
20
142.873000
11
44.346921
21
142.747328
0
LINE
8
0
10
44.346900
20
142.747000
11
44.499900
21
142.337198
0
LINE
8
0
10
44.499900
20
142.338000
11
44.346900
21
141.928209
0
LINE
8
0
10
44.346900
20
141.928000
11
43.997179
21
141.796862
0
LINE
8
0
10
43.997200
20
141.797000
11
43.647477
21
141.928138
0
LINE
8
0
10
43.647500
20
141.928000
11
43.505430
21
142.337791
0
LINE
8
0
10
57.277200
20
139.584000
11
57.364632
21
137.420270
0
LINE
8
0
10
62.747000
20
132.879000
11
61.686900
21
132.879000
0
LINE
8
0
10
61.686900
20
132.879000
11
57.320850
21
139.583280
0
LINE
8
0
10
57.320850
20
139.583280
11
57.277200
21
139.584000
0
LINE
8
0
10
61.954700
20
134.191000
11
61.905522
21
135.136268
0
LINE
8
0
10
61.905500
20
135.136000
11
61.878177
21
136.283430
0
LINE
8
0
10
57.364600
20
137.420000
11
57.364600
21
132.879000
0
LINE
8
0
10
57.364600
20
132.879000
11
56.506700
21
132.879000
0
LINE
8
0
10
56.506700
20
132.879000
11
56.506700
21
140.868000
0
LINE
8
0
10
56.506700
20
140.868000
11
57.555900
21
140.868000
0
LINE
8
0
10
57.555900
20
140.868000
11
61.911020
21
134.191040
0
LINE
8
0
10
61.911020
20
134.191040
11
61.954700
21
134.191000
0
LINE
8
0
10
61.878200
20
136.283000
11
61.878200
21
140.868000
0
LINE
8
0
10
61.878200
20
140.868000
11
62.747000
21
140.868000
0
LINE
8
0
10
62.747000
20
140.868000
11
62.747000
21
132.879000
0
LINE
8
0
10
79.024200
20
132.879000
11
73.532500
21
132.879000
0
LINE
8
0
10
73.532500
20
132.879000
11
73.532500
21
133.606000
0
LINE
8
0
10
73.532500
20
133.606000
11
77.772860
21
140.031620
0
LINE
8
0
10
77.772860
20
140.031620
11
73.663700
21
140.032000
0
LINE
8
0
10
73.663700
20
140.032000
11
73.663700
21
140.868000
0
LINE
8
0
10
73.663700
20
140.868000
11
78.904000
21
140.868000
0
LINE
8
0
10
78.904000
20
140.868000
11
78.904000
21
140.141000
0
LINE
8
0
10
78.904000
20
140.141000
11
74.663630
21
133.720850
0
LINE
8
0
10
74.663630
20
133.720850
11
79.024200
21
133.721000
0
LINE
8
0
10
79.024200
20
133.721000
11
79.024200
21
132.879000
0
LINE
8
0
10
96.183900
20
133.180000
11
94.894310
21
132.874018
0
LINE
8
0
10
94.894300
20
132.874000
11
93.375190
21
132.770186
0
LINE
8
0
10
93.375200
20
132.770000
11
91.761840
21
133.039100
0
LINE
8
0
10
91.761840
20
133.039100
11
91.105774
21
133.375475
0
LINE
8
0
10
91.105774
20
133.375475
11
90.550120
21
133.846400
0
LINE
8
0
10
90.550100
20
133.847000
11
90.107826
21
134.441891
0
LINE
8
0
10
90.107826
20
134.441891
11
89.791917
21
135.144694
0
LINE
8
0
10
89.791917
20
135.144694
11
89.539190
21
136.874040
0
LINE
8
0
10
89.539200
20
136.874000
11
89.663516
21
138.041922
0
LINE
8
0
10
89.663516
20
138.041922
11
90.036460
21
139.054120
0
LINE
8
0
10
90.036500
20
139.054000
11
90.648510
21
139.881791
0
LINE
8
0
10
90.648510
20
139.881791
11
91.479100
21
140.485560
0
LINE
8
0
10
91.479100
20
140.485000
11
92.499573
21
140.857918
0
LINE
8
0
10
92.499573
20
140.857918
11
93.681250
21
140.982223
0
LINE
8
0
10
93.681200
20
140.982000
11
94.916149
21
140.864525
0
LINE
8
0
10
94.916149
20
140.864525
11
96.063670
21
140.512101
0
LINE
8
0
10
93.468100
20
137.065000
11
96.183900
21
137.065000
0
LINE
8
0
10
96.183900
20
137.065000
11
96.183900
21
133.180000
0
LINE
8
0
10
95.703100
20
139.693000
11
94.641640
21
140.037229
0
LINE
8
0
10
94.641640
20
140.037229
11
93.621170
21
140.151972
0
LINE
8
0
10
93.621100
20
140.152000
11
92.321941
21
139.934807
0
LINE
8
0
10
92.321941
20
139.934807
11
91.342450
21
139.283228
0
LINE
8
0
10
91.342500
20
139.283000
11
90.727757
21
138.246214
0
LINE
8
0
10
90.727757
20
138.246214
11
90.522843
21
136.873390
0
LINE
8
0
10
90.522800
20
136.874000
11
90.719517
21
135.452002
0
LINE
8
0
10
90.719517
20
135.452002
11
91.309672
21
134.420680
0
LINE
8
0
10
91.309700
20
134.420000
11
92.286455
21
133.793009
0
LINE
8
0
10
92.286455
20
133.793009
11
93.632060
21
133.584013
0
LINE
8
0
10
93.632100
20
133.584000
11
95.255030
21
133.775238
0
LINE
8
0
10
96.063700
20
140.513000
11
95.703055
21
139.693407
0
LINE
8
0
10
113.256000
20
136.884000
11
113.101630
21
135.478396
0
LINE
8
0
10
113.101630
20
135.478396
11
112.638524
21
134.332330
0
LINE
8
0
10
112.639000
20
134.333000
11
111.894478
21
133.480618
0
LINE
8
0
10
111.894478
20
133.480618
11
110.895870
21
132.956080
0
LINE
8
0
10
95.255000
20
133.776000
11
95.255000
21
136.234000
0
LINE
8
0
10
95.255000
20
136.234000
11
93.468100
21
136.234000
0
LINE
8
0
10
93.468100
20
136.234000
11
93.468100
21
137.065000
0
LINE
8
0
10
109.590000
20
132.770000
11
108.025815
21
133.039100
0
LINE
8
0
10
108.025815
20
133.039100
11
107.394338
21
133.375475
0
LINE
8
0
10
107.394338
20
133.375475
11
106.863270
21
133.846400
0
LINE
8
0
10
106.863000
20
133.847000
11
106.444635
21
134.443255
0
LINE
8
0
10
106.444635
20
134.443255
11
106.145802
21
135.150155
0
LINE
8
0
10
106.145802
20
135.150155
11
105.906734
21
136.895890
0
LINE
8
0
10
105.907000
20
136.895000
11
106.147434
21
138.625708
0
LINE
8
0
10
106.147434
20
138.625708
11
106.447975
21
139.326119
0
LINE
8
0
10
106.447975
20
139.326119
11
106.868733
21
139.916570
0
LINE
8
0
10
106.868000
20
139.917000
11
107.399413
21
140.387926
0
LINE
8
0
10
107.399413
20
140.387926
11
108.031916
21
140.724301
0
LINE
8
0
10
108.031916
20
140.724301
11
109.600190
21
140.993400
0
LINE
8
0
10
109.601000
20
140.993000
11
110.414510
21
140.924701
0
LINE
8
0
10
110.414510
20
140.924701
11
111.133760
21
140.719803
0
LINE
8
0
10
111.133760
20
140.719803
11
111.758750
21
140.378306
0
LINE
8
0
10
111.758750
20
140.378306
11
112.289480
21
139.900210
0
LINE
8
0
10
112.289000
20
139.901000
11
112.712152
21
139.302696
0
LINE
8
0
10
112.712152
20
139.302696
11
113.014401
21
138.600576
0
LINE
8
0
10
113.014401
20
138.600576
11
113.256199
21
136.884890
0
LINE
8
0
10
110.896000
20
132.956000
11
112.797610
21
130.978050
0
LINE
8
0
10
112.797610
20
130.978050
11
111.447000
21
130.978000
0
LINE
8
0
10
111.447000
20
130.978000
11
109.889650
21
132.781110
0
LINE
8
0
10
109.889650
20
132.781110
11
109.589113
21
132.770183
0
LINE
8
0
10
106.890000
20
136.884000
11
107.062128
21
135.456543
0
LINE
8
0
10
107.062128
20
135.456543
11
107.578508
21
134.419760
0
LINE
8
0
10
107.579000
20
134.420000
11
108.428713
21
133.793009
0
LINE
8
0
10
108.428713
20
133.793009
11
109.589900
21
133.584013
0
LINE
8
0
10
109.590000
20
133.584000
11
110.755279
21
133.792996
0
LINE
8
0
10
110.755279
20
133.792996
11
111.595430
21
134.419987
0
LINE
8
0
10
111.595000
20
134.420000
11
112.103182
21
135.454054
0
LINE
8
0
10
112.103182
20
135.454054
11
112.272576
21
136.884240
0
LINE
8
0
10
112.273000
20
136.884000
11
112.103606
21
138.300532
0
LINE
8
0
10
112.103606
20
138.300532
11
111.595424
21
139.326390
0
LINE
8
0
10
111.595000
20
139.327000
11
110.760317
21
139.953991
0
LINE
8
0
10
110.760317
20
139.953991
11
109.600500
21
140.162987
0
LINE
8
0
10
109.601000
20
140.163000
11
108.431617
21
139.952637
0
LINE
8
0
10
108.431617
20
139.952637
11
107.579170
21
139.321549
0
LINE
8
0
10
107.579000
20
139.321000
11
107.062619
21
138.293776
0
LINE
8
0
10
107.062619
20
138.293776
11
106.890492
21
136.884070
0
LINE
8
0
10
129.629000
20
136.950000
11
129.561720
21
136.019076
0
LINE
8
0
10
129.561720
20
136.019076
11
129.359879
21
135.204262
0
LINE
8
0
10
129.359879
20
135.204262
11
129.023476
21
134.505561
0
LINE
8
0
10
129.023476
20
134.505561
11
128.552510
21
133.922970
0
LINE
8
0
10
128.553000
20
133.923000
11
127.958411
21
133.466417
0
LINE
8
0
10
127.958411
20
133.466417
11
127.245653
21
133.140286
0
LINE
8
0
10
127.245653
20
133.140286
11
125.465630
21
132.879380
0
LINE
8
0
10
125.700000
20
140.868000
11
127.355709
21
140.609827
0
LINE
8
0
10
127.355709
20
140.609827
11
128.027826
21
140.287112
0
LINE
8
0
10
128.027826
20
140.287112
11
128.596120
21
139.835310
0
LINE
8
0
10
128.596000
20
139.835000
11
129.047839
21
139.267430
0
LINE
8
0
10
129.047839
20
139.267430
11
129.370580
21
138.597411
0
LINE
8
0
10
129.370580
20
138.597411
11
129.628770
21
136.950030
0
LINE
8
0
10
125.465000
20
132.879000
11
123.252000
21
132.879000
0
LINE
8
0
10
123.252000
20
132.879000
11
123.252000
21
140.868000
0
LINE
8
0
10
123.252000
20
140.868000
11
125.700000
21
140.868000
0
LINE
8
0
10
128.645000
20
136.917000
11
128.448282
21
138.287088
0
LINE
8
0
10
128.448282
20
138.287088
11
127.858122
21
139.271960
0
LINE
8
0
10
127.859000
20
139.272000
11
126.886346
21
139.866208
0
LINE
8
0
10
126.886346
20
139.866208
11
125.531170
21
140.064278
0
LINE
8
0
10
125.312000
20
133.683000
11
126.766894
21
133.886531
0
LINE
8
0
10
126.766894
20
133.886531
11
127.809220
21
134.497127
0
LINE
8
0
10
127.809000
20
134.497000
11
128.436041
21
135.511932
0
LINE
8
0
10
128.436041
20
135.511932
11
128.645053
21
136.917540
0
LINE
8
0
10
125.531000
20
140.065000
11
124.181000
21
140.065000
0
LINE
8
0
10
124.181000
20
140.065000
11
124.181000
21
133.683000
0
LINE
8
0
10
124.181000
20
133.683000
11
125.312000
21
133.683000
0
LINE
8
0
10
142.373000
20
135.699000
11
142.875721
21
133.966920
0
LINE
8
0
10
142.876000
20
133.967000
11
143.389651
21
135.731860
0
LINE
8
0
10
145.215000
20
140.868000
11
146.215000
21
140.868000
0
LINE
8
0
10
146.215000
20
140.868000
11
143.335270
21
132.879690
0
LINE
8
0
10
143.335270
20
132.879690
11
142.417000
21
132.879000
0
LINE
8
0
10
142.417000
20
132.879000
11
139.553660
21
140.867310
0
LINE
8
0
10
139.553660
20
140.867310
11
140.537000
21
140.868000
0
LINE
8
0
10
140.537000
20
140.868000
11
142.373030
21
135.699100
0
LINE
8
0
10
163.211000
20
136.884000
11
162.967837
21
135.171045
0
LINE
8
0
10
162.967837
20
135.171045
11
162.663881
21
134.468242
0
LINE
8
0
10
162.663881
20
134.468242
11
162.238343
21
133.867890
0
LINE
8
0
10
162.238000
20
133.868000
11
161.706930
21
133.387515
0
LINE
8
0
10
161.706930
20
133.387515
11
161.080916
21
133.044312
0
LINE
8
0
10
161.080916
20
133.044312
11
160.359959
21
132.838391
0
LINE
8
0
10
160.359959
20
132.838391
11
159.544060
21
132.769750
0
LINE
8
0
10
159.544000
20
132.770000
11
157.979815
21
133.039100
0
LINE
8
0
10
157.979815
20
133.039100
11
157.348338
21
133.375475
0
LINE
8
0
10
157.348338
20
133.375475
11
156.817270
21
133.846400
0
LINE
8
0
10
156.817000
20
133.847000
11
156.398629
21
134.443256
0
LINE
8
0
10
156.398629
20
134.443256
11
156.099792
21
135.150156
0
LINE
8
0
10
156.099792
20
135.150156
11
155.860723
21
136.895890
0
LINE
8
0
10
155.861000
20
136.895000
11
156.101434
21
138.625708
0
LINE
8
0
10
156.101434
20
138.625708
11
156.401976
21
139.326119
0
LINE
8
0
10
156.401976
20
139.326119
11
156.822735
21
139.916570
0
LINE
8
0
10
156.823000
20
139.917000
11
157.354411
21
140.387926
0
LINE
8
0
10
157.354411
20
140.387926
11
157.986915
21
140.724301
0
LINE
8
0
10
157.986915
20
140.724301
11
159.555190
21
140.993400
0
LINE
8
0
10
159.555000
20
140.993000
11
160.368510
21
140.924700
0
LINE
8
0
10
160.368510
20
140.924700
11
161.087760
21
140.719802
0
LINE
8
0
10
161.087760
20
140.719802
11
161.712750
21
140.378305
0
LINE
8
0
10
161.712750
20
140.378305
11
162.243480
21
139.900210
0
LINE
8
0
10
162.244000
20
139.901000
11
162.667151
21
139.302695
0
LINE
8
0
10
162.667151
20
139.302695
11
162.969400
21
138.600575
0
LINE
8
0
10
162.969400
20
138.600575
11
163.211199
21
136.884890
0
LINE
8
0
10
143.390000
20
135.732000
11
145.215110
21
140.868120
0
LINE
8
0
10
156.845000
20
136.884000
11
157.017129
21
135.456543
0
LINE
8
0
10
157.017129
20
135.456543
11
157.533508
21
134.419760
0
LINE
8
0
10
157.533000
20
134.420000
11
158.382713
21
133.793009
0
LINE
8
0
10
158.382713
20
133.793009
11
159.543900
21
133.584013
0
LINE
8
0
10
159.544000
20
133.584000
11
160.709274
21
133.792996
0
LINE
8
0
10
160.709274
20
133.792996
11
161.549420
21
134.419987
0
LINE
8
0
10
161.550000
20
134.420000
11
162.058190
21
135.454054
0
LINE
8
0
10
162.058190
20
135.454054
11
162.227586
21
136.884240
0
LINE
8
0
10
162.227000
20
136.884000
11
162.057604
21
138.300532
0
LINE
8
0
10
162.057604
20
138.300532
11
161.549414
21
139.326390
0
LINE
8
0
10
161.550000
20
139.327000
11
160.715317
21
139.953991
0
LINE
8
0
10
160.715317
20
139.953991
11
159.555500
21
140.162987
0
LINE
8
0
10
159.555000
20
140.163000
11
158.385625
21
139.952637
0
LINE
8
0
10
158.385625
20
139.952637
11
157.533180
21
139.321549
0
LINE
8
0
10
157.533000
20
139.321000
11
157.016621
21
138.293776
0
LINE
8
0
10
157.016621
20
138.293776
11
156.844492
21
136.884070
0
LINE
8
0
10
176.018000
20
140.868000
11
177.295304
21
140.727303
0
LINE
8
0
10
177.295304
20
140.727303
11
178.187370
21
140.305211
0
LINE
8
0
10
178.187000
20
140.305000
11
178.715677
21
139.600151
0
LINE
8
0
10
178.715677
20
139.600151
11
178.891902
21
138.611170
0
LINE
8
0
10
178.892000
20
138.611000
11
178.791591
21
137.882926
0
LINE
8
0
10
178.791591
20
137.882926
11
178.490366
21
137.283257
0
LINE
8
0
10
178.490366
20
137.283257
11
177.988326
21
136.811993
0
LINE
8
0
10
177.988326
20
136.811993
11
177.285470
21
136.469130
0
LINE
8
0
10
174.756000
20
136.201000
11
174.756000
21
132.879000
0
LINE
8
0
10
174.756000
20
132.879000
11
173.827000
21
132.879000
0
LINE
8
0
10
173.827000
20
132.879000
11
173.827000
21
140.868000
0
LINE
8
0
10
173.827000
20
140.868000
11
176.018000
21
140.868000
0
LINE
8
0
10
177.286000
20
136.469000
11
179.455370
21
132.879170
0
LINE
8
0
10
179.455370
20
132.879170
11
178.357000
21
132.879000
0
LINE
8
0
10
178.357000
20
132.879000
11
176.422610
21
136.201090
0
LINE
8
0
10
176.422610
20
136.201090
11
174.756000
21
136.201000
0
LINE
8
0
10
176.029000
20
136.999000
11
176.881449
21
137.095984
0
LINE
8
0
10
176.881449
20
137.095984
11
177.471610
21
137.386940
0
LINE
8
0
10
177.472000
20
137.387000
11
177.816252
21
137.877389
0
LINE
8
0
10
177.816252
20
137.877389
11
177.931001
21
138.561750
0
LINE
8
0
10
177.931000
20
138.562000
11
177.813516
21
139.243628
0
LINE
8
0
10
177.813516
20
139.243628
11
177.461064
21
139.703970
0
LINE
8
0
10
177.461000
20
139.704000
11
176.854455
21
139.966270
0
LINE
8
0
10
176.854455
20
139.966270
11
175.963760
21
140.053694
0
LINE
8
0
10
174.756000
20
136.999000
11
176.029000
21
136.999000
0
LINE
8
0
10
175.963000
20
140.054000
11
174.756000
21
140.054000
0
LINE
8
0
10
174.756000
20
140.054000
11
174.756000
21
136.999000
0
LINE
8
0
10
13.106700
20
116.889000
11
12.013800
21
116.889000
0
LINE
8
0
10
12.013800
20
116.889000
11
9.101280
21
120.762950
0
LINE
8
0
10
9.101280
20
120.762950
11
8.265229
21
120.019853
0
LINE
8
0
10
8.265229
20
120.019853
11
8.265270
21
116.889000
0
LINE
8
0
10
8.265270
20
116.889000
11
7.336320
21
116.889000
0
LINE
8
0
10
7.336320
20
116.889000
11
7.336320
21
124.877000
0
LINE
8
0
10
7.336320
20
124.877000
11
8.265270
21
124.877000
0
LINE
8
0
10
8.265270
20
124.877000
11
8.265270
21
120.916000
0
LINE
8
0
10
8.265270
20
120.916000
11
11.888160
21
124.877370
0
LINE
8
0
10
11.888160
20
124.877370
11
12.986500
21
124.877000
0
LINE
8
0
10
12.986500
20
124.877000
11
9.773440
21
121.407390
0
LINE
8
0
10
9.773440
20
121.407390
11
13.106700
21
116.889000
0
LINE
8
0
10
28.903000
20
116.889000
11
27.908480
21
119.429750
0
LINE
8
0
10
27.908480
20
119.429750
11
24.706400
21
119.430000
0
LINE
8
0
10
24.706400
20
119.430000
11
23.722811
21
116.889250
0
LINE
8
0
10
23.722811
20
116.889250
11
22.782900
21
116.889000
0
LINE
8
0
10
22.782900
20
116.889000
11
25.941300
21
124.910000
0
LINE
8
0
10
25.941300
20
124.910000
11
26.722800
21
124.910000
0
LINE
8
0
10
26.722800
20
124.910000
11
29.864820
21
116.888900
0
LINE
8
0
10
29.864820
20
116.888900
11
28.903000
21
116.889000
0
LINE
8
0
10
26.690000
20
122.741000
11
26.318421
21
123.893900
0
LINE
8
0
10
26.318400
20
123.894000
11
25.974143
21
122.741100
0
LINE
8
0
10
27.618900
20
120.266000
11
26.690000
21
122.741000
0
LINE
8
0
10
25.974100
20
122.741000
11
25.034226
21
120.265820
0
LINE
8
0
10
25.034226
20
120.265820
11
27.618900
21
120.266000
0
LINE
8
0
10
42.704900
20
124.877000
11
44.075093
21
124.758159
0
LINE
8
0
10
44.075093
20
124.758159
11
45.005410
21
124.401642
0
LINE
8
0
10
45.005400
20
124.402000
11
45.538178
21
123.788666
0
LINE
8
0
10
45.538178
20
123.788666
11
45.715771
21
122.899400
0
LINE
8
0
10
45.715800
20
122.899000
11
45.616075
21
122.250160
0
LINE
8
0
10
45.616075
20
122.250160
11
45.316899
21
121.724250
0
LINE
8
0
10
45.316900
20
121.724000
11
44.831934
21
121.345622
0
LINE
8
0
10
44.831934
20
121.345622
11
44.163910
21
121.128426
0
LINE
8
0
10
40.448100
20
124.877000
11
42.704900
21
124.877000
0
LINE
8
0
10
44.163900
20
121.074000
11
44.959991
21
120.837685
0
LINE
8
0
10
44.959991
20
120.837685
11
45.528629
21
120.440182
0
LINE
8
0
10
45.528629
20
120.440182
11
45.869812
21
119.881491
0
LINE
8
0
10
45.869812
20
119.881491
11
45.983540
21
119.161610
0
LINE
8
0
10
45.983500
20
119.162000
11
45.801811
21
118.208546
0
LINE
8
0
10
45.801811
20
118.208546
11
45.256741
21
117.490020
0
LINE
8
0
10
45.256700
20
117.490000
11
44.390595
21
117.039229
0
LINE
8
0
10
44.390595
20
117.039229
11
43.234880
21
116.888971
0
LINE
8
0
10
44.163900
20
121.129000
11
44.163900
21
121.074000
0
LINE
8
0
10
43.234900
20
116.889000
11
40.448100
21
116.889000
0
LINE
8
0
10
40.448100
20
116.889000
11
40.448100
21
124.877000
0
LINE
8
0
10
42.907100
20
121.457000
11
43.752713
21
121.533494
0
LINE
8
0
10
43.752713
20
121.533494
11
44.322380
21
121.762980
0
LINE
8
0
10
44.322300
20
121.763000
11
44.646064
21
122.179630
0
LINE
8
0
10
44.646064
20
122.179630
11
44.753986
21
122.806610
0
LINE
8
0
10
44.754000
20
122.806000
11
44.633783
21
123.383816
0
LINE
8
0
10
44.633783
20
123.383816
11
44.273131
21
123.773120
0
LINE
8
0
10
44.273100
20
123.773000
11
43.650161
21
123.998394
0
LINE
8
0
10
43.650161
20
123.998394
11
42.743070
21
124.073524
0
LINE
8
0
10
41.377000
20
121.457000
11
42.907100
21
121.457000
0
LINE
8
0
10
42.743100
20
124.074000
11
41.377000
21
124.074000
0
LINE
8
0
10
41.377000
20
124.074000
11
41.377000
21
121.457000
0
LINE
8
0
10
43.043700
20
117.681000
11
43.890676
21
117.773888
0
LINE
8
0
10
43.890676
20
117.773888
11
44.497220
21
118.052541
0
LINE
8
0
10
44.497200
20
118.053000
11
44.866047
21
118.535198
0
LINE
8
0
10
44.866047
20
118.535198
11
44.988996
21
119.227750
0
LINE
8
0
10
44.989000
20
119.227000
11
44.863319
21
119.871758
0
LINE
8
0
10
44.863319
20
119.871758
11
44.486276
21
120.319810
0
LINE
8
0
10
44.486300
20
120.320000
11
43.857895
21
120.582263
0
LINE
8
0
10
43.857895
20
120.582263
11
42.967200
21
120.669686
0
LINE
8
0
10
41.377000
20
120.670000
11
41.377000
21
117.681000
0
LINE
8
0
10
41.377000
20
117.681000
11
43.043700
21
117.681000
0
LINE
8
0
10
63.023000
20
120.959000
11
62.955720
21
120.028081
0
LINE
8
0
10
62.955720
20
120.028081
11
62.753880
21
119.213270
0
LINE
8
0
10
62.753880
20
119.213270
11
62.417480
21
118.514566
0
LINE
8
0
10
62.417480
20
118.514566
11
61.946520
21
117.931970
0
LINE
8
0
10
61.946500
20
117.932000
11
61.351906
21
117.475418
0
LINE
8
0
10
61.351906
20
117.475418
11
60.639145
21
117.149287
0
LINE
8
0
10
60.639145
20
117.149287
11
58.859120
21
116.888380
0
LINE
8
0
10
42.967200
20
120.670000
11
41.377000
21
120.670000
0
LINE
8
0
10
59.094100
20
124.877000
11
60.749810
21
124.618827
0
LINE
8
0
10
60.749810
20
124.618827
11
61.421930
21
124.296112
0
LINE
8
0
10
61.421930
20
124.296112
11
61.990230
21
123.844310
0
LINE
8
0
10
61.990200
20
123.844000
11
62.442036
21
123.276430
0
LINE
8
0
10
62.442036
20
123.276430
11
62.764777
21
122.606410
0
LINE
8
0
10
62.764777
20
122.606410
11
63.022970
21
120.959020
0
LINE
8
0
10
58.859100
20
116.889000
11
56.646000
21
116.889000
0
LINE
8
0
10
56.646000
20
116.889000
11
56.646000
21
124.877000
0
LINE
8
0
10
56.646000
20
124.877000
11
59.094100
21
124.877000
0
LINE
8
0
10
62.039400
20
120.927000
11
61.842683
21
122.297088
0
LINE
8
0
10
61.842683
20
122.297088
11
61.252530
21
123.281960
0
LINE
8
0
10
61.252500
20
123.282000
11
60.279839
21
123.876208
0
LINE
8
0
10
60.279839
20
123.876208
11
58.924670
21
124.074278
0
LINE
8
0
10
58.706100
20
117.692000
11
60.160994
21
117.895533
0
LINE
8
0
10
60.160994
20
117.895533
11
61.203320
21
118.506132
0
LINE
8
0
10
61.203300
20
118.506000
11
61.830338
21
119.520929
0
LINE
8
0
10
61.830338
20
119.520929
11
62.039351
21
120.926540
0
LINE
8
0
10
58.924700
20
124.074000
11
57.575000
21
124.074000
0
LINE
8
0
10
57.575000
20
124.074000
11
57.575000
21
117.692000
0
LINE
8
0
10
57.575000
20
117.692000
11
58.706100
21
117.692000
0
LINE
8
0
10
79.313800
20
116.889000
11
78.384900
21
116.889000
0
LINE
8
0
10
78.384900
20
116.889000
11
78.384900
21
120.648000
0
LINE
8
0
10
78.384900
20
120.648000
11
74.177300
21
120.648000
0
LINE
8
0
10
74.177300
20
120.648000
11
74.177300
21
116.889000
0
LINE
8
0
10
74.177300
20
116.889000
11
73.248400
21
116.889000
0
LINE
8
0
10
73.248400
20
116.889000
11
73.248400
21
124.877000
0
LINE
8
0
10
73.248400
20
124.877000
11
74.177300
21
124.877000
0
LINE
8
0
10
74.177300
20
124.877000
11
74.177300
21
121.479000
0
LINE
8
0
10
74.177300
20
121.479000
11
78.384900
21
121.479000
0
LINE
8
0
10
78.384900
20
121.479000
11
78.384900
21
124.877000
0
LINE
8
0
10
78.384900
20
124.877000
11
79.313800
21
124.877000
0
LINE
8
0
10
79.313800
20
124.877000
11
79.313800
21
116.889000
0
LINE
8
0
10
95.509100
20
116.889000
11
94.514585
21
119.429750
0
LINE
8
0
10
94.514585
20
119.429750
11
91.312400
21
119.430000
0
LINE
8
0
10
91.312400
20
119.430000
11
90.328810
21
116.889250
0
LINE
8
0
10
90.328810
20
116.889250
11
89.389000
21
116.889000
0
LINE
8
0
10
89.389000
20
116.889000
11
92.547410
21
124.910100
0
LINE
8
0
10
92.547410
20
124.910100
11
93.328800
21
124.910000
0
LINE
8
0
10
93.328800
20
124.910000
11
96.470830
21
116.888900
0
LINE
8
0
10
96.470830
20
116.888900
11
95.509100
21
116.889000
0
LINE
8
0
10
93.296000
20
122.741000
11
92.924422
21
123.893900
0
LINE
8
0
10
92.924400
20
123.894000
11
92.580140
21
122.741100
0
LINE
8
0
10
94.224900
20
120.266000
11
93.295957
21
122.741180
0
LINE
8
0
10
92.580200
20
122.741000
11
91.640327
21
120.265820
0
LINE
8
0
10
91.640327
20
120.265820
11
94.224900
21
120.266000
0
LINE
8
0
10
112.639000
20
119.708000
11
112.432719
21
118.488173
0
LINE
8
0
10
112.432719
20
118.488173
11
111.813882
21
117.560670
0
LINE
8
0
10
111.814000
20
117.561000
11
110.834507
21
116.974990
0
LINE
8
0
10
110.834507
20
116.974990
11
109.546280
21
116.779655
0
LINE
8
0
10
109.546000
20
116.780000
11
108.265969
21
116.976699
0
LINE
8
0
10
108.265969
20
116.976699
11
107.311070
21
117.566801
0
LINE
8
0
10
107.311000
20
117.566000
11
106.720843
21
118.500339
0
LINE
8
0
10
106.720843
20
118.500339
11
106.524125
21
119.729730
0
LINE
8
0
10
112.639000
20
124.877000
11
112.639000
21
119.708000
0
LINE
8
0
10
107.453000
20
119.665000
11
107.589608
21
118.781197
0
LINE
8
0
10
107.589608
20
118.781197
11
107.999438
21
118.129620
0
LINE
8
0
10
107.999000
20
118.129000
11
108.673848
21
117.727402
0
LINE
8
0
10
108.673848
20
117.727402
11
109.605520
21
117.593540
0
LINE
8
0
10
109.606000
20
117.594000
11
110.500797
21
117.727862
0
LINE
8
0
10
110.500797
20
117.727862
11
111.163350
21
118.129460
0
LINE
8
0
10
111.163000
20
118.129000
11
111.572829
21
118.786041
0
LINE
8
0
10
111.572829
20
118.786041
11
111.709438
21
119.675310
0
LINE
8
0
10
106.524000
20
119.730000
11
106.524000
21
124.877000
0
LINE
8
0
10
106.524000
20
124.877000
11
107.453000
21
124.877000
0
LINE
8
0
10
107.453000
20
124.877000
11
107.453000
21
119.665000
0
LINE
8
0
10
111.710000
20
119.675000
11
111.710000
21
124.877000
0
LINE
8
0
10
111.710000
20
124.877000
11
112.639000
21
124.877000
0
LINE
8
0
10
125.962000
20
124.877000
11
127.332196
21
124.758159
0
LINE
8
0
10
127.332196
20
124.758159
11
128.262510
21
124.401642
0
LINE
8
0
10
128.263000
20
124.402000
11
128.795774
21
123.788666
0
LINE
8
0
10
128.795774
20
123.788666
11
128.973368
21
122.899400
0
LINE
8
0
10
128.973000
20
122.899000
11
128.873274
21
122.250160
0
LINE
8
0
10
128.873274
20
122.250160
11
128.574096
21
121.724250
0
LINE
8
0
10
128.574000
20
121.724000
11
128.089038
21
121.345622
0
LINE
8
0
10
128.089038
20
121.345622
11
127.421020
21
121.128426
0
LINE
8
0
10
123.706000
20
124.877000
11
125.962000
21
124.877000
0
LINE
8
0
10
127.421000
20
121.074000
11
128.217095
21
120.837685
0
LINE
8
0
10
128.217095
20
120.837685
11
128.785732
21
120.440182
0
LINE
8
0
10
128.785732
20
120.440182
11
129.126913
21
119.881491
0
LINE
8
0
10
129.126913
20
119.881491
11
129.240640
21
119.161610
0
LINE
8
0
10
129.241000
20
119.162000
11
129.059308
21
118.208546
0
LINE
8
0
10
129.059308
20
118.208546
11
128.514233
21
117.490020
0
LINE
8
0
10
128.514000
20
117.490000
11
127.647899
21
117.039229
0
LINE
8
0
10
127.647899
20
117.039229
11
126.492180
21
116.888971
0
LINE
8
0
10
127.421000
20
121.129000
11
127.421000
21
121.074000
0
LINE
8
0
10
126.492000
20
116.889000
11
123.706000
21
116.889000
0
LINE
8
0
10
123.706000
20
116.889000
11
123.706000
21
124.877000
0
LINE
8
0
10
126.165000
20
121.457000
11
127.010616
21
121.533494
0
LINE
8
0
10
127.010616
20
121.533494
11
127.580280
21
121.762980
0
LINE
8
0
10
127.580000
20
121.763000
11
127.903767
21
122.179630
0
LINE
8
0
10
127.903767
20
122.179630
11
128.011688
21
122.806610
0
LINE
8
0
10
128.012000
20
122.806000
11
127.891783
21
123.383816
0
LINE
8
0
10
127.891783
20
123.383816
11
127.531136
21
123.773120
0
LINE
8
0
10
127.531000
20
123.773000
11
126.908058
21
123.998394
0
LINE
8
0
10
126.908058
20
123.998394
11
126.000970
21
124.073524
0
LINE
8
0
10
124.635000
20
121.457000
11
126.165000
21
121.457000
0
LINE
8
0
10
126.001000
20
124.074000
11
124.635000
21
124.074000
0
LINE
8
0
10
124.635000
20
124.074000
11
124.635000
21
121.457000
0
LINE
8
0
10
126.301000
20
117.681000
11
127.147976
21
117.773888
0
LINE
8
0
10
127.147976
20
117.773888
11
127.754530
21
118.052541
0
LINE
8
0
10
127.755000
20
118.053000
11
128.123847
21
118.535198
0
LINE
8
0
10
128.123847
20
118.535198
11
128.246796
21
119.227750
0
LINE
8
0
10
128.247000
20
119.227000
11
128.121317
21
119.871758
0
LINE
8
0
10
128.121317
20
119.871758
11
127.744271
21
120.319810
0
LINE
8
0
10
127.744000
20
120.320000
11
127.115596
21
120.582263
0
LINE
8
0
10
127.115596
20
120.582263
11
126.224900
21
120.669686
0
LINE
8
0
10
124.635000
20
120.670000
11
124.635000
21
117.681000
0
LINE
8
0
10
124.635000
20
117.681000
11
126.301000
21
117.681000
0
LINE
8
0
10
126.225000
20
120.670000
11
124.635000
21
120.670000
0
LINE
8
0
10
142.423000
20
116.889000
11
142.423000
21
124.877000
0
LINE
8
0
10
142.423000
20
124.877000
11
143.352000
21
124.877000
0
LINE
8
0
10
143.352000
20
124.877000
11
143.352000
21
116.889000
0
LINE
8
0
10
143.352000
20
116.889000
11
142.423000
21
116.889000
0
LINE
8
0
10
159.998000
20
116.889000
11
159.069000
21
116.889000
0
LINE
8
0
10
159.069000
20
116.889000
11
159.069000
21
124.052000
0
LINE
8
0
10
159.069000
20
124.052000
11
156.539000
21
124.052000
0
LINE
8
0
10
156.539000
20
124.052000
11
156.539000
21
124.877000
0
LINE
8
0
10
156.539000
20
124.877000
11
162.528000
21
124.877000
0
LINE
8
0
10
162.528000
20
124.877000
11
162.528000
21
124.052000
0
LINE
8
0
10
162.528000
20
124.052000
11
159.998000
21
124.052000
0
LINE
8
0
10
159.998000
20
124.052000
11
159.998000
21
116.889000
0
LINE
8
0
10
178.933000
20
116.889000
11
173.442000
21
116.889000
0
LINE
8
0
10
173.442000
20
116.889000
11
173.442000
21
117.616000
0
LINE
8
0
10
173.442000
20
117.616000
11
177.682370
21
124.041620
0
LINE
8
0
10
177.682370
20
124.041620
11
173.573000
21
124.041000
0
LINE
8
0
10
173.573000
20
124.041000
11
173.573000
21
124.877000
0
LINE
8
0
10
173.573000
20
124.877000
11
178.813000
21
124.877000
0
LINE
8
0
10
178.813000
20
124.877000
11
178.813000
21
124.150000
0
LINE
8
0
10
178.813000
20
124.150000
11
174.572640
21
117.729850
0
LINE
8
0
10
174.572640
20
117.729850
11
178.933000
21
117.730000
0
LINE
8
0
10
178.933000
20
117.730000
11
178.933000
21
116.889000
0
LINE
8
0
10
12.112200
20
100.898000
11
7.658720
21
100.898000
0
LINE
8
0
10
7.658720
20
100.898000
11
7.658720
21
108.887000
0
LINE
8
0
10
7.658720
20
108.887000
11
12.112200
21
108.887000
0
LINE
8
0
10
12.112200
20
108.887000
11
12.112200
21
108.061000
0
LINE
8
0
10
12.112200
20
108.061000
11
8.587670
21
108.061000
0
LINE
8
0
10
8.587670
20
108.061000
11
8.587670
21
105.488000
0
LINE
8
0
10
8.587670
20
105.488000
11
11.899100
21
105.488000
0
LINE
8
0
10
11.899100
20
105.488000
11
11.899100
21
104.668000
0
LINE
8
0
10
11.899100
20
104.668000
11
8.587670
21
104.668000
0
LINE
8
0
10
8.587670
20
104.668000
11
8.587670
21
101.729000
0
LINE
8
0
10
8.587670
20
101.729000
11
12.112200
21
101.729000
0
LINE
8
0
10
12.112200
20
101.729000
11
12.112200
21
100.898000
0
LINE
8
0
10
45.510800
20
103.024000
11
45.319546
21
102.085561
0
LINE
8
0
10
45.319546
20
102.085561
11
44.745785
21
101.379350
0
LINE
8
0
10
44.745800
20
101.379000
11
43.844180
21
100.936420
0
LINE
8
0
10
43.844180
20
100.936420
11
42.669340
21
100.788893
0
LINE
8
0
10
42.669400
20
100.789000
11
41.412593
21
100.880519
0
LINE
8
0
10
41.412593
20
100.880519
11
40.483640
21
101.155082
0
LINE
8
0
10
25.862100
20
100.898000
11
25.862100
21
108.887000
0
LINE
8
0
10
25.862100
20
108.887000
11
26.791100
21
108.887000
0
LINE
8
0
10
26.791100
20
108.887000
11
26.791100
21
100.898000
0
LINE
8
0
10
26.791100
20
100.898000
11
25.862100
21
100.898000
0
LINE
8
0
10
40.483600
20
102.051000
11
41.554620
21
101.723166
0
LINE
8
0
10
41.554600
20
101.723000
11
42.702120
21
101.602795
0
LINE
8
0
10
42.702100
20
101.603000
11
43.516291
21
101.690426
0
LINE
8
0
10
43.516291
20
101.690426
11
44.100980
21
101.952697
0
LINE
8
0
10
44.101000
20
101.953000
11
44.453452
21
102.376453
0
LINE
8
0
10
44.453452
20
102.376453
11
44.570936
21
102.936508
0
LINE
8
0
10
44.571000
20
102.936000
11
44.401603
21
103.613528
0
LINE
8
0
10
44.401600
20
103.614000
11
43.844235
21
104.105765
0
LINE
8
0
10
43.844200
20
104.106000
11
42.658430
21
104.614140
0
LINE
8
0
10
42.658400
20
104.614000
11
41.702129
21
105.049752
0
LINE
8
0
10
41.702129
20
105.049752
11
41.062800
21
105.559268
0
LINE
8
0
10
41.062800
20
105.559000
11
40.706249
21
106.188722
0
LINE
8
0
10
40.706249
20
106.188722
11
40.587397
21
106.985090
0
LINE
8
0
10
40.587400
20
106.985000
11
40.760894
21
107.814159
0
LINE
8
0
10
40.760894
20
107.814159
11
41.281377
21
108.454810
0
LINE
8
0
10
41.281400
20
108.455000
11
42.087397
21
108.864800
0
LINE
8
0
10
42.087397
20
108.864800
11
43.117440
21
109.001401
0
LINE
8
0
10
43.117400
20
109.001000
11
44.260820
21
108.891716
0
LINE
8
0
10
44.260820
20
108.891716
11
45.308620
21
108.563874
0
LINE
8
0
10
40.483600
20
101.155000
11
40.483600
21
102.051000
0
LINE
8
0
10
45.019000
20
107.755000
11
44.043603
21
108.066447
0
LINE
8
0
10
44.043603
20
108.066447
11
43.095530
21
108.170263
0
LINE
8
0
10
43.095600
20
108.171000
11
42.438506
21
108.091772
0
LINE
8
0
10
42.438506
20
108.091772
11
41.942610
21
107.854090
0
LINE
8
0
10
41.942600
20
107.854000
11
41.631131
21
107.475621
0
LINE
8
0
10
41.631131
20
107.475621
11
41.527308
21
106.974309
0
LINE
8
0
10
41.527300
20
106.974000
11
41.680303
21
106.290998
0
LINE
8
0
10
41.680300
20
106.291000
11
42.193953
21
105.804710
0
LINE
8
0
10
42.194000
20
105.805000
11
43.308740
21
105.318712
0
LINE
8
0
10
43.308700
20
105.319000
11
44.368789
21
104.854561
0
LINE
8
0
10
44.368789
20
104.854561
11
45.035450
21
104.357336
0
LINE
8
0
10
45.035400
20
104.357000
11
45.391949
21
103.766895
0
LINE
8
0
10
45.391949
20
103.766895
11
45.510800
21
103.023800
0
LINE
8
0
10
45.308700
20
108.564000
11
45.019090
21
107.755334
0
LINE
8
0
10
63.301700
20
104.903000
11
63.147332
21
103.497391
0
LINE
8
0
10
63.147332
20
103.497391
11
62.684227
21
102.351320
0
LINE
8
0
10
62.684200
20
102.352000
11
61.939676
21
101.499628
0
LINE
8
0
10
61.939676
20
101.499628
11
60.941060
21
100.975080
0
LINE
8
0
10
59.635100
20
100.789000
11
58.070919
21
101.058101
0
LINE
8
0
10
58.070919
20
101.058101
11
57.439442
21
101.394478
0
LINE
8
0
10
57.439442
20
101.394478
11
56.908370
21
101.865410
0
LINE
8
0
10
56.908300
20
101.865000
11
56.489933
21
102.461255
0
LINE
8
0
10
56.489933
20
102.461255
11
56.191100
21
103.168155
0
LINE
8
0
10
56.191100
20
103.168155
11
55.952034
21
104.913890
0
LINE
8
0
10
55.952100
20
104.914000
11
56.192533
21
106.644711
0
LINE
8
0
10
56.192533
20
106.644711
11
56.493073
21
107.345124
0
LINE
8
0
10
56.493073
20
107.345124
11
56.913830
21
107.935570
0
LINE
8
0
10
56.913800
20
107.936000
11
57.445211
21
108.406927
0
LINE
8
0
10
57.445211
20
108.406927
11
58.077715
21
108.743302
0
LINE
8
0
10
58.077715
20
108.743302
11
59.645990
21
109.012400
0
LINE
8
0
10
59.646000
20
109.012000
11
60.459510
21
108.943701
0
LINE
8
0
10
60.459510
20
108.943701
11
61.178760
21
108.738803
0
LINE
8
0
10
61.178760
20
108.738803
11
61.803750
21
108.397306
0
LINE
8
0
10
61.803750
20
108.397306
11
62.334480
21
107.919210
0
LINE
8
0
10
62.334500
20
107.919000
11
62.757648
21
107.320695
0
LINE
8
0
10
62.757648
20
107.320695
11
63.059897
21
106.618575
0
LINE
8
0
10
63.059897
20
106.618575
11
63.301696
21
104.902890
0
LINE
8
0
10
60.941100
20
100.975000
11
62.842710
21
98.997050
0
LINE
8
0
10
62.842710
20
98.997050
11
61.493000
21
98.996800
0
LINE
8
0
10
61.493000
20
98.996800
11
59.935650
21
100.799900
0
LINE
8
0
10
59.935650
20
100.799900
11
59.635110
21
100.788973
0
LINE
8
0
10
56.935700
20
104.903000
11
57.107828
21
103.475534
0
LINE
8
0
10
57.107828
20
103.475534
11
57.624211
21
102.438750
0
LINE
8
0
10
57.624200
20
102.439000
11
58.473913
21
101.812009
0
LINE
8
0
10
58.473913
20
101.812009
11
59.635100
21
101.603016
0
LINE
8
0
10
59.635100
20
101.603000
11
60.800377
21
101.811993
0
LINE
8
0
10
60.800377
20
101.811993
11
61.640530
21
102.438984
0
LINE
8
0
10
61.640500
20
102.439000
11
62.148685
21
103.473055
0
LINE
8
0
10
62.148685
20
103.473055
11
62.318081
21
104.903250
0
LINE
8
0
10
62.318100
20
104.903000
11
62.148704
21
106.319531
0
LINE
8
0
10
62.148704
20
106.319531
11
61.640519
21
107.345380
0
LINE
8
0
10
61.640500
20
107.346000
11
60.805811
21
107.972998
0
LINE
8
0
10
60.805811
20
107.972998
11
59.645990
21
108.181995
0
LINE
8
0
10
59.646000
20
108.182000
11
58.476623
21
107.971635
0
LINE
8
0
10
58.476623
20
107.971635
11
57.624180
21
107.340549
0
LINE
8
0
10
57.624200
20
107.340000
11
57.107817
21
106.312770
0
LINE
8
0
10
57.107817
20
106.312770
11
56.935689
21
104.903070
0
LINE
8
0
10
79.024200
20
100.898000
11
73.532500
21
100.898000
0
LINE
8
0
10
73.532500
20
100.898000
11
73.532500
21
101.625000
0
LINE
8
0
10
73.532500
20
101.625000
11
77.772860
21
108.050620
0
LINE
8
0
10
77.772860
20
108.050620
11
73.663700
21
108.051000
0
LINE
8
0
10
73.663700
20
108.051000
11
73.663700
21
108.887000
0
LINE
8
0
10
73.663700
20
108.887000
11
78.904000
21
108.887000
0
LINE
8
0
10
78.904000
20
108.887000
11
78.904000
21
108.160000
0
LINE
8
0
10
78.904000
20
108.160000
11
74.663630
21
101.739850
0
LINE
8
0
10
74.663630
20
101.739850
11
79.024200
21
101.740000
0
LINE
8
0
10
79.024200
20
101.740000
11
79.024200
21
100.898000
0
LINE
8
0
10
93.290500
20
106.247000
11
93.033675
21
107.143095
0
LINE
8
0
10
93.033700
20
107.144000
11
92.886163
21
107.794210
0
LINE
8
0
10
92.886200
20
107.794000
11
92.503692
21
106.214910
0
LINE
8
0
10
95.820500
20
100.898000
11
94.902500
21
100.898000
0
LINE
8
0
10
94.902500
20
100.898000
11
93.290510
21
106.247210
0
LINE
8
0
10
90.143000
20
103.953000
11
90.525510
21
102.073410
0
LINE
8
0
10
90.525600
20
102.073000
11
90.962747
21
104.029090
0
LINE
8
0
10
92.503700
20
106.215000
11
90.940880
21
100.898570
0
LINE
8
0
10
90.940880
20
100.898570
11
90.022800
21
100.898000
0
LINE
8
0
10
90.022800
20
100.898000
11
87.897160
21
108.886300
0
LINE
8
0
10
87.897160
20
108.886300
11
88.880800
21
108.887000
0
LINE
8
0
10
88.880800
20
108.887000
11
90.143070
21
103.953040
0
LINE
8
0
10
94.880700
20
103.985000
11
95.323313
21
102.072620
0
LINE
8
0
10
95.323300
20
102.073000
11
95.716738
21
103.963520
0
LINE
8
0
10
90.962700
20
104.029000
11
92.394370
21
108.886460
0
LINE
8
0
10
92.394370
20
108.886460
11
93.378000
21
108.887000
0
LINE
8
0
10
93.378000
20
108.887000
11
94.880700
21
103.985830
0
LINE
8
0
10
113.256000
20
104.903000
11
113.012837
21
103.190045
0
LINE
8
0
10
113.012837
20
103.190045
11
112.708881
21
102.487243
0
LINE
8
0
10
112.708881
20
102.487243
11
112.283343
21
101.886890
0
LINE
8
0
10
112.284000
20
101.887000
11
111.752928
21
101.406516
0
LINE
8
0
10
111.752928
20
101.406516
11
111.126914
21
101.063313
0
LINE
8
0
10
111.126914
20
101.063313
11
110.405958
21
100.857391
0
LINE
8
0
10
110.405958
20
100.857391
11
109.590060
21
100.788750
0
LINE
8
0
10
109.590000
20
100.789000
11
108.025815
21
101.058099
0
LINE
8
0
10
108.025815
20
101.058099
11
107.394338
21
101.394474
0
LINE
8
0
10
107.394338
20
101.394474
11
106.863270
21
101.865400
0
LINE
8
0
10
106.863000
20
101.865000
11
106.444635
21
102.461260
0
LINE
8
0
10
106.444635
20
102.461260
11
106.145802
21
103.168162
0
LINE
8
0
10
106.145802
20
103.168162
11
105.906734
21
104.913890
0
LINE
8
0
10
105.907000
20
104.914000
11
106.147434
21
106.644720
0
LINE
8
0
10
106.147434
20
106.644720
11
106.447975
21
107.345133
0
LINE
8
0
10
106.447975
20
107.345133
11
106.868733
21
107.935580
0
LINE
8
0
10
106.868000
20
107.936000
11
107.399413
21
108.406927
0
LINE
8
0
10
107.399413
20
108.406927
11
108.031916
21
108.743302
0
LINE
8
0
10
108.031916
20
108.743302
11
109.600190
21
109.012400
0
LINE
8
0
10
109.601000
20
109.012000
11
110.414510
21
108.943699
0
LINE
8
0
10
110.414510
20
108.943699
11
111.133760
21
108.738799
0
LINE
8
0
10
111.133760
20
108.738799
11
111.758750
21
108.397302
0
LINE
8
0
10
111.758750
20
108.397302
11
112.289480
21
107.919210
0
LINE
8
0
10
112.289000
20
107.919000
11
112.712152
21
107.320695
0
LINE
8
0
10
112.712152
20
107.320695
11
113.014401
21
106.618575
0
LINE
8
0
10
113.014401
20
106.618575
11
113.256199
21
104.902890
0
LINE
8
0
10
95.716700
20
103.963000
11
96.973520
21
108.886030
0
LINE
8
0
10
96.973520
20
108.886030
11
97.957100
21
108.887000
0
LINE
8
0
10
97.957100
20
108.887000
11
95.820520
21
100.898700
0
LINE
8
0
10
106.890000
20
104.903000
11
107.062128
21
103.475534
0
LINE
8
0
10
107.062128
20
103.475534
11
107.578508
21
102.438750
0
LINE
8
0
10
107.579000
20
102.439000
11
108.428713
21
101.812009
0
LINE
8
0
10
108.428713
20
101.812009
11
109.589900
21
101.603016
0
LINE
8
0
10
109.590000
20
101.603000
11
110.755279
21
101.811993
0
LINE
8
0
10
110.755279
20
101.811993
11
111.595430
21
102.438984
0
LINE
8
0
10
111.595000
20
102.439000
11
112.103182
21
103.473055
0
LINE
8
0
10
112.103182
20
103.473055
11
112.272576
21
104.903250
0
LINE
8
0
10
112.273000
20
104.903000
11
112.103606
21
106.319531
0
LINE
8
0
10
112.103606
20
106.319531
11
111.595424
21
107.345380
0
LINE
8
0
10
111.595000
20
107.346000
11
110.760317
21
107.972998
0
LINE
8
0
10
110.760317
20
107.972998
11
109.600500
21
108.181995
0
LINE
8
0
10
109.601000
20
108.182000
11
108.431617
21
107.971635
0
LINE
8
0
10
108.431617
20
107.971635
11
107.579170
21
107.340549
0
LINE
8
0
10
107.579000
20
107.340000
11
107.062619
21
106.312770
0
LINE
8
0
10
107.062619
20
106.312770
11
106.890492
21
104.903070
0
LINE
8
0
10
108.076000
20
110.356000
11
108.218070
21
110.765797
0
LINE
8
0
10
108.218000
20
110.766000
11
108.567723
21
110.891672
0
LINE
8
0
10
108.568000
20
110.892000
11
108.923179
21
110.766328
0
LINE
8
0
10
108.923000
20
110.766000
11
109.076008
21
110.356203
0
LINE
8
0
10
109.076000
20
110.356000
11
108.922992
21
109.946201
0
LINE
8
0
10
108.923000
20
109.947000
11
108.567821
21
109.815865
0
LINE
8
0
10
108.568000
20
109.815000
11
108.218277
21
109.946135
0
LINE
8
0
10
108.218000
20
109.947000
11
108.075930
21
110.356799
0
LINE
8
0
10
110.158000
20
110.356000
11
110.300073
21
110.765797
0
LINE
8
0
10
110.300000
20
110.766000
11
110.649721
21
110.891672
0
LINE
8
0
10
110.650000
20
110.892000
11
110.999723
21
110.766328
0
LINE
8
0
10
110.999000
20
110.766000
11
111.151998
21
110.356203
0
LINE
8
0
10
111.152000
20
110.356000
11
110.999002
21
109.946201
0
LINE
8
0
10
110.999000
20
109.947000
11
110.649277
21
109.815865
0
LINE
8
0
10
110.650000
20
109.815000
11
110.300279
21
109.946135
0
LINE
8
0
10
110.300000
20
109.947000
11
110.157927
21
110.356799
0
LINE
8
0
10
146.281000
20
104.969000
11
146.213720
21
104.038075
0
LINE
8
0
10
146.213720
20
104.038075
11
146.011879
21
103.223261
0
LINE
8
0
10
146.011879
20
103.223261
11
145.675476
21
102.524556
0
LINE
8
0
10
145.675476
20
102.524556
11
145.204510
21
101.941960
0
LINE
8
0
10
145.204000
20
101.942000
11
144.609406
21
101.485420
0
LINE
8
0
10
144.609406
20
101.485420
11
143.896649
21
101.159292
0
LINE
8
0
10
143.896649
20
101.159292
11
142.116630
21
100.898390
0
LINE
8
0
10
125.771000
20
100.898000
11
125.771000
21
108.887000
0
LINE
8
0
10
125.771000
20
108.887000
11
126.700000
21
108.887000
0
LINE
8
0
10
126.700000
20
108.887000
11
126.700000
21
100.898000
0
LINE
8
0
10
126.700000
20
100.898000
11
125.771000
21
100.898000
0
LINE
8
0
10
142.352000
20
108.887000
11
144.007705
21
108.628827
0
LINE
8
0
10
144.007705
20
108.628827
11
144.679825
21
108.306112
0
LINE
8
0
10
144.679825
20
108.306112
11
145.248120
21
107.854310
0
LINE
8
0
10
145.248000
20
107.854000
11
145.699835
21
107.286430
0
LINE
8
0
10
145.699835
20
107.286430
11
146.022575
21
106.616411
0
LINE
8
0
10
146.022575
20
106.616411
11
146.280770
21
104.969030
0
LINE
8
0
10
142.117000
20
100.898000
11
139.904000
21
100.898000
0
LINE
8
0
10
139.904000
20
100.898000
11
139.904000
21
108.887000
0
LINE
8
0
10
139.904000
20
108.887000
11
142.352000
21
108.887000
0
LINE
8
0
10
145.297000
20
104.936000
11
145.100283
21
106.306084
0
LINE
8
0
10
145.100283
20
106.306084
11
144.510125
21
107.290960
0
LINE
8
0
10
144.510000
20
107.291000
11
143.537345
21
107.885208
0
LINE
8
0
10
143.537345
20
107.885208
11
142.182170
21
108.083278
0
LINE
8
0
10
141.964000
20
101.701000
11
143.418890
21
101.904533
0
LINE
8
0
10
143.418890
20
101.904533
11
144.461220
21
102.515132
0
LINE
8
0
10
144.461000
20
102.516000
11
145.088036
21
103.530937
0
LINE
8
0
10
145.088036
20
103.530937
11
145.297051
21
104.936540
0
LINE
8
0
10
142.182000
20
108.083000
11
140.833000
21
108.083000
0
LINE
8
0
10
140.833000
20
108.083000
11
140.833000
21
101.701000
0
LINE
8
0
10
140.833000
20
101.701000
11
141.964000
21
101.701000
0
LINE
8
0
10
159.367000
20
108.887000
11
160.644300
21
108.746304
0
LINE
8
0
10
160.644300
20
108.746304
11
161.536360
21
108.324211
0
LINE
8
0
10
161.536000
20
108.324000
11
162.064681
21
107.619149
0
LINE
8
0
10
162.064681
20
107.619149
11
162.240910
21
106.630180
0
LINE
8
0
10
162.241000
20
106.630000
11
162.140591
21
105.901924
0
LINE
8
0
10
162.140591
20
105.901924
11
161.839366
21
105.302252
0
LINE
8
0
10
161.839366
20
105.302252
11
161.337326
21
104.830984
0
LINE
8
0
10
161.337326
20
104.830984
11
160.634470
21
104.488120
0
LINE
8
0
10
158.104000
20
104.220000
11
158.104000
21
100.898000
0
LINE
8
0
10
158.104000
20
100.898000
11
157.175000
21
100.898000
0
LINE
8
0
10
157.175000
20
100.898000
11
157.175000
21
108.887000
0
LINE
8
0
10
157.175000
20
108.887000
11
159.367000
21
108.887000
0
LINE
8
0
10
160.634000
20
104.488000
11
162.803360
21
100.898190
0
LINE
8
0
10
162.803360
20
100.898190
11
161.705000
21
100.898000
0
LINE
8
0
10
161.705000
20
100.898000
11
159.770610
21
104.220070
0
LINE
8
0
10
159.770610
20
104.220070
11
158.104000
21
104.220000
0
LINE
8
0
10
159.377000
20
105.018000
11
160.229444
21
105.114982
0
LINE
8
0
10
160.229444
20
105.114982
11
160.819600
21
105.405934
0
LINE
8
0
10
160.820000
20
105.406000
11
161.164257
21
105.896393
0
LINE
8
0
10
161.164257
20
105.896393
11
161.279012
21
106.580760
0
LINE
8
0
10
161.279000
20
106.581000
11
161.161514
21
107.262623
0
LINE
8
0
10
161.161514
20
107.262623
11
160.809061
21
107.722960
0
LINE
8
0
10
160.809000
20
107.723000
11
160.202448
21
107.985260
0
LINE
8
0
10
160.202448
20
107.985260
11
159.311750
21
108.072683
0
LINE
8
0
10
158.104000
20
105.018000
11
159.377000
21
105.018000
0
LINE
8
0
10
159.312000
20
108.072000
11
158.104000
21
108.072000
0
LINE
8
0
10
158.104000
20
108.072000
11
158.104000
21
105.018000
0
LINE
8
0
10
179.245000
20
103.718000
11
179.038718
21
102.498173
0
LINE
8
0
10
179.038718
20
102.498173
11
178.419871
21
101.570670
0
LINE
8
0
10
178.420000
20
101.570000
11
177.440516
21
100.983990
0
LINE
8
0
10
177.440516
20
100.983990
11
176.152290
21
100.788655
0
LINE
8
0
10
176.152000
20
100.789000
11
174.871966
21
100.985700
0
LINE
8
0
10
174.871966
20
100.985700
11
173.917060
21
101.575804
0
LINE
8
0
10
173.917000
20
101.576000
11
173.326851
21
102.510339
0
LINE
8
0
10
173.326851
20
102.510339
11
173.130135
21
103.739730
0
LINE
8
0
10
179.245000
20
108.887000
11
179.245000
21
103.718000
0
LINE
8
0
10
174.059000
20
103.674000
11
174.195608
21
102.790191
0
LINE
8
0
10
174.195608
20
102.790191
11
174.605435
21
102.138610
0
LINE
8
0
10
174.605000
20
102.139000
11
175.279856
21
101.737406
0
LINE
8
0
10
175.279856
20
101.737406
11
176.211540
21
101.603540
0
LINE
8
0
10
176.212000
20
101.603000
11
177.106788
21
101.736866
0
LINE
8
0
10
177.106788
20
101.736866
11
177.769340
21
102.138460
0
LINE
8
0
10
177.769000
20
102.139000
11
178.178833
21
102.796044
0
LINE
8
0
10
178.178833
20
102.796044
11
178.315446
21
103.685310
0
LINE
8
0
10
173.130000
20
103.739000
11
173.130000
21
108.887000
0
LINE
8
0
10
173.130000
20
108.887000
11
174.059000
21
108.887000
0
LINE
8
0
10
174.059000
20
108.887000
11
174.059000
21
103.674000
0
LINE
8
0
10
174.633000
20
110.356000
11
174.775076
21
110.765797
0
LINE
8
0
10
174.775000
20
110.766000
11
175.124721
21
110.891672
0
LINE
8
0
10
175.125000
20
110.892000
11
175.480182
21
110.766328
0
LINE
8
0
10
175.480000
20
110.766000
11
175.633008
21
110.356203
0
LINE
8
0
10
175.633000
20
110.356000
11
175.479992
21
109.946201
0
LINE
8
0
10
175.480000
20
109.947000
11
175.124818
21
109.815865
0
LINE
8
0
10
175.125000
20
109.815000
11
174.775279
21
109.946135
0
LINE
8
0
10
174.775000
20
109.947000
11
174.632924
21
110.356799
0
LINE
8
0
10
178.316000
20
103.685000
11
178.316000
21
108.887000
0
LINE
8
0
10
178.316000
20
108.887000
11
179.245000
21
108.887000
0
LINE
8
0
10
176.715000
20
110.356000
11
176.857076
21
110.765797
0
LINE
8
0
10
176.857000
20
110.766000
11
177.206721
21
110.891672
0
LINE
8
0
10
177.207000
20
110.892000
11
177.556723
21
110.766328
0
LINE
8
0
10
177.556000
20
110.766000
11
177.708998
21
110.356203
0
LINE
8
0
10
177.709000
20
110.356000
11
177.556002
21
109.946201
0
LINE
8
0
10
177.556000
20
109.947000
11
177.206277
21
109.815865
0
LINE
8
0
10
177.207000
20
109.815000
11
176.857279
21
109.946135
0
LINE
8
0
10
176.857000
20
109.947000
11
176.714924
21
110.356799
0
LINE
8
0
10
12.418200
20
84.907600
11
6.926490
21
84.907600
0
LINE
8
0
10
6.926490
20
84.907600
11
6.926490
21
85.634300
0
LINE
8
0
10
6.926490
20
85.634300
11
11.166850
21
92.059920
0
LINE
8
0
10
11.166850
20
92.059920
11
7.057640
21
92.059900
0
LINE
8
0
10
7.057640
20
92.059900
11
7.057640
21
92.895900
0
LINE
8
0
10
7.057640
20
92.895900
11
12.298000
21
92.895900
0
LINE
8
0
10
12.298000
20
92.895900
11
12.298000
21
92.169200
0
LINE
8
0
10
12.298000
20
92.169200
11
8.057640
21
85.749040
0
LINE
8
0
10
8.057640
20
85.749040
11
12.418200
21
85.749100
0
LINE
8
0
10
12.418200
20
85.749100
11
12.418200
21
84.907600
0
LINE
8
0
10
25.812900
20
87.727000
11
26.315623
21
85.994930
0
LINE
8
0
10
26.315700
20
85.994900
11
26.829351
21
87.759760
0
LINE
8
0
10
28.654400
20
92.895900
11
29.654400
21
92.895900
0
LINE
8
0
10
29.654400
20
92.895900
11
26.774670
21
84.907590
0
LINE
8
0
10
26.774670
20
84.907590
11
25.856600
21
84.907600
0
LINE
8
0
10
25.856600
20
84.907600
11
22.993300
21
92.895900
0
LINE
8
0
10
22.993300
20
92.895900
11
23.976900
21
92.895900
0
LINE
8
0
10
23.976900
20
92.895900
11
25.812930
21
87.726990
0
LINE
8
0
10
26.829300
20
87.759800
11
28.654400
21
92.895920
0
LINE
8
0
10
42.513600
20
84.907600
11
42.513600
21
92.895900
0
LINE
8
0
10
42.513600
20
92.895900
11
43.442600
21
92.895900
0
LINE
8
0
10
43.442600
20
92.895900
11
43.442600
21
84.907600
0
LINE
8
0
10
43.442600
20
84.907600
11
42.513600
21
84.907600
0
LINE
8
0
10
62.066700
20
84.907600
11
57.613200
21
84.907600
0
LINE
8
0
10
57.613200
20
84.907600
11
57.613200
21
92.895900
0
LINE
8
0
10
57.613200
20
92.895900
11
62.066700
21
92.895900
0
LINE
8
0
10
62.066700
20
92.895900
11
62.066700
21
92.070900
0
LINE
8
0
10
62.066700
20
92.070900
11
58.542200
21
92.070900
0
LINE
8
0
10
58.542200
20
92.070900
11
58.542200
21
89.497300
0
LINE
8
0
10
58.542200
20
89.497300
11
61.853600
21
89.497300
0
LINE
8
0
10
61.853600
20
89.497300
11
61.853600
21
88.677700
0
LINE
8
0
10
61.853600
20
88.677700
11
58.542200
21
88.677700
0
LINE
8
0
10
58.542200
20
88.677700
11
58.542200
21
85.738100
0
LINE
8
0
10
58.542200
20
85.738100
11
62.066700
21
85.738100
0
LINE
8
0
10
62.066700
20
85.738100
11
62.066700
21
84.907600
0
LINE
8
0
10
76.109000
20
92.895900
11
77.386301
21
92.755203
0
LINE
8
0
10
77.386301
20
92.755203
11
78.278360
21
92.333111
0
LINE
8
0
10
78.278300
20
92.333100
11
78.806982
21
91.628248
0
LINE
8
0
10
78.806982
20
91.628248
11
78.983210
21
90.639270
0
LINE
8
0
10
78.983300
20
90.639300
11
78.882891
21
89.911230
0
LINE
8
0
10
78.882891
20
89.911230
11
78.581666
21
89.311561
0
LINE
8
0
10
78.581666
20
89.311561
11
78.079626
21
88.840294
0
LINE
8
0
10
78.079626
20
88.840294
11
77.376770
21
88.497430
0
LINE
8
0
10
74.846700
20
88.229700
11
74.846700
21
84.907600
0
LINE
8
0
10
74.846700
20
84.907600
11
73.917800
21
84.907600
0
LINE
8
0
10
73.917800
20
84.907600
11
73.917800
21
92.895900
0
LINE
8
0
10
73.917800
20
92.895900
11
76.109000
21
92.895900
0
LINE
8
0
10
77.376700
20
88.497400
11
79.546060
21
84.907580
0
LINE
8
0
10
79.546060
20
84.907580
11
78.447700
21
84.907600
0
LINE
8
0
10
78.447700
20
84.907600
11
76.513310
21
88.229680
0
LINE
8
0
10
76.513310
20
88.229680
11
74.846700
21
88.229700
0
LINE
8
0
10
76.119900
20
89.027400
11
76.972343
21
89.124387
0
LINE
8
0
10
76.972343
20
89.124387
11
77.562500
21
89.415345
0
LINE
8
0
10
77.562500
20
89.415400
11
77.906757
21
89.905786
0
LINE
8
0
10
77.906757
20
89.905786
11
78.021509
21
90.590150
0
LINE
8
0
10
78.021500
20
90.590100
11
77.904015
21
91.271727
0
LINE
8
0
10
77.904015
20
91.271727
11
77.551561
21
91.732060
0
LINE
8
0
10
77.551600
20
91.732100
11
76.945055
21
91.994373
0
LINE
8
0
10
76.945055
20
91.994373
11
76.054360
21
92.081794
0
LINE
8
0
10
74.846700
20
89.027400
11
76.119900
21
89.027400
0
LINE
8
0
10
76.054300
20
92.081800
11
74.846700
21
92.081800
0
LINE
8
0
10
74.846700
20
92.081800
11
74.846700
21
89.027400
0
LINE
8
0
10
92.468100
20
84.907600
11
92.468100
21
92.895900
0
LINE
8
0
10
92.468100
20
92.895900
11
93.397100
21
92.895900
0
LINE
8
0
10
93.397100
20
92.895900
11
93.397100
21
84.907600
0
LINE
8
0
10
93.397100
20
84.907600
11
92.468100
21
84.907600
0
LINE
8
0
10
108.721000
20
84.907600
11
107.792000
21
84.907600
0
LINE
8
0
10
107.792000
20
84.907600
11
107.792000
21
92.895900
0
LINE
8
0
10
107.792000
20
92.895900
11
112.245000
21
92.895900
0
LINE
8
0
10
112.245000
20
92.895900
11
112.245000
21
92.070900
0
LINE
8
0
10
112.245000
20
92.070900
11
108.721000
21
92.070900
0
LINE
8
0
10
108.721000
20
92.070900
11
108.721000
21
89.147700
0
LINE
8
0
10
108.721000
20
89.147700
11
112.032000
21
89.147700
0
LINE
8
0
10
112.032000
20
89.147700
11
112.032000
21
88.322600
0
LINE
8
0
10
112.032000
20
88.322600
11
108.721000
21
88.322600
0
LINE
8
0
10
108.721000
20
88.322600
11
108.721000
21
84.907600
0
LINE
8
0
10
129.290000
20
87.727000
11
129.083719
21
86.507177
0
LINE
8
0
10
129.083719
20
86.507177
11
128.464882
21
85.579670
0
LINE
8
0
10
128.465000
20
85.579700
11
127.485507
21
84.993690
0
LINE
8
0
10
127.485507
20
84.993690
11
126.197280
21
84.798355
0
LINE
8
0
10
126.197000
20
84.798300
11
124.916969
21
84.995004
0
LINE
8
0
10
124.916969
20
84.995004
11
123.962070
21
85.585112
0
LINE
8
0
10
123.962000
20
85.585100
11
123.371843
21
86.519436
0
LINE
8
0
10
123.371843
20
86.519436
11
123.175125
21
87.748830
0
LINE
8
0
10
129.290000
20
92.895900
11
129.290000
21
87.727000
0
LINE
8
0
10
124.105000
20
87.683300
11
124.241612
21
86.799500
0
LINE
8
0
10
124.241612
20
86.799500
11
124.651438
21
86.147920
0
LINE
8
0
10
124.651000
20
86.147900
11
125.325853
21
85.746297
0
LINE
8
0
10
125.325853
20
85.746297
11
126.257530
21
85.612429
0
LINE
8
0
10
126.257000
20
85.612500
11
127.151794
21
85.746368
0
LINE
8
0
10
127.151794
20
85.746368
11
127.814350
21
86.147971
0
LINE
8
0
10
127.815000
20
86.147900
11
128.224826
21
86.804947
0
LINE
8
0
10
128.224826
20
86.804947
11
128.361438
21
87.694210
0
LINE
8
0
10
123.176000
20
87.748900
11
123.176000
21
92.895900
0
LINE
8
0
10
123.176000
20
92.895900
11
124.105000
21
92.895900
0
LINE
8
0
10
124.105000
20
92.895900
11
124.105000
21
87.683300
0
LINE
8
0
10
124.678000
20
94.365700
11
124.820065
21
94.775489
0
LINE
8
0
10
124.820000
20
94.775500
11
125.169721
21
94.901169
0
LINE
8
0
10
125.170000
20
94.901200
11
125.525189
21
94.775531
0
LINE
8
0
10
125.525000
20
94.775500
11
125.677998
21
94.365711
0
LINE
8
0
10
125.678000
20
94.365700
11
125.525002
21
93.955890
0
LINE
8
0
10
125.525000
20
93.955900
11
125.169811
21
93.824773
0
LINE
8
0
10
125.170000
20
93.824800
11
124.820279
21
93.955927
0
LINE
8
0
10
124.820000
20
93.955900
11
124.677935
21
94.365710
0
LINE
8
0
10
128.361000
20
87.694200
11
128.361000
21
92.895900
0
LINE
8
0
10
128.361000
20
92.895900
11
129.290000
21
92.895900
0
LINE
8
0
10
126.760000
20
94.365700
11
126.902073
21
94.775489
0
LINE
8
0
10
126.902000
20
94.775500
11
127.251723
21
94.901169
0
LINE
8
0
10
127.252000
20
94.901200
11
127.601721
21
94.775531
0
LINE
8
0
10
127.602000
20
94.775500
11
127.755008
21
94.365711
0
LINE
8
0
10
127.755000
20
94.365700
11
127.601992
21
93.955890
0
LINE
8
0
10
127.602000
20
93.955900
11
127.252279
21
93.824773
0
LINE
8
0
10
127.252000
20
93.824800
11
126.902277
21
93.955927
0
LINE
8
0
10
126.902000
20
93.955900
11
126.759927
21
94.365710
0
LINE
8
0
10
142.024000
20
84.907600
11
141.095000
21
84.907600
0
LINE
8
0
10
141.095000
20
84.907600
11
141.095000
21
92.895900
0
LINE
8
0
10
141.095000
20
92.895900
11
145.548000
21
92.895900
0
LINE
8
0
10
145.548000
20
92.895900
11
145.548000
21
92.070900
0
LINE
8
0
10
145.548000
20
92.070900
11
142.024000
21
92.070900
0
LINE
8
0
10
142.024000
20
92.070900
11
142.024000
21
89.147700
0
LINE
8
0
10
142.024000
20
89.147700
11
145.335000
21
89.147700
0
LINE
8
0
10
145.335000
20
89.147700
11
145.335000
21
88.322600
0
LINE
8
0
10
145.335000
20
88.322600
11
142.024000
21
88.322600
0
LINE
8
0
10
142.024000
20
88.322600
11
142.024000
21
84.907600
0
LINE
8
0
10
159.074000
20
84.907600
11
159.074000
21
92.895900
0
LINE
8
0
10
159.074000
20
92.895900
11
160.003000
21
92.895900
0
LINE
8
0
10
160.003000
20
92.895900
11
160.003000
21
84.907600
0
LINE
8
0
10
160.003000
20
84.907600
11
159.074000
21
84.907600
0
LINE
8
0
10
12.207800
20
71.042500
11
12.016547
21
70.104072
0
LINE
8
0
10
12.016547
20
70.104072
11
11.442786
21
69.397850
0
LINE
8
0
10
11.442800
20
69.397800
11
10.541178
21
68.955221
0
LINE
8
0
10
10.541178
20
68.955221
11
9.366330
21
68.807693
0
LINE
8
0
10
9.366340
20
68.807700
11
8.109534
21
68.899220
0
LINE
8
0
10
8.109534
20
68.899220
11
7.180590
21
69.173782
0
LINE
8
0
10
176.649000
20
84.907600
11
175.720000
21
84.907600
0
LINE
8
0
10
175.720000
20
84.907600
11
175.720000
21
92.070900
0
LINE
8
0
10
175.720000
20
92.070900
11
173.190000
21
92.070900
0
LINE
8
0
10
173.190000
20
92.070900
11
173.190000
21
92.895900
0
LINE
8
0
10
173.190000
20
92.895900
11
179.179000
21
92.895900
0
LINE
8
0
10
179.179000
20
92.895900
11
179.179000
21
92.070900
0
LINE
8
0
10
179.179000
20
92.070900
11
176.649000
21
92.070900
0
LINE
8
0
10
176.649000
20
92.070900
11
176.649000
21
84.907600
0
LINE
8
0
10
7.180590
20
70.069900
11
8.251610
21
69.742068
0
LINE
8
0
10
8.251610
20
69.742100
11
9.399130
21
69.621895
0
LINE
8
0
10
9.399130
20
69.621900
11
10.213323
21
69.709323
0
LINE
8
0
10
10.213323
20
69.709323
11
10.798010
21
69.971583
0
LINE
8
0
10
10.798000
20
69.971600
11
11.150454
21
70.395065
0
LINE
8
0
10
11.150454
20
70.395065
11
11.267938
21
70.955119
0
LINE
8
0
10
11.267900
20
70.955100
11
11.098504
21
71.632639
0
LINE
8
0
10
11.098600
20
71.632600
11
10.541232
21
72.124354
0
LINE
8
0
10
10.541200
20
72.124400
11
9.355430
21
72.632550
0
LINE
8
0
10
9.355410
20
72.632500
11
8.399144
21
73.068247
0
LINE
8
0
10
8.399144
20
73.068247
11
7.759810
21
73.577760
0
LINE
8
0
10
7.759810
20
73.577800
11
7.403259
21
74.207521
0
LINE
8
0
10
7.403259
20
74.207521
11
7.284409
21
75.003890
0
LINE
8
0
10
7.284410
20
75.003900
11
7.457904
21
75.833060
0
LINE
8
0
10
7.457904
20
75.833060
11
7.978387
21
76.473710
0
LINE
8
0
10
7.978390
20
76.473700
11
8.784385
21
76.883503
0
LINE
8
0
10
8.784385
20
76.883503
11
9.814420
21
77.020101
0
LINE
8
0
10
9.814420
20
77.020100
11
10.957841
21
76.910818
0
LINE
8
0
10
10.957841
20
76.910818
11
12.005640
21
76.582982
0
LINE
8
0
10
7.180590
20
69.173800
11
7.180590
21
70.069900
0
LINE
8
0
10
11.716000
20
75.774300
11
10.740609
21
76.085744
0
LINE
8
0
10
10.740609
20
76.085744
11
9.792540
21
76.189563
0
LINE
8
0
10
9.792560
20
76.189600
11
9.135467
21
76.110368
0
LINE
8
0
10
9.135467
20
76.110368
11
8.639570
21
75.872680
0
LINE
8
0
10
8.639580
20
75.872600
11
8.328110
21
75.494225
0
LINE
8
0
10
8.328110
20
75.494225
11
8.224287
21
74.992909
0
LINE
8
0
10
8.224280
20
74.992900
11
8.377283
21
74.309898
0
LINE
8
0
10
8.377290
20
74.309900
11
8.890942
21
73.823612
0
LINE
8
0
10
8.890940
20
73.823600
11
10.005680
21
73.337310
0
LINE
8
0
10
10.005700
20
73.337400
11
11.065789
21
72.872966
0
LINE
8
0
10
11.065789
20
72.872966
11
11.732450
21
72.375747
0
LINE
8
0
10
11.732400
20
72.375700
11
12.088952
21
71.785587
0
LINE
8
0
10
12.088952
20
71.785587
11
12.207802
21
71.042480
0
LINE
8
0
10
12.005600
20
76.583000
11
11.715987
21
75.774336
0
LINE
8
0
10
28.903000
20
68.917000
11
27.908480
21
71.457750
0
LINE
8
0
10
27.908480
20
71.457750
11
24.706400
21
71.457800
0
LINE
8
0
10
24.706400
20
71.457800
11
23.722811
21
68.917050
0
LINE
8
0
10
23.722811
20
68.917050
11
22.782900
21
68.917000
0
LINE
8
0
10
22.782900
20
68.917000
11
25.941300
21
76.938100
0
LINE
8
0
10
25.941300
20
76.938100
11
26.722800
21
76.938100
0
LINE
8
0
10
26.722800
20
76.938100
11
29.864820
21
68.917000
0
LINE
8
0
10
29.864820
20
68.917000
11
28.903000
21
68.917000
0
LINE
8
0
10
26.690000
20
74.768900
11
26.318421
21
75.921790
0
LINE
8
0
10
26.318400
20
75.921800
11
25.974143
21
74.768910
0
LINE
8
0
10
27.618900
20
72.293700
11
26.689957
21
74.768870
0
LINE
8
0
10
24.772000
20
78.375100
11
24.914074
21
78.784907
0
LINE
8
0
10
24.914000
20
78.784900
11
25.263721
21
78.910564
0
LINE
8
0
10
25.263800
20
78.910600
11
25.618985
21
78.784936
0
LINE
8
0
10
25.618900
20
78.784900
11
25.771903
21
78.375093
0
LINE
8
0
10
25.772000
20
78.375100
11
25.618997
21
77.965311
0
LINE
8
0
10
25.618900
20
77.965300
11
25.263715
21
77.834162
0
LINE
8
0
10
25.263800
20
77.834200
11
24.914079
21
77.965338
0
LINE
8
0
10
24.914000
20
77.965300
11
24.771926
21
78.375089
0
LINE
8
0
10
25.974100
20
74.768900
11
25.034226
21
72.293730
0
LINE
8
0
10
25.034226
20
72.293730
11
27.618900
21
72.293700
0
LINE
8
0
10
26.853900
20
78.375100
11
26.995973
21
78.784907
0
LINE
8
0
10
26.996000
20
78.784900
11
27.345723
21
78.910564
0
LINE
8
0
10
27.345700
20
78.910600
11
27.695418
21
78.784936
0
LINE
8
0
10
27.695400
20
78.784900
11
27.848403
21
78.375093
0
LINE
8
0
10
27.848400
20
78.375100
11
27.695397
21
77.965311
0
LINE
8
0
10
27.695400
20
77.965300
11
27.345682
21
77.834162
0
LINE
8
0
10
27.345700
20
77.834200
11
26.995977
21
77.965338
0
LINE
8
0
10
26.996000
20
77.965300
11
26.853927
21
78.375089
0
LINE
8
0
10
43.964400
20
76.189600
11
42.785459
21
75.969671
0
LINE
8
0
10
42.785459
20
75.969671
11
41.882470
21
75.309891
0
LINE
8
0
10
41.882500
20
75.309800
11
41.312839
21
74.273021
0
LINE
8
0
10
41.312839
20
74.273021
11
41.122951
21
72.911120
0
LINE
8
0
10
41.122900
20
72.911200
11
41.305957
21
71.520626
0
LINE
8
0
10
41.305957
20
71.520626
11
41.855131
21
70.485200
0
LINE
8
0
10
41.855200
20
70.485200
11
42.748624
21
69.845915
0
LINE
8
0
10
42.748624
20
69.845915
11
43.953520
21
69.632819
0
LINE
8
0
10
43.953500
20
69.632800
11
45.860570
21
69.933324
0
LINE
8
0
10
45.860600
20
69.119200
11
44.933020
21
68.885610
0
LINE
8
0
10
44.933020
20
68.885610
11
43.811450
21
68.807746
0
LINE
8
0
10
43.811400
20
68.807700
11
42.247222
21
69.075435
0
LINE
8
0
10
42.247222
20
69.075435
11
41.615743
21
69.410104
0
LINE
8
0
10
41.615743
20
69.410104
11
41.084670
21
69.878640
0
LINE
8
0
10
41.084700
20
69.878700
11
40.666334
21
70.470515
0
LINE
8
0
10
40.666334
20
70.470515
11
40.367501
21
71.175023
0
LINE
8
0
10
40.367501
20
71.175023
11
40.128434
21
72.922120
0
LINE
8
0
10
40.128400
20
72.922100
11
40.243152
21
74.080463
0
LINE
8
0
10
40.243152
20
74.080463
11
40.587407
21
75.085830
0
LINE
8
0
10
40.587400
20
75.085800
11
41.152966
21
75.908124
0
LINE
8
0
10
41.152966
20
75.908124
11
41.920710
21
76.517360
0
LINE
8
0
10
41.920700
20
76.517400
11
42.871504
21
76.894414
0
LINE
8
0
10
42.871504
20
76.894414
11
43.975310
21
77.020084
0
LINE
8
0
10
43.975300
20
77.020100
11
45.152876
21
76.905353
0
LINE
8
0
10
45.152876
20
76.905353
11
46.171980
21
76.561120
0
LINE
8
0
10
45.860600
20
69.933300
11
45.860600
21
69.119200
0
LINE
8
0
10
45.778600
20
75.763400
11
44.871512
21
76.083046
0
LINE
8
0
10
44.871512
20
76.083046
11
43.964430
21
76.189596
0
LINE
8
0
10
46.172000
20
76.561100
11
45.778565
21
75.763366
0
LINE
8
0
10
78.813800
20
71.042500
11
78.622548
21
70.104072
0
LINE
8
0
10
78.622548
20
70.104072
11
78.048790
21
69.397850
0
LINE
8
0
10
78.048800
20
69.397800
11
77.147177
21
68.955221
0
LINE
8
0
10
77.147177
20
68.955221
11
75.972330
21
68.807693
0
LINE
8
0
10
75.972400
20
68.807700
11
74.715593
21
68.899220
0
LINE
8
0
10
74.715593
20
68.899220
11
73.786650
21
69.173782
0
LINE
8
0
10
62.662300
20
68.917000
11
61.733400
21
68.917000
0
LINE
8
0
10
61.733400
20
68.917000
11
61.733400
21
72.676200
0
LINE
8
0
10
61.733400
20
72.676200
11
57.525800
21
72.676200
0
LINE
8
0
10
57.525800
20
72.676200
11
57.525800
21
68.917000
0
LINE
8
0
10
57.525800
20
68.917000
11
56.596900
21
68.917000
0
LINE
8
0
10
56.596900
20
68.917000
11
56.596900
21
76.905300
0
LINE
8
0
10
56.596900
20
76.905300
11
57.525800
21
76.905300
0
LINE
8
0
10
57.525800
20
76.905300
11
57.525800
21
73.506700
0
LINE
8
0
10
57.525800
20
73.506700
11
61.733400
21
73.506700
0
LINE
8
0
10
61.733400
20
73.506700
11
61.733400
21
76.905300
0
LINE
8
0
10
61.733400
20
76.905300
11
62.662300
21
76.905300
0
LINE
8
0
10
62.662300
20
76.905300
11
62.662300
21
68.917000
0
LINE
8
0
10
73.786600
20
70.069900
11
74.857620
21
69.742068
0
LINE
8
0
10
74.857600
20
69.742100
11
76.005120
21
69.621895
0
LINE
8
0
10
76.005200
20
69.621900
11
76.819392
21
69.709323
0
LINE
8
0
10
76.819392
20
69.709323
11
77.404080
21
69.971583
0
LINE
8
0
10
77.404000
20
69.971600
11
77.756452
21
70.395065
0
LINE
8
0
10
77.756452
20
70.395065
11
77.873936
21
70.955119
0
LINE
8
0
10
77.874000
20
70.955100
11
77.704603
21
71.632639
0
LINE
8
0
10
77.704600
20
71.632600
11
77.147232
21
72.124354
0
LINE
8
0
10
77.147200
20
72.124400
11
75.961430
21
72.632550
0
LINE
8
0
10
75.961400
20
72.632500
11
75.005129
21
73.068247
0
LINE
8
0
10
75.005129
20
73.068247
11
74.365800
21
73.577760
0
LINE
8
0
10
74.365800
20
73.577800
11
74.009249
21
74.207521
0
LINE
8
0
10
74.009249
20
74.207521
11
73.890397
21
75.003890
0
LINE
8
0
10
73.890400
20
75.003900
11
74.063896
21
75.833060
0
LINE
8
0
10
74.063896
20
75.833060
11
74.584380
21
76.473710
0
LINE
8
0
10
74.584400
20
76.473700
11
75.390395
21
76.883503
0
LINE
8
0
10
75.390395
20
76.883503
11
76.420430
21
77.020101
0
LINE
8
0
10
76.420400
20
77.020100
11
77.563822
21
76.910818
0
LINE
8
0
10
77.563822
20
76.910818
11
78.611620
21
76.582982
0
LINE
8
0
10
73.786600
20
69.173800
11
73.786600
21
70.069900
0
LINE
8
0
10
78.322100
20
75.774300
11
77.346709
21
76.085744
0
LINE
8
0
10
77.346709
20
76.085744
11
76.398640
21
76.189563
0
LINE
8
0
10
76.398600
20
76.189600
11
75.741505
21
76.110368
0
LINE
8
0
10
75.741505
20
76.110368
11
75.245610
21
75.872680
0
LINE
8
0
10
75.245600
20
75.872600
11
74.934128
21
75.494225
0
LINE
8
0
10
74.934128
20
75.494225
11
74.830303
21
74.992909
0
LINE
8
0
10
74.830300
20
74.992900
11
74.983306
21
74.309898
0
LINE
8
0
10
74.983300
20
74.309900
11
75.496951
21
73.823612
0
LINE
8
0
10
75.497000
20
73.823600
11
76.611740
21
73.337310
0
LINE
8
0
10
76.611700
20
73.337400
11
77.671794
21
72.872966
0
LINE
8
0
10
77.671794
20
72.872966
11
78.338450
21
72.375747
0
LINE
8
0
10
78.338400
20
72.375700
11
78.694950
21
71.785587
0
LINE
8
0
10
78.694950
20
71.785587
11
78.813800
21
71.042480
0
LINE
8
0
10
78.611700
20
76.583000
11
78.322087
21
75.774336
0
LINE
8
0
10
112.117000
20
71.042500
11
111.925748
21
70.104072
0
LINE
8
0
10
111.925748
20
70.104072
11
111.351985
21
69.397850
0
LINE
8
0
10
111.352000
20
69.397800
11
110.450378
21
68.955221
0
LINE
8
0
10
110.450378
20
68.955221
11
109.275530
21
68.807693
0
LINE
8
0
10
109.275000
20
68.807700
11
108.018194
21
68.899220
0
LINE
8
0
10
108.018194
20
68.899220
11
107.089250
21
69.173782
0
LINE
8
0
10
92.468100
20
68.917000
11
92.468100
21
76.905300
0
LINE
8
0
10
92.468100
20
76.905300
11
93.397100
21
76.905300
0
LINE
8
0
10
93.397100
20
76.905300
11
93.397100
21
68.917000
0
LINE
8
0
10
93.397100
20
68.917000
11
92.468100
21
68.917000
0
LINE
8
0
10
107.090000
20
70.069900
11
108.161020
21
69.742068
0
LINE
8
0
10
108.161000
20
69.742100
11
109.308520
21
69.621895
0
LINE
8
0
10
109.308000
20
69.621900
11
110.122192
21
69.709323
0
LINE
8
0
10
110.122192
20
69.709323
11
110.706880
21
69.971583
0
LINE
8
0
10
110.707000
20
69.971600
11
111.059452
21
70.395065
0
LINE
8
0
10
111.059452
20
70.395065
11
111.176936
21
70.955119
0
LINE
8
0
10
111.177000
20
70.955100
11
111.007601
21
71.632639
0
LINE
8
0
10
111.008000
20
71.632600
11
110.450640
21
72.124354
0
LINE
8
0
10
110.450000
20
72.124400
11
109.264230
21
72.632550
0
LINE
8
0
10
109.264000
20
72.632500
11
108.307728
21
73.068247
0
LINE
8
0
10
108.307728
20
73.068247
11
107.668400
21
73.577760
0
LINE
8
0
10
107.669000
20
73.577800
11
107.312450
21
74.207521
0
LINE
8
0
10
107.312450
20
74.207521
11
107.193597
21
75.003890
0
LINE
8
0
10
107.193000
20
75.003900
11
107.366494
21
75.833060
0
LINE
8
0
10
107.366494
20
75.833060
11
107.886975
21
76.473710
0
LINE
8
0
10
107.887000
20
76.473700
11
108.692996
21
76.883503
0
LINE
8
0
10
108.692996
20
76.883503
11
109.723030
21
77.020101
0
LINE
8
0
10
109.723000
20
77.020100
11
110.866428
21
76.910818
0
LINE
8
0
10
110.866428
20
76.910818
11
111.914220
21
76.582982
0
LINE
8
0
10
107.090000
20
69.173800
11
107.090000
21
70.069900
0
LINE
8
0
10
111.625000
20
75.774300
11
110.649609
21
76.085744
0
LINE
8
0
10
110.649609
20
76.085744
11
109.701530
21
76.189563
0
LINE
8
0
10
109.702000
20
76.189600
11
109.044912
21
76.110368
0
LINE
8
0
10
109.044912
20
76.110368
11
108.549020
21
75.872680
0
LINE
8
0
10
108.549000
20
75.872600
11
108.237529
21
75.494225
0
LINE
8
0
10
108.237529
20
75.494225
11
108.133703
21
74.992909
0
LINE
8
0
10
108.133000
20
74.992900
11
108.286006
21
74.309898
0
LINE
8
0
10
108.286000
20
74.309900
11
108.799656
21
73.823612
0
LINE
8
0
10
108.800000
20
73.823600
11
109.914730
21
73.337310
0
LINE
8
0
10
109.915000
20
73.337400
11
110.975087
21
72.872966
0
LINE
8
0
10
110.975087
20
72.872966
11
111.641740
21
72.375747
0
LINE
8
0
10
111.641000
20
72.375700
11
111.997554
21
71.785587
0
LINE
8
0
10
111.997554
20
71.785587
11
112.116403
21
71.042480
0
LINE
8
0
10
111.915000
20
76.583000
11
111.625385
21
75.774336
0
LINE
8
0
10
125.771000
20
68.917000
11
125.771000
21
76.905300
0
LINE
8
0
10
125.771000
20
76.905300
11
126.700000
21
76.905300
0
LINE
8
0
10
126.700000
20
76.905300
11
126.700000
21
68.917000
0
LINE
8
0
10
126.700000
20
68.917000
11
125.771000
21
68.917000
0
LINE
8
0
10
142.614000
20
76.905300
11
143.984195
21
76.786459
0
LINE
8
0
10
143.984195
20
76.786459
11
144.914500
21
76.429942
0
LINE
8
0
10
144.914000
20
76.430000
11
145.446778
21
75.816669
0
LINE
8
0
10
145.446778
20
75.816669
11
145.624368
21
74.927410
0
LINE
8
0
10
145.625000
20
74.927400
11
145.525279
21
74.278559
0
LINE
8
0
10
145.525279
20
74.278559
11
145.226104
21
73.752640
0
LINE
8
0
10
145.226000
20
73.752600
11
144.741040
21
73.374227
0
LINE
8
0
10
144.741040
20
73.374227
11
144.073020
21
73.157037
0
LINE
8
0
10
140.357000
20
76.905300
11
142.614000
21
76.905300
0
LINE
8
0
10
144.073000
20
73.102400
11
144.869090
21
72.866090
0
LINE
8
0
10
144.869090
20
72.866090
11
145.437724
21
72.468589
0
LINE
8
0
10
145.437724
20
72.468589
11
145.778904
21
71.909898
0
LINE
8
0
10
145.778904
20
71.909898
11
145.892630
21
71.190020
0
LINE
8
0
10
145.893000
20
71.190000
11
145.711313
21
70.236539
0
LINE
8
0
10
145.711313
20
70.236539
11
145.166241
21
69.518030
0
LINE
8
0
10
145.166000
20
69.518100
11
144.299896
21
69.067311
0
LINE
8
0
10
144.299896
20
69.067311
11
143.144180
21
68.917052
0
LINE
8
0
10
144.073000
20
73.157100
11
144.073000
21
73.102400
0
LINE
8
0
10
143.144000
20
68.917000
11
140.357000
21
68.917000
0
LINE
8
0
10
140.357000
20
68.917000
11
140.357000
21
76.905300
0
LINE
8
0
10
142.816000
20
73.484900
11
143.661613
21
73.561397
0
LINE
8
0
10
143.661613
20
73.561397
11
144.231280
21
73.790880
0
LINE
8
0
10
144.231000
20
73.790900
11
144.554767
21
74.207530
0
LINE
8
0
10
144.554767
20
74.207530
11
144.662688
21
74.834520
0
LINE
8
0
10
144.663000
20
74.834500
11
144.542781
21
75.412315
0
LINE
8
0
10
144.542781
20
75.412315
11
144.182126
21
75.801622
0
LINE
8
0
10
144.182000
20
75.801600
11
143.559062
21
76.026990
0
LINE
8
0
10
143.559062
20
76.026990
11
142.651970
21
76.102124
0
LINE
8
0
10
141.286000
20
73.484900
11
142.816000
21
73.484900
0
LINE
8
0
10
142.652000
20
76.102100
11
141.286000
21
76.102100
0
LINE
8
0
10
141.286000
20
76.102100
11
141.286000
21
73.484900
0
LINE
8
0
10
142.953000
20
69.709300
11
143.799975
21
69.802189
0
LINE
8
0
10
143.799975
20
69.802189
11
144.406520
21
70.080857
0
LINE
8
0
10
144.406000
20
70.080800
11
144.774847
21
70.562995
0
LINE
8
0
10
144.774847
20
70.562995
11
144.897796
21
71.255550
0
LINE
8
0
10
144.898000
20
71.255600
11
144.772322
21
71.900345
0
LINE
8
0
10
144.772322
20
71.900345
11
144.395279
21
72.348390
0
LINE
8
0
10
144.395000
20
72.348400
11
143.766595
21
72.610663
0
LINE
8
0
10
143.766595
20
72.610663
11
142.875900
21
72.698086
0
LINE
8
0
10
141.286000
20
72.698100
11
141.286000
21
69.709300
0
LINE
8
0
10
141.286000
20
69.709300
11
142.953000
21
69.709300
0
LINE
8
0
10
142.876000
20
72.698100
11
141.286000
21
72.698100
0
LINE
8
0
10
157.186000
20
75.621300
11
157.273432
21
73.457570
0
LINE
8
0
10
162.656000
20
68.917000
11
161.596000
21
68.917000
0
LINE
8
0
10
161.596000
20
68.917000
11
157.229950
21
75.621290
0
LINE
8
0
10
157.229950
20
75.621290
11
157.186000
21
75.621300
0
LINE
8
0
10
161.864000
20
70.228400
11
161.814814
21
71.173668
0
LINE
8
0
10
161.815000
20
71.173600
11
161.787687
21
72.321030
0
LINE
8
0
10
157.274000
20
73.457600
11
157.274000
21
68.917000
0
LINE
8
0
10
157.274000
20
68.917000
11
156.416000
21
68.917000
0
LINE
8
0
10
156.416000
20
68.917000
11
156.416000
21
76.905300
0
LINE
8
0
10
156.416000
20
76.905300
11
157.465000
21
76.905300
0
LINE
8
0
10
157.465000
20
76.905300
11
161.820110
21
70.228340
0
LINE
8
0
10
161.820110
20
70.228340
11
161.864000
21
70.228400
0
LINE
8
0
10
161.787000
20
72.321100
11
161.787000
21
76.905300
0
LINE
8
0
10
161.787000
20
76.905300
11
162.656000
21
76.905300
0
LINE
8
0
10
162.656000
20
76.905300
11
162.656000
21
68.917000
0
LINE
8
0
10
175.726000
20
68.917000
11
175.726000
21
76.905300
0
LINE
8
0
10
175.726000
20
76.905300
11
176.655000
21
76.905300
0
LINE
8
0
10
176.655000
20
76.905300
11
176.655000
21
68.917000
0
LINE
8
0
10
176.655000
20
68.917000
11
175.726000
21
68.917000
0
LINE
8
0
10
12.251500
20
52.926400
11
11.256981
21
55.467150
0
LINE
8
0
10
11.256981
20
55.467150
11
8.054890
21
55.467200
0
LINE
8
0
10
8.054890
20
55.467200
11
7.071301
21
52.926450
0
LINE
8
0
10
7.071301
20
52.926450
11
6.131430
21
52.926400
0
LINE
8
0
10
6.131430
20
52.926400
11
9.289840
21
60.947500
0
LINE
8
0
10
9.289840
20
60.947500
11
10.071200
21
60.947500
0
LINE
8
0
10
10.071200
20
60.947500
11
13.213220
21
52.926400
0
LINE
8
0
10
13.213220
20
52.926400
11
12.251500
21
52.926400
0
LINE
8
0
10
10.038500
20
58.778300
11
9.666922
21
59.931200
0
LINE
8
0
10
9.666880
20
59.931200
11
9.322624
21
58.778300
0
LINE
8
0
10
10.967400
20
56.303100
11
10.038454
21
58.778280
0
LINE
8
0
10
27.312900
20
60.199000
11
26.133959
21
59.979077
0
LINE
8
0
10
26.133959
20
59.979077
11
25.230970
21
59.319301
0
LINE
8
0
10
25.231000
20
59.319300
11
24.661338
21
58.282518
0
LINE
8
0
10
24.661338
20
58.282518
11
24.471450
21
56.920620
0
LINE
8
0
10
24.471400
20
56.920600
11
24.654457
21
55.530019
0
LINE
8
0
10
24.654457
20
55.530019
11
25.203628
21
54.494600
0
LINE
8
0
10
25.203700
20
54.494600
11
26.097128
21
53.855315
0
LINE
8
0
10
26.097128
20
53.855315
11
27.302020
21
53.642219
0
LINE
8
0
10
27.302000
20
53.642200
11
29.209070
21
53.942713
0
LINE
8
0
10
9.322630
20
58.778300
11
8.382756
21
56.303120
0
LINE
8
0
10
8.382756
20
56.303120
11
10.967400
21
56.303100
0
LINE
8
0
10
29.209000
20
53.128600
11
28.281422
21
52.895008
0
LINE
8
0
10
28.281422
20
52.895008
11
27.159860
21
52.817143
0
LINE
8
0
10
27.159900
20
52.817100
11
25.595723
21
53.084838
0
LINE
8
0
10
25.595723
20
53.084838
11
24.964243
21
53.419508
0
LINE
8
0
10
24.964243
20
53.419508
11
24.433170
21
53.888040
0
LINE
8
0
10
24.433200
20
53.888100
11
24.014833
21
54.479915
0
LINE
8
0
10
24.014833
20
54.479915
11
23.715999
21
55.184423
0
LINE
8
0
10
23.715999
20
55.184423
11
23.476933
21
56.931520
0
LINE
8
0
10
23.476900
20
56.931500
11
23.591652
21
58.089867
0
LINE
8
0
10
23.591652
20
58.089867
11
23.935908
21
59.095230
0
LINE
8
0
10
23.935900
20
59.095200
11
24.501464
21
59.917530
0
LINE
8
0
10
24.501464
20
59.917530
11
25.269210
21
60.526760
0
LINE
8
0
10
25.269200
20
60.526800
11
26.220004
21
60.903819
0
LINE
8
0
10
26.220004
20
60.903819
11
27.323810
21
61.029494
0
LINE
8
0
10
27.323800
20
61.029500
11
28.501375
21
60.914753
0
LINE
8
0
10
28.501375
20
60.914753
11
29.520480
21
60.570520
0
LINE
8
0
10
29.209000
20
53.942700
11
29.209000
21
53.128600
0
LINE
8
0
10
29.127100
20
59.772800
11
28.220011
21
60.092436
0
LINE
8
0
10
28.220011
20
60.092436
11
27.312920
21
60.198985
0
LINE
8
0
10
29.520500
20
60.570500
11
29.127065
21
59.772766
0
LINE
8
0
10
46.010800
20
52.926400
11
45.081900
21
52.926400
0
LINE
8
0
10
45.081900
20
52.926400
11
45.081900
21
56.685600
0
LINE
8
0
10
45.081900
20
56.685600
11
40.874300
21
56.685600
0
LINE
8
0
10
40.874300
20
56.685600
11
40.874300
21
52.926400
0
LINE
8
0
10
40.874300
20
52.926400
11
39.945400
21
52.926400
0
LINE
8
0
10
39.945400
20
52.926400
11
39.945400
21
60.914700
0
LINE
8
0
10
39.945400
20
60.914700
11
40.874300
21
60.914700
0
LINE
8
0
10
40.874300
20
60.914700
11
40.874300
21
57.516100
0
LINE
8
0
10
40.874300
20
57.516100
11
45.081900
21
57.516100
0
LINE
8
0
10
45.081900
20
57.516100
11
45.081900
21
60.914700
0
LINE
8
0
10
45.081900
20
60.914700
11
46.010800
21
60.914700
0
LINE
8
0
10
46.010800
20
60.914700
11
46.010800
21
52.926400
0
LINE
8
0
10
60.088600
20
52.926400
11
59.159700
21
52.926400
0
LINE
8
0
10
59.159700
20
52.926400
11
59.159700
21
60.089700
0
LINE
8
0
10
59.159700
20
60.089700
11
56.629700
21
60.089700
0
LINE
8
0
10
56.629700
20
60.089700
11
56.629700
21
60.914700
0
LINE
8
0
10
56.629700
20
60.914700
11
62.618600
21
60.914700
0
LINE
8
0
10
62.618600
20
60.914700
11
62.618600
21
60.089700
0
LINE
8
0
10
62.618600
20
60.089700
11
60.088600
21
60.089700
0
LINE
8
0
10
60.088600
20
60.089700
11
60.088600
21
52.926400
0
LINE
8
0
10
75.816600
20
52.926400
11
75.816600
21
60.914700
0
LINE
8
0
10
75.816600
20
60.914700
11
76.745600
21
60.914700
0
LINE
8
0
10
76.745600
20
60.914700
11
76.745600
21
52.926400
0
LINE
8
0
10
76.745600
20
52.926400
11
75.816600
21
52.926400
0
LINE
8
0
10
90.580200
20
59.630700
11
90.667629
21
57.466970
0
LINE
8
0
10
96.050100
20
52.926400
11
94.990000
21
52.926400
0
LINE
8
0
10
94.990000
20
52.926400
11
90.623960
21
59.630690
0
LINE
8
0
10
90.623960
20
59.630690
11
90.580200
21
59.630700
0
LINE
8
0
10
95.257700
20
54.237800
11
95.208517
21
55.183057
0
LINE
8
0
10
95.208500
20
55.183000
11
95.181185
21
56.330440
0
LINE
8
0
10
90.667600
20
57.467000
11
90.667600
21
52.926400
0
LINE
8
0
10
90.667600
20
52.926400
11
89.809700
21
52.926400
0
LINE
8
0
10
89.809700
20
52.926400
11
89.809700
21
60.914700
0
LINE
8
0
10
89.809700
20
60.914700
11
90.858900
21
60.914700
0
LINE
8
0
10
90.858900
20
60.914700
11
95.214020
21
54.237740
0
LINE
8
0
10
95.214020
20
54.237740
11
95.257700
21
54.237800
0
LINE
8
0
10
95.181200
20
56.330500
11
95.181200
21
60.914700
0
LINE
8
0
10
95.181200
20
60.914700
11
96.050100
21
60.914700
0
LINE
8
0
10
96.050100
20
60.914700
11
96.050100
21
52.926400
0
LINE
8
0
10
112.639000
20
55.745800
11
112.432719
21
54.525973
0
LINE
8
0
10
112.432719
20
54.525973
11
111.813882
21
53.598460
0
LINE
8
0
10
111.814000
20
53.598500
11
110.834507
21
53.012489
0
LINE
8
0
10
110.834507
20
53.012489
11
109.546280
21
52.817152
0
LINE
8
0
10
109.546000
20
52.817100
11
108.265969
21
53.013809
0
LINE
8
0
10
108.265969
20
53.013809
11
107.311070
21
53.603922
0
LINE
8
0
10
107.311000
20
53.604000
11
106.720843
21
54.538332
0
LINE
8
0
10
106.720843
20
54.538332
11
106.524125
21
55.767730
0
LINE
8
0
10
112.639000
20
60.914700
11
112.639000
21
55.745800
0
LINE
8
0
10
107.453000
20
55.702100
11
107.589608
21
54.818309
0
LINE
8
0
10
107.589608
20
54.818309
11
107.999438
21
54.166740
0
LINE
8
0
10
107.999000
20
54.166700
11
108.673848
21
53.765089
0
LINE
8
0
10
108.673848
20
53.765089
11
109.605520
21
53.631221
0
LINE
8
0
10
109.606000
20
53.631300
11
110.500797
21
53.765168
0
LINE
8
0
10
110.500797
20
53.765168
11
111.163350
21
54.166779
0
LINE
8
0
10
111.163000
20
54.166700
11
111.572829
21
54.823736
0
LINE
8
0
10
111.572829
20
54.823736
11
111.709438
21
55.712990
0
LINE
8
0
10
106.524000
20
55.767700
11
106.524000
21
60.914700
0
LINE
8
0
10
106.524000
20
60.914700
11
107.453000
21
60.914700
0
LINE
8
0
10
107.453000
20
60.914700
11
107.453000
21
55.702100
0
LINE
8
0
10
108.027000
20
62.384500
11
108.169065
21
62.794307
0
LINE
8
0
10
108.169000
20
62.794300
11
108.518721
21
62.919961
0
LINE
8
0
10
108.519000
20
62.920000
11
108.874189
21
62.794339
0
LINE
8
0
10
108.874000
20
62.794300
11
109.026998
21
62.384493
0
LINE
8
0
10
109.027000
20
62.384500
11
108.874002
21
61.974711
0
LINE
8
0
10
108.874000
20
61.974700
11
108.518811
21
61.843562
0
LINE
8
0
10
108.519000
20
61.843600
11
108.169279
21
61.974738
0
LINE
8
0
10
108.169000
20
61.974700
11
108.026935
21
62.384489
0
LINE
8
0
10
111.710000
20
55.713000
11
111.710000
21
60.914700
0
LINE
8
0
10
111.710000
20
60.914700
11
112.639000
21
60.914700
0
LINE
8
0
10
110.109000
20
62.384500
11
110.251073
21
62.794307
0
LINE
8
0
10
110.251000
20
62.794300
11
110.600723
21
62.919961
0
LINE
8
0
10
110.601000
20
62.920000
11
110.950721
21
62.794339
0
LINE
8
0
10
110.950000
20
62.794300
11
111.103008
21
62.384493
0
LINE
8
0
10
111.103000
20
62.384500
11
110.949992
21
61.974711
0
LINE
8
0
10
110.950000
20
61.974700
11
110.600279
21
61.843562
0
LINE
8
0
10
110.601000
20
61.843600
11
110.251277
21
61.974738
0
LINE
8
0
10
110.251000
20
61.974700
11
110.108927
21
62.384489
0
LINE
8
0
10
123.883000
20
59.630700
11
123.970431
21
57.466970
0
LINE
8
0
10
129.353000
20
52.926400
11
128.293000
21
52.926400
0
LINE
8
0
10
128.293000
20
52.926400
11
123.926960
21
59.630690
0
LINE
8
0
10
123.926960
20
59.630690
11
123.883000
21
59.630700
0
LINE
8
0
10
128.561000
20
54.237800
11
128.511817
21
55.183057
0
LINE
8
0
10
128.512000
20
55.183000
11
128.484685
21
56.330440
0
LINE
8
0
10
123.971000
20
57.467000
11
123.971000
21
52.926400
0
LINE
8
0
10
123.971000
20
52.926400
11
123.113000
21
52.926400
0
LINE
8
0
10
123.113000
20
52.926400
11
123.113000
21
60.914700
0
LINE
8
0
10
123.113000
20
60.914700
11
124.162000
21
60.914700
0
LINE
8
0
10
124.162000
20
60.914700
11
128.517110
21
54.237740
0
LINE
8
0
10
128.517110
20
54.237740
11
128.561000
21
54.237800
0
LINE
8
0
10
128.484000
20
56.330500
11
128.484000
21
60.914700
0
LINE
8
0
10
128.484000
20
60.914700
11
129.353000
21
60.914700
0
LINE
8
0
10
129.353000
20
60.914700
11
129.353000
21
52.926400
0
LINE
8
0
10
163.211000
20
56.931500
11
162.967837
21
55.218555
0
LINE
8
0
10
162.967837
20
55.218555
11
162.663881
21
54.515757
0
LINE
8
0
10
162.663881
20
54.515757
11
162.238343
21
53.915410
0
LINE
8
0
10
162.238000
20
53.915400
11
161.706930
21
53.434909
0
LINE
8
0
10
161.706930
20
53.434909
11
161.080916
21
53.091699
0
LINE
8
0
10
161.080916
20
53.091699
11
160.359959
21
52.885773
0
LINE
8
0
10
160.359959
20
52.885773
11
159.544060
21
52.817130
0
LINE
8
0
10
159.544000
20
52.817100
11
157.979815
21
53.086205
0
LINE
8
0
10
157.979815
20
53.086205
11
157.348338
21
53.422583
0
LINE
8
0
10
157.348338
20
53.422583
11
156.817270
21
53.893510
0
LINE
8
0
10
156.817000
20
53.893500
11
156.398629
21
54.489755
0
LINE
8
0
10
156.398629
20
54.489755
11
156.099792
21
55.196656
0
LINE
8
0
10
156.099792
20
55.196656
11
155.860723
21
56.942400
0
LINE
8
0
10
155.861000
20
56.942400
11
156.101434
21
58.673106
0
LINE
8
0
10
156.101434
20
58.673106
11
156.401976
21
59.373515
0
LINE
8
0
10
156.401976
20
59.373515
11
156.822735
21
59.963960
0
LINE
8
0
10
156.823000
20
59.964000
11
157.354411
21
60.434930
0
LINE
8
0
10
157.354411
20
60.434930
11
157.986915
21
60.771308
0
LINE
8
0
10
157.986915
20
60.771308
11
159.555190
21
61.040410
0
LINE
8
0
10
159.555000
20
61.040400
11
160.368510
21
60.972102
0
LINE
8
0
10
160.368510
20
60.972102
11
161.087760
21
60.767205
0
LINE
8
0
10
161.087760
20
60.767205
11
161.712750
21
60.425708
0
LINE
8
0
10
161.712750
20
60.425708
11
162.243480
21
59.947610
0
LINE
8
0
10
162.244000
20
59.947600
11
162.667151
21
59.349296
0
LINE
8
0
10
162.667151
20
59.349296
11
162.969400
21
58.647176
0
LINE
8
0
10
162.969400
20
58.647176
11
163.211199
21
56.931490
0
LINE
8
0
10
142.423000
20
52.926400
11
142.423000
21
60.914700
0
LINE
8
0
10
142.423000
20
60.914700
11
143.352000
21
60.914700
0
LINE
8
0
10
143.352000
20
60.914700
11
143.352000
21
52.926400
0
LINE
8
0
10
143.352000
20
52.926400
11
142.423000
21
52.926400
0
LINE
8
0
10
156.845000
20
56.931500
11
157.017129
21
55.504042
0
LINE
8
0
10
157.017129
20
55.504042
11
157.533508
21
54.467260
0
LINE
8
0
10
157.533000
20
54.467300
11
158.382713
21
53.840308
0
LINE
8
0
10
158.382713
20
53.840308
11
159.543900
21
53.631308
0
LINE
8
0
10
159.544000
20
53.631300
11
160.709274
21
53.840300
0
LINE
8
0
10
160.709274
20
53.840300
11
161.549420
21
54.467292
0
LINE
8
0
10
161.550000
20
54.467300
11
162.058190
21
55.501354
0
LINE
8
0
10
162.058190
20
55.501354
11
162.227586
21
56.931540
0
LINE
8
0
10
162.227000
20
56.931500
11
162.057604
21
58.348041
0
LINE
8
0
10
162.057604
20
58.348041
11
161.549414
21
59.373900
0
LINE
8
0
10
161.550000
20
59.373900
11
160.715317
21
60.000888
0
LINE
8
0
10
160.715317
20
60.000888
11
159.555500
21
60.209884
0
LINE
8
0
10
159.555000
20
60.209900
11
158.385625
21
59.999538
0
LINE
8
0
10
158.385625
20
59.999538
11
157.533180
21
59.368449
0
LINE
8
0
10
157.533000
20
59.368400
11
157.016621
21
58.341171
0
LINE
8
0
10
157.016621
20
58.341171
11
156.844492
21
56.931460
0
LINE
8
0
10
10.661400
20
44.208400
11
9.482460
21
43.988478
0
LINE
8
0
10
9.482460
20
43.988478
11
8.579470
21
43.328712
0
LINE
8
0
10
8.579470
20
43.328700
11
8.009808
21
42.291903
0
LINE
8
0
10
8.009808
20
42.291903
11
7.819921
21
40.930000
0
LINE
8
0
10
7.819920
20
40.930000
11
8.002977
21
39.539423
0
LINE
8
0
10
8.002977
20
39.539423
11
8.552148
21
38.504000
0
LINE
8
0
10
8.552150
20
38.504000
11
9.445578
21
37.864722
0
LINE
8
0
10
9.445578
20
37.864722
11
10.650470
21
37.651627
0
LINE
8
0
10
10.650500
20
37.651600
11
12.557570
21
37.952124
0
LINE
8
0
10
175.327000
20
52.926400
11
174.398000
21
52.926400
0
LINE
8
0
10
174.398000
20
52.926400
11
174.398000
21
60.914700
0
LINE
8
0
10
174.398000
20
60.914700
11
178.851000
21
60.914700
0
LINE
8
0
10
178.851000
20
60.914700
11
178.851000
21
60.089700
0
LINE
8
0
10
178.851000
20
60.089700
11
175.327000
21
60.089700
0
LINE
8
0
10
175.327000
20
60.089700
11
175.327000
21
57.166500
0
LINE
8
0
10
175.327000
20
57.166500
11
178.638000
21
57.166500
0
LINE
8
0
10
178.638000
20
57.166500
11
178.638000
21
56.341400
0
LINE
8
0
10
178.638000
20
56.341400
11
175.327000
21
56.341400
0
LINE
8
0
10
175.327000
20
56.341400
11
175.327000
21
52.926400
0
LINE
8
0
10
12.557500
20
37.138000
11
11.629922
21
36.904413
0
LINE
8
0
10
11.629922
20
36.904413
11
10.508360
21
36.826554
0
LINE
8
0
10
10.508400
20
36.826500
11
8.944222
21
37.094230
0
LINE
8
0
10
8.944222
20
37.094230
11
8.312743
21
37.428895
0
LINE
8
0
10
8.312743
20
37.428895
11
7.781670
21
37.897430
0
LINE
8
0
10
7.781670
20
37.897500
11
7.363303
21
38.489316
0
LINE
8
0
10
7.363303
20
38.489316
11
7.064469
21
39.193824
0
LINE
8
0
10
7.064469
20
39.193824
11
6.825402
21
40.940920
0
LINE
8
0
10
6.825400
20
40.940900
11
6.940152
21
42.099263
0
LINE
8
0
10
6.940152
20
42.099263
11
7.284408
21
43.104630
0
LINE
8
0
10
7.284410
20
43.104600
11
7.849974
21
43.926930
0
LINE
8
0
10
7.849974
20
43.926930
11
8.617720
21
44.536160
0
LINE
8
0
10
8.617720
20
44.536200
11
9.568524
21
44.913214
0
LINE
8
0
10
9.568524
20
44.913214
11
10.672330
21
45.038884
0
LINE
8
0
10
10.672300
20
45.038900
11
11.849875
21
44.924158
0
LINE
8
0
10
11.849875
20
44.924158
11
12.868980
21
44.579931
0
LINE
8
0
10
12.557500
20
37.952100
11
12.557500
21
37.138000
0
LINE
8
0
10
12.475600
20
43.782200
11
11.568512
21
44.101841
0
LINE
8
0
10
11.568512
20
44.101841
11
10.661420
21
44.208385
0
LINE
8
0
10
12.869000
20
44.579900
11
12.475564
21
43.782166
0
LINE
8
0
10
29.069700
20
36.935800
11
23.578000
21
36.935800
0
LINE
8
0
10
23.578000
20
36.935800
11
23.578000
21
37.662500
0
LINE
8
0
10
23.578000
20
37.662500
11
27.818400
21
44.088100
0
LINE
8
0
10
27.818400
20
44.088100
11
23.709100
21
44.088100
0
LINE
8
0
10
23.709100
20
44.088100
11
23.709100
21
44.924100
0
LINE
8
0
10
23.709100
20
44.924100
11
28.949500
21
44.924100
0
LINE
8
0
10
28.949500
20
44.924100
11
28.949500
21
44.197400
0
LINE
8
0
10
28.949500
20
44.197400
11
24.709140
21
37.777250
0
LINE
8
0
10
24.709140
20
37.777250
11
29.069700
21
37.777300
0
LINE
8
0
10
29.069700
20
37.777300
11
29.069700
21
36.935800
0
LINE
8
0
10
45.554600
20
36.935800
11
44.560080
21
39.476540
0
LINE
8
0
10
44.560080
20
39.476540
11
41.357900
21
39.476600
0
LINE
8
0
10
41.357900
20
39.476600
11
40.374310
21
36.935860
0
LINE
8
0
10
40.374310
20
36.935860
11
39.434400
21
36.935800
0
LINE
8
0
10
39.434400
20
36.935800
11
42.592820
21
44.956890
0
LINE
8
0
10
42.592820
20
44.956890
11
43.374300
21
44.956900
0
LINE
8
0
10
43.374300
20
44.956900
11
46.516320
21
36.935810
0
LINE
8
0
10
46.516320
20
36.935810
11
45.554600
21
36.935800
0
LINE
8
0
10
43.341500
20
42.787700
11
42.969922
21
43.940600
0
LINE
8
0
10
42.969900
20
43.940600
11
42.625643
21
42.787700
0
LINE
8
0
10
44.270400
20
40.312500
11
43.341457
21
42.787670
0
LINE
8
0
10
41.423500
20
46.393900
11
41.565573
21
46.803697
0
LINE
8
0
10
41.565500
20
46.803700
11
41.915223
21
46.929372
0
LINE
8
0
10
41.915300
20
46.929400
11
42.270487
21
46.803728
0
LINE
8
0
10
42.270500
20
46.803700
11
42.423500
21
46.393903
0
LINE
8
0
10
42.423500
20
46.393900
11
42.270500
21
45.984101
0
LINE
8
0
10
42.270500
20
45.984100
11
41.915313
21
45.852973
0
LINE
8
0
10
41.915300
20
45.853000
11
41.565577
21
45.984127
0
LINE
8
0
10
41.565500
20
45.984100
11
41.423427
21
46.393899
0
LINE
8
0
10
42.625600
20
42.787700
11
41.685722
21
40.312530
0
LINE
8
0
10
41.685722
20
40.312530
11
44.270400
21
40.312500
0
LINE
8
0
10
43.505400
20
46.393900
11
43.647470
21
46.803697
0
LINE
8
0
10
43.647500
20
46.803700
11
43.997223
21
46.929372
0
LINE
8
0
10
43.997200
20
46.929400
11
44.346921
21
46.803728
0
LINE
8
0
10
44.346900
20
46.803700
11
44.499900
21
46.393903
0
LINE
8
0
10
44.499900
20
46.393900
11
44.346900
21
45.984101
0
LINE
8
0
10
44.346900
20
45.984100
11
43.997179
21
45.852973
0
LINE
8
0
10
43.997200
20
45.853000
11
43.647477
21
45.984127
0
LINE
8
0
10
43.647500
20
45.984100
11
43.505430
21
46.393899
0
LINE
8
0
10
57.277200
20
43.640100
11
57.364632
21
41.476370
0
LINE
8
0
10
62.747000
20
36.935800
11
61.686900
21
36.935800
0
LINE
8
0
10
61.686900
20
36.935800
11
57.320850
21
43.640080
0
LINE
8
0
10
57.320850
20
43.640080
11
57.277200
21
43.640100
0
LINE
8
0
10
61.954700
20
38.247200
11
61.905522
21
39.192468
0
LINE
8
0
10
61.905500
20
39.192400
11
61.878177
21
40.339840
0
LINE
8
0
10
57.364600
20
41.476400
11
57.364600
21
36.935800
0
LINE
8
0
10
57.364600
20
36.935800
11
56.506700
21
36.935800
0
LINE
8
0
10
56.506700
20
36.935800
11
56.506700
21
44.924100
0
LINE
8
0
10
56.506700
20
44.924100
11
57.555900
21
44.924100
0
LINE
8
0
10
57.555900
20
44.924100
11
61.911020
21
38.247140
0
LINE
8
0
10
61.911020
20
38.247140
11
61.954700
21
38.247200
0
LINE
8
0
10
61.878200
20
40.339900
11
61.878200
21
44.924100
0
LINE
8
0
10
61.878200
20
44.924100
11
62.747000
21
44.924100
0
LINE
8
0
10
62.747000
20
44.924100
11
62.747000
21
36.935800
0
LINE
8
0
10
75.816600
20
36.935800
11
75.816600
21
44.924100
0
LINE
8
0
10
75.816600
20
44.924100
11
76.745600
21
44.924100
0
LINE
8
0
10
76.745600
20
44.924100
11
76.745600
21
36.935800
0
LINE
8
0
10
76.745600
20
36.935800
11
75.816600
21
36.935800
0
LINE
8
0
10
95.369700
20
36.935800
11
90.916300
21
36.935800
0
LINE
8
0
10
90.916300
20
36.935800
11
90.916300
21
44.924100
0
LINE
8
0
10
90.916300
20
44.924100
11
95.369700
21
44.924100
0
LINE
8
0
10
95.369700
20
44.924100
11
95.369700
21
44.099100
0
LINE
8
0
10
95.369700
20
44.099100
11
91.845200
21
44.099100
0
LINE
8
0
10
91.845200
20
44.099100
11
91.845200
21
41.525500
0
LINE
8
0
10
91.845200
20
41.525500
11
95.156600
21
41.525500
0
LINE
8
0
10
95.156600
20
41.525500
11
95.156600
21
40.706000
0
LINE
8
0
10
95.156600
20
40.706000
11
91.845200
21
40.706000
0
LINE
8
0
10
91.845200
20
40.706000
11
91.845200
21
37.766300
0
LINE
8
0
10
91.845200
20
37.766300
11
95.369700
21
37.766300
0
LINE
8
0
10
95.369700
20
37.766300
11
95.369700
21
36.935800
0
LINE
8
0
10
112.639000
20
39.755200
11
112.432719
21
38.535377
0
LINE
8
0
10
112.432719
20
38.535377
11
111.813882
21
37.607870
0
LINE
8
0
10
111.814000
20
37.607900
11
110.834507
21
37.021890
0
LINE
8
0
10
110.834507
20
37.021890
11
109.546280
21
36.826555
0
LINE
8
0
10
109.546000
20
36.826500
11
108.265969
21
37.023200
0
LINE
8
0
10
108.265969
20
37.023200
11
107.311070
21
37.613304
0
LINE
8
0
10
107.311000
20
37.613300
11
106.720843
21
38.547636
0
LINE
8
0
10
106.720843
20
38.547636
11
106.524125
21
39.777030
0
LINE
8
0
10
112.639000
20
44.924100
11
112.639000
21
39.755200
0
LINE
8
0
10
107.453000
20
39.711500
11
107.589608
21
38.827704
0
LINE
8
0
10
107.589608
20
38.827704
11
107.999438
21
38.176120
0
LINE
8
0
10
107.999000
20
38.176100
11
108.673848
21
37.774499
0
LINE
8
0
10
108.673848
20
37.774499
11
109.605520
21
37.640632
0
LINE
8
0
10
109.606000
20
37.640700
11
110.500797
21
37.774567
0
LINE
8
0
10
110.500797
20
37.774567
11
111.163350
21
38.176168
0
LINE
8
0
10
111.163000
20
38.176100
11
111.572829
21
38.833140
0
LINE
8
0
10
111.572829
20
38.833140
11
111.709438
21
39.722400
0
LINE
8
0
10
106.524000
20
39.777100
11
106.524000
21
44.924100
0
LINE
8
0
10
106.524000
20
44.924100
11
107.453000
21
44.924100
0
LINE
8
0
10
107.453000
20
44.924100
11
107.453000
21
39.711500
0
LINE
8
0
10
111.710000
20
39.722400
11
111.710000
21
44.924100
0
LINE
8
0
10
111.710000
20
44.924100
11
112.639000
21
44.924100
0
LINE
8
0
10
125.372000
20
36.935800
11
124.443000
21
36.935800
0
LINE
8
0
10
124.443000
20
36.935800
11
124.443000
21
44.924100
0
LINE
8
0
10
124.443000
20
44.924100
11
128.897000
21
44.924100
0
LINE
8
0
10
128.897000
20
44.924100
11
128.897000
21
44.099100
0
LINE
8
0
10
128.897000
20
44.099100
11
125.372000
21
44.099100
0
LINE
8
0
10
125.372000
20
44.099100
11
125.372000
21
41.175900
0
LINE
8
0
10
125.372000
20
41.175900
11
128.684000
21
41.175900
0
LINE
8
0
10
128.684000
20
41.175900
11
128.684000
21
40.350800
0
LINE
8
0
10
128.684000
20
40.350800
11
125.372000
21
40.350800
0
LINE
8
0
10
125.372000
20
40.350800
11
125.372000
21
36.935800
0
LINE
8
0
10
162.932000
20
41.006500
11
162.864720
21
40.075581
0
LINE
8
0
10
162.864720
20
40.075581
11
162.662880
21
39.260770
0
LINE
8
0
10
162.662880
20
39.260770
11
162.326480
21
38.562066
0
LINE
8
0
10
162.326480
20
38.562066
11
161.855520
21
37.979470
0
LINE
8
0
10
161.856000
20
37.979400
11
161.261405
21
37.522819
0
LINE
8
0
10
161.261405
20
37.522819
11
160.548644
21
37.196691
0
LINE
8
0
10
160.548644
20
37.196691
11
158.768620
21
36.935790
0
LINE
8
0
10
142.423000
20
36.935800
11
142.423000
21
44.924100
0
LINE
8
0
10
142.423000
20
44.924100
11
143.352000
21
44.924100
0
LINE
8
0
10
143.352000
20
44.924100
11
143.352000
21
36.935800
0
LINE
8
0
10
143.352000
20
36.935800
11
142.423000
21
36.935800
0
LINE
8
0
10
159.003000
20
44.924100
11
160.658709
21
44.665931
0
LINE
8
0
10
160.658709
20
44.665931
11
161.330826
21
44.343221
0
LINE
8
0
10
161.330826
20
44.343221
11
161.899120
21
43.891430
0
LINE
8
0
10
161.899000
20
43.891400
11
162.350839
21
43.323825
0
LINE
8
0
10
162.350839
20
43.323825
11
162.673580
21
42.653803
0
LINE
8
0
10
162.673580
20
42.653803
11
162.931770
21
41.006420
0
LINE
8
0
10
158.768000
20
36.935800
11
156.555000
21
36.935800
0
LINE
8
0
10
156.555000
20
36.935800
11
156.555000
21
44.924100
0
LINE
8
0
10
156.555000
20
44.924100
11
159.003000
21
44.924100
0
LINE
8
0
10
161.948000
20
40.973700
11
161.751282
21
42.343790
0
LINE
8
0
10
161.751282
20
42.343790
11
161.161125
21
43.328680
0
LINE
8
0
10
161.162000
20
43.328700
11
160.189346
21
43.922899
0
LINE
8
0
10
160.189346
20
43.922899
11
158.834170
21
44.120967
0
LINE
8
0
10
158.615000
20
37.739000
11
160.069895
21
37.942533
0
LINE
8
0
10
160.069895
20
37.942533
11
161.112230
21
38.553132
0
LINE
8
0
10
161.112000
20
38.553200
11
161.739038
21
39.568131
0
LINE
8
0
10
161.739038
20
39.568131
11
161.948051
21
40.973730
0
LINE
8
0
10
158.834000
20
44.120900
11
157.484000
21
44.120900
0
LINE
8
0
10
157.484000
20
44.120900
11
157.484000
21
37.739000
0
LINE
8
0
10
157.484000
20
37.739000
11
158.615000
21
37.739000
0
LINE
8
0
10
13.347100
20
24.950300
11
13.103934
21
23.237337
0
LINE
8
0
10
13.103934
20
23.237337
11
12.799978
21
22.534534
0
LINE
8
0
10
12.799978
20
22.534534
11
12.374439
21
21.934190
0
LINE
8
0
10
12.374500
20
21.934200
11
11.843429
21
21.453708
0
LINE
8
0
10
11.843429
20
21.453708
11
11.217415
21
21.110502
0
LINE
8
0
10
11.217415
20
21.110502
11
10.496459
21
20.904580
0
LINE
8
0
10
10.496459
20
20.904580
11
9.680560
21
20.835940
0
LINE
8
0
10
9.680540
20
20.835900
11
8.116363
21
21.105000
0
LINE
8
0
10
8.116363
20
21.105000
11
7.484883
21
21.441375
0
LINE
8
0
10
7.484883
20
21.441375
11
6.953810
21
21.912300
0
LINE
8
0
10
6.953820
20
21.912300
11
6.535453
21
22.508548
0
LINE
8
0
10
6.535453
20
22.508548
11
6.236619
21
23.215450
0
LINE
8
0
10
6.236619
20
23.215450
11
5.997552
21
24.961200
0
LINE
8
0
10
5.997550
20
24.961200
11
6.237983
21
26.691903
0
LINE
8
0
10
6.237983
20
26.691903
11
6.538524
21
27.392308
0
LINE
8
0
10
6.538524
20
27.392308
11
6.959281
21
27.982760
0
LINE
8
0
10
6.959280
20
27.982800
11
7.490692
21
28.453723
0
LINE
8
0
10
7.490692
20
28.453723
11
8.123196
21
28.790091
0
LINE
8
0
10
8.123196
20
28.790091
11
9.691470
21
29.059180
0
LINE
8
0
10
9.691470
20
29.059200
11
10.504980
21
28.990903
0
LINE
8
0
10
10.504980
20
28.990903
11
11.224230
21
28.786008
0
LINE
8
0
10
11.224230
20
28.786008
11
11.849220
21
28.444515
0
LINE
8
0
10
11.849220
20
28.444515
11
12.379950
21
27.966420
0
LINE
8
0
10
12.379900
20
27.966400
11
12.803049
21
27.368097
0
LINE
8
0
10
12.803049
20
27.368097
11
13.105297
21
26.665982
0
LINE
8
0
10
13.105297
20
26.665982
11
13.347096
21
24.950310
0
LINE
8
0
10
175.726000
20
36.935800
11
175.726000
21
44.924100
0
LINE
8
0
10
175.726000
20
44.924100
11
176.655000
21
44.924100
0
LINE
8
0
10
176.655000
20
44.924100
11
176.655000
21
36.935800
0
LINE
8
0
10
176.655000
20
36.935800
11
175.726000
21
36.935800
0
LINE
8
0
10
6.981140
20
24.950300
11
7.153268
21
23.522826
0
LINE
8
0
10
7.153268
20
23.522826
11
7.669653
21
22.486050
0
LINE
8
0
10
7.669650
20
22.486100
11
8.519362
21
21.859094
0
LINE
8
0
10
8.519362
20
21.859094
11
9.680540
21
21.650097
0
LINE
8
0
10
9.680540
20
21.650100
11
10.845821
21
21.859097
0
LINE
8
0
10
10.845821
20
21.859097
11
11.685970
21
22.486103
0
LINE
8
0
10
11.686000
20
22.486100
11
12.194188
21
23.520153
0
LINE
8
0
10
12.194188
20
23.520153
11
12.363584
21
24.950350
0
LINE
8
0
10
12.363600
20
24.950300
11
12.194204
21
26.366815
0
LINE
8
0
10
12.194204
20
26.366815
11
11.686016
21
27.392670
0
LINE
8
0
10
11.686000
20
27.392700
11
10.851316
21
28.019706
0
LINE
8
0
10
10.851316
20
28.019706
11
9.691500
21
28.228703
0
LINE
8
0
10
9.691470
20
28.228700
11
8.522092
21
28.018337
0
LINE
8
0
10
8.522092
20
28.018337
11
7.669650
21
27.387247
0
LINE
8
0
10
7.669650
20
27.387200
11
7.153265
21
26.359976
0
LINE
8
0
10
7.153265
20
26.359976
11
6.981137
21
24.950280
0
LINE
8
0
10
29.758200
20
20.945200
11
28.665300
21
20.945200
0
LINE
8
0
10
28.665300
20
20.945200
11
25.752780
21
24.819140
0
LINE
8
0
10
25.752780
20
24.819140
11
24.916729
21
24.076032
0
LINE
8
0
10
24.916729
20
24.076032
11
24.916800
21
20.945200
0
LINE
8
0
10
24.916800
20
20.945200
11
23.987800
21
20.945200
0
LINE
8
0
10
23.987800
20
20.945200
11
23.987800
21
28.933500
0
LINE
8
0
10
23.987800
20
28.933500
11
24.916800
21
28.933500
0
LINE
8
0
10
24.916800
20
28.933500
11
24.916800
21
24.972200
0
LINE
8
0
10
24.916800
20
24.972200
11
28.539690
21
28.933560
0
LINE
8
0
10
28.539690
20
28.933560
11
29.638000
21
28.933500
0
LINE
8
0
10
29.638000
20
28.933500
11
26.424940
21
25.463860
0
LINE
8
0
10
26.424940
20
25.463860
11
29.758200
21
20.945200
0
LINE
8
0
10
46.229400
20
21.245700
11
44.939800
21
20.939736
0
LINE
8
0
10
44.939800
20
20.939800
11
43.420700
21
20.835978
0
LINE
8
0
10
43.420700
20
20.835900
11
41.807340
21
21.105000
0
LINE
8
0
10
41.807340
20
21.105000
11
41.151274
21
21.441375
0
LINE
8
0
10
41.151274
20
21.441375
11
40.595620
21
21.912300
0
LINE
8
0
10
40.595600
20
21.912300
11
40.153326
21
22.507180
0
LINE
8
0
10
40.153326
20
22.507180
11
39.837416
21
23.209976
0
LINE
8
0
10
39.837416
20
23.209976
11
39.584690
21
24.939310
0
LINE
8
0
10
39.584700
20
24.939400
11
39.709014
21
26.107347
0
LINE
8
0
10
39.709014
20
26.107347
11
40.081957
21
27.119540
0
LINE
8
0
10
40.082000
20
27.119500
11
40.694011
21
27.947285
0
LINE
8
0
10
40.694011
20
27.947285
11
41.524600
21
28.551050
0
LINE
8
0
10
41.524600
20
28.551000
11
42.545074
21
28.923917
0
LINE
8
0
10
42.545074
20
28.923917
11
43.726750
21
29.048231
0
LINE
8
0
10
43.726700
20
29.048300
11
44.961649
21
28.930825
0
LINE
8
0
10
44.961649
20
28.930825
11
46.109170
21
28.578401
0
LINE
8
0
10
43.513600
20
25.130600
11
46.229400
21
25.130600
0
LINE
8
0
10
46.229400
20
25.130600
11
46.229400
21
21.245700
0
LINE
8
0
10
45.748500
20
27.758800
11
44.687041
21
28.103023
0
LINE
8
0
10
44.687041
20
28.103023
11
43.666570
21
28.217772
0
LINE
8
0
10
43.666600
20
28.217800
11
42.367443
21
28.000611
0
LINE
8
0
10
42.367443
20
28.000611
11
41.387950
21
27.349042
0
LINE
8
0
10
41.388000
20
27.349000
11
40.773257
21
26.312199
0
LINE
8
0
10
40.773257
20
26.312199
11
40.568343
21
24.939360
0
LINE
8
0
10
40.568300
20
24.939400
11
40.765019
21
23.517410
0
LINE
8
0
10
40.765019
20
23.517410
11
41.355175
21
22.486110
0
LINE
8
0
10
41.355200
20
22.486100
11
42.331955
21
21.859094
0
LINE
8
0
10
42.331955
20
21.859094
11
43.677560
21
21.650097
0
LINE
8
0
10
43.677500
20
21.650100
11
45.300430
21
21.841341
0
LINE
8
0
10
46.109200
20
28.578400
11
45.748550
21
27.758801
0
LINE
8
0
10
45.300500
20
21.841300
11
45.300500
21
24.300100
0
LINE
8
0
10
45.300500
20
24.300100
11
43.513600
21
24.300100
0
LINE
8
0
10
43.513600
20
24.300100
11
43.513600
21
25.130600
0
LINE
8
0
10
62.372700
20
20.945200
11
56.881000
21
20.945200
0
LINE
8
0
10
56.881000
20
20.945200
11
56.881000
21
21.671900
0
LINE
8
0
10
56.881000
20
21.671900
11
61.121360
21
28.097510
0
LINE
8
0
10
61.121360
20
28.097510
11
57.012200
21
28.097500
0
LINE
8
0
10
57.012200
20
28.097500
11
57.012200
21
28.933500
0
LINE
8
0
10
57.012200
20
28.933500
11
62.252500
21
28.933500
0
LINE
8
0
10
62.252500
20
28.933500
11
62.252500
21
28.206800
0
LINE
8
0
10
62.252500
20
28.206800
11
58.012140
21
21.786640
0
LINE
8
0
10
58.012140
20
21.786640
11
62.372700
21
21.786700
0
LINE
8
0
10
62.372700
20
21.786700
11
62.372700
21
20.945200
0
LINE
8
0
10
76.639000
20
26.294400
11
76.382172
21
27.190463
0
LINE
8
0
10
76.382200
20
27.190500
11
76.234661
21
27.840739
0
LINE
8
0
10
76.234700
20
27.840700
11
75.852195
21
26.261590
0
LINE
8
0
10
79.169000
20
20.945200
11
78.251000
21
20.945200
0
LINE
8
0
10
78.251000
20
20.945200
11
76.639010
21
26.294430
0
LINE
8
0
10
73.491500
20
23.999600
11
73.874008
21
22.120000
0
LINE
8
0
10
73.874000
20
22.120000
11
74.311149
21
24.076090
0
LINE
8
0
10
75.852200
20
26.261600
11
74.289380
21
20.945180
0
LINE
8
0
10
74.289380
20
20.945180
11
73.371300
21
20.945200
0
LINE
8
0
10
73.371300
20
20.945200
11
71.245650
21
28.933520
0
LINE
8
0
10
71.245650
20
28.933520
11
72.229300
21
28.933500
0
LINE
8
0
10
72.229300
20
28.933500
11
73.491580
21
23.999530
0
LINE
8
0
10
78.229200
20
24.032300
11
78.671813
21
22.119920
0
LINE
8
0
10
78.671800
20
22.120000
11
79.065238
21
24.010520
0
LINE
8
0
10
74.311200
20
24.076000
11
75.742870
21
28.933480
0
LINE
8
0
10
75.742870
20
28.933480
11
76.726500
21
28.933500
0
LINE
8
0
10
76.726500
20
28.933500
11
78.229210
21
24.032310
0
LINE
8
0
10
96.604700
20
24.950300
11
96.361533
21
23.237337
0
LINE
8
0
10
96.361533
20
23.237337
11
96.057578
21
22.534534
0
LINE
8
0
10
96.057578
20
22.534534
11
95.632043
21
21.934190
0
LINE
8
0
10
95.632000
20
21.934200
11
95.100928
21
21.453708
0
LINE
8
0
10
95.100928
20
21.453708
11
94.474914
21
21.110502
0
LINE
8
0
10
94.474914
20
21.110502
11
93.753958
21
20.904580
0
LINE
8
0
10
93.753958
20
20.904580
11
92.938060
21
20.835940
0
LINE
8
0
10
92.938100
20
20.835900
11
91.373915
21
21.105000
0
LINE
8
0
10
91.373915
20
21.105000
11
90.742438
21
21.441375
0
LINE
8
0
10
90.742438
20
21.441375
11
90.211370
21
21.912300
0
LINE
8
0
10
90.211300
20
21.912300
11
89.792934
21
22.508548
0
LINE
8
0
10
89.792934
20
22.508548
11
89.494102
21
23.215450
0
LINE
8
0
10
89.494102
20
23.215450
11
89.255036
21
24.961200
0
LINE
8
0
10
89.255100
20
24.961200
11
89.495533
21
26.691903
0
LINE
8
0
10
89.495533
20
26.691903
11
89.796073
21
27.392308
0
LINE
8
0
10
89.796073
20
27.392308
11
90.216830
21
27.982760
0
LINE
8
0
10
90.216800
20
27.982800
11
90.748213
21
28.453723
0
LINE
8
0
10
90.748213
20
28.453723
11
91.380717
21
28.790091
0
LINE
8
0
10
91.380717
20
28.790091
11
92.949000
21
29.059180
0
LINE
8
0
10
92.949000
20
29.059200
11
93.762510
21
28.990903
0
LINE
8
0
10
93.762510
20
28.990903
11
94.481760
21
28.786008
0
LINE
8
0
10
94.481760
20
28.786008
11
95.106750
21
28.444515
0
LINE
8
0
10
95.106750
20
28.444515
11
95.637480
21
27.966420
0
LINE
8
0
10
95.637500
20
27.966400
11
96.060652
21
27.368097
0
LINE
8
0
10
96.060652
20
27.368097
11
96.362901
21
26.665982
0
LINE
8
0
10
96.362901
20
26.665982
11
96.604699
21
24.950310
0
LINE
8
0
10
79.065200
20
24.010500
11
80.322010
21
28.933540
0
LINE
8
0
10
80.322010
20
28.933540
11
81.305600
21
28.933500
0
LINE
8
0
10
81.305600
20
28.933500
11
79.169030
21
20.945180
0
LINE
8
0
10
90.238700
20
24.950300
11
90.410827
21
23.522826
0
LINE
8
0
10
90.410827
20
23.522826
11
90.927208
21
22.486050
0
LINE
8
0
10
90.927200
20
22.486100
11
91.776913
21
21.859094
0
LINE
8
0
10
91.776913
20
21.859094
11
92.938100
21
21.650097
0
LINE
8
0
10
92.938100
20
21.650100
11
94.103377
21
21.859097
0
LINE
8
0
10
94.103377
20
21.859097
11
94.943530
21
22.486103
0
LINE
8
0
10
94.943500
20
22.486100
11
95.451689
21
23.520153
0
LINE
8
0
10
95.451689
20
23.520153
11
95.621084
21
24.950350
0
LINE
8
0
10
95.621100
20
24.950300
11
95.451705
21
26.366815
0
LINE
8
0
10
95.451705
20
26.366815
11
94.943516
21
27.392670
0
LINE
8
0
10
94.943500
20
27.392700
11
94.108813
21
28.019706
0
LINE
8
0
10
94.108813
20
28.019706
11
92.949000
21
28.228703
0
LINE
8
0
10
92.949000
20
28.228700
11
91.779623
21
28.018337
0
LINE
8
0
10
91.779623
20
28.018337
11
90.927180
21
27.387247
0
LINE
8
0
10
90.927200
20
27.387200
11
90.410818
21
26.359976
0
LINE
8
0
10
90.410818
20
26.359976
11
90.238692
21
24.950280
0
LINE
8
0
10
91.424400
20
30.403300
11
91.566476
21
30.813113
0
LINE
8
0
10
91.566500
20
30.813100
11
91.916221
21
30.938777
0
LINE
8
0
10
91.916200
20
30.938800
11
92.271387
21
30.813123
0
LINE
8
0
10
92.271400
20
30.813100
11
92.424400
21
30.403287
0
LINE
8
0
10
92.424400
20
30.403300
11
92.271400
21
29.993514
0
LINE
8
0
10
92.271400
20
29.993500
11
91.916213
21
29.862373
0
LINE
8
0
10
91.916200
20
29.862400
11
91.566479
21
29.993527
0
LINE
8
0
10
91.566500
20
29.993500
11
91.424424
21
30.403286
0
LINE
8
0
10
93.506400
20
30.403300
11
93.648470
21
30.813113
0
LINE
8
0
10
93.648400
20
30.813100
11
93.998123
21
30.938777
0
LINE
8
0
10
93.998200
20
30.938800
11
94.347921
21
30.813123
0
LINE
8
0
10
94.347900
20
30.813100
11
94.500900
21
30.403287
0
LINE
8
0
10
94.500900
20
30.403300
11
94.347900
21
29.993514
0
LINE
8
0
10
94.347900
20
29.993500
11
93.998179
21
29.862373
0
LINE
8
0
10
93.998200
20
29.862400
11
93.648477
21
29.993527
0
LINE
8
0
10
93.648400
20
29.993500
11
93.506330
21
30.403286
0
LINE
8
0
10
112.639000
20
23.764600
11
112.432719
21
22.544776
0
LINE
8
0
10
112.432719
20
22.544776
11
111.813882
21
21.617270
0
LINE
8
0
10
111.814000
20
21.617300
11
110.834507
21
21.031298
0
LINE
8
0
10
110.834507
20
21.031298
11
109.546280
21
20.835960
0
LINE
8
0
10
109.546000
20
20.835900
11
108.265969
21
21.032607
0
LINE
8
0
10
108.265969
20
21.032607
11
107.311070
21
21.622717
0
LINE
8
0
10
107.311000
20
21.622800
11
106.720843
21
22.557127
0
LINE
8
0
10
106.720843
20
22.557127
11
106.524125
21
23.786530
0
LINE
8
0
10
112.639000
20
28.933500
11
112.639000
21
23.764600
0
LINE
8
0
10
107.453000
20
23.720900
11
107.589608
21
22.837117
0
LINE
8
0
10
107.589608
20
22.837117
11
107.999438
21
22.185520
0
LINE
8
0
10
107.999000
20
22.185500
11
108.673848
21
21.783903
0
LINE
8
0
10
108.673848
20
21.783903
11
109.605520
21
21.650037
0
LINE
8
0
10
109.606000
20
21.650100
11
110.500797
21
21.783966
0
LINE
8
0
10
110.500797
20
21.783966
11
111.163350
21
22.185563
0
LINE
8
0
10
111.163000
20
22.185500
11
111.572829
21
22.842545
0
LINE
8
0
10
111.572829
20
22.842545
11
111.709438
21
23.731800
0
LINE
8
0
10
106.524000
20
23.786500
11
106.524000
21
28.933500
0
LINE
8
0
10
106.524000
20
28.933500
11
107.453000
21
28.933500
0
LINE
8
0
10
107.453000
20
28.933500
11
107.453000
21
23.720900
0
LINE
8
0
10
111.710000
20
23.731800
11
111.710000
21
28.933500
0
LINE
8
0
10
111.710000
20
28.933500
11
112.639000
21
28.933500
0
LINE
8
0
10
125.372000
20
20.945200
11
124.443000
21
20.945200
0
LINE
8
0
10
124.443000
20
20.945200
11
124.443000
21
28.933500
0
LINE
8
0
10
124.443000
20
28.933500
11
128.897000
21
28.933500
0
LINE
8
0
10
128.897000
20
28.933500
11
128.897000
21
28.108500
0
LINE
8
0
10
128.897000
20
28.108500
11
125.372000
21
28.108500
0
LINE
8
0
10
125.372000
20
28.108500
11
125.372000
21
25.185300
0
LINE
8
0
10
125.372000
20
25.185300
11
128.684000
21
25.185300
0
LINE
8
0
10
128.684000
20
25.185300
11
128.684000
21
24.360200
0
LINE
8
0
10
128.684000
20
24.360200
11
125.372000
21
24.360200
0
LINE
8
0
10
125.372000
20
24.360200
11
125.372000
21
20.945200
0
LINE
8
0
10
157.976000
20
18.841600
11
157.167265
21
18.989131
0
LINE
8
0
10
142.423000
20
20.945200
11
142.423000
21
28.933500
0
LINE
8
0
10
142.423000
20
28.933500
11
143.352000
21
28.933500
0
LINE
8
0
10
143.352000
20
28.933500
11
143.352000
21
20.945200
0
LINE
8
0
10
143.352000
20
20.945200
11
142.423000
21
20.945200
0
LINE
8
0
10
157.167000
20
19.781400
11
157.975735
21
19.672127
0
LINE
8
0
10
157.976000
20
19.672100
11
158.451399
21
19.754058
0
LINE
8
0
10
158.451399
20
19.754058
11
158.795649
21
19.999945
0
LINE
8
0
10
158.795000
20
20.000000
11
159.008114
21
20.400225
0
LINE
8
0
10
159.008114
20
20.400225
11
159.079149
21
20.945249
0
LINE
8
0
10
157.167000
20
18.989100
11
157.167000
21
19.781400
0
LINE
8
0
10
160.009000
20
21.021700
11
159.877856
21
20.101030
0
LINE
8
0
10
159.877856
20
20.101030
11
159.484422
21
19.415310
0
LINE
8
0
10
159.484000
20
19.415300
11
158.844663
21
18.985009
0
LINE
8
0
10
158.844663
20
18.985009
11
157.975830
21
18.841578
0
LINE
8
0
10
159.080000
20
20.945200
11
159.080000
21
28.933500
0
LINE
8
0
10
159.080000
20
28.933500
11
160.009000
21
28.933500
0
LINE
8
0
10
160.009000
20
28.933500
11
160.009000
21
21.021700
0
LINE
8
0
10
179.373000
20
20.945200
11
178.319000
21
20.945200
0
LINE
8
0
10
178.319000
20
20.945200
11
176.171500
21
24.458520
0
LINE
8
0
10
176.171500
20
24.458520
11
173.985750
21
20.945200
0
LINE
8
0
10
173.985750
20
20.945200
11
173.002000
21
20.945200
0
LINE
8
0
10
173.002000
20
20.945200
11
175.657690
21
25.119660
0
LINE
8
0
10
175.657690
20
25.119660
11
173.182320
21
28.933520
0
LINE
8
0
10
173.182320
20
28.933520
11
174.209000
21
28.933500
0
LINE
8
0
10
174.209000
20
28.933500
11
176.192570
21
25.769880
0
LINE
8
0
10
176.192570
20
25.769880
11
178.192530
21
28.933500
0
LINE
8
0
10
178.192530
20
28.933500
11
179.182000
21
28.933500
0
LINE
8
0
10
179.182000
20
28.933500
11
176.706630
21
25.152420
0
LINE
8
0
10
176.706630
20
25.152420
11
179.373000
21
20.945200
0
LINE
8
0
10
7.866370
20
4.954610
11
7.866370
21
12.942900
0
LINE
8
0
10
7.866370
20
12.942900
11
8.795310
21
12.942900
0
LINE
8
0
10
8.795310
20
12.942900
11
8.795310
21
5.796060
0
LINE
8
0
10
8.795310
20
5.796060
11
12.319800
21
5.796060
0
LINE
8
0
10
12.319800
20
5.796060
11
12.319800
21
4.954610
0
LINE
8
0
10
12.319800
20
4.954610
11
7.866370
21
4.954610
0
LINE
8
0
10
26.321100
20
8.948750
11
28.452210
21
12.942920
0
LINE
8
0
10
28.452210
20
12.942920
11
29.457700
21
12.942900
0
LINE
8
0
10
29.457700
20
12.942900
11
26.791080
21
8.052640
0
LINE
8
0
10
26.791080
20
8.052640
11
26.791100
21
4.954610
0
LINE
8
0
10
26.791100
20
4.954610
11
25.851200
21
4.954610
0
LINE
8
0
10
25.851200
20
4.954610
11
25.851200
21
8.008950
0
LINE
8
0
10
25.851200
20
8.008950
11
23.190040
21
12.942920
0
LINE
8
0
10
23.190040
20
12.942920
11
24.206400
21
12.942900
0
LINE
8
0
10
24.206400
20
12.942900
11
26.321100
21
8.948750
0
LINE
8
0
10
42.704900
20
12.942900
11
44.075093
21
12.824056
0
LINE
8
0
10
44.075093
20
12.824056
11
45.005410
21
12.467524
0
LINE
8
0
10
45.005400
20
12.467500
11
45.538178
21
11.854167
0
LINE
8
0
10
45.538178
20
11.854167
11
45.715771
21
10.964910
0
LINE
8
0
10
45.715800
20
10.965000
11
45.616075
21
10.316150
0
LINE
8
0
10
45.616075
20
10.316150
11
45.316899
21
9.790250
0
LINE
8
0
10
45.316900
20
9.790210
11
44.831934
21
9.411836
0
LINE
8
0
10
44.831934
20
9.411836
11
44.163910
21
9.194634
0
LINE
8
0
10
40.448100
20
12.942900
11
42.704900
21
12.942900
0
LINE
8
0
10
44.163900
20
9.139990
11
44.959991
21
8.903681
0
LINE
8
0
10
44.959991
20
8.903681
11
45.528629
21
8.506181
0
LINE
8
0
10
45.528629
20
8.506181
11
45.869812
21
7.947491
0
LINE
8
0
10
45.869812
20
7.947491
11
45.983540
21
7.227610
0
LINE
8
0
10
45.983500
20
7.227610
11
45.801811
21
6.274137
0
LINE
8
0
10
45.801811
20
6.274137
11
45.256741
21
5.555630
0
LINE
8
0
10
45.256700
20
5.555630
11
44.390595
21
5.104860
0
LINE
8
0
10
44.390595
20
5.104860
11
43.234880
21
4.954603
0
LINE
8
0
10
44.163900
20
9.194630
11
44.163900
21
9.139990
0
LINE
8
0
10
43.234900
20
4.954610
11
40.448100
21
4.954610
0
LINE
8
0
10
40.448100
20
4.954610
11
40.448100
21
12.942900
0
LINE
8
0
10
42.907100
20
9.522470
11
43.752713
21
9.598968
0
LINE
8
0
10
43.752713
20
9.598968
11
44.322380
21
9.828460
0
LINE
8
0
10
44.322300
20
9.828460
11
44.646064
21
10.245075
0
LINE
8
0
10
44.646064
20
10.245075
11
44.753986
21
10.872050
0
LINE
8
0
10
44.754000
20
10.872100
11
44.633783
21
11.449932
0
LINE
8
0
10
44.633783
20
11.449932
11
44.273131
21
11.839230
0
LINE
8
0
10
44.273100
20
11.839200
11
43.650161
21
12.064585
0
LINE
8
0
10
43.650161
20
12.064585
11
42.743070
21
12.139713
0
LINE
8
0
10
41.377000
20
9.522470
11
42.907100
21
9.522470
0
LINE
8
0
10
42.743100
20
12.139700
11
41.377000
21
12.139700
0
LINE
8
0
10
41.377000
20
12.139700
11
41.377000
21
9.522470
0
LINE
8
0
10
43.043700
20
5.746870
11
43.890676
21
5.839758
0
LINE
8
0
10
43.890676
20
5.839758
11
44.497220
21
6.118424
0
LINE
8
0
10
44.497200
20
6.118430
11
44.866047
21
6.600613
0
LINE
8
0
10
44.866047
20
6.600613
11
44.988996
21
7.293180
0
LINE
8
0
10
44.989000
20
7.293180
11
44.863319
21
7.937926
0
LINE
8
0
10
44.863319
20
7.937926
11
44.486276
21
8.385960
0
LINE
8
0
10
44.486300
20
8.385960
11
43.857895
21
8.648241
0
LINE
8
0
10
43.857895
20
8.648241
11
42.967200
21
8.735659
0
LINE
8
0
10
41.377000
20
8.735660
11
41.377000
21
5.746870
0
LINE
8
0
10
41.377000
20
5.746870
11
43.043700
21
5.746870
0
LINE
8
0
10
95.724900
20
10.615300
11
95.517255
21
9.541643
0
LINE
8
0
10
95.517255
20
9.541643
11
94.894318
21
8.746630
0
LINE
8
0
10
94.894300
20
8.746580
11
93.890216
21
8.258924
0
LINE
8
0
10
93.890216
20
8.258924
11
92.528220
21
8.096367
0
LINE
8
0
10
42.967200
20
8.735660
11
41.377000
21
8.735660
0
LINE
8
0
10
92.730400
20
12.942900
11
94.040485
21
12.797421
0
LINE
8
0
10
94.040485
20
12.797421
11
94.976260
21
12.360983
0
LINE
8
0
10
94.976260
20
12.360983
11
95.537725
21
11.633586
0
LINE
8
0
10
95.537725
20
11.633586
11
95.724880
21
10.615230
0
LINE
8
0
10
92.528300
20
8.096370
11
91.588400
21
8.096370
0
LINE
8
0
10
91.588400
20
8.096370
11
91.588400
21
4.954610
0
LINE
8
0
10
91.588400
20
4.954610
11
90.659400
21
4.954610
0
LINE
8
0
10
90.659400
20
4.954610
11
90.659400
21
12.942900
0
LINE
8
0
10
90.659400
20
12.942900
11
92.730400
21
12.942900
0
LINE
8
0
10
92.424400
20
8.894120
11
93.488590
21
8.993835
0
LINE
8
0
10
93.488590
20
8.993835
11
94.211250
21
9.292979
0
LINE
8
0
10
94.211300
20
9.292970
11
94.625229
21
9.812062
0
LINE
8
0
10
94.625229
20
9.812062
11
94.763207
21
10.571540
0
LINE
8
0
10
94.763200
20
10.571500
11
94.633421
21
11.262697
0
LINE
8
0
10
94.633421
20
11.262697
11
94.244086
21
11.751730
0
LINE
8
0
10
94.244100
20
11.751800
11
93.580174
21
12.042752
0
LINE
8
0
10
93.580174
20
12.042752
11
92.626640
21
12.139732
0
LINE
8
0
10
91.588400
20
8.894120
11
92.424400
21
8.894120
0
LINE
8
0
10
92.626600
20
12.139700
11
91.588400
21
12.139700
0
LINE
8
0
10
91.588400
20
12.139700
11
91.588403
21
8.894110
0
LINE
8
0
10
139.712000
20
12.035900
11
139.788509
21
10.036080
0
LINE
8
0
10
142.466000
20
4.954610
11
139.755660
21
12.035910
0
LINE
8
0
10
139.755660
20
12.035910
11
139.712000
21
12.035900
0
LINE
8
0
10
145.914000
20
10.101600
11
145.990491
21
12.024910
0
LINE
8
0
10
139.789000
20
10.036100
11
139.789000
21
4.954610
0
LINE
8
0
10
139.789000
20
4.954610
11
138.931000
21
4.954610
0
LINE
8
0
10
138.931000
20
4.954610
11
138.931000
21
12.942900
0
LINE
8
0
10
138.931000
20
12.942900
11
140.330000
21
12.942900
0
LINE
8
0
10
140.330000
20
12.942900
11
142.860010
21
6.353350
0
LINE
8
0
10
142.860010
20
6.353350
11
142.904000
21
6.353380
0
LINE
8
0
10
142.904000
20
6.353380
11
145.455870
21
12.942930
0
LINE
8
0
10
145.455870
20
12.942930
11
146.843000
21
12.942900
0
LINE
8
0
10
146.843000
20
12.942900
11
146.843000
21
4.954610
0
LINE
8
0
10
146.843000
20
4.954610
11
145.914000
21
4.954610
0
LINE
8
0
10
145.914000
20
4.954610
11
145.914000
21
10.101600
0
LINE
8
0
10
145.991000
20
12.025000
11
145.947000
21
12.025000
0
LINE
8
0
10
145.947000
20
12.025000
11
143.214810
21
4.954650
0
LINE
8
0
10
143.214810
20
4.954650
11
142.466000
21
4.954610
0
LINE
8
0
10
162.970000
20
4.954610
11
161.877000
21
4.954610
0
LINE
8
0
10
161.877000
20
4.954610
11
158.964490
21
8.828550
0
LINE
8
0
10
158.964490
20
8.828550
11
158.128437
21
8.085469
0
LINE
8
0
10
158.128437
20
8.085469
11
158.129000
21
4.954610
0
LINE
8
0
10
158.129000
20
4.954610
11
157.200000
21
4.954610
0
LINE
8
0
10
157.200000
20
4.954610
11
157.200000
21
12.942900
0
LINE
8
0
10
157.200000
20
12.942900
11
158.129000
21
12.942900
0
LINE
8
0
10
158.129000
20
12.942900
11
158.129000
21
8.981530
0
LINE
8
0
10
158.129000
20
8.981530
11
161.751890
21
12.942920
0
LINE
8
0
10
161.751890
20
12.942920
11
162.850000
21
12.942900
0
LINE
8
0
10
162.850000
20
12.942900
11
159.636940
21
9.473260
0
LINE
8
0
10
159.636940
20
9.473260
11
162.970000
21
4.954610
0
LINE
8
0
10
1.346590
20
176.854000
11
17.998100
21
176.854000
0
LINE
8
0
10
17.998100
20
176.854000
11
17.998100
21
160.863000
0
LINE
8
0
10
17.998100
20
160.863000
11
1.346590
21
160.863000
0
LINE
8
0
10
1.346590
20
160.863000
11
1.346590
21
176.854000
0
LINE
8
0
10
17.998100
20
176.854000
11
34.649600
21
176.854000
0
LINE
8
0
10
34.649600
20
176.854000
11
34.649600
21
160.863000
0
LINE
8
0
10
34.649600
20
160.863000
11
17.998100
21
160.863000
0
LINE
8
0
10
17.998100
20
160.863000
11
17.998100
21
176.854000
0
LINE
8
0
10
34.649600
20
176.854000
11
51.301100
21
176.854000
0
LINE
8
0
10
51.301100
20
176.854000
11
51.301100
21
160.863000
0
LINE
8
0
10
51.301100
20
160.863000
11
34.649600
21
160.863000
0
LINE
8
0
10
34.649600
20
160.863000
11
34.649600
21
176.854000
0
LINE
8
0
10
51.301100
20
176.854000
11
67.952600
21
176.854000
0
LINE
8
0
10
67.952600
20
176.854000
11
67.952600
21
160.863000
0
LINE
8
0
10
67.952600
20
160.863000
11
51.301100
21
160.863000
0
LINE
8
0
10
51.301100
20
160.863000
11
51.301100
21
176.854000
0
LINE
8
0
10
67.952600
20
176.854000
11
84.604100
21
176.854000
0
LINE
8
0
10
84.604100
20
176.854000
11
84.604100
21
160.863000
0
LINE
8
0
10
84.604100
20
160.863000
11
67.952600
21
160.863000
0
LINE
8
0
10
67.952600
20
160.863000
11
67.952600
21
176.854000
0
LINE
8
0
10
84.604100
20
176.854000
11
101.256000
21
176.854000
0
LINE
8
0
10
101.256000
20
176.854000
11
101.256000
21
160.863000
0
LINE
8
0
10
101.256000
20
160.863000
11
84.604100
21
160.863000
0
LINE
8
0
10
84.604100
20
160.863000
11
84.604100
21
176.854000
0
LINE
8
0
10
101.256000
20
176.854000
11
117.907000
21
176.854000
0
LINE
8
0
10
117.907000
20
176.854000
11
117.907000
21
160.863000
0
LINE
8
0
10
117.907000
20
160.863000
11
101.256000
21
160.863000
0
LINE
8
0
10
101.256000
20
160.863000
11
101.256000
21
176.854000
0
LINE
8
0
10
117.907000
20
176.854000
11
134.559000
21
176.854000
0
LINE
8
0
10
134.559000
20
176.854000
11
134.559000
21
160.863000
0
LINE
8
0
10
134.559000
20
160.863000
11
117.907000
21
160.863000
0
LINE
8
0
10
117.907000
20
160.863000
11
117.907000
21
176.854000
0
LINE
8
0
10
134.559000
20
176.854000
11
151.210000
21
176.854000
0
LINE
8
0
10
151.210000
20
176.854000
11
151.210000
21
160.863000
0
LINE
8
0
10
151.210000
20
160.863000
11
134.559000
21
160.863000
0
LINE
8
0
10
134.559000
20
160.863000
11
134.559000
21
176.854000
0
LINE
8
0
10
151.210000
20
176.854000
11
167.862000
21
176.854000
0
LINE
8
0
10
167.862000
20
176.854000
11
167.862000
21
160.863000
0
LINE
8
0
10
167.862000
20
160.863000
11
151.210000
21
160.863000
0
LINE
8
0
10
151.210000
20
160.863000
11
151.210000
21
176.854000
0
LINE
8
0
10
167.862000
20
176.854000
11
184.513000
21
176.854000
0
LINE
8
0
10
184.513000
20
176.854000
11
184.513000
21
160.863000
0
LINE
8
0
10
184.513000
20
160.863000
11
167.862000
21
160.863000
0
LINE
8
0
10
167.862000
20
160.863000
11
167.862000
21
176.854000
0
LINE
8
0
10
1.346590
20
160.863000
11
17.998100
21
160.863000
0
LINE
8
0
10
17.998100
20
160.863000
11
17.998100
21
144.872000
0
LINE
8
0
10
17.998100
20
144.872000
11
1.346590
21
144.872000
0
LINE
8
0
10
1.346590
20
144.872000
11
1.346590
21
160.863000
0
LINE
8
0
10
17.998100
20
160.863000
11
34.649600
21
160.863000
0
LINE
8
0
10
34.649600
20
160.863000
11
34.649600
21
144.872000
0
LINE
8
0
10
34.649600
20
144.872000
11
17.998100
21
144.872000
0
LINE
8
0
10
17.998100
20
144.872000
11
17.998100
21
160.863000
0
LINE
8
0
10
34.649600
20
160.863000
11
51.301100
21
160.863000
0
LINE
8
0
10
51.301100
20
160.863000
11
51.301100
21
144.872000
0
LINE
8
0
10
51.301100
20
144.872000
11
34.649600
21
144.872000
0
LINE
8
0
10
34.649600
20
144.872000
11
34.649600
21
160.863000
0
LINE
8
0
10
51.301100
20
160.863000
11
67.952600
21
160.863000
0
LINE
8
0
10
67.952600
20
160.863000
11
67.952600
21
144.872000
0
LINE
8
0
10
67.952600
20
144.872000
11
51.301100
21
144.872000
0
LINE
8
0
10
51.301100
20
144.872000
11
51.301100
21
160.863000
0
LINE
8
0
10
67.952600
20
160.863000
11
84.604100
21
160.863000
0
LINE
8
0
10
84.604100
20
160.863000
11
84.604100
21
144.872000
0
LINE
8
0
10
84.604100
20
144.872000
11
67.952600
21
144.872000
0
LINE
8
0
10
67.952600
20
144.872000
11
67.952600
21
160.863000
0
LINE
8
0
10
84.604100
20
160.863000
11
101.256000
21
160.863000
0
LINE
8
0
10
101.256000
20
160.863000
11
101.256000
21
144.872000
0
LINE
8
0
10
101.256000
20
144.872000
11
84.604100
21
144.872000
0
LINE
8
0
10
84.604100
20
144.872000
11
84.604100
21
160.863000
0
LINE
8
0
10
101.256000
20
160.863000
11
117.907000
21
160.863000
0
LINE
8
0
10
117.907000
20
160.863000
11
117.907000
21
144.872000
0
LINE
8
0
10
117.907000
20
144.872000
11
101.256000
21
144.872000
0
LINE
8
0
10
101.256000
20
144.872000
11
101.256000
21
160.863000
0
LINE
8
0
10
117.907000
20
160.863000
11
134.559000
21
160.863000
0
LINE
8
0
10
134.559000
20
160.863000
11
134.559000
21
144.872000
0
LINE
8
0
10
134.559000
20
144.872000
11
117.907000
21
144.872000
0
LINE
8
0
10
117.907000
20
144.872000
11
117.907000
21
160.863000
0
LINE
8
0
10
134.559000
20
160.863000
11
151.210000
21
160.863000
0
LINE
8
0
10
151.210000
20
160.863000
11
151.210000
21
144.872000
0
LINE
8
0
10
151.210000
20
144.872000
11
134.559000
21
144.872000
0
LINE
8
0
10
134.559000
20
144.872000
11
134.559000
21
160.863000
0
LINE
8
0
10
151.210000
20
160.863000
11
167.862000
21
160.863000
0
LINE
8
0
10
167.862000
20
160.863000
11
167.862000
21
144.872000
0
LINE
8
0
10
167.862000
20
144.872000
11
151.210000
21
144.872000
0
LINE
8
0
10
151.210000
20
144.872000
11
151.210000
21
160.863000
0
LINE
8
0
10
167.862000
20
160.863000
11
184.513000
21
160.863000
0
LINE
8
0
10
184.513000
20
160.863000
11
184.513000
21
144.872000
0
LINE
8
0
10
184.513000
20
144.872000
11
167.862000
21
144.872000
0
LINE
8
0
10
167.862000
20
144.872000
11
167.862000
21
160.863000
0
LINE
8
0
10
1.346590
20
144.872000
11
17.998100
21
144.872000
0
LINE
8
0
10
17.998100
20
144.872000
11
17.998100
21
128.882000
0
LINE
8
0
10
17.998100
20
128.882000
11
1.346590
21
128.882000
0
LINE
8
0
10
1.346590
20
128.882000
11
1.346590
21
144.872000
0
LINE
8
0
10
17.998100
20
144.872000
11
34.649600
21
144.872000
0
LINE
8
0
10
34.649600
20
144.872000
11
34.649600
21
128.882000
0
LINE
8
0
10
34.649600
20
128.882000
11
17.998100
21
128.882000
0
LINE
8
0
10
17.998100
20
128.882000
11
17.998100
21
144.872000
0
LINE
8
0
10
34.649600
20
144.872000
11
51.301100
21
144.872000
0
LINE
8
0
10
51.301100
20
144.872000
11
51.301100
21
128.882000
0
LINE
8
0
10
51.301100
20
128.882000
11
34.649600
21
128.882000
0
LINE
8
0
10
34.649600
20
128.882000
11
34.649600
21
144.872000
0
LINE
8
0
10
51.301100
20
144.872000
11
67.952600
21
144.872000
0
LINE
8
0
10
67.952600
20
144.872000
11
67.952600
21
128.882000
0
LINE
8
0
10
67.952600
20
128.882000
11
51.301100
21
128.882000
0
LINE
8
0
10
51.301100
20
128.882000
11
51.301100
21
144.872000
0
LINE
8
0
10
67.952600
20
144.872000
11
84.604100
21
144.872000
0
LINE
8
0
10
84.604100
20
144.872000
11
84.604100
21
128.882000
0
LINE
8
0
10
84.604100
20
128.882000
11
67.952600
21
128.882000
0
LINE
8
0
10
67.952600
20
128.882000
11
67.952600
21
144.872000
0
LINE
8
0
10
84.604100
20
144.872000
11
101.256000
21
144.872000
0
LINE
8
0
10
101.256000
20
144.872000
11
101.256000
21
128.882000
0
LINE
8
0
10
101.256000
20
128.882000
11
84.604100
21
128.882000
0
LINE
8
0
10
84.604100
20
128.882000
11
84.604100
21
144.872000
0
LINE
8
0
10
101.256000
20
144.872000
11
117.907000
21
144.872000
0
LINE
8
0
10
117.907000
20
144.872000
11
117.907000
21
128.882000
0
LINE
8
0
10
117.907000
20
128.882000
11
101.256000
21
128.882000
0
LINE
8
0
10
101.256000
20
128.882000
11
101.256000
21
144.872000
0
LINE
8
0
10
117.907000
20
144.872000
11
134.559000
21
144.872000
0
LINE
8
0
10
134.559000
20
144.872000
11
134.559000
21
128.882000
0
LINE
8
0
10
134.559000
20
128.882000
11
117.907000
21
128.882000
0
LINE
8
0
10
117.907000
20
128.882000
11
117.907000
21
144.872000
0
LINE
8
0
10
134.559000
20
144.872000
11
151.210000
21
144.872000
0
LINE
8
0
10
151.210000
20
144.872000
11
151.210000
21
128.882000
0
LINE
8
0
10
151.210000
20
128.882000
11
134.559000
21
128.882000
0
LINE
8
0
10
134.559000
20
128.882000
11
134.559000
21
144.872000
0
LINE
8
0
10
151.210000
20
144.872000
11
167.862000
21
144.872000
0
LINE
8
0
10
167.862000
20
144.872000
11
167.862000
21
128.882000
0
LINE
8
0
10
167.862000
20
128.882000
11
151.210000
21
128.882000
0
LINE
8
0
10
151.210000
20
128.882000
11
151.210000
21
144.872000
0
LINE
8
0
10
167.862000
20
144.872000
11
184.513000
21
144.872000
0
LINE
8
0
10
184.513000
20
144.872000
11
184.513000
21
128.882000
0
LINE
8
0
10
184.513000
20
128.882000
11
167.862000
21
128.882000
0
LINE
8
0
10
167.862000
20
128.882000
11
167.862000
21
144.872000
0
LINE
8
0
10
1.346590
20
128.882000
11
17.998100
21
128.882000
0
LINE
8
0
10
17.998100
20
128.882000
11
17.998100
21
112.891000
0
LINE
8
0
10
17.998100
20
112.891000
11
1.346590
21
112.891000
0
LINE
8
0
10
1.346590
20
112.891000
11
1.346590
21
128.882000
0
LINE
8
0
10
17.998100
20
128.882000
11
34.649600
21
128.882000
0
LINE
8
0
10
34.649600
20
128.882000
11
34.649600
21
112.891000
0
LINE
8
0
10
34.649600
20
112.891000
11
17.998100
21
112.891000
0
LINE
8
0
10
17.998100
20
112.891000
11
17.998100
21
128.882000
0
LINE
8
0
10
34.649600
20
128.882000
11
51.301100
21
128.882000
0
LINE
8
0
10
51.301100
20
128.882000
11
51.301100
21
112.891000
0
LINE
8
0
10
51.301100
20
112.891000
11
34.649600
21
112.891000
0
LINE
8
0
10
34.649600
20
112.891000
11
34.649600
21
128.882000
0
LINE
8
0
10
51.301100
20
128.882000
11
67.952600
21
128.882000
0
LINE
8
0
10
67.952600
20
128.882000
11
67.952600
21
112.891000
0
LINE
8
0
10
67.952600
20
112.891000
11
51.301100
21
112.891000
0
LINE
8
0
10
51.301100
20
112.891000
11
51.301100
21
128.882000
0
LINE
8
0
10
67.952600
20
128.882000
11
84.604100
21
128.882000
0
LINE
8
0
10
84.604100
20
128.882000
11
84.604100
21
112.891000
0
LINE
8
0
10
84.604100
20
112.891000
11
67.952600
21
112.891000
0
LINE
8
0
10
67.952600
20
112.891000
11
67.952600
21
128.882000
0
LINE
8
0
10
84.604100
20
128.882000
11
101.256000
21
128.882000
0
LINE
8
0
10
101.256000
20
128.882000
11
101.256000
21
112.891000
0
LINE
8
0
10
101.256000
20
112.891000
11
84.604100
21
112.891000
0
LINE
8
0
10
84.604100
20
112.891000
11
84.604100
21
128.882000
0
LINE
8
0
10
101.256000
20
128.882000
11
117.907000
21
128.882000
0
LINE
8
0
10
117.907000
20
128.882000
11
117.907000
21
112.891000
0
LINE
8
0
10
117.907000
20
112.891000
11
101.256000
21
112.891000
0
LINE
8
0
10
101.256000
20
112.891000
11
101.256000
21
128.882000
0
LINE
8
0
10
117.907000
20
128.882000
11
134.559000
21
128.882000
0
LINE
8
0
10
134.559000
20
128.882000
11
134.559000
21
112.891000
0
LINE
8
0
10
134.559000
20
112.891000
11
117.907000
21
112.891000
0
LINE
8
0
10
117.907000
20
112.891000
11
117.907000
21
128.882000
0
LINE
8
0
10
134.559000
20
128.882000
11
151.210000
21
128.882000
0
LINE
8
0
10
151.210000
20
128.882000
11
151.210000
21
112.891000
0
LINE
8
0
10
151.210000
20
112.891000
11
134.559000
21
112.891000
0
LINE
8
0
10
134.559000
20
112.891000
11
134.559000
21
128.882000
0
LINE
8
0
10
151.210000
20
128.882000
11
167.862000
21
128.882000
0
LINE
8
0
10
167.862000
20
128.882000
11
167.862000
21
112.891000
0
LINE
8
0
10
167.862000
20
112.891000
11
151.210000
21
112.891000
0
LINE
8
0
10
151.210000
20
112.891000
11
151.210000
21
128.882000
0
LINE
8
0
10
167.862000
20
128.882000
11
184.513000
21
128.882000
0
LINE
8
0
10
184.513000
20
128.882000
11
184.513000
21
112.891000
0
LINE
8
0
10
184.513000
20
112.891000
11
167.862000
21
112.891000
0
LINE
8
0
10
167.862000
20
112.891000
11
167.862000
21
128.882000
0
LINE
8
0
10
1.346590
20
112.891000
11
17.998100
21
112.891000
0
LINE
8
0
10
17.998100
20
112.891000
11
17.998100
21
96.900600
0
LINE
8
0
10
17.998100
20
96.900600
11
1.346590
21
96.900600
0
LINE
8
0
10
1.346590
20
96.900600
11
1.346590
21
112.891000
0
LINE
8
0
10
17.998100
20
112.891000
11
34.649600
21
112.891000
0
LINE
8
0
10
34.649600
20
112.891000
11
34.649600
21
96.900600
0
LINE
8
0
10
34.649600
20
96.900600
11
17.998100
21
96.900600
0
LINE
8
0
10
17.998100
20
96.900600
11
17.998100
21
112.891000
0
LINE
8
0
10
34.649600
20
112.891000
11
51.301100
21
112.891000
0
LINE
8
0
10
51.301100
20
112.891000
11
51.301100
21
96.900600
0
LINE
8
0
10
51.301100
20
96.900600
11
34.649600
21
96.900600
0
LINE
8
0
10
34.649600
20
96.900600
11
34.649600
21
112.891000
0
LINE
8
0
10
51.301100
20
112.891000
11
67.952600
21
112.891000
0
LINE
8
0
10
67.952600
20
112.891000
11
67.952600
21
96.900600
0
LINE
8
0
10
67.952600
20
96.900600
11
51.301100
21
96.900600
0
LINE
8
0
10
51.301100
20
96.900600
11
51.301100
21
112.891000
0
LINE
8
0
10
67.952600
20
112.891000
11
84.604100
21
112.891000
0
LINE
8
0
10
84.604100
20
112.891000
11
84.604100
21
96.900600
0
LINE
8
0
10
84.604100
20
96.900600
11
67.952600
21
96.900600
0
LINE
8
0
10
67.952600
20
96.900600
11
67.952600
21
112.891000
0
LINE
8
0
10
84.604100
20
112.891000
11
101.256000
21
112.891000
0
LINE
8
0
10
101.256000
20
112.891000
11
101.256000
21
96.900600
0
LINE
8
0
10
101.256000
20
96.900600
11
84.604100
21
96.900600
0
LINE
8
0
10
84.604100
20
96.900600
11
84.604100
21
112.891000
0
LINE
8
0
10
101.256000
20
112.891000
11
117.907000
21
112.891000
0
LINE
8
0
10
117.907000
20
112.891000
11
117.907000
21
96.900600
0
LINE
8
0
10
117.907000
20
96.900600
11
101.256000
21
96.900600
0
LINE
8
0
10
101.256000
20
96.900600
11
101.256000
21
112.891000
0
LINE
8
0
10
117.907000
20
112.891000
11
134.559000
21
112.891000
0
LINE
8
0
10
134.559000
20
112.891000
11
134.559000
21
96.900600
0
LINE
8
0
10
134.559000
20
96.900600
11
117.907000
21
96.900600
0
LINE
8
0
10
117.907000
20
96.900600
11
117.907000
21
112.891000
0
LINE
8
0
10
134.559000
20
112.891000
11
151.210000
21
112.891000
0
LINE
8
0
10
151.210000
20
112.891000
11
151.210000
21
96.900600
0
LINE
8
0
10
151.210000
20
96.900600
11
134.559000
21
96.900600
0
LINE
8
0
10
134.559000
20
96.900600
11
134.559000
21
112.891000
0
LINE
8
0
10
151.210000
20
112.891000
11
167.862000
21
112.891000
0
LINE
8
0
10
167.862000
20
112.891000
11
167.862000
21
96.900600
0
LINE
8
0
10
167.862000
20
96.900600
11
151.210000
21
96.900600
0
LINE
8
0
10
151.210000
20
96.900600
11
151.210000
21
112.891000
0
LINE
8
0
10
167.862000
20
112.891000
11
184.513000
21
112.891000
0
LINE
8
0
10
184.513000
20
112.891000
11
184.513000
21
96.900600
0
LINE
8
0
10
184.513000
20
96.900600
11
167.862000
21
96.900600
0
LINE
8
0
10
167.862000
20
96.900600
11
167.862000
21
112.891000
0
LINE
8
0
10
1.346590
20
96.900600
11
17.998100
21
96.900600
0
LINE
8
0
10
17.998100
20
96.900600
11
17.998100
21
80.910000
0
LINE
8
0
10
17.998100
20
80.910000
11
1.346590
21
80.910000
0
LINE
8
0
10
1.346590
20
80.910000
11
1.346590
21
96.900600
0
LINE
8
0
10
17.998100
20
96.900600
11
34.649600
21
96.900600
0
LINE
8
0
10
34.649600
20
96.900600
11
34.649600
21
80.910000
0
LINE
8
0
10
34.649600
20
80.910000
11
17.998100
21
80.910000
0
LINE
8
0
10
17.998100
20
80.910000
11
17.998100
21
96.900600
0
LINE
8
0
10
34.649600
20
96.900600
11
51.301100
21
96.900600
0
LINE
8
0
10
51.301100
20
96.900600
11
51.301100
21
80.910000
0
LINE
8
0
10
51.301100
20
80.910000
11
34.649600
21
80.910000
0
LINE
8
0
10
34.649600
20
80.910000
11
34.649600
21
96.900600
0
LINE
8
0
10
51.301100
20
96.900600
11
67.952600
21
96.900600
0
LINE
8
0
10
67.952600
20
96.900600
11
67.952600
21
80.910000
0
LINE
8
0
10
67.952600
20
80.910000
11
51.301100
21
80.910000
0
LINE
8
0
10
51.301100
20
80.910000
11
51.301100
21
96.900600
0
LINE
8
0
10
67.952600
20
96.900600
11
84.604100
21
96.900600
0
LINE
8
0
10
84.604100
20
96.900600
11
84.604100
21
80.910000
0
LINE
8
0
10
84.604100
20
80.910000
11
67.952600
21
80.910000
0
LINE
8
0
10
67.952600
20
80.910000
11
67.952600
21
96.900600
0
LINE
8
0
10
84.604100
20
96.900600
11
101.256000
21
96.900600
0
LINE
8
0
10
101.256000
20
96.900600
11
101.256000
21
80.910000
0
LINE
8
0
10
101.256000
20
80.910000
11
84.604100
21
80.910000
0
LINE
8
0
10
84.604100
20
80.910000
11
84.604100
21
96.900600
0
LINE
8
0
10
101.256000
20
96.900600
11
117.907000
21
96.900600
0
LINE
8
0
10
117.907000
20
96.900600
11
117.907000
21
80.910000
0
LINE
8
0
10
117.907000
20
80.910000
11
101.256000
21
80.910000
0
LINE
8
0
10
101.256000
20
80.910000
11
101.256000
21
96.900600
0
LINE
8
0
10
117.907000
20
96.900600
11
134.559000
21
96.900600
0
LINE
8
0
10
134.559000
20
96.900600
11
134.559000
21
80.910000
0
LINE
8
0
10
134.559000
20
80.910000
11
117.907000
21
80.910000
0
LINE
8
0
10
117.907000
20
80.910000
11
117.907000
21
96.900600
0
LINE
8
0
10
134.559000
20
96.900600
11
151.210000
21
96.900600
0
LINE
8
0
10
151.210000
20
96.900600
11
151.210000
21
80.910000
0
LINE
8
0
10
151.210000
20
80.910000
11
134.559000
21
80.910000
0
LINE
8
0
10
134.559000
20
80.910000
11
134.559000
21
96.900600
0
LINE
8
0
10
151.210000
20
96.900600
11
167.862000
21
96.900600
0
LINE
8
0
10
167.862000
20
96.900600
11
167.862000
21
80.910000
0
LINE
8
0
10
167.862000
20
80.910000
11
151.210000
21
80.910000
0
LINE
8
0
10
151.210000
20
80.910000
11
151.210000
21
96.900600
0
LINE
8
0
10
167.862000
20
96.900600
11
184.513000
21
96.900600
0
LINE
8
0
10
184.513000
20
96.900600
11
184.513000
21
80.910000
0
LINE
8
0
10
184.513000
20
80.910000
11
167.862000
21
80.910000
0
LINE
8
0
10
167.862000
20
80.910000
11
167.862000
21
96.900600
0
LINE
8
0
10
1.346590
20
80.910000
11
17.998100
21
80.910000
0
LINE
8
0
10
17.998100
20
80.910000
11
17.998100
21
64.919400
0
LINE
8
0
10
17.998100
20
64.919400
11
1.346590
21
64.919400
0
LINE
8
0
10
1.346590
20
64.919400
11
1.346590
21
80.910000
0
LINE
8
0
10
17.998100
20
80.910000
11
34.649600
21
80.910000
0
LINE
8
0
10
34.649600
20
80.910000
11
34.649600
21
64.919400
0
LINE
8
0
10
34.649600
20
64.919400
11
17.998100
21
64.919400
0
LINE
8
0
10
17.998100
20
64.919400
11
17.998100
21
80.910000
0
LINE
8
0
10
34.649600
20
80.910000
11
51.301100
21
80.910000
0
LINE
8
0
10
51.301100
20
80.910000
11
51.301100
21
64.919400
0
LINE
8
0
10
51.301100
20
64.919400
11
34.649600
21
64.919400
0
LINE
8
0
10
34.649600
20
64.919400
11
34.649600
21
80.910000
0
LINE
8
0
10
51.301100
20
80.910000
11
67.952600
21
80.910000
0
LINE
8
0
10
67.952600
20
80.910000
11
67.952600
21
64.919400
0
LINE
8
0
10
67.952600
20
64.919400
11
51.301100
21
64.919400
0
LINE
8
0
10
51.301100
20
64.919400
11
51.301100
21
80.910000
0
LINE
8
0
10
67.952600
20
80.910000
11
84.604100
21
80.910000
0
LINE
8
0
10
84.604100
20
80.910000
11
84.604100
21
64.919400
0
LINE
8
0
10
84.604100
20
64.919400
11
67.952600
21
64.919400
0
LINE
8
0
10
67.952600
20
64.919400
11
67.952600
21
80.910000
0
LINE
8
0
10
84.604100
20
80.910000
11
101.256000
21
80.910000
0
LINE
8
0
10
101.256000
20
80.910000
11
101.256000
21
64.919400
0
LINE
8
0
10
101.256000
20
64.919400
11
84.604100
21
64.919400
0
LINE
8
0
10
84.604100
20
64.919400
11
84.604100
21
80.910000
0
LINE
8
0
10
101.256000
20
80.910000
11
117.907000
21
80.910000
0
LINE
8
0
10
117.907000
20
80.910000
11
117.907000
21
64.919400
0
LINE
8
0
10
117.907000
20
64.919400
11
101.256000
21
64.919400
0
LINE
8
0
10
101.256000
20
64.919400
11
101.256000
21
80.910000
0
LINE
8
0
10
117.907000
20
80.910000
11
134.559000
21
80.910000
0
LINE
8
0
10
134.559000
20
80.910000
11
134.559000
21
64.919400
0
LINE
8
0
10
134.559000
20
64.919400
11
117.907000
21
64.919400
0
LINE
8
0
10
117.907000
20
64.919400
11
117.907000
21
80.910000
0
LINE
8
0
10
134.559000
20
80.910000
11
151.210000
21
80.910000
0
LINE
8
0
10
151.210000
20
80.910000
11
151.210000
21
64.919400
0
LINE
8
0
10
151.210000
20
64.919400
11
134.559000
21
64.919400
0
LINE
8
0
10
134.559000
20
64.919400
11
134.559000
21
80.910000
0
LINE
8
0
10
151.210000
20
80.910000
11
167.862000
21
80.910000
0
LINE
8
0
10
167.862000
20
80.910000
11
167.862000
21
64.919400
0
LINE
8
0
10
167.862000
20
64.919400
11
151.210000
21
64.919400
0
LINE
8
0
10
151.210000
20
64.919400
11
151.210000
21
80.910000
0
LINE
8
0
10
167.862000
20
80.910000
11
184.513000
21
80.910000
0
LINE
8
0
10
184.513000
20
80.910000
11
184.513000
21
64.919400
0
LINE
8
0
10
184.513000
20
64.919400
11
167.862000
21
64.919400
0
LINE
8
0
10
167.862000
20
64.919400
11
167.862000
21
80.910000
0
LINE
8
0
10
1.346590
20
64.919400
11
17.998100
21
64.919400
0
LINE
8
0
10
17.998100
20
64.919400
11
17.998100
21
48.928800
0
LINE
8
0
10
17.998100
20
48.928800
11
1.346590
21
48.928800
0
LINE
8
0
10
1.346590
20
48.928800
11
1.346590
21
64.919400
0
LINE
8
0
10
17.998100
20
64.919400
11
34.649600
21
64.919400
0
LINE
8
0
10
34.649600
20
64.919400
11
34.649600
21
48.928800
0
LINE
8
0
10
34.649600
20
48.928800
11
17.998100
21
48.928800
0
LINE
8
0
10
17.998100
20
48.928800
11
17.998100
21
64.919400
0
LINE
8
0
10
34.649600
20
64.919400
11
51.301100
21
64.919400
0
LINE
8
0
10
51.301100
20
64.919400
11
51.301100
21
48.928800
0
LINE
8
0
10
51.301100
20
48.928800
11
34.649600
21
48.928800
0
LINE
8
0
10
34.649600
20
48.928800
11
34.649600
21
64.919400
0
LINE
8
0
10
51.301100
20
64.919400
11
67.952600
21
64.919400
0
LINE
8
0
10
67.952600
20
64.919400
11
67.952600
21
48.928800
0
LINE
8
0
10
67.952600
20
48.928800
11
51.301100
21
48.928800
0
LINE
8
0
10
51.301100
20
48.928800
11
51.301100
21
64.919400
0
LINE
8
0
10
67.952600
20
64.919400
11
84.604100
21
64.919400
0
LINE
8
0
10
84.604100
20
64.919400
11
84.604100
21
48.928800
0
LINE
8
0
10
84.604100
20
48.928800
11
67.952600
21
48.928800
0
LINE
8
0
10
67.952600
20
48.928800
11
67.952600
21
64.919400
0
LINE
8
0
10
84.604100
20
64.919400
11
101.256000
21
64.919400
0
LINE
8
0
10
101.256000
20
64.919400
11
101.256000
21
48.928800
0
LINE
8
0
10
101.256000
20
48.928800
11
84.604100
21
48.928800
0
LINE
8
0
10
84.604100
20
48.928800
11
84.604100
21
64.919400
0
LINE
8
0
10
101.256000
20
64.919400
11
117.907000
21
64.919400
0
LINE
8
0
10
117.907000
20
64.919400
11
117.907000
21
48.928800
0
LINE
8
0
10
117.907000
20
48.928800
11
101.256000
21
48.928800
0
LINE
8
0
10
101.256000
20
48.928800
11
101.256000
21
64.919400
0
LINE
8
0
10
117.907000
20
64.919400
11
134.559000
21
64.919400
0
LINE
8
0
10
134.559000
20
64.919400
11
134.559000
21
48.928800
0
LINE
8
0
10
134.559000
20
48.928800
11
117.907000
21
48.928800
0
LINE
8
0
10
117.907000
20
48.928800
11
117.907000
21
64.919400
0
LINE
8
0
10
134.559000
20
64.919400
11
151.210000
21
64.919400
0
LINE
8
0
10
151.210000
20
64.919400
11
151.210000
21
48.928800
0
LINE
8
0
10
151.210000
20
48.928800
11
134.559000
21
48.928800
0
LINE
8
0
10
134.559000
20
48.928800
11
134.559000
21
64.919400
0
LINE
8
0
10
151.210000
20
64.919400
11
167.862000
21
64.919400
0
LINE
8
0
10
167.862000
20
64.919400
11
167.862000
21
48.928800
0
LINE
8
0
10
167.862000
20
48.928800
11
151.210000
21
48.928800
0
LINE
8
0
10
151.210000
20
48.928800
11
151.210000
21
64.919400
0
LINE
8
0
10
167.862000
20
64.919400
11
184.513000
21
64.919400
0
LINE
8
0
10
184.513000
20
64.919400
11
184.513000
21
48.928800
0
LINE
8
0
10
184.513000
20
48.928800
11
167.862000
21
48.928800
0
LINE
8
0
10
167.862000
20
48.928800
11
167.862000
21
64.919400
0
LINE
8
0
10
1.346590
20
48.928800
11
17.998100
21
48.928800
0
LINE
8
0
10
17.998100
20
48.928800
11
17.998100
21
32.938200
0
LINE
8
0
10
17.998100
20
32.938200
11
1.346590
21
32.938200
0
LINE
8
0
10
1.346590
20
32.938200
11
1.346590
21
48.928800
0
LINE
8
0
10
17.998100
20
48.928800
11
34.649600
21
48.928800
0
LINE
8
0
10
34.649600
20
48.928800
11
34.649600
21
32.938200
0
LINE
8
0
10
34.649600
20
32.938200
11
17.998100
21
32.938200
0
LINE
8
0
10
17.998100
20
32.938200
11
17.998100
21
48.928800
0
LINE
8
0
10
34.649600
20
48.928800
11
51.301100
21
48.928800
0
LINE
8
0
10
51.301100
20
48.928800
11
51.301100
21
32.938200
0
LINE
8
0
10
51.301100
20
32.938200
11
34.649600
21
32.938200
0
LINE
8
0
10
34.649600
20
32.938200
11
34.649600
21
48.928800
0
LINE
8
0
10
51.301100
20
48.928800
11
67.952600
21
48.928800
0
LINE
8
0
10
67.952600
20
48.928800
11
67.952600
21
32.938200
0
LINE
8
0
10
67.952600
20
32.938200
11
51.301100
21
32.938200
0
LINE
8
0
10
51.301100
20
32.938200
11
51.301100
21
48.928800
0
LINE
8
0
10
67.952600
20
48.928800
11
84.604100
21
48.928800
0
LINE
8
0
10
84.604100
20
48.928800
11
84.604100
21
32.938200
0
LINE
8
0
10
84.604100
20
32.938200
11
67.952600
21
32.938200
0
LINE
8
0
10
67.952600
20
32.938200
11
67.952600
21
48.928800
0
LINE
8
0
10
84.604100
20
48.928800
11
101.256000
21
48.928800
0
LINE
8
0
10
101.256000
20
48.928800
11
101.256000
21
32.938200
0
LINE
8
0
10
101.256000
20
32.938200
11
84.604100
21
32.938200
0
LINE
8
0
10
84.604100
20
32.938200
11
84.604100
21
48.928800
0
LINE
8
0
10
101.256000
20
48.928800
11
117.907000
21
48.928800
0
LINE
8
0
10
117.907000
20
48.928800
11
117.907000
21
32.938200
0
LINE
8
0
10
117.907000
20
32.938200
11
101.256000
21
32.938200
0
LINE
8
0
10
101.256000
20
32.938200
11
101.256000
21
48.928800
0
LINE
8
0
10
117.907000
20
48.928800
11
134.559000
21
48.928800
0
LINE
8
0
10
134.559000
20
48.928800
11
134.559000
21
32.938200
0
LINE
8
0
10
134.559000
20
32.938200
11
117.907000
21
32.938200
0
LINE
8
0
10
117.907000
20
32.938200
11
117.907000
21
48.928800
0
LINE
8
0
10
134.559000
20
48.928800
11
151.210000
21
48.928800
0
LINE
8
0
10
151.210000
20
48.928800
11
151.210000
21
32.938200
0
LINE
8
0
10
151.210000
20
32.938200
11
134.559000
21
32.938200
0
LINE
8
0
10
134.559000
20
32.938200
11
134.559000
21
48.928800
0
LINE
8
0
10
151.210000
20
48.928800
11
167.862000
21
48.928800
0
LINE
8
0
10
167.862000
20
48.928800
11
167.862000
21
32.938200
0
LINE
8
0
10
167.862000
20
32.938200
11
151.210000
21
32.938200
0
LINE
8
0
10
151.210000
20
32.938200
11
151.210000
21
48.928800
0
LINE
8
0
10
167.862000
20
48.928800
11
184.513000
21
48.928800
0
LINE
8
0
10
184.513000
20
48.928800
11
184.513000
21
32.938200
0
LINE
8
0
10
184.513000
20
32.938200
11
167.862000
21
32.938200
0
LINE
8
0
10
167.862000
20
32.938200
11
167.862000
21
48.928800
0
LINE
8
0
10
1.346590
20
32.938200
11
17.998100
21
32.938200
0
LINE
8
0
10
17.998100
20
32.938200
11
17.998100
21
16.947600
0
LINE
8
0
10
17.998100
20
16.947600
11
1.346590
21
16.947600
0
LINE
8
0
10
1.346590
20
16.947600
11
1.346590
21
32.938200
0
LINE
8
0
10
17.998100
20
32.938200
11
34.649600
21
32.938200
0
LINE
8
0
10
34.649600
20
32.938200
11
34.649600
21
16.947600
0
LINE
8
0
10
34.649600
20
16.947600
11
17.998100
21
16.947600
0
LINE
8
0
10
17.998100
20
16.947600
11
17.998100
21
32.938200
0
LINE
8
0
10
34.649600
20
32.938200
11
51.301100
21
32.938200
0
LINE
8
0
10
51.301100
20
32.938200
11
51.301100
21
16.947600
0
LINE
8
0
10
51.301100
20
16.947600
11
34.649600
21
16.947600
0
LINE
8
0
10
34.649600
20
16.947600
11
34.649600
21
32.938200
0
LINE
8
0
10
51.301100
20
32.938200
11
67.952600
21
32.938200
0
LINE
8
0
10
67.952600
20
32.938200
11
67.952600
21
16.947600
0
LINE
8
0
10
67.952600
20
16.947600
11
51.301100
21
16.947600
0
LINE
8
0
10
51.301100
20
16.947600
11
51.301100
21
32.938200
0
LINE
8
0
10
67.952600
20
32.938200
11
84.604100
21
32.938200
0
LINE
8
0
10
84.604100
20
32.938200
11
84.604100
21
16.947600
0
LINE
8
0
10
84.604100
20
16.947600
11
67.952600
21
16.947600
0
LINE
8
0
10
67.952600
20
16.947600
11
67.952600
21
32.938200
0
LINE
8
0
10
84.604100
20
32.938200
11
101.256000
21
32.938200
0
LINE
8
0
10
101.256000
20
32.938200
11
101.256000
21
16.947600
0
LINE
8
0
10
101.256000
20
16.947600
11
84.604100
21
16.947600
0
LINE
8
0
10
84.604100
20
16.947600
11
84.604100
21
32.938200
0
LINE
8
0
10
101.256000
20
32.938200
11
117.907000
21
32.938200
0
LINE
8
0
10
117.907000
20
32.938200
11
117.907000
21
16.947600
0
LINE
8
0
10
117.907000
20
16.947600
11
101.256000
21
16.947600
0
LINE
8
0
10
101.256000
20
16.947600
11
101.256000
21
32.938200
0
LINE
8
0
10
117.907000
20
32.938200
11
134.559000
21
32.938200
0
LINE
8
0
10
134.559000
20
32.938200
11
134.559000
21
16.947600
0
LINE
8
0
10
134.559000
20
16.947600
11
117.907000
21
16.947600
0
LINE
8
0
10
117.907000
20
16.947600
11
117.907000
21
32.938200
0
LINE
8
0
10
134.559000
20
32.938200
11
151.210000
21
32.938200
0
LINE
8
0
10
151.210000
20
32.938200
11
151.210000
21
16.947600
0
LINE
8
0
10
151.210000
20
16.947600
11
134.559000
21
16.947600
0
LINE
8
0
10
134.559000
20
16.947600
11
134.559000
21
32.938200
0
LINE
8
0
10
151.210000
20
32.938200
11
167.862000
21
32.938200
0
LINE
8
0
10
167.862000
20
32.938200
11
167.862000
21
16.947600
0
LINE
8
0
10
167.862000
20
16.947600
11
151.210000
21
16.947600
0
LINE
8
0
10
151.210000
20
16.947600
11
151.210000
21
32.938200
0
LINE
8
0
10
167.862000
20
32.938200
11
184.513000
21
32.938200
0
LINE
8
0
10
184.513000
20
32.938200
11
184.513000
21
16.947600
0
LINE
8
0
10
184.513000
20
16.947600
11
167.862000
21
16.947600
0
LINE
8
0
10
167.862000
20
16.947600
11
167.862000
21
32.938200
0
LINE
8
0
10
1.346590
20
16.947600
11
17.998100
21
16.947600
0
LINE
8
0
10
17.998100
20
16.947600
11
17.998100
21
0.957023
0
LINE
8
0
10
17.998100
20
0.957023
11
1.346590
21
0.957023
0
LINE
8
0
10
1.346590
20
0.957023
11
1.346590
21
16.947600
0
LINE
8
0
10
17.998100
20
16.947600
11
34.649600
21
16.947600
0
LINE
8
0
10
34.649600
20
16.947600
11
34.649600
21
0.957023
0
LINE
8
0
10
34.649600
20
0.957023
11
17.998100
21
0.957023
0
LINE
8
0
10
17.998100
20
0.957023
11
17.998100
21
16.947600
0
LINE
8
0
10
34.649600
20
16.947600
11
51.301100
21
16.947600
0
LINE
8
0
10
51.301100
20
16.947600
11
51.301100
21
0.957023
0
LINE
8
0
10
51.301100
20
0.957023
11
34.649600
21
0.957023
0
LINE
8
0
10
34.649600
20
0.957023
11
34.649600
21
16.947600
0
LINE
8
0
10
51.301100
20
16.947600
11
67.952600
21
16.947600
0
LINE
8
0
10
67.952600
20
16.947600
11
67.952600
21
0.957023
0
LINE
8
0
10
67.952600
20
0.957023
11
51.301100
21
0.957023
0
LINE
8
0
10
51.301100
20
0.957023
11
51.301100
21
16.947600
0
LINE
8
0
10
67.952600
20
16.947600
11
84.604100
21
16.947600
0
LINE
8
0
10
84.604100
20
16.947600
11
84.604100
21
0.957023
0
LINE
8
0
10
84.604100
20
0.957023
11
67.952600
21
0.957023
0
LINE
8
0
10
67.952600
20
0.957023
11
67.952600
21
16.947600
0
LINE
8
0
10
84.604100
20
16.947600
11
101.256000
21
16.947600
0
LINE
8
0
10
101.256000
20
16.947600
11
101.256000
21
0.957023
0
LINE
8
0
10
101.256000
20
0.957023
11
84.604100
21
0.957023
0
LINE
8
0
10
84.604100
20
0.957023
11
84.604100
21
16.947600
0
LINE
8
0
10
101.256000
20
16.947600
11
117.907000
21
16.947600
0
LINE
8
0
10
117.907000
20
16.947600
11
117.907000
21
0.957023
0
LINE
8
0
10
117.907000
20
0.957023
11
101.256000
21
0.957023
0
LINE
8
0
10
101.256000
20
0.957023
11
101.256000
21
16.947600
0
LINE
8
0
10
117.907000
20
16.947600
11
134.559000
21
16.947600
0
LINE
8
0
10
134.559000
20
16.947600
11
134.559000
21
0.957023
0
LINE
8
0
10
134.559000
20
0.957023
11
117.907000
21
0.957023
0
LINE
8
0
10
117.907000
20
0.957023
11
117.907000
21
16.947600
0
LINE
8
0
10
134.559000
20
16.947600
11
151.210000
21
16.947600
0
LINE
8
0
10
151.210000
20
16.947600
11
151.210000
21
0.957023
0
LINE
8
0
10
151.210000
20
0.957023
11
134.559000
21
0.957023
0
LINE
8
0
10
134.559000
20
0.957023
11
134.559000
21
16.947600
0
LINE
8
0
10
151.210000
20
16.947600
11
167.862000
21
16.947600
0
LINE
8
0
10
167.862000
20
16.947600
11
167.862000
21
0.957023
0
LINE
8
0
10
167.862000
20
0.957023
11
151.210000
21
0.957023
0
LINE
8
0
10
151.210000
20
0.957023
11
151.210000
21
16.947600
0
LINE
8
0
10
179.395000
20
5.005620
11
178.830101
21
4.802688
0
LINE
8
0
10
178.830101
20
4.802688
11
178.237950
21
4.861158
0
LINE
8
0
10
178.238000
20
4.861160
11
177.719132
21
5.186782
0
LINE
8
0
10
177.719000
20
5.186780
11
177.393142
21
5.709464
0
LINE
8
0
10
177.393000
20
5.709460
11
177.329941
21
6.261328
0
LINE
8
0
10
177.329941
20
6.261328
11
177.507133
21
6.815420
0
LINE
8
0
10
177.507000
20
6.815420
11
177.978617
21
7.287013
0
LINE
8
0
10
177.979000
20
7.287010
11
178.712609
21
7.467032
0
LINE
8
0
10
178.712000
20
7.467030
11
179.369182
21
7.273540
0
LINE
8
0
10
179.369000
20
7.273550
11
179.804374
21
6.838390
0
LINE
8
0
10
179.805000
20
6.838390
11
179.995572
21
6.242612
0
LINE
8
0
10
179.995572
20
6.242612
11
179.902422
21
5.615380
0
LINE
8
0
10
179.902000
20
5.615380
11
179.394440
21
5.005622
0
LINE
8
0
10
167.862000
20
16.947600
11
184.513000
21
16.947600
0
LINE
8
0
10
184.513000
20
16.947600
11
184.513000
21
0.957023
0
LINE
8
0
10
184.513000
20
0.957023
11
167.862000
21
0.957023
0
LINE
8
0
10
167.862000
20
0.957023
11
167.862000
21
16.947600
0
LINE
8
0
10
174.545000
20
5.326130
11
174.666179
21
6.275925
0
LINE
8
0
10
174.666179
20
6.275925
11
174.956752
21
7.187840
0
LINE
8
0
10
174.957000
20
7.187850
11
175.837005
21
8.559335
0
LINE
8
0
10
175.837005
20
8.559335
11
177.094500
21
9.581740
0
LINE
8
0
10
177.094000
20
9.581740
11
178.229869
21
10.055281
0
LINE
8
0
10
178.229869
20
10.055281
11
179.431150
21
10.246187
0
LINE
8
0
10
175.173000
20
5.182780
11
174.541967
21
5.186220
0
LINE
8
0
10
174.541967
20
5.186220
11
174.545327
21
5.326079
0
LINE
8
0
10
179.491000
20
8.986350
11
178.372181
21
8.776112
0
LINE
8
0
10
178.372181
20
8.776112
11
177.335480
21
8.235754
0
LINE
8
0
10
177.336000
20
8.235750
11
176.558216
21
7.458511
0
LINE
8
0
10
176.558000
20
7.458520
11
176.017246
21
6.419895
0
LINE
8
0
10
176.017246
20
6.419895
11
175.807584
21
5.302830
0
LINE
8
0
10
179.431000
20
10.246200
11
179.606744
21
10.250962
0
LINE
8
0
10
179.606744
20
10.250962
11
179.610660
21
9.620646
0
LINE
8
0
10
179.610660
20
9.620646
11
179.614576
21
8.990303
0
LINE
8
0
10
179.614576
20
8.990303
11
179.491018
21
8.986335
0
LINE
8
0
10
175.808000
20
5.302830
11
175.803978
21
5.179349
0
LINE
8
0
10
175.803978
20
5.179349
11
175.172945
21
5.182789
0
LINE
8
0
10
175.172945
20
5.182789
11
175.172000
21
5.182730
0
LINE
8
0
10
172.013000
20
5.454400
11
172.122654
21
6.521311
0
LINE
8
0
10
172.122654
20
6.521311
11
172.393066
21
7.578101
0
LINE
8
0
10
172.393066
20
7.578101
11
172.813499
21
8.592586
0
LINE
8
0
10
172.813499
20
8.592586
11
173.373220
21
9.532580
0
LINE
8
0
10
173.373000
20
9.532580
11
174.241234
21
10.552760
0
LINE
8
0
10
174.241000
20
10.552800
11
175.261200
21
11.421003
0
LINE
8
0
10
175.261000
20
11.421000
11
176.200975
21
11.980646
0
LINE
8
0
10
176.200975
20
11.980646
11
177.215672
21
12.401089
0
LINE
8
0
10
177.215672
20
12.401089
11
178.272749
21
12.671542
0
LINE
8
0
10
178.272749
20
12.671542
11
179.339860
21
12.781220
0
LINE
8
0
10
172.637000
20
5.185460
11
172.006000
21
5.185460
0
LINE
8
0
10
172.006000
20
5.185460
11
172.012535
21
5.455732
0
LINE
8
0
10
179.382000
20
11.519700
11
178.382003
21
11.405861
0
LINE
8
0
10
178.382003
20
11.405861
11
177.407809
21
11.128696
0
LINE
8
0
10
177.407809
20
11.128696
11
176.480525
21
10.696091
0
LINE
8
0
10
176.480525
20
10.696091
11
175.621260
21
10.115930
0
LINE
8
0
10
175.621000
20
10.115900
11
174.677785
21
9.172715
0
LINE
8
0
10
174.678000
20
9.172720
11
174.097740
21
8.313407
0
LINE
8
0
10
174.097740
20
8.313407
11
173.665141
21
7.386217
0
LINE
8
0
10
173.665141
20
7.386217
11
173.388021
21
6.412097
0
LINE
8
0
10
173.388021
20
6.412097
11
173.274200
21
5.411990
0
LINE
8
0
10
179.340000
20
12.781200
11
179.610883
21
12.787815
0
LINE
8
0
10
179.610883
20
12.787815
11
179.608766
21
12.157076
0
LINE
8
0
10
179.608766
20
12.157076
11
179.606650
21
11.526363
0
LINE
8
0
10
179.606650
20
11.526363
11
179.381519
21
11.519748
0
LINE
8
0
10
57.987600
20
9.158620
11
58.110548
21
9.815705
0
LINE
8
0
10
58.110548
20
9.815705
11
58.479394
21
10.366230
0
LINE
8
0
10
58.479400
20
10.366200
11
59.029937
21
10.739140
0
LINE
8
0
10
59.029937
20
10.739140
11
59.687030
21
10.863457
0
LINE
8
0
10
59.687000
20
10.863500
11
60.344092
21
10.739183
0
LINE
8
0
10
60.344092
20
10.739183
11
60.894630
21
10.366243
0
LINE
8
0
10
60.894600
20
10.366200
11
61.267542
21
9.818414
0
LINE
8
0
10
61.267542
20
9.818414
11
61.391857
21
9.158590
0
LINE
8
0
10
61.391900
20
9.158620
11
61.167864
21
8.306213
0
LINE
8
0
10
61.167900
20
8.306210
11
60.544958
21
7.688726
0
LINE
8
0
10
60.544900
20
7.688730
11
59.686992
21
7.459231
0
LINE
8
0
10
59.687000
20
7.459230
11
59.029906
21
7.582178
0
LINE
8
0
10
59.029906
20
7.582178
11
58.479370
21
7.951010
0
LINE
8
0
10
58.479400
20
7.951010
11
58.110554
21
8.498816
0
LINE
8
0
10
58.110554
20
8.498816
11
57.987606
21
9.158620
0
LINE
8
0
10
173.274000
20
5.411990
11
173.267385
21
5.186750
0
LINE
8
0
10
173.267385
20
5.186750
11
172.637000
21
5.186750
0
LINE
8
0
10
58.616000
20
9.158620
11
58.695234
21
8.744713
0
LINE
8
0
10
58.695234
20
8.744713
11
58.932936
21
8.399108
0
LINE
8
0
10
58.932900
20
8.399110
11
59.285351
21
8.165510
0
LINE
8
0
10
59.285351
20
8.165510
11
59.697913
21
8.087643
0
LINE
8
0
10
59.697900
20
8.087640
11
60.103631
21
8.164138
0
LINE
8
0
10
60.103631
20
8.164138
11
60.446522
21
8.393630
0
LINE
8
0
10
60.446600
20
8.393630
11
60.684300
21
8.740604
0
LINE
8
0
10
60.684300
20
8.740604
11
60.763533
21
9.158619
0
LINE
8
0
10
60.763500
20
9.158620
11
60.685633
21
9.579376
0
LINE
8
0
10
60.685633
20
9.579376
11
60.452028
21
9.923635
0
LINE
8
0
10
60.452000
20
9.923640
11
60.110479
21
10.157227
0
LINE
8
0
10
60.110479
20
10.157227
11
59.697917
21
10.235081
0
LINE
8
0
10
59.697900
20
10.235100
11
59.278508
21
10.157246
0
LINE
8
0
10
59.278508
20
10.157246
11
58.927421
21
9.923659
0
LINE
8
0
10
58.927500
20
9.923640
11
58.693898
21
9.576653
0
LINE
8
0
10
58.693898
20
9.576653
11
58.616030
21
9.158625
0
LINE
8
0
10
74.552600
20
9.126900
11
74.675548
21
9.783985
0
LINE
8
0
10
74.675548
20
9.783985
11
75.044396
21
10.334510
0
LINE
8
0
10
75.044400
20
10.334500
11
75.594936
21
10.707439
0
LINE
8
0
10
75.594936
20
10.707439
11
76.252030
21
10.831757
0
LINE
8
0
10
76.252000
20
10.831800
11
76.909093
21
10.707483
0
LINE
8
0
10
76.909093
20
10.707483
11
77.459630
21
10.334543
0
LINE
8
0
10
77.459600
20
10.334500
11
77.832545
21
9.786714
0
LINE
8
0
10
77.832545
20
9.786714
11
77.956860
21
9.126890
0
LINE
8
0
10
77.956900
20
9.126900
11
77.732859
21
8.274493
0
LINE
8
0
10
77.732900
20
8.274490
11
77.109960
21
7.657006
0
LINE
8
0
10
77.109900
20
7.657010
11
76.251992
21
7.427511
0
LINE
8
0
10
76.252000
20
7.427510
11
75.594907
21
7.550458
0
LINE
8
0
10
75.594907
20
7.550458
11
75.044370
21
7.919290
0
LINE
8
0
10
75.044400
20
7.919290
11
74.675552
21
8.467096
0
LINE
8
0
10
74.675552
20
8.467096
11
74.552604
21
9.126900
0
LINE
8
0
10
75.181000
20
9.126900
11
75.260234
21
8.712980
0
LINE
8
0
10
75.260234
20
8.712980
11
75.497936
21
8.367362
0
LINE
8
0
10
75.497900
20
8.367360
11
75.850352
21
8.133773
0
LINE
8
0
10
75.850352
20
8.133773
11
76.262913
21
8.055919
0
LINE
8
0
10
76.262900
20
8.055920
11
76.668632
21
8.132418
0
LINE
8
0
10
76.668632
20
8.132418
11
77.011522
21
8.361910
0
LINE
8
0
10
77.011600
20
8.361910
11
77.249300
21
8.708894
0
LINE
8
0
10
77.249300
20
8.708894
11
77.328533
21
9.126899
0
LINE
8
0
10
77.328500
20
9.126900
11
77.250632
21
9.547656
0
LINE
8
0
10
77.250632
20
9.547656
11
77.017030
21
9.891915
0
LINE
8
0
10
77.017000
20
9.891910
11
76.675478
21
10.125487
0
LINE
8
0
10
76.675478
20
10.125487
11
76.262915
21
10.203351
0
LINE
8
0
10
76.262900
20
10.203400
11
75.843510
21
10.125537
0
LINE
8
0
10
75.843510
20
10.125537
11
75.492421
21
9.891959
0
LINE
8
0
10
75.492500
20
9.891910
11
75.258897
21
9.544923
0
LINE
8
0
10
75.258897
20
9.544923
11
75.181030
21
9.126895
0
LINE
8
0
10
107.854000
20
9.155580
11
107.976949
21
9.812665
0
LINE
8
0
10
107.976949
20
9.812665
11
108.345796
21
10.363190
0
LINE
8
0
10
108.346000
20
10.363200
11
108.896534
21
10.736140
0
LINE
8
0
10
108.896534
20
10.736140
11
109.553630
21
10.860457
0
LINE
8
0
10
109.554000
20
10.860400
11
110.211087
21
10.736083
0
LINE
8
0
10
110.211087
20
10.736083
11
110.761620
21
10.363143
0
LINE
8
0
10
110.761000
20
10.363200
11
111.133950
21
9.815414
0
LINE
8
0
10
111.133950
20
9.815414
11
111.258263
21
9.155590
0
LINE
8
0
10
111.258000
20
9.155580
11
111.033962
21
8.303173
0
LINE
8
0
10
111.034000
20
8.303170
11
110.411063
21
7.685686
0
LINE
8
0
10
110.411000
20
7.685690
11
109.553092
21
7.456191
0
LINE
8
0
10
109.554000
20
7.456190
11
108.896903
21
7.579139
0
LINE
8
0
10
108.896903
20
7.579139
11
108.346370
21
7.947970
0
LINE
8
0
10
108.346000
20
7.947970
11
107.977153
21
8.495776
0
LINE
8
0
10
107.977153
20
8.495776
11
107.854204
21
9.155580
0
LINE
8
0
10
108.483000
20
9.155580
11
108.562234
21
8.741663
0
LINE
8
0
10
108.562234
20
8.741663
11
108.799939
21
8.396068
0
LINE
8
0
10
108.800000
20
8.396070
11
109.152446
21
8.162470
0
LINE
8
0
10
109.152446
20
8.162470
11
109.565010
21
8.084603
0
LINE
8
0
10
109.565000
20
8.084600
11
109.970732
21
8.161098
0
LINE
8
0
10
109.970732
20
8.161098
11
110.313616
21
8.390590
0
LINE
8
0
10
110.313000
20
8.390590
11
110.550708
21
8.737574
0
LINE
8
0
10
110.550708
20
8.737574
11
110.629941
21
9.155579
0
LINE
8
0
10
110.630000
20
9.155580
11
110.552132
21
9.576336
0
LINE
8
0
10
110.552132
20
9.576336
11
110.318528
21
9.920595
0
LINE
8
0
10
110.319000
20
9.920590
11
109.977477
21
10.154190
0
LINE
8
0
10
109.977477
20
10.154190
11
109.564915
21
10.232057
0
LINE
8
0
10
109.565000
20
10.232100
11
109.145610
21
10.154233
0
LINE
8
0
10
109.145610
20
10.154233
11
108.794524
21
9.920633
0
LINE
8
0
10
108.794000
20
9.920590
11
108.560396
21
9.573603
0
LINE
8
0
10
108.560396
20
9.573603
11
108.482528
21
9.155575
0
LINE
8
0
10
124.419000
20
9.123850
11
124.541949
21
9.780935
0
LINE
8
0
10
124.541949
20
9.780935
11
124.910796
21
10.331460
0
LINE
8
0
10
124.911000
20
10.331500
11
125.461535
21
10.704439
0
LINE
8
0
10
125.461535
20
10.704439
11
126.118630
21
10.828757
0
LINE
8
0
10
126.119000
20
10.828700
11
126.776087
21
10.704383
0
LINE
8
0
10
126.776087
20
10.704383
11
127.326620
21
10.331443
0
LINE
8
0
10
127.326000
20
10.331500
11
127.698947
21
9.783714
0
LINE
8
0
10
127.698947
20
9.783714
11
127.823263
21
9.123890
0
LINE
8
0
10
127.824000
20
9.123850
11
127.599959
21
8.271443
0
LINE
8
0
10
127.599000
20
8.271450
11
126.976066
21
7.653966
0
LINE
8
0
10
126.977000
20
7.653960
11
126.119090
21
7.424461
0
LINE
8
0
10
126.119000
20
7.424460
11
125.461904
21
7.547412
0
LINE
8
0
10
125.461904
20
7.547412
11
124.911370
21
7.916267
0
LINE
8
0
10
124.911000
20
7.916270
11
124.542153
21
8.464052
0
LINE
8
0
10
124.542153
20
8.464052
11
124.419204
21
9.123850
0
LINE
8
0
10
125.048000
20
9.123850
11
125.127234
21
8.709930
0
LINE
8
0
10
125.127234
20
8.709930
11
125.364941
21
8.364312
0
LINE
8
0
10
125.365000
20
8.364320
11
125.717444
21
8.130733
0
LINE
8
0
10
125.717444
20
8.130733
11
126.130007
21
8.052879
0
LINE
8
0
10
126.130000
20
8.052870
11
126.535732
21
8.129368
0
LINE
8
0
10
126.535732
20
8.129368
11
126.878619
21
8.358860
0
LINE
8
0
10
126.878000
20
8.358860
11
127.115703
21
8.705844
0
LINE
8
0
10
127.115703
20
8.705844
11
127.194936
21
9.123849
0
LINE
8
0
10
127.195000
20
9.123850
11
127.117133
21
9.544603
0
LINE
8
0
10
127.117133
20
9.544603
11
126.883528
21
9.888839
0
LINE
8
0
10
126.884000
20
9.888840
11
126.542479
21
10.122440
0
LINE
8
0
10
126.542479
20
10.122440
11
126.129917
21
10.200307
0
LINE
8
0
10
126.130000
20
10.200300
11
125.710610
21
10.122433
0
LINE
8
0
10
125.710610
20
10.122433
11
125.359524
21
9.888833
0
LINE
8
0
10
125.359000
20
9.888840
11
125.125396
21
9.541866
0
LINE
8
0
10
125.125396
20
9.541866
11
125.047528
21
9.123851
 0 
ENDSEC
 0 
EOF