<?xml version="1.0" encoding="UTF-8" standalone="no"?>
<svg
   width="500mm"
   height="500mm"
   version="1.1"
   id="svg1475"
   sodipodi:docname="Berndeutsch_121_50x50_Laser.svg"
   inkscape:version="1.2.1 (9c6d41e410, 2022-07-14)"
   xmlns:inkscape="http://www.inkscape.org/namespaces/inkscape"
   xmlns:sodipodi="http://sodipodi.sourceforge.net/DTD/sodipodi-0.dtd"
   xmlns="http://www.w3.org/2000/svg"
   xmlns:svg="http://www.w3.org/2000/svg">
  <defs
     id="defs1479" />
  <sodipodi:namedview
     id="namedview1477"
     pagecolor="#505050"
     bordercolor="#eeeeee"
     borderopacity="1"
     inkscape:showpageshadow="0"
     inkscape:pageopacity="0"
     inkscape:pagecheckerboard="0"
     inkscape:deskcolor="#505050"
     inkscape:document-units="mm"
     showgrid="false"
     inkscape:zoom="0.41250824"
     inkscape:cx="1551.4842"
     inkscape:cy="950.28404"
     inkscape:window-width="2560"
     inkscape:window-height="1369"
     inkscape:window-x="-8"
     inkscape:window-y="-8"
     inkscape:window-maximized="1"
     inkscape:current-layer="svg1475" />
  <path
     id="rect745"
     style="fill:#231f20;stroke-width:0mm"
     d="M 1889.7638,0 H 0 v 1889.7638 h 1889.7638 z" />
  <path
     d="m 1556.0988,370.38852 h 33.6813 v -60.41616 h -33.6813 v 6.23998 h 26.6557 v 19.46376 h -25.0439 v 6.19864 h 25.0439 v 22.23248 h -26.6557 z"
     id="path4215"
     style="font-size:42.3173px;font-family:'Open Sans';text-anchor:middle;fill:#ffffff;stroke-width:0mm" />
  <path
     d="m 1429.4418,354.31336 q 0,7.9756 5.7857,12.43862 5.7857,4.46302 15.7041,4.46302 10.745,0 16.5307,-2.76872 v -6.7772 q -3.7194,1.57034 -8.1,2.47946 -4.3807,0.90914 -8.6786,0.90914 -7.0256,0 -10.5797,-2.64476 -3.554,-2.68608 -3.554,-7.43838 0,-3.14064 1.2811,-5.1242 1.2398,-2.0249 4.2153,-3.7192 2.9342,-1.69428 8.9679,-3.84316 8.4306,-3.01666 12.0674,-7.1491 3.5954,-4.13244 3.5954,-10.78564 0,-6.98382 -5.2485,-11.11624 -5.2485,-4.13244 -13.8858,-4.13244 -9.0092,0 -16.5719,3.30594 l 2.1903,6.116 q 7.4801,-3.14064 14.5469,-3.14064 5.5791,0 8.72,2.3968 3.1408,2.39682 3.1408,6.65322 0,3.14064 -1.1571,5.16554 -1.1572,1.98356 -3.8848,3.67786 -2.7688,1.65298 -8.4306,3.67786 -9.5051,3.3886 -13.0592,7.27308 -3.5954,3.8845 -3.5954,10.08314 z"
     id="path5064"
     style="font-size:42.3173px;font-family:'Open Sans';text-anchor:middle;fill:#ffffff;stroke-width:0mm" />
  <path
     d="m 1296.9989,339.6019 q 0,14.9594 8.1414,22.89368 8.1,7.89294 23.3496,7.89294 h 16.7373 v -60.41616 h -18.5144 q -14.0924,0 -21.9031,7.8103 -7.8108,7.8103 -7.8108,21.81924 z m 7.4389,0.24794 q 0,-11.81874 5.951,-17.81076 5.9097,-5.99204 17.6051,-5.99204 h 10.2077 v 48.2668 h -8.5546 q -12.5633,0 -18.8863,-6.15732 -6.3229,-6.19864 -6.3229,-18.30668 z"
     id="path5061"
     style="font-size:42.3173px;font-family:'Open Sans';text-anchor:middle;fill:#ffffff;stroke-width:0mm" />
  <path
     d="m 1200.2417,370.38852 v -60.41616 h -7.0255 v 60.41616 z"
     id="path5058"
     style="font-size:42.3173px;font-family:'Open Sans';text-anchor:middle;fill:#ffffff;stroke-width:0mm" />
  <path
     d="m 1051.6402,354.31336 q 0,7.9756 5.7857,12.43862 5.7857,4.46302 15.7041,4.46302 10.745,0 16.5307,-2.76872 v -6.7772 q -3.7194,1.57034 -8.1001,2.47946 -4.3806,0.90914 -8.6785,0.90914 -7.0256,0 -10.5797,-2.64476 -3.5541,-2.68608 -3.5541,-7.43838 0,-3.14064 1.2812,-5.1242 1.2398,-2.0249 4.2153,-3.7192 2.9342,-1.69428 8.9679,-3.84316 8.4306,-3.01666 12.0674,-7.1491 3.5954,-4.13244 3.5954,-10.78564 0,-6.98382 -5.2485,-11.11624 -5.2485,-4.13244 -13.8858,-4.13244 -9.0092,0 -16.572,3.30594 l 2.1903,6.116 q 7.4802,-3.14064 14.547,-3.14064 5.5791,0 8.72,2.3968 3.1408,2.39682 3.1408,6.65322 0,3.14064 -1.1572,5.16554 -1.1571,1.98356 -3.8847,3.67786 -2.7688,1.65298 -8.4306,3.67786 -9.5051,3.3886 -13.0592,7.27308 -3.5954,3.8845 -3.5954,10.08314 z"
     id="path5055"
     style="font-size:42.3173px;font-family:'Open Sans';text-anchor:middle;fill:#ffffff;stroke-width:0mm" />
  <path
     d="m 937.40172,315.38586 q 9.95974,0 15.74546,6.65322 5.7444,6.61188 5.7444,18.14136 0,11.86008 -5.53778,18.348 -5.57908,6.4466 -15.86942,6.4466 -6.32298,0 -14.42302,-2.27284 v 6.15732 q 6.28166,2.35548 15.4975,2.35548 13.34852,0 20.62202,-8.09956 7.23216,-8.09956 7.23216,-23.01764 0,-9.3393 -3.47144,-16.36444 -3.51276,-7.02512 -10.0837,-10.82696 -6.61228,-3.80184 -15.53882,-3.80184 -9.50514,0 -16.61332,3.47124 l 2.9755,6.03336 q 6.86024,-3.2233 13.72046,-3.2233 z"
     id="path5052"
     style="font-size:42.3173px;font-family:'Open Sans';text-anchor:middle;fill:#ffffff;stroke-width:0mm" />
  <path
     d="m 795.991,370.38852 h 7.0255 V 341.9574 h 31.8215 v 28.43112 h 7.0255 v -60.41616 h -7.0255 v 25.70374 h -31.8215 v -25.70374 h -7.0255 z"
     id="path5049"
     style="font-size:42.3173px;font-family:'Open Sans';text-anchor:middle;fill:#ffffff;stroke-width:0mm" />
  <path
     d="m 671.1524,370.38852 h 6.9428 l 12.1914,-40.4565 q 0.8679,-2.68608 1.9424,-6.7772 1.0744,-4.0911 1.1158,-4.91758 0.9092,5.4548 2.8928,11.94272 l 11.8195,40.20856 h 6.9428 l 16.0761,-60.41616 h -7.4388 l -9.5464,37.31586 q -1.9837,7.85162 -2.8929,14.21558 -1.1158,-7.56236 -3.3061,-14.79412 l -10.8276,-36.73732 h -7.4388 l -11.3649,37.06792 q -1.9836,6.40528 -3.3474,14.46352 -0.7852,-5.86806 -2.9755,-14.29822 l -9.5052,-37.23322 h -7.4388 z"
     id="path5046"
     style="font-size:42.3173px;font-family:'Open Sans';text-anchor:middle;fill:#ffffff;stroke-width:0mm" />
  <path
     d="m 573.5894,370.38852 h 7.0255 v -60.41616 h -33.6812 v 6.23998 h 26.6557 v 22.10852 h -25.044 v 6.23996 h 25.044 z"
     id="path5043"
     style="font-size:42.3173px;font-family:'Open Sans';text-anchor:middle;fill:#ffffff;stroke-width:0mm" />
  <path
     d="m 418.0241,309.97236 v 39.09282 q 0,10.33108 6.2404,16.24044 6.2403,5.90938 17.1505,5.90938 10.9103,0 16.9027,-5.9507 5.951,-5.9507 5.951,-16.36442 v -38.92752 h -7.0256 v 39.4234 q 0,7.56236 -4.1326,11.61214 -4.1327,4.04978 -12.1501,4.04978 -7.6454,0 -11.7781,-4.04978 -4.1326,-4.0911 -4.1326,-11.69478 v -39.34076 z m 34.8798,-11.11624 q 0,-2.14886 -1.0745,-3.09932 -1.1159,-0.95046 -2.6449,-0.95046 -1.5705,0 -2.6863,0.95046 -1.1571,0.95046 -1.1571,3.09932 0,2.06622 1.1571,3.09934 1.1158,0.99178 2.6863,0.99178 1.529,0 2.6449,-0.99178 1.0745,-1.03312 1.0745,-3.09934 z m -15.7455,0 q 0,-2.14886 -1.0745,-3.09932 -1.1158,-0.95046 -2.6449,-0.95046 -1.5291,0 -2.6449,0.95046 -1.1572,0.95046 -1.1572,3.09932 0,2.06622 1.1572,3.09934 1.1158,0.99178 2.6449,0.99178 1.5291,0 2.6449,-0.99178 1.0745,-1.03312 1.0745,-3.09934 z"
     id="path5040"
     style="font-size:42.3173px;font-family:'Open Sans';text-anchor:middle;fill:#ffffff;stroke-width:0mm" />
  <path
     d="m 321.7215,370.38852 h 7.0255 v -60.41616 h -33.6812 v 6.23998 h 26.6557 v 22.10852 h -25.044 v 6.23996 h 25.044 z"
     id="path5037"
     style="font-size:42.3173px;font-family:'Open Sans';text-anchor:middle;fill:#ffffff;stroke-width:0mm" />
  <path
     d="m 1556.9254,430.91038 h -7.5628 l 21.7792,60.41616 h 6.9428 l 21.6552,-60.41616 h -7.4388 l -13.8858,39.09282 q -2.3969,6.73586 -3.802,13.0998 -1.4878,-6.69454 -3.8847,-13.34776 z"
     id="path5034"
     style="font-size:42.3173px;font-family:'Open Sans';text-anchor:middle;fill:#ffffff;stroke-width:0mm" />
  <path
     d="m 1452.1094,491.32654 v -60.41616 h -7.0255 v 60.41616 z"
     id="path5031"
     style="font-size:42.3173px;font-family:'Open Sans';text-anchor:middle;fill:#ffffff;stroke-width:0mm" />
  <path
     d="m 1304.2311,491.32654 h 33.6812 v -60.41616 h -33.6812 v 6.23998 h 26.6557 v 19.46376 h -25.0439 v 6.19864 h 25.0439 v 22.2325 h -26.6557 z"
     id="path5028"
     style="font-size:42.3173px;font-family:'Open Sans';text-anchor:middle;fill:#ffffff;stroke-width:0mm" />
  <path
     d="m 1207.5772,466.20136 v 25.12518 h 7.0255 v -60.41616 h -16.572 q -11.1168,0 -16.4067,4.25642 -5.3311,4.2564 -5.3311,12.81054 0,11.98404 12.15,16.19912 l -16.4066,27.15008 h 8.3066 l 14.6297,-25.12518 z m 0,-6.03336 h -9.6291 q -7.4388,0 -10.9103,-2.93402 -3.4714,-2.97534 -3.4714,-8.88472 0,-5.99204 3.5541,-8.6368 3.5127,-2.64474 11.3235,-2.64474 h 9.1332 z"
     id="path5025"
     style="font-size:42.3173px;font-family:'Open Sans';text-anchor:middle;fill:#ffffff;stroke-width:0mm" />
  <path
     d="m 1067.3236,491.32654 h 7.0255 v -54.17618 h 19.1343 v -6.23998 h -45.294 v 6.23998 h 19.1342 z"
     id="path5022"
     style="font-size:42.3173px;font-family:'Open Sans';text-anchor:middle;fill:#ffffff;stroke-width:0mm" />
  <path
     d="m 921.7596,430.91038 v 39.09282 q 0,10.33106 6.2403,16.24046 6.24032,5.90938 17.15058,5.90938 10.91022,0 16.9026,-5.95072 5.95104,-5.9507 5.95104,-16.36442 v -38.92752 h -7.02554 v 39.4234 q 0,7.56236 -4.13266,11.61214 -4.13266,4.04978 -12.15004,4.04978 -7.64544,0 -11.7781,-4.04978 -4.13266,-4.0911 -4.13266,-11.69478 v -39.34076 z"
     id="path5019"
     style="font-size:42.3173px;font-family:'Open Sans';text-anchor:middle;fill:#ffffff;stroke-width:0mm" />
  <path
     d="m 815.4558,491.32654 h 7.0256 v -54.17618 h 19.1342 v -6.23998 h -45.294 v 6.23998 h 19.1342 z"
     id="path5016"
     style="font-size:42.3173px;font-family:'Open Sans';text-anchor:middle;fill:#ffffff;stroke-width:0mm" />
  <path
     d="m 672.2475,491.32654 h 41.5333 v -5.49612 l -32.0695,-48.5974 h 31.0777 v -6.32264 h -39.6323 v 5.49614 l 32.0695,48.55608 h -32.9787 z"
     id="path5013"
     style="font-size:42.3173px;font-family:'Open Sans';text-anchor:middle;fill:#ffffff;stroke-width:0mm" />
  <path
     d="m 547.5742,491.32654 7.5215,-19.2158 h 24.2174 l 7.4388,19.2158 h 7.1082 l -23.8868,-60.6641 h -5.9097 l -23.7629,60.6641 z m 9.7118,-25.53842 7.0255,-18.71992 q 1.3638,-3.5539 2.8102,-8.71944 0.9092,3.96714 2.6036,8.71944 l 7.1082,18.71992 z m 21.5312,-45.99396 q 0,-2.14888 -1.0745,-3.09934 -1.1158,-0.95046 -2.6449,-0.95046 -1.5704,0 -2.6862,0.95046 -1.1572,0.95046 -1.1572,3.09934 0,2.0662 1.1572,3.09932 1.1158,0.99178 2.6862,0.99178 1.5291,0 2.6449,-0.99178 1.0745,-1.03312 1.0745,-3.09932 z m -15.7455,0 q 0,-2.14888 -1.0745,-3.09934 -1.1158,-0.95046 -2.6449,-0.95046 -1.5291,0 -2.6449,0.95046 -1.1571,0.95046 -1.1571,3.09934 0,2.0662 1.1571,3.09932 1.1158,0.99178 2.6449,0.99178 1.5291,0 2.6449,-0.99178 1.0745,-1.03312 1.0745,-3.09932 z"
     id="path5010"
     style="font-size:42.3173px;font-family:'Open Sans';text-anchor:middle;fill:#ffffff;stroke-width:0mm" />
  <path
     d="m 421.6402,491.32654 7.5215,-19.2158 h 24.2174 l 7.4388,19.2158 h 7.1082 l -23.8868,-60.6641 h -5.9097 l -23.7629,60.6641 z m 9.7118,-25.53842 7.0255,-18.71992 q 1.3638,-3.5539 2.8102,-8.71944 0.9092,3.96714 2.6036,8.71944 l 7.1082,18.71992 z m 21.5312,-45.99396 q 0,-2.14888 -1.0745,-3.09934 -1.1158,-0.95046 -2.6449,-0.95046 -1.5704,0 -2.6862,0.95046 -1.1572,0.95046 -1.1572,3.09934 0,2.0662 1.1572,3.09932 1.1158,0.99178 2.6862,0.99178 1.5291,0 2.6449,-0.99178 1.0745,-1.03312 1.0745,-3.09932 z m -15.7455,0 q 0,-2.14888 -1.0745,-3.09934 -1.1158,-0.95046 -2.6449,-0.95046 -1.5291,0 -2.6449,0.95046 -1.1571,0.95046 -1.1571,3.09934 0,2.0662 1.1571,3.09932 1.1158,0.99178 2.6449,0.99178 1.5291,0 2.6449,-0.99178 1.0745,-1.03312 1.0745,-3.09932 z"
     id="path5007"
     style="font-size:42.3173px;font-family:'Open Sans';text-anchor:middle;fill:#ffffff;stroke-width:0mm" />
  <path
     d="m 315.2332,461.11846 -16.1174,-30.20808 h -7.6041 l 20.1674,36.98528 v 23.43088 h 7.1082 v -23.1003 l 20.1261,-37.31586 h -7.6868 z"
     id="path5004"
     style="font-size:42.3173px;font-family:'Open Sans';text-anchor:middle;fill:#ffffff;stroke-width:0mm" />
  <path
     d="m 1553.7846,612.26458 h 41.5332 v -5.49614 l -32.0694,-48.5974 h 31.0776 v -6.3226 h -39.6323 v 5.49612 l 32.0695,48.55606 h -32.9786 z"
     id="path5001"
     style="font-size:42.3173px;font-family:'Open Sans';text-anchor:middle;fill:#ffffff;stroke-width:0mm" />
  <path
     d="m 1426.7555,612.26458 h 6.9429 l 12.1914,-40.4565 q 0.8678,-2.6861 1.9423,-6.7772 1.0745,-4.0911 1.1158,-4.9176 0.9092,5.45482 2.8929,11.94274 l 11.8194,40.20856 h 6.9429 l 16.0761,-60.41614 h -7.4388 l -9.5465,37.31584 q -1.9836,7.85162 -2.8928,14.21558 -1.1159,-7.56238 -3.3062,-14.79412 l -10.8276,-36.7373 h -7.4388 l -11.3648,37.0679 q -1.9837,6.40526 -3.3474,14.46352 -0.7852,-5.86806 -2.9756,-14.29822 l -9.5051,-37.2332 h -7.4388 z"
     id="path4998"
     style="font-size:42.3173px;font-family:'Open Sans';text-anchor:middle;fill:#ffffff;stroke-width:0mm" />
  <path
     d="m 1303.1773,612.26458 7.5214,-19.21582 h 24.2175 l 7.4388,19.21582 h 7.1082 l -23.8869,-60.6641 h -5.9097 l -23.7628,60.6641 z m 9.7118,-25.53844 7.0255,-18.7199 q 1.3638,-3.5539 2.8102,-8.71944 0.9092,3.96714 2.6036,8.71944 l 7.1082,18.7199 z m 21.5312,-45.99394 q 0,-2.14888 -1.0745,-3.09934 -1.1159,-0.95046 -2.645,-0.95046 -1.5704,0 -2.6862,0.95046 -1.1571,0.95046 -1.1571,3.09934 0,2.0662 1.1571,3.0993 1.1158,0.9918 2.6862,0.9918 1.5291,0 2.645,-0.9918 1.0745,-1.0331 1.0745,-3.0993 z m -15.7455,0 q 0,-2.14888 -1.0745,-3.09934 -1.1158,-0.95046 -2.6449,-0.95046 -1.5291,0 -2.6449,0.95046 -1.1572,0.95046 -1.1572,3.09934 0,2.0662 1.1572,3.0993 1.1158,0.9918 2.6449,0.9918 1.5291,0 2.6449,-0.9918 1.0745,-1.0331 1.0745,-3.0993 z"
     id="path4995"
     style="font-size:42.3173px;font-family:'Open Sans';text-anchor:middle;fill:#ffffff;stroke-width:0mm" />
  <path
     d="m 1173.1521,612.26458 h 8.0173 l 33.0201,-50.70494 h 0.3306 q -0.6613,8.92604 -0.6613,16.36444 v 34.3405 h 6.4883 v -60.41614 h -7.9347 l -32.9373,50.4983 h -0.3307 q 0.083,-1.11576 0.372,-7.14912 0.2893,-6.07466 0.2066,-8.67808 v -34.6711 h -6.5709 z"
     id="path4992"
     style="font-size:42.3173px;font-family:'Open Sans';text-anchor:middle;fill:#ffffff;stroke-width:0mm" />
  <path
     d="m 1050.0491,612.26458 h 41.5333 v -5.49614 l -32.0695,-48.5974 h 31.0776 v -6.3226 h -39.6322 v 5.49612 l 32.0695,48.55606 h -32.9787 z"
     id="path4989"
     style="font-size:42.3173px;font-family:'Open Sans';text-anchor:middle;fill:#ffffff;stroke-width:0mm" />
  <path
     d="m 940.81118,580.61014 h -20.53936 v 29.3816 q 4.7939,1.529 9.75308,2.31416 4.9592,0.78516 11.48884,0.78516 13.72044,0 21.36588,-8.14088 7.64542,-8.18222 7.64542,-22.89368 0,-9.42194 -3.76074,-16.4884 -3.80204,-7.1078 -10.91022,-10.82696 -7.10818,-3.76052 -16.65466,-3.76052 -9.67042,0 -18.0184,3.55388 l 2.72756,6.19864 q 8.18266,-3.47124 15.74544,-3.47124 11.03424,0 17.23322,6.57058 6.199,6.57058 6.199,18.22402 0,12.232 -5.95104,18.55462 -5.99236,6.32262 -17.56382,6.32262 -6.28166,0 -12.27404,-1.44634 v -18.59596 h 13.51384 z"
     id="path4986"
     style="font-size:42.3173px;font-family:'Open Sans';text-anchor:middle;fill:#ffffff;stroke-width:0mm" />
  <path
     d="m 1572.6255,1064.1347 h -20.5394 v 29.3816 q 4.7939,1.529 9.7531,2.3141 4.9592,0.7852 11.4888,0.7852 13.7205,0 21.3659,-8.1409 7.6454,-8.1822 7.6454,-22.8937 0,-9.4219 -3.7607,-16.4884 -3.8021,-7.1078 -10.9102,-10.8269 -7.1082,-3.7606 -16.6547,-3.7606 -9.6704,0 -18.0184,3.5539 l 2.7276,6.1987 q 8.1826,-3.4713 15.7454,-3.4713 11.0342,0 17.2332,6.5706 6.199,6.5706 6.199,18.224 0,12.232 -5.951,18.5546 -5.9924,6.3227 -17.5638,6.3227 -6.2817,0 -12.2741,-1.4464 v -18.5959 h 13.5139 z"
     id="path4986-7"
     style="font-size:42.3173px;font-family:'Open Sans';text-anchor:middle;fill:#ffffff;stroke-width:0mm" />
  <path
     d="m 791.1557,581.97386 q 0,11.61214 4.67,19.29846 4.6699,7.68632 13.1831,10.41372 l -14.3816,14.9594 h 10.2077 l 11.7781,-13.63702 2.2729,0.0826 q 13.3485,0 20.622,-8.14088 7.2322,-8.18222 7.2322,-23.05898 0,-14.75278 -7.2735,-22.85234 -7.2735,-8.1409 -20.6633,-8.1409 -13.0179,0 -20.3327,8.26486 -7.3149,8.26488 -7.3149,22.81104 z m 48.1456,0 q 0,12.27332 -5.2072,18.63726 -5.2484,6.32262 -15.2082,6.32262 -10.0424,0 -15.1669,-6.32262 -5.1245,-6.32262 -5.1245,-18.63726 0,-12.19068 5.1245,-18.47198 5.0832,-6.32262 15.0843,-6.32262 10.0424,0 15.2908,6.36394 5.2072,6.32262 5.2072,18.43066 z"
     id="path4983"
     style="font-size:42.3173px;font-family:'Open Sans';text-anchor:middle;fill:#ffffff;stroke-width:0mm" />
  <path
     d="m 667.3296,581.47796 q 0,14.95942 8.1414,22.89366 8.1,7.89296 23.3496,7.89296 h 16.7373 v -60.41614 h -18.5144 q -14.0924,0 -21.9031,7.81028 -7.8108,7.8103 -7.8108,21.81924 z m 7.4388,0.24794 q 0,-11.81876 5.9511,-17.81076 5.9097,-5.99204 17.6051,-5.99204 h 10.2077 v 48.2668 h -8.5546 q -12.5633,0 -18.8863,-6.15732 -6.323,-6.19866 -6.323,-18.30668 z"
     id="path4980"
     style="font-size:42.3173px;font-family:'Open Sans';text-anchor:middle;fill:#ffffff;stroke-width:0mm" />
  <path
     d="m 549.4546,551.84844 h -7.5628 l 21.7792,60.41614 h 6.9428 l 21.6552,-60.41614 h -7.4388 l -13.8858,39.09278 q -2.3969,6.73588 -3.802,13.09982 -1.4878,-6.69454 -3.8847,-13.34776 z"
     id="path4977"
     style="font-size:42.3173px;font-family:'Open Sans';text-anchor:middle;fill:#ffffff;stroke-width:0mm" />
  <path
     d="m 413.3542,581.97386 q 0,14.50484 7.3562,22.81102 7.3148,8.30618 20.374,8.30618 13.3485,0 20.622,-8.14088 7.2322,-8.18222 7.2322,-23.05898 0,-14.75278 -7.2735,-22.85234 -7.2735,-8.1409 -20.6633,-8.1409 -13.0179,0 -20.3327,8.26486 -7.3149,8.26488 -7.3149,22.81104 z m 48.1456,0 q 0,12.27332 -5.2072,18.63726 -5.2485,6.32262 -15.2082,6.32262 -10.0423,0 -15.1668,-6.32262 -5.1246,-6.32262 -5.1246,-18.63726 0,-12.19068 5.1246,-18.47198 5.0831,-6.32262 15.0842,-6.32262 10.0423,0 15.2908,6.36394 5.2072,6.32262 5.2072,18.43066 z"
     id="path4974"
     style="font-size:42.3173px;font-family:'Open Sans';text-anchor:middle;fill:#ffffff;stroke-width:0mm" />
  <path
     d="m 326.0401,587.1394 v 25.12518 h 7.0256 v -60.41614 h -16.572 q -11.1169,0 -16.4067,4.2564 -5.3312,4.2564 -5.3312,12.81054 0,11.98404 12.1501,16.19912 l -16.4067,27.15008 h 8.3067 l 14.6296,-25.12518 z m 0,-6.03336 h -9.6291 q -7.4388,0 -10.9102,-2.93402 -3.4715,-2.97534 -3.4715,-8.88474 0,-5.992 3.5541,-8.63678 3.5128,-2.64476 11.3235,-2.64476 h 9.1332 z"
     id="path4971"
     style="font-size:42.3173px;font-family:'Open Sans';text-anchor:middle;fill:#ffffff;stroke-width:0mm" />
  <path
     d="m 1548.5774,733.20262 h 8.2653 l 22.0271,-29.29896 6.323,5.62012 v 23.67884 h 7.0255 v -60.41616 h -7.0255 v 29.96014 l -27.3996,-29.96014 h -8.3066 l 24.3001,26.24094 z"
     id="path4968"
     style="font-size:42.3173px;font-family:'Open Sans';text-anchor:middle;fill:#ffffff;stroke-width:0mm" />
  <path
     d="m 1429.1111,733.20262 7.5215,-19.21582 h 24.2174 l 7.4388,19.21582 h 7.1082 l -23.8868,-60.6641 h -5.9097 l -23.7628,60.6641 z m 9.7118,-25.53844 7.0255,-18.71992 q 1.3638,-3.55388 2.8103,-8.71942 0.9091,3.96714 2.6035,8.71942 l 7.1082,18.71992 z"
     id="path4965"
     style="font-size:42.3173px;font-family:'Open Sans';text-anchor:middle;fill:#ffffff;stroke-width:0mm" />
  <path
     d="m 1341.7971,672.78646 h -17.068 q -12.026,0 -17.3985,3.59522 -5.3725,3.59522 -5.3725,11.36418 0,5.37216 3.0169,8.88472 2.9755,3.47126 8.7199,4.50436 v 0.41324 q -13.7617,2.35548 -13.7617,14.46352 0,8.09956 5.4964,12.64524 5.4551,4.54568 15.2909,4.54568 h 21.0766 z m -7.0256,25.86904 h -11.5714 q -7.4388,0 -10.7037,-2.31418 -3.2648,-2.35548 -3.2648,-7.89294 0,-5.0829 3.6368,-7.31442 3.6367,-2.27282 11.5714,-2.27282 h 10.3317 z m 0,5.95068 v 22.6044 h -12.6046 q -7.3148,0 -10.9929,-2.81004 -3.7194,-2.85138 -3.7194,-8.88472 0,-5.62012 3.8021,-8.26488 3.7607,-2.64476 11.4888,-2.64476 z"
     id="path4962"
     style="font-size:42.3173px;font-family:'Open Sans';text-anchor:middle;fill:#ffffff;stroke-width:0mm" />
  <path
     d="m 1171.0651,702.416 q 0,14.9594 8.1413,22.89368 8.1001,7.89294 23.3496,7.89294 h 16.7373 v -60.41616 h -18.5143 q -14.0924,0 -21.9032,7.8103 -7.8107,7.8103 -7.8107,21.81924 z m 7.4388,0.24794 q 0,-11.81874 5.951,-17.81078 5.9097,-5.99202 17.6052,-5.99202 h 10.2077 v 48.2668 h -8.5547 q -12.5633,0 -18.8862,-6.15732 -6.323,-6.19864 -6.323,-18.30668 z"
     id="path4959"
     style="font-size:42.3173px;font-family:'Open Sans';text-anchor:middle;fill:#ffffff;stroke-width:0mm" />
  <path
     d="m 1047.8588,733.20262 h 7.0255 v -28.43114 h 31.8215 v 28.43114 h 7.0256 v -60.41616 h -7.0256 v 25.70374 h -31.8215 v -25.70374 h -7.0255 z"
     id="path4956"
     style="font-size:42.3173px;font-family:'Open Sans';text-anchor:middle;fill:#ffffff;stroke-width:0mm" />
  <path
     d="m 925.37568,733.20262 7.52144,-19.21582 h 24.21742 l 7.4388,19.21582 h 7.10818 l -23.8868,-60.6641 H 941.865 l -23.76284,60.6641 z m 9.71176,-25.53844 7.02552,-18.71992 q 1.36378,-3.55388 2.8102,-8.71942 0.9092,3.96714 2.6036,8.71942 l 7.10818,18.71992 z"
     id="path4953"
     style="font-size:42.3173px;font-family:'Open Sans';text-anchor:middle;fill:#ffffff;stroke-width:0mm" />
  <path
     d="m 795.8257,672.78646 v 39.0928 q 0,10.33108 6.2403,16.24046 6.2403,5.90936 17.1505,5.90936 10.9103,0 16.9026,-5.95068 5.9511,-5.95072 5.9511,-16.36444 v -38.9275 h -7.0256 v 39.4234 q 0,7.56236 -4.1326,11.61214 -4.1327,4.04978 -12.1501,4.04978 -7.6454,0 -11.778,-4.04978 -4.1327,-4.0911 -4.1327,-11.6948 v -39.34074 z"
     id="path4950"
     style="font-size:42.3173px;font-family:'Open Sans';text-anchor:middle;fill:#ffffff;stroke-width:0mm" />
  <path
     d="m 712.1277,672.78646 h -17.0679 q -12.026,0 -17.3985,3.59522 -5.3725,3.59522 -5.3725,11.36418 0,5.37216 3.0169,8.88472 2.9755,3.47126 8.7199,4.50436 v 0.41324 q -13.7618,2.35548 -13.7618,14.46352 0,8.09956 5.4965,12.64524 5.4551,4.54568 15.2908,4.54568 h 21.0766 z m -7.0255,25.86904 h -11.5714 q -7.4389,0 -10.7037,-2.31418 -3.2648,-2.35548 -3.2648,-7.89294 0,-5.0829 3.6368,-7.31442 3.6367,-2.27282 11.5714,-2.27282 h 10.3317 z m 0,5.95068 v 22.6044 h -12.6046 q -7.3148,0 -10.9929,-2.81004 -3.7194,-2.85138 -3.7194,-8.88472 0,-5.62012 3.8021,-8.26488 3.7607,-2.64476 11.4888,-2.64476 z"
     id="path4947"
     style="font-size:42.3173px;font-family:'Open Sans';text-anchor:middle;fill:#ffffff;stroke-width:0mm" />
  <path
     d="m 570.5725,733.20262 v -60.41616 h -7.0255 v 60.41616 z"
     id="path4944"
     style="font-size:42.3173px;font-family:'Open Sans';text-anchor:middle;fill:#ffffff;stroke-width:0mm" />
  <path
     d="m 437.6543,733.20262 h 7.0255 v -54.1762 h 19.1343 v -6.23996 h -45.294 v 6.23996 h 19.1342 z"
     id="path4941"
     style="font-size:42.3173px;font-family:'Open Sans';text-anchor:middle;fill:#ffffff;stroke-width:0mm" />
  <path
     d="m 294.4459,733.20262 h 41.5333 v -5.49616 l -32.0695,-48.59738 h 31.0776 v -6.32262 h -39.6322 v 5.49614 l 32.0695,48.55608 h -32.9787 z"
     id="path4938"
     style="font-size:42.3173px;font-family:'Open Sans';text-anchor:middle;fill:#ffffff;stroke-width:0mm" />
  <path
     d="m 1556.0988,854.14062 h 33.6813 v -60.41614 h -33.6813 v 6.23996 h 26.6557 v 19.46374 h -25.0439 v 6.19866 h 25.0439 v 22.23248 h -26.6557 z"
     id="path4935"
     style="font-size:42.3173px;font-family:'Open Sans';text-anchor:middle;fill:#ffffff;stroke-width:0mm" />
  <path
     d="m 1452.1094,854.14062 v -60.41614 h -7.0255 v 60.41614 z"
     id="path4932"
     style="font-size:42.3173px;font-family:'Open Sans';text-anchor:middle;fill:#ffffff;stroke-width:0mm" />
  <path
     d="m 1303.5079,838.06546 q 0,7.9756 5.7857,12.43862 5.7858,4.46302 15.7042,4.46302 10.7449,0 16.5306,-2.76872 v -6.7772 q -3.7194,1.57032 -8.1,2.47946 -4.3806,0.90914 -8.6786,0.90914 -7.0255,0 -10.5796,-2.64476 -3.5541,-2.68608 -3.5541,-7.43838 0,-3.14064 1.2811,-5.12422 1.2398,-2.02488 4.2153,-3.71918 2.9342,-1.69428 8.9679,-3.84316 8.4307,-3.01668 12.0674,-7.1491 3.5954,-4.13244 3.5954,-10.78566 0,-6.9838 -5.2485,-11.11624 -5.2484,-4.13242 -13.8857,-4.13242 -9.0092,0 -16.572,3.30594 l 2.1903,6.11602 q 7.4801,-3.14066 14.547,-3.14066 5.5791,0 8.7199,2.39682 3.1408,2.39678 3.1408,6.6532 0,3.14066 -1.1571,5.16554 -1.1572,1.98356 -3.8847,3.67786 -2.7689,1.65296 -8.4307,3.67786 -9.5051,3.3886 -13.0592,7.27308 -3.5954,3.8845 -3.5954,10.08314 z"
     id="path4929"
     style="font-size:42.3173px;font-family:'Open Sans';text-anchor:middle;fill:#ffffff;stroke-width:0mm" />
  <path
     d="m 1168.9574,823.8499 q 0,11.61214 4.6699,19.29846 4.6699,7.68632 13.1832,10.41372 l -14.3816,14.9594 h 10.2076 l 11.7781,-13.63702 2.273,0.0826 q 13.3485,0 20.622,-8.1409 7.2322,-8.1822 7.2322,-23.05896 0,-14.75278 -7.2735,-22.85234 -7.2735,-8.1409 -20.6633,-8.1409 -13.0179,0 -20.3328,8.26486 -7.3148,8.26488 -7.3148,22.81104 z m 48.1456,0 q 0,12.27332 -5.2072,18.63726 -5.2485,6.32262 -15.2082,6.32262 -10.0424,0 -15.1669,-6.32262 -5.1245,-6.32262 -5.1245,-18.63726 0,-12.19068 5.1245,-18.47198 5.0832,-6.32262 15.0843,-6.32262 10.0423,0 15.2908,6.36394 5.2072,6.32262 5.2072,18.43066 z"
     id="path4926"
     style="font-size:42.3173px;font-family:'Open Sans';text-anchor:middle;fill:#ffffff;stroke-width:0mm" />
  <path
     d="m 1050.0491,854.14062 h 41.5333 v -5.49614 l -32.0695,-48.59738 h 31.0776 v -6.32262 h -39.6322 v 5.49612 l 32.0695,48.55608 h -32.9787 z"
     id="path4923"
     style="font-size:42.3173px;font-family:'Open Sans';text-anchor:middle;fill:#ffffff;stroke-width:0mm" />
  <path
     d="m 923.02004,854.14062 h 6.94288 L 942.1543,813.6841 q 0.86786,-2.68608 1.94234,-6.77718 1.0745,-4.0911 1.11582,-4.91758 0.90918,5.4548 2.89288,11.94272 l 11.81942,40.20856 h 6.94288 l 16.07606,-60.41614 h -7.4388 l -9.54646,37.31584 q -1.98366,7.85164 -2.89286,14.21558 -1.11582,-7.56236 -3.30612,-14.7941 l -10.8276,-36.73732 h -7.43878 l -11.36486,37.0679 q -1.98366,6.40526 -3.34744,14.46352 -0.7852,-5.86806 -2.97554,-14.29822 l -9.50512,-37.2332 h -7.4388 z"
     id="path4920"
     style="font-size:42.3173px;font-family:'Open Sans';text-anchor:middle;fill:#ffffff;stroke-width:0mm" />
  <path
     d="m 791.1557,823.8499 q 0,14.50482 7.3562,22.81102 7.3148,8.30618 20.374,8.30618 13.3485,0 20.622,-8.1409 7.2322,-8.1822 7.2322,-23.05896 0,-14.75278 -7.2735,-22.85234 -7.2735,-8.1409 -20.6633,-8.1409 -13.0179,0 -20.3327,8.26486 -7.3149,8.26488 -7.3149,22.81104 z m 48.1456,0 q 0,12.27332 -5.2072,18.63726 -5.2484,6.32262 -15.2082,6.32262 -10.0424,0 -15.1669,-6.32262 -5.1245,-6.32262 -5.1245,-18.63726 0,-12.19068 5.1245,-18.47198 5.0832,-6.32262 15.0843,-6.32262 10.0424,0 15.2908,6.36394 5.2072,6.32262 5.2072,18.43066 z m -8.9679,-41.24166 q 0,-2.14886 -1.0745,-3.09934 -1.1158,-0.95046 -2.6449,-0.95046 -1.5704,0 -2.6862,0.95046 -1.1572,0.95048 -1.1572,3.09934 0,2.06622 1.1572,3.0993 1.1158,0.9918 2.6862,0.9918 1.5291,0 2.6449,-0.9918 1.0745,-1.03308 1.0745,-3.0993 z m -15.7455,0 q 0,-2.14886 -1.0744,-3.09934 -1.1159,-0.95046 -2.6449,-0.95046 -1.5291,0 -2.645,0.95046 -1.1571,0.95048 -1.1571,3.09934 0,2.06622 1.1571,3.0993 1.1159,0.9918 2.645,0.9918 1.529,0 2.6449,-0.9918 1.0744,-1.03308 1.0744,-3.0993 z"
     id="path4917"
     style="font-size:42.3173px;font-family:'Open Sans';text-anchor:middle;fill:#ffffff;stroke-width:0mm" />
  <path
     d="m 696.5063,854.14062 v -60.41614 h -7.0256 v 60.41614 z"
     id="path4914"
     style="font-size:42.3173px;font-family:'Open Sans';text-anchor:middle;fill:#ffffff;stroke-width:0mm" />
  <path
     d="m 541.3959,823.354 q 0,14.9594 8.1413,22.89366 8.1001,7.89296 23.3496,7.89296 h 16.7373 v -60.41614 h -18.5143 q -14.0924,0 -21.9032,7.8103 -7.8107,7.81028 -7.8107,21.81922 z m 7.4388,0.24794 q 0,-11.81874 5.951,-17.81076 5.9097,-5.99204 17.6052,-5.99204 h 10.2077 v 48.2668 h -8.5546 q -12.5634,0 -18.8863,-6.15732 -6.323,-6.19866 -6.323,-18.30668 z"
     id="path4911"
     style="font-size:42.3173px;font-family:'Open Sans';text-anchor:middle;fill:#ffffff;stroke-width:0mm" />
  <path
     d="m 451.974,829.01544 v 25.12518 h 7.0255 v -60.41614 h -16.572 q -11.1168,0 -16.4066,4.2564 -5.3312,4.2564 -5.3312,12.81054 0,11.98406 12.15,16.19914 l -16.4066,27.15006 h 8.3066 l 14.6297,-25.12518 z m 0,-6.03336 h -9.6291 q -7.4388,0 -10.9103,-2.93404 -3.4714,-2.97532 -3.4714,-8.88472 0,-5.992 3.5541,-8.63678 3.5128,-2.64474 11.3235,-2.64474 h 9.1332 z"
     id="path4908"
     style="font-size:42.3173px;font-family:'Open Sans';text-anchor:middle;fill:#ffffff;stroke-width:0mm" />
  <path
     d="m 292.0903,793.72448 v 39.09278 q 0,10.3311 6.2403,16.24046 6.2403,5.90938 17.1506,5.90938 10.9102,0 16.9026,-5.9507 5.951,-5.9507 5.951,-16.36442 v -38.9275 h -7.0255 v 39.42338 q 0,7.56236 -4.1327,11.61214 -4.1327,4.04978 -12.15,4.04978 -7.6455,0 -11.7781,-4.04978 -4.1327,-4.09112 -4.1327,-11.69478 V 793.72448 Z M 326.97,782.60824 q 0,-2.14886 -1.0745,-3.09934 -1.1158,-0.95046 -2.6449,-0.95046 -1.5704,0 -2.6863,0.95046 -1.1571,0.95048 -1.1571,3.09934 0,2.06622 1.1571,3.0993 1.1159,0.9918 2.6863,0.9918 1.5291,0 2.6449,-0.9918 1.0745,-1.03308 1.0745,-3.0993 z m -15.7455,0 q 0,-2.14886 -1.0745,-3.09934 -1.1158,-0.95046 -2.6449,-0.95046 -1.5291,0 -2.6449,0.95046 -1.1571,0.95048 -1.1571,3.09934 0,2.06622 1.1571,3.0993 1.1158,0.9918 2.6449,0.9918 1.5291,0 2.6449,-0.9918 1.0745,-1.03308 1.0745,-3.0993 z"
     id="path4905"
     style="font-size:42.3173px;font-family:'Open Sans';text-anchor:middle;fill:#ffffff;stroke-width:0mm" />
  <path
     d="m 1553.7846,975.07858 h 41.5332 v -5.49612 l -32.0694,-48.5974 h 31.0776 v -6.32262 h -39.6323 v 5.49614 l 32.0695,48.55608 h -32.9786 z"
     id="path4902"
     style="font-size:42.3173px;font-family:'Open Sans';text-anchor:middle;fill:#ffffff;stroke-width:0mm" />
  <path
     d="m 1430.9915,914.66244 h -7.5628 l 21.7792,60.41614 h 6.9429 l 21.6551,-60.41614 h -7.4388 l -13.8857,39.09282 q -2.397,6.73584 -3.8021,13.0998 -1.4877,-6.69454 -3.8847,-13.34776 z"
     id="path4899"
     style="font-size:42.3173px;font-family:'Open Sans';text-anchor:middle;fill:#ffffff;stroke-width:0mm" />
  <path
     d="m 1326.1756,975.07858 v -60.41614 h -7.0256 v 60.41614 z"
     id="path4896"
     style="font-size:42.3173px;font-family:'Open Sans';text-anchor:middle;fill:#ffffff;stroke-width:0mm" />
  <path
     d="m 1178.2972,975.07858 h 33.6813 v -60.41614 h -33.6813 v 6.23996 h 26.6557 v 19.46378 h -25.0439 v 6.19864 h 25.0439 v 22.23246 h -26.6557 z"
     id="path4893"
     style="font-size:42.3173px;font-family:'Open Sans';text-anchor:middle;fill:#ffffff;stroke-width:0mm" />
  <path
     d="m 1081.6433,949.9534 v 25.12518 h 7.0256 v -60.41614 h -16.572 q -11.1169,0 -16.4067,4.2564 -5.3312,4.25642 -5.3312,12.81054 0,11.98406 12.1501,16.19914 l -16.4067,27.15006 h 8.3066 l 14.6297,-25.12518 z m 0,-6.03334 h -9.6291 q -7.4388,0 -10.9102,-2.93402 -3.4715,-2.97536 -3.4715,-8.88474 0,-5.99202 3.5541,-8.63678 3.5128,-2.64476 11.3235,-2.64476 h 9.1332 z"
     id="path4890"
     style="font-size:42.3173px;font-family:'Open Sans';text-anchor:middle;fill:#ffffff;stroke-width:0mm" />
  <path
     d="m 948.37394,975.07858 v -60.41614 h -7.02552 v 60.41614 z"
     id="path4887"
     style="font-size:42.3173px;font-family:'Open Sans';text-anchor:middle;fill:#ffffff;stroke-width:0mm" />
  <path
     d="m 825.4569,975.07858 h 7.0255 v -60.41614 h -33.6812 v 6.23996 h 26.6557 v 22.10852 h -25.044 v 6.23998 h 25.044 z"
     id="path4884"
     style="font-size:42.3173px;font-family:'Open Sans';text-anchor:middle;fill:#ffffff;stroke-width:0mm" />
  <path
     d="m 669.8919,914.66244 v 39.09282 q 0,10.33106 6.2403,16.24044 6.2404,5.90938 17.1506,5.90938 10.9102,0 16.9026,-5.9507 5.951,-5.9507 5.951,-16.36444 v -38.9275 h -7.0255 v 39.4234 q 0,7.56236 -4.1327,11.61214 -4.1326,4.04978 -12.15,4.04978 -7.6454,0 -11.7781,-4.04978 -4.1327,-4.0911 -4.1327,-11.6948 v -39.34074 z m 34.8797,-11.11624 q 0,-2.14886 -1.0745,-3.09932 -1.1158,-0.95046 -2.6449,-0.95046 -1.5704,0 -2.6862,0.95046 -1.1572,0.95046 -1.1572,3.09932 0,2.06622 1.1572,3.09934 1.1158,0.99176 2.6862,0.99176 1.5291,0 2.6449,-0.99176 1.0745,-1.03312 1.0745,-3.09934 z m -15.7455,0 q 0,-2.14886 -1.0744,-3.09932 -1.1159,-0.95046 -2.645,-0.95046 -1.529,0 -2.6449,0.95046 -1.1571,0.95046 -1.1571,3.09932 0,2.06622 1.1571,3.09934 1.1159,0.99176 2.6449,0.99176 1.5291,0 2.645,-0.99176 1.0744,-1.03312 1.0744,-3.09934 z"
     id="path4881"
     style="font-size:42.3173px;font-family:'Open Sans';text-anchor:middle;fill:#ffffff;stroke-width:0mm" />
  <path
     d="m 573.5894,975.07858 h 7.0255 v -60.41614 h -33.6812 v 6.23996 h 26.6557 v 22.10852 h -25.044 v 6.23998 h 25.044 z"
     id="path4878"
     style="font-size:42.3173px;font-family:'Open Sans';text-anchor:middle;fill:#ffffff;stroke-width:0mm" />
  <path
     d="m 444.6385,975.07858 v -60.41614 h -7.0255 v 60.41614 z"
     id="path4875"
     style="font-size:42.3173px;font-family:'Open Sans';text-anchor:middle;fill:#ffffff;stroke-width:0mm" />
  <path
     d="m 311.7204,975.07858 h 7.0256 V 920.9024 h 19.1342 v -6.23996 h -45.294 v 6.23996 h 19.1342 z"
     id="path4872"
     style="font-size:42.3173px;font-family:'Open Sans';text-anchor:middle;fill:#ffffff;stroke-width:0mm" />
  <path
     d="m 1303.3756,1079.9415 q 0,7.9756 5.7858,12.4386 5.7857,4.463 15.7041,4.463 10.7449,0 16.5307,-2.7687 v -6.7772 q -3.7194,1.5703 -8.1001,2.4795 -4.3806,0.9091 -8.6786,0.9091 -7.0255,0 -10.5796,-2.6448 -3.5541,-2.686 -3.5541,-7.4383 0,-3.1407 1.2811,-5.1243 1.2398,-2.0248 4.2154,-3.7192 2.9342,-1.6942 8.9678,-3.8431 8.4307,-3.0167 12.0674,-7.1491 3.5954,-4.1324 3.5954,-10.7857 0,-6.9838 -5.2484,-11.1162 -5.2485,-4.1324 -13.8858,-4.1324 -9.0092,0 -16.572,3.3059 l 2.1903,6.116 q 7.4802,-3.1406 14.547,-3.1406 5.5791,0 8.7199,2.3968 3.1409,2.3968 3.1409,6.6532 0,3.1406 -1.1572,5.1655 -1.1571,1.9836 -3.8847,3.6779 -2.7689,1.653 -8.4306,3.6779 -9.5052,3.3886 -13.0593,7.273 -3.5954,3.8845 -3.5954,10.0832 z"
     id="path4869"
     style="font-size:42.3173px;font-family:'Open Sans';text-anchor:middle;fill:#ffffff;stroke-width:0mm" />
  <path
     d="m 1177.1111,1096.0166 7.5215,-19.2158 h 24.2174 l 7.4388,19.2158 h 7.1082 l -23.8868,-60.6641 h -5.9097 l -23.7628,60.6641 z m 9.7118,-25.5384 7.0255,-18.7199 q 1.3638,-3.5539 2.8103,-8.7194 0.9091,3.9671 2.6035,8.7194 l 7.1082,18.7199 z m 21.5312,-45.994 q 0,-2.1488 -1.0745,-3.0993 -1.1158,-0.9504 -2.6449,-0.9504 -1.5704,0 -2.6862,0.9504 -1.1572,0.9505 -1.1572,3.0993 0,2.0662 1.1572,3.0994 1.1158,0.9918 2.6862,0.9918 1.5291,0 2.6449,-0.9918 1.0745,-1.0332 1.0745,-3.0994 z m -15.7455,0 q 0,-2.1488 -1.0744,-3.0993 -1.1159,-0.9504 -2.645,-0.9504 -1.529,0 -2.6449,0.9504 -1.1571,0.9505 -1.1571,3.0993 0,2.0662 1.1571,3.0994 1.1159,0.9918 2.6449,0.9918 1.5291,0 2.645,-0.9918 1.0744,-1.0332 1.0744,-3.0994 z"
     id="path4866"
     style="font-size:42.3173px;font-family:'Open Sans';text-anchor:middle;fill:#ffffff;stroke-width:0mm" />
  <path
     d="m 1063.2033,1041.014 q 9.9598,0 15.7455,6.6532 5.7444,6.6119 5.7444,18.1414 0,11.86 -5.5378,18.348 -5.5791,6.4466 -15.8694,6.4466 -6.323,0 -14.423,-2.2729 v 6.1573 q 6.2817,2.3555 15.4975,2.3555 13.3485,0 20.622,-8.0996 7.2322,-8.0995 7.2322,-23.0176 0,-9.3393 -3.4715,-16.3644 -3.5127,-7.0252 -10.0837,-10.827 -6.6122,-3.8018 -15.5388,-3.8018 -9.5051,0 -16.6133,3.4712 l 2.9755,6.0334 q 6.8602,-3.2233 13.7204,-3.2233 z"
     id="path4863"
     style="font-size:42.3173px;font-family:'Open Sans';text-anchor:middle;fill:#ffffff;stroke-width:0mm" />
  <path
     d="m 921.79264,1096.0166 h 7.02552 v -28.4311 h 31.82154 v 28.4311 h 7.02554 v -60.4161 h -7.02554 v 25.7037 h -31.82154 v -25.7037 h -7.02552 z"
     id="path4860"
     style="font-size:42.3173px;font-family:'Open Sans';text-anchor:middle;fill:#ffffff;stroke-width:0mm" />
  <path
     d="m 799.6402,1079.9415 q 0,7.9756 5.7857,12.4386 5.7857,4.463 15.7041,4.463 10.745,0 16.5307,-2.7687 v -6.7772 q -3.7194,1.5703 -8.1001,2.4795 -4.3806,0.9091 -8.6785,0.9091 -7.0256,0 -10.5797,-2.6448 -3.5541,-2.686 -3.5541,-7.4383 0,-3.1407 1.2812,-5.1243 1.2398,-2.0248 4.2153,-3.7192 2.9342,-1.6942 8.9679,-3.8431 8.4306,-3.0167 12.0674,-7.1491 3.5954,-4.1324 3.5954,-10.7857 0,-6.9838 -5.2485,-11.1162 -5.2485,-4.1324 -13.8858,-4.1324 -9.0092,0 -16.572,3.3059 l 2.1903,6.116 q 7.4802,-3.1406 14.547,-3.1406 5.5791,0 8.72,2.3968 3.1408,2.3968 3.1408,6.6532 0,3.1406 -1.1572,5.1655 -1.1571,1.9836 -3.8847,3.6779 -2.7688,1.653 -8.4306,3.6779 -9.5051,3.3886 -13.0592,7.273 -3.5954,3.8845 -3.5954,10.0832 z"
     id="path4857"
     style="font-size:42.3173px;font-family:'Open Sans';text-anchor:middle;fill:#ffffff;stroke-width:0mm" />
  <path
     d="m 696.3739,1096.0166 v -60.4161 h -7.0255 v 60.4161 z"
     id="path4854"
     style="font-size:42.3173px;font-family:'Open Sans';text-anchor:middle;fill:#ffffff;stroke-width:0mm" />
  <path
     d="m 586.194,1035.6005 h -17.0679 q -12.0261,0 -17.3985,3.5952 -5.3725,3.5952 -5.3725,11.3642 0,5.3721 3.0168,8.8847 2.9756,3.4713 8.72,4.5044 v 0.4132 q -13.7618,2.3555 -13.7618,14.4635 0,8.0996 5.4964,12.6452 5.4551,4.5457 15.2909,4.5457 h 21.0766 z m -7.0255,25.869 H 567.597 q -7.4388,0 -10.7036,-2.3142 -3.2648,-2.3554 -3.2648,-7.8929 0,-5.0829 3.6367,-7.3144 3.6368,-2.2728 11.5715,-2.2728 h 10.3317 z m 0,5.9507 v 22.6044 h -12.6047 q -7.3148,0 -10.9929,-2.8101 -3.7194,-2.8513 -3.7194,-8.8847 0,-5.6201 3.8021,-8.2648 3.7607,-2.6448 11.4888,-2.6448 z"
     id="path4845"
     style="font-size:42.3173px;font-family:'Open Sans';text-anchor:middle;fill:#ffffff;stroke-width:0mm" />
  <path
     d="m 417.5489,1096.0166 h 8.0174 l 33.02,-50.7049 h 0.3306 q -0.6613,8.926 -0.6613,16.3644 v 34.3405 h 6.4883 v -60.4161 h -7.9347 l -32.9373,50.4983 h -0.3306 q 0.083,-1.1158 0.3719,-7.1491 0.2893,-6.0747 0.2066,-8.6781 v -34.6711 h -6.5709 z"
     id="path4842"
     style="font-size:42.3173px;font-family:'Open Sans';text-anchor:middle;fill:#ffffff;stroke-width:0mm" />
  <path
     d="m 318.7046,1096.0166 v -60.4161 h -7.0255 v 60.4161 z"
     id="path4839"
     style="font-size:42.3173px;font-family:'Open Sans';text-anchor:middle;fill:#ffffff;stroke-width:0mm" />
  <path
     d="m 1555.045,1216.9546 7.5215,-19.2158 h 24.2174 l 7.4388,19.2158 h 7.1082 l -23.8868,-60.6641 h -5.9097 l -23.7629,60.6641 z m 9.7118,-25.5384 7.0255,-18.7199 q 1.3638,-3.5539 2.8102,-8.7195 0.9092,3.9672 2.6036,8.7195 l 7.1082,18.7199 z"
     id="path4836"
     style="font-size:42.3173px;font-family:'Open Sans';text-anchor:middle;fill:#ffffff;stroke-width:0mm" />
  <path
     d="m 1441.1372,1161.9519 q 9.9597,0 15.7455,6.6533 5.7444,6.6119 5.7444,18.1413 0,11.8601 -5.5378,18.348 -5.5791,6.4466 -15.8694,6.4466 -6.323,0 -14.423,-2.2728 v 6.1573 q 6.2816,2.3555 15.4975,2.3555 13.3485,0 20.622,-8.0996 7.2321,-8.0995 7.2321,-23.0176 0,-9.3393 -3.4714,-16.3644 -3.5128,-7.0252 -10.0837,-10.827 -6.6123,-3.8019 -15.5388,-3.8019 -9.5052,0 -16.6134,3.4713 l 2.9756,6.0333 q 6.8602,-3.2233 13.7204,-3.2233 z"
     id="path4833"
     style="font-size:42.3173px;font-family:'Open Sans';text-anchor:middle;fill:#ffffff;stroke-width:0mm" />
  <path
     d="m 1299.7265,1216.9546 h 7.0255 v -28.4311 h 31.8216 v 28.4311 h 7.0255 v -60.4161 h -7.0255 v 25.7037 h -31.8216 v -25.7037 h -7.0255 z"
     id="path4830"
     style="font-size:42.3173px;font-family:'Open Sans';text-anchor:middle;fill:#ffffff;stroke-width:0mm" />
  <path
     d="m 1193.2575,1216.9546 h 7.0255 v -54.1762 h 19.1343 v -6.2399 h -45.294 v 6.2399 h 19.1342 z"
     id="path4827"
     style="font-size:42.3173px;font-family:'Open Sans';text-anchor:middle;fill:#ffffff;stroke-width:0mm" />
  <path
     d="m 1074.3078,1216.9546 v -60.4161 h -7.0255 v 60.4161 z"
     id="path4824"
     style="font-size:42.3173px;font-family:'Open Sans';text-anchor:middle;fill:#ffffff;stroke-width:0mm" />
  <path
     d="m 921.28432,1216.9546 h 8.01738 l 33.02,-50.7049 h 0.33062 q -0.66122,8.926 -0.66122,16.3644 v 34.3405 h 6.48828 v -60.4161 h -7.93472 l -32.93736,50.4983 h -0.33062 q 0.0826,-1.1158 0.37196,-7.1491 0.28928,-6.0747 0.20662,-8.6781 v -34.6711 h -6.57094 z"
     id="path4821"
     style="font-size:42.3173px;font-family:'Open Sans';text-anchor:middle;fill:#ffffff;stroke-width:0mm" />
  <path
     d="m 795.8257,1156.5385 v 39.0928 q 0,10.331 6.2403,16.2404 6.2403,5.9094 17.1505,5.9094 10.9103,0 16.9026,-5.9507 5.9511,-5.9507 5.9511,-16.3644 v -38.9275 h -7.0256 v 39.4233 q 0,7.5624 -4.1326,11.6122 -4.1327,4.0498 -12.1501,4.0498 -7.6454,0 -11.778,-4.0498 -4.1327,-4.0911 -4.1327,-11.6948 v -39.3407 z m 34.8796,-11.1163 q 0,-2.1488 -1.0744,-3.0993 -1.1159,-0.9505 -2.6449,-0.9505 -1.5705,0 -2.6863,0.9505 -1.1571,0.9505 -1.1571,3.0993 0,2.0662 1.1571,3.0993 1.1158,0.9918 2.6863,0.9918 1.529,0 2.6449,-0.9918 1.0744,-1.0331 1.0744,-3.0993 z m -15.7454,0 q 0,-2.1488 -1.0745,-3.0993 -1.1158,-0.9505 -2.6449,-0.9505 -1.5291,0 -2.6449,0.9505 -1.1572,0.9505 -1.1572,3.0993 0,2.0662 1.1572,3.0993 1.1158,0.9918 2.6449,0.9918 1.5291,0 2.6449,-0.9918 1.0745,-1.0331 1.0745,-3.0993 z"
     id="path4818"
     style="font-size:42.3173px;font-family:'Open Sans';text-anchor:middle;fill:#ffffff;stroke-width:0mm" />
  <path
     d="m 669.4166,1216.9546 h 8.0174 l 33.02,-50.7049 h 0.3306 q -0.6612,8.926 -0.6612,16.3644 v 34.3405 h 6.4883 v -60.4161 h -7.9347 l -32.9374,50.4983 h -0.3306 q 0.083,-1.1158 0.3719,-7.1491 0.2893,-6.0747 0.2067,-8.6781 v -34.6711 h -6.571 z"
     id="path4815"
     style="font-size:42.3173px;font-family:'Open Sans';text-anchor:middle;fill:#ffffff;stroke-width:0mm" />
  <path
     d="m 570.5725,1216.9546 v -60.4161 h -7.0255 v 60.4161 z"
     id="path4812"
     style="font-size:42.3173px;font-family:'Open Sans';text-anchor:middle;fill:#ffffff;stroke-width:0mm" />
  <path
     d="m 413.3542,1186.6639 q 0,14.5048 7.3562,22.811 7.3148,8.3062 20.374,8.3062 13.3485,0 20.622,-8.1409 7.2322,-8.1822 7.2322,-23.059 0,-14.7528 -7.2735,-22.8523 -7.2735,-8.1409 -20.6633,-8.1409 -13.0179,0 -20.3327,8.2649 -7.3149,8.2648 -7.3149,22.811 z m 48.1456,0 q 0,12.2733 -5.2072,18.6372 -5.2485,6.3227 -15.2082,6.3227 -10.0423,0 -15.1668,-6.3227 -5.1246,-6.3226 -5.1246,-18.6372 0,-12.1907 5.1246,-18.472 5.0831,-6.3226 15.0842,-6.3226 10.0423,0 15.2908,6.3639 5.2072,6.3227 5.2072,18.4307 z"
     id="path4809"
     style="font-size:42.3173px;font-family:'Open Sans';text-anchor:middle;fill:#ffffff;stroke-width:0mm" />
  <path
     d="m 321.7215,1216.9546 h 7.0255 v -60.4161 h -33.6812 v 6.2399 h 26.6557 v 22.1085 h -25.044 v 6.24 h 25.044 z"
     id="path4806"
     style="font-size:42.3173px;font-family:'Open Sans';text-anchor:middle;fill:#ffffff;stroke-width:0mm" />
  <path
     d="m 1567.0711,1282.89 q 9.9597,0 15.7454,6.6532 5.7444,6.6119 5.7444,18.1414 0,11.86 -5.5377,18.348 -5.5791,6.4465 -15.8695,6.4465 -6.323,0 -14.423,-2.2728 v 6.1573 q 6.2817,2.3555 15.4975,2.3555 13.3485,0 20.622,-8.0995 7.2322,-8.0996 7.2322,-23.0177 0,-9.3393 -3.4714,-16.3644 -3.5128,-7.0251 -10.0838,-10.827 -6.6122,-3.8018 -15.5388,-3.8018 -9.5051,0 -16.6133,3.4712 l 2.9755,6.0334 q 6.8602,-3.2233 13.7205,-3.2233 z"
     id="path4803"
     style="font-size:42.3173px;font-family:'Open Sans';text-anchor:middle;fill:#ffffff;stroke-width:0mm" />
  <path
     d="m 1302.1399,1337.8926 h 41.5333 v -5.4961 l -32.0695,-48.5974 h 31.0777 v -6.3226 h -39.6323 v 5.4961 l 32.0695,48.5561 h -32.9787 z"
     id="path4800"
     style="font-size:42.3173px;font-family:'Open Sans';text-anchor:middle;fill:#ffffff;stroke-width:0mm" />
  <path
     d="m 1177.4665,1337.8926 7.5215,-19.2158 h 24.2174 l 7.4388,19.2158 h 7.1082 l -23.8868,-60.6641 h -5.9097 l -23.7629,60.6641 z m 9.7118,-25.5384 7.0255,-18.7199 q 1.3638,-3.5539 2.8102,-8.7194 0.9092,3.9671 2.6036,8.7194 l 7.1082,18.7199 z m 21.5312,-45.994 q 0,-2.1488 -1.0745,-3.0993 -1.1158,-0.9504 -2.6449,-0.9504 -1.5704,0 -2.6863,0.9504 -1.1571,0.9505 -1.1571,3.0993 0,2.0663 1.1571,3.0994 1.1159,0.9917 2.6863,0.9917 1.5291,0 2.6449,-0.9917 1.0745,-1.0331 1.0745,-3.0994 z m -15.7455,0 q 0,-2.1488 -1.0745,-3.0993 -1.1158,-0.9504 -2.6449,-0.9504 -1.5291,0 -2.6449,0.9504 -1.1571,0.9505 -1.1571,3.0993 0,2.0663 1.1571,3.0994 1.1158,0.9917 2.6449,0.9917 1.5291,0 2.6449,-0.9917 1.0745,-1.0331 1.0745,-3.0994 z"
     id="path4797"
     style="font-size:42.3173px;font-family:'Open Sans';text-anchor:middle;fill:#ffffff;stroke-width:0mm" />
  <path
     d="m 1047.4413,1337.8926 h 8.0174 l 33.02,-50.7049 h 0.3306 q -0.6612,8.9261 -0.6612,16.3644 v 34.3405 h 6.4883 v -60.4161 h -7.9348 l -32.9373,50.4983 h -0.3306 q 0.083,-1.1158 0.3719,-7.1491 0.2893,-6.0747 0.2067,-8.6781 v -34.6711 h -6.571 z"
     id="path4794"
     style="font-size:42.3173px;font-family:'Open Sans';text-anchor:middle;fill:#ffffff;stroke-width:0mm" />
  <path
     d="m 948.59706,1337.8926 v -60.4161 h -7.02552 v 60.4161 z"
     id="path4791"
     style="font-size:42.3173px;font-family:'Open Sans';text-anchor:middle;fill:#ffffff;stroke-width:0mm" />
  <path
     d="m 674.6995,1337.8926 h 33.6812 v -60.4161 h -33.6812 v 6.24 h 26.6557 v 19.4637 h -25.044 v 6.1987 h 25.044 v 22.2324 h -26.6557 z"
     id="path4788"
     style="font-size:42.3173px;font-family:'Open Sans';text-anchor:middle;fill:#ffffff;stroke-width:0mm" />
  <path
     d="m 544.0957,1277.4765 v 39.0928 q 0,10.3311 6.2403,16.2404 6.2403,5.9094 17.1505,5.9094 10.9103,0 16.9026,-5.9507 5.9511,-5.9507 5.9511,-16.3644 v -38.9275 h -7.0256 v 39.4234 q 0,7.5623 -4.1326,11.6121 -4.1327,4.0498 -12.1501,4.0498 -7.6454,0 -11.778,-4.0498 -4.1327,-4.0911 -4.1327,-11.6948 v -39.3407 z"
     id="path4785"
     style="font-size:42.3173px;font-family:'Open Sans';text-anchor:middle;fill:#ffffff;stroke-width:0mm" />
  <path
     d="m 447.7931,1337.8926 h 7.0255 v -60.4161 h -33.6812 v 6.24 h 26.6557 v 22.1085 h -25.044 v 6.2399 h 25.044 z"
     id="path4782"
     style="font-size:42.3173px;font-family:'Open Sans';text-anchor:middle;fill:#ffffff;stroke-width:0mm" />
  <path
     d="m 318.8425,1337.8926 v -60.4161 h -7.0255 v 60.4161 z"
     id="path4779"
     style="font-size:42.3173px;font-family:'Open Sans';text-anchor:middle;fill:#ffffff;stroke-width:0mm" />
  <path
     d="m 1423.1841,1307.2752 q 0,14.9594 8.1413,22.8936 8.1001,7.893 23.3496,7.893 h 16.7373 v -60.4162 h -18.5144 q -14.0923,0 -21.9031,7.8103 -7.8107,7.8103 -7.8107,21.8193 z m 7.4388,0.2479 q 0,-11.8187 5.951,-17.8108 5.9097,-5.992 17.6052,-5.992 h 10.2077 v 48.2668 h -8.5547 q -12.5633,0 -18.8863,-6.1573 -6.3229,-6.1987 -6.3229,-18.3067 z"
     id="path4776-4"
     style="font-size:42.3173px;font-family:'Open Sans';text-anchor:middle;fill:#ffffff;stroke-width:0mm" />
  <path
     d="m 1546.759,1428.54 q 0,14.5049 7.3562,22.811 7.3148,8.3062 20.374,8.3062 13.3485,0 20.622,-8.1409 7.2322,-8.1822 7.2322,-23.0589 0,-14.7528 -7.2735,-22.8524 -7.2735,-8.1409 -20.6633,-8.1409 -13.0179,0 -20.3328,8.2649 -7.3148,8.2649 -7.3148,22.811 z m 48.1456,0 q 0,12.2733 -5.2072,18.6373 -5.2485,6.3226 -15.2082,6.3226 -10.0424,0 -15.1669,-6.3226 -5.1245,-6.3226 -5.1245,-18.6373 0,-12.1906 5.1245,-18.472 5.0832,-6.3226 15.0843,-6.3226 10.0423,0 15.2908,6.364 5.2072,6.3226 5.2072,18.4306 z"
     id="path4770"
     style="font-size:42.3173px;font-family:'Open Sans';text-anchor:middle;fill:#ffffff;stroke-width:0mm" />
  <path
     d="m 1422.6435,1458.8307 h 8.2654 l 22.0271,-29.2989 6.3229,5.6201 v 23.6788 h 7.0256 v -60.4161 h -7.0256 v 29.9601 l -27.3995,-29.9601 h -8.3067 l 24.3001,26.2409 z"
     id="path4767"
     style="font-size:42.3173px;font-family:'Open Sans';text-anchor:middle;fill:#ffffff;stroke-width:0mm" />
  <path
     d="m 1318.6128,1427.1763 h -20.5394 v 29.3816 q 4.7939,1.529 9.7531,2.3142 4.9592,0.7851 11.4888,0.7851 13.7205,0 21.3659,-8.1409 7.6455,-8.1822 7.6455,-22.8936 0,-9.422 -3.7608,-16.4884 -3.802,-7.1078 -10.9102,-10.827 -7.1082,-3.7605 -16.6546,-3.7605 -9.6705,0 -18.0185,3.5539 l 2.7276,6.1986 q 8.1827,-3.4712 15.7454,-3.4712 11.0343,0 17.2333,6.5705 6.199,6.5706 6.199,18.2241 0,12.232 -5.9511,18.5546 -5.9923,6.3226 -17.5638,6.3226 -6.2817,0 -12.274,-1.4463 v -18.596 h 13.5138 z"
     id="path4764"
     style="font-size:42.3173px;font-family:'Open Sans';text-anchor:middle;fill:#ffffff;stroke-width:0mm" />
  <path
     d="m 1175.983,1458.8307 h 41.5333 v -5.4961 l -32.0695,-48.5974 h 31.0776 v -6.3226 h -39.6323 v 5.4961 l 32.0695,48.5561 h -32.9786 z"
     id="path4761"
     style="font-size:42.3173px;font-family:'Open Sans';text-anchor:middle;fill:#ffffff;stroke-width:0mm" />
  <path
     d="m 1048.9539,1458.8307 h 6.9429 l 12.1914,-40.4565 q 0.8678,-2.6861 1.9423,-6.7772 1.0745,-4.0911 1.1158,-4.9176 0.9092,5.4549 2.8929,11.9428 l 11.8194,40.2085 h 6.9429 l 16.0761,-60.4161 h -7.4388 l -9.5465,37.3158 q -1.9837,7.8517 -2.8928,14.2156 -1.1159,-7.5623 -3.3062,-14.7941 l -10.8276,-36.7373 h -7.4388 l -11.3648,37.0679 q -1.9837,6.4053 -3.3474,14.4635 -0.7853,-5.868 -2.9756,-14.2982 l -9.5051,-37.2332 h -7.4388 z"
     id="path4758"
     style="font-size:42.3173px;font-family:'Open Sans';text-anchor:middle;fill:#ffffff;stroke-width:0mm" />
  <path
     d="m 917.08968,1428.54 q 0,14.5049 7.35612,22.811 7.31484,8.3062 20.37406,8.3062 13.3485,0 20.62202,-8.1409 7.23216,-8.1822 7.23216,-23.0589 0,-14.7528 -7.2735,-22.8524 -7.2735,-8.1409 -20.66334,-8.1409 -13.01788,0 -20.33272,8.2649 -7.3148,8.2649 -7.3148,22.811 z m 48.14554,0 q 0,12.2733 -5.20714,18.6373 -5.2485,6.3226 -15.20822,6.3226 -10.04238,0 -15.16688,-6.3226 -5.1245,-6.3226 -5.1245,-18.6373 0,-12.1906 5.1245,-18.472 5.08318,-6.3226 15.08422,-6.3226 10.04238,0 15.29088,6.364 5.20714,6.3226 5.20714,18.4306 z m -8.96786,-41.2416 q 0,-2.1489 -1.0745,-3.0994 -1.11584,-0.9504 -2.64492,-0.9504 -1.5704,0 -2.68624,0.9504 -1.15712,0.9505 -1.15712,3.0994 0,2.0662 1.15712,3.0993 1.11584,0.9918 2.68624,0.9918 1.52908,0 2.64492,-0.9918 1.0745,-1.0331 1.0745,-3.0993 z m -15.74548,0 q 0,-2.1489 -1.07448,-3.0994 -1.11582,-0.9504 -2.64492,-0.9504 -1.52908,0 -2.6449,0.9504 -1.15714,0.9505 -1.15714,3.0994 0,2.0662 1.15714,3.0993 1.11582,0.9918 2.6449,0.9918 1.5291,0 2.64492,-0.9918 1.07448,-1.0331 1.07448,-3.0993 z"
     id="path4755"
     style="font-size:42.3173px;font-family:'Open Sans';text-anchor:middle;fill:#ffffff;stroke-width:0mm" />
  <path
     d="m 795.8257,1398.4146 v 39.0928 q 0,10.3311 6.2403,16.2404 6.2403,5.9094 17.1505,5.9094 10.9103,0 16.9026,-5.9507 5.9511,-5.9507 5.9511,-16.3644 v -38.9275 h -7.0256 v 39.4234 q 0,7.5623 -4.1326,11.6121 -4.1327,4.0498 -12.1501,4.0498 -7.6454,0 -11.778,-4.0498 -4.1327,-4.0911 -4.1327,-11.6948 v -39.3407 z"
     id="path4752"
     style="font-size:42.3173px;font-family:'Open Sans';text-anchor:middle;fill:#ffffff;stroke-width:0mm" />
  <path
     d="m 699.5231,1458.8307 h 7.0255 v -60.4161 h -33.6812 v 6.24 h 26.6557 v 22.1085 h -25.044 v 6.2399 h 25.044 z"
     id="path4749"
     style="font-size:42.3173px;font-family:'Open Sans';text-anchor:middle;fill:#ffffff;stroke-width:0mm" />
  <path
     d="m 570.5725,1458.8307 v -60.4161 h -7.0255 v 60.4161 z"
     id="path4746"
     style="font-size:42.3173px;font-family:'Open Sans';text-anchor:middle;fill:#ffffff;stroke-width:0mm" />
  <path
     d="m 291.1191,1458.8307 h 7.976 l 16.2414,-26.5715 16.5307,26.5715 h 7.4388 l -20.0848,-31.5717 18.721,-28.8444 h -7.7694 l -15.0016,23.9268 -15.1255,-23.9268 h -7.4802 l 18.721,28.5964 z"
     id="path4740"
     style="font-size:42.3173px;font-family:'Open Sans';text-anchor:middle;fill:#ffffff;stroke-width:0mm" />
  <path
     d="m 795.1374,1337.9311 h 7.976 l 16.2414,-26.5716 16.5307,26.5716 h 7.4388 l -20.0848,-31.5718 18.721,-28.8444 h -7.7694 l -15.0016,23.9268 -15.1255,-23.9268 h -7.4802 l 18.721,28.5964 z"
     id="path4740-8"
     style="font-size:42.3173px;font-family:'Open Sans';text-anchor:middle;fill:#ffffff;stroke-width:0mm" />
  <path
     d="m 1588.2097,1579.7688 v -60.4161 h -7.0256 v 54.0522 h -26.6557 v 6.3639 z"
     id="path4737"
     style="font-size:42.3173px;font-family:'Open Sans';text-anchor:middle;fill:#ffffff;stroke-width:0mm" />
  <path
     d="m 1448.638,1549.5608 -16.1174,-30.2081 h -7.6041 l 20.1674,36.9852 v 23.4309 h 7.1082 v -23.1003 l 20.1261,-37.3158 h -7.6868 z"
     id="path4734"
     style="font-size:42.3173px;font-family:'Open Sans';text-anchor:middle;fill:#ffffff;stroke-width:0mm" />
  <path
     d="m 1341.7971,1519.3527 h -17.068 q -12.026,0 -17.3985,3.5952 -5.3725,3.5952 -5.3725,11.3642 0,5.3722 3.0169,8.8847 2.9755,3.4713 8.7199,4.5044 v 0.4132 q -13.7617,2.3555 -13.7617,14.4635 0,8.0996 5.4964,12.6453 5.4551,4.5456 15.2909,4.5456 h 21.0766 z m -7.0256,25.869 h -11.5714 q -7.4388,0 -10.7037,-2.3142 -3.2648,-2.3554 -3.2648,-7.8929 0,-5.0829 3.6368,-7.3144 3.6367,-2.2728 11.5714,-2.2728 h 10.3317 z m 0,5.9507 v 22.6044 h -12.6046 q -7.3148,0 -10.9929,-2.81 -3.7194,-2.8514 -3.7194,-8.8848 0,-5.6201 3.8021,-8.2648 3.7607,-2.6448 11.4888,-2.6448 z"
     id="path4731"
     style="font-size:42.3173px;font-family:'Open Sans';text-anchor:middle;fill:#ffffff;stroke-width:0mm" />
  <path
     d="m 923.74326,1536.9568 q 0,9.174 6.28164,14.133 6.24034,4.9175 17.89446,4.9175 h 7.10818 v 23.7615 h 7.02554 v -60.4161 h -15.6628 q -22.64702,0 -22.64702,17.6041 z m 31.28428,13.0172 h -6.32296 q -9.33984,0 -13.51382,-3.0167 -4.174,-3.0166 -4.174,-9.6699 0,-5.992 3.92602,-8.926 3.92604,-2.934 12.2327,-2.934 h 7.85206 z"
     id="path4722"
     style="font-size:42.3173px;font-family:'Open Sans';text-anchor:middle;fill:#ffffff;stroke-width:0mm" />
  <path
     d="m 570.2419,1579.7688 20.498,-53.5563 h 0.3306 q -0.5785,6.364 -0.5785,15.1247 v 38.4316 h 6.4882 v -60.4161 h -10.5796 l -19.1342,49.8371 h -0.3306 l -19.2996,-49.8371 h -10.497 v 60.4161 h 7.0256 v -38.9275 q 0,-6.6945 -0.5786,-14.5461 h 0.3306 l 20.6633,53.4736 z"
     id="path4713"
     style="font-size:42.3173px;font-family:'Open Sans';text-anchor:middle;fill:#ffffff;stroke-width:0mm" />
  <path
     d="m 1451.5357,1095.709 20.4981,-53.5563 h 0.3306 q -0.5786,6.3639 -0.5786,15.1247 v 38.4316 h 6.4883 v -60.4162 h -10.5797 l -19.1342,49.8372 h -0.3306 l -19.2996,-49.8372 h -10.497 v 60.4162 h 7.0256 v -38.9275 q 0,-6.6946 -0.5786,-14.5462 h 0.3306 l 20.6634,53.4737 z"
     id="path4713-7"
     style="font-size:42.3173px;font-family:'Open Sans';text-anchor:middle;fill:#ffffff;stroke-width:0mm" />
  <path
     d="m 415.1726,1579.7688 h 8.2653 l 22.0271,-29.2989 6.323,5.6201 v 23.6788 h 7.0256 v -60.4161 h -7.0256 v 29.9601 l -27.3996,-29.9601 h -8.3066 l 24.3001,26.2409 z"
     id="path4710"
     style="font-size:42.3173px;font-family:'Open Sans';text-anchor:middle;fill:#ffffff;stroke-width:0mm" />
  <path
     style="fill:#ffffff;stroke-width:0.136328"
     d="m 290.9571,1579.3829 c 2.5571,1.6545 5.9187,2.0743 8.7507,1.0927 1.6642,-0.5768 2.6684,-1.207 3.9241,-2.4627 1.2703,-1.2704 1.8953,-2.2729 2.4644,-3.9532 0.9276,-2.7385 0.6319,-5.6035 -0.8632,-8.3644 -0.5659,-1.0449 -2.5218,-3.0008 -3.5667,-3.5667 -1.9239,-1.0418 -3.4832,-1.4244 -5.5483,-1.3614 -1.6996,0.052 -3.6219,0.6178 -4.9702,1.4632 -1.0621,0.6659 -2.6326,2.2358 -3.2927,3.2913 -1.6538,2.6447 -1.944,6.2878 -0.7368,9.2498 0.7217,1.7708 2.2082,3.5565 3.8387,4.6115 z m 31.9308,-1.3398 4.7725,-0.026 -0.025,-1.0578 c -0.1084,-4.5422 -1.2977,-9.92 -3.1141,-14.0802 -3.3253,-7.616 -9.0339,-14.0095 -16.1657,-18.1053 -5.2374,-3.0077 -11.7787,-4.8675 -17.6757,-5.0252 l -1.3291,-0.036 -0.03,4.7672 -0.03,4.7673 0.9344,0.029 c 5.7119,0.1806 11.4182,2.1677 16.302,5.6768 1.2113,0.8703 5.0312,4.6876 5.8824,5.8783 3.5223,4.9278 5.4916,10.5848 5.6753,16.3035 l 0.03,0.934 4.7724,-0.026 z m 19.1773,-0.02 4.7701,0.01 -0.049,-2.0441 c -0.2592,-10.7018 -3.9769,-21.8485 -10.2873,-30.8436 -2.1996,-3.1354 -3.419,-4.5682 -6.5664,-7.7156 -3.1474,-3.1474 -4.5801,-4.3668 -7.7156,-6.5664 -8.9932,-6.309 -20.1456,-10.0282 -30.8481,-10.2873 l -2.0487,-0.05 0.016,4.7701 0.016,4.7702 1.7027,0.05 c 10.143,0.2981 20.1913,4.0489 28.4421,10.6169 1.6045,1.2772 5.8563,5.529 7.1335,7.1334 6.5695,8.2528 10.3187,18.2969 10.6169,28.4427 l 0.05,1.7034 z"
     id="path5438"
     inkscape:connector-curvature="0" />
  <g
     aria-label=""
     id="text7138"
     style="font-size:42.3185px;font-family:'Open Sans';text-anchor:middle;fill:#ffffff;stroke-width:0mm"
     transform="matrix(-2.7250176,0,0,2.7250176,1797.8549,-158.5885)">
    <path
       d="m 214.32558,626.25997 q 0,-2.68623 1.8597,-4.56659 1.88036,-1.88037 4.5666,-1.88037 2.68623,0 4.56659,1.88037 1.88036,1.8597 1.88036,4.56659 0,1.73572 -0.84719,3.22348 -0.8472,1.4671 -2.35562,2.33496 -1.50842,0.86786 -3.24414,0.86786 -2.68624,0 -4.5666,-1.8597 -1.8597,-1.8597 -1.8597,-4.5666 z m 2.37628,0 q 0,1.6944 1.19848,2.87221 1.21913,1.17781 2.89286,1.17781 1.65307,0 2.83088,-1.15715 1.19847,-1.17781 1.19847,-2.89287 0,-1.73572 -1.17781,-2.89286 -1.15714,-1.17781 -2.85154,-1.17781 -1.71505,0 -2.91353,1.17781 -1.17781,1.17781 -1.17781,2.89286 z"
       id="path7587" />
  </g>
  <g
     aria-label=""
     id="text7138-3"
     style="font-size:42.3185px;font-family:'Open Sans';text-anchor:middle;fill:#ffffff;stroke-width:0mm"
     transform="matrix(-2.7250176,0,0,2.7250176,1672.9817,-158.07222)">
    <path
       d="m 214.32558,626.25997 q 0,-2.68623 1.8597,-4.56659 1.88036,-1.88037 4.5666,-1.88037 2.68623,0 4.56659,1.88037 1.88036,1.8597 1.88036,4.56659 0,1.73572 -0.84719,3.22348 -0.8472,1.4671 -2.35562,2.33496 -1.50842,0.86786 -3.24414,0.86786 -2.68624,0 -4.5666,-1.8597 -1.8597,-1.8597 -1.8597,-4.5666 z m 2.37628,0 q 0,1.6944 1.19848,2.87221 1.21913,1.17781 2.89286,1.17781 1.65307,0 2.83088,-1.15715 1.19847,-1.17781 1.19847,-2.89287 0,-1.73572 -1.17781,-2.89286 -1.15714,-1.17781 -2.85154,-1.17781 -1.71505,0 -2.91353,1.17781 -1.17781,1.17781 -1.17781,2.89286 z"
       id="path7587-3" />
  </g>
  <path
     d="m 457.1568,1458.9582 v -60.4196 h -7.0255 v 54.0553 h -26.6557 v 6.3643 z"
     id="path11520"
     style="font-size:42.3185px;font-family:'Open Sans';text-anchor:middle;fill:#ffffff;stroke-width:0mm" />
  <g
     aria-label=""
     id="text7138-0"
     style="font-size:42.3185px;font-family:'Open Sans';text-anchor:middle;fill:#ffffff;stroke-width:0mm"
     transform="matrix(-2.7250176,0,0,2.7250176,1420.1071,-158.57832)">
    <path
       d="m 214.32558,626.25997 q 0,-2.68623 1.8597,-4.56659 1.88036,-1.88037 4.5666,-1.88037 2.68623,0 4.56659,1.88037 1.88036,1.8597 1.88036,4.56659 0,1.73572 -0.84719,3.22348 -0.8472,1.4671 -2.35562,2.33496 -1.50842,0.86786 -3.24414,0.86786 -2.68624,0 -4.5666,-1.8597 -1.8597,-1.8597 -1.8597,-4.5666 z m 2.37628,0 q 0,1.6944 1.19848,2.87221 1.21913,1.17781 2.89286,1.17781 1.65307,0 2.83088,-1.15715 1.19847,-1.17781 1.19847,-2.89287 0,-1.73572 -1.17781,-2.89286 -1.15714,-1.17781 -2.85154,-1.17781 -1.71505,0 -2.91353,1.17781 -1.17781,1.17781 -1.17781,2.89286 z"
       id="path7587-9" />
  </g>
  <g
     aria-label=""
     id="text7138-3-4"
     style="font-size:42.3185px;font-family:'Open Sans';text-anchor:middle;fill:#ffffff;stroke-width:0mm"
     transform="matrix(-2.7250176,0,0,2.7250176,1295.2338,-158.06204)">
    <path
       d="m 214.32558,626.25997 q 0,-2.68623 1.8597,-4.56659 1.88036,-1.88037 4.5666,-1.88037 2.68623,0 4.56659,1.88037 1.88036,1.8597 1.88036,4.56659 0,1.73572 -0.84719,3.22348 -0.8472,1.4671 -2.35562,2.33496 -1.50842,0.86786 -3.24414,0.86786 -2.68624,0 -4.5666,-1.8597 -1.8597,-1.8597 -1.8597,-4.5666 z m 2.37628,0 q 0,1.6944 1.19848,2.87221 1.21913,1.17781 2.89286,1.17781 1.65307,0 2.83088,-1.15715 1.19847,-1.17781 1.19847,-2.89287 0,-1.73572 -1.17781,-2.89286 -1.15714,-1.17781 -2.85154,-1.17781 -1.71505,0 -2.91353,1.17781 -1.17781,1.17781 -1.17781,2.89286 z"
       id="path7587-3-3" />
  </g>
</svg>
