<?xml version="1.0" encoding="UTF-8" standalone="no"?>
<svg
   width="183.46mm"
   height="176.20mm"
   version="1.1"
   id="svg10244"
   sodipodi:docname="Zuerideutsch_121.svg"
   inkscape:version="1.2.1 (9c6d41e410, 2022-07-14)"
   xmlns:inkscape="http://www.inkscape.org/namespaces/inkscape"
   xmlns:sodipodi="http://sodipodi.sourceforge.net/DTD/sodipodi-0.dtd"
   xmlns="http://www.w3.org/2000/svg"
   xmlns:svg="http://www.w3.org/2000/svg">
  <defs
     id="defs10248" />
  <sodipodi:namedview
     id="namedview10246"
     pagecolor="#505050"
     bordercolor="#eeeeee"
     borderopacity="1"
     inkscape:showpageshadow="0"
     inkscape:pageopacity="0"
     inkscape:pagecheckerboard="0"
     inkscape:deskcolor="#505050"
     inkscape:document-units="mm"
     showgrid="false"
     inkscape:zoom="1.750875"
     inkscape:cx="346.96938"
     inkscape:cy="332.97637"
     inkscape:window-width="2560"
     inkscape:window-height="1369"
     inkscape:window-x="3832"
     inkscape:window-y="723"
     inkscape:window-maximized="1"
     inkscape:current-layer="svg10244" />
  <path
     id="rect9514"
     style="fill:#231f20;stroke-width:0mm"
     d="M 0,0 H 693.39215 V 665.95276 H 0 Z" />
  <path
     d="M 41.087597,45.732283 H 24.246982 V 15.522494 h 16.840615 v 3.120163 H 27.759749 v 9.732428 h 12.521978 v 3.0995 H 27.759749 v 11.116871 h 13.327848 z"
     id="path11835"
     style="font-size:42.3185px;font-family:'Open Sans';text-anchor:middle;fill:#ffffff;stroke-width:0mm" />
  <path
     d="m 104.41613,37.694247 q 0,3.988023 -2.89286,6.219663 -2.892871,2.231639 -7.85207,2.231639 -5.372466,0 -8.265332,-1.384443 V 41.37232 q 1.859699,0.785206 4.050012,1.2398 2.190313,0.454593 4.3393,0.454593 3.512766,0 5.289812,-1.322453 1.777048,-1.343117 1.777048,-3.7194 0,-1.570413 -0.64056,-2.562253 -0.619904,-1.012503 -2.107664,-1.859699 -1.467097,-0.847197 -4.483943,-1.92169 -4.215319,-1.508423 -6.033692,-3.574756 -1.79771,-2.066333 -1.79771,-5.393129 0,-3.492103 2.624243,-5.558436 2.624243,-2.066333 6.942879,-2.066333 4.504606,0 8.285997,1.653066 l -1.09516,3.058173 q -3.740061,-1.570413 -7.27349,-1.570413 -2.78955,0 -4.359963,1.198473 -1.570413,1.198473 -1.570413,3.326796 0,1.570413 0.578573,2.582917 0.578573,0.991839 1.942353,1.839036 1.384443,0.826533 4.215319,1.839036 4.752571,1.694393 6.529611,3.636747 1.79771,1.942353 1.79771,5.041852 z"
     id="path11832"
     style="font-size:42.3185px;font-family:'Open Sans';text-anchor:middle;fill:#ffffff;stroke-width:0mm" />
  <path
     d="m 170.63753,30.338102 q 0,7.480125 -4.07067,11.447485 -4.05002,3.946696 -11.67479,3.946696 h -8.36864 V 15.522494 h 9.25717 q 7.04619,0 10.95156,3.905369 3.90537,3.90537 3.90537,10.910239 z m -3.7194,0.12398 q 0,-5.909713 -2.97552,-8.905896 -2.95485,-2.996183 -8.80258,-2.996183 h -5.10384 v 24.13477 h 4.27731 q 6.28165,0 9.44314,-3.078836 3.16149,-3.0995 3.16149,-9.153855 z"
     id="path11829"
     style="font-size:42.3185px;font-family:'Open Sans';text-anchor:middle;fill:#ffffff;stroke-width:0mm" />
  <path
     d="M 219.01616,45.732283 V 15.522494 h 3.51276 v 30.209789 z"
     id="path11826"
     style="font-size:42.3185px;font-family:'Open Sans';text-anchor:middle;fill:#ffffff;stroke-width:0mm" />
  <path
     d="m 293.31694,37.694247 q 0,3.988023 -2.89286,6.219663 -2.89287,2.231639 -7.85207,2.231639 -5.37247,0 -8.26533,-1.384443 V 41.37232 q 1.8597,0.785206 4.05001,1.2398 2.19031,0.454593 4.3393,0.454593 3.51277,0 5.28981,-1.322453 1.77705,-1.343117 1.77705,-3.7194 0,-1.570413 -0.64056,-2.562253 -0.6199,-1.012503 -2.10766,-1.859699 -1.4671,-0.847197 -4.48395,-1.92169 -4.21532,-1.508423 -6.03369,-3.574756 -1.79771,-2.066333 -1.79771,-5.393129 0,-3.492103 2.62424,-5.558436 2.62425,-2.066333 6.94288,-2.066333 4.50461,0 8.286,1.653066 l -1.09516,3.058173 q -3.74006,-1.570413 -7.27349,-1.570413 -2.78955,0 -4.35996,1.198473 -1.57042,1.198473 -1.57042,3.326796 0,1.570413 0.57858,2.582917 0.57857,0.991839 1.94235,1.839036 1.38444,0.826533 4.21532,1.839036 4.75257,1.694393 6.52961,3.636747 1.79771,1.942353 1.79771,5.041852 z"
     id="path11823"
     style="font-size:42.3185px;font-family:'Open Sans';text-anchor:middle;fill:#ffffff;stroke-width:0mm" />
  <path
     d="m 350.43614,18.22939 q -4.97986,0 -7.87273,3.326796 -2.8722,3.306133 -2.8722,9.071202 0,5.930376 2.76888,9.174519 2.78955,3.223479 7.93472,3.223479 3.16149,0 7.2115,-1.136483 v 3.078836 q -3.14082,1.17781 -7.74875,1.17781 -6.67425,0 -10.311,-4.050012 -3.61608,-4.050013 -3.61608,-11.509475 0,-4.669913 1.73572,-8.182679 1.75638,-3.512766 5.04185,-5.413793 3.30614,-1.901026 7.76941,-1.901026 4.75257,0 8.30666,1.73572 l -1.48776,3.016846 q -3.43011,-1.61174 -6.86022,-1.61174 z"
     id="path11820"
     style="font-size:42.3185px;font-family:'Open Sans';text-anchor:middle;fill:#ffffff;stroke-width:0mm" />
  <path
     d="m 421.1415,45.732283 h -3.51276 V 31.515911 h -15.91077 v 14.216372 h -3.51276 V 15.522494 h 3.51276 v 12.852591 h 15.91077 V 15.522494 h 3.51276 z"
     id="path11817"
     style="font-size:42.3185px;font-family:'Open Sans';text-anchor:middle;fill:#ffffff;stroke-width:0mm" />
  <path
     d="m 483.56082,45.732283 h -3.47144 l -6.09569,-20.229401 q -0.43393,-1.343116 -0.97117,-3.388786 -0.53725,-2.04567 -0.55791,-2.458936 -0.4546,2.727559 -1.44644,5.971702 l -5.90971,20.105421 h -3.47144 l -8.03803,-30.209789 h 3.7194 l 4.77322,18.658987 q 0.99184,3.926033 1.44644,7.108186 0.55791,-3.78139 1.65306,-7.397473 l 5.4138,-18.3697 h 3.7194 l 5.68241,18.535007 q 0.99184,3.202816 1.67373,7.232166 0.39261,-2.934193 1.48776,-7.149513 l 4.75257,-18.61766 h 3.7194 z"
     id="path11814"
     style="font-size:42.3185px;font-family:'Open Sans';text-anchor:middle;fill:#ffffff;stroke-width:0mm" />
  <path
     d="M 545.98013,45.732283 H 525.21348 V 42.98406 L 541.24822,18.683983 H 525.7094 v -3.161489 h 19.81613 v 2.748223 L 529.49079,42.55013 h 16.48934 z"
     id="path11811"
     style="font-size:42.3185px;font-family:'Open Sans';text-anchor:middle;fill:#ffffff;stroke-width:0mm" />
  <path
     d="m 608.31687,45.732283 -3.76072,-9.608449 h -12.10871 l -3.7194,9.608449 h -3.5541 l 11.94341,-30.333769 h 2.95485 l 11.88142,30.333769 z m -4.85588,-12.769939 -3.51277,-9.360488 q -0.68189,-1.777047 -1.4051,-4.359963 -0.45459,1.98368 -1.30179,4.359963 l -3.55409,9.360488 z M 592.6954,9.9640578 q 0,-1.0744931 0.53724,-1.5497497 0.55791,-0.4752566 1.32246,-0.4752566 0.7852,0 1.34311,0.4752566 0.57858,0.4752566 0.57858,1.5497497 0,1.0331662 -0.57858,1.5497502 -0.55791,0.49592 -1.34311,0.49592 -0.76455,0 -1.32246,-0.49592 -0.53724,-0.516584 -0.53724,-1.5497502 z m 7.87272,0 q 0,-1.0744931 0.53725,-1.5497497 0.55791,-0.4752566 1.32245,-0.4752566 0.76455,0 1.32246,0.4752566 0.57857,0.4752566 0.57857,1.5497497 0,1.0331662 -0.57857,1.5497502 -0.55791,0.49592 -1.32246,0.49592 -0.76454,0 -1.32245,-0.49592 -0.53725,-0.516584 -0.53725,-1.5497502 z"
     id="path11808"
     style="font-size:42.3185px;font-family:'Open Sans';text-anchor:middle;fill:#ffffff;stroke-width:0mm" />
  <path
     d="m 658.27623,45.732283 h -3.51277 V 15.522494 h 16.84061 v 3.120163 h -13.32784 v 11.054881 h 12.52197 v 3.120163 h -12.52197 z"
     id="path11805"
     style="font-size:42.3185px;font-family:'Open Sans';text-anchor:middle;fill:#ffffff;stroke-width:0mm" />
  <path
     d="m 40.67433,75.994938 h 3.78139 L 33.566144,106.20473 H 30.094705 L 19.26712,75.994938 h 3.719399 l 6.942879,19.547511 q 1.198473,3.368123 1.901027,6.550271 0.74388,-3.347455 1.942353,-6.674251 z"
     id="path11802"
     style="font-size:42.3185px;font-family:'Open Sans';text-anchor:middle;fill:#ffffff;stroke-width:0mm" />
  <path
     d="M 93.082295,106.20473 V 75.994938 h 3.512766 v 30.209792 z"
     id="path11799"
     style="font-size:42.3185px;font-family:'Open Sans';text-anchor:middle;fill:#ffffff;stroke-width:0mm" />
  <path
     d="M 167.02145,106.20473 H 150.18084 V 75.994938 h 16.84061 v 3.120163 H 153.6936 v 9.732429 h 12.52198 v 3.099499 H 153.6936 V 103.0639 h 13.32785 z"
     id="path11796"
     style="font-size:42.3185px;font-family:'Open Sans';text-anchor:middle;fill:#ffffff;stroke-width:0mm" />
  <path
     d="m 215.34841,93.641422 v 12.563308 h -3.51276 V 75.994938 h 8.28599 q 5.55844,0 8.20335,2.128323 2.66557,2.128323 2.66557,6.405633 0,5.992365 -6.07502,8.100025 l 8.20334,13.575811 h -4.15333 l -7.31482,-12.563308 z m 0,-3.016846 h 4.81456 q 3.7194,0 5.45512,-1.467096 1.73572,-1.48776 1.73572,-4.442616 0,-2.996183 -1.77705,-4.318636 -1.75638,-1.322454 -5.66175,-1.322454 h -4.5666 z"
     id="path11793"
     style="font-size:42.3185px;font-family:'Open Sans';text-anchor:middle;fill:#ffffff;stroke-width:0mm" />
  <path
     d="m 285.47521,106.20473 h -3.51277 V 79.115101 h -9.56712 v -3.120163 h 22.64701 v 3.120163 h -9.56712 z"
     id="path11790"
     style="font-size:42.3185px;font-family:'Open Sans';text-anchor:middle;fill:#ffffff;stroke-width:0mm" />
  <path
     d="M 355.92225,106.20473 H 339.08164 V 75.994938 h 16.84061 v 3.120163 H 342.5944 v 9.732429 h 12.52198 v 3.099499 H 342.5944 V 103.0639 h 13.32785 z"
     id="path11787"
     style="font-size:42.3185px;font-family:'Open Sans';text-anchor:middle;fill:#ffffff;stroke-width:0mm" />
  <path
     d="M 402.83379,106.20473 V 75.994938 h 3.51277 v 27.027632 h 13.32785 v 3.18216 z"
     id="path11784"
     style="font-size:42.3185px;font-family:'Open Sans';text-anchor:middle;fill:#ffffff;stroke-width:0mm" />
  <path
     d="m 469.37544,106.20473 h -3.51277 V 75.994938 h 16.84062 v 3.120163 h -13.32785 v 11.054882 h 12.52198 v 3.120163 h -12.52198 z"
     id="path11781"
     style="font-size:42.3185px;font-family:'Open Sans';text-anchor:middle;fill:#ffffff;stroke-width:0mm" />
  <path
     d="m 549.49289,91.058506 q 0,7.252829 -3.67807,11.406154 -3.65741,4.15333 -10.18702,4.15333 -6.67426,0 -10.31101,-4.07067 -3.61608,-4.091342 -3.61608,-11.530141 0,-7.376809 3.63675,-11.426821 3.63674,-4.070676 10.33166,-4.070676 6.50895,0 10.16636,4.132666 3.65741,4.132666 3.65741,11.406158 z m -24.07278,0 q 0,6.137009 2.60358,9.319164 2.62424,3.16149 7.60411,3.16149 5.02119,0 7.58344,-3.16149 2.56225,-3.161492 2.56225,-9.319164 0,-6.095682 -2.56225,-9.236509 -2.54159,-3.161489 -7.54212,-3.161489 -5.02119,0 -7.64543,3.182153 -2.60358,3.161489 -2.60358,9.215845 z"
     id="path11778"
     style="font-size:42.3185px;font-family:'Open Sans';text-anchor:middle;fill:#ffffff;stroke-width:0mm" />
  <path
     d="M 596.81773,106.20473 V 75.994938 h 3.51277 v 30.209792 z"
     id="path11775"
     style="font-size:42.3185px;font-family:'Open Sans';text-anchor:middle;fill:#ffffff;stroke-width:0mm" />
  <path
     d="m 658.27623,106.20473 h -3.51277 V 75.994938 h 16.84061 v 3.120163 h -13.32784 v 11.054882 h 12.52197 v 3.120163 h -12.52197 z"
     id="path11772"
     style="font-size:42.3185px;font-family:'Open Sans';text-anchor:middle;fill:#ffffff;stroke-width:0mm" />
  <path
     d="M 42.244743,166.67716 H 21.478096 v -2.74822 L 37.512841,139.62886 H 21.974016 v -3.16149 H 41.79015 v 2.74823 l -16.034744,24.27941 h 16.489337 z"
     id="path11769"
     style="font-size:42.3185px;font-family:'Open Sans';text-anchor:middle;fill:#ffffff;stroke-width:0mm" />
  <path
     d="m 105.75925,166.67716 h -3.47144 l -6.095684,-20.2294 q -0.43393,-1.34311 -0.971176,-3.38878 -0.537247,-2.04567 -0.55791,-2.45894 -0.454594,2.72756 -1.446434,5.9717 l -5.909712,20.10542 h -3.471439 l -8.038036,-30.20979 h 3.719399 l 4.77323,18.65899 q 0.99184,3.92603 1.446433,7.10819 0.55791,-3.78139 1.653066,-7.39748 l 5.413793,-18.3697 h 3.719399 l 5.682421,18.53501 q 0.99184,3.20282 1.67372,7.23217 0.39261,-2.9342 1.48776,-7.14952 l 4.75257,-18.61766 h 3.7194 z"
     id="path11766"
     style="font-size:42.3185px;font-family:'Open Sans';text-anchor:middle;fill:#ffffff;stroke-width:0mm" />
  <path
     d="m 167.54836,166.67716 -3.76072,-9.60845 h -12.10871 l -3.7194,9.60845 h -3.5541 l 11.94341,-30.33377 h 2.95486 l 11.88141,30.33377 z m -4.85588,-12.76994 -3.51276,-9.36048 q -0.68189,-1.77705 -1.40511,-4.35997 -0.45459,1.98368 -1.30179,4.35997 l -3.55409,9.36048 z m -10.76559,-22.99828 q 0,-1.0745 0.53724,-1.54975 0.55791,-0.47526 1.32246,-0.47526 0.7852,0 1.34311,0.47526 0.57858,0.47525 0.57858,1.54975 0,1.03316 -0.57858,1.54975 -0.55791,0.49592 -1.34311,0.49592 -0.76455,0 -1.32246,-0.49592 -0.53724,-0.51659 -0.53724,-1.54975 z m 7.87273,0 q 0,-1.0745 0.53724,-1.54975 0.55791,-0.47526 1.32246,-0.47526 0.76454,0 1.32245,0.47526 0.57857,0.47525 0.57857,1.54975 0,1.03316 -0.57857,1.54975 -0.55791,0.49592 -1.32245,0.49592 -0.76455,0 -1.32246,-0.49592 -0.53724,-0.51659 -0.53724,-1.54975 z"
     id="path11763"
     style="font-size:42.3185px;font-family:'Open Sans';text-anchor:middle;fill:#ffffff;stroke-width:0mm" />
  <path
     d="m 232.56097,166.67716 h -4.00869 l -16.51,-25.3539 h -0.16531 q 0.33062,4.46328 0.33062,8.18267 v 17.17123 h -3.24414 v -30.20979 h 3.96735 l 16.46868,25.25059 h 0.16531 q -0.0413,-0.55791 -0.18597,-3.57475 -0.14465,-3.03751 -0.10332,-4.3393 v -17.33654 h 3.28547 z"
     id="path11760"
     style="font-size:42.3185px;font-family:'Open Sans';text-anchor:middle;fill:#ffffff;stroke-width:0mm" />
  <path
     d="m 294.11248,166.67716 h -20.76665 v -2.74822 l 16.03475,-24.30008 h -15.53883 v -3.16149 h 19.81614 v 2.74823 l -16.03475,24.27941 h 16.48934 z"
     id="path11757"
     style="font-size:42.3185px;font-family:'Open Sans';text-anchor:middle;fill:#ffffff;stroke-width:0mm" />
  <path
     d="m 348.73141,150.84905 h 10.26968 v 14.69163 q -2.39695,0.76454 -4.87655,1.15715 -2.4796,0.3926 -5.7444,0.3926 -6.86023,0 -10.68294,-4.07068 -3.82272,-4.09134 -3.82272,-11.44748 0,-4.71124 1.88036,-8.24467 1.90103,-3.55409 5.45512,-5.41379 3.55409,-1.88037 8.32732,-1.88037 4.83522,0 9.00922,1.77705 l -1.36378,3.0995 q -4.09134,-1.73572 -7.87273,-1.73572 -5.51711,0 -8.61661,3.28547 -3.0995,3.28547 -3.0995,9.11253 0,6.11634 2.97552,9.27783 2.99618,3.16149 8.78191,3.16149 3.14083,0 6.13701,-0.72321 v -9.2985 h -6.75691 z"
     id="path11754"
     style="font-size:42.3185px;font-family:'Open Sans';text-anchor:middle;fill:#ffffff;stroke-width:0mm" />
  <path
     d="m 423.55911,151.53094 q 0,5.8064 -2.33495,9.64978 -2.33496,3.84338 -6.5916,5.20716 l 7.19083,7.48012 h -5.10384 l -5.88905,-6.8189 -1.13648,0.0413 q -6.67426,0 -10.311,-4.07068 -3.61608,-4.09134 -3.61608,-11.53014 0,-7.3768 3.63674,-11.42682 3.63675,-4.07067 10.33167,-4.07067 6.50895,0 10.16636,4.13266 3.6574,4.13267 3.6574,11.40616 z m -24.07278,0 q 0,6.13701 2.60358,9.31916 2.62425,3.16149 7.60411,3.16149 5.02119,0 7.58344,-3.16149 2.56226,-3.16149 2.56226,-9.31916 0,-6.09568 -2.56226,-9.23651 -2.54159,-3.16149 -7.54211,-3.16149 -5.02119,0 -7.64544,3.18216 -2.60358,3.16149 -2.60358,9.21584 z"
     id="path11751"
     style="font-size:42.3185px;font-family:'Open Sans';text-anchor:middle;fill:#ffffff;stroke-width:0mm" />
  <path
     d="m 485.47217,151.28298 q 0,7.48013 -4.07067,11.44749 -4.05002,3.94669 -11.67478,3.94669 h -8.36865 v -30.20979 h 9.25717 q 7.04619,0 10.95156,3.90537 3.90537,3.90537 3.90537,10.91024 z m -3.7194,0.12398 q 0,-5.90971 -2.97552,-8.90589 -2.95485,-2.99619 -8.80257,-2.99619 h -5.10385 v 24.13477 h 4.27731 q 6.28165,0 9.44314,-3.07883 3.16149,-3.0995 3.16149,-9.15386 z"
     id="path11748"
     style="font-size:42.3185px;font-family:'Open Sans';text-anchor:middle;fill:#ffffff;stroke-width:0mm" />
  <path
     d="m 544.40971,136.46737 h 3.78139 l -10.88957,30.20979 h -3.47144 L 523.0025,136.46737 h 3.7194 l 6.94288,19.54751 q 1.19847,3.36813 1.90103,6.55028 0.74388,-3.34746 1.94235,-6.67426 z"
     id="path11745"
     style="font-size:42.3185px;font-family:'Open Sans';text-anchor:middle;fill:#ffffff;stroke-width:0mm" />
  <path
     d="m 612.45987,151.53094 q 0,7.25283 -3.67807,11.40616 -3.65741,4.15333 -10.18702,4.15333 -6.67426,0 -10.31101,-4.07068 -3.61608,-4.09134 -3.61608,-11.53014 0,-7.3768 3.63675,-11.42682 3.63674,-4.07067 10.33166,-4.07067 6.50895,0 10.16636,4.13266 3.65741,4.13267 3.65741,11.40616 z m -24.07278,0 q 0,6.13701 2.60358,9.31916 2.62424,3.16149 7.60411,3.16149 5.02119,0 7.58344,-3.16149 2.56225,-3.16149 2.56225,-9.31916 0,-6.09568 -2.56225,-9.23651 -2.54159,-3.16149 -7.54212,-3.16149 -5.02119,0 -7.64543,3.18216 -2.60358,3.16149 -2.60358,9.21584 z"
     id="path11742"
     style="font-size:42.3185px;font-family:'Open Sans';text-anchor:middle;fill:#ffffff;stroke-width:0mm" />
  <path
     d="m 656.11691,154.11386 v 12.5633 h -3.51277 v -30.20979 h 8.286 q 5.55843,0 8.20334,2.12833 2.66557,2.12832 2.66557,6.40563 0,5.99236 -6.07502,8.10002 l 8.20334,13.57581 h -4.15333 l -7.31482,-12.5633 z m 0,-3.01685 h 4.81455 q 3.7194,0 5.45512,-1.4671 1.73572,-1.48776 1.73572,-4.44261 0,-2.99618 -1.77704,-4.31864 -1.75639,-1.32245 -5.66176,-1.32245 h -4.56659 z"
     id="path11739"
     style="font-size:42.3185px;font-family:'Open Sans';text-anchor:middle;fill:#ffffff;stroke-width:0mm" />
  <path
     d="m 44.848323,227.14962 h -4.132666 l -11.013555,-14.6503 -3.16149,2.81021 v 11.84009 h -3.512766 v -30.20979 h 3.512766 v 14.98092 L 40.2404,196.93983 h 4.15333 l -12.150039,13.12122 z"
     id="path11736"
     style="font-size:42.3185px;font-family:'Open Sans';text-anchor:middle;fill:#ffffff;stroke-width:0mm" />
  <path
     d="m 104.58144,227.14962 -3.76073,-9.60845 H 88.712 l -3.719399,9.60845 h -3.554093 l 11.943405,-30.33377 h 2.954856 l 11.881411,30.33377 z m -4.855884,-12.76994 -3.512767,-9.36049 q -0.68189,-1.77704 -1.405106,-4.35996 -0.454593,1.98368 -1.30179,4.35996 l -3.554093,9.36049 z"
     id="path11733"
     style="font-size:42.3185px;font-family:'Open Sans';text-anchor:middle;fill:#ffffff;stroke-width:0mm" />
  <path
     d="m 148.23848,196.93983 h 8.53396 q 6.01303,0 8.69926,1.79771 2.68623,1.79771 2.68623,5.68242 0,2.68623 -1.50842,4.44261 -1.48776,1.73572 -4.35996,2.25231 v 0.20663 q 6.88089,1.17781 6.88089,7.23216 0,4.05002 -2.74823,6.32298 -2.72756,2.27297 -7.64543,2.27297 h -10.5383 z m 3.51277,12.93525 h 5.78573 q 3.7194,0 5.3518,-1.15715 1.63241,-1.17781 1.63241,-3.9467 0,-2.54159 -1.81838,-3.65741 -1.81837,-1.13648 -5.78573,-1.13648 h -5.16583 z m 0,2.97552 v 11.30284 h 6.30231 q 3.65741,0 5.49645,-1.40511 1.8597,-1.42577 1.8597,-4.44262 0,-2.81021 -1.90103,-4.13266 -1.88036,-1.32245 -5.7444,-1.32245 z"
     id="path11730"
     style="font-size:42.3185px;font-family:'Open Sans';text-anchor:middle;fill:#ffffff;stroke-width:0mm" />
  <path
     d="m 233.60447,211.75544 q 0,7.48012 -4.07068,11.44748 -4.05001,3.9467 -11.67478,3.9467 h -8.36865 v -30.20979 h 9.25717 q 7.0462,0 10.95157,3.90537 3.90537,3.90537 3.90537,10.91024 z m -3.7194,0.12398 q 0,-5.90971 -2.97552,-8.9059 -2.95486,-2.99618 -8.80258,-2.99618 h -5.10384 v 24.13477 h 4.27731 q 6.28165,0 9.44314,-3.07884 3.16149,-3.0995 3.16149,-9.15385 z"
     id="path11727"
     style="font-size:42.3185px;font-family:'Open Sans';text-anchor:middle;fill:#ffffff;stroke-width:0mm" />
  <path
     d="m 295.20764,227.14962 h -3.51277 v -14.21637 h -15.91076 v 14.21637 h -3.51277 v -30.20979 h 3.51277 v 12.85259 h 15.91076 v -12.85259 h 3.51277 z"
     id="path11724"
     style="font-size:42.3185px;font-family:'Open Sans';text-anchor:middle;fill:#ffffff;stroke-width:0mm" />
  <path
     d="m 356.44917,227.14962 -3.76073,-9.60845 h -12.10871 l -3.7194,9.60845 h -3.55409 l 11.9434,-30.33377 h 2.95486 l 11.88141,30.33377 z m -4.85589,-12.76994 -3.51276,-9.36049 q -0.68189,-1.77704 -1.40511,-4.35996 -0.45459,1.98368 -1.30179,4.35996 l -3.55409,9.36049 z"
     id="path11721"
     style="font-size:42.3185px;font-family:'Open Sans';text-anchor:middle;fill:#ffffff;stroke-width:0mm" />
  <path
     d="m 402.83379,227.14962 v -30.20979 h 3.51277 v 27.02764 h 13.32785 v 3.18215 z"
     id="path11718"
     style="font-size:42.3185px;font-family:'Open Sans';text-anchor:middle;fill:#ffffff;stroke-width:0mm" />
  <path
     d="m 463.07312,196.93983 h 8.53396 q 6.01303,0 8.69926,1.79771 2.68623,1.79771 2.68623,5.68242 0,2.68623 -1.50842,4.44261 -1.48776,1.73572 -4.35996,2.25231 v 0.20663 q 6.88089,1.17781 6.88089,7.23216 0,4.05002 -2.74823,6.32298 -2.72756,2.27297 -7.64543,2.27297 h -10.5383 z m 3.51277,12.93525 h 5.78573 q 3.7194,0 5.3518,-1.15715 1.63241,-1.17781 1.63241,-3.9467 0,-2.54159 -1.81838,-3.65741 -1.81837,-1.13648 -5.78573,-1.13648 h -5.16583 z m 0,2.97552 v 11.30284 h 6.30231 q 3.65741,0 5.49645,-1.40511 1.8597,-1.42577 1.8597,-4.44262 0,-2.81021 -1.90103,-4.13266 -1.88036,-1.32245 -5.7444,-1.32245 z"
     id="path11715"
     style="font-size:42.3185px;font-family:'Open Sans';text-anchor:middle;fill:#ffffff;stroke-width:0mm" />
  <path
     d="m 533.85075,227.14962 v -30.20979 h 3.51277 v 30.20979 z"
     id="path11712"
     style="font-size:42.3185px;font-family:'Open Sans';text-anchor:middle;fill:#ffffff;stroke-width:0mm" />
  <path
     d="m 600.30983,227.14962 h -3.51276 v -27.08963 h -9.56712 v -3.12016 h 22.64701 v 3.12016 h -9.56713 z"
     id="path11709"
     style="font-size:42.3185px;font-family:'Open Sans';text-anchor:middle;fill:#ffffff;stroke-width:0mm" />
  <path
     d="m 671.91402,227.14962 h -20.76664 v -2.74822 l 16.03474,-24.30008 H 651.6433 v -3.16149 h 19.81613 v 2.74822 l -16.03474,24.27942 h 16.48933 z"
     id="path11706"
     style="font-size:42.3185px;font-family:'Open Sans';text-anchor:middle;fill:#ffffff;stroke-width:0mm" />
  <path
     d="M 41.087597,287.62205 H 24.246982 v -30.20979 h 16.840615 v 3.12016 H 27.759749 v 9.73243 h 12.521978 v 3.0995 H 27.759749 v 11.11687 h 13.327848 z"
     id="path11703"
     style="font-size:42.3185px;font-family:'Open Sans';text-anchor:middle;fill:#ffffff;stroke-width:0mm" />
  <path
     d="m 93.082295,287.62205 v -30.20979 h 3.512766 v 30.20979 z"
     id="path11700"
     style="font-size:42.3185px;font-family:'Open Sans';text-anchor:middle;fill:#ffffff;stroke-width:0mm" />
  <path
     d="m 167.38306,279.58401 q 0,3.98802 -2.89287,6.21966 -2.89286,2.23164 -7.85206,2.23164 -5.37247,0 -8.26534,-1.38444 v -3.38879 q 1.8597,0.78521 4.05002,1.2398 2.19031,0.4546 4.3393,0.4546 3.51276,0 5.28981,-1.32246 1.77705,-1.34311 1.77705,-3.71939 0,-1.57042 -0.64057,-2.56226 -0.6199,-1.0125 -2.10766,-1.8597 -1.46709,-0.84719 -4.48394,-1.92169 -4.21532,-1.50842 -6.03369,-3.57475 -1.79771,-2.06634 -1.79771,-5.39313 0,-3.49211 2.62424,-5.55844 2.62424,-2.06633 6.94288,-2.06633 4.50461,0 8.28599,1.65306 l -1.09515,3.05818 q -3.74006,-1.57042 -7.27349,-1.57042 -2.78955,0 -4.35997,1.19848 -1.57041,1.19847 -1.57041,3.32679 0,1.57042 0.57857,2.58292 0.57858,0.99184 1.94236,1.83904 1.38444,0.82653 4.21532,1.83903 4.75256,1.6944 6.52961,3.63675 1.79771,1.94235 1.79771,5.04185 z"
     id="path11697"
     style="font-size:42.3185px;font-family:'Open Sans';text-anchor:middle;fill:#ffffff;stroke-width:0mm" />
  <path
     d="m 234.6583,272.47583 q 0,5.80639 -2.33496,9.64977 -2.33496,3.84338 -6.5916,5.20716 l 7.19084,7.48013 h -5.10385 l -5.88904,-6.8189 -1.13649,0.0413 q -6.67425,0 -10.311,-4.07067 -3.61608,-4.09134 -3.61608,-11.53014 0,-7.37681 3.63674,-11.42682 3.63675,-4.07068 10.33167,-4.07068 6.50895,0 10.16636,4.13267 3.65741,4.13266 3.65741,11.40616 z m -24.07278,0 q 0,6.13701 2.60358,9.31916 2.62424,3.16149 7.6041,3.16149 5.02119,0 7.58344,-3.16149 2.56226,-3.16149 2.56226,-9.31916 0,-6.09569 -2.56226,-9.23651 -2.54159,-3.16149 -7.54211,-3.16149 -5.02119,0 -7.64543,3.18215 -2.60358,3.16149 -2.60358,9.21585 z"
     id="path11694"
     style="font-size:42.3185px;font-family:'Open Sans';text-anchor:middle;fill:#ffffff;stroke-width:0mm" />
  <path
     d="m 294.11248,287.62205 h -20.76665 v -2.74823 l 16.03475,-24.30007 h -15.53883 v -3.16149 h 19.81614 v 2.74822 l -16.03475,24.27941 h 16.48934 z"
     id="path11691"
     style="font-size:42.3185px;font-family:'Open Sans';text-anchor:middle;fill:#ffffff;stroke-width:0mm" />
  <path
     d="m 357.62698,287.62205 h -3.47144 l -6.09568,-20.2294 q -0.43393,-1.34312 -0.97118,-3.38879 -0.53725,-2.04567 -0.55791,-2.45894 -0.45459,2.72756 -1.44643,5.97171 l -5.90972,20.10542 h -3.47144 l -8.03803,-30.20979 h 3.7194 l 4.77323,18.65899 q 0.99184,3.92603 1.44643,7.10818 0.55791,-3.78139 1.65307,-7.39747 l 5.41379,-18.3697 h 3.7194 l 5.68241,18.53501 q 0.99184,3.20281 1.67373,7.23216 0.39261,-2.93419 1.48776,-7.14951 l 4.75257,-18.61766 h 3.7194 z"
     id="path11688"
     style="font-size:42.3185px;font-family:'Open Sans';text-anchor:middle;fill:#ffffff;stroke-width:0mm" />
  <path
     d="m 418.8892,287.62205 h -16.84061 v -30.20979 h 16.84061 v 3.12016 h -13.32785 v 9.73243 h 12.52198 v 3.0995 h -12.52198 v 11.11687 h 13.32785 z"
     id="path11685"
     style="font-size:42.3185px;font-family:'Open Sans';text-anchor:middle;fill:#ffffff;stroke-width:0mm" />
  <path
     d="m 470.88386,287.62205 v -30.20979 h 3.51277 v 30.20979 z"
     id="path11682"
     style="font-size:42.3185px;font-family:'Open Sans';text-anchor:middle;fill:#ffffff;stroke-width:0mm" />
  <path
     d="m 548.43906,272.22787 q 0,7.48012 -4.07067,11.44748 -4.05002,3.9467 -11.67479,3.9467 h -8.36864 v -30.20979 h 9.25717 q 7.04619,0 10.95156,3.90537 3.90537,3.90537 3.90537,10.91024 z m -3.7194,0.12398 q 0,-5.90972 -2.97552,-8.9059 -2.95485,-2.99618 -8.80258,-2.99618 h -5.10384 v 24.13477 h 4.27731 q 6.28165,0 9.44314,-3.07884 3.16149,-3.0995 3.16149,-9.15385 z"
     id="path11679"
     style="font-size:42.3185px;font-family:'Open Sans';text-anchor:middle;fill:#ffffff;stroke-width:0mm" />
  <path
     d="m 593.14999,275.05874 v 12.56331 h -3.51277 v -30.20979 h 8.286 q 5.55843,0 8.20334,2.12832 2.66557,2.12832 2.66557,6.40563 0,5.99237 -6.07502,8.10003 l 8.20334,13.57581 h -4.15333 l -7.31482,-12.56331 z m 0,-3.01684 h 4.81456 q 3.71939,0 5.45511,-1.4671 1.73572,-1.48776 1.73572,-4.44262 0,-2.99618 -1.77704,-4.31863 -1.75639,-1.32246 -5.66175,-1.32246 h -4.5666 z"
     id="path11676"
     style="font-size:42.3185px;font-family:'Open Sans';text-anchor:middle;fill:#ffffff;stroke-width:0mm" />
  <path
     d="m 673.09183,257.41226 v 19.54751 q 0,5.16583 -3.12016,8.12069 -3.12016,2.95485 -8.57528,2.95485 -5.45512,0 -8.4513,-2.97552 -2.97552,-2.97552 -2.97552,-8.18267 v -19.46486 h 3.51276 v 19.71282 q 0,3.78139 2.06634,5.80639 2.06633,2.02501 6.07502,2.02501 3.82271,0 5.88904,-2.02501 2.06634,-2.04567 2.06634,-5.84772 v -19.67149 z m -17.43985,-5.55844 q 0,-1.07449 0.53725,-1.54975 0.55791,-0.47525 1.32245,-0.47525 0.78521,0 1.34312,0.47525 0.57857,0.47526 0.57857,1.54975 0,1.03317 -0.57857,1.54975 -0.55791,0.49592 -1.34312,0.49592 -0.76454,0 -1.32245,-0.49592 -0.53725,-0.51658 -0.53725,-1.54975 z m 7.87273,0 q 0,-1.07449 0.53725,-1.54975 0.55791,-0.47525 1.32245,-0.47525 0.76455,0 1.32245,0.47525 0.57858,0.47526 0.57858,1.54975 0,1.03317 -0.57858,1.54975 -0.5579,0.49592 -1.32245,0.49592 -0.76454,0 -1.32245,-0.49592 -0.53725,-0.51658 -0.53725,-1.54975 z"
     id="path11673"
     style="font-size:42.3185px;font-family:'Open Sans';text-anchor:middle;fill:#ffffff;stroke-width:0mm" />
  <path
     d="M 42.244743,348.09446 H 21.478096 v -2.74822 L 37.512841,321.04616 H 21.974016 v -3.16149 H 41.79015 v 2.74822 l -16.034744,24.27942 h 16.489337 z"
     id="path11670"
     style="font-size:42.3185px;font-family:'Open Sans';text-anchor:middle;fill:#ffffff;stroke-width:0mm" />
  <path
     d="m 103.64126,317.88467 h 3.78139 L 96.533071,348.09446 H 93.061632 L 82.234046,317.88467 h 3.7194 l 6.942879,19.54751 q 1.198473,3.36812 1.901026,6.55028 0.74388,-3.34746 1.942353,-6.67426 z"
     id="path11667"
     style="font-size:42.3185px;font-family:'Open Sans';text-anchor:middle;fill:#ffffff;stroke-width:0mm" />
  <path
     d="m 156.04922,348.09446 v -30.20979 h 3.51277 v 30.20979 z"
     id="path11664"
     style="font-size:42.3185px;font-family:'Open Sans';text-anchor:middle;fill:#ffffff;stroke-width:0mm" />
  <path
     d="m 229.98838,348.09446 h -16.84061 v -30.20979 h 16.84061 v 3.12016 h -13.32784 v 9.73243 h 12.52197 v 3.0995 h -12.52197 v 11.11687 h 13.32784 z"
     id="path11661"
     style="font-size:42.3185px;font-family:'Open Sans';text-anchor:middle;fill:#ffffff;stroke-width:0mm" />
  <path
     d="m 278.31536,335.53115 v 12.56331 h -3.51276 v -30.20979 h 8.28599 q 5.55844,0 8.20335,2.12832 2.66557,2.12833 2.66557,6.40564 0,5.99236 -6.07502,8.10002 l 8.20334,13.57581 h -4.15333 l -7.31482,-12.56331 z m 0,-3.01684 h 4.81456 q 3.7194,0 5.45512,-1.4671 1.73572,-1.48776 1.73572,-4.44261 0,-2.99619 -1.77705,-4.31864 -1.75638,-1.32245 -5.66175,-1.32245 h -4.5666 z"
     id="path11658"
     style="font-size:42.3185px;font-family:'Open Sans';text-anchor:middle;fill:#ffffff;stroke-width:0mm" />
  <path
     d="m 344.95002,348.09446 v -30.20979 h 3.51277 v 30.20979 z"
     id="path11655"
     style="font-size:42.3185px;font-family:'Open Sans';text-anchor:middle;fill:#ffffff;stroke-width:0mm" />
  <path
     d="m 406.40855,348.09446 h -3.51277 v -30.20979 h 16.84062 v 3.12016 h -13.32785 v 11.05489 h 12.52198 v 3.12016 h -12.52198 z"
     id="path11652"
     style="font-size:42.3185px;font-family:'Open Sans';text-anchor:middle;fill:#ffffff;stroke-width:0mm" />
  <path
     d="m 486.526,332.94824 q 0,7.25283 -3.67807,11.40616 -3.65741,4.15333 -10.18702,4.15333 -6.67426,0 -10.311,-4.07068 -3.61609,-4.09134 -3.61609,-11.53014 0,-7.37681 3.63675,-11.42682 3.63675,-4.07068 10.33166,-4.07068 6.50895,0 10.16636,4.13267 3.65741,4.13267 3.65741,11.40616 z m -24.07278,0 q 0,6.13701 2.60358,9.31916 2.62425,3.16149 7.60411,3.16149 5.02119,0 7.58344,-3.16149 2.56225,-3.16149 2.56225,-9.31916 0,-6.09568 -2.56225,-9.23651 -2.54159,-3.16149 -7.54212,-3.16149 -5.02118,0 -7.64543,3.18215 -2.60358,3.16149 -2.60358,9.21585 z"
     id="path11649"
     style="font-size:42.3185px;font-family:'Open Sans';text-anchor:middle;fill:#ffffff;stroke-width:0mm" />
  <path
     d="m 533.85075,348.09446 v -30.20979 h 3.51277 v 30.20979 z"
     id="path11646"
     style="font-size:42.3185px;font-family:'Open Sans';text-anchor:middle;fill:#ffffff;stroke-width:0mm" />
  <path
     d="m 595.30931,348.09446 h -3.51277 v -30.20979 h 16.84062 v 3.12016 h -13.32785 v 11.05489 h 12.52198 v 3.12016 h -12.52198 z"
     id="path11643"
     style="font-size:42.3185px;font-family:'Open Sans';text-anchor:middle;fill:#ffffff;stroke-width:0mm" />
  <path
     d="m 659.78465,348.09446 v -30.20979 h 3.51277 v 30.20979 z"
     id="path11640"
     style="font-size:42.3185px;font-family:'Open Sans';text-anchor:middle;fill:#ffffff;stroke-width:0mm" />
  <path
     d="m 41.449205,400.5289 q 0,3.98802 -2.892866,6.21966 -2.892867,2.23164 -7.852066,2.23164 -5.372466,0 -8.265332,-1.38444 v -3.38879 q 1.8597,0.78521 4.050013,1.2398 2.190313,0.45459 4.339299,0.45459 3.512766,0 5.289813,-1.32245 1.777046,-1.34312 1.777046,-3.7194 0,-1.57041 -0.640563,-2.56225 -0.6199,-1.01251 -2.10766,-1.8597 -1.467096,-0.8472 -4.483942,-1.92169 -4.21532,-1.50843 -6.033693,-3.57476 -1.79771,-2.06633 -1.79771,-5.39313 0,-3.4921 2.624243,-5.55843 2.624243,-2.06634 6.942879,-2.06634 4.504606,0 8.285996,1.65307 l -1.095157,3.05817 q -3.740063,-1.57041 -7.273492,-1.57041 -2.78955,0 -4.359963,1.19847 -1.570413,1.19848 -1.570413,3.3268 0,1.57041 0.578573,2.58292 0.578574,0.99184 1.942353,1.83903 1.384444,0.82654 4.21532,1.83904 4.752566,1.69439 6.529612,3.63674 1.79771,1.94236 1.79771,5.04186 z"
     id="path11637"
     style="font-size:42.3185px;font-family:'Open Sans';text-anchor:middle;fill:#ffffff;stroke-width:0mm" />
  <path
     d="m 104.58144,408.56693 -3.76073,-9.60845 H 88.712 l -3.719399,9.60845 h -3.554093 l 11.943405,-30.33377 h 2.954856 l 11.881411,30.33377 z m -4.855884,-12.76994 -3.512767,-9.36048 q -0.68189,-1.77705 -1.405106,-4.35997 -0.454593,1.98368 -1.30179,4.35997 L 89.9518,395.79699 Z M 88.95996,372.79871 q 0,-1.0745 0.537247,-1.54975 0.55791,-0.47526 1.322453,-0.47526 0.785207,0 1.343117,0.47526 0.578573,0.47525 0.578573,1.54975 0,1.03316 -0.578573,1.54975 -0.55791,0.49592 -1.343117,0.49592 -0.764543,0 -1.322453,-0.49592 -0.537247,-0.51659 -0.537247,-1.54975 z m 7.872729,0 q 0,-1.0745 0.537247,-1.54975 0.55791,-0.47526 1.322453,-0.47526 0.764543,0 1.322451,0.47526 0.57858,0.47525 0.57858,1.54975 0,1.03316 -0.57858,1.54975 -0.557908,0.49592 -1.322451,0.49592 -0.764543,0 -1.322453,-0.49592 -0.537247,-0.51659 -0.537247,-1.54975 z"
     id="path11634"
     style="font-size:42.3185px;font-family:'Open Sans';text-anchor:middle;fill:#ffffff;stroke-width:0mm" />
  <path
     d="m 161.53534,381.06404 q -4.97987,0 -7.87273,3.3268 -2.87221,3.30613 -2.87221,9.0712 0,5.93037 2.76889,9.17452 2.78955,3.22348 7.93472,3.22348 3.16149,0 7.2115,-1.13649 v 3.07884 q -3.14082,1.17781 -7.74875,1.17781 -6.67425,0 -10.311,-4.05001 -3.61608,-4.05002 -3.61608,-11.50948 0,-4.66991 1.73572,-8.18268 1.75638,-3.51276 5.04185,-5.41379 3.30613,-1.90103 7.76941,-1.90103 4.75257,0 8.30666,1.73572 l -1.48776,3.01685 q -3.43011,-1.61174 -6.86022,-1.61174 z"
     id="path11631"
     style="font-size:42.3185px;font-family:'Open Sans';text-anchor:middle;fill:#ffffff;stroke-width:0mm" />
  <path
     d="m 232.24069,408.56693 h -3.51277 v -14.21637 h -15.91076 v 14.21637 h -3.51277 v -30.20979 h 3.51277 v 12.8526 h 15.91076 v -12.8526 h 3.51277 z"
     id="path11628"
     style="font-size:42.3185px;font-family:'Open Sans';text-anchor:middle;fill:#ffffff;stroke-width:0mm" />
  <path
     d="m 293.31694,400.5289 q 0,3.98802 -2.89286,6.21966 -2.89287,2.23164 -7.85207,2.23164 -5.37247,0 -8.26533,-1.38444 v -3.38879 q 1.8597,0.78521 4.05001,1.2398 2.19031,0.45459 4.3393,0.45459 3.51277,0 5.28981,-1.32245 1.77705,-1.34312 1.77705,-3.7194 0,-1.57041 -0.64056,-2.56225 -0.6199,-1.01251 -2.10766,-1.8597 -1.4671,-0.8472 -4.48395,-1.92169 -4.21532,-1.50843 -6.03369,-3.57476 -1.79771,-2.06633 -1.79771,-5.39313 0,-3.4921 2.62424,-5.55843 2.62425,-2.06634 6.94288,-2.06634 4.50461,0 8.286,1.65307 l -1.09516,3.05817 q -3.74006,-1.57041 -7.27349,-1.57041 -2.78955,0 -4.35996,1.19847 -1.57042,1.19848 -1.57042,3.3268 0,1.57041 0.57858,2.58292 0.57857,0.99184 1.94235,1.83903 1.38444,0.82654 4.21532,1.83904 4.75257,1.69439 6.52961,3.63674 1.79771,1.94236 1.79771,5.04186 z"
     id="path11625"
     style="font-size:42.3185px;font-family:'Open Sans';text-anchor:middle;fill:#ffffff;stroke-width:0mm" />
  <path
     d="m 344.95002,408.56693 v -30.20979 h 3.51277 v 30.20979 z"
     id="path11622"
     style="font-size:42.3185px;font-family:'Open Sans';text-anchor:middle;fill:#ffffff;stroke-width:0mm" />
  <path
     d="m 419.25081,400.5289 q 0,3.98802 -2.89287,6.21966 -2.89286,2.23164 -7.85206,2.23164 -5.37247,0 -8.26533,-1.38444 v -3.38879 q 1.8597,0.78521 4.05001,1.2398 2.19031,0.45459 4.3393,0.45459 3.51276,0 5.28981,-1.32245 1.77705,-1.34312 1.77705,-3.7194 0,-1.57041 -0.64057,-2.56225 -0.6199,-1.01251 -2.10766,-1.8597 -1.46709,-0.8472 -4.48394,-1.92169 -4.21532,-1.50843 -6.03369,-3.57476 -1.79771,-2.06633 -1.79771,-5.39313 0,-3.4921 2.62424,-5.55843 2.62425,-2.06634 6.94288,-2.06634 4.50461,0 8.286,1.65307 l -1.09516,3.05817 q -3.74006,-1.57041 -7.27349,-1.57041 -2.78955,0 -4.35996,1.19847 -1.57042,1.19848 -1.57042,3.3268 0,1.57041 0.57858,2.58292 0.57857,0.99184 1.94235,1.83903 1.38444,0.82654 4.21532,1.83904 4.75256,1.69439 6.52961,3.63674 1.79771,1.94236 1.79771,5.04186 z"
     id="path11619"
     style="font-size:42.3185px;font-family:'Open Sans';text-anchor:middle;fill:#ffffff;stroke-width:0mm" />
  <path
     d="m 470.88386,408.56693 v -30.20979 h 3.51277 v 30.20979 z"
     id="path11616"
     style="font-size:42.3185px;font-family:'Open Sans';text-anchor:middle;fill:#ffffff;stroke-width:0mm" />
  <path
     d="m 526.04001,378.35714 h 8.53396 q 6.01303,0 8.69926,1.79771 2.68623,1.79771 2.68623,5.68242 0,2.68623 -1.50842,4.44262 -1.48776,1.73572 -4.35996,2.2523 v 0.20663 q 6.88089,1.17781 6.88089,7.23217 0,4.05001 -2.74823,6.32298 -2.72756,2.27296 -7.64543,2.27296 h -10.5383 z m 3.51277,12.93525 h 5.78573 q 3.7194,0 5.3518,-1.15715 1.63241,-1.17781 1.63241,-3.94669 0,-2.54159 -1.81838,-3.65741 -1.81837,-1.13649 -5.78573,-1.13649 h -5.16583 z m 0,2.97552 v 11.30284 h 6.30231 q 3.65741,0 5.49645,-1.40511 1.8597,-1.42577 1.8597,-4.44261 0,-2.81022 -1.90103,-4.13267 -1.88036,-1.32245 -5.7444,-1.32245 z"
     id="path11613"
     style="font-size:42.3185px;font-family:'Open Sans';text-anchor:middle;fill:#ffffff;stroke-width:0mm" />
  <path
     d="m 610.36254,408.56693 h -4.00868 l -16.51,-25.3539 h -0.16531 q 0.33061,4.46328 0.33061,8.18268 v 17.17122 h -3.24414 v -30.20979 h 3.96736 l 16.46867,25.25059 h 0.16531 q -0.0413,-0.55791 -0.18597,-3.57475 -0.14464,-3.03751 -0.10332,-4.3393 v -17.33654 h 3.28547 z"
     id="path11610"
     style="font-size:42.3185px;font-family:'Open Sans';text-anchor:middle;fill:#ffffff;stroke-width:0mm" />
  <path
     d="m 659.78465,408.56693 v -30.20979 h 3.51277 v 30.20979 z"
     id="path11607"
     style="font-size:42.3185px;font-family:'Open Sans';text-anchor:middle;fill:#ffffff;stroke-width:0mm" />
  <path
     d="M 41.614512,469.03934 37.853785,459.4309 H 25.745074 l -3.7194,9.60844 h -3.554092 l 11.943405,-30.33376 h 2.954856 l 11.881415,30.33376 z m -4.855883,-12.76993 -3.512766,-9.36049 q -0.68189,-1.77705 -1.405107,-4.35996 -0.454593,1.98368 -1.301789,4.35996 l -3.554093,9.36049 z"
     id="path11604"
     style="font-size:42.3185px;font-family:'Open Sans';text-anchor:middle;fill:#ffffff;stroke-width:0mm" />
  <path
     d="m 98.568409,441.53645 q -4.979863,0 -7.872729,3.3268 -2.872203,3.30613 -2.872203,9.0712 0,5.93038 2.768887,9.17452 2.789549,3.22348 7.934718,3.22348 3.161488,0 7.211498,-1.13648 v 3.07883 q -3.14082,1.17781 -7.748744,1.17781 -6.674256,0 -10.311002,-4.05001 -3.616083,-4.05001 -3.616083,-11.50948 0,-4.66991 1.73572,-8.18268 1.756383,-3.51276 5.041852,-5.41379 3.306133,-1.90102 7.769413,-1.90102 4.752564,0 8.306654,1.73572 l -1.48776,3.01684 q -3.43011,-1.61174 -6.860221,-1.61174 z"
     id="path11601"
     style="font-size:42.3185px;font-family:'Open Sans';text-anchor:middle;fill:#ffffff;stroke-width:0mm" />
  <path
     d="m 169.27375,469.03934 h -3.51276 v -14.21637 h -15.91077 v 14.21637 h -3.51276 v -30.20978 h 3.51276 v 12.85259 h 15.91077 v -12.85259 h 3.51276 z"
     id="path11598"
     style="font-size:42.3185px;font-family:'Open Sans';text-anchor:middle;fill:#ffffff;stroke-width:0mm" />
  <path
     d="m 222.50826,469.03934 h -3.51277 v -27.08962 h -9.56712 v -3.12016 h 22.64701 v 3.12016 h -9.56712 z"
     id="path11595"
     style="font-size:42.3185px;font-family:'Open Sans';text-anchor:middle;fill:#ffffff;stroke-width:0mm" />
  <path
     d="m 281.98311,469.03934 v -30.20978 h 3.51276 v 30.20978 z"
     id="path11592"
     style="font-size:42.3185px;font-family:'Open Sans';text-anchor:middle;fill:#ffffff;stroke-width:0mm" />
  <path
     d="m 358.49484,469.03934 h -4.00869 l -16.51,-25.3539 h -0.16531 q 0.33062,4.46328 0.33062,8.18268 v 17.17122 h -3.24415 v -30.20978 h 3.96736 l 16.46868,25.25059 h 0.1653 q -0.0413,-0.55791 -0.18597,-3.57476 -0.14464,-3.03751 -0.10331,-4.3393 v -17.33653 h 3.28547 z"
     id="path11589"
     style="font-size:42.3185px;font-family:'Open Sans';text-anchor:middle;fill:#ffffff;stroke-width:0mm" />
  <path
     d="m 421.22416,438.82956 v 19.54751 q 0,5.16583 -3.12016,8.12069 -3.12017,2.95485 -8.57529,2.95485 -5.45512,0 -8.4513,-2.97552 -2.97552,-2.97552 -2.97552,-8.18268 v -19.46485 h 3.51277 v 19.71281 q 0,3.78139 2.06633,5.8064 2.06633,2.02501 6.07502,2.02501 3.82272,0 5.88905,-2.02501 2.06633,-2.04567 2.06633,-5.84772 v -19.67149 z m -17.43985,-5.55844 q 0,-1.07449 0.53724,-1.54975 0.55791,-0.47526 1.32246,-0.47526 0.7852,0 1.34311,0.47526 0.57858,0.47526 0.57858,1.54975 0,1.03317 -0.57858,1.54975 -0.55791,0.49592 -1.34311,0.49592 -0.76455,0 -1.32246,-0.49592 -0.53724,-0.51658 -0.53724,-1.54975 z m 7.87273,0 q 0,-1.07449 0.53724,-1.54975 0.55791,-0.47526 1.32246,-0.47526 0.76454,0 1.32245,0.47526 0.57857,0.47526 0.57857,1.54975 0,1.03317 -0.57857,1.54975 -0.55791,0.49592 -1.32245,0.49592 -0.76455,0 -1.32246,-0.49592 -0.53724,-0.51658 -0.53724,-1.54975 z"
     id="path11586"
     style="font-size:42.3185px;font-family:'Open Sans';text-anchor:middle;fill:#ffffff;stroke-width:0mm" />
  <path
     d="m 484.42867,469.03934 h -4.00868 l -16.51,-25.3539 h -0.16531 q 0.33061,4.46328 0.33061,8.18268 v 17.17122 h -3.24414 v -30.20978 h 3.96736 l 16.46868,25.25059 h 0.1653 q -0.0413,-0.55791 -0.18597,-3.57476 -0.14464,-3.03751 -0.10331,-4.3393 v -17.33653 h 3.28546 z"
     id="path11583"
     style="font-size:42.3185px;font-family:'Open Sans';text-anchor:middle;fill:#ffffff;stroke-width:0mm" />
  <path
     d="m 533.85075,469.03934 v -30.20978 h 3.51277 v 30.20978 z"
     id="path11580"
     style="font-size:42.3185px;font-family:'Open Sans';text-anchor:middle;fill:#ffffff;stroke-width:0mm" />
  <path
     d="m 612.45987,453.89312 q 0,7.25283 -3.67807,11.40616 -3.65741,4.15333 -10.18702,4.15333 -6.67426,0 -10.31101,-4.07067 -3.61608,-4.09134 -3.61608,-11.53014 0,-7.37681 3.63675,-11.42682 3.63674,-4.07068 10.33166,-4.07068 6.50895,0 10.16636,4.13267 3.65741,4.13266 3.65741,11.40615 z m -24.07278,0 q 0,6.13701 2.60358,9.31917 2.62424,3.16149 7.60411,3.16149 5.02119,0 7.58344,-3.16149 2.56225,-3.16149 2.56225,-9.31917 0,-6.09568 -2.56225,-9.23651 -2.54159,-3.16148 -7.54212,-3.16148 -5.02119,0 -7.64543,3.18215 -2.60358,3.16149 -2.60358,9.21584 z"
     id="path11577"
     style="font-size:42.3185px;font-family:'Open Sans';text-anchor:middle;fill:#ffffff;stroke-width:0mm" />
  <path
     d="m 658.27623,469.03934 h -3.51277 v -30.20978 h 16.84061 v 3.12016 h -13.32784 v 11.05488 h 12.52197 v 3.12016 h -12.52197 z"
     id="path11574"
     style="font-size:42.3185px;font-family:'Open Sans';text-anchor:middle;fill:#ffffff;stroke-width:0mm" />
  <path
     d="m 35.601482,502.00889 q -4.979862,0 -7.872728,3.3268 -2.872203,3.30613 -2.872203,9.0712 0,5.93038 2.768886,9.17452 2.78955,3.22348 7.934719,3.22348 3.161489,0 7.211502,-1.13648 v 3.07883 q -3.140826,1.17781 -7.748749,1.17781 -6.674255,0 -10.311002,-4.05001 -3.616082,-4.05001 -3.616082,-11.50947 0,-4.66992 1.735719,-8.18268 1.756383,-3.51277 5.041853,-5.4138 3.306133,-1.90102 7.769412,-1.90102 4.752566,0 8.306659,1.73572 l -1.48776,3.01684 q -3.430113,-1.61174 -6.860226,-1.61174 z"
     id="path11571"
     style="font-size:42.3185px;font-family:'Open Sans';text-anchor:middle;fill:#ffffff;stroke-width:0mm" />
  <path
     d="M 105.21167,529.51179 H 84.445023 v -2.74823 L 100.47977,502.46349 H 84.940943 V 499.302 h 19.816137 v 2.74822 l -16.034748,24.27941 h 16.489338 z"
     id="path11568"
     style="font-size:42.3185px;font-family:'Open Sans';text-anchor:middle;fill:#ffffff;stroke-width:0mm" />
  <path
     d="m 167.54836,529.51179 -3.76072,-9.60845 h -12.10871 l -3.7194,9.60845 h -3.5541 l 11.94341,-30.33377 h 2.95486 l 11.88141,30.33377 z m -4.85588,-12.76994 -3.51276,-9.36049 q -0.68189,-1.77705 -1.40511,-4.35996 -0.45459,1.98368 -1.30179,4.35996 l -3.55409,9.36049 z m -10.76559,-22.99829 q 0,-1.07449 0.53724,-1.54975 0.55791,-0.47525 1.32246,-0.47525 0.7852,0 1.34311,0.47525 0.57858,0.47526 0.57858,1.54975 0,1.03317 -0.57858,1.54975 -0.55791,0.49592 -1.34311,0.49592 -0.76455,0 -1.32246,-0.49592 -0.53724,-0.51658 -0.53724,-1.54975 z m 7.87273,0 q 0,-1.07449 0.53724,-1.54975 0.55791,-0.47525 1.32246,-0.47525 0.76454,0 1.32245,0.47525 0.57857,0.47526 0.57857,1.54975 0,1.03317 -0.57857,1.54975 -0.55791,0.49592 -1.32245,0.49592 -0.76455,0 -1.32246,-0.49592 -0.53724,-0.51658 -0.53724,-1.54975 z"
     id="path11565"
     style="font-size:42.3185px;font-family:'Open Sans';text-anchor:middle;fill:#ffffff;stroke-width:0mm" />
  <path
     d="m 232.56097,529.51179 h -4.00869 l -16.51,-25.35391 h -0.16531 q 0.33062,4.46328 0.33062,8.18268 v 17.17123 h -3.24414 V 499.302 h 3.96735 l 16.46868,25.25059 h 0.16531 q -0.0413,-0.55791 -0.18597,-3.57476 -0.14465,-3.03751 -0.10332,-4.3393 V 499.302 h 3.28547 z"
     id="path11562"
     style="font-size:42.3185px;font-family:'Open Sans';text-anchor:middle;fill:#ffffff;stroke-width:0mm" />
  <path
     d="M 281.98311,529.51179 V 499.302 h 3.51276 v 30.20979 z"
     id="path11559"
     style="font-size:42.3185px;font-family:'Open Sans';text-anchor:middle;fill:#ffffff;stroke-width:0mm" />
  <path
     d="M 355.92225,529.51179 H 339.08164 V 499.302 h 16.84061 v 3.12016 H 342.5944 v 9.73243 h 12.52198 v 3.0995 H 342.5944 v 11.11687 h 13.32785 z"
     id="path11556"
     style="font-size:42.3185px;font-family:'Open Sans';text-anchor:middle;fill:#ffffff;stroke-width:0mm" />
  <path
     d="M 402.83379,529.51179 V 499.302 h 3.51277 v 27.02763 h 13.32785 v 3.18216 z"
     id="path11553"
     style="font-size:42.3185px;font-family:'Open Sans';text-anchor:middle;fill:#ffffff;stroke-width:0mm" />
  <path
     d="m 469.37544,529.51179 h -3.51277 V 499.302 h 16.84062 v 3.12016 h -13.32785 v 11.05488 h 12.52198 v 3.12017 h -12.52198 z"
     id="path11550"
     style="font-size:42.3185px;font-family:'Open Sans';text-anchor:middle;fill:#ffffff;stroke-width:0mm" />
  <path
     d="M 533.85075,529.51179 V 499.302 h 3.51277 v 30.20979 z"
     id="path11547"
     style="font-size:42.3185px;font-family:'Open Sans';text-anchor:middle;fill:#ffffff;stroke-width:0mm" />
  <path
     d="m 611.40604,514.11761 q 0,7.48012 -4.07067,11.44748 -4.05002,3.9467 -11.67479,3.9467 h -8.36864 V 499.302 h 9.25717 q 7.04619,0 10.95156,3.90537 3.90537,3.90537 3.90537,10.91024 z m -3.7194,0.12398 q 0,-5.90972 -2.97552,-8.9059 -2.95485,-2.99618 -8.80258,-2.99618 h -5.10384 v 24.13477 h 4.27731 q 6.28165,0 9.44314,-3.07884 3.16149,-3.0995 3.16149,-9.15385 z"
     id="path11544"
     style="font-size:42.3185px;font-family:'Open Sans';text-anchor:middle;fill:#ffffff;stroke-width:0mm" />
  <path
     d="M 659.78465,529.51179 V 499.302 h 3.51277 v 30.20979 z"
     id="path11541"
     style="font-size:42.3185px;font-family:'Open Sans';text-anchor:middle;fill:#ffffff;stroke-width:0mm" />
  <path
     d="m 45.757509,574.83804 q 0,7.25283 -3.678072,11.40616 -3.65741,4.15333 -10.187022,4.15333 -6.674256,0 -10.311002,-4.07068 -3.616083,-4.09134 -3.616083,-11.53014 0,-7.37681 3.636746,-11.42682 3.636746,-4.07067 10.331665,-4.07067 6.508949,0 10.166359,4.13266 3.657409,4.13267 3.657409,11.40616 z m -24.07278,0 q 0,6.13701 2.60358,9.31916 2.624243,3.16149 7.604106,3.16149 5.021189,0 7.583442,-3.16149 2.562253,-3.16149 2.562253,-9.31916 0,-6.09568 -2.562253,-9.23651 -2.54159,-3.16149 -7.542116,-3.16149 -5.021189,0 -7.645432,3.18215 -2.60358,3.16149 -2.60358,9.21585 z"
     id="path11538"
     style="font-size:42.3185px;font-family:'Open Sans';text-anchor:middle;fill:#ffffff;stroke-width:0mm" />
  <path
     d="m 107.81525,589.98426 h -4.13267 l -11.013552,-14.6503 -3.161489,2.81021 v 11.84009 h -3.512766 v -30.20979 h 3.512766 v 14.98092 l 13.699791,-14.98092 h 4.15333 l -12.150042,13.12122 z"
     id="path11535"
     style="font-size:42.3185px;font-family:'Open Sans';text-anchor:middle;fill:#ffffff;stroke-width:0mm" />
  <path
     d="m 159.83061,574.15615 h 10.26968 v 14.69163 q -2.39695,0.76454 -4.87655,1.15714 -2.4796,0.39261 -5.74441,0.39261 -6.86022,0 -10.68294,-4.07068 -3.82271,-4.09134 -3.82271,-11.44748 0,-4.71124 1.88036,-8.24467 1.90103,-3.5541 5.45512,-5.4138 3.55409,-1.88036 8.32732,-1.88036 4.83522,0 9.00921,1.77705 l -1.36378,3.0995 q -4.09134,-1.73572 -7.87273,-1.73572 -5.51711,0 -8.6166,3.28547 -3.0995,3.28547 -3.0995,9.11253 0,6.11634 2.97552,9.27783 2.99618,3.16149 8.78191,3.16149 3.14083,0 6.13701,-0.72322 v -9.29849 h -6.75691 z"
     id="path11532"
     style="font-size:42.3185px;font-family:'Open Sans';text-anchor:middle;fill:#ffffff;stroke-width:0mm" />
  <path
     d="m 231.14553,589.98426 h -20.76665 v -2.74822 l 16.03475,-24.30008 H 210.8748 v -3.16149 h 19.81614 v 2.74822 l -16.03475,24.27942 h 16.48934 z"
     id="path11529"
     style="font-size:42.3185px;font-family:'Open Sans';text-anchor:middle;fill:#ffffff;stroke-width:0mm" />
  <path
     d="m 294.66006,589.98426 h -3.47144 l -6.09568,-20.2294 q -0.43393,-1.34312 -0.97118,-3.38879 -0.53725,-2.04567 -0.55791,-2.45893 -0.45459,2.72756 -1.44643,5.9717 l -5.90972,20.10542 h -3.47144 l -8.03803,-30.20979 h 3.7194 l 4.77323,18.65899 q 0.99184,3.92603 1.44643,7.10818 0.55791,-3.78138 1.65307,-7.39747 l 5.41379,-18.3697 h 3.7194 l 5.68242,18.53501 q 0.99184,3.20282 1.67373,7.23216 0.3926,-2.93419 1.48775,-7.14951 l 4.75257,-18.61766 h 3.7194 z"
     id="path11526"
     style="font-size:42.3185px;font-family:'Open Sans';text-anchor:middle;fill:#ffffff;stroke-width:0mm" />
  <path
     d="m 360.59217,574.83804 q 0,7.25283 -3.67808,11.40616 -3.65741,4.15333 -10.18702,4.15333 -6.67426,0 -10.311,-4.07068 -3.61608,-4.09134 -3.61608,-11.53014 0,-7.37681 3.63674,-11.42682 3.63675,-4.07067 10.33167,-4.07067 6.50895,0 10.16636,4.13266 3.65741,4.13267 3.65741,11.40616 z m -24.07278,0 q 0,6.13701 2.60357,9.31916 2.62425,3.16149 7.60411,3.16149 5.02119,0 7.58344,-3.16149 2.56226,-3.16149 2.56226,-9.31916 0,-6.09568 -2.56226,-9.23651 -2.54159,-3.16149 -7.54211,-3.16149 -5.02119,0 -7.64544,3.18215 -2.60357,3.16149 -2.60357,9.21585 z m 4.48394,-20.622 q 0,-1.0745 0.53724,-1.54975 0.55791,-0.47526 1.32246,-0.47526 0.7852,0 1.34311,0.47526 0.57858,0.47525 0.57858,1.54975 0,1.03316 -0.57858,1.54975 -0.55791,0.49592 -1.34311,0.49592 -0.76455,0 -1.32246,-0.49592 -0.53724,-0.51659 -0.53724,-1.54975 z m 7.87273,0 q 0,-1.0745 0.53724,-1.54975 0.55791,-0.47526 1.32246,-0.47526 0.76454,0 1.32245,0.47526 0.57857,0.47525 0.57857,1.54975 0,1.03316 -0.57857,1.54975 -0.55791,0.49592 -1.32245,0.49592 -0.76455,0 -1.32246,-0.49592 -0.53724,-0.51659 -0.53724,-1.54975 z"
     id="path11523"
     style="font-size:42.3185px;font-family:'Open Sans';text-anchor:middle;fill:#ffffff;stroke-width:0mm" />
  <path
     d="m 402.83379,589.98426 v -30.20979 h 3.51277 v 27.02764 h 13.32785 v 3.18215 z"
     id="path11520"
     style="font-size:42.3185px;font-family:'Open Sans';text-anchor:middle;fill:#ffffff;stroke-width:0mm" />
  <path
     d="m 469.37544,589.98426 h -3.51277 v -30.20979 h 16.84062 v 3.12016 h -13.32785 v 11.05489 h 12.52198 v 3.12016 h -12.52198 z"
     id="path11517"
     style="font-size:42.3185px;font-family:'Open Sans';text-anchor:middle;fill:#ffffff;stroke-width:0mm" />
  <path
     d="m 533.85075,589.98426 v -30.20979 h 3.51277 v 30.20979 z"
     id="path11514"
     style="font-size:42.3185px;font-family:'Open Sans';text-anchor:middle;fill:#ffffff;stroke-width:0mm" />
  <path
     d="m 592.6644,597.93964 q -1.94235,0 -3.05817,-0.55791 v -2.99618 q 1.46709,0.41327 3.05817,0.41327 2.04567,0 3.0995,-1.2398 1.07449,-1.2398 1.07449,-3.57476 v -30.20979 h 3.51277 v 29.9205 q 0,3.92604 -1.98368,6.07502 -1.98368,2.16965 -5.70308,2.16965 z"
     id="path11511"
     style="font-size:42.3185px;font-family:'Open Sans';text-anchor:middle;fill:#ffffff;stroke-width:0mm" />
  <path
     d="m 673.57742,589.98426 h -3.98802 l -8.12069,-13.28652 -8.26533,13.28652 h -3.7194 l 10.04238,-15.78678 -9.36049,-14.42301 h 3.88471 l 7.50078,11.96407 7.56278,-11.96407 h 3.74007 l -9.36049,14.29903 z"
     id="path11508"
     style="font-size:42.3185px;font-family:'Open Sans';text-anchor:middle;fill:#ffffff;stroke-width:0mm" />
  <path
     d="m 25.032189,650.45673 v -30.20979 h 3.512766 v 27.02764 h 13.327848 v 3.18215 z"
     id="path11505"
     style="font-size:42.3185px;font-family:'Open Sans';text-anchor:middle;fill:#ffffff;stroke-width:0mm" />
  <path
     d="m 94.818015,635.35184 8.058695,-15.1049 h 3.80206 l -10.083709,18.49369 v 11.7161 h -3.554093 v -11.5508 L 82.977926,620.24694 h 3.84338 z"
     id="path11502"
     style="font-size:42.3185px;font-family:'Open Sans';text-anchor:middle;fill:#ffffff;stroke-width:0mm" />
  <path
     d="m 148.23848,620.24694 h 8.53396 q 6.01303,0 8.69926,1.79771 2.68623,1.79771 2.68623,5.68242 0,2.68623 -1.50842,4.44262 -1.48776,1.73572 -4.35996,2.2523 v 0.20663 q 6.88089,1.17781 6.88089,7.23217 0,4.05001 -2.74823,6.32298 -2.72756,2.27296 -7.64543,2.27296 h -10.5383 z m 3.51277,12.93525 h 5.78573 q 3.7194,0 5.3518,-1.15715 1.63241,-1.17781 1.63241,-3.94669 0,-2.54159 -1.81838,-3.65741 -1.81837,-1.13649 -5.78573,-1.13649 h -5.16583 z m 0,2.97552 v 11.30284 h 6.30231 q 3.65741,0 5.49645,-1.40511 1.8597,-1.42577 1.8597,-4.44261 0,-2.81021 -1.90103,-4.13267 -1.88036,-1.32245 -5.7444,-1.32245 z"
     id="path11499"
     style="font-size:42.3185px;font-family:'Open Sans';text-anchor:middle;fill:#ffffff;stroke-width:0mm" />
  <path
     d="m 214.32558,634.25997 q 0,-2.68623 1.8597,-4.56659 1.88036,-1.88037 4.5666,-1.88037 2.68623,0 4.56659,1.88037 1.88036,1.8597 1.88036,4.56659 0,1.73572 -0.84719,3.22348 -0.8472,1.4671 -2.35562,2.33496 -1.50842,0.86786 -3.24414,0.86786 -2.68624,0 -4.5666,-1.8597 -1.8597,-1.8597 -1.8597,-4.5666 z m 2.37628,0 q 0,1.6944 1.19848,2.87221 1.21913,1.17781 2.89286,1.17781 1.65307,0 2.83088,-1.15715 1.19847,-1.17781 1.19847,-2.89287 0,-1.73572 -1.17781,-2.89286 -1.15714,-1.17781 -2.85154,-1.17781 -1.71505,0 -2.91353,1.17781 -1.17781,1.17781 -1.17781,2.89286 z"
     id="path11496"
     style="font-size:42.3185px;font-family:'Open Sans';text-anchor:middle;fill:#ffffff;stroke-width:0mm" />
  <path
     d="m 277.29253,634.25997 q 0,-2.68623 1.8597,-4.56659 1.88036,-1.88037 4.56659,-1.88037 2.68624,0 4.5666,1.88037 1.88036,1.8597 1.88036,4.56659 0,1.73572 -0.84719,3.22348 -0.8472,1.4671 -2.35562,2.33496 -1.50843,0.86786 -3.24415,0.86786 -2.68623,0 -4.56659,-1.8597 -1.8597,-1.8597 -1.8597,-4.5666 z m 2.37628,0 q 0,1.6944 1.19848,2.87221 1.21913,1.17781 2.89286,1.17781 1.65307,0 2.83088,-1.15715 1.19847,-1.17781 1.19847,-2.89287 0,-1.73572 -1.17781,-2.89286 -1.15715,-1.17781 -2.85154,-1.17781 -1.71505,0 -2.91353,1.17781 -1.17781,1.17781 -1.17781,2.89286 z"
     id="path11493"
     style="font-size:42.3185px;font-family:'Open Sans';text-anchor:middle;fill:#ffffff;stroke-width:0mm" />
  <path
     d="m 357.26537,629.04952 q 0,4.58726 -3.14083,7.06686 -3.12016,2.45894 -8.94722,2.45894 h -3.55409 v 11.88141 h -3.51277 v -30.20979 h 7.8314 q 11.32351,0 11.32351,8.80258 z m -15.64214,6.50895 h 3.16149 q 4.66991,0 6.75691,-1.50842 2.08699,-1.50842 2.08699,-4.83522 0,-2.99618 -1.96301,-4.46328 -1.96302,-1.4671 -6.11635,-1.4671 h -3.92603 z"
     id="path11490"
     style="font-size:42.3185px;font-family:'Open Sans';text-anchor:middle;fill:#ffffff;stroke-width:0mm" />
  <path
     d="m 403.2264,634.25997 q 0,-2.68623 1.8597,-4.56659 1.88036,-1.88037 4.56659,-1.88037 2.68624,0 4.5666,1.88037 1.88036,1.8597 1.88036,4.56659 0,1.73572 -0.84719,3.22348 -0.8472,1.4671 -2.35562,2.33496 -1.50843,0.86786 -3.24415,0.86786 -2.68623,0 -4.56659,-1.8597 -1.8597,-1.8597 -1.8597,-4.5666 z m 2.37628,0 q 0,1.6944 1.19847,2.87221 1.21914,1.17781 2.89287,1.17781 1.65307,0 2.83088,-1.15715 1.19847,-1.17781 1.19847,-2.89287 0,-1.73572 -1.17781,-2.89286 -1.15715,-1.17781 -2.85154,-1.17781 -1.71506,0 -2.91353,1.17781 -1.17781,1.17781 -1.17781,2.89286 z"
     id="path11487"
     style="font-size:42.3185px;font-family:'Open Sans';text-anchor:middle;fill:#ffffff;stroke-width:0mm" />
  <path
     d="m 466.19329,634.25997 q 0,-2.68623 1.8597,-4.56659 1.88036,-1.88037 4.56659,-1.88037 2.68623,0 4.5666,1.88037 1.88036,1.8597 1.88036,4.56659 0,1.73572 -0.8472,3.22348 -0.84719,1.4671 -2.35562,2.33496 -1.50842,0.86786 -3.24414,0.86786 -2.68623,0 -4.56659,-1.8597 -1.8597,-1.8597 -1.8597,-4.5666 z m 2.37628,0 q 0,1.6944 1.19847,2.87221 1.21914,1.17781 2.89287,1.17781 1.65306,0 2.83087,-1.15715 1.19848,-1.17781 1.19848,-2.89287 0,-1.73572 -1.17781,-2.89286 -1.15715,-1.17781 -2.85154,-1.17781 -1.71506,0 -2.91353,1.17781 -1.17781,1.17781 -1.17781,2.89286 z"
     id="path11484"
     style="font-size:42.3185px;font-family:'Open Sans';text-anchor:middle;fill:#ffffff;stroke-width:0mm" />
  <path
     d="m 534.01606,650.45673 -10.24901,-26.77967 h -0.16531 q 0.28929,3.18215 0.28929,7.56278 v 19.21689 h -3.24415 v -30.20979 h 5.28981 l 9.56713,24.91998 h 0.1653 l 9.64978,-24.91998 h 5.24848 v 30.20979 h -3.51276 v -19.46485 q 0,-3.34746 0.28929,-7.2735 h -0.16531 l -10.33167,26.73835 z"
     id="path11481"
     style="font-size:42.3185px;font-family:'Open Sans';text-anchor:middle;fill:#ffffff;stroke-width:0mm" />
  <path
     d="m 611.55068,650.45673 h -4.13266 l -11.01356,-14.6503 -3.16149,2.81022 v 11.84008 h -3.51276 v -30.20979 h 3.51276 v 14.98092 l 13.69979,-14.98092 h 4.15333 l -12.15004,13.12122 z"
     id="path11478"
     style="font-size:42.3185px;font-family:'Open Sans';text-anchor:middle;fill:#ffffff;stroke-width:0mm" />
  <path
     id="rect10000"
     style="fill:none;stroke:#ff0000;stroke-width:0.005mm"
     d="M 0.37795277,0.37795277 H 63.344881 V 60.850394 H 0.37795277 Z" />
  <path
     id="rect10002"
     style="fill:none;stroke:#ff0000;stroke-width:0.005mm"
     d="M 63.344883,0.37795277 H 126.31181 V 60.850394 H 63.344883 Z" />
  <path
     id="rect10004"
     style="fill:none;stroke:#ff0000;stroke-width:0.005mm"
     d="m 126.31181,0.37795277 h 62.96693 V 60.850394 h -62.96693 z" />
  <path
     id="rect10006"
     style="fill:none;stroke:#ff0000;stroke-width:0.005mm"
     d="m 189.27873,0.37795277 h 62.96693 V 60.850394 h -62.96693 z" />
  <path
     id="rect10008"
     style="fill:none;stroke:#ff0000;stroke-width:0.005mm"
     d="m 252.24566,0.37795277 h 62.96693 V 60.850394 h -62.96693 z" />
  <path
     id="rect10010"
     style="fill:none;stroke:#ff0000;stroke-width:0.005mm"
     d="m 315.2126,0.37795277 h 62.96693 V 60.850394 H 315.2126 Z" />
  <path
     id="rect10012"
     style="fill:none;stroke:#ff0000;stroke-width:0.005mm"
     d="m 378.17953,0.37795277 h 62.96693 V 60.850394 h -62.96693 z" />
  <path
     id="rect10014"
     style="fill:none;stroke:#ff0000;stroke-width:0.005mm"
     d="m 441.14645,0.37795277 h 62.96692 V 60.850394 h -62.96692 z" />
  <path
     id="rect10016"
     style="fill:none;stroke:#ff0000;stroke-width:0.005mm"
     d="m 504.1134,0.37795277 h 62.96693 V 60.850394 H 504.1134 Z" />
  <path
     id="rect10018"
     style="fill:none;stroke:#ff0000;stroke-width:0.005mm"
     d="m 567.08031,0.37795277 h 62.96693 V 60.850394 h -62.96693 z" />
  <path
     id="rect10020"
     style="fill:none;stroke:#ff0000;stroke-width:0.005mm"
     d="m 630.04723,0.37795277 h 62.96693 V 60.850394 h -62.96693 z" />
  <path
     id="rect10022"
     style="fill:none;stroke:#ff0000;stroke-width:0.005mm"
     d="M 0.37795277,60.850396 H 63.344881 V 121.32284 H 0.37795277 Z" />
  <path
     id="rect10024"
     style="fill:none;stroke:#ff0000;stroke-width:0.005mm"
     d="M 63.344883,60.850396 H 126.31181 V 121.32284 H 63.344883 Z" />
  <path
     id="rect10026"
     style="fill:none;stroke:#ff0000;stroke-width:0.005mm"
     d="m 126.31181,60.850396 h 62.96693 v 60.472444 h -62.96693 z" />
  <path
     id="rect10028"
     style="fill:none;stroke:#ff0000;stroke-width:0.005mm"
     d="m 189.27873,60.850396 h 62.96693 v 60.472444 h -62.96693 z" />
  <path
     id="rect10030"
     style="fill:none;stroke:#ff0000;stroke-width:0.005mm"
     d="m 252.24566,60.850396 h 62.96693 v 60.472444 h -62.96693 z" />
  <path
     id="rect10032"
     style="fill:none;stroke:#ff0000;stroke-width:0.005mm"
     d="m 315.2126,60.850396 h 62.96693 V 121.32284 H 315.2126 Z" />
  <path
     id="rect10034"
     style="fill:none;stroke:#ff0000;stroke-width:0.005mm"
     d="m 378.17953,60.850396 h 62.96693 v 60.472444 h -62.96693 z" />
  <path
     id="rect10036"
     style="fill:none;stroke:#ff0000;stroke-width:0.005mm"
     d="m 441.14645,60.850396 h 62.96692 v 60.472444 h -62.96692 z" />
  <path
     id="rect10038"
     style="fill:none;stroke:#ff0000;stroke-width:0.005mm"
     d="m 504.1134,60.850396 h 62.96693 V 121.32284 H 504.1134 Z" />
  <path
     id="rect10040"
     style="fill:none;stroke:#ff0000;stroke-width:0.005mm"
     d="m 567.08031,60.850396 h 62.96693 v 60.472444 h -62.96693 z" />
  <path
     id="rect10042"
     style="fill:none;stroke:#ff0000;stroke-width:0.005mm"
     d="m 630.04723,60.850396 h 62.96693 v 60.472444 h -62.96693 z" />
  <path
     id="rect10044"
     style="fill:none;stroke:#ff0000;stroke-width:0.005mm"
     d="M 0.37795277,121.32283 H 63.344881 v 60.47244 H 0.37795277 Z" />
  <path
     id="rect10046"
     style="fill:none;stroke:#ff0000;stroke-width:0.005mm"
     d="m 63.344883,121.32283 h 62.966927 v 60.47244 H 63.344883 Z" />
  <path
     id="rect10048"
     style="fill:none;stroke:#ff0000;stroke-width:0.005mm"
     d="m 126.31181,121.32283 h 62.96693 v 60.47244 h -62.96693 z" />
  <path
     id="rect10050"
     style="fill:none;stroke:#ff0000;stroke-width:0.005mm"
     d="m 189.27873,121.32283 h 62.96693 v 60.47244 h -62.96693 z" />
  <path
     id="rect10052"
     style="fill:none;stroke:#ff0000;stroke-width:0.005mm"
     d="m 252.24566,121.32283 h 62.96693 v 60.47244 h -62.96693 z" />
  <path
     id="rect10054"
     style="fill:none;stroke:#ff0000;stroke-width:0.005mm"
     d="m 315.2126,121.32283 h 62.96693 v 60.47244 H 315.2126 Z" />
  <path
     id="rect10056"
     style="fill:none;stroke:#ff0000;stroke-width:0.005mm"
     d="m 378.17953,121.32283 h 62.96693 v 60.47244 h -62.96693 z" />
  <path
     id="rect10058"
     style="fill:none;stroke:#ff0000;stroke-width:0.005mm"
     d="m 441.14645,121.32283 h 62.96692 v 60.47244 h -62.96692 z" />
  <path
     id="rect10060"
     style="fill:none;stroke:#ff0000;stroke-width:0.005mm"
     d="m 504.1134,121.32283 h 62.96693 v 60.47244 H 504.1134 Z" />
  <path
     id="rect10062"
     style="fill:none;stroke:#ff0000;stroke-width:0.005mm"
     d="m 567.08031,121.32283 h 62.96693 v 60.47244 h -62.96693 z" />
  <path
     id="rect10064"
     style="fill:none;stroke:#ff0000;stroke-width:0.005mm"
     d="m 630.04723,121.32283 h 62.96693 v 60.47244 h -62.96693 z" />
  <path
     id="rect10066"
     style="fill:none;stroke:#ff0000;stroke-width:0.005mm"
     d="M 0.37795277,181.79527 H 63.344881 v 60.47244 H 0.37795277 Z" />
  <path
     id="rect10068"
     style="fill:none;stroke:#ff0000;stroke-width:0.005mm"
     d="m 63.344883,181.79527 h 62.966927 v 60.47244 H 63.344883 Z" />
  <path
     id="rect10070"
     style="fill:none;stroke:#ff0000;stroke-width:0.005mm"
     d="m 126.31181,181.79527 h 62.96693 v 60.47244 h -62.96693 z" />
  <path
     id="rect10072"
     style="fill:none;stroke:#ff0000;stroke-width:0.005mm"
     d="m 189.27873,181.79527 h 62.96693 v 60.47244 h -62.96693 z" />
  <path
     id="rect10074"
     style="fill:none;stroke:#ff0000;stroke-width:0.005mm"
     d="m 252.24566,181.79527 h 62.96693 v 60.47244 h -62.96693 z" />
  <path
     id="rect10076"
     style="fill:none;stroke:#ff0000;stroke-width:0.005mm"
     d="m 315.2126,181.79527 h 62.96693 v 60.47244 H 315.2126 Z" />
  <path
     id="rect10078"
     style="fill:none;stroke:#ff0000;stroke-width:0.005mm"
     d="m 378.17953,181.79527 h 62.96693 v 60.47244 h -62.96693 z" />
  <path
     id="rect10080"
     style="fill:none;stroke:#ff0000;stroke-width:0.005mm"
     d="m 441.14645,181.79527 h 62.96692 v 60.47244 h -62.96692 z" />
  <path
     id="rect10082"
     style="fill:none;stroke:#ff0000;stroke-width:0.005mm"
     d="m 504.1134,181.79527 h 62.96693 v 60.47244 H 504.1134 Z" />
  <path
     id="rect10084"
     style="fill:none;stroke:#ff0000;stroke-width:0.005mm"
     d="m 567.08031,181.79527 h 62.96693 v 60.47244 h -62.96693 z" />
  <path
     id="rect10086"
     style="fill:none;stroke:#ff0000;stroke-width:0.005mm"
     d="m 630.04723,181.79527 h 62.96693 v 60.47244 h -62.96693 z" />
  <path
     id="rect10088"
     style="fill:none;stroke:#ff0000;stroke-width:0.005mm"
     d="M 0.37795277,242.26771 H 63.344881 v 60.47245 H 0.37795277 Z" />
  <path
     id="rect10090"
     style="fill:none;stroke:#ff0000;stroke-width:0.005mm"
     d="m 63.344883,242.26771 h 62.966927 v 60.47245 H 63.344883 Z" />
  <path
     id="rect10092"
     style="fill:none;stroke:#ff0000;stroke-width:0.005mm"
     d="m 126.31181,242.26771 h 62.96693 v 60.47245 h -62.96693 z" />
  <path
     id="rect10094"
     style="fill:none;stroke:#ff0000;stroke-width:0.005mm"
     d="m 189.27873,242.26771 h 62.96693 v 60.47245 h -62.96693 z" />
  <path
     id="rect10096"
     style="fill:none;stroke:#ff0000;stroke-width:0.005mm"
     d="m 252.24566,242.26771 h 62.96693 v 60.47245 h -62.96693 z" />
  <path
     id="rect10098"
     style="fill:none;stroke:#ff0000;stroke-width:0.005mm"
     d="m 315.2126,242.26771 h 62.96693 v 60.47245 H 315.2126 Z" />
  <path
     id="rect10100"
     style="fill:none;stroke:#ff0000;stroke-width:0.005mm"
     d="m 378.17953,242.26771 h 62.96693 v 60.47245 h -62.96693 z" />
  <path
     id="rect10102"
     style="fill:none;stroke:#ff0000;stroke-width:0.005mm"
     d="m 441.14645,242.26771 h 62.96692 v 60.47245 h -62.96692 z" />
  <path
     id="rect10104"
     style="fill:none;stroke:#ff0000;stroke-width:0.005mm"
     d="m 504.1134,242.26771 h 62.96693 v 60.47245 H 504.1134 Z" />
  <path
     id="rect10106"
     style="fill:none;stroke:#ff0000;stroke-width:0.005mm"
     d="m 567.08031,242.26771 h 62.96693 v 60.47245 h -62.96693 z" />
  <path
     id="rect10108"
     style="fill:none;stroke:#ff0000;stroke-width:0.005mm"
     d="m 630.04723,242.26771 h 62.96693 v 60.47245 h -62.96693 z" />
  <path
     id="rect10110"
     style="fill:none;stroke:#ff0000;stroke-width:0.005mm"
     d="M 0.37795277,302.74016 H 63.344881 V 363.2126 H 0.37795277 Z" />
  <path
     id="rect10112"
     style="fill:none;stroke:#ff0000;stroke-width:0.005mm"
     d="M 63.344883,302.74016 H 126.31181 V 363.2126 H 63.344883 Z" />
  <path
     id="rect10114"
     style="fill:none;stroke:#ff0000;stroke-width:0.005mm"
     d="m 126.31181,302.74016 h 62.96693 v 60.47244 h -62.96693 z" />
  <path
     id="rect10116"
     style="fill:none;stroke:#ff0000;stroke-width:0.005mm"
     d="m 189.27873,302.74016 h 62.96693 v 60.47244 h -62.96693 z" />
  <path
     id="rect10118"
     style="fill:none;stroke:#ff0000;stroke-width:0.005mm"
     d="m 252.24566,302.74016 h 62.96693 v 60.47244 h -62.96693 z" />
  <path
     id="rect10120"
     style="fill:none;stroke:#ff0000;stroke-width:0.005mm"
     d="m 315.2126,302.74016 h 62.96693 V 363.2126 H 315.2126 Z" />
  <path
     id="rect10122"
     style="fill:none;stroke:#ff0000;stroke-width:0.005mm"
     d="m 378.17953,302.74016 h 62.96693 v 60.47244 h -62.96693 z" />
  <path
     id="rect10124"
     style="fill:none;stroke:#ff0000;stroke-width:0.005mm"
     d="m 441.14645,302.74016 h 62.96692 v 60.47244 h -62.96692 z" />
  <path
     id="rect10126"
     style="fill:none;stroke:#ff0000;stroke-width:0.005mm"
     d="m 504.1134,302.74016 h 62.96693 V 363.2126 H 504.1134 Z" />
  <path
     id="rect10128"
     style="fill:none;stroke:#ff0000;stroke-width:0.005mm"
     d="m 567.08031,302.74016 h 62.96693 v 60.47244 h -62.96693 z" />
  <path
     id="rect10130"
     style="fill:none;stroke:#ff0000;stroke-width:0.005mm"
     d="m 630.04723,302.74016 h 62.96693 v 60.47244 h -62.96693 z" />
  <path
     id="rect10132"
     style="fill:none;stroke:#ff0000;stroke-width:0.005mm"
     d="M 0.37795277,363.21262 H 63.344881 v 60.47244 H 0.37795277 Z" />
  <path
     id="rect10134"
     style="fill:none;stroke:#ff0000;stroke-width:0.005mm"
     d="m 63.344883,363.21262 h 62.966927 v 60.47244 H 63.344883 Z" />
  <path
     id="rect10136"
     style="fill:none;stroke:#ff0000;stroke-width:0.005mm"
     d="m 126.31181,363.21262 h 62.96693 v 60.47244 h -62.96693 z" />
  <path
     id="rect10138"
     style="fill:none;stroke:#ff0000;stroke-width:0.005mm"
     d="m 189.27873,363.21262 h 62.96693 v 60.47244 h -62.96693 z" />
  <path
     id="rect10140"
     style="fill:none;stroke:#ff0000;stroke-width:0.005mm"
     d="m 252.24566,363.21262 h 62.96693 v 60.47244 h -62.96693 z" />
  <path
     id="rect10142"
     style="fill:none;stroke:#ff0000;stroke-width:0.005mm"
     d="m 315.2126,363.21262 h 62.96693 v 60.47244 H 315.2126 Z" />
  <path
     id="rect10144"
     style="fill:none;stroke:#ff0000;stroke-width:0.005mm"
     d="m 378.17953,363.21262 h 62.96693 v 60.47244 h -62.96693 z" />
  <path
     id="rect10146"
     style="fill:none;stroke:#ff0000;stroke-width:0.005mm"
     d="m 441.14645,363.21262 h 62.96692 v 60.47244 h -62.96692 z" />
  <path
     id="rect10148"
     style="fill:none;stroke:#ff0000;stroke-width:0.005mm"
     d="m 504.1134,363.21262 h 62.96693 v 60.47244 H 504.1134 Z" />
  <path
     id="rect10150"
     style="fill:none;stroke:#ff0000;stroke-width:0.005mm"
     d="m 567.08031,363.21262 h 62.96693 v 60.47244 h -62.96693 z" />
  <path
     id="rect10152"
     style="fill:none;stroke:#ff0000;stroke-width:0.005mm"
     d="m 630.04723,363.21262 h 62.96693 v 60.47244 h -62.96693 z" />
  <path
     id="rect10154"
     style="fill:none;stroke:#ff0000;stroke-width:0.005mm"
     d="M 0.37795277,423.68504 H 63.344881 v 60.47244 H 0.37795277 Z" />
  <path
     id="rect10156"
     style="fill:none;stroke:#ff0000;stroke-width:0.005mm"
     d="m 63.344883,423.68504 h 62.966927 v 60.47244 H 63.344883 Z" />
  <path
     id="rect10158"
     style="fill:none;stroke:#ff0000;stroke-width:0.005mm"
     d="m 126.31181,423.68504 h 62.96693 v 60.47244 h -62.96693 z" />
  <path
     id="rect10160"
     style="fill:none;stroke:#ff0000;stroke-width:0.005mm"
     d="m 189.27873,423.68504 h 62.96693 v 60.47244 h -62.96693 z" />
  <path
     id="rect10162"
     style="fill:none;stroke:#ff0000;stroke-width:0.005mm"
     d="m 252.24566,423.68504 h 62.96693 v 60.47244 h -62.96693 z" />
  <path
     id="rect10164"
     style="fill:none;stroke:#ff0000;stroke-width:0.005mm"
     d="m 315.2126,423.68504 h 62.96693 v 60.47244 H 315.2126 Z" />
  <path
     id="rect10166"
     style="fill:none;stroke:#ff0000;stroke-width:0.005mm"
     d="m 378.17953,423.68504 h 62.96693 v 60.47244 h -62.96693 z" />
  <path
     id="rect10168"
     style="fill:none;stroke:#ff0000;stroke-width:0.005mm"
     d="m 441.14645,423.68504 h 62.96692 v 60.47244 h -62.96692 z" />
  <path
     id="rect10170"
     style="fill:none;stroke:#ff0000;stroke-width:0.005mm"
     d="m 504.1134,423.68504 h 62.96693 v 60.47244 H 504.1134 Z" />
  <path
     id="rect10172"
     style="fill:none;stroke:#ff0000;stroke-width:0.005mm"
     d="m 567.08031,423.68504 h 62.96693 v 60.47244 h -62.96693 z" />
  <path
     id="rect10174"
     style="fill:none;stroke:#ff0000;stroke-width:0.005mm"
     d="m 630.04723,423.68504 h 62.96693 v 60.47244 h -62.96693 z" />
  <path
     id="rect10176"
     style="fill:none;stroke:#ff0000;stroke-width:0.005mm"
     d="M 0.37795277,484.15746 H 63.344881 V 544.6299 H 0.37795277 Z" />
  <path
     id="rect10178"
     style="fill:none;stroke:#ff0000;stroke-width:0.005mm"
     d="M 63.344883,484.15746 H 126.31181 V 544.6299 H 63.344883 Z" />
  <path
     id="rect10180"
     style="fill:none;stroke:#ff0000;stroke-width:0.005mm"
     d="m 126.31181,484.15746 h 62.96693 v 60.47244 h -62.96693 z" />
  <path
     id="rect10182"
     style="fill:none;stroke:#ff0000;stroke-width:0.005mm"
     d="m 189.27873,484.15746 h 62.96693 v 60.47244 h -62.96693 z" />
  <path
     id="rect10184"
     style="fill:none;stroke:#ff0000;stroke-width:0.005mm"
     d="m 252.24566,484.15746 h 62.96693 v 60.47244 h -62.96693 z" />
  <path
     id="rect10186"
     style="fill:none;stroke:#ff0000;stroke-width:0.005mm"
     d="m 315.2126,484.15746 h 62.96693 V 544.6299 H 315.2126 Z" />
  <path
     id="rect10188"
     style="fill:none;stroke:#ff0000;stroke-width:0.005mm"
     d="m 378.17953,484.15746 h 62.96693 v 60.47244 h -62.96693 z" />
  <path
     id="rect10190"
     style="fill:none;stroke:#ff0000;stroke-width:0.005mm"
     d="m 441.14645,484.15746 h 62.96692 v 60.47244 h -62.96692 z" />
  <path
     id="rect10192"
     style="fill:none;stroke:#ff0000;stroke-width:0.005mm"
     d="m 504.1134,484.15746 h 62.96693 V 544.6299 H 504.1134 Z" />
  <path
     id="rect10194"
     style="fill:none;stroke:#ff0000;stroke-width:0.005mm"
     d="m 567.08031,484.15746 h 62.96693 v 60.47244 h -62.96693 z" />
  <path
     id="rect10196"
     style="fill:none;stroke:#ff0000;stroke-width:0.005mm"
     d="m 630.04723,484.15746 h 62.96693 v 60.47244 h -62.96693 z" />
  <path
     id="rect10198"
     style="fill:none;stroke:#ff0000;stroke-width:0.005mm"
     d="M 0.37795277,544.62992 H 63.344881 v 60.47244 H 0.37795277 Z" />
  <path
     id="rect10200"
     style="fill:none;stroke:#ff0000;stroke-width:0.005mm"
     d="m 63.344883,544.62992 h 62.966927 v 60.47244 H 63.344883 Z" />
  <path
     id="rect10202"
     style="fill:none;stroke:#ff0000;stroke-width:0.005mm"
     d="m 126.31181,544.62992 h 62.96693 v 60.47244 h -62.96693 z" />
  <path
     id="rect10204"
     style="fill:none;stroke:#ff0000;stroke-width:0.005mm"
     d="m 189.27873,544.62992 h 62.96693 v 60.47244 h -62.96693 z" />
  <path
     id="rect10206"
     style="fill:none;stroke:#ff0000;stroke-width:0.005mm"
     d="m 252.24566,544.62992 h 62.96693 v 60.47244 h -62.96693 z" />
  <path
     id="rect10208"
     style="fill:none;stroke:#ff0000;stroke-width:0.005mm"
     d="m 315.2126,544.62992 h 62.96693 v 60.47244 H 315.2126 Z" />
  <path
     id="rect10210"
     style="fill:none;stroke:#ff0000;stroke-width:0.005mm"
     d="m 378.17953,544.62992 h 62.96693 v 60.47244 h -62.96693 z" />
  <path
     id="rect10212"
     style="fill:none;stroke:#ff0000;stroke-width:0.005mm"
     d="m 441.14645,544.62992 h 62.96692 v 60.47244 h -62.96692 z" />
  <path
     id="rect10214"
     style="fill:none;stroke:#ff0000;stroke-width:0.005mm"
     d="m 504.1134,544.62992 h 62.96693 v 60.47244 H 504.1134 Z" />
  <path
     id="rect10216"
     style="fill:none;stroke:#ff0000;stroke-width:0.005mm"
     d="m 567.08031,544.62992 h 62.96693 v 60.47244 h -62.96693 z" />
  <path
     id="rect10218"
     style="fill:none;stroke:#ff0000;stroke-width:0.005mm"
     d="m 630.04723,544.62992 h 62.96693 v 60.47244 h -62.96693 z" />
  <path
     id="rect10220"
     style="fill:none;stroke:#ff0000;stroke-width:0.005mm"
     d="M 0.37795277,605.10234 H 63.344881 v 60.47245 H 0.37795277 Z" />
  <path
     id="rect10222"
     style="fill:none;stroke:#ff0000;stroke-width:0.005mm"
     d="m 63.344883,605.10234 h 62.966927 v 60.47245 H 63.344883 Z" />
  <path
     id="rect10224"
     style="fill:none;stroke:#ff0000;stroke-width:0.005mm"
     d="m 126.31181,605.10234 h 62.96693 v 60.47245 h -62.96693 z" />
  <path
     id="rect10226"
     style="fill:none;stroke:#ff0000;stroke-width:0.005mm"
     d="m 189.27873,605.10234 h 62.96693 v 60.47245 h -62.96693 z" />
  <path
     id="rect10228"
     style="fill:none;stroke:#ff0000;stroke-width:0.005mm"
     d="m 252.24566,605.10234 h 62.96693 v 60.47245 h -62.96693 z" />
  <path
     id="rect10230"
     style="fill:none;stroke:#ff0000;stroke-width:0.005mm"
     d="m 315.2126,605.10234 h 62.96693 v 60.47245 H 315.2126 Z" />
  <path
     id="rect10232"
     style="fill:none;stroke:#ff0000;stroke-width:0.005mm"
     d="m 378.17953,605.10234 h 62.96693 v 60.47245 h -62.96693 z" />
  <path
     id="rect10234"
     style="fill:none;stroke:#ff0000;stroke-width:0.005mm"
     d="m 441.14645,605.10234 h 62.96692 v 60.47245 h -62.96692 z" />
  <path
     id="rect10236"
     style="fill:none;stroke:#ff0000;stroke-width:0.005mm"
     d="m 504.1134,605.10234 h 62.96693 v 60.47245 H 504.1134 Z" />
  <path
     id="rect10238"
     style="fill:none;stroke:#ff0000;stroke-width:0.005mm"
     d="m 567.08031,605.10234 h 62.96693 v 60.47245 h -62.96693 z" />
  <path
     id="rect10240"
     style="fill:none;stroke:#ff0000;stroke-width:0.005mm"
     d="m 630.04723,605.10234 h 62.96693 v 60.47245 h -62.96693 z" />
  <path
     style="fill:#ffffff;stroke-width:0.0681639"
     d="m 673.63562,650.84611 c -1.27857,0.82726 -2.95935,1.03714 -4.37535,0.54635 -0.8321,-0.28841 -1.3342,-0.60353 -1.96205,-1.23137 -0.63516,-0.63517 -0.94765,-1.13643 -1.23223,-1.97657 -0.46379,-1.36925 -0.31595,-2.80179 0.4316,-4.1822 0.28295,-0.52249 1.26089,-1.50043 1.78337,-1.78338 0.96193,-0.52091 1.74159,-0.71221 2.77413,-0.68069 0.84979,0.0259 1.81094,0.30891 2.48509,0.7316 0.53108,0.33297 1.31633,1.11789 1.64635,1.64566 0.8269,1.32236 0.97201,3.14389 0.36841,4.62487 -0.36086,0.88541 -1.1041,1.77827 -1.91933,2.30575 z m -15.96542,-0.66992 -2.38624,-0.0132 0.0126,-0.5289 c 0.0542,-2.2711 0.64885,-4.96001 1.55704,-7.04008 1.66264,-3.80799 4.51696,-7.00478 8.08287,-9.05265 2.61867,-1.50388 5.88933,-2.43374 8.83783,-2.51262 l 0.66456,-0.0178 0.0148,2.38362 0.0148,2.38362 -0.46722,0.0147 c -2.85596,0.0903 -5.7091,1.08385 -8.15101,2.83841 -0.60565,0.43517 -2.51557,2.34381 -2.94116,2.93914 -1.76119,2.46392 -2.7458,5.29242 -2.83765,8.15176 l -0.015,0.46699 -2.38623,-0.0132 z m -9.58865,-0.0101 -2.38503,0.005 0.0247,-1.02205 c 0.12957,-5.35089 1.98844,-10.92425 5.14362,-15.42178 1.09981,-1.56773 1.70949,-2.2841 3.2832,-3.85781 1.57371,-1.5737 2.29008,-2.18339 3.85781,-3.2832 4.4966,-3.15452 10.0728,-5.01409 15.42405,-5.14367 l 1.02433,-0.0248 -0.008,2.38509 -0.008,2.38509 -0.85135,0.025 c -5.0715,0.14904 -10.09565,2.02445 -14.22104,5.30842 -0.80224,0.63861 -2.92813,2.7645 -3.56674,3.56673 -3.28476,4.12639 -5.15934,9.14843 -5.30843,14.22136 l -0.025,0.85168 z"
     id="path5438"
     inkscape:connector-curvature="0" />
</svg>
