999
"DXF R12 Output" (www.mydxf.blogspot.com)
 0 
SECTION
 2 
HEADER
 9 
$ACADVER
 1 
AC1009
 9 
$EXTMIN
 10 
 0 
 20 
 0 
 9 
$EXTMAX
 10 
 8.5 
 20 
 11 
 0 
ENDSEC
 0 
SECTION
 2 
ENTITIES
0
LINE
8
Layer 1
10
0.793749
20
297.794000
11
-0.793749
21
296.206000
0
LINE
8
Layer 1
10
0.000000
20
298.323000
11
0.000000
21
295.677000
0
LINE
8
Layer 1
10
2.116660
20
295.942000
11
1.058330
21
294.883670
0
LINE
8
Layer 1
10
1.587500
20
296.471000
11
0.529170
21
295.412670
0
LINE
8
Layer 1
10
1.058330
20
297.000000
11
0.000000
21
295.941670
0
LINE
8
0
10
1.246640
20
176.954000
11
184.613000
21
176.954000
0
LINE
8
0
10
184.613000
20
176.954000
11
184.613000
21
0.857011
0
LINE
8
0
10
184.613000
20
0.857011
11
1.246640
21
0.857011
0
LINE
8
0
10
1.246640
20
0.857011
11
1.246640
21
176.954000
0
LINE
8
0
10
28.859300
20
166.986000
11
28.668047
21
166.047563
0
LINE
8
0
10
28.668047
20
166.047563
11
28.094287
21
165.341350
0
LINE
8
0
10
28.094300
20
165.341000
11
27.192678
21
164.898419
0
LINE
8
0
10
27.192678
20
164.898419
11
26.017830
21
164.750893
0
LINE
8
0
10
26.017800
20
164.751000
11
24.760994
21
164.842521
0
LINE
8
0
10
24.760994
20
164.842521
11
23.832050
21
165.117085
0
LINE
8
0
10
12.112200
20
164.861000
11
7.658720
21
164.861000
0
LINE
8
0
10
7.658720
20
164.861000
11
7.658720
21
172.849000
0
LINE
8
0
10
7.658720
20
172.849000
11
12.112200
21
172.849000
0
LINE
8
0
10
12.112200
20
172.849000
11
12.112200
21
172.024000
0
LINE
8
0
10
12.112200
20
172.024000
11
8.587660
21
172.024000
0
LINE
8
0
10
8.587660
20
172.024000
11
8.587660
21
169.450000
0
LINE
8
0
10
8.587660
20
169.450000
11
11.899100
21
169.450000
0
LINE
8
0
10
11.899100
20
169.450000
11
11.899100
21
168.631000
0
LINE
8
0
10
11.899100
20
168.631000
11
8.587660
21
168.631000
0
LINE
8
0
10
8.587660
20
168.631000
11
8.587660
21
165.691000
0
LINE
8
0
10
8.587660
20
165.691000
11
12.112200
21
165.691000
0
LINE
8
0
10
12.112200
20
165.691000
11
12.112200
21
164.861000
0
LINE
8
0
10
23.832100
20
166.014000
11
24.903120
21
165.686163
0
LINE
8
0
10
24.903100
20
165.686000
11
26.050620
21
165.565792
0
LINE
8
0
10
26.050600
20
165.565000
11
26.864793
21
165.652424
0
LINE
8
0
10
26.864793
20
165.652424
11
27.449480
21
165.914694
0
LINE
8
0
10
27.449500
20
165.915000
11
27.801952
21
166.338456
0
LINE
8
0
10
27.801952
20
166.338456
11
27.919436
21
166.898511
0
LINE
8
0
10
27.919500
20
166.899000
11
27.750106
21
167.576534
0
LINE
8
0
10
27.750100
20
167.576000
11
27.192732
21
168.067757
0
LINE
8
0
10
27.192700
20
168.068000
11
26.006930
21
168.576148
0
LINE
8
0
10
26.006900
20
168.576000
11
25.050633
21
169.011751
0
LINE
8
0
10
25.050633
20
169.011751
11
24.411300
21
169.521265
0
LINE
8
0
10
24.411300
20
169.521000
11
24.054748
21
170.150721
0
LINE
8
0
10
24.054748
20
170.150721
11
23.935898
21
170.947090
0
LINE
8
0
10
23.935900
20
170.947000
11
24.109394
21
171.776156
0
LINE
8
0
10
24.109394
20
171.776156
11
24.629877
21
172.416810
0
LINE
8
0
10
24.629900
20
172.417000
11
25.435895
21
172.826797
0
LINE
8
0
10
25.435895
20
172.826797
11
26.465930
21
172.963396
0
LINE
8
0
10
26.465900
20
172.964000
11
27.609322
21
172.854720
0
LINE
8
0
10
27.609322
20
172.854720
11
28.657120
21
172.526882
0
LINE
8
0
10
23.832100
20
165.117000
11
23.832100
21
166.014000
0
LINE
8
0
10
28.367500
20
171.718000
11
27.392111
21
172.029445
0
LINE
8
0
10
27.392111
20
172.029445
11
26.444040
21
172.133260
0
LINE
8
0
10
26.444100
20
172.133000
11
25.787005
21
172.053773
0
LINE
8
0
10
25.787005
20
172.053773
11
25.291110
21
171.816090
0
LINE
8
0
10
25.291100
20
171.816000
11
24.979630
21
171.437622
0
LINE
8
0
10
24.979630
20
171.437622
11
24.875807
21
170.936304
0
LINE
8
0
10
24.875800
20
170.937000
11
25.028803
21
170.254003
0
LINE
8
0
10
25.028800
20
170.254000
11
25.542452
21
169.767707
0
LINE
8
0
10
25.542400
20
169.767000
11
26.657140
21
169.280710
0
LINE
8
0
10
26.657200
20
169.281000
11
27.717289
21
168.816563
0
LINE
8
0
10
27.717289
20
168.816563
11
28.383940
21
168.319341
0
LINE
8
0
10
28.383900
20
168.319000
11
28.740452
21
167.728894
0
LINE
8
0
10
28.740452
20
167.728894
11
28.859303
21
166.985800
0
LINE
8
0
10
28.657100
20
172.527000
11
28.367485
21
171.718334
0
LINE
8
0
10
46.371500
20
168.931000
11
46.304220
21
168.000076
0
LINE
8
0
10
46.304220
20
168.000076
11
46.102380
21
167.185263
0
LINE
8
0
10
46.102380
20
167.185263
11
45.765980
21
166.486561
0
LINE
8
0
10
45.765980
20
166.486561
11
45.295020
21
165.903970
0
LINE
8
0
10
45.295000
20
165.904000
11
44.700406
21
165.447417
0
LINE
8
0
10
44.700406
20
165.447417
11
43.987645
21
165.121286
0
LINE
8
0
10
43.987645
20
165.121286
11
42.207620
21
164.860380
0
LINE
8
0
10
42.442600
20
172.849000
11
44.098309
21
172.590828
0
LINE
8
0
10
44.098309
20
172.590828
11
44.770426
21
172.268113
0
LINE
8
0
10
44.770426
20
172.268113
11
45.338720
21
171.816310
0
LINE
8
0
10
45.338700
20
171.816000
11
45.790537
21
171.248432
0
LINE
8
0
10
45.790537
20
171.248432
11
46.113278
21
170.578416
0
LINE
8
0
10
46.113278
20
170.578416
11
46.371470
21
168.931030
0
LINE
8
0
10
42.207600
20
164.861000
11
39.994500
21
164.861000
0
LINE
8
0
10
39.994500
20
164.861000
11
39.994500
21
172.849000
0
LINE
8
0
10
39.994500
20
172.849000
11
42.442600
21
172.849000
0
LINE
8
0
10
45.387900
20
168.898000
11
45.191181
21
170.268089
0
LINE
8
0
10
45.191181
20
170.268089
11
44.601025
21
171.252970
0
LINE
8
0
10
44.601000
20
171.253000
11
43.628341
21
171.847206
0
LINE
8
0
10
43.628341
20
171.847206
11
42.273170
21
172.045275
0
LINE
8
0
10
42.054600
20
165.664000
11
43.509494
21
165.867533
0
LINE
8
0
10
43.509494
20
165.867533
11
44.551820
21
166.478130
0
LINE
8
0
10
44.551800
20
166.478000
11
45.178839
21
167.492930
0
LINE
8
0
10
45.178839
20
167.492930
11
45.387853
21
168.898530
0
LINE
8
0
10
42.273200
20
172.046000
11
40.923500
21
172.046000
0
LINE
8
0
10
40.923500
20
172.046000
11
40.923500
21
165.664000
0
LINE
8
0
10
40.923500
20
165.664000
11
42.054600
21
165.664000
0
LINE
8
0
10
78.813800
20
166.986000
11
78.622548
21
166.047563
0
LINE
8
0
10
78.622548
20
166.047563
11
78.048790
21
165.341350
0
LINE
8
0
10
78.048800
20
165.341000
11
77.147177
21
164.898419
0
LINE
8
0
10
77.147177
20
164.898419
11
75.972330
21
164.750893
0
LINE
8
0
10
75.972400
20
164.751000
11
74.715593
21
164.842521
0
LINE
8
0
10
74.715593
20
164.842521
11
73.786650
21
165.117085
0
LINE
8
0
10
59.165100
20
164.861000
11
59.165100
21
172.849000
0
LINE
8
0
10
59.165100
20
172.849000
11
60.094100
21
172.849000
0
LINE
8
0
10
60.094100
20
172.849000
11
60.094100
21
164.861000
0
LINE
8
0
10
60.094100
20
164.861000
11
59.165100
21
164.861000
0
LINE
8
0
10
73.786600
20
166.014000
11
74.857620
21
165.686163
0
LINE
8
0
10
74.857600
20
165.686000
11
76.005120
21
165.565792
0
LINE
8
0
10
76.005200
20
165.565000
11
76.819392
21
165.652424
0
LINE
8
0
10
76.819392
20
165.652424
11
77.404080
21
165.914694
0
LINE
8
0
10
77.404000
20
165.915000
11
77.756453
21
166.338456
0
LINE
8
0
10
77.756453
20
166.338456
11
77.873939
21
166.898511
0
LINE
8
0
10
77.874000
20
166.899000
11
77.704603
21
167.576534
0
LINE
8
0
10
77.704600
20
167.576000
11
77.147232
21
168.067757
0
LINE
8
0
10
77.147200
20
168.068000
11
75.961430
21
168.576148
0
LINE
8
0
10
75.961400
20
168.576000
11
75.005129
21
169.011751
0
LINE
8
0
10
75.005129
20
169.011751
11
74.365800
21
169.521265
0
LINE
8
0
10
74.365800
20
169.521000
11
74.009251
21
170.150721
0
LINE
8
0
10
74.009251
20
170.150721
11
73.890400
21
170.947090
0
LINE
8
0
10
73.890400
20
170.947000
11
74.063894
21
171.776156
0
LINE
8
0
10
74.063894
20
171.776156
11
74.584377
21
172.416810
0
LINE
8
0
10
74.584400
20
172.417000
11
75.390396
21
172.826797
0
LINE
8
0
10
75.390396
20
172.826797
11
76.420430
21
172.963396
0
LINE
8
0
10
76.420400
20
172.964000
11
77.563822
21
172.854720
0
LINE
8
0
10
77.563822
20
172.854720
11
78.611620
21
172.526882
0
LINE
8
0
10
73.786600
20
165.117000
11
73.786600
21
166.014000
0
LINE
8
0
10
78.322100
20
171.718000
11
77.346710
21
172.029445
0
LINE
8
0
10
77.346710
20
172.029445
11
76.398640
21
172.133260
0
LINE
8
0
10
76.398600
20
172.133000
11
75.741508
21
172.053773
0
LINE
8
0
10
75.741508
20
172.053773
11
75.245620
21
171.816090
0
LINE
8
0
10
75.245600
20
171.816000
11
74.934128
21
171.437622
0
LINE
8
0
10
74.934128
20
171.437622
11
74.830303
21
170.936304
0
LINE
8
0
10
74.830300
20
170.937000
11
74.983308
21
170.254003
0
LINE
8
0
10
74.983300
20
170.254000
11
75.496948
21
169.767707
0
LINE
8
0
10
75.497000
20
169.767000
11
76.611740
21
169.280710
0
LINE
8
0
10
76.611700
20
169.281000
11
77.671794
21
168.816563
0
LINE
8
0
10
77.671794
20
168.816563
11
78.338450
21
168.319341
0
LINE
8
0
10
78.338400
20
168.319000
11
78.694951
21
167.728894
0
LINE
8
0
10
78.694951
20
167.728894
11
78.813800
21
166.985800
0
LINE
8
0
10
78.611700
20
172.527000
11
78.322085
21
171.718334
0
LINE
8
0
10
93.918900
20
172.133000
11
92.739959
21
171.913076
0
LINE
8
0
10
92.739959
20
171.913076
11
91.836970
21
171.253304
0
LINE
8
0
10
91.837000
20
171.253000
11
91.267339
21
170.216214
0
LINE
8
0
10
91.267339
20
170.216214
11
91.077451
21
168.854320
0
LINE
8
0
10
91.077500
20
168.855000
11
91.260557
21
167.464419
0
LINE
8
0
10
91.260557
20
167.464419
11
91.809728
21
166.429000
0
LINE
8
0
10
91.809700
20
166.429000
11
92.703123
21
165.789717
0
LINE
8
0
10
92.703123
20
165.789717
11
93.908020
21
165.576622
0
LINE
8
0
10
93.908000
20
165.576000
11
95.815070
21
165.876519
0
LINE
8
0
10
95.815100
20
165.063000
11
94.887523
21
164.829415
0
LINE
8
0
10
94.887523
20
164.829415
11
93.765950
21
164.751554
0
LINE
8
0
10
93.765900
20
164.751000
11
92.201722
21
165.018734
0
LINE
8
0
10
92.201722
20
165.018734
11
91.570243
21
165.353403
0
LINE
8
0
10
91.570243
20
165.353403
11
91.039170
21
165.821940
0
LINE
8
0
10
91.039200
20
165.822000
11
90.620834
21
166.413815
0
LINE
8
0
10
90.620834
20
166.413815
11
90.322002
21
167.118323
0
LINE
8
0
10
90.322002
20
167.118323
11
90.082936
21
168.865420
0
LINE
8
0
10
90.082900
20
168.866000
11
90.197652
21
170.024360
0
LINE
8
0
10
90.197652
20
170.024360
11
90.541907
21
171.029730
0
LINE
8
0
10
90.541900
20
171.029000
11
91.107464
21
171.851325
0
LINE
8
0
10
91.107464
20
171.851325
11
91.875210
21
172.460560
0
LINE
8
0
10
91.875300
20
172.461000
11
92.826104
21
172.838012
0
LINE
8
0
10
92.826104
20
172.838012
11
93.929910
21
172.963684
0
LINE
8
0
10
93.929900
20
172.964000
11
95.107474
21
172.849256
0
LINE
8
0
10
95.107474
20
172.849256
11
96.126590
21
172.505028
0
LINE
8
0
10
95.815100
20
165.877000
11
95.815100
21
165.063000
0
LINE
8
0
10
95.733100
20
171.707000
11
94.826011
21
172.026641
0
LINE
8
0
10
94.826011
20
172.026641
11
93.918920
21
172.133188
0
LINE
8
0
10
96.126500
20
172.505000
11
95.733062
21
171.707261
0
LINE
8
0
10
112.617000
20
164.861000
11
111.688000
21
164.861000
0
LINE
8
0
10
111.688000
20
164.861000
11
111.688000
21
168.620000
0
LINE
8
0
10
111.688000
20
168.620000
11
107.480000
21
168.620000
0
LINE
8
0
10
107.480000
20
168.620000
11
107.480000
21
164.861000
0
LINE
8
0
10
107.480000
20
164.861000
11
106.551000
21
164.861000
0
LINE
8
0
10
106.551000
20
164.861000
11
106.551000
21
172.849000
0
LINE
8
0
10
106.551000
20
172.849000
11
107.480000
21
172.849000
0
LINE
8
0
10
107.480000
20
172.849000
11
107.480000
21
169.450000
0
LINE
8
0
10
107.480000
20
169.450000
11
111.688000
21
169.450000
0
LINE
8
0
10
111.688000
20
169.450000
11
111.688000
21
172.849000
0
LINE
8
0
10
111.688000
20
172.849000
11
112.617000
21
172.849000
0
LINE
8
0
10
112.617000
20
172.849000
11
112.617000
21
164.861000
0
LINE
8
0
10
126.594000
20
170.210000
11
126.337167
21
171.106090
0
LINE
8
0
10
126.337000
20
171.106000
11
126.189469
21
171.756213
0
LINE
8
0
10
126.189000
20
171.756000
11
125.806487
21
170.176920
0
LINE
8
0
10
129.124000
20
164.861000
11
128.206000
21
164.861000
0
LINE
8
0
10
128.206000
20
164.861000
11
126.594010
21
170.210220
0
LINE
8
0
10
123.446000
20
167.915000
11
123.828502
21
166.035400
0
LINE
8
0
10
123.829000
20
166.035000
11
124.266155
21
167.991100
0
LINE
8
0
10
125.807000
20
170.177000
11
124.244190
21
164.860560
0
LINE
8
0
10
124.244190
20
164.860560
11
123.326000
21
164.861000
0
LINE
8
0
10
123.326000
20
164.861000
11
121.200000
21
172.849000
0
LINE
8
0
10
121.200000
20
172.849000
11
122.184000
21
172.849000
0
LINE
8
0
10
122.184000
20
172.849000
11
123.446270
21
167.915040
0
LINE
8
0
10
128.184000
20
167.948000
11
128.626610
21
166.035610
0
LINE
8
0
10
128.626000
20
166.035000
11
129.019440
21
167.925530
0
LINE
8
0
10
124.266000
20
167.991000
11
125.697670
21
172.848460
0
LINE
8
0
10
125.697670
20
172.848460
11
126.681000
21
172.849000
0
LINE
8
0
10
126.681000
20
172.849000
11
128.183700
21
167.947830
0
LINE
8
0
10
129.020000
20
167.926000
11
130.276800
21
172.849030
0
LINE
8
0
10
130.276800
20
172.849030
11
131.260000
21
172.849000
0
LINE
8
0
10
131.260000
20
172.849000
11
129.123430
21
164.860690
0
LINE
8
0
10
145.630000
20
164.861000
11
140.139000
21
164.861000
0
LINE
8
0
10
140.139000
20
164.861000
11
140.139000
21
165.587000
0
LINE
8
0
10
140.139000
20
165.587000
11
144.379360
21
172.012620
0
LINE
8
0
10
144.379360
20
172.012620
11
140.270000
21
172.013000
0
LINE
8
0
10
140.270000
20
172.013000
11
140.270000
21
172.849000
0
LINE
8
0
10
140.270000
20
172.849000
11
145.510000
21
172.849000
0
LINE
8
0
10
145.510000
20
172.849000
11
145.510000
21
172.122000
0
LINE
8
0
10
145.510000
20
172.122000
11
141.269640
21
165.701850
0
LINE
8
0
10
141.269640
20
165.701850
11
145.630000
21
165.702000
0
LINE
8
0
10
145.630000
20
165.702000
11
145.630000
21
164.861000
0
LINE
8
0
10
162.115000
20
164.861000
11
161.120485
21
167.401740
0
LINE
8
0
10
161.120485
20
167.401740
11
157.918000
21
167.401000
0
LINE
8
0
10
157.918000
20
167.401000
11
156.934407
21
164.860260
0
LINE
8
0
10
156.934407
20
164.860260
11
155.995000
21
164.861000
0
LINE
8
0
10
155.995000
20
164.861000
11
159.153410
21
172.882100
0
LINE
8
0
10
159.153410
20
172.882100
11
159.935000
21
172.882000
0
LINE
8
0
10
159.935000
20
172.882000
11
163.077020
21
164.860900
0
LINE
8
0
10
163.077020
20
164.860900
11
162.115000
21
164.861000
0
LINE
8
0
10
159.902000
20
170.713000
11
159.530430
21
171.865890
0
LINE
8
0
10
159.530000
20
171.865000
11
159.185743
21
170.712110
0
LINE
8
0
10
160.831000
20
168.237000
11
159.902049
21
170.712180
0
LINE
8
0
10
157.984000
20
174.319000
11
158.126073
21
174.728797
0
LINE
8
0
10
158.126000
20
174.729000
11
158.475723
21
174.854672
0
LINE
8
0
10
158.476000
20
174.854000
11
158.831189
21
174.728328
0
LINE
8
0
10
158.831000
20
174.729000
11
158.983998
21
174.319203
0
LINE
8
0
10
158.984000
20
174.319000
11
158.831002
21
173.909203
0
LINE
8
0
10
158.831000
20
173.909000
11
158.475811
21
173.777865
0
LINE
8
0
10
158.476000
20
173.778000
11
158.126277
21
173.909135
0
LINE
8
0
10
158.126000
20
173.909000
11
157.983927
21
174.318797
0
LINE
8
0
10
159.186000
20
170.713000
11
158.246127
21
168.237820
0
LINE
8
0
10
158.246127
20
168.237820
11
160.831000
21
168.237000
0
LINE
8
0
10
160.066000
20
174.319000
11
160.208076
21
174.728797
0
LINE
8
0
10
160.208000
20
174.729000
11
160.557723
21
174.854672
0
LINE
8
0
10
160.558000
20
174.854000
11
160.907721
21
174.728328
0
LINE
8
0
10
160.907000
20
174.729000
11
161.060008
21
174.319203
0
LINE
8
0
10
161.060000
20
174.319000
11
160.906992
21
173.909203
0
LINE
8
0
10
160.907000
20
173.909000
11
160.557279
21
173.777865
0
LINE
8
0
10
160.558000
20
173.778000
11
160.208277
21
173.909135
0
LINE
8
0
10
160.208000
20
173.909000
11
160.065924
21
174.318797
0
LINE
8
0
10
175.327000
20
164.861000
11
174.398000
21
164.861000
0
LINE
8
0
10
174.398000
20
164.861000
11
174.398000
21
172.849000
0
LINE
8
0
10
174.398000
20
172.849000
11
178.851000
21
172.849000
0
LINE
8
0
10
178.851000
20
172.849000
11
178.851000
21
172.024000
0
LINE
8
0
10
178.851000
20
172.024000
11
175.327000
21
172.024000
0
LINE
8
0
10
175.327000
20
172.024000
11
175.327000
21
169.101000
0
LINE
8
0
10
175.327000
20
169.101000
11
178.638000
21
169.101000
0
LINE
8
0
10
178.638000
20
169.101000
11
178.638000
21
168.276000
0
LINE
8
0
10
178.638000
20
168.276000
11
175.327000
21
168.276000
0
LINE
8
0
10
175.327000
20
168.276000
11
175.327000
21
164.861000
0
LINE
8
0
10
9.161420
20
151.689000
11
9.664144
21
149.956920
0
LINE
8
0
10
9.664150
20
149.957000
11
10.177802
21
151.721860
0
LINE
8
0
10
12.002900
20
156.858000
11
13.002900
21
156.858000
0
LINE
8
0
10
13.002900
20
156.858000
11
10.123200
21
148.870000
0
LINE
8
0
10
10.123200
20
148.870000
11
9.205140
21
148.870000
0
LINE
8
0
10
9.205140
20
148.870000
11
6.341800
21
156.858000
0
LINE
8
0
10
6.341800
20
156.858000
11
7.325390
21
156.858000
0
LINE
8
0
10
7.325390
20
156.858000
11
9.161420
21
151.689100
0
LINE
8
0
10
10.177800
20
151.722000
11
12.002900
21
156.858000
0
LINE
8
0
10
25.862100
20
148.870000
11
25.862100
21
156.858000
0
LINE
8
0
10
25.862100
20
156.858000
11
26.791100
21
156.858000
0
LINE
8
0
10
26.791100
20
156.858000
11
26.791100
21
148.870000
0
LINE
8
0
10
26.791100
20
148.870000
11
25.862100
21
148.870000
0
LINE
8
0
10
45.415200
20
148.870000
11
40.961700
21
148.870000
0
LINE
8
0
10
40.961700
20
148.870000
11
40.961700
21
156.858000
0
LINE
8
0
10
40.961700
20
156.858000
11
45.415200
21
156.858000
0
LINE
8
0
10
45.415200
20
156.858000
11
45.415200
21
156.033000
0
LINE
8
0
10
45.415200
20
156.033000
11
41.890700
21
156.033000
0
LINE
8
0
10
41.890700
20
156.033000
11
41.890700
21
153.460000
0
LINE
8
0
10
41.890700
20
153.460000
11
45.202100
21
153.460000
0
LINE
8
0
10
45.202100
20
153.460000
11
45.202100
21
152.640000
0
LINE
8
0
10
45.202100
20
152.640000
11
41.890700
21
152.640000
0
LINE
8
0
10
41.890700
20
152.640000
11
41.890700
21
149.701000
0
LINE
8
0
10
41.890700
20
149.701000
11
45.415200
21
149.701000
0
LINE
8
0
10
45.415200
20
149.701000
11
45.415200
21
148.870000
0
LINE
8
0
10
59.457500
20
156.858000
11
60.734803
21
156.717304
0
LINE
8
0
10
60.734803
20
156.717304
11
61.626870
21
156.295213
0
LINE
8
0
10
61.626800
20
156.296000
11
62.155479
21
155.591149
0
LINE
8
0
10
62.155479
20
155.591149
11
62.331707
21
154.602170
0
LINE
8
0
10
62.331700
20
154.602000
11
62.231291
21
153.873930
0
LINE
8
0
10
62.231291
20
153.873930
11
61.930066
21
153.274261
0
LINE
8
0
10
61.930066
20
153.274261
11
61.428026
21
152.802994
0
LINE
8
0
10
61.428026
20
152.802994
11
60.725170
21
152.460130
0
LINE
8
0
10
58.195200
20
152.192000
11
58.195200
21
148.870000
0
LINE
8
0
10
58.195200
20
148.870000
11
57.266200
21
148.870000
0
LINE
8
0
10
57.266200
20
148.870000
11
57.266200
21
156.858000
0
LINE
8
0
10
57.266200
20
156.858000
11
59.457500
21
156.858000
0
LINE
8
0
10
60.725200
20
152.460000
11
62.894560
21
148.870170
0
LINE
8
0
10
62.894560
20
148.870170
11
61.796200
21
148.870000
0
LINE
8
0
10
61.796200
20
148.870000
11
59.861810
21
152.192090
0
LINE
8
0
10
59.861810
20
152.192090
11
58.195200
21
152.192000
0
LINE
8
0
10
59.468400
20
152.990000
11
60.320844
21
153.086985
0
LINE
8
0
10
60.320844
20
153.086985
11
60.911000
21
153.377940
0
LINE
8
0
10
60.911000
20
153.378000
11
61.255255
21
153.868390
0
LINE
8
0
10
61.255255
20
153.868390
11
61.370007
21
154.552750
0
LINE
8
0
10
61.370000
20
154.553000
11
61.252515
21
155.234630
0
LINE
8
0
10
61.252515
20
155.234630
11
60.900061
21
155.694970
0
LINE
8
0
10
60.900100
20
155.695000
11
60.293555
21
155.957270
0
LINE
8
0
10
60.293555
20
155.957270
11
59.402860
21
156.044694
0
LINE
8
0
10
58.195200
20
152.990000
11
59.468400
21
152.990000
0
LINE
8
0
10
59.402800
20
156.044000
11
58.195200
21
156.044000
0
LINE
8
0
10
58.195200
20
156.044000
11
58.195200
21
152.990000
0
LINE
8
0
10
76.740100
20
148.870000
11
75.811200
21
148.870000
0
LINE
8
0
10
75.811200
20
148.870000
11
75.811200
21
156.033000
0
LINE
8
0
10
75.811200
20
156.033000
11
73.281200
21
156.033000
0
LINE
8
0
10
73.281200
20
156.033000
11
73.281200
21
156.858000
0
LINE
8
0
10
73.281200
20
156.858000
11
79.270100
21
156.858000
0
LINE
8
0
10
79.270100
20
156.858000
11
79.270100
21
156.033000
0
LINE
8
0
10
79.270100
20
156.033000
11
76.740100
21
156.033000
0
LINE
8
0
10
76.740100
20
156.033000
11
76.740100
21
148.870000
0
LINE
8
0
10
95.369700
20
148.870000
11
90.916300
21
148.870000
0
LINE
8
0
10
90.916300
20
148.870000
11
90.916300
21
156.858000
0
LINE
8
0
10
90.916300
20
156.858000
11
95.369700
21
156.858000
0
LINE
8
0
10
95.369700
20
156.858000
11
95.369700
21
156.033000
0
LINE
8
0
10
95.369700
20
156.033000
11
91.845200
21
156.033000
0
LINE
8
0
10
91.845200
20
156.033000
11
91.845200
21
153.460000
0
LINE
8
0
10
91.845200
20
153.460000
11
95.156600
21
153.460000
0
LINE
8
0
10
95.156600
20
153.460000
11
95.156600
21
152.640000
0
LINE
8
0
10
95.156600
20
152.640000
11
91.845200
21
152.640000
0
LINE
8
0
10
91.845200
20
152.640000
11
91.845200
21
149.701000
0
LINE
8
0
10
91.845200
20
149.701000
11
95.369700
21
149.701000
0
LINE
8
0
10
95.369700
20
149.701000
11
95.369700
21
148.870000
0
LINE
8
0
10
107.775000
20
148.870000
11
107.775000
21
156.858000
0
LINE
8
0
10
107.775000
20
156.858000
11
108.704000
21
156.858000
0
LINE
8
0
10
108.704000
20
156.858000
11
108.704000
21
149.711000
0
LINE
8
0
10
108.704000
20
149.711000
11
112.229000
21
149.711000
0
LINE
8
0
10
112.229000
20
149.711000
11
112.229000
21
148.870000
0
LINE
8
0
10
112.229000
20
148.870000
11
107.775000
21
148.870000
0
LINE
8
0
10
146.559000
20
152.875000
11
146.315836
21
151.162045
0
LINE
8
0
10
146.315836
20
151.162045
11
146.011881
21
150.459243
0
LINE
8
0
10
146.011881
20
150.459243
11
145.586343
21
149.858890
0
LINE
8
0
10
145.587000
20
149.859000
11
145.055930
21
149.378513
0
LINE
8
0
10
145.055930
20
149.378513
11
144.429916
21
149.035306
0
LINE
8
0
10
144.429916
20
149.035306
11
143.708959
21
148.829382
0
LINE
8
0
10
143.708959
20
148.829382
11
142.893060
21
148.760740
0
LINE
8
0
10
142.893000
20
148.761000
11
141.328820
21
149.030100
0
LINE
8
0
10
141.328820
20
149.030100
11
140.697346
21
149.366475
0
LINE
8
0
10
140.697346
20
149.366475
11
140.166280
21
149.837400
0
LINE
8
0
10
140.166000
20
149.837000
11
139.747631
21
150.433255
0
LINE
8
0
10
139.747631
20
150.433255
11
139.448798
21
151.140155
0
LINE
8
0
10
139.448798
20
151.140155
11
139.209734
21
152.885890
0
LINE
8
0
10
139.210000
20
152.886000
11
139.450433
21
154.616708
0
LINE
8
0
10
139.450433
20
154.616708
11
139.750975
21
155.317119
0
LINE
8
0
10
139.750975
20
155.317119
11
140.171733
21
155.907570
0
LINE
8
0
10
140.171000
20
155.908000
11
140.702407
21
156.378926
0
LINE
8
0
10
140.702407
20
156.378926
11
141.334908
21
156.715301
0
LINE
8
0
10
141.334908
20
156.715301
11
142.903190
21
156.984400
0
LINE
8
0
10
142.904000
20
156.984000
11
143.717504
21
156.915701
0
LINE
8
0
10
143.717504
20
156.915701
11
144.436751
21
156.710803
0
LINE
8
0
10
144.436751
20
156.710803
11
145.061740
21
156.369306
0
LINE
8
0
10
145.061740
20
156.369306
11
145.592470
21
155.891210
0
LINE
8
0
10
145.592000
20
155.891000
11
146.015147
21
155.292695
0
LINE
8
0
10
146.015147
20
155.292695
11
146.317395
21
154.590575
0
LINE
8
0
10
146.317395
20
154.590575
11
146.559194
21
152.874890
0
LINE
8
0
10
125.372000
20
148.870000
11
124.443000
21
148.870000
0
LINE
8
0
10
124.443000
20
148.870000
11
124.443000
21
156.858000
0
LINE
8
0
10
124.443000
20
156.858000
11
128.897000
21
156.858000
0
LINE
8
0
10
128.897000
20
156.858000
11
128.897000
21
156.033000
0
LINE
8
0
10
128.897000
20
156.033000
11
125.372000
21
156.033000
0
LINE
8
0
10
125.372000
20
156.033000
11
125.372000
21
153.110000
0
LINE
8
0
10
125.372000
20
153.110000
11
128.684000
21
153.110000
0
LINE
8
0
10
128.684000
20
153.110000
11
128.684000
21
152.285000
0
LINE
8
0
10
128.684000
20
152.285000
11
125.372000
21
152.285000
0
LINE
8
0
10
125.372000
20
152.285000
11
125.372000
21
148.870000
0
LINE
8
0
10
140.193000
20
152.875000
11
140.365132
21
151.447541
0
LINE
8
0
10
140.365132
20
151.447541
11
140.881522
21
150.410750
0
LINE
8
0
10
140.882000
20
150.411000
11
141.731708
21
149.784009
0
LINE
8
0
10
141.731708
20
149.784009
11
142.892890
21
149.575013
0
LINE
8
0
10
142.893000
20
149.575000
11
144.058283
21
149.783996
0
LINE
8
0
10
144.058283
20
149.783996
11
144.898430
21
150.410987
0
LINE
8
0
10
144.898000
20
150.411000
11
145.406188
21
151.445055
0
LINE
8
0
10
145.406188
20
151.445055
11
145.575586
21
152.875250
0
LINE
8
0
10
145.576000
20
152.875000
11
145.406602
21
154.291533
0
LINE
8
0
10
145.406602
20
154.291533
11
144.898414
21
155.317390
0
LINE
8
0
10
144.898000
20
155.317000
11
144.063317
21
155.943988
0
LINE
8
0
10
144.063317
20
155.943988
11
142.903500
21
156.152984
0
LINE
8
0
10
142.904000
20
156.153000
11
141.734620
21
155.942637
0
LINE
8
0
10
141.734620
20
155.942637
11
140.882180
21
155.311549
0
LINE
8
0
10
140.882000
20
155.312000
11
140.365610
21
154.284776
0
LINE
8
0
10
140.365610
20
154.284776
11
140.193478
21
152.875070
0
LINE
8
0
10
159.074000
20
148.870000
11
159.074000
21
156.858000
0
LINE
8
0
10
159.074000
20
156.858000
11
160.003000
21
156.858000
0
LINE
8
0
10
160.003000
20
156.858000
11
160.003000
21
148.870000
0
LINE
8
0
10
160.003000
20
148.870000
11
159.074000
21
148.870000
0
LINE
8
0
10
175.327000
20
148.870000
11
174.398000
21
148.870000
0
LINE
8
0
10
174.398000
20
148.870000
11
174.398000
21
156.858000
0
LINE
8
0
10
174.398000
20
156.858000
11
178.851000
21
156.858000
0
LINE
8
0
10
178.851000
20
156.858000
11
178.851000
21
156.033000
0
LINE
8
0
10
178.851000
20
156.033000
11
175.327000
21
156.033000
0
LINE
8
0
10
175.327000
20
156.033000
11
175.327000
21
153.110000
0
LINE
8
0
10
175.327000
20
153.110000
11
178.638000
21
153.110000
0
LINE
8
0
10
178.638000
20
153.110000
11
178.638000
21
152.285000
0
LINE
8
0
10
178.638000
20
152.285000
11
175.327000
21
152.285000
0
LINE
8
0
10
175.327000
20
152.285000
11
175.327000
21
148.870000
0
LINE
8
0
10
12.418200
20
132.879000
11
6.926490
21
132.879000
0
LINE
8
0
10
6.926490
20
132.879000
11
6.926490
21
133.606000
0
LINE
8
0
10
6.926490
20
133.606000
11
11.166850
21
140.031620
0
LINE
8
0
10
11.166850
20
140.031620
11
7.057640
21
140.032000
0
LINE
8
0
10
7.057640
20
140.032000
11
7.057640
21
140.868000
0
LINE
8
0
10
7.057640
20
140.868000
11
12.298000
21
140.868000
0
LINE
8
0
10
12.298000
20
140.868000
11
12.298000
21
140.141000
0
LINE
8
0
10
12.298000
20
140.141000
11
8.057620
21
133.721000
0
LINE
8
0
10
8.057620
20
133.721000
11
12.418200
21
133.721000
0
LINE
8
0
10
12.418200
20
133.721000
11
12.418200
21
132.879000
0
LINE
8
0
10
26.684500
20
138.229000
11
26.427676
21
139.125090
0
LINE
8
0
10
26.427700
20
139.125000
11
26.280163
21
139.775210
0
LINE
8
0
10
26.280100
20
139.775000
11
25.897590
21
138.195920
0
LINE
8
0
10
29.214500
20
132.879000
11
28.296500
21
132.879000
0
LINE
8
0
10
28.296500
20
132.879000
11
26.684510
21
138.228220
0
LINE
8
0
10
23.537000
20
135.934000
11
23.919507
21
134.054400
0
LINE
8
0
10
23.919500
20
134.054000
11
24.356650
21
136.010100
0
LINE
8
0
10
25.897600
20
138.196000
11
24.334790
21
132.879560
0
LINE
8
0
10
24.334790
20
132.879560
11
23.416800
21
132.879000
0
LINE
8
0
10
23.416800
20
132.879000
11
21.291150
21
140.867310
0
LINE
8
0
10
21.291150
20
140.867310
11
22.274700
21
140.868000
0
LINE
8
0
10
22.274700
20
140.868000
11
23.536970
21
135.934040
0
LINE
8
0
10
28.274600
20
135.967000
11
28.717213
21
134.054610
0
LINE
8
0
10
28.717200
20
134.054000
11
29.110638
21
135.944530
0
LINE
8
0
10
24.356700
20
136.010000
11
25.788370
21
140.867460
0
LINE
8
0
10
25.788370
20
140.867460
11
26.771900
21
140.868000
0
LINE
8
0
10
26.771900
20
140.868000
11
28.274600
21
135.966830
0
LINE
8
0
10
29.110700
20
135.945000
11
30.367510
21
140.868030
0
LINE
8
0
10
30.367510
20
140.868030
11
31.351100
21
140.868000
0
LINE
8
0
10
31.351100
20
140.868000
11
29.214530
21
132.879690
0
LINE
8
0
10
45.554500
20
132.879000
11
44.559983
21
135.419740
0
LINE
8
0
10
44.559983
20
135.419740
11
41.357900
21
135.420000
0
LINE
8
0
10
41.357900
20
135.420000
11
40.374310
21
132.879260
0
LINE
8
0
10
40.374310
20
132.879260
11
39.434400
21
132.879000
0
LINE
8
0
10
39.434400
20
132.879000
11
42.592810
21
140.900100
0
LINE
8
0
10
42.592810
20
140.900100
11
43.374300
21
140.901000
0
LINE
8
0
10
43.374300
20
140.901000
11
46.516320
21
132.879900
0
LINE
8
0
10
46.516320
20
132.879900
11
45.554500
21
132.879000
0
LINE
8
0
10
43.341500
20
138.731000
11
42.969922
21
139.883900
0
LINE
8
0
10
42.969900
20
139.884000
11
42.625643
21
138.731100
0
LINE
8
0
10
44.270400
20
136.256000
11
43.341457
21
138.731170
0
LINE
8
0
10
41.423500
20
142.338000
11
41.565570
21
142.747797
0
LINE
8
0
10
41.565500
20
142.747000
11
41.915223
21
142.872672
0
LINE
8
0
10
41.915300
20
142.873000
11
42.270484
21
142.747328
0
LINE
8
0
10
42.270400
20
142.747000
11
42.423406
21
142.337203
0
LINE
8
0
10
42.423500
20
142.338000
11
42.270494
21
141.928201
0
LINE
8
0
10
42.270400
20
141.928000
11
41.915216
21
141.796867
0
LINE
8
0
10
41.915300
20
141.797000
11
41.565577
21
141.928133
0
LINE
8
0
10
41.565500
20
141.928000
11
41.423430
21
142.337799
0
LINE
8
0
10
42.625600
20
138.731000
11
41.685724
21
136.255830
0
LINE
8
0
10
41.685724
20
136.255830
11
44.270400
21
136.256000
0
LINE
8
0
10
43.505400
20
142.338000
11
43.647473
21
142.747797
0
LINE
8
0
10
43.647500
20
142.747000
11
43.997223
21
142.872672
0
LINE
8
0
10
43.997200
20
142.873000
11
44.346921
21
142.747328
0
LINE
8
0
10
44.346900
20
142.747000
11
44.499900
21
142.337203
0
LINE
8
0
10
44.499900
20
142.338000
11
44.346900
21
141.928201
0
LINE
8
0
10
44.346900
20
141.928000
11
43.997179
21
141.796867
0
LINE
8
0
10
43.997200
20
141.797000
11
43.647477
21
141.928133
0
LINE
8
0
10
43.647500
20
141.928000
11
43.505427
21
142.337799
0
LINE
8
0
10
57.277200
20
139.584000
11
57.364632
21
137.420270
0
LINE
8
0
10
62.747000
20
132.879000
11
61.686900
21
132.879000
0
LINE
8
0
10
61.686900
20
132.879000
11
57.320850
21
139.583280
0
LINE
8
0
10
57.320850
20
139.583280
11
57.277200
21
139.584000
0
LINE
8
0
10
61.954700
20
134.191000
11
61.905519
21
135.136262
0
LINE
8
0
10
61.905500
20
135.136000
11
61.878177
21
136.283430
0
LINE
8
0
10
57.364600
20
137.420000
11
57.364600
21
132.879000
0
LINE
8
0
10
57.364600
20
132.879000
11
56.506700
21
132.879000
0
LINE
8
0
10
56.506700
20
132.879000
11
56.506700
21
140.868000
0
LINE
8
0
10
56.506700
20
140.868000
11
57.555900
21
140.868000
0
LINE
8
0
10
57.555900
20
140.868000
11
61.911020
21
134.191040
0
LINE
8
0
10
61.911020
20
134.191040
11
61.954700
21
134.191000
0
LINE
8
0
10
61.878200
20
136.283000
11
61.878200
21
140.868000
0
LINE
8
0
10
61.878200
20
140.868000
11
62.747000
21
140.868000
0
LINE
8
0
10
62.747000
20
140.868000
11
62.747000
21
132.879000
0
LINE
8
0
10
79.024200
20
132.879000
11
73.532500
21
132.879000
0
LINE
8
0
10
73.532500
20
132.879000
11
73.532500
21
133.606000
0
LINE
8
0
10
73.532500
20
133.606000
11
77.772860
21
140.031620
0
LINE
8
0
10
77.772860
20
140.031620
11
73.663700
21
140.032000
0
LINE
8
0
10
73.663700
20
140.032000
11
73.663700
21
140.868000
0
LINE
8
0
10
73.663700
20
140.868000
11
78.904000
21
140.868000
0
LINE
8
0
10
78.904000
20
140.868000
11
78.904000
21
140.141000
0
LINE
8
0
10
78.904000
20
140.141000
11
74.663640
21
133.720850
0
LINE
8
0
10
74.663640
20
133.720850
11
79.024200
21
133.721000
0
LINE
8
0
10
79.024200
20
133.721000
11
79.024200
21
132.879000
0
LINE
8
0
10
96.183900
20
133.180000
11
94.894300
21
132.874015
0
LINE
8
0
10
94.894300
20
132.874000
11
93.375200
21
132.770186
0
LINE
8
0
10
93.375200
20
132.770000
11
91.761839
21
133.039100
0
LINE
8
0
10
91.761839
20
133.039100
11
91.105770
21
133.375475
0
LINE
8
0
10
91.105770
20
133.375475
11
90.550110
21
133.846400
0
LINE
8
0
10
90.550100
20
133.847000
11
90.107826
21
134.441888
0
LINE
8
0
10
90.107826
20
134.441888
11
89.791916
21
135.144689
0
LINE
8
0
10
89.791916
20
135.144689
11
89.539190
21
136.874030
0
LINE
8
0
10
89.539200
20
136.874000
11
89.663514
21
138.041922
0
LINE
8
0
10
89.663514
20
138.041922
11
90.036457
21
139.054120
0
LINE
8
0
10
90.036500
20
139.054000
11
90.648515
21
139.881790
0
LINE
8
0
10
90.648515
20
139.881790
11
91.479100
21
140.485560
0
LINE
8
0
10
91.479100
20
140.485000
11
92.499574
21
140.857918
0
LINE
8
0
10
92.499574
20
140.857918
11
93.681250
21
140.982223
0
LINE
8
0
10
93.681200
20
140.982000
11
94.916150
21
140.864525
0
LINE
8
0
10
94.916150
20
140.864525
11
96.063670
21
140.512098
0
LINE
8
0
10
93.468100
20
137.065000
11
96.183900
21
137.065000
0
LINE
8
0
10
96.183900
20
137.065000
11
96.183900
21
133.180000
0
LINE
8
0
10
95.703100
20
139.693000
11
94.641638
21
140.037229
0
LINE
8
0
10
94.641638
20
140.037229
11
93.621160
21
140.151972
0
LINE
8
0
10
93.621100
20
140.152000
11
92.321943
21
139.934808
0
LINE
8
0
10
92.321943
20
139.934808
11
91.342450
21
139.283231
0
LINE
8
0
10
91.342500
20
139.283000
11
90.727756
21
138.246214
0
LINE
8
0
10
90.727756
20
138.246214
11
90.522840
21
136.873390
0
LINE
8
0
10
90.522800
20
136.874000
11
90.719520
21
135.452006
0
LINE
8
0
10
90.719520
20
135.452006
11
91.309675
21
134.420680
0
LINE
8
0
10
91.309700
20
134.420000
11
92.286455
21
133.793009
0
LINE
8
0
10
92.286455
20
133.793009
11
93.632060
21
133.584013
0
LINE
8
0
10
93.632100
20
133.584000
11
95.255020
21
133.775238
0
LINE
8
0
10
96.063700
20
140.513000
11
95.703055
21
139.693407
0
LINE
8
0
10
113.256000
20
136.884000
11
113.101629
21
135.478396
0
LINE
8
0
10
113.101629
20
135.478396
11
112.638521
21
134.332330
0
LINE
8
0
10
112.639000
20
134.333000
11
111.894480
21
133.480623
0
LINE
8
0
10
111.894480
20
133.480623
11
110.895870
21
132.956080
0
LINE
8
0
10
95.255000
20
133.776000
11
95.255000
21
136.234000
0
LINE
8
0
10
95.255000
20
136.234000
11
93.468100
21
136.234000
0
LINE
8
0
10
93.468100
20
136.234000
11
93.468100
21
137.065000
0
LINE
8
0
10
109.590000
20
132.770000
11
108.025815
21
133.039100
0
LINE
8
0
10
108.025815
20
133.039100
11
107.394338
21
133.375475
0
LINE
8
0
10
107.394338
20
133.375475
11
106.863270
21
133.846400
0
LINE
8
0
10
106.863000
20
133.847000
11
106.444635
21
134.443255
0
LINE
8
0
10
106.444635
20
134.443255
11
106.145802
21
135.150155
0
LINE
8
0
10
106.145802
20
135.150155
11
105.906734
21
136.895890
0
LINE
8
0
10
105.907000
20
136.895000
11
106.147433
21
138.625708
0
LINE
8
0
10
106.147433
20
138.625708
11
106.447975
21
139.326119
0
LINE
8
0
10
106.447975
20
139.326119
11
106.868733
21
139.916570
0
LINE
8
0
10
106.868000
20
139.917000
11
107.399413
21
140.387925
0
LINE
8
0
10
107.399413
20
140.387925
11
108.031916
21
140.724300
0
LINE
8
0
10
108.031916
20
140.724300
11
109.600190
21
140.993400
0
LINE
8
0
10
109.601000
20
140.993000
11
110.414510
21
140.924701
0
LINE
8
0
10
110.414510
20
140.924701
11
111.133760
21
140.719803
0
LINE
8
0
10
111.133760
20
140.719803
11
111.758750
21
140.378306
0
LINE
8
0
10
111.758750
20
140.378306
11
112.289480
21
139.900210
0
LINE
8
0
10
112.289000
20
139.901000
11
112.712146
21
139.302695
0
LINE
8
0
10
112.712146
20
139.302695
11
113.014393
21
138.600575
0
LINE
8
0
10
113.014393
20
138.600575
11
113.256191
21
136.884890
0
LINE
8
0
10
110.896000
20
132.956000
11
112.797600
21
130.978050
0
LINE
8
0
10
112.797600
20
130.978050
11
111.447000
21
130.978000
0
LINE
8
0
10
111.447000
20
130.978000
11
109.889650
21
132.781110
0
LINE
8
0
10
109.889650
20
132.781110
11
109.589110
21
132.770183
0
LINE
8
0
10
106.890000
20
136.884000
11
107.062129
21
135.456543
0
LINE
8
0
10
107.062129
20
135.456543
11
107.578511
21
134.419760
0
LINE
8
0
10
107.579000
20
134.420000
11
108.428713
21
133.793009
0
LINE
8
0
10
108.428713
20
133.793009
11
109.589900
21
133.584013
0
LINE
8
0
10
109.590000
20
133.584000
11
110.755279
21
133.792996
0
LINE
8
0
10
110.755279
20
133.792996
11
111.595420
21
134.419987
0
LINE
8
0
10
111.595000
20
134.420000
11
112.103190
21
135.454054
0
LINE
8
0
10
112.103190
20
135.454054
11
112.272586
21
136.884240
0
LINE
8
0
10
112.273000
20
136.884000
11
112.103604
21
138.300532
0
LINE
8
0
10
112.103604
20
138.300532
11
111.595414
21
139.326390
0
LINE
8
0
10
111.595000
20
139.327000
11
110.760317
21
139.953990
0
LINE
8
0
10
110.760317
20
139.953990
11
109.600500
21
140.162987
0
LINE
8
0
10
109.601000
20
140.163000
11
108.431624
21
139.952637
0
LINE
8
0
10
108.431624
20
139.952637
11
107.579180
21
139.321547
0
LINE
8
0
10
107.579000
20
139.321000
11
107.062618
21
138.293776
0
LINE
8
0
10
107.062618
20
138.293776
11
106.890489
21
136.884070
0
LINE
8
0
10
129.629000
20
136.950000
11
129.561720
21
136.019075
0
LINE
8
0
10
129.561720
20
136.019075
11
129.359880
21
135.204261
0
LINE
8
0
10
129.359880
20
135.204261
11
129.023480
21
134.505556
0
LINE
8
0
10
129.023480
20
134.505556
11
128.552520
21
133.922960
0
LINE
8
0
10
128.553000
20
133.923000
11
127.958405
21
133.466417
0
LINE
8
0
10
127.958405
20
133.466417
11
127.245644
21
133.140286
0
LINE
8
0
10
127.245644
20
133.140286
11
125.465620
21
132.879380
0
LINE
8
0
10
125.700000
20
140.868000
11
127.355700
21
140.609828
0
LINE
8
0
10
127.355700
20
140.609828
11
128.027816
21
140.287113
0
LINE
8
0
10
128.027816
20
140.287113
11
128.596110
21
139.835310
0
LINE
8
0
10
128.596000
20
139.835000
11
129.047839
21
139.267431
0
LINE
8
0
10
129.047839
20
139.267431
11
129.370580
21
138.597412
0
LINE
8
0
10
129.370580
20
138.597412
11
129.628770
21
136.950030
0
LINE
8
0
10
125.465000
20
132.879000
11
123.252000
21
132.879000
0
LINE
8
0
10
123.252000
20
132.879000
11
123.252000
21
140.868000
0
LINE
8
0
10
123.252000
20
140.868000
11
125.700000
21
140.868000
0
LINE
8
0
10
128.645000
20
136.917000
11
128.448283
21
138.287089
0
LINE
8
0
10
128.448283
20
138.287089
11
127.858130
21
139.271970
0
LINE
8
0
10
127.859000
20
139.272000
11
126.886340
21
139.866207
0
LINE
8
0
10
126.886340
20
139.866207
11
125.531170
21
140.064275
0
LINE
8
0
10
125.312000
20
133.683000
11
126.766895
21
133.886533
0
LINE
8
0
10
126.766895
20
133.886533
11
127.809230
21
134.497130
0
LINE
8
0
10
127.809000
20
134.497000
11
128.436040
21
135.511930
0
LINE
8
0
10
128.436040
20
135.511930
11
128.645051
21
136.917530
0
LINE
8
0
10
125.531000
20
140.065000
11
124.181000
21
140.065000
0
LINE
8
0
10
124.181000
20
140.065000
11
124.181000
21
133.683000
0
LINE
8
0
10
124.181000
20
133.683000
11
125.312000
21
133.683000
0
LINE
8
0
10
142.373000
20
135.699000
11
142.875721
21
133.966920
0
LINE
8
0
10
142.876000
20
133.967000
11
143.389653
21
135.731860
0
LINE
8
0
10
145.215000
20
140.868000
11
146.215000
21
140.868000
0
LINE
8
0
10
146.215000
20
140.868000
11
143.335280
21
132.879690
0
LINE
8
0
10
143.335280
20
132.879690
11
142.417000
21
132.879000
0
LINE
8
0
10
142.417000
20
132.879000
11
139.553660
21
140.867310
0
LINE
8
0
10
139.553660
20
140.867310
11
140.537000
21
140.868000
0
LINE
8
0
10
140.537000
20
140.868000
11
142.373030
21
135.699090
0
LINE
8
0
10
163.211000
20
136.884000
11
162.967837
21
135.171049
0
LINE
8
0
10
162.967837
20
135.171049
11
162.663881
21
134.468247
0
LINE
8
0
10
162.663881
20
134.468247
11
162.238343
21
133.867890
0
LINE
8
0
10
162.238000
20
133.868000
11
161.706931
21
133.387513
0
LINE
8
0
10
161.706931
20
133.387513
11
161.080917
21
133.044306
0
LINE
8
0
10
161.080917
20
133.044306
11
160.359960
21
132.838382
0
LINE
8
0
10
160.359960
20
132.838382
11
159.544060
21
132.769740
0
LINE
8
0
10
159.544000
20
132.770000
11
157.979815
21
133.039100
0
LINE
8
0
10
157.979815
20
133.039100
11
157.348338
21
133.375475
0
LINE
8
0
10
157.348338
20
133.375475
11
156.817270
21
133.846400
0
LINE
8
0
10
156.817000
20
133.847000
11
156.398634
21
134.443255
0
LINE
8
0
10
156.398634
20
134.443255
11
156.099801
21
135.150155
0
LINE
8
0
10
156.099801
20
135.150155
11
155.860734
21
136.895890
0
LINE
8
0
10
155.861000
20
136.895000
11
156.101433
21
138.625708
0
LINE
8
0
10
156.101433
20
138.625708
11
156.401975
21
139.326119
0
LINE
8
0
10
156.401975
20
139.326119
11
156.822733
21
139.916570
0
LINE
8
0
10
156.823000
20
139.917000
11
157.354413
21
140.387925
0
LINE
8
0
10
157.354413
20
140.387925
11
157.986916
21
140.724300
0
LINE
8
0
10
157.986916
20
140.724300
11
159.555190
21
140.993400
0
LINE
8
0
10
159.555000
20
140.993000
11
160.368510
21
140.924701
0
LINE
8
0
10
160.368510
20
140.924701
11
161.087761
21
140.719803
0
LINE
8
0
10
161.087761
20
140.719803
11
161.712754
21
140.378306
0
LINE
8
0
10
161.712754
20
140.378306
11
162.243490
21
139.900210
0
LINE
8
0
10
162.244000
20
139.901000
11
162.667144
21
139.302695
0
LINE
8
0
10
162.667144
20
139.302695
11
162.969391
21
138.600575
0
LINE
8
0
10
162.969391
20
138.600575
11
163.211188
21
136.884890
0
LINE
8
0
10
143.390000
20
135.732000
11
145.215100
21
140.868120
0
LINE
8
0
10
156.845000
20
136.884000
11
157.017129
21
135.456543
0
LINE
8
0
10
157.017129
20
135.456543
11
157.533511
21
134.419760
0
LINE
8
0
10
157.533000
20
134.420000
11
158.382713
21
133.793009
0
LINE
8
0
10
158.382713
20
133.793009
11
159.543900
21
133.584013
0
LINE
8
0
10
159.544000
20
133.584000
11
160.709283
21
133.792996
0
LINE
8
0
10
160.709283
20
133.792996
11
161.549430
21
134.419987
0
LINE
8
0
10
161.550000
20
134.420000
11
162.058183
21
135.454054
0
LINE
8
0
10
162.058183
20
135.454054
11
162.227576
21
136.884240
0
LINE
8
0
10
162.227000
20
136.884000
11
162.057607
21
138.300532
0
LINE
8
0
10
162.057607
20
138.300532
11
161.549424
21
139.326390
0
LINE
8
0
10
161.550000
20
139.327000
11
160.715312
21
139.953990
0
LINE
8
0
10
160.715312
20
139.953990
11
159.555490
21
140.162987
0
LINE
8
0
10
159.555000
20
140.163000
11
158.385625
21
139.952637
0
LINE
8
0
10
158.385625
20
139.952637
11
157.533180
21
139.321547
0
LINE
8
0
10
157.533000
20
139.321000
11
157.016618
21
138.293776
0
LINE
8
0
10
157.016618
20
138.293776
11
156.844489
21
136.884070
0
LINE
8
0
10
176.018000
20
140.868000
11
177.295300
21
140.727303
0
LINE
8
0
10
177.295300
20
140.727303
11
178.187360
21
140.305211
0
LINE
8
0
10
178.187000
20
140.305000
11
178.715679
21
139.600151
0
LINE
8
0
10
178.715679
20
139.600151
11
178.891907
21
138.611170
0
LINE
8
0
10
178.892000
20
138.611000
11
178.791592
21
137.882926
0
LINE
8
0
10
178.791592
20
137.882926
11
178.490367
21
137.283257
0
LINE
8
0
10
178.490367
20
137.283257
11
177.988326
21
136.811993
0
LINE
8
0
10
177.988326
20
136.811993
11
177.285470
21
136.469130
0
LINE
8
0
10
174.756000
20
136.202000
11
174.756000
21
132.879000
0
LINE
8
0
10
174.756000
20
132.879000
11
173.827000
21
132.879000
0
LINE
8
0
10
173.827000
20
132.879000
11
173.827000
21
140.868000
0
LINE
8
0
10
173.827000
20
140.868000
11
176.018000
21
140.868000
0
LINE
8
0
10
177.286000
20
136.469000
11
179.455360
21
132.879170
0
LINE
8
0
10
179.455360
20
132.879170
11
178.357000
21
132.879000
0
LINE
8
0
10
178.357000
20
132.879000
11
176.422610
21
136.201090
0
LINE
8
0
10
176.422610
20
136.201090
11
174.756000
21
136.202000
0
LINE
8
0
10
176.029000
20
136.999000
11
176.881443
21
137.095986
0
LINE
8
0
10
176.881443
20
137.095986
11
177.471590
21
137.386942
0
LINE
8
0
10
177.472000
20
137.387000
11
177.816259
21
137.877390
0
LINE
8
0
10
177.816259
20
137.877390
11
177.931014
21
138.561750
0
LINE
8
0
10
177.931000
20
138.562000
11
177.813514
21
139.243628
0
LINE
8
0
10
177.813514
20
139.243628
11
177.461061
21
139.703970
0
LINE
8
0
10
177.461000
20
139.704000
11
176.854447
21
139.966270
0
LINE
8
0
10
176.854447
20
139.966270
11
175.963750
21
140.053694
0
LINE
8
0
10
174.756000
20
136.999000
11
176.029000
21
136.999000
0
LINE
8
0
10
175.963000
20
140.054000
11
174.756000
21
140.054000
0
LINE
8
0
10
174.756000
20
140.054000
11
174.756000
21
136.999000
0
LINE
8
0
10
13.106700
20
116.889000
11
12.013800
21
116.889000
0
LINE
8
0
10
12.013800
20
116.889000
11
9.101280
21
120.762940
0
LINE
8
0
10
9.101280
20
120.762940
11
8.265229
21
120.019848
0
LINE
8
0
10
8.265229
20
120.019848
11
8.265270
21
116.889000
0
LINE
8
0
10
8.265270
20
116.889000
11
7.336320
21
116.889000
0
LINE
8
0
10
7.336320
20
116.889000
11
7.336320
21
124.877000
0
LINE
8
0
10
7.336320
20
124.877000
11
8.265270
21
124.877000
0
LINE
8
0
10
8.265270
20
124.877000
11
8.265270
21
120.916000
0
LINE
8
0
10
8.265270
20
120.916000
11
11.888160
21
124.877380
0
LINE
8
0
10
11.888160
20
124.877380
11
12.986500
21
124.877000
0
LINE
8
0
10
12.986500
20
124.877000
11
9.773440
21
121.408000
0
LINE
8
0
10
9.773440
20
121.408000
11
13.106700
21
116.889000
0
LINE
8
0
10
28.903000
20
116.889000
11
27.908480
21
119.429740
0
LINE
8
0
10
27.908480
20
119.429740
11
24.706400
21
119.430000
0
LINE
8
0
10
24.706400
20
119.430000
11
23.722811
21
116.889260
0
LINE
8
0
10
23.722811
20
116.889260
11
22.782900
21
116.889000
0
LINE
8
0
10
22.782900
20
116.889000
11
25.941320
21
124.910100
0
LINE
8
0
10
25.941320
20
124.910100
11
26.722800
21
124.910000
0
LINE
8
0
10
26.722800
20
124.910000
11
29.864820
21
116.888900
0
LINE
8
0
10
29.864820
20
116.888900
11
28.903000
21
116.889000
0
LINE
8
0
10
26.690000
20
122.741000
11
26.318423
21
123.893890
0
LINE
8
0
10
26.318400
20
123.894000
11
25.974141
21
122.741110
0
LINE
8
0
10
27.618900
20
120.266000
11
26.689954
21
122.741180
0
LINE
8
0
10
25.974100
20
122.741000
11
25.034225
21
120.265820
0
LINE
8
0
10
25.034225
20
120.265820
11
27.618900
21
120.266000
0
LINE
8
0
10
42.704900
20
124.877000
11
44.075093
21
124.758158
0
LINE
8
0
10
44.075093
20
124.758158
11
45.005410
21
124.401632
0
LINE
8
0
10
45.005400
20
124.402000
11
45.538175
21
123.788671
0
LINE
8
0
10
45.538175
20
123.788671
11
45.715768
21
122.899410
0
LINE
8
0
10
45.715700
20
122.899000
11
45.615975
21
122.250152
0
LINE
8
0
10
45.615975
20
122.250152
11
45.316801
21
121.724240
0
LINE
8
0
10
45.316800
20
121.724000
11
44.831834
21
121.345623
0
LINE
8
0
10
44.831834
20
121.345623
11
44.163810
21
121.128426
0
LINE
8
0
10
40.448100
20
124.877000
11
42.704900
21
124.877000
0
LINE
8
0
10
44.163900
20
121.074000
11
44.959991
21
120.837684
0
LINE
8
0
10
44.959991
20
120.837684
11
45.528629
21
120.440184
0
LINE
8
0
10
45.528629
20
120.440184
11
45.869812
21
119.881497
0
LINE
8
0
10
45.869812
20
119.881497
11
45.983540
21
119.161620
0
LINE
8
0
10
45.983500
20
119.162000
11
45.801808
21
118.208544
0
LINE
8
0
10
45.801808
20
118.208544
11
45.256735
21
117.490030
0
LINE
8
0
10
45.256700
20
117.490000
11
44.390593
21
117.039224
0
LINE
8
0
10
44.390593
20
117.039224
11
43.234880
21
116.888968
0
LINE
8
0
10
44.163900
20
121.129000
11
44.163900
21
121.074000
0
LINE
8
0
10
43.234900
20
116.889000
11
40.448100
21
116.889000
0
LINE
8
0
10
40.448100
20
116.889000
11
40.448100
21
124.877000
0
LINE
8
0
10
42.907100
20
121.457000
11
43.752713
21
121.533495
0
LINE
8
0
10
43.752713
20
121.533495
11
44.322380
21
121.762980
0
LINE
8
0
10
44.322300
20
121.763000
11
44.646066
21
122.179632
0
LINE
8
0
10
44.646066
20
122.179632
11
44.753988
21
122.806620
0
LINE
8
0
10
44.754000
20
122.806000
11
44.633782
21
123.383815
0
LINE
8
0
10
44.633782
20
123.383815
11
44.273128
21
123.773122
0
LINE
8
0
10
44.273100
20
123.773000
11
43.650162
21
123.998389
0
LINE
8
0
10
43.650162
20
123.998389
11
42.743070
21
124.073516
0
LINE
8
0
10
41.377000
20
121.457000
11
42.907100
21
121.457000
0
LINE
8
0
10
42.743100
20
124.074000
11
41.377000
21
124.074000
0
LINE
8
0
10
41.377000
20
124.074000
11
41.377000
21
121.457000
0
LINE
8
0
10
43.043700
20
117.681000
11
43.890676
21
117.773888
0
LINE
8
0
10
43.890676
20
117.773888
11
44.497230
21
118.052546
0
LINE
8
0
10
44.497200
20
118.053000
11
44.866046
21
118.535197
0
LINE
8
0
10
44.866046
20
118.535197
11
44.988994
21
119.227760
0
LINE
8
0
10
44.989000
20
119.227000
11
44.863318
21
119.871741
0
LINE
8
0
10
44.863318
20
119.871741
11
44.486276
21
120.319790
0
LINE
8
0
10
44.486300
20
120.320000
11
43.857897
21
120.582268
0
LINE
8
0
10
43.857897
20
120.582268
11
42.967200
21
120.669694
0
LINE
8
0
10
41.377000
20
120.670000
11
41.377000
21
117.681000
0
LINE
8
0
10
41.377000
20
117.681000
11
43.043700
21
117.681000
0
LINE
8
0
10
63.023000
20
120.959000
11
62.955720
21
120.028081
0
LINE
8
0
10
62.955720
20
120.028081
11
62.753879
21
119.213270
0
LINE
8
0
10
62.753879
20
119.213270
11
62.417476
21
118.514566
0
LINE
8
0
10
62.417476
20
118.514566
11
61.946510
21
117.931970
0
LINE
8
0
10
61.946500
20
117.932000
11
61.351907
21
117.475418
0
LINE
8
0
10
61.351907
20
117.475418
11
60.639146
21
117.149287
0
LINE
8
0
10
60.639146
20
117.149287
11
58.859120
21
116.888380
0
LINE
8
0
10
42.967200
20
120.670000
11
41.377000
21
120.670000
0
LINE
8
0
10
59.094100
20
124.877000
11
60.749810
21
124.618826
0
LINE
8
0
10
60.749810
20
124.618826
11
61.421930
21
124.296108
0
LINE
8
0
10
61.421930
20
124.296108
11
61.990230
21
123.844300
0
LINE
8
0
10
61.990200
20
123.844000
11
62.442036
21
123.276432
0
LINE
8
0
10
62.442036
20
123.276432
11
62.764777
21
122.606416
0
LINE
8
0
10
62.764777
20
122.606416
11
63.022970
21
120.959030
0
LINE
8
0
10
58.859100
20
116.889000
11
56.646000
21
116.889000
0
LINE
8
0
10
56.646000
20
116.889000
11
56.646000
21
124.877000
0
LINE
8
0
10
56.646000
20
124.877000
11
59.094100
21
124.877000
0
LINE
8
0
10
62.039400
20
120.927000
11
61.842683
21
122.297089
0
LINE
8
0
10
61.842683
20
122.297089
11
61.252530
21
123.281970
0
LINE
8
0
10
61.252500
20
123.282000
11
60.279839
21
123.876203
0
LINE
8
0
10
60.279839
20
123.876203
11
58.924670
21
124.074270
0
LINE
8
0
10
58.706100
20
117.692000
11
60.160994
21
117.895530
0
LINE
8
0
10
60.160994
20
117.895530
11
61.203320
21
118.506132
0
LINE
8
0
10
61.203300
20
118.506000
11
61.830337
21
119.520923
0
LINE
8
0
10
61.830337
20
119.520923
11
62.039351
21
120.926530
0
LINE
8
0
10
58.924700
20
124.074000
11
57.575000
21
124.074000
0
LINE
8
0
10
57.575000
20
124.074000
11
57.575000
21
117.692000
0
LINE
8
0
10
57.575000
20
117.692000
11
58.706100
21
117.692000
0
LINE
8
0
10
79.313800
20
116.889000
11
78.384900
21
116.889000
0
LINE
8
0
10
78.384900
20
116.889000
11
78.384900
21
120.648000
0
LINE
8
0
10
78.384900
20
120.648000
11
74.177300
21
120.648000
0
LINE
8
0
10
74.177300
20
120.648000
11
74.177300
21
116.889000
0
LINE
8
0
10
74.177300
20
116.889000
11
73.248400
21
116.889000
0
LINE
8
0
10
73.248400
20
116.889000
11
73.248400
21
124.877000
0
LINE
8
0
10
73.248400
20
124.877000
11
74.177300
21
124.877000
0
LINE
8
0
10
74.177300
20
124.877000
11
74.177300
21
121.479000
0
LINE
8
0
10
74.177300
20
121.479000
11
78.384900
21
121.479000
0
LINE
8
0
10
78.384900
20
121.479000
11
78.384900
21
124.877000
0
LINE
8
0
10
78.384900
20
124.877000
11
79.313800
21
124.877000
0
LINE
8
0
10
79.313800
20
124.877000
11
79.313800
21
116.889000
0
LINE
8
0
10
95.509100
20
116.889000
11
94.514580
21
119.429740
0
LINE
8
0
10
94.514580
20
119.429740
11
91.312400
21
119.430000
0
LINE
8
0
10
91.312400
20
119.430000
11
90.328810
21
116.889260
0
LINE
8
0
10
90.328810
20
116.889260
11
89.389000
21
116.889000
0
LINE
8
0
10
89.389000
20
116.889000
11
92.547410
21
124.910100
0
LINE
8
0
10
92.547410
20
124.910100
11
93.328800
21
124.910000
0
LINE
8
0
10
93.328800
20
124.910000
11
96.470830
21
116.888900
0
LINE
8
0
10
96.470830
20
116.888900
11
95.509100
21
116.889000
0
LINE
8
0
10
93.296000
20
122.741000
11
92.924422
21
123.893890
0
LINE
8
0
10
92.924400
20
123.894000
11
92.580143
21
122.741110
0
LINE
8
0
10
94.224900
20
120.266000
11
93.295954
21
122.741180
0
LINE
8
0
10
92.580200
20
122.741000
11
91.640327
21
120.265820
0
LINE
8
0
10
91.640327
20
120.265820
11
94.224900
21
120.266000
0
LINE
8
0
10
107.775000
20
116.889000
11
107.775000
21
124.877000
0
LINE
8
0
10
107.775000
20
124.877000
11
108.704000
21
124.877000
0
LINE
8
0
10
108.704000
20
124.877000
11
108.704000
21
117.730000
0
LINE
8
0
10
108.704000
20
117.730000
11
112.229000
21
117.730000
0
LINE
8
0
10
112.229000
20
117.730000
11
112.229000
21
116.889000
0
LINE
8
0
10
112.229000
20
116.889000
11
107.775000
21
116.889000
0
LINE
8
0
10
125.962000
20
124.877000
11
127.332191
21
124.758158
0
LINE
8
0
10
127.332191
20
124.758158
11
128.262500
21
124.401632
0
LINE
8
0
10
128.263000
20
124.402000
11
128.795778
21
123.788671
0
LINE
8
0
10
128.795778
20
123.788671
11
128.973371
21
122.899410
0
LINE
8
0
10
128.973000
20
122.899000
11
128.873275
21
122.250152
0
LINE
8
0
10
128.873275
20
122.250152
11
128.574104
21
121.724240
0
LINE
8
0
10
128.574000
20
121.724000
11
128.089031
21
121.345623
0
LINE
8
0
10
128.089031
20
121.345623
11
127.421010
21
121.128426
0
LINE
8
0
10
123.706000
20
124.877000
11
125.962000
21
124.877000
0
LINE
8
0
10
127.421000
20
121.074000
11
128.217095
21
120.837684
0
LINE
8
0
10
128.217095
20
120.837684
11
128.785732
21
120.440184
0
LINE
8
0
10
128.785732
20
120.440184
11
129.126913
21
119.881497
0
LINE
8
0
10
129.126913
20
119.881497
11
129.240640
21
119.161620
0
LINE
8
0
10
129.241000
20
119.162000
11
129.059310
21
118.208544
0
LINE
8
0
10
129.059310
20
118.208544
11
128.514230
21
117.490030
0
LINE
8
0
10
128.514000
20
117.490000
11
127.647901
21
117.039224
0
LINE
8
0
10
127.647901
20
117.039224
11
126.492190
21
116.888968
0
LINE
8
0
10
127.421000
20
121.129000
11
127.421000
21
121.074000
0
LINE
8
0
10
126.492000
20
116.889000
11
123.706000
21
116.889000
0
LINE
8
0
10
123.706000
20
116.889000
11
123.706000
21
124.877000
0
LINE
8
0
10
126.165000
20
121.457000
11
127.010615
21
121.533495
0
LINE
8
0
10
127.010615
20
121.533495
11
127.580270
21
121.762980
0
LINE
8
0
10
127.580000
20
121.763000
11
127.903768
21
122.179632
0
LINE
8
0
10
127.903768
20
122.179632
11
128.011688
21
122.806620
0
LINE
8
0
10
128.012000
20
122.806000
11
127.891787
21
123.383815
0
LINE
8
0
10
127.891787
20
123.383815
11
127.531139
21
123.773122
0
LINE
8
0
10
127.531000
20
123.773000
11
126.908058
21
123.998389
0
LINE
8
0
10
126.908058
20
123.998389
11
126.000970
21
124.073516
0
LINE
8
0
10
124.635000
20
121.457000
11
126.165000
21
121.457000
0
LINE
8
0
10
126.001000
20
124.074000
11
124.635000
21
124.074000
0
LINE
8
0
10
124.635000
20
124.074000
11
124.635000
21
121.457000
0
LINE
8
0
10
126.301000
20
117.681000
11
127.147976
21
117.773888
0
LINE
8
0
10
127.147976
20
117.773888
11
127.754530
21
118.052546
0
LINE
8
0
10
127.755000
20
118.053000
11
128.123848
21
118.535197
0
LINE
8
0
10
128.123848
20
118.535197
11
128.246796
21
119.227760
0
LINE
8
0
10
128.247000
20
119.227000
11
128.121317
21
119.871741
0
LINE
8
0
10
128.121317
20
119.871741
11
127.744271
21
120.319790
0
LINE
8
0
10
127.744000
20
120.320000
11
127.115600
21
120.582268
0
LINE
8
0
10
127.115600
20
120.582268
11
126.224910
21
120.669694
0
LINE
8
0
10
124.635000
20
120.670000
11
124.635000
21
117.681000
0
LINE
8
0
10
124.635000
20
117.681000
11
126.301000
21
117.681000
0
LINE
8
0
10
126.225000
20
120.670000
11
124.635000
21
120.670000
0
LINE
8
0
10
142.423000
20
116.889000
11
142.423000
21
124.877000
0
LINE
8
0
10
142.423000
20
124.877000
11
143.352000
21
124.877000
0
LINE
8
0
10
143.352000
20
124.877000
11
143.352000
21
116.889000
0
LINE
8
0
10
143.352000
20
116.889000
11
142.423000
21
116.889000
0
LINE
8
0
10
159.998000
20
116.889000
11
159.069000
21
116.889000
0
LINE
8
0
10
159.069000
20
116.889000
11
159.069000
21
124.052000
0
LINE
8
0
10
159.069000
20
124.052000
11
156.539000
21
124.052000
0
LINE
8
0
10
156.539000
20
124.052000
11
156.539000
21
124.877000
0
LINE
8
0
10
156.539000
20
124.877000
11
162.528000
21
124.877000
0
LINE
8
0
10
162.528000
20
124.877000
11
162.528000
21
124.052000
0
LINE
8
0
10
162.528000
20
124.052000
11
159.998000
21
124.052000
0
LINE
8
0
10
159.998000
20
124.052000
11
159.998000
21
116.889000
0
LINE
8
0
10
178.933000
20
116.889000
11
173.442000
21
116.889000
0
LINE
8
0
10
173.442000
20
116.889000
11
173.442000
21
117.616000
0
LINE
8
0
10
173.442000
20
117.616000
11
177.682360
21
124.041630
0
LINE
8
0
10
177.682360
20
124.041630
11
173.573000
21
124.041000
0
LINE
8
0
10
173.573000
20
124.041000
11
173.573000
21
124.877000
0
LINE
8
0
10
173.573000
20
124.877000
11
178.813000
21
124.877000
0
LINE
8
0
10
178.813000
20
124.877000
11
178.813000
21
124.150000
0
LINE
8
0
10
178.813000
20
124.150000
11
174.572640
21
117.729840
0
LINE
8
0
10
174.572640
20
117.729840
11
178.933000
21
117.730000
0
LINE
8
0
10
178.933000
20
117.730000
11
178.933000
21
116.889000
0
LINE
8
0
10
12.112200
20
100.898000
11
7.658720
21
100.898000
0
LINE
8
0
10
7.658720
20
100.898000
11
7.658720
21
108.887000
0
LINE
8
0
10
7.658720
20
108.887000
11
12.112200
21
108.887000
0
LINE
8
0
10
12.112200
20
108.887000
11
12.112200
21
108.061000
0
LINE
8
0
10
12.112200
20
108.061000
11
8.587660
21
108.061000
0
LINE
8
0
10
8.587660
20
108.061000
11
8.587660
21
105.488000
0
LINE
8
0
10
8.587660
20
105.488000
11
11.899100
21
105.488000
0
LINE
8
0
10
11.899100
20
105.488000
11
11.899100
21
104.668000
0
LINE
8
0
10
11.899100
20
104.668000
11
8.587660
21
104.668000
0
LINE
8
0
10
8.587660
20
104.668000
11
8.587660
21
101.729000
0
LINE
8
0
10
8.587660
20
101.729000
11
12.112200
21
101.729000
0
LINE
8
0
10
12.112200
20
101.729000
11
12.112200
21
100.898000
0
LINE
8
0
10
45.510800
20
103.024000
11
45.319547
21
102.085566
0
LINE
8
0
10
45.319547
20
102.085566
11
44.745787
21
101.379350
0
LINE
8
0
10
44.745800
20
101.379000
11
43.844173
21
100.936417
0
LINE
8
0
10
43.844173
20
100.936417
11
42.669330
21
100.788890
0
LINE
8
0
10
42.669400
20
100.789000
11
41.412594
21
100.880521
0
LINE
8
0
10
41.412594
20
100.880521
11
40.483650
21
101.155090
0
LINE
8
0
10
25.862100
20
100.898000
11
25.862100
21
108.887000
0
LINE
8
0
10
25.862100
20
108.887000
11
26.791100
21
108.887000
0
LINE
8
0
10
26.791100
20
108.887000
11
26.791100
21
100.898000
0
LINE
8
0
10
26.791100
20
100.898000
11
25.862100
21
100.898000
0
LINE
8
0
10
40.483600
20
102.051000
11
41.554620
21
101.723166
0
LINE
8
0
10
41.554600
20
101.723000
11
42.702120
21
101.602792
0
LINE
8
0
10
42.702100
20
101.603000
11
43.516291
21
101.690422
0
LINE
8
0
10
43.516291
20
101.690422
11
44.100980
21
101.952694
0
LINE
8
0
10
44.101000
20
101.953000
11
44.453454
21
102.376451
0
LINE
8
0
10
44.453454
20
102.376451
11
44.570939
21
102.936511
0
LINE
8
0
10
44.571000
20
102.936000
11
44.401601
21
103.613526
0
LINE
8
0
10
44.401600
20
103.614000
11
43.844232
21
104.105765
0
LINE
8
0
10
43.844200
20
104.106000
11
42.658430
21
104.614140
0
LINE
8
0
10
42.658400
20
104.614000
11
41.702129
21
105.049758
0
LINE
8
0
10
41.702129
20
105.049758
11
41.062800
21
105.559270
0
LINE
8
0
10
41.062800
20
105.559000
11
40.706250
21
106.188725
0
LINE
8
0
10
40.706250
20
106.188725
11
40.587400
21
106.985090
0
LINE
8
0
10
40.587400
20
106.985000
11
40.760894
21
107.814154
0
LINE
8
0
10
40.760894
20
107.814154
11
41.281377
21
108.454810
0
LINE
8
0
10
41.281400
20
108.455000
11
42.087395
21
108.864797
0
LINE
8
0
10
42.087395
20
108.864797
11
43.117430
21
109.001398
0
LINE
8
0
10
43.117400
20
109.001000
11
44.260822
21
108.891721
0
LINE
8
0
10
44.260822
20
108.891721
11
45.308620
21
108.563888
0
LINE
8
0
10
40.483600
20
101.155000
11
40.483600
21
102.051000
0
LINE
8
0
10
45.019000
20
107.755000
11
44.043610
21
108.066442
0
LINE
8
0
10
44.043610
20
108.066442
11
43.095540
21
108.170258
0
LINE
8
0
10
43.095600
20
108.171000
11
42.438507
21
108.091775
0
LINE
8
0
10
42.438507
20
108.091775
11
41.942610
21
107.854090
0
LINE
8
0
10
41.942600
20
107.854000
11
41.631131
21
107.475623
0
LINE
8
0
10
41.631131
20
107.475623
11
41.527308
21
106.974312
0
LINE
8
0
10
41.527300
20
106.974000
11
41.680300
21
106.290998
0
LINE
8
0
10
41.680300
20
106.291000
11
42.193956
21
105.804712
0
LINE
8
0
10
42.194000
20
105.805000
11
43.308730
21
105.318710
0
LINE
8
0
10
43.308700
20
105.319000
11
44.368790
21
104.854561
0
LINE
8
0
10
44.368790
20
104.854561
11
45.035450
21
104.357336
0
LINE
8
0
10
45.035400
20
104.357000
11
45.391949
21
103.766894
0
LINE
8
0
10
45.391949
20
103.766894
11
45.510800
21
103.023800
0
LINE
8
0
10
45.308600
20
108.564000
11
45.018987
21
107.755326
0
LINE
8
0
10
63.301700
20
104.903000
11
63.147332
21
103.497400
0
LINE
8
0
10
63.147332
20
103.497400
11
62.684227
21
102.351330
0
LINE
8
0
10
62.684200
20
102.352000
11
61.939676
21
101.499625
0
LINE
8
0
10
61.939676
20
101.499625
11
60.941060
21
100.975080
0
LINE
8
0
10
59.635100
20
100.789000
11
58.070923
21
101.058098
0
LINE
8
0
10
58.070923
20
101.058098
11
57.439443
21
101.394473
0
LINE
8
0
10
57.439443
20
101.394473
11
56.908370
21
101.865400
0
LINE
8
0
10
56.908300
20
101.865000
11
56.489933
21
102.461258
0
LINE
8
0
10
56.489933
20
102.461258
11
56.191100
21
103.168158
0
LINE
8
0
10
56.191100
20
103.168158
11
55.952034
21
104.913890
0
LINE
8
0
10
55.952100
20
104.914000
11
56.192533
21
106.644711
0
LINE
8
0
10
56.192533
20
106.644711
11
56.493073
21
107.345124
0
LINE
8
0
10
56.493073
20
107.345124
11
56.913830
21
107.935570
0
LINE
8
0
10
56.913800
20
107.936000
11
57.445213
21
108.406927
0
LINE
8
0
10
57.445213
20
108.406927
11
58.077717
21
108.743302
0
LINE
8
0
10
58.077717
20
108.743302
11
59.646000
21
109.012400
0
LINE
8
0
10
59.646000
20
109.012000
11
60.459510
21
108.943700
0
LINE
8
0
10
60.459510
20
108.943700
11
61.178760
21
108.738800
0
LINE
8
0
10
61.178760
20
108.738800
11
61.803750
21
108.397303
0
LINE
8
0
10
61.803750
20
108.397303
11
62.334480
21
107.919210
0
LINE
8
0
10
62.334500
20
107.919000
11
62.757648
21
107.320694
0
LINE
8
0
10
62.757648
20
107.320694
11
63.059896
21
106.618573
0
LINE
8
0
10
63.059896
20
106.618573
11
63.301694
21
104.902880
0
LINE
8
0
10
60.941100
20
100.975000
11
62.842710
21
98.997040
0
LINE
8
0
10
62.842710
20
98.997040
11
61.492900
21
98.996800
0
LINE
8
0
10
61.492900
20
98.996800
11
59.935550
21
100.799900
0
LINE
8
0
10
59.935550
20
100.799900
11
59.635008
21
100.788973
0
LINE
8
0
10
56.935700
20
104.903000
11
57.107828
21
103.475543
0
LINE
8
0
10
57.107828
20
103.475543
11
57.624211
21
102.438760
0
LINE
8
0
10
57.624200
20
102.439000
11
58.473912
21
101.812010
0
LINE
8
0
10
58.473912
20
101.812010
11
59.635090
21
101.603016
0
LINE
8
0
10
59.635100
20
101.603000
11
60.800381
21
101.811994
0
LINE
8
0
10
60.800381
20
101.811994
11
61.640530
21
102.438984
0
LINE
8
0
10
61.640500
20
102.439000
11
62.148690
21
103.473048
0
LINE
8
0
10
62.148690
20
103.473048
11
62.318086
21
104.903240
0
LINE
8
0
10
62.318100
20
104.903000
11
62.148704
21
106.319533
0
LINE
8
0
10
62.148704
20
106.319533
11
61.640514
21
107.345390
0
LINE
8
0
10
61.640500
20
107.346000
11
60.805817
21
107.972994
0
LINE
8
0
10
60.805817
20
107.972994
11
59.646000
21
108.181992
0
LINE
8
0
10
59.646000
20
108.182000
11
58.476623
21
107.971638
0
LINE
8
0
10
58.476623
20
107.971638
11
57.624180
21
107.340552
0
LINE
8
0
10
57.624200
20
107.340000
11
57.107817
21
106.312775
0
LINE
8
0
10
57.107817
20
106.312775
11
56.935689
21
104.903070
0
LINE
8
0
10
79.024200
20
100.898000
11
73.532500
21
100.898000
0
LINE
8
0
10
73.532500
20
100.898000
11
73.532500
21
101.625000
0
LINE
8
0
10
73.532500
20
101.625000
11
77.772860
21
108.050630
0
LINE
8
0
10
77.772860
20
108.050630
11
73.663700
21
108.051000
0
LINE
8
0
10
73.663700
20
108.051000
11
73.663700
21
108.887000
0
LINE
8
0
10
73.663700
20
108.887000
11
78.904000
21
108.887000
0
LINE
8
0
10
78.904000
20
108.887000
11
78.904000
21
108.160000
0
LINE
8
0
10
78.904000
20
108.160000
11
74.663640
21
101.739850
0
LINE
8
0
10
74.663640
20
101.739850
11
79.024200
21
101.740000
0
LINE
8
0
10
79.024200
20
101.740000
11
79.024200
21
100.898000
0
LINE
8
0
10
93.290500
20
106.247000
11
93.033675
21
107.143092
0
LINE
8
0
10
93.033700
20
107.144000
11
92.886161
21
107.794210
0
LINE
8
0
10
92.886200
20
107.794000
11
92.503695
21
106.214920
0
LINE
8
0
10
95.820500
20
100.898000
11
94.902500
21
100.898000
0
LINE
8
0
10
94.902500
20
100.898000
11
93.290500
21
106.247210
0
LINE
8
0
10
90.143000
20
103.953000
11
90.525508
21
102.073410
0
LINE
8
0
10
90.525600
20
102.073000
11
90.962749
21
104.029100
0
LINE
8
0
10
92.503700
20
106.215000
11
90.940880
21
100.898570
0
LINE
8
0
10
90.940880
20
100.898570
11
90.022800
21
100.898000
0
LINE
8
0
10
90.022800
20
100.898000
11
87.897150
21
108.886310
0
LINE
8
0
10
87.897150
20
108.886310
11
88.880800
21
108.887000
0
LINE
8
0
10
88.880800
20
108.887000
11
90.143080
21
103.953040
0
LINE
8
0
10
94.880700
20
103.985000
11
95.323310
21
102.072620
0
LINE
8
0
10
95.323300
20
102.073000
11
95.716740
21
103.963520
0
LINE
8
0
10
90.962700
20
104.029000
11
92.394370
21
108.886460
0
LINE
8
0
10
92.394370
20
108.886460
11
93.378000
21
108.887000
0
LINE
8
0
10
93.378000
20
108.887000
11
94.880710
21
103.985830
0
LINE
8
0
10
95.716700
20
103.963000
11
96.973500
21
108.886040
0
LINE
8
0
10
96.973500
20
108.886040
11
97.957100
21
108.887000
0
LINE
8
0
10
97.957100
20
108.887000
11
95.820530
21
100.898690
0
LINE
8
0
10
112.021000
20
100.898000
11
107.568000
21
100.898000
0
LINE
8
0
10
107.568000
20
100.898000
11
107.568000
21
108.887000
0
LINE
8
0
10
107.568000
20
108.887000
11
112.021000
21
108.887000
0
LINE
8
0
10
112.021000
20
108.887000
11
112.021000
21
108.061000
0
LINE
8
0
10
112.021000
20
108.061000
11
108.497000
21
108.061000
0
LINE
8
0
10
108.497000
20
108.061000
11
108.497000
21
105.488000
0
LINE
8
0
10
108.497000
20
105.488000
11
111.808000
21
105.488000
0
LINE
8
0
10
111.808000
20
105.488000
11
111.808000
21
104.668000
0
LINE
8
0
10
111.808000
20
104.668000
11
108.497000
21
104.668000
0
LINE
8
0
10
108.497000
20
104.668000
11
108.497000
21
101.729000
0
LINE
8
0
10
108.497000
20
101.729000
11
112.021000
21
101.729000
0
LINE
8
0
10
112.021000
20
101.729000
11
112.021000
21
100.898000
0
LINE
8
0
10
146.280000
20
104.969000
11
146.212720
21
104.038075
0
LINE
8
0
10
146.212720
20
104.038075
11
146.010880
21
103.223261
0
LINE
8
0
10
146.010880
20
103.223261
11
145.674480
21
102.524556
0
LINE
8
0
10
145.674480
20
102.524556
11
145.203520
21
101.941960
0
LINE
8
0
10
145.204000
20
101.942000
11
144.609406
21
101.485418
0
LINE
8
0
10
144.609406
20
101.485418
11
143.896645
21
101.159287
0
LINE
8
0
10
143.896645
20
101.159287
11
142.116620
21
100.898380
0
LINE
8
0
10
125.771000
20
100.898000
11
125.771000
21
108.887000
0
LINE
8
0
10
125.771000
20
108.887000
11
126.700000
21
108.887000
0
LINE
8
0
10
126.700000
20
108.887000
11
126.700000
21
100.898000
0
LINE
8
0
10
126.700000
20
100.898000
11
125.771000
21
100.898000
0
LINE
8
0
10
142.352000
20
108.887000
11
144.007701
21
108.628828
0
LINE
8
0
10
144.007701
20
108.628828
11
144.679820
21
108.306113
0
LINE
8
0
10
144.679820
20
108.306113
11
145.248120
21
107.854310
0
LINE
8
0
10
145.248000
20
107.854000
11
145.699836
21
107.286433
0
LINE
8
0
10
145.699836
20
107.286433
11
146.022577
21
106.616417
0
LINE
8
0
10
146.022577
20
106.616417
11
146.280770
21
104.969040
0
LINE
8
0
10
142.117000
20
100.898000
11
139.904000
21
100.898000
0
LINE
8
0
10
139.904000
20
100.898000
11
139.904000
21
108.887000
0
LINE
8
0
10
139.904000
20
108.887000
11
142.352000
21
108.887000
0
LINE
8
0
10
145.297000
20
104.936000
11
145.100282
21
106.306089
0
LINE
8
0
10
145.100282
20
106.306089
11
144.510130
21
107.290970
0
LINE
8
0
10
144.510000
20
107.291000
11
143.537340
21
107.885203
0
LINE
8
0
10
143.537340
20
107.885203
11
142.182170
21
108.083270
0
LINE
8
0
10
141.964000
20
101.701000
11
143.418890
21
101.904530
0
LINE
8
0
10
143.418890
20
101.904530
11
144.461220
21
102.515130
0
LINE
8
0
10
144.461000
20
102.516000
11
145.088039
21
103.530931
0
LINE
8
0
10
145.088039
20
103.530931
11
145.297051
21
104.936530
0
LINE
8
0
10
142.182000
20
108.083000
11
140.833000
21
108.083000
0
LINE
8
0
10
140.833000
20
108.083000
11
140.833000
21
101.701000
0
LINE
8
0
10
140.833000
20
101.701000
11
141.964000
21
101.701000
0
LINE
8
0
10
159.367000
20
108.887000
11
160.644300
21
108.746305
0
LINE
8
0
10
160.644300
20
108.746305
11
161.536360
21
108.324208
0
LINE
8
0
10
161.536000
20
108.324000
11
162.064681
21
107.619147
0
LINE
8
0
10
162.064681
20
107.619147
11
162.240910
21
106.630170
0
LINE
8
0
10
162.241000
20
106.630000
11
162.140592
21
105.901930
0
LINE
8
0
10
162.140592
20
105.901930
11
161.839367
21
105.302260
0
LINE
8
0
10
161.839367
20
105.302260
11
161.337326
21
104.830990
0
LINE
8
0
10
161.337326
20
104.830990
11
160.634470
21
104.488120
0
LINE
8
0
10
158.104000
20
104.220000
11
158.104000
21
100.898000
0
LINE
8
0
10
158.104000
20
100.898000
11
157.175000
21
100.898000
0
LINE
8
0
10
157.175000
20
100.898000
11
157.175000
21
108.887000
0
LINE
8
0
10
157.175000
20
108.887000
11
159.367000
21
108.887000
0
LINE
8
0
10
160.634000
20
104.488000
11
162.803360
21
100.898190
0
LINE
8
0
10
162.803360
20
100.898190
11
161.705000
21
100.898000
0
LINE
8
0
10
161.705000
20
100.898000
11
159.770610
21
104.220090
0
LINE
8
0
10
159.770610
20
104.220090
11
158.104000
21
104.220000
0
LINE
8
0
10
159.377000
20
105.018000
11
160.229443
21
105.114988
0
LINE
8
0
10
160.229443
20
105.114988
11
160.819590
21
105.405942
0
LINE
8
0
10
160.820000
20
105.406000
11
161.164260
21
105.896392
0
LINE
8
0
10
161.164260
20
105.896392
11
161.279014
21
106.580760
0
LINE
8
0
10
161.279000
20
106.581000
11
161.161516
21
107.262628
0
LINE
8
0
10
161.161516
20
107.262628
11
160.809064
21
107.722960
0
LINE
8
0
10
160.809000
20
107.723000
11
160.202448
21
107.985269
0
LINE
8
0
10
160.202448
20
107.985269
11
159.311750
21
108.072694
0
LINE
8
0
10
158.104000
20
105.018000
11
159.377000
21
105.018000
0
LINE
8
0
10
159.312000
20
108.072000
11
158.104000
21
108.072000
0
LINE
8
0
10
158.104000
20
108.072000
11
158.104000
21
105.018000
0
LINE
8
0
10
179.245000
20
103.718000
11
179.038724
21
102.498170
0
LINE
8
0
10
179.038724
20
102.498170
11
178.419882
21
101.570660
0
LINE
8
0
10
178.420000
20
101.570000
11
177.440507
21
100.983996
0
LINE
8
0
10
177.440507
20
100.983996
11
176.152280
21
100.788660
0
LINE
8
0
10
176.152000
20
100.789000
11
174.871963
21
100.985701
0
LINE
8
0
10
174.871963
20
100.985701
11
173.917070
21
101.575804
0
LINE
8
0
10
173.917000
20
101.576000
11
173.326840
21
102.510339
0
LINE
8
0
10
173.326840
20
102.510339
11
173.130122
21
103.739730
0
LINE
8
0
10
179.245000
20
108.887000
11
179.245000
21
103.718000
0
LINE
8
0
10
174.059000
20
103.674000
11
174.195609
21
102.790206
0
LINE
8
0
10
174.195609
20
102.790206
11
174.605438
21
102.138630
0
LINE
8
0
10
174.605000
20
102.139000
11
175.279849
21
101.737399
0
LINE
8
0
10
175.279849
20
101.737399
11
176.211530
21
101.603532
0
LINE
8
0
10
176.212000
20
101.603000
11
177.106792
21
101.736867
0
LINE
8
0
10
177.106792
20
101.736867
11
177.769350
21
102.138468
0
LINE
8
0
10
177.769000
20
102.139000
11
178.178830
21
102.796040
0
LINE
8
0
10
178.178830
20
102.796040
11
178.315438
21
103.685300
0
LINE
8
0
10
173.130000
20
103.739000
11
173.130000
21
108.887000
0
LINE
8
0
10
173.130000
20
108.887000
11
174.059000
21
108.887000
0
LINE
8
0
10
174.059000
20
108.887000
11
174.059000
21
103.674000
0
LINE
8
0
10
174.633000
20
110.356000
11
174.775084
21
110.765791
0
LINE
8
0
10
174.775000
20
110.766000
11
175.124713
21
110.891666
0
LINE
8
0
10
175.125000
20
110.892000
11
175.480189
21
110.766334
0
LINE
8
0
10
175.480000
20
110.766000
11
175.632998
21
110.356209
0
LINE
8
0
10
175.633000
20
110.356000
11
175.480002
21
109.946195
0
LINE
8
0
10
175.480000
20
109.947000
11
175.124811
21
109.815862
0
LINE
8
0
10
175.125000
20
109.815000
11
174.775287
21
109.946138
0
LINE
8
0
10
174.775000
20
109.947000
11
174.632916
21
110.356805
0
LINE
8
0
10
178.316000
20
103.685000
11
178.316000
21
108.887000
0
LINE
8
0
10
178.316000
20
108.887000
11
179.245000
21
108.887000
0
LINE
8
0
10
176.715000
20
110.356000
11
176.857084
21
110.765791
0
LINE
8
0
10
176.857000
20
110.766000
11
177.206713
21
110.891666
0
LINE
8
0
10
177.207000
20
110.892000
11
177.556723
21
110.766334
0
LINE
8
0
10
177.556000
20
110.766000
11
177.709006
21
110.356209
0
LINE
8
0
10
177.709000
20
110.356000
11
177.555994
21
109.946195
0
LINE
8
0
10
177.556000
20
109.947000
11
177.206277
21
109.815862
0
LINE
8
0
10
177.207000
20
109.815000
11
176.857287
21
109.946138
0
LINE
8
0
10
176.857000
20
109.947000
11
176.714916
21
110.356805
0
LINE
8
0
10
12.418200
20
84.907600
11
6.926490
21
84.907600
0
LINE
8
0
10
6.926490
20
84.907600
11
6.926490
21
85.634300
0
LINE
8
0
10
6.926490
20
85.634300
11
11.166850
21
92.059920
0
LINE
8
0
10
11.166850
20
92.059920
11
7.057640
21
92.059900
0
LINE
8
0
10
7.057640
20
92.059900
11
7.057640
21
92.895900
0
LINE
8
0
10
7.057640
20
92.895900
11
12.298000
21
92.895900
0
LINE
8
0
10
12.298000
20
92.895900
11
12.298000
21
92.169200
0
LINE
8
0
10
12.298000
20
92.169200
11
8.057640
21
85.749040
0
LINE
8
0
10
8.057640
20
85.749040
11
12.418200
21
85.749100
0
LINE
8
0
10
12.418200
20
85.749100
11
12.418200
21
84.907600
0
LINE
8
0
10
25.812900
20
87.727000
11
26.315625
21
85.994920
0
LINE
8
0
10
26.315700
20
85.994900
11
26.829350
21
87.759770
0
LINE
8
0
10
28.654400
20
92.895900
11
29.654400
21
92.895900
0
LINE
8
0
10
29.654400
20
92.895900
11
26.774670
21
84.907600
0
LINE
8
0
10
26.774670
20
84.907600
11
25.856600
21
84.907600
0
LINE
8
0
10
25.856600
20
84.907600
11
22.993300
21
92.895900
0
LINE
8
0
10
22.993300
20
92.895900
11
23.976900
21
92.895900
0
LINE
8
0
10
23.976900
20
92.895900
11
25.812930
21
87.727000
0
LINE
8
0
10
26.829300
20
87.759800
11
28.654410
21
92.895910
0
LINE
8
0
10
42.513600
20
84.907600
11
42.513600
21
92.895900
0
LINE
8
0
10
42.513600
20
92.895900
11
43.442600
21
92.895900
0
LINE
8
0
10
43.442600
20
92.895900
11
43.442600
21
84.907600
0
LINE
8
0
10
43.442600
20
84.907600
11
42.513600
21
84.907600
0
LINE
8
0
10
62.066700
20
84.907600
11
57.613200
21
84.907600
0
LINE
8
0
10
57.613200
20
84.907600
11
57.613200
21
92.895900
0
LINE
8
0
10
57.613200
20
92.895900
11
62.066700
21
92.895900
0
LINE
8
0
10
62.066700
20
92.895900
11
62.066700
21
92.070900
0
LINE
8
0
10
62.066700
20
92.070900
11
58.542200
21
92.070900
0
LINE
8
0
10
58.542200
20
92.070900
11
58.542200
21
89.497400
0
LINE
8
0
10
58.542200
20
89.497400
11
61.853600
21
89.497400
0
LINE
8
0
10
61.853600
20
89.497400
11
61.853600
21
88.677800
0
LINE
8
0
10
61.853600
20
88.677800
11
58.542200
21
88.677800
0
LINE
8
0
10
58.542200
20
88.677800
11
58.542200
21
85.738100
0
LINE
8
0
10
58.542200
20
85.738100
11
62.066700
21
85.738100
0
LINE
8
0
10
62.066700
20
85.738100
11
62.066700
21
84.907600
0
LINE
8
0
10
76.109000
20
92.895900
11
77.386301
21
92.755205
0
LINE
8
0
10
77.386301
20
92.755205
11
78.278360
21
92.333116
0
LINE
8
0
10
78.278300
20
92.333100
11
78.806980
21
91.628244
0
LINE
8
0
10
78.806980
20
91.628244
11
78.983207
21
90.639270
0
LINE
8
0
10
78.983300
20
90.639300
11
78.882891
21
89.911226
0
LINE
8
0
10
78.882891
20
89.911226
11
78.581666
21
89.311558
0
LINE
8
0
10
78.581666
20
89.311558
11
78.079626
21
88.840293
0
LINE
8
0
10
78.079626
20
88.840293
11
77.376770
21
88.497430
0
LINE
8
0
10
74.846700
20
88.229700
11
74.846700
21
84.907600
0
LINE
8
0
10
74.846700
20
84.907600
11
73.917800
21
84.907600
0
LINE
8
0
10
73.917800
20
84.907600
11
73.917800
21
92.895900
0
LINE
8
0
10
73.917800
20
92.895900
11
76.109000
21
92.895900
0
LINE
8
0
10
77.376700
20
88.497400
11
79.546060
21
84.907580
0
LINE
8
0
10
79.546060
20
84.907580
11
78.447700
21
84.907600
0
LINE
8
0
10
78.447700
20
84.907600
11
76.513310
21
88.229680
0
LINE
8
0
10
76.513310
20
88.229680
11
74.846700
21
88.229700
0
LINE
8
0
10
76.119900
20
89.027400
11
76.972343
21
89.124385
0
LINE
8
0
10
76.972343
20
89.124385
11
77.562500
21
89.415342
0
LINE
8
0
10
77.562500
20
89.415400
11
77.906757
21
89.905787
0
LINE
8
0
10
77.906757
20
89.905787
11
78.021509
21
90.590150
0
LINE
8
0
10
78.021500
20
90.590100
11
77.904016
21
91.271728
0
LINE
8
0
10
77.904016
20
91.271728
11
77.551561
21
91.732060
0
LINE
8
0
10
77.551600
20
91.732100
11
76.945055
21
91.994371
0
LINE
8
0
10
76.945055
20
91.994371
11
76.054360
21
92.081794
0
LINE
8
0
10
74.846700
20
89.027400
11
76.119900
21
89.027400
0
LINE
8
0
10
76.054300
20
92.081800
11
74.846700
21
92.081800
0
LINE
8
0
10
74.846700
20
92.081800
11
74.846700
21
89.027400
0
LINE
8
0
10
92.468100
20
84.907600
11
92.468100
21
92.895900
0
LINE
8
0
10
92.468100
20
92.895900
11
93.397100
21
92.895900
0
LINE
8
0
10
93.397100
20
92.895900
11
93.397100
21
84.907600
0
LINE
8
0
10
93.397100
20
84.907600
11
92.468100
21
84.907600
0
LINE
8
0
10
129.908000
20
88.912700
11
129.664836
21
87.199750
0
LINE
8
0
10
129.664836
20
87.199750
11
129.360881
21
86.496948
0
LINE
8
0
10
129.360881
20
86.496948
11
128.935343
21
85.896600
0
LINE
8
0
10
128.935000
20
85.896600
11
128.403931
21
85.416113
0
LINE
8
0
10
128.403931
20
85.416113
11
127.777917
21
85.072906
0
LINE
8
0
10
127.777917
20
85.072906
11
127.056960
21
84.866982
0
LINE
8
0
10
127.056960
20
84.866982
11
126.241060
21
84.798340
0
LINE
8
0
10
126.241000
20
84.798300
11
124.676820
21
85.067402
0
LINE
8
0
10
124.676820
20
85.067402
11
124.045346
21
85.403778
0
LINE
8
0
10
124.045346
20
85.403778
11
123.514280
21
85.874700
0
LINE
8
0
10
123.514000
20
85.874700
11
123.095629
21
86.470958
0
LINE
8
0
10
123.095629
20
86.470958
11
122.796792
21
87.177858
0
LINE
8
0
10
122.796792
20
87.177858
11
122.557723
21
88.923590
0
LINE
8
0
10
122.558000
20
88.923600
11
122.798433
21
90.654311
0
LINE
8
0
10
122.798433
20
90.654311
11
123.098975
21
91.354724
0
LINE
8
0
10
123.098975
20
91.354724
11
123.519733
21
91.945170
0
LINE
8
0
10
123.520000
20
91.945200
11
124.051413
21
92.416127
0
LINE
8
0
10
124.051413
20
92.416127
11
124.683916
21
92.752502
0
LINE
8
0
10
124.683916
20
92.752502
11
126.252190
21
93.021600
0
LINE
8
0
10
126.252000
20
93.021600
11
127.065510
21
92.953301
0
LINE
8
0
10
127.065510
20
92.953301
11
127.784760
21
92.748403
0
LINE
8
0
10
127.784760
20
92.748403
11
128.409750
21
92.406906
0
LINE
8
0
10
128.409750
20
92.406906
11
128.940480
21
91.928810
0
LINE
8
0
10
128.940000
20
91.928800
11
129.363147
21
91.330493
0
LINE
8
0
10
129.363147
20
91.330493
11
129.665395
21
90.628372
0
LINE
8
0
10
129.665395
20
90.628372
11
129.907194
21
88.912680
0
LINE
8
0
10
108.721000
20
84.907600
11
107.792000
21
84.907600
0
LINE
8
0
10
107.792000
20
84.907600
11
107.792000
21
92.895900
0
LINE
8
0
10
107.792000
20
92.895900
11
112.245000
21
92.895900
0
LINE
8
0
10
112.245000
20
92.895900
11
112.245000
21
92.070900
0
LINE
8
0
10
112.245000
20
92.070900
11
108.721000
21
92.070900
0
LINE
8
0
10
108.721000
20
92.070900
11
108.721000
21
89.147700
0
LINE
8
0
10
108.721000
20
89.147700
11
112.032000
21
89.147700
0
LINE
8
0
10
112.032000
20
89.147700
11
112.032000
21
88.322600
0
LINE
8
0
10
112.032000
20
88.322600
11
108.721000
21
88.322600
0
LINE
8
0
10
108.721000
20
88.322600
11
108.721000
21
84.907600
0
LINE
8
0
10
123.542000
20
88.912700
11
123.714129
21
87.485242
0
LINE
8
0
10
123.714129
20
87.485242
11
124.230511
21
86.448460
0
LINE
8
0
10
124.230000
20
86.448500
11
125.079717
21
85.821510
0
LINE
8
0
10
125.079717
20
85.821510
11
126.240900
21
85.612516
0
LINE
8
0
10
126.241000
20
85.612500
11
127.406283
21
85.821494
0
LINE
8
0
10
127.406283
20
85.821494
11
128.246430
21
86.448484
0
LINE
8
0
10
128.247000
20
86.448500
11
128.755183
21
87.482555
0
LINE
8
0
10
128.755183
20
87.482555
11
128.924579
21
88.912740
0
LINE
8
0
10
128.924000
20
88.912700
11
128.754605
21
90.329235
0
LINE
8
0
10
128.754605
20
90.329235
11
128.246421
21
91.355110
0
LINE
8
0
10
128.247000
20
91.355100
11
127.412312
21
91.982082
0
LINE
8
0
10
127.412312
20
91.982082
11
126.252490
21
92.191082
0
LINE
8
0
10
126.252000
20
92.191100
11
125.082628
21
91.980733
0
LINE
8
0
10
125.082628
20
91.980733
11
124.230180
21
91.349641
0
LINE
8
0
10
124.230000
20
91.349600
11
123.713618
21
90.322378
0
LINE
8
0
10
123.713618
20
90.322378
11
123.541489
21
88.912670
0
LINE
8
0
10
142.423000
20
84.907600
11
142.423000
21
92.895900
0
LINE
8
0
10
142.423000
20
92.895900
11
143.352000
21
92.895900
0
LINE
8
0
10
143.352000
20
92.895900
11
143.352000
21
84.907600
0
LINE
8
0
10
143.352000
20
84.907600
11
142.423000
21
84.907600
0
LINE
8
0
10
158.675000
20
84.907600
11
157.746000
21
84.907600
0
LINE
8
0
10
157.746000
20
84.907600
11
157.746000
21
92.895900
0
LINE
8
0
10
157.746000
20
92.895900
11
162.200000
21
92.895900
0
LINE
8
0
10
162.200000
20
92.895900
11
162.200000
21
92.070900
0
LINE
8
0
10
162.200000
20
92.070900
11
158.675000
21
92.070900
0
LINE
8
0
10
158.675000
20
92.070900
11
158.675000
21
89.147700
0
LINE
8
0
10
158.675000
20
89.147700
11
161.987000
21
89.147700
0
LINE
8
0
10
161.987000
20
89.147700
11
161.987000
21
88.322600
0
LINE
8
0
10
161.987000
20
88.322600
11
158.675000
21
88.322600
0
LINE
8
0
10
158.675000
20
88.322600
11
158.675000
21
84.907600
0
LINE
8
0
10
12.207800
20
71.042500
11
12.016546
21
70.104065
0
LINE
8
0
10
12.016546
20
70.104065
11
11.442786
21
69.397850
0
LINE
8
0
10
11.442800
20
69.397800
11
10.541174
21
68.955218
0
LINE
8
0
10
10.541174
20
68.955218
11
9.366330
21
68.807690
0
LINE
8
0
10
9.366340
20
68.807700
11
8.109534
21
68.899222
0
LINE
8
0
10
8.109534
20
68.899222
11
7.180590
21
69.173790
0
LINE
8
0
10
175.726000
20
84.907600
11
175.726000
21
92.895900
0
LINE
8
0
10
175.726000
20
92.895900
11
176.655000
21
92.895900
0
LINE
8
0
10
176.655000
20
92.895900
11
176.655000
21
84.907600
0
LINE
8
0
10
176.655000
20
84.907600
11
175.726000
21
84.907600
0
LINE
8
0
10
7.180590
20
70.069900
11
8.251610
21
69.742068
0
LINE
8
0
10
8.251600
20
69.742100
11
9.399120
21
69.621892
0
LINE
8
0
10
9.399130
20
69.621900
11
10.213323
21
69.709321
0
LINE
8
0
10
10.213323
20
69.709321
11
10.798010
21
69.971594
0
LINE
8
0
10
10.798000
20
69.971600
11
11.150454
21
70.395053
0
LINE
8
0
10
11.150454
20
70.395053
11
11.267938
21
70.955108
0
LINE
8
0
10
11.267900
20
70.955100
11
11.098504
21
71.632636
0
LINE
8
0
10
11.098500
20
71.632600
11
10.541132
21
72.124354
0
LINE
8
0
10
10.541200
20
72.124400
11
9.355430
21
72.632550
0
LINE
8
0
10
9.355410
20
72.632500
11
8.399144
21
73.068249
0
LINE
8
0
10
8.399144
20
73.068249
11
7.759810
21
73.577760
0
LINE
8
0
10
7.759810
20
73.577800
11
7.403259
21
74.207525
0
LINE
8
0
10
7.403259
20
74.207525
11
7.284408
21
75.003890
0
LINE
8
0
10
7.284410
20
75.003900
11
7.457904
21
75.833061
0
LINE
8
0
10
7.457904
20
75.833061
11
7.978387
21
76.473710
0
LINE
8
0
10
7.978390
20
76.473700
11
8.784386
21
76.883501
0
LINE
8
0
10
8.784386
20
76.883501
11
9.814420
21
77.020098
0
LINE
8
0
10
9.814420
20
77.020100
11
10.957841
21
76.910821
0
LINE
8
0
10
10.957841
20
76.910821
11
12.005640
21
76.582990
0
LINE
8
0
10
7.180590
20
69.173800
11
7.180590
21
70.069900
0
LINE
8
0
10
11.716000
20
75.774300
11
10.740609
21
76.085747
0
LINE
8
0
10
10.740609
20
76.085747
11
9.792540
21
76.189568
0
LINE
8
0
10
9.792560
20
76.189500
11
9.135467
21
76.110270
0
LINE
8
0
10
9.135467
20
76.110270
11
8.639570
21
75.872580
0
LINE
8
0
10
8.639580
20
75.872600
11
8.328110
21
75.494226
0
LINE
8
0
10
8.328110
20
75.494226
11
8.224287
21
74.992904
0
LINE
8
0
10
8.224280
20
74.992900
11
8.377283
21
74.309908
0
LINE
8
0
10
8.377290
20
74.309900
11
8.890942
21
73.823610
0
LINE
8
0
10
8.890940
20
73.823600
11
10.005680
21
73.337312
0
LINE
8
0
10
10.005700
20
73.337400
11
11.065790
21
72.872964
0
LINE
8
0
10
11.065790
20
72.872964
11
11.732450
21
72.375744
0
LINE
8
0
10
11.732400
20
72.375700
11
12.088952
21
71.785589
0
LINE
8
0
10
12.088952
20
71.785589
11
12.207802
21
71.042490
0
LINE
8
0
10
12.005600
20
76.583000
11
11.715987
21
75.774323
0
LINE
8
0
10
28.903000
20
68.917000
11
27.908480
21
71.457750
0
LINE
8
0
10
27.908480
20
71.457750
11
24.706400
21
71.457800
0
LINE
8
0
10
24.706400
20
71.457800
11
23.722811
21
68.917050
0
LINE
8
0
10
23.722811
20
68.917050
11
22.782900
21
68.917000
0
LINE
8
0
10
22.782900
20
68.917000
11
25.941320
21
76.938100
0
LINE
8
0
10
25.941320
20
76.938100
11
26.722800
21
76.938100
0
LINE
8
0
10
26.722800
20
76.938100
11
29.864820
21
68.917000
0
LINE
8
0
10
29.864820
20
68.917000
11
28.903000
21
68.917000
0
LINE
8
0
10
26.690000
20
74.768900
11
26.318423
21
75.921790
0
LINE
8
0
10
26.318400
20
75.921800
11
25.974141
21
74.768910
0
LINE
8
0
10
27.618900
20
72.293700
11
26.689954
21
74.768870
0
LINE
8
0
10
24.772000
20
78.375100
11
24.914074
21
78.784902
0
LINE
8
0
10
24.914000
20
78.784900
11
25.263721
21
78.910566
0
LINE
8
0
10
25.263800
20
78.910600
11
25.618985
21
78.784934
0
LINE
8
0
10
25.618900
20
78.784900
11
25.771902
21
78.375098
0
LINE
8
0
10
25.771900
20
78.375100
11
25.618898
21
77.965306
0
LINE
8
0
10
25.618900
20
77.965300
11
25.263715
21
77.834162
0
LINE
8
0
10
25.263800
20
77.834200
11
24.914079
21
77.965338
0
LINE
8
0
10
24.914000
20
77.965300
11
24.771926
21
78.375094
0
LINE
8
0
10
25.974100
20
74.768900
11
25.034225
21
72.293730
0
LINE
8
0
10
25.034225
20
72.293730
11
27.618900
21
72.293700
0
LINE
8
0
10
26.853900
20
78.375100
11
26.995976
21
78.784902
0
LINE
8
0
10
26.996000
20
78.784900
11
27.345718
21
78.910566
0
LINE
8
0
10
27.345700
20
78.910600
11
27.695421
21
78.784934
0
LINE
8
0
10
27.695400
20
78.784900
11
27.848403
21
78.375098
0
LINE
8
0
10
27.848400
20
78.375100
11
27.695397
21
77.965306
0
LINE
8
0
10
27.695400
20
77.965300
11
27.345679
21
77.834162
0
LINE
8
0
10
27.345700
20
77.834200
11
26.995982
21
77.965338
0
LINE
8
0
10
26.996000
20
77.965300
11
26.853924
21
78.375094
0
LINE
8
0
10
43.964400
20
76.189500
11
42.785457
21
75.969575
0
LINE
8
0
10
42.785457
20
75.969575
11
41.882470
21
75.309796
0
LINE
8
0
10
41.882500
20
75.309800
11
41.312835
21
74.273017
0
LINE
8
0
10
41.312835
20
74.273017
11
41.122948
21
72.911130
0
LINE
8
0
10
41.122900
20
72.911200
11
41.305956
21
71.520617
0
LINE
8
0
10
41.305956
20
71.520617
11
41.855126
21
70.485190
0
LINE
8
0
10
41.855200
20
70.485200
11
42.748631
21
69.845916
0
LINE
8
0
10
42.748631
20
69.845916
11
43.953530
21
69.632819
0
LINE
8
0
10
43.953500
20
69.632800
11
45.860570
21
69.933327
0
LINE
8
0
10
45.860600
20
69.119200
11
44.933021
21
68.885618
0
LINE
8
0
10
44.933021
20
68.885618
11
43.811450
21
68.807754
0
LINE
8
0
10
43.811400
20
68.807700
11
42.247222
21
69.075433
0
LINE
8
0
10
42.247222
20
69.075433
11
41.615743
21
69.410099
0
LINE
8
0
10
41.615743
20
69.410099
11
41.084670
21
69.878630
0
LINE
8
0
10
41.084700
20
69.878700
11
40.666333
21
70.470520
0
LINE
8
0
10
40.666333
20
70.470520
11
40.367500
21
71.175031
0
LINE
8
0
10
40.367500
20
71.175031
11
40.128434
21
72.922130
0
LINE
8
0
10
40.128400
20
72.922100
11
40.243152
21
74.080459
0
LINE
8
0
10
40.243152
20
74.080459
11
40.587409
21
75.085830
0
LINE
8
0
10
40.587400
20
75.085800
11
41.152963
21
75.908125
0
LINE
8
0
10
41.152963
20
75.908125
11
41.920710
21
76.517360
0
LINE
8
0
10
41.920700
20
76.517400
11
42.871504
21
76.894414
0
LINE
8
0
10
42.871504
20
76.894414
11
43.975310
21
77.020084
0
LINE
8
0
10
43.975300
20
77.020100
11
45.152875
21
76.905357
0
LINE
8
0
10
45.152875
20
76.905357
11
46.171980
21
76.561128
0
LINE
8
0
10
45.860600
20
69.933300
11
45.860600
21
69.119200
0
LINE
8
0
10
45.778600
20
75.763400
11
44.871514
21
76.083039
0
LINE
8
0
10
44.871514
20
76.083039
11
43.964430
21
76.189588
0
LINE
8
0
10
46.172000
20
76.561100
11
45.778562
21
75.763366
0
LINE
8
0
10
78.813800
20
71.042500
11
78.622548
21
70.104065
0
LINE
8
0
10
78.622548
20
70.104065
11
78.048790
21
69.397850
0
LINE
8
0
10
78.048800
20
69.397800
11
77.147177
21
68.955218
0
LINE
8
0
10
77.147177
20
68.955218
11
75.972330
21
68.807690
0
LINE
8
0
10
75.972400
20
68.807700
11
74.715593
21
68.899222
0
LINE
8
0
10
74.715593
20
68.899222
11
73.786650
21
69.173790
0
LINE
8
0
10
62.662300
20
68.917000
11
61.733400
21
68.917000
0
LINE
8
0
10
61.733400
20
68.917000
11
61.733400
21
72.676200
0
LINE
8
0
10
61.733400
20
72.676200
11
57.525800
21
72.676200
0
LINE
8
0
10
57.525800
20
72.676200
11
57.525800
21
68.917000
0
LINE
8
0
10
57.525800
20
68.917000
11
56.596900
21
68.917000
0
LINE
8
0
10
56.596900
20
68.917000
11
56.596900
21
76.905300
0
LINE
8
0
10
56.596900
20
76.905300
11
57.525800
21
76.905300
0
LINE
8
0
10
57.525800
20
76.905300
11
57.525800
21
73.506700
0
LINE
8
0
10
57.525800
20
73.506700
11
61.733400
21
73.506700
0
LINE
8
0
10
61.733400
20
73.506700
11
61.733400
21
76.905300
0
LINE
8
0
10
61.733400
20
76.905300
11
62.662300
21
76.905300
0
LINE
8
0
10
62.662300
20
76.905300
11
62.662300
21
68.917000
0
LINE
8
0
10
73.786600
20
70.069900
11
74.857620
21
69.742068
0
LINE
8
0
10
74.857600
20
69.742100
11
76.005120
21
69.621892
0
LINE
8
0
10
76.005200
20
69.621900
11
76.819392
21
69.709321
0
LINE
8
0
10
76.819392
20
69.709321
11
77.404080
21
69.971594
0
LINE
8
0
10
77.404000
20
69.971600
11
77.756453
21
70.395053
0
LINE
8
0
10
77.756453
20
70.395053
11
77.873939
21
70.955108
0
LINE
8
0
10
77.874000
20
70.955100
11
77.704603
21
71.632636
0
LINE
8
0
10
77.704600
20
71.632600
11
77.147232
21
72.124354
0
LINE
8
0
10
77.147200
20
72.124400
11
75.961430
21
72.632550
0
LINE
8
0
10
75.961400
20
72.632500
11
75.005129
21
73.068249
0
LINE
8
0
10
75.005129
20
73.068249
11
74.365800
21
73.577760
0
LINE
8
0
10
74.365800
20
73.577800
11
74.009251
21
74.207525
0
LINE
8
0
10
74.009251
20
74.207525
11
73.890400
21
75.003890
0
LINE
8
0
10
73.890400
20
75.003900
11
74.063894
21
75.833061
0
LINE
8
0
10
74.063894
20
75.833061
11
74.584377
21
76.473710
0
LINE
8
0
10
74.584400
20
76.473700
11
75.390396
21
76.883501
0
LINE
8
0
10
75.390396
20
76.883501
11
76.420430
21
77.020098
0
LINE
8
0
10
76.420400
20
77.020100
11
77.563822
21
76.910821
0
LINE
8
0
10
77.563822
20
76.910821
11
78.611620
21
76.582990
0
LINE
8
0
10
73.786600
20
69.173800
11
73.786600
21
70.069900
0
LINE
8
0
10
78.322100
20
75.774300
11
77.346710
21
76.085747
0
LINE
8
0
10
77.346710
20
76.085747
11
76.398640
21
76.189568
0
LINE
8
0
10
76.398600
20
76.189500
11
75.741508
21
76.110270
0
LINE
8
0
10
75.741508
20
76.110270
11
75.245620
21
75.872580
0
LINE
8
0
10
75.245600
20
75.872600
11
74.934128
21
75.494226
0
LINE
8
0
10
74.934128
20
75.494226
11
74.830303
21
74.992904
0
LINE
8
0
10
74.830300
20
74.992900
11
74.983308
21
74.309908
0
LINE
8
0
10
74.983300
20
74.309900
11
75.496948
21
73.823610
0
LINE
8
0
10
75.497000
20
73.823600
11
76.611740
21
73.337312
0
LINE
8
0
10
76.611700
20
73.337400
11
77.671794
21
72.872964
0
LINE
8
0
10
77.671794
20
72.872964
11
78.338450
21
72.375744
0
LINE
8
0
10
78.338400
20
72.375700
11
78.694951
21
71.785589
0
LINE
8
0
10
78.694951
20
71.785589
11
78.813800
21
71.042490
0
LINE
8
0
10
78.611700
20
76.583000
11
78.322085
21
75.774323
0
LINE
8
0
10
112.117000
20
71.042500
11
111.925746
21
70.104065
0
LINE
8
0
10
111.925746
20
70.104065
11
111.351979
21
69.397850
0
LINE
8
0
10
111.352000
20
69.397800
11
110.450381
21
68.955218
0
LINE
8
0
10
110.450381
20
68.955218
11
109.275540
21
68.807690
0
LINE
8
0
10
109.275000
20
68.807700
11
108.018192
21
68.899222
0
LINE
8
0
10
108.018192
20
68.899222
11
107.089240
21
69.173790
0
LINE
8
0
10
92.468100
20
68.917000
11
92.468100
21
76.905300
0
LINE
8
0
10
92.468100
20
76.905300
11
93.397100
21
76.905300
0
LINE
8
0
10
93.397100
20
76.905300
11
93.397100
21
68.917000
0
LINE
8
0
10
93.397100
20
68.917000
11
92.468100
21
68.917000
0
LINE
8
0
10
107.090000
20
70.069900
11
108.161020
21
69.742068
0
LINE
8
0
10
108.161000
20
69.742100
11
109.308520
21
69.621892
0
LINE
8
0
10
109.308000
20
69.621900
11
110.122193
21
69.709321
0
LINE
8
0
10
110.122193
20
69.709321
11
110.706880
21
69.971594
0
LINE
8
0
10
110.707000
20
69.971600
11
111.059454
21
70.395053
0
LINE
8
0
10
111.059454
20
70.395053
11
111.176939
21
70.955108
0
LINE
8
0
10
111.177000
20
70.955100
11
111.007601
21
71.632636
0
LINE
8
0
10
111.008000
20
71.632600
11
110.450629
21
72.124354
0
LINE
8
0
10
110.450000
20
72.124400
11
109.264230
21
72.632550
0
LINE
8
0
10
109.264000
20
72.632500
11
108.307733
21
73.068249
0
LINE
8
0
10
108.307733
20
73.068249
11
107.668400
21
73.577760
0
LINE
8
0
10
107.669000
20
73.577800
11
107.312445
21
74.207525
0
LINE
8
0
10
107.312445
20
74.207525
11
107.193595
21
75.003890
0
LINE
8
0
10
107.193000
20
75.003900
11
107.366494
21
75.833061
0
LINE
8
0
10
107.366494
20
75.833061
11
107.886977
21
76.473710
0
LINE
8
0
10
107.887000
20
76.473700
11
108.692996
21
76.883501
0
LINE
8
0
10
108.692996
20
76.883501
11
109.723030
21
77.020098
0
LINE
8
0
10
109.723000
20
77.020100
11
110.866427
21
76.910821
0
LINE
8
0
10
110.866427
20
76.910821
11
111.914220
21
76.582990
0
LINE
8
0
10
107.090000
20
69.173800
11
107.090000
21
70.069900
0
LINE
8
0
10
111.625000
20
75.774300
11
110.649609
21
76.085747
0
LINE
8
0
10
110.649609
20
76.085747
11
109.701530
21
76.189568
0
LINE
8
0
10
109.702000
20
76.189500
11
109.044908
21
76.110270
0
LINE
8
0
10
109.044908
20
76.110270
11
108.549020
21
75.872580
0
LINE
8
0
10
108.549000
20
75.872600
11
108.237530
21
75.494226
0
LINE
8
0
10
108.237530
20
75.494226
11
108.133705
21
74.992904
0
LINE
8
0
10
108.133000
20
74.992900
11
108.286008
21
74.309908
0
LINE
8
0
10
108.286000
20
74.309900
11
108.799651
21
73.823610
0
LINE
8
0
10
108.800000
20
73.823600
11
109.914730
21
73.337312
0
LINE
8
0
10
109.915000
20
73.337400
11
110.975088
21
72.872964
0
LINE
8
0
10
110.975088
20
72.872964
11
111.641740
21
72.375744
0
LINE
8
0
10
111.641000
20
72.375700
11
111.997555
21
71.785589
0
LINE
8
0
10
111.997555
20
71.785589
11
112.116405
21
71.042490
0
LINE
8
0
10
111.915000
20
76.583000
11
111.625387
21
75.774323
0
LINE
8
0
10
125.771000
20
68.917000
11
125.771000
21
76.905300
0
LINE
8
0
10
125.771000
20
76.905300
11
126.700000
21
76.905300
0
LINE
8
0
10
126.700000
20
76.905300
11
126.700000
21
68.917000
0
LINE
8
0
10
126.700000
20
68.917000
11
125.771000
21
68.917000
0
LINE
8
0
10
142.614000
20
76.905300
11
143.984195
21
76.786461
0
LINE
8
0
10
143.984195
20
76.786461
11
144.914500
21
76.429932
0
LINE
8
0
10
144.914000
20
76.430000
11
145.446778
21
75.816676
0
LINE
8
0
10
145.446778
20
75.816676
11
145.624371
21
74.927420
0
LINE
8
0
10
145.625000
20
74.927400
11
145.525274
21
74.278552
0
LINE
8
0
10
145.525274
20
74.278552
11
145.226101
21
73.752640
0
LINE
8
0
10
145.226000
20
73.752600
11
144.741037
21
73.374226
0
LINE
8
0
10
144.741037
20
73.374226
11
144.073010
21
73.157032
0
LINE
8
0
10
140.357000
20
76.905300
11
142.614000
21
76.905300
0
LINE
8
0
10
144.073000
20
73.102400
11
144.869091
21
72.866087
0
LINE
8
0
10
144.869091
20
72.866087
11
145.437729
21
72.468586
0
LINE
8
0
10
145.437729
20
72.468586
11
145.778912
21
71.909897
0
LINE
8
0
10
145.778912
20
71.909897
11
145.892640
21
71.190020
0
LINE
8
0
10
145.893000
20
71.190000
11
145.711311
21
70.236544
0
LINE
8
0
10
145.711311
20
70.236544
11
145.166238
21
69.518030
0
LINE
8
0
10
145.166000
20
69.518000
11
144.299893
21
69.067221
0
LINE
8
0
10
144.299893
20
69.067221
11
143.144180
21
68.916960
0
LINE
8
0
10
144.073000
20
73.157000
11
144.073000
21
73.102400
0
LINE
8
0
10
143.144000
20
68.917000
11
140.357000
21
68.917000
0
LINE
8
0
10
140.357000
20
68.917000
11
140.357000
21
76.905300
0
LINE
8
0
10
142.816000
20
73.484900
11
143.661616
21
73.561398
0
LINE
8
0
10
143.661616
20
73.561398
11
144.231270
21
73.790882
0
LINE
8
0
10
144.231000
20
73.790900
11
144.554771
21
74.207531
0
LINE
8
0
10
144.554771
20
74.207531
11
144.662696
21
74.834520
0
LINE
8
0
10
144.663000
20
74.834500
11
144.542781
21
75.412317
0
LINE
8
0
10
144.542781
20
75.412317
11
144.182128
21
75.801630
0
LINE
8
0
10
144.182000
20
75.801600
11
143.559062
21
76.026986
0
LINE
8
0
10
143.559062
20
76.026986
11
142.651970
21
76.102116
0
LINE
8
0
10
141.286000
20
73.484900
11
142.816000
21
73.484900
0
LINE
8
0
10
142.652000
20
76.102100
11
141.286000
21
76.102100
0
LINE
8
0
10
141.286000
20
76.102100
11
141.286000
21
73.484900
0
LINE
8
0
10
142.953000
20
69.709300
11
143.799980
21
69.802190
0
LINE
8
0
10
143.799980
20
69.802190
11
144.406530
21
70.080857
0
LINE
8
0
10
144.406000
20
70.080800
11
144.774846
21
70.562996
0
LINE
8
0
10
144.774846
20
70.562996
11
144.897794
21
71.255550
0
LINE
8
0
10
144.898000
20
71.255600
11
144.772317
21
71.900345
0
LINE
8
0
10
144.772317
20
71.900345
11
144.395271
21
72.348390
0
LINE
8
0
10
144.395000
20
72.348400
11
143.766600
21
72.610669
0
LINE
8
0
10
143.766600
20
72.610669
11
142.875910
21
72.698094
0
LINE
8
0
10
141.286000
20
72.698100
11
141.286000
21
69.709300
0
LINE
8
0
10
141.286000
20
69.709300
11
142.953000
21
69.709300
0
LINE
8
0
10
142.876000
20
72.698100
11
141.286000
21
72.698100
0
LINE
8
0
10
157.186000
20
75.621300
11
157.273434
21
73.457570
0
LINE
8
0
10
162.656000
20
68.917000
11
161.596000
21
68.917000
0
LINE
8
0
10
161.596000
20
68.917000
11
157.229960
21
75.621290
0
LINE
8
0
10
157.229960
20
75.621290
11
157.186000
21
75.621300
0
LINE
8
0
10
161.864000
20
70.228400
11
161.814825
21
71.173670
0
LINE
8
0
10
161.815000
20
71.173600
11
161.787677
21
72.321020
0
LINE
8
0
10
157.274000
20
73.457600
11
157.274000
21
68.917000
0
LINE
8
0
10
157.274000
20
68.917000
11
156.416000
21
68.917000
0
LINE
8
0
10
156.416000
20
68.917000
11
156.416000
21
76.905300
0
LINE
8
0
10
156.416000
20
76.905300
11
157.465000
21
76.905300
0
LINE
8
0
10
157.465000
20
76.905300
11
161.820110
21
70.228340
0
LINE
8
0
10
161.820110
20
70.228340
11
161.864000
21
70.228400
0
LINE
8
0
10
161.787000
20
72.321000
11
161.787000
21
76.905300
0
LINE
8
0
10
161.787000
20
76.905300
11
162.656000
21
76.905300
0
LINE
8
0
10
162.656000
20
76.905300
11
162.656000
21
68.917000
0
LINE
8
0
10
175.726000
20
68.917000
11
175.726000
21
76.905300
0
LINE
8
0
10
175.726000
20
76.905300
11
176.655000
21
76.905300
0
LINE
8
0
10
176.655000
20
76.905300
11
176.655000
21
68.917000
0
LINE
8
0
10
176.655000
20
68.917000
11
175.726000
21
68.917000
0
LINE
8
0
10
12.251500
20
52.926400
11
11.256981
21
55.467140
0
LINE
8
0
10
11.256981
20
55.467140
11
8.054890
21
55.467200
0
LINE
8
0
10
8.054890
20
55.467200
11
7.071301
21
52.926460
0
LINE
8
0
10
7.071301
20
52.926460
11
6.131420
21
52.926400
0
LINE
8
0
10
6.131420
20
52.926400
11
9.289830
21
60.947490
0
LINE
8
0
10
9.289830
20
60.947490
11
10.071200
21
60.947500
0
LINE
8
0
10
10.071200
20
60.947500
11
13.213220
21
52.926410
0
LINE
8
0
10
13.213220
20
52.926410
11
12.251500
21
52.926400
0
LINE
8
0
10
10.038500
20
58.778300
11
9.666922
21
59.931190
0
LINE
8
0
10
9.666880
20
59.931200
11
9.322624
21
58.778310
0
LINE
8
0
10
10.967400
20
56.303100
11
10.038454
21
58.778280
0
LINE
8
0
10
27.312900
20
60.198900
11
26.133960
21
59.978975
0
LINE
8
0
10
26.133960
20
59.978975
11
25.230970
21
59.319196
0
LINE
8
0
10
25.231000
20
59.319200
11
24.661337
21
58.282421
0
LINE
8
0
10
24.661337
20
58.282421
11
24.471450
21
56.920530
0
LINE
8
0
10
24.471400
20
56.920600
11
24.654457
21
55.530019
0
LINE
8
0
10
24.654457
20
55.530019
11
25.203628
21
54.494600
0
LINE
8
0
10
25.203700
20
54.494600
11
26.097128
21
53.855321
0
LINE
8
0
10
26.097128
20
53.855321
11
27.302020
21
53.642230
0
LINE
8
0
10
27.302000
20
53.642200
11
29.209070
21
53.942708
0
LINE
8
0
10
9.322620
20
58.778300
11
8.382746
21
56.303120
0
LINE
8
0
10
8.382746
20
56.303120
11
10.967400
21
56.303100
0
LINE
8
0
10
29.209000
20
53.128600
11
28.281422
21
52.895009
0
LINE
8
0
10
28.281422
20
52.895009
11
27.159860
21
52.817143
0
LINE
8
0
10
27.159900
20
52.817100
11
25.595719
21
53.084838
0
LINE
8
0
10
25.595719
20
53.084838
11
24.964242
21
53.419508
0
LINE
8
0
10
24.964242
20
53.419508
11
24.433170
21
53.888040
0
LINE
8
0
10
24.433200
20
53.888100
11
24.014833
21
54.479914
0
LINE
8
0
10
24.014833
20
54.479914
11
23.715999
21
55.184422
0
LINE
8
0
10
23.715999
20
55.184422
11
23.476932
21
56.931520
0
LINE
8
0
10
23.476900
20
56.931500
11
23.591652
21
58.089854
0
LINE
8
0
10
23.591652
20
58.089854
11
23.935908
21
59.095220
0
LINE
8
0
10
23.935900
20
59.095200
11
24.501464
21
59.917531
0
LINE
8
0
10
24.501464
20
59.917531
11
25.269210
21
60.526760
0
LINE
8
0
10
25.269200
20
60.526800
11
26.220004
21
60.903814
0
LINE
8
0
10
26.220004
20
60.903814
11
27.323810
21
61.029484
0
LINE
8
0
10
27.323800
20
61.029500
11
28.501374
21
60.914757
0
LINE
8
0
10
28.501374
20
60.914757
11
29.520480
21
60.570528
0
LINE
8
0
10
29.209000
20
53.942700
11
29.209000
21
53.128600
0
LINE
8
0
10
29.127100
20
59.772800
11
28.220014
21
60.092439
0
LINE
8
0
10
28.220014
20
60.092439
11
27.312930
21
60.198988
0
LINE
8
0
10
29.520500
20
60.570500
11
29.127062
21
59.772766
0
LINE
8
0
10
46.010800
20
52.926400
11
45.081900
21
52.926400
0
LINE
8
0
10
45.081900
20
52.926400
11
45.081900
21
56.685600
0
LINE
8
0
10
45.081900
20
56.685600
11
40.874300
21
56.685600
0
LINE
8
0
10
40.874300
20
56.685600
11
40.874300
21
52.926400
0
LINE
8
0
10
40.874300
20
52.926400
11
39.945400
21
52.926400
0
LINE
8
0
10
39.945400
20
52.926400
11
39.945400
21
60.914700
0
LINE
8
0
10
39.945400
20
60.914700
11
40.874300
21
60.914700
0
LINE
8
0
10
40.874300
20
60.914700
11
40.874300
21
57.516100
0
LINE
8
0
10
40.874300
20
57.516100
11
45.081900
21
57.516100
0
LINE
8
0
10
45.081900
20
57.516100
11
45.081900
21
60.914700
0
LINE
8
0
10
45.081900
20
60.914700
11
46.010800
21
60.914700
0
LINE
8
0
10
46.010800
20
60.914700
11
46.010800
21
52.926400
0
LINE
8
0
10
60.088600
20
52.926400
11
59.159700
21
52.926400
0
LINE
8
0
10
59.159700
20
52.926400
11
59.159700
21
60.089700
0
LINE
8
0
10
59.159700
20
60.089700
11
56.629600
21
60.089700
0
LINE
8
0
10
56.629600
20
60.089700
11
56.629600
21
60.914700
0
LINE
8
0
10
56.629600
20
60.914700
11
62.618600
21
60.914700
0
LINE
8
0
10
62.618600
20
60.914700
11
62.618600
21
60.089700
0
LINE
8
0
10
62.618600
20
60.089700
11
60.088600
21
60.089700
0
LINE
8
0
10
60.088600
20
60.089700
11
60.088600
21
52.926400
0
LINE
8
0
10
75.816600
20
52.926400
11
75.816600
21
60.914700
0
LINE
8
0
10
75.816600
20
60.914700
11
76.745600
21
60.914700
0
LINE
8
0
10
76.745600
20
60.914700
11
76.745600
21
52.926400
0
LINE
8
0
10
76.745600
20
52.926400
11
75.816600
21
52.926400
0
LINE
8
0
10
90.580200
20
59.630700
11
90.667631
21
57.466970
0
LINE
8
0
10
96.050000
20
52.926400
11
94.990000
21
52.926400
0
LINE
8
0
10
94.990000
20
52.926400
11
90.623900
21
59.630700
0
LINE
8
0
10
90.623900
20
59.630700
11
90.580200
21
59.630700
0
LINE
8
0
10
95.257700
20
54.237800
11
95.208527
21
55.183070
0
LINE
8
0
10
95.208500
20
55.183000
11
95.181174
21
56.330440
0
LINE
8
0
10
90.667600
20
57.467000
11
90.667600
21
52.926400
0
LINE
8
0
10
90.667600
20
52.926400
11
89.809700
21
52.926400
0
LINE
8
0
10
89.809700
20
52.926400
11
89.809700
21
60.914700
0
LINE
8
0
10
89.809700
20
60.914700
11
90.858900
21
60.914700
0
LINE
8
0
10
90.858900
20
60.914700
11
95.214010
21
54.237740
0
LINE
8
0
10
95.214010
20
54.237740
11
95.257700
21
54.237800
0
LINE
8
0
10
95.181200
20
56.330500
11
95.181200
21
60.914700
0
LINE
8
0
10
95.181200
20
60.914700
11
96.050000
21
60.914700
0
LINE
8
0
10
96.050000
20
60.914700
11
96.050000
21
52.926400
0
LINE
8
0
10
112.639000
20
55.745800
11
112.432724
21
54.525976
0
LINE
8
0
10
112.432724
20
54.525976
11
111.813885
21
53.598480
0
LINE
8
0
10
111.814000
20
53.598500
11
110.834506
21
53.012480
0
LINE
8
0
10
110.834506
20
53.012480
11
109.546280
21
52.817141
0
LINE
8
0
10
109.546000
20
52.817100
11
108.265966
21
53.013807
0
LINE
8
0
10
108.265966
20
53.013807
11
107.311060
21
53.603922
0
LINE
8
0
10
107.311000
20
53.604000
11
106.720851
21
54.538332
0
LINE
8
0
10
106.720851
20
54.538332
11
106.524135
21
55.767730
0
LINE
8
0
10
112.639000
20
60.914700
11
112.639000
21
55.745800
0
LINE
8
0
10
107.453000
20
55.702100
11
107.589609
21
54.818305
0
LINE
8
0
10
107.589609
20
54.818305
11
107.999438
21
54.166730
0
LINE
8
0
10
107.999000
20
54.166700
11
108.673847
21
53.765091
0
LINE
8
0
10
108.673847
20
53.765091
11
109.605530
21
53.631224
0
LINE
8
0
10
109.606000
20
53.631300
11
110.500793
21
53.765168
0
LINE
8
0
10
110.500793
20
53.765168
11
111.163350
21
54.166776
0
LINE
8
0
10
111.163000
20
54.166700
11
111.572824
21
54.823734
0
LINE
8
0
10
111.572824
20
54.823734
11
111.709435
21
55.712990
0
LINE
8
0
10
106.524000
20
55.767700
11
106.524000
21
60.914700
0
LINE
8
0
10
106.524000
20
60.914700
11
107.453000
21
60.914700
0
LINE
8
0
10
107.453000
20
60.914700
11
107.453000
21
55.702100
0
LINE
8
0
10
108.027000
20
62.384500
11
108.169070
21
62.794302
0
LINE
8
0
10
108.169000
20
62.794300
11
108.518723
21
62.919974
0
LINE
8
0
10
108.519000
20
62.920000
11
108.874189
21
62.794326
0
LINE
8
0
10
108.874000
20
62.794300
11
109.026998
21
62.384498
0
LINE
8
0
10
109.027000
20
62.384500
11
108.874002
21
61.974706
0
LINE
8
0
10
108.874000
20
61.974700
11
108.518811
21
61.843570
0
LINE
8
0
10
108.519000
20
61.843600
11
108.169277
21
61.974730
0
LINE
8
0
10
108.169000
20
61.974700
11
108.026930
21
62.384494
0
LINE
8
0
10
111.710000
20
55.713000
11
111.710000
21
60.914700
0
LINE
8
0
10
111.710000
20
60.914700
11
112.639000
21
60.914700
0
LINE
8
0
10
110.109000
20
62.384500
11
110.251076
21
62.794302
0
LINE
8
0
10
110.251000
20
62.794300
11
110.600721
21
62.919974
0
LINE
8
0
10
110.600000
20
62.920000
11
110.949723
21
62.794326
0
LINE
8
0
10
110.950000
20
62.794300
11
111.103006
21
62.384498
0
LINE
8
0
10
111.103000
20
62.384500
11
110.949994
21
61.974706
0
LINE
8
0
10
110.950000
20
61.974700
11
110.600277
21
61.843570
0
LINE
8
0
10
110.600000
20
61.843600
11
110.250279
21
61.974730
0
LINE
8
0
10
110.251000
20
61.974700
11
110.108924
21
62.384494
0
LINE
8
0
10
123.883000
20
59.630700
11
123.970434
21
57.466970
0
LINE
8
0
10
129.353000
20
52.926400
11
128.293000
21
52.926400
0
LINE
8
0
10
128.293000
20
52.926400
11
123.926960
21
59.630680
0
LINE
8
0
10
123.926960
20
59.630680
11
123.883000
21
59.630700
0
LINE
8
0
10
128.561000
20
54.237800
11
128.511827
21
55.183070
0
LINE
8
0
10
128.512000
20
55.183000
11
128.484674
21
56.330440
0
LINE
8
0
10
123.971000
20
57.467000
11
123.971000
21
52.926400
0
LINE
8
0
10
123.971000
20
52.926400
11
123.113000
21
52.926400
0
LINE
8
0
10
123.113000
20
52.926400
11
123.113000
21
60.914700
0
LINE
8
0
10
123.113000
20
60.914700
11
124.162000
21
60.914700
0
LINE
8
0
10
124.162000
20
60.914700
11
128.517120
21
54.237740
0
LINE
8
0
10
128.517120
20
54.237740
11
128.561000
21
54.237800
0
LINE
8
0
10
128.484000
20
56.330500
11
128.484000
21
60.914700
0
LINE
8
0
10
128.484000
20
60.914700
11
129.353000
21
60.914700
0
LINE
8
0
10
129.353000
20
60.914700
11
129.353000
21
52.926400
0
LINE
8
0
10
163.211000
20
56.931500
11
162.967837
21
55.218545
0
LINE
8
0
10
162.967837
20
55.218545
11
162.663881
21
54.515743
0
LINE
8
0
10
162.663881
20
54.515743
11
162.238343
21
53.915390
0
LINE
8
0
10
162.238000
20
53.915400
11
161.706931
21
53.434913
0
LINE
8
0
10
161.706931
20
53.434913
11
161.080917
21
53.091706
0
LINE
8
0
10
161.080917
20
53.091706
11
160.359960
21
52.885782
0
LINE
8
0
10
160.359960
20
52.885782
11
159.544060
21
52.817140
0
LINE
8
0
10
159.544000
20
52.817100
11
157.979815
21
53.086202
0
LINE
8
0
10
157.979815
20
53.086202
11
157.348338
21
53.422578
0
LINE
8
0
10
157.348338
20
53.422578
11
156.817270
21
53.893500
0
LINE
8
0
10
156.817000
20
53.893500
11
156.398634
21
54.489757
0
LINE
8
0
10
156.398634
20
54.489757
11
156.099801
21
55.196658
0
LINE
8
0
10
156.099801
20
55.196658
11
155.860734
21
56.942400
0
LINE
8
0
10
155.861000
20
56.942400
11
156.101433
21
58.673108
0
LINE
8
0
10
156.101433
20
58.673108
11
156.401975
21
59.373519
0
LINE
8
0
10
156.401975
20
59.373519
11
156.822733
21
59.963970
0
LINE
8
0
10
156.823000
20
59.964000
11
157.354413
21
60.434926
0
LINE
8
0
10
157.354413
20
60.434926
11
157.986916
21
60.771301
0
LINE
8
0
10
157.986916
20
60.771301
11
159.555190
21
61.040400
0
LINE
8
0
10
159.555000
20
61.040400
11
160.368510
21
60.972101
0
LINE
8
0
10
160.368510
20
60.972101
11
161.087761
21
60.767203
0
LINE
8
0
10
161.087761
20
60.767203
11
161.712754
21
60.425706
0
LINE
8
0
10
161.712754
20
60.425706
11
162.243490
21
59.947610
0
LINE
8
0
10
162.244000
20
59.947600
11
162.667144
21
59.349299
0
LINE
8
0
10
162.667144
20
59.349299
11
162.969391
21
58.647182
0
LINE
8
0
10
162.969391
20
58.647182
11
163.211188
21
56.931500
0
LINE
8
0
10
142.423000
20
52.926400
11
142.423000
21
60.914700
0
LINE
8
0
10
142.423000
20
60.914700
11
143.352000
21
60.914700
0
LINE
8
0
10
143.352000
20
60.914700
11
143.352000
21
52.926400
0
LINE
8
0
10
143.352000
20
52.926400
11
142.423000
21
52.926400
0
LINE
8
0
10
156.845000
20
56.931500
11
157.017129
21
55.504039
0
LINE
8
0
10
157.017129
20
55.504039
11
157.533511
21
54.467260
0
LINE
8
0
10
157.533000
20
54.467300
11
158.382713
21
53.840306
0
LINE
8
0
10
158.382713
20
53.840306
11
159.543900
21
53.631308
0
LINE
8
0
10
159.544000
20
53.631300
11
160.709283
21
53.840298
0
LINE
8
0
10
160.709283
20
53.840298
11
161.549430
21
54.467292
0
LINE
8
0
10
161.550000
20
54.467300
11
162.058183
21
55.501348
0
LINE
8
0
10
162.058183
20
55.501348
11
162.227576
21
56.931540
0
LINE
8
0
10
162.227000
20
56.931500
11
162.057607
21
58.348029
0
LINE
8
0
10
162.057607
20
58.348029
11
161.549424
21
59.373890
0
LINE
8
0
10
161.550000
20
59.373900
11
160.715312
21
60.000885
0
LINE
8
0
10
160.715312
20
60.000885
11
159.555490
21
60.209882
0
LINE
8
0
10
159.555000
20
60.209900
11
158.385625
21
59.999538
0
LINE
8
0
10
158.385625
20
59.999538
11
157.533180
21
59.368452
0
LINE
8
0
10
157.533000
20
59.368400
11
157.016618
21
58.341171
0
LINE
8
0
10
157.016618
20
58.341171
11
156.844489
21
56.931470
0
LINE
8
0
10
10.661400
20
44.208400
11
9.482459
21
43.988476
0
LINE
8
0
10
9.482459
20
43.988476
11
8.579470
21
43.328704
0
LINE
8
0
10
8.579470
20
43.328700
11
8.009808
21
42.291913
0
LINE
8
0
10
8.009808
20
42.291913
11
7.819920
21
40.930020
0
LINE
8
0
10
7.819920
20
40.930000
11
8.002977
21
39.539417
0
LINE
8
0
10
8.002977
20
39.539417
11
8.552148
21
38.503990
0
LINE
8
0
10
8.552150
20
38.504000
11
9.445578
21
37.864721
0
LINE
8
0
10
9.445578
20
37.864721
11
10.650470
21
37.651630
0
LINE
8
0
10
10.650500
20
37.651600
11
12.557570
21
37.952116
0
LINE
8
0
10
175.327000
20
52.926400
11
174.398000
21
52.926400
0
LINE
8
0
10
174.398000
20
52.926400
11
174.398000
21
60.914700
0
LINE
8
0
10
174.398000
20
60.914700
11
178.851000
21
60.914700
0
LINE
8
0
10
178.851000
20
60.914700
11
178.851000
21
60.089700
0
LINE
8
0
10
178.851000
20
60.089700
11
175.327000
21
60.089700
0
LINE
8
0
10
175.327000
20
60.089700
11
175.327000
21
57.166500
0
LINE
8
0
10
175.327000
20
57.166500
11
178.638000
21
57.166500
0
LINE
8
0
10
178.638000
20
57.166500
11
178.638000
21
56.341400
0
LINE
8
0
10
178.638000
20
56.341400
11
175.327000
21
56.341400
0
LINE
8
0
10
175.327000
20
56.341400
11
175.327000
21
52.926400
0
LINE
8
0
10
12.557500
20
37.138000
11
11.629921
21
36.904422
0
LINE
8
0
10
11.629921
20
36.904422
11
10.508350
21
36.826562
0
LINE
8
0
10
10.508400
20
36.826500
11
8.944222
21
37.094233
0
LINE
8
0
10
8.944222
20
37.094233
11
8.312743
21
37.428899
0
LINE
8
0
10
8.312743
20
37.428899
11
7.781670
21
37.897430
0
LINE
8
0
10
7.781670
20
37.897500
11
7.363303
21
38.489320
0
LINE
8
0
10
7.363303
20
38.489320
11
7.064470
21
39.193831
0
LINE
8
0
10
7.064470
20
39.193831
11
6.825403
21
40.940930
0
LINE
8
0
10
6.825400
20
40.940900
11
6.940152
21
42.099251
0
LINE
8
0
10
6.940152
20
42.099251
11
7.284408
21
43.104620
0
LINE
8
0
10
7.284410
20
43.104600
11
7.849974
21
43.926931
0
LINE
8
0
10
7.849974
20
43.926931
11
8.617720
21
44.536160
0
LINE
8
0
10
8.617720
20
44.536200
11
9.568524
21
44.913214
0
LINE
8
0
10
9.568524
20
44.913214
11
10.672330
21
45.038884
0
LINE
8
0
10
10.672300
20
45.038900
11
11.849875
21
44.924160
0
LINE
8
0
10
11.849875
20
44.924160
11
12.868980
21
44.579928
0
LINE
8
0
10
12.557500
20
37.952100
11
12.557500
21
37.138000
0
LINE
8
0
10
12.475600
20
43.782200
11
11.568511
21
44.101844
0
LINE
8
0
10
11.568511
20
44.101844
11
10.661420
21
44.208390
0
LINE
8
0
10
12.869000
20
44.579900
11
12.475564
21
43.782164
0
LINE
8
0
10
29.069700
20
36.935800
11
23.578000
21
36.935800
0
LINE
8
0
10
23.578000
20
36.935800
11
23.578000
21
37.662500
0
LINE
8
0
10
23.578000
20
37.662500
11
27.818400
21
44.088100
0
LINE
8
0
10
27.818400
20
44.088100
11
23.709100
21
44.088100
0
LINE
8
0
10
23.709100
20
44.088100
11
23.709100
21
44.924100
0
LINE
8
0
10
23.709100
20
44.924100
11
28.949500
21
44.924100
0
LINE
8
0
10
28.949500
20
44.924100
11
28.949500
21
44.197400
0
LINE
8
0
10
28.949500
20
44.197400
11
24.709140
21
37.777250
0
LINE
8
0
10
24.709140
20
37.777250
11
29.069700
21
37.777300
0
LINE
8
0
10
29.069700
20
37.777300
11
29.069700
21
36.935800
0
LINE
8
0
10
45.554500
20
36.935800
11
44.559983
21
39.476550
0
LINE
8
0
10
44.559983
20
39.476550
11
41.357900
21
39.476600
0
LINE
8
0
10
41.357900
20
39.476600
11
40.374310
21
36.935850
0
LINE
8
0
10
40.374310
20
36.935850
11
39.434400
21
36.935800
0
LINE
8
0
10
39.434400
20
36.935800
11
42.592810
21
44.956900
0
LINE
8
0
10
42.592810
20
44.956900
11
43.374300
21
44.956900
0
LINE
8
0
10
43.374300
20
44.956900
11
46.516320
21
36.935800
0
LINE
8
0
10
46.516320
20
36.935800
11
45.554500
21
36.935800
0
LINE
8
0
10
43.341500
20
42.787700
11
42.969922
21
43.940600
0
LINE
8
0
10
42.969900
20
43.940600
11
42.625643
21
42.787700
0
LINE
8
0
10
44.270400
20
40.312500
11
43.341457
21
42.787670
0
LINE
8
0
10
41.423500
20
46.393900
11
41.565570
21
46.803702
0
LINE
8
0
10
41.565500
20
46.803700
11
41.915223
21
46.929364
0
LINE
8
0
10
41.915300
20
46.929400
11
42.270484
21
46.803736
0
LINE
8
0
10
42.270400
20
46.803700
11
42.423406
21
46.393898
0
LINE
8
0
10
42.423500
20
46.393900
11
42.270494
21
45.984106
0
LINE
8
0
10
42.270400
20
45.984100
11
41.915216
21
45.852962
0
LINE
8
0
10
41.915300
20
45.853000
11
41.565577
21
45.984138
0
LINE
8
0
10
41.565500
20
45.984100
11
41.423430
21
46.393894
0
LINE
8
0
10
42.625600
20
42.787700
11
41.685724
21
40.312530
0
LINE
8
0
10
41.685724
20
40.312530
11
44.270400
21
40.312500
0
LINE
8
0
10
43.505400
20
46.393900
11
43.647473
21
46.803702
0
LINE
8
0
10
43.647500
20
46.803700
11
43.997223
21
46.929364
0
LINE
8
0
10
43.997200
20
46.929400
11
44.346921
21
46.803736
0
LINE
8
0
10
44.346900
20
46.803700
11
44.499900
21
46.393898
0
LINE
8
0
10
44.499900
20
46.393900
11
44.346900
21
45.984106
0
LINE
8
0
10
44.346900
20
45.984100
11
43.997179
21
45.852962
0
LINE
8
0
10
43.997200
20
45.853000
11
43.647477
21
45.984138
0
LINE
8
0
10
43.647500
20
45.984100
11
43.505427
21
46.393894
0
LINE
8
0
10
57.277200
20
43.640100
11
57.364632
21
41.476370
0
LINE
8
0
10
62.747000
20
36.935800
11
61.686900
21
36.935800
0
LINE
8
0
10
61.686900
20
36.935800
11
57.320850
21
43.640090
0
LINE
8
0
10
57.320850
20
43.640090
11
57.277200
21
43.640100
0
LINE
8
0
10
61.954700
20
38.247200
11
61.905519
21
39.192470
0
LINE
8
0
10
61.905500
20
39.192400
11
61.878177
21
40.339830
0
LINE
8
0
10
57.364600
20
41.476400
11
57.364600
21
36.935800
0
LINE
8
0
10
57.364600
20
36.935800
11
56.506700
21
36.935800
0
LINE
8
0
10
56.506700
20
36.935800
11
56.506700
21
44.924100
0
LINE
8
0
10
56.506700
20
44.924100
11
57.555900
21
44.924100
0
LINE
8
0
10
57.555900
20
44.924100
11
61.911020
21
38.247140
0
LINE
8
0
10
61.911020
20
38.247140
11
61.954700
21
38.247200
0
LINE
8
0
10
61.878200
20
40.339900
11
61.878200
21
44.924100
0
LINE
8
0
10
61.878200
20
44.924100
11
62.747000
21
44.924100
0
LINE
8
0
10
62.747000
20
44.924100
11
62.747000
21
36.935800
0
LINE
8
0
10
75.816600
20
36.935800
11
75.816600
21
44.924100
0
LINE
8
0
10
75.816600
20
44.924100
11
76.745600
21
44.924100
0
LINE
8
0
10
76.745600
20
44.924100
11
76.745600
21
36.935800
0
LINE
8
0
10
76.745600
20
36.935800
11
75.816600
21
36.935800
0
LINE
8
0
10
95.369700
20
36.935800
11
90.916300
21
36.935800
0
LINE
8
0
10
90.916300
20
36.935800
11
90.916300
21
44.924100
0
LINE
8
0
10
90.916300
20
44.924100
11
95.369700
21
44.924100
0
LINE
8
0
10
95.369700
20
44.924100
11
95.369700
21
44.099100
0
LINE
8
0
10
95.369700
20
44.099100
11
91.845200
21
44.099100
0
LINE
8
0
10
91.845200
20
44.099100
11
91.845200
21
41.525500
0
LINE
8
0
10
91.845200
20
41.525500
11
95.156600
21
41.525500
0
LINE
8
0
10
95.156600
20
41.525500
11
95.156600
21
40.705900
0
LINE
8
0
10
95.156600
20
40.705900
11
91.845200
21
40.705900
0
LINE
8
0
10
91.845200
20
40.705900
11
91.845200
21
37.766300
0
LINE
8
0
10
91.845200
20
37.766300
11
95.369700
21
37.766300
0
LINE
8
0
10
95.369700
20
37.766300
11
95.369700
21
36.935800
0
LINE
8
0
10
107.775000
20
36.935800
11
107.775000
21
44.924100
0
LINE
8
0
10
107.775000
20
44.924100
11
108.704000
21
44.924100
0
LINE
8
0
10
108.704000
20
44.924100
11
108.704000
21
37.777300
0
LINE
8
0
10
108.704000
20
37.777300
11
112.229000
21
37.777300
0
LINE
8
0
10
112.229000
20
37.777300
11
112.229000
21
36.935800
0
LINE
8
0
10
112.229000
20
36.935800
11
107.775000
21
36.935800
0
LINE
8
0
10
125.372000
20
36.935800
11
124.443000
21
36.935800
0
LINE
8
0
10
124.443000
20
36.935800
11
124.443000
21
44.924100
0
LINE
8
0
10
124.443000
20
44.924100
11
128.897000
21
44.924100
0
LINE
8
0
10
128.897000
20
44.924100
11
128.897000
21
44.099100
0
LINE
8
0
10
128.897000
20
44.099100
11
125.372000
21
44.099100
0
LINE
8
0
10
125.372000
20
44.099100
11
125.372000
21
41.175900
0
LINE
8
0
10
125.372000
20
41.175900
11
128.684000
21
41.175900
0
LINE
8
0
10
128.684000
20
41.175900
11
128.684000
21
40.350800
0
LINE
8
0
10
128.684000
20
40.350800
11
125.372000
21
40.350800
0
LINE
8
0
10
125.372000
20
40.350800
11
125.372000
21
36.935800
0
LINE
8
0
10
162.932000
20
41.006500
11
162.864720
21
40.075575
0
LINE
8
0
10
162.864720
20
40.075575
11
162.662880
21
39.260761
0
LINE
8
0
10
162.662880
20
39.260761
11
162.326480
21
38.562056
0
LINE
8
0
10
162.326480
20
38.562056
11
161.855520
21
37.979460
0
LINE
8
0
10
161.856000
20
37.979400
11
161.261406
21
37.522818
0
LINE
8
0
10
161.261406
20
37.522818
11
160.548645
21
37.196687
0
LINE
8
0
10
160.548645
20
37.196687
11
158.768620
21
36.935780
0
LINE
8
0
10
142.423000
20
36.935800
11
142.423000
21
44.924100
0
LINE
8
0
10
142.423000
20
44.924100
11
143.352000
21
44.924100
0
LINE
8
0
10
143.352000
20
44.924100
11
143.352000
21
36.935800
0
LINE
8
0
10
143.352000
20
36.935800
11
142.423000
21
36.935800
0
LINE
8
0
10
159.003000
20
44.924100
11
160.658709
21
44.665928
0
LINE
8
0
10
160.658709
20
44.665928
11
161.330826
21
44.343212
0
LINE
8
0
10
161.330826
20
44.343212
11
161.899120
21
43.891410
0
LINE
8
0
10
161.899000
20
43.891400
11
162.350842
21
43.323832
0
LINE
8
0
10
162.350842
20
43.323832
11
162.673586
21
42.653816
0
LINE
8
0
10
162.673586
20
42.653816
11
162.931780
21
41.006430
0
LINE
8
0
10
158.768000
20
36.935800
11
156.555000
21
36.935800
0
LINE
8
0
10
156.555000
20
36.935800
11
156.555000
21
44.924100
0
LINE
8
0
10
156.555000
20
44.924100
11
159.003000
21
44.924100
0
LINE
8
0
10
161.948000
20
40.973700
11
161.751283
21
42.343790
0
LINE
8
0
10
161.751283
20
42.343790
11
161.161133
21
43.328680
0
LINE
8
0
10
161.162000
20
43.328700
11
160.189339
21
43.922904
0
LINE
8
0
10
160.189339
20
43.922904
11
158.834170
21
44.120970
0
LINE
8
0
10
158.615000
20
37.739000
11
160.069899
21
37.942529
0
LINE
8
0
10
160.069899
20
37.942529
11
161.112230
21
38.553122
0
LINE
8
0
10
161.112000
20
38.553100
11
161.739040
21
39.568030
0
LINE
8
0
10
161.739040
20
39.568030
11
161.948051
21
40.973630
0
LINE
8
0
10
158.834000
20
44.120900
11
157.484000
21
44.120900
0
LINE
8
0
10
157.484000
20
44.120900
11
157.484000
21
37.739000
0
LINE
8
0
10
157.484000
20
37.739000
11
158.615000
21
37.739000
0
LINE
8
0
10
13.347100
20
24.950300
11
13.103934
21
23.237337
0
LINE
8
0
10
13.103934
20
23.237337
11
12.799978
21
22.534534
0
LINE
8
0
10
12.799978
20
22.534534
11
12.374439
21
21.934190
0
LINE
8
0
10
12.374500
20
21.934200
11
11.843429
21
21.453708
0
LINE
8
0
10
11.843429
20
21.453708
11
11.217415
21
21.110502
0
LINE
8
0
10
11.217415
20
21.110502
11
10.496459
21
20.904580
0
LINE
8
0
10
10.496459
20
20.904580
11
9.680560
21
20.835940
0
LINE
8
0
10
9.680540
20
20.835900
11
8.116363
21
21.105000
0
LINE
8
0
10
8.116363
20
21.105000
11
7.484883
21
21.441375
0
LINE
8
0
10
7.484883
20
21.441375
11
6.953810
21
21.912300
0
LINE
8
0
10
6.953810
20
21.912300
11
6.535443
21
22.508548
0
LINE
8
0
10
6.535443
20
22.508548
11
6.236609
21
23.215450
0
LINE
8
0
10
6.236609
20
23.215450
11
5.997542
21
24.961200
0
LINE
8
0
10
5.997550
20
24.961200
11
6.237983
21
26.691891
0
LINE
8
0
10
6.237983
20
26.691891
11
6.538524
21
27.392304
0
LINE
8
0
10
6.538524
20
27.392304
11
6.959282
21
27.982760
0
LINE
8
0
10
6.959280
20
27.982800
11
7.490692
21
28.453726
0
LINE
8
0
10
7.490692
20
28.453726
11
8.123195
21
28.790101
0
LINE
8
0
10
8.123195
20
28.790101
11
9.691470
21
29.059200
0
LINE
8
0
10
9.691470
20
29.059200
11
10.504980
21
28.990898
0
LINE
8
0
10
10.504980
20
28.990898
11
11.224230
21
28.785995
0
LINE
8
0
10
11.224230
20
28.785995
11
11.849220
21
28.444491
0
LINE
8
0
10
11.849220
20
28.444491
11
12.379950
21
27.966390
0
LINE
8
0
10
12.379900
20
27.966400
11
12.803048
21
27.368097
0
LINE
8
0
10
12.803048
20
27.368097
11
13.105297
21
26.665982
0
LINE
8
0
10
13.105297
20
26.665982
11
13.347097
21
24.950310
0
LINE
8
0
10
175.726000
20
36.935800
11
175.726000
21
44.924100
0
LINE
8
0
10
175.726000
20
44.924100
11
176.655000
21
44.924100
0
LINE
8
0
10
176.655000
20
44.924100
11
176.655000
21
36.935800
0
LINE
8
0
10
176.655000
20
36.935800
11
175.726000
21
36.935800
0
LINE
8
0
10
6.981130
20
24.950300
11
7.153258
21
23.522834
0
LINE
8
0
10
7.153258
20
23.522834
11
7.669643
21
22.486050
0
LINE
8
0
10
7.669650
20
22.486000
11
8.519362
21
21.858995
0
LINE
8
0
10
8.519362
20
21.858995
11
9.680540
21
21.649997
0
LINE
8
0
10
9.680540
20
21.650000
11
10.845821
21
21.858998
0
LINE
8
0
10
10.845821
20
21.858998
11
11.685970
21
22.486003
0
LINE
8
0
10
11.686000
20
22.486000
11
12.194188
21
23.520053
0
LINE
8
0
10
12.194188
20
23.520053
11
12.363584
21
24.950250
0
LINE
8
0
10
12.363600
20
24.950300
11
12.194204
21
26.366829
0
LINE
8
0
10
12.194204
20
26.366829
11
11.686016
21
27.392690
0
LINE
8
0
10
11.686000
20
27.392700
11
10.851316
21
28.019682
0
LINE
8
0
10
10.851316
20
28.019682
11
9.691500
21
28.228676
0
LINE
8
0
10
9.691470
20
28.228700
11
8.522092
21
28.018337
0
LINE
8
0
10
8.522092
20
28.018337
11
7.669650
21
27.387247
0
LINE
8
0
10
7.669650
20
27.387200
11
7.153265
21
26.359976
0
LINE
8
0
10
7.153265
20
26.359976
11
6.981137
21
24.950280
0
LINE
8
0
10
29.758200
20
20.945200
11
28.665300
21
20.945200
0
LINE
8
0
10
28.665300
20
20.945200
11
25.752780
21
24.819140
0
LINE
8
0
10
25.752780
20
24.819140
11
24.916729
21
24.076032
0
LINE
8
0
10
24.916729
20
24.076032
11
24.916800
21
20.945200
0
LINE
8
0
10
24.916800
20
20.945200
11
23.987800
21
20.945200
0
LINE
8
0
10
23.987800
20
20.945200
11
23.987800
21
28.933500
0
LINE
8
0
10
23.987800
20
28.933500
11
24.916800
21
28.933500
0
LINE
8
0
10
24.916800
20
28.933500
11
24.916800
21
24.972100
0
LINE
8
0
10
24.916800
20
24.972100
11
28.539690
21
28.933490
0
LINE
8
0
10
28.539690
20
28.933490
11
29.638000
21
28.933500
0
LINE
8
0
10
29.638000
20
28.933500
11
26.424940
21
25.463860
0
LINE
8
0
10
26.424940
20
25.463860
11
29.758200
21
20.945200
0
LINE
8
0
10
46.229400
20
21.245700
11
44.939800
21
20.939736
0
LINE
8
0
10
44.939800
20
20.939700
11
43.420700
21
20.835878
0
LINE
8
0
10
43.420700
20
20.835900
11
41.807339
21
21.105000
0
LINE
8
0
10
41.807339
20
21.105000
11
41.151270
21
21.441375
0
LINE
8
0
10
41.151270
20
21.441375
11
40.595610
21
21.912300
0
LINE
8
0
10
40.595600
20
21.912300
11
40.153326
21
22.507180
0
LINE
8
0
10
40.153326
20
22.507180
11
39.837417
21
23.209976
0
LINE
8
0
10
39.837417
20
23.209976
11
39.584690
21
24.939310
0
LINE
8
0
10
39.584700
20
24.939300
11
39.709014
21
26.107226
0
LINE
8
0
10
39.709014
20
26.107226
11
40.081957
21
27.119440
0
LINE
8
0
10
40.082000
20
27.119500
11
40.694012
21
27.947285
0
LINE
8
0
10
40.694012
20
27.947285
11
41.524600
21
28.551050
0
LINE
8
0
10
41.524600
20
28.551000
11
42.545073
21
28.923927
0
LINE
8
0
10
42.545073
20
28.923927
11
43.726750
21
29.048231
0
LINE
8
0
10
43.726700
20
29.048200
11
44.961651
21
28.930725
0
LINE
8
0
10
44.961651
20
28.930725
11
46.109170
21
28.578301
0
LINE
8
0
10
43.513600
20
25.130600
11
46.229400
21
25.130600
0
LINE
8
0
10
46.229400
20
25.130600
11
46.229400
21
21.245700
0
LINE
8
0
10
45.748500
20
27.758800
11
44.687042
21
28.103023
0
LINE
8
0
10
44.687042
20
28.103023
11
43.666570
21
28.217772
0
LINE
8
0
10
43.666600
20
28.217700
11
42.367443
21
28.000507
0
LINE
8
0
10
42.367443
20
28.000507
11
41.387950
21
27.348915
0
LINE
8
0
10
41.388000
20
27.348900
11
40.773257
21
26.312120
0
LINE
8
0
10
40.773257
20
26.312120
11
40.568343
21
24.939290
0
LINE
8
0
10
40.568300
20
24.939300
11
40.765017
21
23.517321
0
LINE
8
0
10
40.765017
20
23.517321
11
41.355172
21
22.486010
0
LINE
8
0
10
41.355200
20
22.486000
11
42.331955
21
21.858995
0
LINE
8
0
10
42.331955
20
21.858995
11
43.677560
21
21.649997
0
LINE
8
0
10
43.677500
20
21.650000
11
45.300420
21
21.841241
0
LINE
8
0
10
46.109200
20
28.578400
11
45.748550
21
27.758801
0
LINE
8
0
10
45.300500
20
21.841300
11
45.300500
21
24.300100
0
LINE
8
0
10
45.300500
20
24.300100
11
43.513600
21
24.300100
0
LINE
8
0
10
43.513600
20
24.300100
11
43.513600
21
25.130600
0
LINE
8
0
10
62.372700
20
20.945200
11
56.881000
21
20.945200
0
LINE
8
0
10
56.881000
20
20.945200
11
56.881000
21
21.671900
0
LINE
8
0
10
56.881000
20
21.671900
11
61.121360
21
28.097510
0
LINE
8
0
10
61.121360
20
28.097510
11
57.012200
21
28.097500
0
LINE
8
0
10
57.012200
20
28.097500
11
57.012200
21
28.933500
0
LINE
8
0
10
57.012200
20
28.933500
11
62.252500
21
28.933500
0
LINE
8
0
10
62.252500
20
28.933500
11
62.252500
21
28.206800
0
LINE
8
0
10
62.252500
20
28.206800
11
58.012140
21
21.786640
0
LINE
8
0
10
58.012140
20
21.786640
11
62.372700
21
21.786600
0
LINE
8
0
10
62.372700
20
21.786600
11
62.372700
21
20.945200
0
LINE
8
0
10
76.639000
20
26.294400
11
76.382175
21
27.190490
0
LINE
8
0
10
76.382200
20
27.190500
11
76.234658
21
27.840686
0
LINE
8
0
10
76.234700
20
27.840700
11
75.852195
21
26.261620
0
LINE
8
0
10
79.169000
20
20.945200
11
78.251000
21
20.945200
0
LINE
8
0
10
78.251000
20
20.945200
11
76.639010
21
26.294430
0
LINE
8
0
10
73.491500
20
23.999600
11
73.874008
21
22.119980
0
LINE
8
0
10
73.874000
20
22.119900
11
74.311149
21
24.075990
0
LINE
8
0
10
75.852200
20
26.261600
11
74.289380
21
20.945180
0
LINE
8
0
10
74.289380
20
20.945180
11
73.371300
21
20.945200
0
LINE
8
0
10
73.371300
20
20.945200
11
71.245650
21
28.933520
0
LINE
8
0
10
71.245650
20
28.933520
11
72.229300
21
28.933500
0
LINE
8
0
10
72.229300
20
28.933500
11
73.491580
21
23.999560
0
LINE
8
0
10
78.229200
20
24.032300
11
78.671816
21
22.119890
0
LINE
8
0
10
78.671800
20
22.119900
11
79.065232
21
24.010450
0
LINE
8
0
10
74.311200
20
24.076000
11
75.742870
21
28.933480
0
LINE
8
0
10
75.742870
20
28.933480
11
76.726500
21
28.933500
0
LINE
8
0
10
76.726500
20
28.933500
11
78.229210
21
24.032340
0
LINE
8
0
10
96.604700
20
24.950300
11
96.361537
21
23.237337
0
LINE
8
0
10
96.361537
20
23.237337
11
96.057582
21
22.534534
0
LINE
8
0
10
96.057582
20
22.534534
11
95.632043
21
21.934190
0
LINE
8
0
10
95.632000
20
21.934200
11
95.100928
21
21.453708
0
LINE
8
0
10
95.100928
20
21.453708
11
94.474914
21
21.110502
0
LINE
8
0
10
94.474914
20
21.110502
11
93.753958
21
20.904580
0
LINE
8
0
10
93.753958
20
20.904580
11
92.938060
21
20.835940
0
LINE
8
0
10
92.938100
20
20.835900
11
91.373922
21
21.105000
0
LINE
8
0
10
91.373922
20
21.105000
11
90.742443
21
21.441375
0
LINE
8
0
10
90.742443
20
21.441375
11
90.211370
21
21.912300
0
LINE
8
0
10
90.211300
20
21.912300
11
89.792935
21
22.508548
0
LINE
8
0
10
89.792935
20
22.508548
11
89.494103
21
23.215450
0
LINE
8
0
10
89.494103
20
23.215450
11
89.255036
21
24.961200
0
LINE
8
0
10
89.255100
20
24.961200
11
89.495533
21
26.691891
0
LINE
8
0
10
89.495533
20
26.691891
11
89.796073
21
27.392304
0
LINE
8
0
10
89.796073
20
27.392304
11
90.216830
21
27.982760
0
LINE
8
0
10
90.216800
20
27.982800
11
90.748212
21
28.453726
0
LINE
8
0
10
90.748212
20
28.453726
11
91.380716
21
28.790101
0
LINE
8
0
10
91.380716
20
28.790101
11
92.949000
21
29.059200
0
LINE
8
0
10
92.949000
20
29.059200
11
93.762510
21
28.990898
0
LINE
8
0
10
93.762510
20
28.990898
11
94.481760
21
28.785995
0
LINE
8
0
10
94.481760
20
28.785995
11
95.106750
21
28.444491
0
LINE
8
0
10
95.106750
20
28.444491
11
95.637480
21
27.966390
0
LINE
8
0
10
95.637500
20
27.966400
11
96.060646
21
27.368097
0
LINE
8
0
10
96.060646
20
27.368097
11
96.362893
21
26.665982
0
LINE
8
0
10
96.362893
20
26.665982
11
96.604691
21
24.950310
0
LINE
8
0
10
79.065200
20
24.010500
11
80.322010
21
28.933520
0
LINE
8
0
10
80.322010
20
28.933520
11
81.305600
21
28.933500
0
LINE
8
0
10
81.305600
20
28.933500
11
79.169030
21
20.945180
0
LINE
8
0
10
90.238700
20
24.950300
11
90.410829
21
23.522834
0
LINE
8
0
10
90.410829
20
23.522834
11
90.927214
21
22.486050
0
LINE
8
0
10
90.927200
20
22.486000
11
91.776911
21
21.858995
0
LINE
8
0
10
91.776911
20
21.858995
11
92.938090
21
21.649997
0
LINE
8
0
10
92.938100
20
21.650000
11
94.103384
21
21.858998
0
LINE
8
0
10
94.103384
20
21.858998
11
94.943540
21
22.486003
0
LINE
8
0
10
94.943500
20
22.486000
11
95.451685
21
23.520053
0
LINE
8
0
10
95.451685
20
23.520053
11
95.621084
21
24.950250
0
LINE
8
0
10
95.621100
20
24.950300
11
95.451701
21
26.366829
0
LINE
8
0
10
95.451701
20
26.366829
11
94.943516
21
27.392690
0
LINE
8
0
10
94.943500
20
27.392700
11
94.108811
21
28.019682
0
LINE
8
0
10
94.108811
20
28.019682
11
92.949000
21
28.228676
0
LINE
8
0
10
92.949000
20
28.228700
11
91.779621
21
28.018337
0
LINE
8
0
10
91.779621
20
28.018337
11
90.927180
21
27.387247
0
LINE
8
0
10
90.927200
20
27.387200
11
90.410815
21
26.359976
0
LINE
8
0
10
90.410815
20
26.359976
11
90.238686
21
24.950280
0
LINE
8
0
10
91.424400
20
30.403300
11
91.566476
21
30.813113
0
LINE
8
0
10
91.566500
20
30.813100
11
91.916221
21
30.938777
0
LINE
8
0
10
91.916200
20
30.938800
11
92.271382
21
30.813123
0
LINE
8
0
10
92.271400
20
30.813100
11
92.424408
21
30.403287
0
LINE
8
0
10
92.424400
20
30.403300
11
92.271392
21
29.993514
0
LINE
8
0
10
92.271400
20
29.993500
11
91.916218
21
29.862373
0
LINE
8
0
10
91.916200
20
29.862400
11
91.566479
21
29.993527
0
LINE
8
0
10
91.566500
20
29.993500
11
91.424424
21
30.403286
0
LINE
8
0
10
93.506400
20
30.403300
11
93.648473
21
30.813113
0
LINE
8
0
10
93.648400
20
30.813100
11
93.998123
21
30.938777
0
LINE
8
0
10
93.998200
20
30.938800
11
94.347921
21
30.813123
0
LINE
8
0
10
94.347900
20
30.813100
11
94.500900
21
30.403287
0
LINE
8
0
10
94.500900
20
30.403300
11
94.347900
21
29.993514
0
LINE
8
0
10
94.347900
20
29.993500
11
93.998179
21
29.862373
0
LINE
8
0
10
93.998200
20
29.862400
11
93.648477
21
29.993527
0
LINE
8
0
10
93.648400
20
29.993500
11
93.506327
21
30.403286
0
LINE
8
0
10
107.775000
20
20.945200
11
107.775000
21
28.933500
0
LINE
8
0
10
107.775000
20
28.933500
11
108.704000
21
28.933500
0
LINE
8
0
10
108.704000
20
28.933500
11
108.704000
21
21.786600
0
LINE
8
0
10
108.704000
20
21.786600
11
112.229000
21
21.786600
0
LINE
8
0
10
112.229000
20
21.786600
11
112.229000
21
20.945200
0
LINE
8
0
10
112.229000
20
20.945200
11
107.775000
21
20.945200
0
LINE
8
0
10
125.372000
20
20.945200
11
124.443000
21
20.945200
0
LINE
8
0
10
124.443000
20
20.945200
11
124.443000
21
28.933500
0
LINE
8
0
10
124.443000
20
28.933500
11
128.897000
21
28.933500
0
LINE
8
0
10
128.897000
20
28.933500
11
128.897000
21
28.108500
0
LINE
8
0
10
128.897000
20
28.108500
11
125.372000
21
28.108500
0
LINE
8
0
10
125.372000
20
28.108500
11
125.372000
21
25.185200
0
LINE
8
0
10
125.372000
20
25.185200
11
128.684000
21
25.185200
0
LINE
8
0
10
128.684000
20
25.185200
11
128.684000
21
24.360200
0
LINE
8
0
10
128.684000
20
24.360200
11
125.372000
21
24.360200
0
LINE
8
0
10
125.372000
20
24.360200
11
125.372000
21
20.945200
0
LINE
8
0
10
157.976000
20
18.841600
11
157.167265
21
18.989131
0
LINE
8
0
10
142.423000
20
20.945200
11
142.423000
21
28.933500
0
LINE
8
0
10
142.423000
20
28.933500
11
143.352000
21
28.933500
0
LINE
8
0
10
143.352000
20
28.933500
11
143.352000
21
20.945200
0
LINE
8
0
10
143.352000
20
20.945200
11
142.423000
21
20.945200
0
LINE
8
0
10
157.167000
20
19.781400
11
157.975735
21
19.672127
0
LINE
8
0
10
157.976000
20
19.672100
11
158.451401
21
19.754055
0
LINE
8
0
10
158.451401
20
19.754055
11
158.795660
21
19.999918
0
LINE
8
0
10
158.795000
20
19.999900
11
159.008108
21
20.400148
0
LINE
8
0
10
159.008108
20
20.400148
11
159.079146
21
20.945176
0
LINE
8
0
10
157.167000
20
18.989100
11
157.167000
21
19.781400
0
LINE
8
0
10
160.009000
20
21.021700
11
159.877857
21
20.101030
0
LINE
8
0
10
159.877857
20
20.101030
11
159.484422
21
19.415310
0
LINE
8
0
10
159.484000
20
19.415300
11
158.844668
21
18.985009
0
LINE
8
0
10
158.844668
20
18.985009
11
157.975830
21
18.841578
0
LINE
8
0
10
159.080000
20
20.945200
11
159.080000
21
28.933500
0
LINE
8
0
10
159.080000
20
28.933500
11
160.009000
21
28.933500
0
LINE
8
0
10
160.009000
20
28.933500
11
160.009000
21
21.021700
0
LINE
8
0
10
179.373000
20
20.945200
11
178.319000
21
20.945200
0
LINE
8
0
10
178.319000
20
20.945200
11
176.171490
21
24.458520
0
LINE
8
0
10
176.171490
20
24.458520
11
173.985740
21
20.945200
0
LINE
8
0
10
173.985740
20
20.945200
11
173.002000
21
20.945200
0
LINE
8
0
10
173.002000
20
20.945200
11
175.657680
21
25.119680
0
LINE
8
0
10
175.657680
20
25.119680
11
173.182320
21
28.933510
0
LINE
8
0
10
173.182320
20
28.933510
11
174.209000
21
28.933500
0
LINE
8
0
10
174.209000
20
28.933500
11
176.192570
21
25.769850
0
LINE
8
0
10
176.192570
20
25.769850
11
178.192530
21
28.933500
0
LINE
8
0
10
178.192530
20
28.933500
11
179.182000
21
28.933500
0
LINE
8
0
10
179.182000
20
28.933500
11
176.706630
21
25.152450
0
LINE
8
0
10
176.706630
20
25.152450
11
179.373000
21
20.945200
0
LINE
8
0
10
7.866370
20
4.954580
11
7.866370
21
12.942900
0
LINE
8
0
10
7.866370
20
12.942900
11
8.795310
21
12.942900
0
LINE
8
0
10
8.795310
20
12.942900
11
8.795310
21
5.796030
0
LINE
8
0
10
8.795310
20
5.796030
11
12.319800
21
5.796030
0
LINE
8
0
10
12.319800
20
5.796030
11
12.319800
21
4.954580
0
LINE
8
0
10
12.319800
20
4.954580
11
7.866370
21
4.954580
0
LINE
8
0
10
26.321100
20
8.948730
11
28.452210
21
12.942900
0
LINE
8
0
10
28.452210
20
12.942900
11
29.457700
21
12.942900
0
LINE
8
0
10
29.457700
20
12.942900
11
26.791080
21
8.052640
0
LINE
8
0
10
26.791080
20
8.052640
11
26.791100
21
4.954580
0
LINE
8
0
10
26.791100
20
4.954580
11
25.851200
21
4.954580
0
LINE
8
0
10
25.851200
20
4.954580
11
25.851200
21
8.008930
0
LINE
8
0
10
25.851200
20
8.008930
11
23.190000
21
12.942900
0
LINE
8
0
10
23.190000
20
12.942900
11
24.206400
21
12.942900
0
LINE
8
0
10
24.206400
20
12.942900
11
26.321100
21
8.948730
0
LINE
8
0
10
42.704900
20
12.942900
11
44.075093
21
12.824056
0
LINE
8
0
10
44.075093
20
12.824056
11
45.005410
21
12.467524
0
LINE
8
0
10
45.005400
20
12.467500
11
45.538175
21
11.854167
0
LINE
8
0
10
45.538175
20
11.854167
11
45.715768
21
10.964910
0
LINE
8
0
10
45.715700
20
10.964900
11
45.615975
21
10.316070
0
LINE
8
0
10
45.615975
20
10.316070
11
45.316801
21
9.790150
0
LINE
8
0
10
45.316800
20
9.790180
11
44.831834
21
9.411797
0
LINE
8
0
10
44.831834
20
9.411797
11
44.163810
21
9.194604
0
LINE
8
0
10
40.448100
20
12.942900
11
42.704900
21
12.942900
0
LINE
8
0
10
44.163900
20
9.139970
11
44.959991
21
8.903657
0
LINE
8
0
10
44.959991
20
8.903657
11
45.528629
21
8.506151
0
LINE
8
0
10
45.528629
20
8.506151
11
45.869812
21
7.947460
0
LINE
8
0
10
45.869812
20
7.947460
11
45.983540
21
7.227590
0
LINE
8
0
10
45.983500
20
7.227590
11
45.801808
21
6.274117
0
LINE
8
0
10
45.801808
20
6.274117
11
45.256735
21
5.555610
0
LINE
8
0
10
45.256700
20
5.555610
11
44.390593
21
5.104840
0
LINE
8
0
10
44.390593
20
5.104840
11
43.234880
21
4.954583
0
LINE
8
0
10
44.163900
20
9.194600
11
44.163900
21
9.139970
0
LINE
8
0
10
43.234900
20
4.954580
11
40.448100
21
4.954580
0
LINE
8
0
10
40.448100
20
4.954580
11
40.448100
21
12.942900
0
LINE
8
0
10
42.907100
20
9.522450
11
43.752713
21
9.598948
0
LINE
8
0
10
43.752713
20
9.598948
11
44.322380
21
9.828440
0
LINE
8
0
10
44.322300
20
9.828440
11
44.646066
21
10.245065
0
LINE
8
0
10
44.646066
20
10.245065
11
44.753988
21
10.872030
0
LINE
8
0
10
44.754000
20
10.872000
11
44.633782
21
11.449823
0
LINE
8
0
10
44.633782
20
11.449823
11
44.273128
21
11.839130
0
LINE
8
0
10
44.273100
20
11.839200
11
43.650162
21
12.064585
0
LINE
8
0
10
43.650162
20
12.064585
11
42.743070
21
12.139713
0
LINE
8
0
10
41.377000
20
9.522450
11
42.907100
21
9.522450
0
LINE
8
0
10
42.743100
20
12.139700
11
41.377000
21
12.139700
0
LINE
8
0
10
41.377000
20
12.139700
11
41.377000
21
9.522450
0
LINE
8
0
10
43.043700
20
5.746850
11
43.890676
21
5.839738
0
LINE
8
0
10
43.890676
20
5.839738
11
44.497230
21
6.118404
0
LINE
8
0
10
44.497200
20
6.118400
11
44.866046
21
6.600603
0
LINE
8
0
10
44.866046
20
6.600603
11
44.988994
21
7.293150
0
LINE
8
0
10
44.989000
20
7.293150
11
44.863318
21
7.937896
0
LINE
8
0
10
44.863318
20
7.937896
11
44.486276
21
8.385930
0
LINE
8
0
10
44.486300
20
8.385930
11
43.857897
21
8.648211
0
LINE
8
0
10
43.857897
20
8.648211
11
42.967200
21
8.735629
0
LINE
8
0
10
41.377000
20
8.735630
11
41.377000
21
5.746850
0
LINE
8
0
10
41.377000
20
5.746850
11
43.043700
21
5.746850
0
LINE
8
0
10
57.924700
20
9.237440
11
58.047648
21
9.894489
0
LINE
8
0
10
58.047648
20
9.894489
11
58.416496
21
10.445000
0
LINE
8
0
10
58.416500
20
10.445000
11
58.967034
21
10.817903
0
LINE
8
0
10
58.967034
20
10.817903
11
59.624130
21
10.942204
0
LINE
8
0
10
59.624100
20
10.942200
11
60.281194
21
10.817899
0
LINE
8
0
10
60.281194
20
10.817899
11
60.831730
21
10.444996
0
LINE
8
0
10
60.831800
20
10.445000
11
61.204742
21
9.897230
0
LINE
8
0
10
61.204742
20
9.897230
11
61.329057
21
9.237440
0
LINE
8
0
10
61.329000
20
9.237440
11
61.104962
21
8.385059
0
LINE
8
0
10
61.105000
20
8.385060
11
60.482060
21
7.767656
0
LINE
8
0
10
60.482000
20
7.767650
11
59.624090
21
7.538151
0
LINE
8
0
10
59.624100
20
7.538150
11
58.967007
21
7.661095
0
LINE
8
0
10
58.967007
20
7.661095
11
58.416470
21
8.029904
0
LINE
8
0
10
58.416500
20
8.029910
11
58.047652
21
8.577676
0
LINE
8
0
10
58.047652
20
8.577676
11
57.924704
21
9.237440
0
LINE
8
0
10
42.967200
20
8.735630
11
41.377000
21
8.735630
0
LINE
8
0
10
58.553100
20
9.237440
11
58.632333
21
8.823556
0
LINE
8
0
10
58.632333
20
8.823556
11
58.870036
21
8.477954
0
LINE
8
0
10
58.870000
20
8.477950
11
59.222450
21
8.244373
0
LINE
8
0
10
59.222450
20
8.244373
11
59.635013
21
8.166509
0
LINE
8
0
10
59.635100
20
8.166510
11
60.040830
21
8.243008
0
LINE
8
0
10
60.040830
20
8.243008
11
60.383722
21
8.472500
0
LINE
8
0
10
60.383700
20
8.472500
11
60.621400
21
8.819457
0
LINE
8
0
10
60.621400
20
8.819457
11
60.700633
21
9.237436
0
LINE
8
0
10
60.700600
20
9.237440
11
60.622732
21
9.658180
0
LINE
8
0
10
60.622732
20
9.658180
11
60.389130
21
10.002402
0
LINE
8
0
10
60.389100
20
10.002400
11
60.047576
21
10.235987
0
LINE
8
0
10
60.047576
20
10.235987
11
59.635015
21
10.313841
0
LINE
8
0
10
59.635100
20
10.313800
11
59.215708
21
10.235946
0
LINE
8
0
10
59.215708
20
10.235946
11
58.864621
21
10.002359
0
LINE
8
0
10
58.864600
20
10.002400
11
58.630997
21
9.655449
0
LINE
8
0
10
58.630997
20
9.655449
11
58.553130
21
9.237438
0
LINE
8
0
10
74.576200
20
9.237440
11
74.699148
21
9.894489
0
LINE
8
0
10
74.699148
20
9.894489
11
75.067994
21
10.445000
0
LINE
8
0
10
75.068000
20
10.445000
11
75.618535
21
10.817903
0
LINE
8
0
10
75.618535
20
10.817903
11
76.275630
21
10.942204
0
LINE
8
0
10
76.275600
20
10.942200
11
76.932693
21
10.817899
0
LINE
8
0
10
76.932693
20
10.817899
11
77.483230
21
10.444996
0
LINE
8
0
10
77.483300
20
10.445000
11
77.856245
21
9.897230
0
LINE
8
0
10
77.856245
20
9.897230
11
77.980560
21
9.237440
0
LINE
8
0
10
77.980500
20
9.237440
11
77.756462
21
8.385059
0
LINE
8
0
10
77.756500
20
8.385060
11
77.133558
21
7.767656
0
LINE
8
0
10
77.133600
20
7.767650
11
76.275692
21
7.538151
0
LINE
8
0
10
76.275600
20
7.538150
11
75.618506
21
7.661095
0
LINE
8
0
10
75.618506
20
7.661095
11
75.067970
21
8.029904
0
LINE
8
0
10
75.068000
20
8.029910
11
74.699154
21
8.577676
0
LINE
8
0
10
74.699154
20
8.577676
11
74.576206
21
9.237440
0
LINE
8
0
10
75.204600
20
9.237440
11
75.283833
21
8.823556
0
LINE
8
0
10
75.283833
20
8.823556
11
75.521533
21
8.477954
0
LINE
8
0
10
75.521600
20
8.477950
11
75.874053
21
8.244373
0
LINE
8
0
10
75.874053
20
8.244373
11
76.286615
21
8.166509
0
LINE
8
0
10
76.286600
20
8.166510
11
76.692330
21
8.243008
0
LINE
8
0
10
76.692330
20
8.243008
11
77.035219
21
8.472500
0
LINE
8
0
10
77.035200
20
8.472500
11
77.272902
21
8.819457
0
LINE
8
0
10
77.272902
20
8.819457
11
77.352136
21
9.237436
0
LINE
8
0
10
77.352100
20
9.237440
11
77.274232
21
9.658180
0
LINE
8
0
10
77.274232
20
9.658180
11
77.040628
21
10.002402
0
LINE
8
0
10
77.040700
20
10.002400
11
76.699176
21
10.235987
0
LINE
8
0
10
76.699176
20
10.235987
11
76.286617
21
10.313841
0
LINE
8
0
10
76.286600
20
10.313800
11
75.867207
21
10.235946
0
LINE
8
0
10
75.867207
20
10.235946
11
75.516121
21
10.002359
0
LINE
8
0
10
75.516100
20
10.002400
11
75.282497
21
9.655449
0
LINE
8
0
10
75.282497
20
9.655449
11
75.204630
21
9.237438
0
LINE
8
0
10
95.724900
20
10.615300
11
95.517252
21
9.541622
0
LINE
8
0
10
95.517252
20
9.541622
11
94.894313
21
8.746630
0
LINE
8
0
10
94.894300
20
8.746580
11
93.890221
21
8.258914
0
LINE
8
0
10
93.890221
20
8.258914
11
92.528220
21
8.096367
0
LINE
8
0
10
92.730400
20
12.942900
11
94.040485
21
12.797421
0
LINE
8
0
10
94.040485
20
12.797421
11
94.976260
21
12.360986
0
LINE
8
0
10
94.976260
20
12.360986
11
95.537725
21
11.633598
0
LINE
8
0
10
95.537725
20
11.633598
11
95.724880
21
10.615260
0
LINE
8
0
10
92.528200
20
8.096370
11
91.588400
21
8.096370
0
LINE
8
0
10
91.588400
20
8.096370
11
91.588400
21
4.954580
0
LINE
8
0
10
91.588400
20
4.954580
11
90.659400
21
4.954580
0
LINE
8
0
10
90.659400
20
4.954580
11
90.659400
21
12.942900
0
LINE
8
0
10
90.659400
20
12.942900
11
92.730400
21
12.942900
0
LINE
8
0
10
92.424400
20
8.894090
11
93.488588
21
8.993805
0
LINE
8
0
10
93.488588
20
8.993805
11
94.211250
21
9.292949
0
LINE
8
0
10
94.211300
20
9.292950
11
94.625223
21
9.812042
0
LINE
8
0
10
94.625223
20
9.812042
11
94.763196
21
10.571520
0
LINE
8
0
10
94.763200
20
10.571500
11
94.633422
21
11.262697
0
LINE
8
0
10
94.633422
20
11.262697
11
94.244088
21
11.751730
0
LINE
8
0
10
94.244100
20
11.751700
11
93.580177
21
12.042652
0
LINE
8
0
10
93.580177
20
12.042652
11
92.626640
21
12.139632
0
LINE
8
0
10
91.588400
20
8.894090
11
92.424400
21
8.894090
0
LINE
8
0
10
107.879000
20
9.237440
11
108.001949
21
9.894489
0
LINE
8
0
10
108.001949
20
9.894489
11
108.370796
21
10.445000
0
LINE
8
0
10
108.371000
20
10.445000
11
108.921534
21
10.817903
0
LINE
8
0
10
108.921534
20
10.817903
11
109.578620
21
10.942204
0
LINE
8
0
10
109.579000
20
10.942200
11
110.236096
21
10.817899
0
LINE
8
0
10
110.236096
20
10.817899
11
110.786630
21
10.444996
0
LINE
8
0
10
110.786000
20
10.445000
11
111.158947
21
9.897230
0
LINE
8
0
10
111.158947
20
9.897230
11
111.283263
21
9.237440
0
LINE
8
0
10
111.284000
20
9.237440
11
111.059959
21
8.385059
0
LINE
8
0
10
111.060000
20
8.385060
11
110.437055
21
7.767656
0
LINE
8
0
10
110.437000
20
7.767650
11
109.579092
21
7.538151
0
LINE
8
0
10
109.579000
20
7.538150
11
108.921911
21
7.661095
0
LINE
8
0
10
108.921911
20
7.661095
11
108.371380
21
8.029904
0
LINE
8
0
10
108.371000
20
8.029910
11
108.002153
21
8.577676
0
LINE
8
0
10
108.002153
20
8.577676
11
107.879204
21
9.237440
0
LINE
8
0
10
92.626600
20
12.139700
11
91.588400
21
12.139700
0
LINE
8
0
10
91.588400
20
12.139700
11
91.588400
21
8.894090
0
LINE
8
0
10
108.508000
20
9.237440
11
108.587232
21
8.823556
0
LINE
8
0
10
108.587232
20
8.823556
11
108.824931
21
8.477954
0
LINE
8
0
10
108.825000
20
8.477950
11
109.177454
21
8.244373
0
LINE
8
0
10
109.177454
20
8.244373
11
109.590018
21
8.166509
0
LINE
8
0
10
109.590000
20
8.166510
11
109.995729
21
8.243008
0
LINE
8
0
10
109.995729
20
8.243008
11
110.338619
21
8.472500
0
LINE
8
0
10
110.338000
20
8.472500
11
110.575700
21
8.819457
0
LINE
8
0
10
110.575700
20
8.819457
11
110.654936
21
9.237436
0
LINE
8
0
10
110.655000
20
9.237440
11
110.577133
21
9.658180
0
LINE
8
0
10
110.577133
20
9.658180
11
110.343528
21
10.002402
0
LINE
8
0
10
110.344000
20
10.002400
11
110.002475
21
10.235987
0
LINE
8
0
10
110.002475
20
10.235987
11
109.589917
21
10.313841
0
LINE
8
0
10
109.590000
20
10.313800
11
109.170607
21
10.235946
0
LINE
8
0
10
109.170607
20
10.235946
11
108.819524
21
10.002359
0
LINE
8
0
10
108.819000
20
10.002400
11
108.585396
21
9.655449
0
LINE
8
0
10
108.585396
20
9.655449
11
108.507528
21
9.237438
0
LINE
8
0
10
124.531000
20
9.237440
11
124.653949
21
9.894489
0
LINE
8
0
10
124.653949
20
9.894489
11
125.022796
21
10.445000
0
LINE
8
0
10
125.023000
20
10.445000
11
125.573534
21
10.817903
0
LINE
8
0
10
125.573534
20
10.817903
11
126.230620
21
10.942204
0
LINE
8
0
10
126.230000
20
10.942200
11
126.887095
21
10.817899
0
LINE
8
0
10
126.887095
20
10.817899
11
127.437630
21
10.444996
0
LINE
8
0
10
127.438000
20
10.445000
11
127.810946
21
9.897230
0
LINE
8
0
10
127.810946
20
9.897230
11
127.935260
21
9.237440
0
LINE
8
0
10
127.935000
20
9.237440
11
127.710962
21
8.385059
0
LINE
8
0
10
127.711000
20
8.385060
11
127.088055
21
7.767656
0
LINE
8
0
10
127.088000
20
7.767650
11
126.230092
21
7.538151
0
LINE
8
0
10
126.230000
20
7.538150
11
125.572912
21
7.661095
0
LINE
8
0
10
125.572912
20
7.661095
11
125.022380
21
8.029904
0
LINE
8
0
10
125.023000
20
8.029910
11
124.654153
21
8.577676
0
LINE
8
0
10
124.654153
20
8.577676
11
124.531204
21
9.237440
0
LINE
8
0
10
125.159000
20
9.237440
11
125.238233
21
8.823556
0
LINE
8
0
10
125.238233
20
8.823556
11
125.475931
21
8.477954
0
LINE
8
0
10
125.476000
20
8.477950
11
125.828453
21
8.244373
0
LINE
8
0
10
125.828453
20
8.244373
11
126.241018
21
8.166509
0
LINE
8
0
10
126.241000
20
8.166510
11
126.646729
21
8.243008
0
LINE
8
0
10
126.646729
20
8.243008
11
126.989619
21
8.472500
0
LINE
8
0
10
126.990000
20
8.472500
11
127.227704
21
8.819457
0
LINE
8
0
10
127.227704
20
8.819457
11
127.306936
21
9.237436
0
LINE
8
0
10
127.307000
20
9.237440
11
127.229133
21
9.658180
0
LINE
8
0
10
127.229133
20
9.658180
11
126.995528
21
10.002402
0
LINE
8
0
10
126.995000
20
10.002400
11
126.653479
21
10.235987
0
LINE
8
0
10
126.653479
20
10.235987
11
126.240917
21
10.313841
0
LINE
8
0
10
126.241000
20
10.313800
11
125.821608
21
10.235946
0
LINE
8
0
10
125.821608
20
10.235946
11
125.470524
21
10.002359
0
LINE
8
0
10
125.471000
20
10.002400
11
125.237396
21
9.655449
0
LINE
8
0
10
125.237396
20
9.655449
11
125.159528
21
9.237438
0
LINE
8
0
10
139.712000
20
12.035900
11
139.788499
21
10.036080
0
LINE
8
0
10
142.466000
20
4.954580
11
139.755670
21
12.035880
0
LINE
8
0
10
139.755670
20
12.035880
11
139.712000
21
12.035900
0
LINE
8
0
10
145.914000
20
10.101600
11
145.990499
21
12.024930
0
LINE
8
0
10
139.789000
20
10.036100
11
139.789000
21
4.954580
0
LINE
8
0
10
139.789000
20
4.954580
11
138.931000
21
4.954580
0
LINE
8
0
10
138.931000
20
4.954580
11
138.931000
21
12.942900
0
LINE
8
0
10
138.931000
20
12.942900
11
140.330000
21
12.942900
0
LINE
8
0
10
140.330000
20
12.942900
11
142.860010
21
6.353350
0
LINE
8
0
10
142.860010
20
6.353350
11
142.904000
21
6.353350
0
LINE
8
0
10
142.904000
20
6.353350
11
145.455870
21
12.942900
0
LINE
8
0
10
145.455870
20
12.942900
11
146.843000
21
12.942900
0
LINE
8
0
10
146.843000
20
12.942900
11
146.843000
21
4.954580
0
LINE
8
0
10
146.843000
20
4.954580
11
145.914000
21
4.954580
0
LINE
8
0
10
145.914000
20
4.954580
11
145.914000
21
10.101600
0
LINE
8
0
10
145.991000
20
12.025000
11
145.947000
21
12.025000
0
LINE
8
0
10
145.947000
20
12.025000
11
143.214810
21
4.954630
0
LINE
8
0
10
143.214810
20
4.954630
11
142.466000
21
4.954580
0
LINE
8
0
10
162.970000
20
4.954580
11
161.877000
21
4.954580
0
LINE
8
0
10
161.877000
20
4.954580
11
158.964480
21
8.828520
0
LINE
8
0
10
158.964480
20
8.828520
11
158.128429
21
8.085439
0
LINE
8
0
10
158.128429
20
8.085439
11
158.129000
21
4.954580
0
LINE
8
0
10
158.129000
20
4.954580
11
157.200000
21
4.954580
0
LINE
8
0
10
157.200000
20
4.954580
11
157.200000
21
12.942900
0
LINE
8
0
10
157.200000
20
12.942900
11
158.129000
21
12.942900
0
LINE
8
0
10
158.129000
20
12.942900
11
158.129000
21
8.981510
0
LINE
8
0
10
158.129000
20
8.981510
11
161.751890
21
12.942900
0
LINE
8
0
10
161.751890
20
12.942900
11
162.850000
21
12.942900
0
LINE
8
0
10
162.850000
20
12.942900
11
159.636940
21
9.473290
0
LINE
8
0
10
159.636940
20
9.473290
11
162.970000
21
4.954580
0
LINE
8
0
10
1.346590
20
176.854000
11
17.998100
21
176.854000
0
LINE
8
0
10
17.998100
20
176.854000
11
17.998100
21
160.863000
0
LINE
8
0
10
17.998100
20
160.863000
11
1.346590
21
160.863000
0
LINE
8
0
10
1.346590
20
160.863000
11
1.346590
21
176.854000
0
LINE
8
0
10
17.998100
20
176.854000
11
34.649600
21
176.854000
0
LINE
8
0
10
34.649600
20
176.854000
11
34.649600
21
160.863000
0
LINE
8
0
10
34.649600
20
160.863000
11
17.998100
21
160.863000
0
LINE
8
0
10
17.998100
20
160.863000
11
17.998100
21
176.854000
0
LINE
8
0
10
34.649600
20
176.854000
11
51.301100
21
176.854000
0
LINE
8
0
10
51.301100
20
176.854000
11
51.301100
21
160.863000
0
LINE
8
0
10
51.301100
20
160.863000
11
34.649600
21
160.863000
0
LINE
8
0
10
34.649600
20
160.863000
11
34.649600
21
176.854000
0
LINE
8
0
10
51.301100
20
176.854000
11
67.952600
21
176.854000
0
LINE
8
0
10
67.952600
20
176.854000
11
67.952600
21
160.863000
0
LINE
8
0
10
67.952600
20
160.863000
11
51.301100
21
160.863000
0
LINE
8
0
10
51.301100
20
160.863000
11
51.301100
21
176.854000
0
LINE
8
0
10
67.952600
20
176.854000
11
84.604100
21
176.854000
0
LINE
8
0
10
84.604100
20
176.854000
11
84.604100
21
160.863000
0
LINE
8
0
10
84.604100
20
160.863000
11
67.952600
21
160.863000
0
LINE
8
0
10
67.952600
20
160.863000
11
67.952600
21
176.854000
0
LINE
8
0
10
84.604100
20
176.854000
11
101.256000
21
176.854000
0
LINE
8
0
10
101.256000
20
176.854000
11
101.256000
21
160.863000
0
LINE
8
0
10
101.256000
20
160.863000
11
84.604100
21
160.863000
0
LINE
8
0
10
84.604100
20
160.863000
11
84.604100
21
176.854000
0
LINE
8
0
10
101.256000
20
176.854000
11
117.907000
21
176.854000
0
LINE
8
0
10
117.907000
20
176.854000
11
117.907000
21
160.863000
0
LINE
8
0
10
117.907000
20
160.863000
11
101.256000
21
160.863000
0
LINE
8
0
10
101.256000
20
160.863000
11
101.256000
21
176.854000
0
LINE
8
0
10
117.907000
20
176.854000
11
134.559000
21
176.854000
0
LINE
8
0
10
134.559000
20
176.854000
11
134.559000
21
160.863000
0
LINE
8
0
10
134.559000
20
160.863000
11
117.907000
21
160.863000
0
LINE
8
0
10
117.907000
20
160.863000
11
117.907000
21
176.854000
0
LINE
8
0
10
134.559000
20
176.854000
11
151.210000
21
176.854000
0
LINE
8
0
10
151.210000
20
176.854000
11
151.210000
21
160.863000
0
LINE
8
0
10
151.210000
20
160.863000
11
134.559000
21
160.863000
0
LINE
8
0
10
134.559000
20
160.863000
11
134.559000
21
176.854000
0
LINE
8
0
10
151.210000
20
176.854000
11
167.862000
21
176.854000
0
LINE
8
0
10
167.862000
20
176.854000
11
167.862000
21
160.863000
0
LINE
8
0
10
167.862000
20
160.863000
11
151.210000
21
160.863000
0
LINE
8
0
10
151.210000
20
160.863000
11
151.210000
21
176.854000
0
LINE
8
0
10
167.862000
20
176.854000
11
184.513000
21
176.854000
0
LINE
8
0
10
184.513000
20
176.854000
11
184.513000
21
160.863000
0
LINE
8
0
10
184.513000
20
160.863000
11
167.862000
21
160.863000
0
LINE
8
0
10
167.862000
20
160.863000
11
167.862000
21
176.854000
0
LINE
8
0
10
1.346590
20
160.863000
11
17.998100
21
160.863000
0
LINE
8
0
10
17.998100
20
160.863000
11
17.998100
21
144.872000
0
LINE
8
0
10
17.998100
20
144.872000
11
1.346590
21
144.872000
0
LINE
8
0
10
1.346590
20
144.872000
11
1.346590
21
160.863000
0
LINE
8
0
10
17.998100
20
160.863000
11
34.649600
21
160.863000
0
LINE
8
0
10
34.649600
20
160.863000
11
34.649600
21
144.872000
0
LINE
8
0
10
34.649600
20
144.872000
11
17.998100
21
144.872000
0
LINE
8
0
10
17.998100
20
144.872000
11
17.998100
21
160.863000
0
LINE
8
0
10
34.649600
20
160.863000
11
51.301100
21
160.863000
0
LINE
8
0
10
51.301100
20
160.863000
11
51.301100
21
144.872000
0
LINE
8
0
10
51.301100
20
144.872000
11
34.649600
21
144.872000
0
LINE
8
0
10
34.649600
20
144.872000
11
34.649600
21
160.863000
0
LINE
8
0
10
51.301100
20
160.863000
11
67.952600
21
160.863000
0
LINE
8
0
10
67.952600
20
160.863000
11
67.952600
21
144.872000
0
LINE
8
0
10
67.952600
20
144.872000
11
51.301100
21
144.872000
0
LINE
8
0
10
51.301100
20
144.872000
11
51.301100
21
160.863000
0
LINE
8
0
10
67.952600
20
160.863000
11
84.604100
21
160.863000
0
LINE
8
0
10
84.604100
20
160.863000
11
84.604100
21
144.872000
0
LINE
8
0
10
84.604100
20
144.872000
11
67.952600
21
144.872000
0
LINE
8
0
10
67.952600
20
144.872000
11
67.952600
21
160.863000
0
LINE
8
0
10
84.604100
20
160.863000
11
101.256000
21
160.863000
0
LINE
8
0
10
101.256000
20
160.863000
11
101.256000
21
144.872000
0
LINE
8
0
10
101.256000
20
144.872000
11
84.604100
21
144.872000
0
LINE
8
0
10
84.604100
20
144.872000
11
84.604100
21
160.863000
0
LINE
8
0
10
101.256000
20
160.863000
11
117.907000
21
160.863000
0
LINE
8
0
10
117.907000
20
160.863000
11
117.907000
21
144.872000
0
LINE
8
0
10
117.907000
20
144.872000
11
101.256000
21
144.872000
0
LINE
8
0
10
101.256000
20
144.872000
11
101.256000
21
160.863000
0
LINE
8
0
10
117.907000
20
160.863000
11
134.559000
21
160.863000
0
LINE
8
0
10
134.559000
20
160.863000
11
134.559000
21
144.872000
0
LINE
8
0
10
134.559000
20
144.872000
11
117.907000
21
144.872000
0
LINE
8
0
10
117.907000
20
144.872000
11
117.907000
21
160.863000
0
LINE
8
0
10
134.559000
20
160.863000
11
151.210000
21
160.863000
0
LINE
8
0
10
151.210000
20
160.863000
11
151.210000
21
144.872000
0
LINE
8
0
10
151.210000
20
144.872000
11
134.559000
21
144.872000
0
LINE
8
0
10
134.559000
20
144.872000
11
134.559000
21
160.863000
0
LINE
8
0
10
151.210000
20
160.863000
11
167.862000
21
160.863000
0
LINE
8
0
10
167.862000
20
160.863000
11
167.862000
21
144.872000
0
LINE
8
0
10
167.862000
20
144.872000
11
151.210000
21
144.872000
0
LINE
8
0
10
151.210000
20
144.872000
11
151.210000
21
160.863000
0
LINE
8
0
10
167.862000
20
160.863000
11
184.513000
21
160.863000
0
LINE
8
0
10
184.513000
20
160.863000
11
184.513000
21
144.872000
0
LINE
8
0
10
184.513000
20
144.872000
11
167.862000
21
144.872000
0
LINE
8
0
10
167.862000
20
144.872000
11
167.862000
21
160.863000
0
LINE
8
0
10
1.346590
20
144.872000
11
17.998100
21
144.872000
0
LINE
8
0
10
17.998100
20
144.872000
11
17.998100
21
128.882000
0
LINE
8
0
10
17.998100
20
128.882000
11
1.346590
21
128.882000
0
LINE
8
0
10
1.346590
20
128.882000
11
1.346590
21
144.872000
0
LINE
8
0
10
17.998100
20
144.872000
11
34.649600
21
144.872000
0
LINE
8
0
10
34.649600
20
144.872000
11
34.649600
21
128.882000
0
LINE
8
0
10
34.649600
20
128.882000
11
17.998100
21
128.882000
0
LINE
8
0
10
17.998100
20
128.882000
11
17.998100
21
144.872000
0
LINE
8
0
10
34.649600
20
144.872000
11
51.301100
21
144.872000
0
LINE
8
0
10
51.301100
20
144.872000
11
51.301100
21
128.882000
0
LINE
8
0
10
51.301100
20
128.882000
11
34.649600
21
128.882000
0
LINE
8
0
10
34.649600
20
128.882000
11
34.649600
21
144.872000
0
LINE
8
0
10
51.301100
20
144.872000
11
67.952600
21
144.872000
0
LINE
8
0
10
67.952600
20
144.872000
11
67.952600
21
128.882000
0
LINE
8
0
10
67.952600
20
128.882000
11
51.301100
21
128.882000
0
LINE
8
0
10
51.301100
20
128.882000
11
51.301100
21
144.872000
0
LINE
8
0
10
67.952600
20
144.872000
11
84.604100
21
144.872000
0
LINE
8
0
10
84.604100
20
144.872000
11
84.604100
21
128.882000
0
LINE
8
0
10
84.604100
20
128.882000
11
67.952600
21
128.882000
0
LINE
8
0
10
67.952600
20
128.882000
11
67.952600
21
144.872000
0
LINE
8
0
10
84.604100
20
144.872000
11
101.256000
21
144.872000
0
LINE
8
0
10
101.256000
20
144.872000
11
101.256000
21
128.882000
0
LINE
8
0
10
101.256000
20
128.882000
11
84.604100
21
128.882000
0
LINE
8
0
10
84.604100
20
128.882000
11
84.604100
21
144.872000
0
LINE
8
0
10
101.256000
20
144.872000
11
117.907000
21
144.872000
0
LINE
8
0
10
117.907000
20
144.872000
11
117.907000
21
128.882000
0
LINE
8
0
10
117.907000
20
128.882000
11
101.256000
21
128.882000
0
LINE
8
0
10
101.256000
20
128.882000
11
101.256000
21
144.872000
0
LINE
8
0
10
117.907000
20
144.872000
11
134.559000
21
144.872000
0
LINE
8
0
10
134.559000
20
144.872000
11
134.559000
21
128.882000
0
LINE
8
0
10
134.559000
20
128.882000
11
117.907000
21
128.882000
0
LINE
8
0
10
117.907000
20
128.882000
11
117.907000
21
144.872000
0
LINE
8
0
10
134.559000
20
144.872000
11
151.210000
21
144.872000
0
LINE
8
0
10
151.210000
20
144.872000
11
151.210000
21
128.882000
0
LINE
8
0
10
151.210000
20
128.882000
11
134.559000
21
128.882000
0
LINE
8
0
10
134.559000
20
128.882000
11
134.559000
21
144.872000
0
LINE
8
0
10
151.210000
20
144.872000
11
167.862000
21
144.872000
0
LINE
8
0
10
167.862000
20
144.872000
11
167.862000
21
128.882000
0
LINE
8
0
10
167.862000
20
128.882000
11
151.210000
21
128.882000
0
LINE
8
0
10
151.210000
20
128.882000
11
151.210000
21
144.872000
0
LINE
8
0
10
167.862000
20
144.872000
11
184.513000
21
144.872000
0
LINE
8
0
10
184.513000
20
144.872000
11
184.513000
21
128.882000
0
LINE
8
0
10
184.513000
20
128.882000
11
167.862000
21
128.882000
0
LINE
8
0
10
167.862000
20
128.882000
11
167.862000
21
144.872000
0
LINE
8
0
10
1.346590
20
128.882000
11
17.998100
21
128.882000
0
LINE
8
0
10
17.998100
20
128.882000
11
17.998100
21
112.891000
0
LINE
8
0
10
17.998100
20
112.891000
11
1.346590
21
112.891000
0
LINE
8
0
10
1.346590
20
112.891000
11
1.346590
21
128.882000
0
LINE
8
0
10
17.998100
20
128.882000
11
34.649600
21
128.882000
0
LINE
8
0
10
34.649600
20
128.882000
11
34.649600
21
112.891000
0
LINE
8
0
10
34.649600
20
112.891000
11
17.998100
21
112.891000
0
LINE
8
0
10
17.998100
20
112.891000
11
17.998100
21
128.882000
0
LINE
8
0
10
34.649600
20
128.882000
11
51.301100
21
128.882000
0
LINE
8
0
10
51.301100
20
128.882000
11
51.301100
21
112.891000
0
LINE
8
0
10
51.301100
20
112.891000
11
34.649600
21
112.891000
0
LINE
8
0
10
34.649600
20
112.891000
11
34.649600
21
128.882000
0
LINE
8
0
10
51.301100
20
128.882000
11
67.952600
21
128.882000
0
LINE
8
0
10
67.952600
20
128.882000
11
67.952600
21
112.891000
0
LINE
8
0
10
67.952600
20
112.891000
11
51.301100
21
112.891000
0
LINE
8
0
10
51.301100
20
112.891000
11
51.301100
21
128.882000
0
LINE
8
0
10
67.952600
20
128.882000
11
84.604100
21
128.882000
0
LINE
8
0
10
84.604100
20
128.882000
11
84.604100
21
112.891000
0
LINE
8
0
10
84.604100
20
112.891000
11
67.952600
21
112.891000
0
LINE
8
0
10
67.952600
20
112.891000
11
67.952600
21
128.882000
0
LINE
8
0
10
84.604100
20
128.882000
11
101.256000
21
128.882000
0
LINE
8
0
10
101.256000
20
128.882000
11
101.256000
21
112.891000
0
LINE
8
0
10
101.256000
20
112.891000
11
84.604100
21
112.891000
0
LINE
8
0
10
84.604100
20
112.891000
11
84.604100
21
128.882000
0
LINE
8
0
10
101.256000
20
128.882000
11
117.907000
21
128.882000
0
LINE
8
0
10
117.907000
20
128.882000
11
117.907000
21
112.891000
0
LINE
8
0
10
117.907000
20
112.891000
11
101.256000
21
112.891000
0
LINE
8
0
10
101.256000
20
112.891000
11
101.256000
21
128.882000
0
LINE
8
0
10
117.907000
20
128.882000
11
134.559000
21
128.882000
0
LINE
8
0
10
134.559000
20
128.882000
11
134.559000
21
112.891000
0
LINE
8
0
10
134.559000
20
112.891000
11
117.907000
21
112.891000
0
LINE
8
0
10
117.907000
20
112.891000
11
117.907000
21
128.882000
0
LINE
8
0
10
134.559000
20
128.882000
11
151.210000
21
128.882000
0
LINE
8
0
10
151.210000
20
128.882000
11
151.210000
21
112.891000
0
LINE
8
0
10
151.210000
20
112.891000
11
134.559000
21
112.891000
0
LINE
8
0
10
134.559000
20
112.891000
11
134.559000
21
128.882000
0
LINE
8
0
10
151.210000
20
128.882000
11
167.862000
21
128.882000
0
LINE
8
0
10
167.862000
20
128.882000
11
167.862000
21
112.891000
0
LINE
8
0
10
167.862000
20
112.891000
11
151.210000
21
112.891000
0
LINE
8
0
10
151.210000
20
112.891000
11
151.210000
21
128.882000
0
LINE
8
0
10
167.862000
20
128.882000
11
184.513000
21
128.882000
0
LINE
8
0
10
184.513000
20
128.882000
11
184.513000
21
112.891000
0
LINE
8
0
10
184.513000
20
112.891000
11
167.862000
21
112.891000
0
LINE
8
0
10
167.862000
20
112.891000
11
167.862000
21
128.882000
0
LINE
8
0
10
1.346590
20
112.891000
11
17.998100
21
112.891000
0
LINE
8
0
10
17.998100
20
112.891000
11
17.998100
21
96.900600
0
LINE
8
0
10
17.998100
20
96.900600
11
1.346590
21
96.900600
0
LINE
8
0
10
1.346590
20
96.900600
11
1.346590
21
112.891000
0
LINE
8
0
10
17.998100
20
112.891000
11
34.649600
21
112.891000
0
LINE
8
0
10
34.649600
20
112.891000
11
34.649600
21
96.900600
0
LINE
8
0
10
34.649600
20
96.900600
11
17.998100
21
96.900600
0
LINE
8
0
10
17.998100
20
96.900600
11
17.998100
21
112.891000
0
LINE
8
0
10
34.649600
20
112.891000
11
51.301100
21
112.891000
0
LINE
8
0
10
51.301100
20
112.891000
11
51.301100
21
96.900600
0
LINE
8
0
10
51.301100
20
96.900600
11
34.649600
21
96.900600
0
LINE
8
0
10
34.649600
20
96.900600
11
34.649600
21
112.891000
0
LINE
8
0
10
51.301100
20
112.891000
11
67.952600
21
112.891000
0
LINE
8
0
10
67.952600
20
112.891000
11
67.952600
21
96.900600
0
LINE
8
0
10
67.952600
20
96.900600
11
51.301100
21
96.900600
0
LINE
8
0
10
51.301100
20
96.900600
11
51.301100
21
112.891000
0
LINE
8
0
10
67.952600
20
112.891000
11
84.604100
21
112.891000
0
LINE
8
0
10
84.604100
20
112.891000
11
84.604100
21
96.900600
0
LINE
8
0
10
84.604100
20
96.900600
11
67.952600
21
96.900600
0
LINE
8
0
10
67.952600
20
96.900600
11
67.952600
21
112.891000
0
LINE
8
0
10
84.604100
20
112.891000
11
101.256000
21
112.891000
0
LINE
8
0
10
101.256000
20
112.891000
11
101.256000
21
96.900600
0
LINE
8
0
10
101.256000
20
96.900600
11
84.604100
21
96.900600
0
LINE
8
0
10
84.604100
20
96.900600
11
84.604100
21
112.891000
0
LINE
8
0
10
101.256000
20
112.891000
11
117.907000
21
112.891000
0
LINE
8
0
10
117.907000
20
112.891000
11
117.907000
21
96.900600
0
LINE
8
0
10
117.907000
20
96.900600
11
101.256000
21
96.900600
0
LINE
8
0
10
101.256000
20
96.900600
11
101.256000
21
112.891000
0
LINE
8
0
10
117.907000
20
112.891000
11
134.559000
21
112.891000
0
LINE
8
0
10
134.559000
20
112.891000
11
134.559000
21
96.900600
0
LINE
8
0
10
134.559000
20
96.900600
11
117.907000
21
96.900600
0
LINE
8
0
10
117.907000
20
96.900600
11
117.907000
21
112.891000
0
LINE
8
0
10
134.559000
20
112.891000
11
151.210000
21
112.891000
0
LINE
8
0
10
151.210000
20
112.891000
11
151.210000
21
96.900600
0
LINE
8
0
10
151.210000
20
96.900600
11
134.559000
21
96.900600
0
LINE
8
0
10
134.559000
20
96.900600
11
134.559000
21
112.891000
0
LINE
8
0
10
151.210000
20
112.891000
11
167.862000
21
112.891000
0
LINE
8
0
10
167.862000
20
112.891000
11
167.862000
21
96.900600
0
LINE
8
0
10
167.862000
20
96.900600
11
151.210000
21
96.900600
0
LINE
8
0
10
151.210000
20
96.900600
11
151.210000
21
112.891000
0
LINE
8
0
10
167.862000
20
112.891000
11
184.513000
21
112.891000
0
LINE
8
0
10
184.513000
20
112.891000
11
184.513000
21
96.900600
0
LINE
8
0
10
184.513000
20
96.900600
11
167.862000
21
96.900600
0
LINE
8
0
10
167.862000
20
96.900600
11
167.862000
21
112.891000
0
LINE
8
0
10
1.346590
20
96.900600
11
17.998100
21
96.900600
0
LINE
8
0
10
17.998100
20
96.900600
11
17.998100
21
80.910000
0
LINE
8
0
10
17.998100
20
80.910000
11
1.346590
21
80.910000
0
LINE
8
0
10
1.346590
20
80.910000
11
1.346590
21
96.900600
0
LINE
8
0
10
17.998100
20
96.900600
11
34.649600
21
96.900600
0
LINE
8
0
10
34.649600
20
96.900600
11
34.649600
21
80.910000
0
LINE
8
0
10
34.649600
20
80.910000
11
17.998100
21
80.910000
0
LINE
8
0
10
17.998100
20
80.910000
11
17.998100
21
96.900600
0
LINE
8
0
10
34.649600
20
96.900600
11
51.301100
21
96.900600
0
LINE
8
0
10
51.301100
20
96.900600
11
51.301100
21
80.910000
0
LINE
8
0
10
51.301100
20
80.910000
11
34.649600
21
80.910000
0
LINE
8
0
10
34.649600
20
80.910000
11
34.649600
21
96.900600
0
LINE
8
0
10
51.301100
20
96.900600
11
67.952600
21
96.900600
0
LINE
8
0
10
67.952600
20
96.900600
11
67.952600
21
80.910000
0
LINE
8
0
10
67.952600
20
80.910000
11
51.301100
21
80.910000
0
LINE
8
0
10
51.301100
20
80.910000
11
51.301100
21
96.900600
0
LINE
8
0
10
67.952600
20
96.900600
11
84.604100
21
96.900600
0
LINE
8
0
10
84.604100
20
96.900600
11
84.604100
21
80.910000
0
LINE
8
0
10
84.604100
20
80.910000
11
67.952600
21
80.910000
0
LINE
8
0
10
67.952600
20
80.910000
11
67.952600
21
96.900600
0
LINE
8
0
10
84.604100
20
96.900600
11
101.256000
21
96.900600
0
LINE
8
0
10
101.256000
20
96.900600
11
101.256000
21
80.910000
0
LINE
8
0
10
101.256000
20
80.910000
11
84.604100
21
80.910000
0
LINE
8
0
10
84.604100
20
80.910000
11
84.604100
21
96.900600
0
LINE
8
0
10
101.256000
20
96.900600
11
117.907000
21
96.900600
0
LINE
8
0
10
117.907000
20
96.900600
11
117.907000
21
80.910000
0
LINE
8
0
10
117.907000
20
80.910000
11
101.256000
21
80.910000
0
LINE
8
0
10
101.256000
20
80.910000
11
101.256000
21
96.900600
0
LINE
8
0
10
117.907000
20
96.900600
11
134.559000
21
96.900600
0
LINE
8
0
10
134.559000
20
96.900600
11
134.559000
21
80.910000
0
LINE
8
0
10
134.559000
20
80.910000
11
117.907000
21
80.910000
0
LINE
8
0
10
117.907000
20
80.910000
11
117.907000
21
96.900600
0
LINE
8
0
10
134.559000
20
96.900600
11
151.210000
21
96.900600
0
LINE
8
0
10
151.210000
20
96.900600
11
151.210000
21
80.910000
0
LINE
8
0
10
151.210000
20
80.910000
11
134.559000
21
80.910000
0
LINE
8
0
10
134.559000
20
80.910000
11
134.559000
21
96.900600
0
LINE
8
0
10
151.210000
20
96.900600
11
167.862000
21
96.900600
0
LINE
8
0
10
167.862000
20
96.900600
11
167.862000
21
80.910000
0
LINE
8
0
10
167.862000
20
80.910000
11
151.210000
21
80.910000
0
LINE
8
0
10
151.210000
20
80.910000
11
151.210000
21
96.900600
0
LINE
8
0
10
167.862000
20
96.900600
11
184.513000
21
96.900600
0
LINE
8
0
10
184.513000
20
96.900600
11
184.513000
21
80.910000
0
LINE
8
0
10
184.513000
20
80.910000
11
167.862000
21
80.910000
0
LINE
8
0
10
167.862000
20
80.910000
11
167.862000
21
96.900600
0
LINE
8
0
10
1.346590
20
80.910000
11
17.998100
21
80.910000
0
LINE
8
0
10
17.998100
20
80.910000
11
17.998100
21
64.919400
0
LINE
8
0
10
17.998100
20
64.919400
11
1.346590
21
64.919400
0
LINE
8
0
10
1.346590
20
64.919400
11
1.346590
21
80.910000
0
LINE
8
0
10
17.998100
20
80.910000
11
34.649600
21
80.910000
0
LINE
8
0
10
34.649600
20
80.910000
11
34.649600
21
64.919400
0
LINE
8
0
10
34.649600
20
64.919400
11
17.998100
21
64.919400
0
LINE
8
0
10
17.998100
20
64.919400
11
17.998100
21
80.910000
0
LINE
8
0
10
34.649600
20
80.910000
11
51.301100
21
80.910000
0
LINE
8
0
10
51.301100
20
80.910000
11
51.301100
21
64.919400
0
LINE
8
0
10
51.301100
20
64.919400
11
34.649600
21
64.919400
0
LINE
8
0
10
34.649600
20
64.919400
11
34.649600
21
80.910000
0
LINE
8
0
10
51.301100
20
80.910000
11
67.952600
21
80.910000
0
LINE
8
0
10
67.952600
20
80.910000
11
67.952600
21
64.919400
0
LINE
8
0
10
67.952600
20
64.919400
11
51.301100
21
64.919400
0
LINE
8
0
10
51.301100
20
64.919400
11
51.301100
21
80.910000
0
LINE
8
0
10
67.952600
20
80.910000
11
84.604100
21
80.910000
0
LINE
8
0
10
84.604100
20
80.910000
11
84.604100
21
64.919400
0
LINE
8
0
10
84.604100
20
64.919400
11
67.952600
21
64.919400
0
LINE
8
0
10
67.952600
20
64.919400
11
67.952600
21
80.910000
0
LINE
8
0
10
84.604100
20
80.910000
11
101.256000
21
80.910000
0
LINE
8
0
10
101.256000
20
80.910000
11
101.256000
21
64.919400
0
LINE
8
0
10
101.256000
20
64.919400
11
84.604100
21
64.919400
0
LINE
8
0
10
84.604100
20
64.919400
11
84.604100
21
80.910000
0
LINE
8
0
10
101.256000
20
80.910000
11
117.907000
21
80.910000
0
LINE
8
0
10
117.907000
20
80.910000
11
117.907000
21
64.919400
0
LINE
8
0
10
117.907000
20
64.919400
11
101.256000
21
64.919400
0
LINE
8
0
10
101.256000
20
64.919400
11
101.256000
21
80.910000
0
LINE
8
0
10
117.907000
20
80.910000
11
134.559000
21
80.910000
0
LINE
8
0
10
134.559000
20
80.910000
11
134.559000
21
64.919400
0
LINE
8
0
10
134.559000
20
64.919400
11
117.907000
21
64.919400
0
LINE
8
0
10
117.907000
20
64.919400
11
117.907000
21
80.910000
0
LINE
8
0
10
134.559000
20
80.910000
11
151.210000
21
80.910000
0
LINE
8
0
10
151.210000
20
80.910000
11
151.210000
21
64.919400
0
LINE
8
0
10
151.210000
20
64.919400
11
134.559000
21
64.919400
0
LINE
8
0
10
134.559000
20
64.919400
11
134.559000
21
80.910000
0
LINE
8
0
10
151.210000
20
80.910000
11
167.862000
21
80.910000
0
LINE
8
0
10
167.862000
20
80.910000
11
167.862000
21
64.919400
0
LINE
8
0
10
167.862000
20
64.919400
11
151.210000
21
64.919400
0
LINE
8
0
10
151.210000
20
64.919400
11
151.210000
21
80.910000
0
LINE
8
0
10
167.862000
20
80.910000
11
184.513000
21
80.910000
0
LINE
8
0
10
184.513000
20
80.910000
11
184.513000
21
64.919400
0
LINE
8
0
10
184.513000
20
64.919400
11
167.862000
21
64.919400
0
LINE
8
0
10
167.862000
20
64.919400
11
167.862000
21
80.910000
0
LINE
8
0
10
1.346590
20
64.919400
11
17.998100
21
64.919400
0
LINE
8
0
10
17.998100
20
64.919400
11
17.998100
21
48.928800
0
LINE
8
0
10
17.998100
20
48.928800
11
1.346590
21
48.928800
0
LINE
8
0
10
1.346590
20
48.928800
11
1.346590
21
64.919400
0
LINE
8
0
10
17.998100
20
64.919400
11
34.649600
21
64.919400
0
LINE
8
0
10
34.649600
20
64.919400
11
34.649600
21
48.928800
0
LINE
8
0
10
34.649600
20
48.928800
11
17.998100
21
48.928800
0
LINE
8
0
10
17.998100
20
48.928800
11
17.998100
21
64.919400
0
LINE
8
0
10
34.649600
20
64.919400
11
51.301100
21
64.919400
0
LINE
8
0
10
51.301100
20
64.919400
11
51.301100
21
48.928800
0
LINE
8
0
10
51.301100
20
48.928800
11
34.649600
21
48.928800
0
LINE
8
0
10
34.649600
20
48.928800
11
34.649600
21
64.919400
0
LINE
8
0
10
51.301100
20
64.919400
11
67.952600
21
64.919400
0
LINE
8
0
10
67.952600
20
64.919400
11
67.952600
21
48.928800
0
LINE
8
0
10
67.952600
20
48.928800
11
51.301100
21
48.928800
0
LINE
8
0
10
51.301100
20
48.928800
11
51.301100
21
64.919400
0
LINE
8
0
10
67.952600
20
64.919400
11
84.604100
21
64.919400
0
LINE
8
0
10
84.604100
20
64.919400
11
84.604100
21
48.928800
0
LINE
8
0
10
84.604100
20
48.928800
11
67.952600
21
48.928800
0
LINE
8
0
10
67.952600
20
48.928800
11
67.952600
21
64.919400
0
LINE
8
0
10
84.604100
20
64.919400
11
101.256000
21
64.919400
0
LINE
8
0
10
101.256000
20
64.919400
11
101.256000
21
48.928800
0
LINE
8
0
10
101.256000
20
48.928800
11
84.604100
21
48.928800
0
LINE
8
0
10
84.604100
20
48.928800
11
84.604100
21
64.919400
0
LINE
8
0
10
101.256000
20
64.919400
11
117.907000
21
64.919400
0
LINE
8
0
10
117.907000
20
64.919400
11
117.907000
21
48.928800
0
LINE
8
0
10
117.907000
20
48.928800
11
101.256000
21
48.928800
0
LINE
8
0
10
101.256000
20
48.928800
11
101.256000
21
64.919400
0
LINE
8
0
10
117.907000
20
64.919400
11
134.559000
21
64.919400
0
LINE
8
0
10
134.559000
20
64.919400
11
134.559000
21
48.928800
0
LINE
8
0
10
134.559000
20
48.928800
11
117.907000
21
48.928800
0
LINE
8
0
10
117.907000
20
48.928800
11
117.907000
21
64.919400
0
LINE
8
0
10
134.559000
20
64.919400
11
151.210000
21
64.919400
0
LINE
8
0
10
151.210000
20
64.919400
11
151.210000
21
48.928800
0
LINE
8
0
10
151.210000
20
48.928800
11
134.559000
21
48.928800
0
LINE
8
0
10
134.559000
20
48.928800
11
134.559000
21
64.919400
0
LINE
8
0
10
151.210000
20
64.919400
11
167.862000
21
64.919400
0
LINE
8
0
10
167.862000
20
64.919400
11
167.862000
21
48.928800
0
LINE
8
0
10
167.862000
20
48.928800
11
151.210000
21
48.928800
0
LINE
8
0
10
151.210000
20
48.928800
11
151.210000
21
64.919400
0
LINE
8
0
10
167.862000
20
64.919400
11
184.513000
21
64.919400
0
LINE
8
0
10
184.513000
20
64.919400
11
184.513000
21
48.928800
0
LINE
8
0
10
184.513000
20
48.928800
11
167.862000
21
48.928800
0
LINE
8
0
10
167.862000
20
48.928800
11
167.862000
21
64.919400
0
LINE
8
0
10
1.346590
20
48.928800
11
17.998100
21
48.928800
0
LINE
8
0
10
17.998100
20
48.928800
11
17.998100
21
32.938200
0
LINE
8
0
10
17.998100
20
32.938200
11
1.346590
21
32.938200
0
LINE
8
0
10
1.346590
20
32.938200
11
1.346590
21
48.928800
0
LINE
8
0
10
17.998100
20
48.928800
11
34.649600
21
48.928800
0
LINE
8
0
10
34.649600
20
48.928800
11
34.649600
21
32.938200
0
LINE
8
0
10
34.649600
20
32.938200
11
17.998100
21
32.938200
0
LINE
8
0
10
17.998100
20
32.938200
11
17.998100
21
48.928800
0
LINE
8
0
10
34.649600
20
48.928800
11
51.301100
21
48.928800
0
LINE
8
0
10
51.301100
20
48.928800
11
51.301100
21
32.938200
0
LINE
8
0
10
51.301100
20
32.938200
11
34.649600
21
32.938200
0
LINE
8
0
10
34.649600
20
32.938200
11
34.649600
21
48.928800
0
LINE
8
0
10
51.301100
20
48.928800
11
67.952600
21
48.928800
0
LINE
8
0
10
67.952600
20
48.928800
11
67.952600
21
32.938200
0
LINE
8
0
10
67.952600
20
32.938200
11
51.301100
21
32.938200
0
LINE
8
0
10
51.301100
20
32.938200
11
51.301100
21
48.928800
0
LINE
8
0
10
67.952600
20
48.928800
11
84.604100
21
48.928800
0
LINE
8
0
10
84.604100
20
48.928800
11
84.604100
21
32.938200
0
LINE
8
0
10
84.604100
20
32.938200
11
67.952600
21
32.938200
0
LINE
8
0
10
67.952600
20
32.938200
11
67.952600
21
48.928800
0
LINE
8
0
10
84.604100
20
48.928800
11
101.256000
21
48.928800
0
LINE
8
0
10
101.256000
20
48.928800
11
101.256000
21
32.938200
0
LINE
8
0
10
101.256000
20
32.938200
11
84.604100
21
32.938200
0
LINE
8
0
10
84.604100
20
32.938200
11
84.604100
21
48.928800
0
LINE
8
0
10
101.256000
20
48.928800
11
117.907000
21
48.928800
0
LINE
8
0
10
117.907000
20
48.928800
11
117.907000
21
32.938200
0
LINE
8
0
10
117.907000
20
32.938200
11
101.256000
21
32.938200
0
LINE
8
0
10
101.256000
20
32.938200
11
101.256000
21
48.928800
0
LINE
8
0
10
117.907000
20
48.928800
11
134.559000
21
48.928800
0
LINE
8
0
10
134.559000
20
48.928800
11
134.559000
21
32.938200
0
LINE
8
0
10
134.559000
20
32.938200
11
117.907000
21
32.938200
0
LINE
8
0
10
117.907000
20
32.938200
11
117.907000
21
48.928800
0
LINE
8
0
10
134.559000
20
48.928800
11
151.210000
21
48.928800
0
LINE
8
0
10
151.210000
20
48.928800
11
151.210000
21
32.938200
0
LINE
8
0
10
151.210000
20
32.938200
11
134.559000
21
32.938200
0
LINE
8
0
10
134.559000
20
32.938200
11
134.559000
21
48.928800
0
LINE
8
0
10
151.210000
20
48.928800
11
167.862000
21
48.928800
0
LINE
8
0
10
167.862000
20
48.928800
11
167.862000
21
32.938200
0
LINE
8
0
10
167.862000
20
32.938200
11
151.210000
21
32.938200
0
LINE
8
0
10
151.210000
20
32.938200
11
151.210000
21
48.928800
0
LINE
8
0
10
167.862000
20
48.928800
11
184.513000
21
48.928800
0
LINE
8
0
10
184.513000
20
48.928800
11
184.513000
21
32.938200
0
LINE
8
0
10
184.513000
20
32.938200
11
167.862000
21
32.938200
0
LINE
8
0
10
167.862000
20
32.938200
11
167.862000
21
48.928800
0
LINE
8
0
10
1.346590
20
32.938200
11
17.998100
21
32.938200
0
LINE
8
0
10
17.998100
20
32.938200
11
17.998100
21
16.947500
0
LINE
8
0
10
17.998100
20
16.947500
11
1.346590
21
16.947500
0
LINE
8
0
10
1.346590
20
16.947500
11
1.346590
21
32.938200
0
LINE
8
0
10
17.998100
20
32.938200
11
34.649600
21
32.938200
0
LINE
8
0
10
34.649600
20
32.938200
11
34.649600
21
16.947500
0
LINE
8
0
10
34.649600
20
16.947500
11
17.998100
21
16.947500
0
LINE
8
0
10
17.998100
20
16.947500
11
17.998100
21
32.938200
0
LINE
8
0
10
34.649600
20
32.938200
11
51.301100
21
32.938200
0
LINE
8
0
10
51.301100
20
32.938200
11
51.301100
21
16.947500
0
LINE
8
0
10
51.301100
20
16.947500
11
34.649600
21
16.947500
0
LINE
8
0
10
34.649600
20
16.947500
11
34.649600
21
32.938200
0
LINE
8
0
10
51.301100
20
32.938200
11
67.952600
21
32.938200
0
LINE
8
0
10
67.952600
20
32.938200
11
67.952600
21
16.947500
0
LINE
8
0
10
67.952600
20
16.947500
11
51.301100
21
16.947500
0
LINE
8
0
10
51.301100
20
16.947500
11
51.301100
21
32.938200
0
LINE
8
0
10
67.952600
20
32.938200
11
84.604100
21
32.938200
0
LINE
8
0
10
84.604100
20
32.938200
11
84.604100
21
16.947500
0
LINE
8
0
10
84.604100
20
16.947500
11
67.952600
21
16.947500
0
LINE
8
0
10
67.952600
20
16.947500
11
67.952600
21
32.938200
0
LINE
8
0
10
84.604100
20
32.938200
11
101.256000
21
32.938200
0
LINE
8
0
10
101.256000
20
32.938200
11
101.256000
21
16.947500
0
LINE
8
0
10
101.256000
20
16.947500
11
84.604100
21
16.947500
0
LINE
8
0
10
84.604100
20
16.947500
11
84.604100
21
32.938200
0
LINE
8
0
10
101.256000
20
32.938200
11
117.907000
21
32.938200
0
LINE
8
0
10
117.907000
20
32.938200
11
117.907000
21
16.947500
0
LINE
8
0
10
117.907000
20
16.947500
11
101.256000
21
16.947500
0
LINE
8
0
10
101.256000
20
16.947500
11
101.256000
21
32.938200
0
LINE
8
0
10
117.907000
20
32.938200
11
134.559000
21
32.938200
0
LINE
8
0
10
134.559000
20
32.938200
11
134.559000
21
16.947500
0
LINE
8
0
10
134.559000
20
16.947500
11
117.907000
21
16.947500
0
LINE
8
0
10
117.907000
20
16.947500
11
117.907000
21
32.938200
0
LINE
8
0
10
134.559000
20
32.938200
11
151.210000
21
32.938200
0
LINE
8
0
10
151.210000
20
32.938200
11
151.210000
21
16.947500
0
LINE
8
0
10
151.210000
20
16.947500
11
134.559000
21
16.947500
0
LINE
8
0
10
134.559000
20
16.947500
11
134.559000
21
32.938200
0
LINE
8
0
10
151.210000
20
32.938200
11
167.862000
21
32.938200
0
LINE
8
0
10
167.862000
20
32.938200
11
167.862000
21
16.947500
0
LINE
8
0
10
167.862000
20
16.947500
11
151.210000
21
16.947500
0
LINE
8
0
10
151.210000
20
16.947500
11
151.210000
21
32.938200
0
LINE
8
0
10
167.862000
20
32.938200
11
184.513000
21
32.938200
0
LINE
8
0
10
184.513000
20
32.938200
11
184.513000
21
16.947500
0
LINE
8
0
10
184.513000
20
16.947500
11
167.862000
21
16.947500
0
LINE
8
0
10
167.862000
20
16.947500
11
167.862000
21
32.938200
0
LINE
8
0
10
1.346590
20
16.947500
11
17.998100
21
16.947500
0
LINE
8
0
10
17.998100
20
16.947500
11
17.998100
21
0.956944
0
LINE
8
0
10
17.998100
20
0.956944
11
1.346590
21
0.956944
0
LINE
8
0
10
1.346590
20
0.956944
11
1.346590
21
16.947500
0
LINE
8
0
10
17.998100
20
16.947500
11
34.649600
21
16.947500
0
LINE
8
0
10
34.649600
20
16.947500
11
34.649600
21
0.956944
0
LINE
8
0
10
34.649600
20
0.956944
11
17.998100
21
0.956944
0
LINE
8
0
10
17.998100
20
0.956944
11
17.998100
21
16.947500
0
LINE
8
0
10
34.649600
20
16.947500
11
51.301100
21
16.947500
0
LINE
8
0
10
51.301100
20
16.947500
11
51.301100
21
0.956944
0
LINE
8
0
10
51.301100
20
0.956944
11
34.649600
21
0.956944
0
LINE
8
0
10
34.649600
20
0.956944
11
34.649600
21
16.947500
0
LINE
8
0
10
51.301100
20
16.947500
11
67.952600
21
16.947500
0
LINE
8
0
10
67.952600
20
16.947500
11
67.952600
21
0.956944
0
LINE
8
0
10
67.952600
20
0.956944
11
51.301100
21
0.956944
0
LINE
8
0
10
51.301100
20
0.956944
11
51.301100
21
16.947500
0
LINE
8
0
10
67.952600
20
16.947500
11
84.604100
21
16.947500
0
LINE
8
0
10
84.604100
20
16.947500
11
84.604100
21
0.956944
0
LINE
8
0
10
84.604100
20
0.956944
11
67.952600
21
0.956944
0
LINE
8
0
10
67.952600
20
0.956944
11
67.952600
21
16.947500
0
LINE
8
0
10
84.604100
20
16.947500
11
101.256000
21
16.947500
0
LINE
8
0
10
101.256000
20
16.947500
11
101.256000
21
0.956944
0
LINE
8
0
10
101.256000
20
0.956944
11
84.604100
21
0.956944
0
LINE
8
0
10
84.604100
20
0.956944
11
84.604100
21
16.947500
0
LINE
8
0
10
101.256000
20
16.947500
11
117.907000
21
16.947500
0
LINE
8
0
10
117.907000
20
16.947500
11
117.907000
21
0.956944
0
LINE
8
0
10
117.907000
20
0.956944
11
101.256000
21
0.956944
0
LINE
8
0
10
101.256000
20
0.956944
11
101.256000
21
16.947500
0
LINE
8
0
10
117.907000
20
16.947500
11
134.559000
21
16.947500
0
LINE
8
0
10
134.559000
20
16.947500
11
134.559000
21
0.956944
0
LINE
8
0
10
134.559000
20
0.956944
11
117.907000
21
0.956944
0
LINE
8
0
10
117.907000
20
0.956944
11
117.907000
21
16.947500
0
LINE
8
0
10
134.559000
20
16.947500
11
151.210000
21
16.947500
0
LINE
8
0
10
151.210000
20
16.947500
11
151.210000
21
0.956944
0
LINE
8
0
10
151.210000
20
0.956944
11
134.559000
21
0.956944
0
LINE
8
0
10
134.559000
20
0.956944
11
134.559000
21
16.947500
0
LINE
8
0
10
151.210000
20
16.947500
11
167.862000
21
16.947500
0
LINE
8
0
10
167.862000
20
16.947500
11
167.862000
21
0.956944
0
LINE
8
0
10
167.862000
20
0.956944
11
151.210000
21
0.956944
0
LINE
8
0
10
151.210000
20
0.956944
11
151.210000
21
16.947500
0
LINE
8
0
10
179.389000
20
4.851610
11
178.824100
21
4.648688
0
LINE
8
0
10
178.824100
20
4.648688
11
178.231940
21
4.707148
0
LINE
8
0
10
178.231000
20
4.707140
11
177.712140
21
5.032762
0
LINE
8
0
10
177.713000
20
5.032770
11
177.387142
21
5.555427
0
LINE
8
0
10
177.387000
20
5.555420
11
177.323941
21
6.107248
0
LINE
8
0
10
177.323941
20
6.107248
11
177.501133
21
6.661300
0
LINE
8
0
10
177.501000
20
6.661300
11
177.972606
21
7.132893
0
LINE
8
0
10
177.972000
20
7.132890
11
178.705620
21
7.312886
0
LINE
8
0
10
178.706000
20
7.312890
11
179.363182
21
7.119427
0
LINE
8
0
10
179.363000
20
7.119430
11
179.798374
21
6.684270
0
LINE
8
0
10
179.799000
20
6.684270
11
179.989569
21
6.088518
0
LINE
8
0
10
179.989569
20
6.088518
11
179.896422
21
5.461310
0
LINE
8
0
10
179.896000
20
5.461310
11
179.388440
21
4.851605
0
LINE
8
0
10
167.862000
20
16.947500
11
184.513000
21
16.947500
0
LINE
8
0
10
184.513000
20
16.947500
11
184.513000
21
0.956944
0
LINE
8
0
10
184.513000
20
0.956944
11
167.862000
21
0.956944
0
LINE
8
0
10
167.862000
20
0.956944
11
167.862000
21
16.947500
0
LINE
8
0
10
174.539000
20
5.172120
11
174.660179
21
6.121849
0
LINE
8
0
10
174.660179
20
6.121849
11
174.950752
21
7.033700
0
LINE
8
0
10
174.951000
20
7.033700
11
175.831005
21
8.405127
0
LINE
8
0
10
175.831005
20
8.405127
11
177.088500
21
9.427460
0
LINE
8
0
10
177.088000
20
9.427460
11
178.223865
21
9.900978
0
LINE
8
0
10
178.223865
20
9.900978
11
179.425150
21
10.091881
0
LINE
8
0
10
175.167000
20
5.028770
11
174.535956
21
5.032210
0
LINE
8
0
10
174.535956
20
5.032210
11
174.539316
21
5.172069
0
LINE
8
0
10
179.485000
20
8.832120
11
178.366181
21
8.621886
0
LINE
8
0
10
178.366181
20
8.621886
11
177.329480
21
8.081551
0
LINE
8
0
10
177.330000
20
8.081560
11
176.552211
21
7.304374
0
LINE
8
0
10
176.552000
20
7.304370
11
176.011250
21
6.265790
0
LINE
8
0
10
176.011250
20
6.265790
11
175.801590
21
5.148810
0
LINE
8
0
10
179.425000
20
10.091900
11
179.600744
21
10.096662
0
LINE
8
0
10
179.600744
20
10.096662
11
179.604660
21
9.466372
0
LINE
8
0
10
179.604660
20
9.466372
11
179.608576
21
8.836082
0
LINE
8
0
10
179.608576
20
8.836082
11
179.485018
21
8.832114
0
LINE
8
0
10
175.802000
20
5.148810
11
175.797978
21
5.025329
0
LINE
8
0
10
175.797978
20
5.025329
11
175.166945
21
5.028769
0
LINE
8
0
10
175.166945
20
5.028769
11
175.166000
21
5.028720
0
LINE
8
0
10
172.007000
20
5.300360
11
172.116651
21
6.367228
0
LINE
8
0
10
172.116651
20
6.367228
11
172.387063
21
7.423964
0
LINE
8
0
10
172.387063
20
7.423964
11
172.807498
21
8.438383
0
LINE
8
0
10
172.807498
20
8.438383
11
173.367220
21
9.378300
0
LINE
8
0
10
173.367000
20
9.378300
11
174.235234
21
10.398430
0
LINE
8
0
10
174.235000
20
10.398400
11
175.255190
21
11.266576
0
LINE
8
0
10
175.255000
20
11.266600
11
176.194981
21
11.826211
0
LINE
8
0
10
176.194981
20
11.826211
11
177.209681
21
12.246627
0
LINE
8
0
10
177.209681
20
12.246627
11
178.266759
21
12.517059
0
LINE
8
0
10
178.266759
20
12.517059
11
179.333870
21
12.626720
0
LINE
8
0
10
172.631000
20
5.031440
11
172.000000
21
5.031440
0
LINE
8
0
10
172.000000
20
5.031440
11
172.006535
21
5.301685
0
LINE
8
0
10
179.376000
20
11.365300
11
178.376003
21
11.251455
0
LINE
8
0
10
178.376003
20
11.251455
11
177.401810
21
10.974306
0
LINE
8
0
10
177.401810
20
10.974306
11
176.474529
21
10.541732
0
LINE
8
0
10
176.474529
20
10.541732
11
175.615270
21
9.961610
0
LINE
8
0
10
175.615000
20
9.961630
11
174.671785
21
9.018471
0
LINE
8
0
10
174.672000
20
9.018470
11
174.091736
21
8.159200
0
LINE
8
0
10
174.091736
20
8.159200
11
173.659137
21
7.232061
0
LINE
8
0
10
173.659137
20
7.232061
11
173.382019
21
6.257997
0
LINE
8
0
10
173.382019
20
6.257997
11
173.268200
21
5.257950
0
LINE
8
0
10
179.334000
20
12.626700
11
179.604883
21
12.633315
0
LINE
8
0
10
179.604883
20
12.633315
11
179.602766
21
12.002629
0
LINE
8
0
10
179.602766
20
12.002629
11
179.600650
21
11.371943
0
LINE
8
0
10
179.600650
20
11.371943
11
179.375508
21
11.365328
0
LINE
8
0
10
173.268000
20
5.257950
11
173.261385
21
5.032737
0
LINE
8
0
10
173.261385
20
5.032737
11
172.631000
21
5.032740
 0 
ENDSEC
 0 
EOF