<?xml version="1.0" encoding="UTF-8" standalone="no"?>
<svg
   width="250mm"
   height="250mm"
   version="1.1"
   id="svg10244"
   sodipodi:docname="Zuerideutsch_121_25x25.svg"
   inkscape:version="1.2.1 (9c6d41e410, 2022-07-14)"
   xmlns:inkscape="http://www.inkscape.org/namespaces/inkscape"
   xmlns:sodipodi="http://sodipodi.sourceforge.net/DTD/sodipodi-0.dtd"
   xmlns="http://www.w3.org/2000/svg"
   xmlns:svg="http://www.w3.org/2000/svg">
  <defs
     id="defs10248" />
  <sodipodi:namedview
     id="namedview10246"
     pagecolor="#505050"
     bordercolor="#eeeeee"
     borderopacity="1"
     inkscape:showpageshadow="0"
     inkscape:pageopacity="0"
     inkscape:pagecheckerboard="0"
     inkscape:deskcolor="#505050"
     inkscape:document-units="mm"
     showgrid="false"
     inkscape:zoom="0.82501648"
     inkscape:cx="808.4687"
     inkscape:cy="476.35412"
     inkscape:window-width="2560"
     inkscape:window-height="1369"
     inkscape:window-x="-8"
     inkscape:window-y="-8"
     inkscape:window-maximized="1"
     inkscape:current-layer="svg10244" />
  <path
     id="rect9514"
     style="fill:#231f20;stroke-width:0mm"
     d="M 0,0 H 944.88189 V 944.88189 H 0 Z" />
  <path
     d="m 166.83248,185.21574 h -16.84062 v -30.20979 h 16.84062 v 3.12017 h -13.32785 v 9.73242 h 12.52198 v 3.0995 h -12.52198 v 11.11688 h 13.32785 z"
     id="path11835"
     style="font-size:42.3185px;font-family:'Open Sans';text-anchor:middle;fill:#ffffff;stroke-width:0mm" />
  <path
     d="m 230.16101,177.17771 q 0,3.98802 -2.89286,6.21966 -2.89287,2.23164 -7.85207,2.23164 -5.37247,0 -8.26533,-1.38444 v -3.38879 q 1.8597,0.78521 4.05001,1.2398 2.19031,0.45459 4.3393,0.45459 3.51277,0 5.28981,-1.32245 1.77705,-1.34312 1.77705,-3.7194 0,-1.57041 -0.64056,-2.56225 -0.6199,-1.01251 -2.10766,-1.8597 -1.4671,-0.8472 -4.48395,-1.92169 -4.21532,-1.50842 -6.03369,-3.57476 -1.79771,-2.06633 -1.79771,-5.39313 0,-3.4921 2.62424,-5.55843 2.62425,-2.06634 6.94288,-2.06634 4.50461,0 8.286,1.65307 l -1.09516,3.05817 q -3.74006,-1.57041 -7.27349,-1.57041 -2.78955,0 -4.35996,1.19847 -1.57042,1.19848 -1.57042,3.3268 0,1.57041 0.57858,2.58292 0.57857,0.99184 1.94235,1.83903 1.38444,0.82654 4.21532,1.83904 4.75257,1.69439 6.52961,3.63675 1.79771,1.94235 1.79771,5.04185 z"
     id="path11832"
     style="font-size:42.3185px;font-family:'Open Sans';text-anchor:middle;fill:#ffffff;stroke-width:0mm" />
  <path
     d="m 296.38241,169.82156 q 0,7.48013 -4.07067,11.44749 -4.05002,3.94669 -11.67479,3.94669 h -8.36864 v -30.20979 h 9.25717 q 7.04619,0 10.95156,3.90537 3.90537,3.90537 3.90537,10.91024 z m -3.7194,0.12398 q 0,-5.90971 -2.97552,-8.90589 -2.95485,-2.99619 -8.80258,-2.99619 h -5.10384 v 24.13477 h 4.27731 q 6.28165,0 9.44314,-3.07883 3.16149,-3.0995 3.16149,-9.15386 z"
     id="path11829"
     style="font-size:42.3185px;font-family:'Open Sans';text-anchor:middle;fill:#ffffff;stroke-width:0mm" />
  <path
     d="m 344.76104,185.21574 v -30.20979 h 3.51276 v 30.20979 z"
     id="path11826"
     style="font-size:42.3185px;font-family:'Open Sans';text-anchor:middle;fill:#ffffff;stroke-width:0mm" />
  <path
     d="m 419.06182,177.17771 q 0,3.98802 -2.89286,6.21966 -2.89287,2.23164 -7.85207,2.23164 -5.37247,0 -8.26533,-1.38444 v -3.38879 q 1.8597,0.78521 4.05001,1.2398 2.19031,0.45459 4.3393,0.45459 3.51277,0 5.28981,-1.32245 1.77705,-1.34312 1.77705,-3.7194 0,-1.57041 -0.64056,-2.56225 -0.6199,-1.01251 -2.10766,-1.8597 -1.4671,-0.8472 -4.48395,-1.92169 -4.21532,-1.50842 -6.03369,-3.57476 -1.79771,-2.06633 -1.79771,-5.39313 0,-3.4921 2.62424,-5.55843 2.62425,-2.06634 6.94288,-2.06634 4.50461,0 8.286,1.65307 l -1.09516,3.05817 q -3.74006,-1.57041 -7.27349,-1.57041 -2.78955,0 -4.35996,1.19847 -1.57042,1.19848 -1.57042,3.3268 0,1.57041 0.57858,2.58292 0.57857,0.99184 1.94235,1.83903 1.38444,0.82654 4.21532,1.83904 4.75257,1.69439 6.52961,3.63675 1.79771,1.94235 1.79771,5.04185 z"
     id="path11823"
     style="font-size:42.3185px;font-family:'Open Sans';text-anchor:middle;fill:#ffffff;stroke-width:0mm" />
  <path
     d="m 476.18102,157.71285 q -4.97986,0 -7.87273,3.3268 -2.8722,3.30613 -2.8722,9.0712 0,5.93037 2.76888,9.17452 2.78955,3.22348 7.93472,3.22348 3.16149,0 7.2115,-1.13649 v 3.07884 q -3.14082,1.17781 -7.74875,1.17781 -6.67425,0 -10.311,-4.05001 -3.61608,-4.05002 -3.61608,-11.50948 0,-4.66991 1.73572,-8.18268 1.75638,-3.51276 5.04185,-5.41379 3.30614,-1.90103 7.76941,-1.90103 4.75257,0 8.30666,1.73572 l -1.48776,3.01685 q -3.43011,-1.61174 -6.86022,-1.61174 z"
     id="path11820"
     style="font-size:42.3185px;font-family:'Open Sans';text-anchor:middle;fill:#ffffff;stroke-width:0mm" />
  <path
     d="m 546.88638,185.21574 h -3.51276 v -14.21637 h -15.91077 v 14.21637 h -3.51276 v -30.20979 h 3.51276 v 12.85259 h 15.91077 v -12.85259 h 3.51276 z"
     id="path11817"
     style="font-size:42.3185px;font-family:'Open Sans';text-anchor:middle;fill:#ffffff;stroke-width:0mm" />
  <path
     d="m 609.3057,185.21574 h -3.47144 l -6.09569,-20.2294 q -0.43393,-1.34311 -0.97117,-3.38878 -0.53725,-2.04567 -0.55791,-2.45894 -0.4546,2.72756 -1.44644,5.9717 l -5.90971,20.10542 h -3.47144 l -8.03803,-30.20979 h 3.7194 l 4.77322,18.65899 q 0.99184,3.92603 1.44644,7.10819 0.55791,-3.78139 1.65306,-7.39748 l 5.4138,-18.3697 h 3.7194 l 5.68241,18.53501 q 0.99184,3.20282 1.67373,7.23217 0.39261,-2.9342 1.48776,-7.14952 l 4.75257,-18.61766 h 3.7194 z"
     id="path11814"
     style="font-size:42.3185px;font-family:'Open Sans';text-anchor:middle;fill:#ffffff;stroke-width:0mm" />
  <path
     d="m 671.72501,185.21574 h -20.76665 v -2.74822 l 16.03474,-24.30008 h -15.53882 v -3.16149 h 19.81613 v 2.74823 l -16.03474,24.27941 h 16.48934 z"
     id="path11811"
     style="font-size:42.3185px;font-family:'Open Sans';text-anchor:middle;fill:#ffffff;stroke-width:0mm" />
  <path
     d="m 734.06175,185.21574 -3.76072,-9.60845 h -12.10871 l -3.7194,9.60845 h -3.5541 l 11.94341,-30.33377 h 2.95485 l 11.88142,30.33377 z m -4.85588,-12.76994 -3.51277,-9.36048 q -0.68189,-1.77705 -1.4051,-4.35997 -0.45459,1.98368 -1.30179,4.35997 l -3.55409,9.36048 z m -10.76559,-22.99828 q 0,-1.0745 0.53724,-1.54975 0.55791,-0.47526 1.32246,-0.47526 0.7852,0 1.34311,0.47526 0.57858,0.47525 0.57858,1.54975 0,1.03316 -0.57858,1.54975 -0.55791,0.49592 -1.34311,0.49592 -0.76455,0 -1.32246,-0.49592 -0.53724,-0.51659 -0.53724,-1.54975 z m 7.87272,0 q 0,-1.0745 0.53725,-1.54975 0.55791,-0.47526 1.32245,-0.47526 0.76455,0 1.32246,0.47526 0.57857,0.47525 0.57857,1.54975 0,1.03316 -0.57857,1.54975 -0.55791,0.49592 -1.32246,0.49592 -0.76454,0 -1.32245,-0.49592 -0.53725,-0.51659 -0.53725,-1.54975 z"
     id="path11808"
     style="font-size:42.3185px;font-family:'Open Sans';text-anchor:middle;fill:#ffffff;stroke-width:0mm" />
  <path
     d="m 784.02111,185.21574 h -3.51277 v -30.20979 h 16.84061 v 3.12017 H 784.02111 V 169.181 h 12.52197 v 3.12016 h -12.52197 z"
     id="path11805"
     style="font-size:42.3185px;font-family:'Open Sans';text-anchor:middle;fill:#ffffff;stroke-width:0mm" />
  <path
     d="m 166.41921,215.4784 h 3.78139 l -10.88958,30.20979 h -3.47144 L 145.012,215.4784 h 3.7194 l 6.94288,19.54751 q 1.19847,3.36812 1.90102,6.55027 0.74388,-3.34746 1.94236,-6.67425 z"
     id="path11802"
     style="font-size:42.3185px;font-family:'Open Sans';text-anchor:middle;fill:#ffffff;stroke-width:0mm" />
  <path
     d="M 218.82717,245.68819 V 215.4784 h 3.51277 v 30.20979 z"
     id="path11799"
     style="font-size:42.3185px;font-family:'Open Sans';text-anchor:middle;fill:#ffffff;stroke-width:0mm" />
  <path
     d="M 292.76633,245.68819 H 275.92572 V 215.4784 h 16.84061 v 3.12016 h -13.32785 v 9.73243 h 12.52198 v 3.0995 h -12.52198 v 11.11687 h 13.32785 z"
     id="path11796"
     style="font-size:42.3185px;font-family:'Open Sans';text-anchor:middle;fill:#ffffff;stroke-width:0mm" />
  <path
     d="m 341.09329,233.12488 v 12.56331 h -3.51276 V 215.4784 h 8.28599 q 5.55844,0 8.20335,2.12832 2.66557,2.12832 2.66557,6.40563 0,5.99237 -6.07502,8.10003 l 8.20334,13.57581 h -4.15333 l -7.31482,-12.56331 z m 0,-3.01684 h 4.81456 q 3.7194,0 5.45512,-1.4671 1.73572,-1.48776 1.73572,-4.44262 0,-2.99618 -1.77705,-4.31863 -1.75638,-1.32246 -5.66175,-1.32246 h -4.5666 z"
     id="path11793"
     style="font-size:42.3185px;font-family:'Open Sans';text-anchor:middle;fill:#ffffff;stroke-width:0mm" />
  <path
     d="m 411.22009,245.68819 h -3.51277 v -27.08963 h -9.56712 v -3.12016 h 22.64701 v 3.12016 h -9.56712 z"
     id="path11790"
     style="font-size:42.3185px;font-family:'Open Sans';text-anchor:middle;fill:#ffffff;stroke-width:0mm" />
  <path
     d="M 481.66713,245.68819 H 464.82652 V 215.4784 h 16.84061 v 3.12016 h -13.32785 v 9.73243 h 12.52198 v 3.0995 h -12.52198 v 11.11687 h 13.32785 z"
     id="path11787"
     style="font-size:42.3185px;font-family:'Open Sans';text-anchor:middle;fill:#ffffff;stroke-width:0mm" />
  <path
     d="M 528.57867,245.68819 V 215.4784 h 3.51277 v 27.02763 h 13.32785 v 3.18216 z"
     id="path11784"
     style="font-size:42.3185px;font-family:'Open Sans';text-anchor:middle;fill:#ffffff;stroke-width:0mm" />
  <path
     d="m 595.12032,245.68819 h -3.51277 V 215.4784 h 16.84062 v 3.12016 h -13.32785 v 11.05488 h 12.52198 v 3.12017 h -12.52198 z"
     id="path11781"
     style="font-size:42.3185px;font-family:'Open Sans';text-anchor:middle;fill:#ffffff;stroke-width:0mm" />
  <path
     d="m 675.23777,230.54197 q 0,7.25283 -3.67807,11.40615 -3.65741,4.15333 -10.18702,4.15333 -6.67426,0 -10.31101,-4.07067 -3.61608,-4.09134 -3.61608,-11.53014 0,-7.37681 3.63675,-11.42682 3.63674,-4.07068 10.33166,-4.07068 6.50895,0 10.16636,4.13267 3.65741,4.13266 3.65741,11.40616 z m -24.07278,0 q 0,6.137 2.60358,9.31916 2.62424,3.16149 7.60411,3.16149 5.02119,0 7.58344,-3.16149 2.56225,-3.16149 2.56225,-9.31916 0,-6.09569 -2.56225,-9.23651 -2.54159,-3.16149 -7.54212,-3.16149 -5.02119,0 -7.64543,3.18215 -2.60358,3.16149 -2.60358,9.21585 z"
     id="path11778"
     style="font-size:42.3185px;font-family:'Open Sans';text-anchor:middle;fill:#ffffff;stroke-width:0mm" />
  <path
     d="M 722.56261,245.68819 V 215.4784 h 3.51277 v 30.20979 z"
     id="path11775"
     style="font-size:42.3185px;font-family:'Open Sans';text-anchor:middle;fill:#ffffff;stroke-width:0mm" />
  <path
     d="m 784.02111,245.68819 h -3.51277 V 215.4784 h 16.84061 v 3.12016 h -13.32784 v 11.05488 h 12.52197 v 3.12017 h -12.52197 z"
     id="path11772"
     style="font-size:42.3185px;font-family:'Open Sans';text-anchor:middle;fill:#ffffff;stroke-width:0mm" />
  <path
     d="m 167.98962,306.16062 h -20.76664 v -2.74822 l 16.03474,-24.30008 H 147.7189 v -3.16149 h 19.81613 v 2.74823 l -16.03474,24.27941 h 16.48933 z"
     id="path11769"
     style="font-size:42.3185px;font-family:'Open Sans';text-anchor:middle;fill:#ffffff;stroke-width:0mm" />
  <path
     d="m 231.50413,306.16062 h -3.47144 l -6.09568,-20.2294 q -0.43393,-1.34311 -0.97118,-3.38878 -0.53725,-2.04567 -0.55791,-2.45894 -0.45459,2.72756 -1.44643,5.9717 l -5.90972,20.10542 h -3.47144 l -8.03803,-30.20979 h 3.7194 l 4.77323,18.65899 q 0.99184,3.92603 1.44643,7.10819 0.55791,-3.78139 1.65307,-7.39748 l 5.41379,-18.3697 h 3.7194 l 5.68242,18.53501 q 0.99184,3.20282 1.67372,7.23217 0.39261,-2.9342 1.48776,-7.14952 l 4.75257,-18.61766 h 3.7194 z"
     id="path11766"
     style="font-size:42.3185px;font-family:'Open Sans';text-anchor:middle;fill:#ffffff;stroke-width:0mm" />
  <path
     d="m 293.29324,306.16062 -3.76072,-9.60845 h -12.10871 l -3.7194,9.60845 h -3.5541 l 11.94341,-30.33377 h 2.95486 l 11.88141,30.33377 z m -4.85588,-12.76994 -3.51276,-9.36048 q -0.68189,-1.77705 -1.40511,-4.35997 -0.45459,1.98368 -1.30179,4.35997 l -3.55409,9.36048 z M 277.67177,270.3924 q 0,-1.0745 0.53724,-1.54975 0.55791,-0.47526 1.32246,-0.47526 0.7852,0 1.34311,0.47526 0.57858,0.47525 0.57858,1.54975 0,1.03316 -0.57858,1.54975 -0.55791,0.49592 -1.34311,0.49592 -0.76455,0 -1.32246,-0.49592 -0.53724,-0.51659 -0.53724,-1.54975 z m 7.87273,0 q 0,-1.0745 0.53724,-1.54975 0.55791,-0.47526 1.32246,-0.47526 0.76454,0 1.32245,0.47526 0.57857,0.47525 0.57857,1.54975 0,1.03316 -0.57857,1.54975 -0.55791,0.49592 -1.32245,0.49592 -0.76455,0 -1.32246,-0.49592 -0.53724,-0.51659 -0.53724,-1.54975 z"
     id="path11763"
     style="font-size:42.3185px;font-family:'Open Sans';text-anchor:middle;fill:#ffffff;stroke-width:0mm" />
  <path
     d="m 358.30585,306.16062 h -4.00869 l -16.51,-25.3539 h -0.16531 q 0.33062,4.46328 0.33062,8.18267 v 17.17123 h -3.24414 v -30.20979 h 3.96735 l 16.46868,25.25059 h 0.16531 q -0.0413,-0.55791 -0.18597,-3.57475 -0.14465,-3.03751 -0.10332,-4.3393 v -17.33654 h 3.28547 z"
     id="path11760"
     style="font-size:42.3185px;font-family:'Open Sans';text-anchor:middle;fill:#ffffff;stroke-width:0mm" />
  <path
     d="m 419.85736,306.16062 h -20.76665 v -2.74822 l 16.03475,-24.30008 h -15.53883 v -3.16149 h 19.81614 v 2.74823 l -16.03475,24.27941 h 16.48934 z"
     id="path11757"
     style="font-size:42.3185px;font-family:'Open Sans';text-anchor:middle;fill:#ffffff;stroke-width:0mm" />
  <path
     d="m 474.47629,290.33251 h 10.26968 v 14.69163 q -2.39695,0.76454 -4.87655,1.15715 -2.4796,0.3926 -5.7444,0.3926 -6.86023,0 -10.68294,-4.07068 -3.82272,-4.09134 -3.82272,-11.44748 0,-4.71124 1.88036,-8.24467 1.90103,-3.55409 5.45512,-5.41379 3.55409,-1.88037 8.32732,-1.88037 4.83522,0 9.00922,1.77705 l -1.36378,3.0995 q -4.09134,-1.73572 -7.87273,-1.73572 -5.51711,0 -8.61661,3.28547 -3.0995,3.28547 -3.0995,9.11253 0,6.11634 2.97552,9.27783 2.99618,3.16149 8.78191,3.16149 3.14083,0 6.13701,-0.72321 v -9.2985 h -6.75691 z"
     id="path11754"
     style="font-size:42.3185px;font-family:'Open Sans';text-anchor:middle;fill:#ffffff;stroke-width:0mm" />
  <path
     d="m 549.30399,291.0144 q 0,5.8064 -2.33495,9.64978 -2.33496,3.84338 -6.5916,5.20716 l 7.19083,7.48012 h -5.10384 l -5.88905,-6.8189 -1.13648,0.0413 q -6.67426,0 -10.311,-4.07068 -3.61608,-4.09134 -3.61608,-11.53014 0,-7.3768 3.63674,-11.42682 3.63675,-4.07067 10.33167,-4.07067 6.50895,0 10.16636,4.13266 3.6574,4.13267 3.6574,11.40616 z m -24.07278,0 q 0,6.13701 2.60358,9.31916 2.62425,3.16149 7.60411,3.16149 5.02119,0 7.58344,-3.16149 2.56226,-3.16149 2.56226,-9.31916 0,-6.09568 -2.56226,-9.23651 -2.54159,-3.16149 -7.54211,-3.16149 -5.02119,0 -7.64544,3.18216 -2.60358,3.16149 -2.60358,9.21584 z"
     id="path11751"
     style="font-size:42.3185px;font-family:'Open Sans';text-anchor:middle;fill:#ffffff;stroke-width:0mm" />
  <path
     d="m 611.21705,290.76644 q 0,7.48013 -4.07067,11.44749 -4.05002,3.94669 -11.67478,3.94669 h -8.36865 v -30.20979 h 9.25717 q 7.04619,0 10.95156,3.90537 3.90537,3.90537 3.90537,10.91024 z m -3.7194,0.12398 q 0,-5.90971 -2.97552,-8.90589 -2.95485,-2.99619 -8.80257,-2.99619 h -5.10385 v 24.13477 h 4.27731 q 6.28165,0 9.44314,-3.07883 3.16149,-3.0995 3.16149,-9.15386 z"
     id="path11748"
     style="font-size:42.3185px;font-family:'Open Sans';text-anchor:middle;fill:#ffffff;stroke-width:0mm" />
  <path
     d="m 670.15459,275.95083 h 3.78139 l -10.88957,30.20979 h -3.47144 l -10.82759,-30.20979 h 3.7194 l 6.94288,19.54751 q 1.19847,3.36813 1.90103,6.55028 0.74388,-3.34746 1.94235,-6.67426 z"
     id="path11745"
     style="font-size:42.3185px;font-family:'Open Sans';text-anchor:middle;fill:#ffffff;stroke-width:0mm" />
  <path
     d="m 738.20475,291.0144 q 0,7.25283 -3.67807,11.40616 -3.65741,4.15333 -10.18702,4.15333 -6.67426,0 -10.31101,-4.07068 -3.61608,-4.09134 -3.61608,-11.53014 0,-7.3768 3.63675,-11.42682 3.63674,-4.07067 10.33166,-4.07067 6.50895,0 10.16636,4.13266 3.65741,4.13267 3.65741,11.40616 z m -24.07278,0 q 0,6.13701 2.60358,9.31916 2.62424,3.16149 7.60411,3.16149 5.02119,0 7.58344,-3.16149 2.56225,-3.16149 2.56225,-9.31916 0,-6.09568 -2.56225,-9.23651 -2.54159,-3.16149 -7.54212,-3.16149 -5.02119,0 -7.64543,3.18216 -2.60358,3.16149 -2.60358,9.21584 z"
     id="path11742"
     style="font-size:42.3185px;font-family:'Open Sans';text-anchor:middle;fill:#ffffff;stroke-width:0mm" />
  <path
     d="m 781.86179,293.59732 v 12.5633 h -3.51277 v -30.20979 h 8.286 q 5.55843,0 8.20334,2.12833 2.66557,2.12832 2.66557,6.40563 0,5.99236 -6.07502,8.10002 l 8.20334,13.57581 h -4.15333 l -7.31482,-12.5633 z m 0,-3.01685 h 4.81455 q 3.7194,0 5.45512,-1.4671 1.73572,-1.48776 1.73572,-4.44261 0,-2.99618 -1.77704,-4.31864 -1.75639,-1.32245 -5.66176,-1.32245 h -4.56659 z"
     id="path11739"
     style="font-size:42.3185px;font-family:'Open Sans';text-anchor:middle;fill:#ffffff;stroke-width:0mm" />
  <path
     d="m 170.5932,366.63308 h -4.13266 l -11.01356,-14.6503 -3.16149,2.81021 v 11.84009 h -3.51276 v -30.20979 h 3.51276 v 14.98092 l 13.69979,-14.98092 h 4.15333 l -12.15004,13.12122 z"
     id="path11736"
     style="font-size:42.3185px;font-family:'Open Sans';text-anchor:middle;fill:#ffffff;stroke-width:0mm" />
  <path
     d="m 230.32632,366.63308 -3.76073,-9.60845 h -12.10871 l -3.7194,9.60845 h -3.55409 l 11.9434,-30.33377 h 2.95486 l 11.88141,30.33377 z m -4.85588,-12.76994 -3.51277,-9.36049 q -0.68189,-1.77704 -1.40511,-4.35996 -0.45459,1.98368 -1.30179,4.35996 l -3.55409,9.36049 z"
     id="path11733"
     style="font-size:42.3185px;font-family:'Open Sans';text-anchor:middle;fill:#ffffff;stroke-width:0mm" />
  <path
     d="m 273.98336,336.42329 h 8.53396 q 6.01303,0 8.69926,1.79771 2.68623,1.79771 2.68623,5.68242 0,2.68623 -1.50842,4.44261 -1.48776,1.73572 -4.35996,2.25231 v 0.20663 q 6.88089,1.17781 6.88089,7.23216 0,4.05002 -2.74823,6.32298 -2.72756,2.27297 -7.64543,2.27297 h -10.5383 z m 3.51277,12.93525 h 5.78573 q 3.7194,0 5.3518,-1.15715 1.63241,-1.17781 1.63241,-3.9467 0,-2.54159 -1.81838,-3.65741 -1.81837,-1.13648 -5.78573,-1.13648 h -5.16583 z m 0,2.97552 v 11.30284 h 6.30231 q 3.65741,0 5.49645,-1.40511 1.8597,-1.42577 1.8597,-4.44262 0,-2.81021 -1.90103,-4.13266 -1.88036,-1.32245 -5.7444,-1.32245 z"
     id="path11730"
     style="font-size:42.3185px;font-family:'Open Sans';text-anchor:middle;fill:#ffffff;stroke-width:0mm" />
  <path
     d="m 359.34935,351.2389 q 0,7.48012 -4.07068,11.44748 -4.05001,3.9467 -11.67478,3.9467 h -8.36865 v -30.20979 h 9.25717 q 7.0462,0 10.95157,3.90537 3.90537,3.90537 3.90537,10.91024 z m -3.7194,0.12398 q 0,-5.90971 -2.97552,-8.9059 -2.95486,-2.99618 -8.80258,-2.99618 h -5.10384 v 24.13477 h 4.27731 q 6.28165,0 9.44314,-3.07884 3.16149,-3.0995 3.16149,-9.15385 z"
     id="path11727"
     style="font-size:42.3185px;font-family:'Open Sans';text-anchor:middle;fill:#ffffff;stroke-width:0mm" />
  <path
     d="m 420.95252,366.63308 h -3.51277 v -14.21637 h -15.91076 v 14.21637 h -3.51277 v -30.20979 h 3.51277 v 12.85259 h 15.91076 v -12.85259 h 3.51277 z"
     id="path11724"
     style="font-size:42.3185px;font-family:'Open Sans';text-anchor:middle;fill:#ffffff;stroke-width:0mm" />
  <path
     d="m 482.19405,366.63308 -3.76073,-9.60845 h -12.10871 l -3.7194,9.60845 h -3.55409 l 11.9434,-30.33377 h 2.95486 l 11.88141,30.33377 z m -4.85589,-12.76994 -3.51276,-9.36049 q -0.68189,-1.77704 -1.40511,-4.35996 -0.45459,1.98368 -1.30179,4.35996 l -3.55409,9.36049 z"
     id="path11721"
     style="font-size:42.3185px;font-family:'Open Sans';text-anchor:middle;fill:#ffffff;stroke-width:0mm" />
  <path
     d="m 528.57867,366.63308 v -30.20979 h 3.51277 v 27.02764 h 13.32785 v 3.18215 z"
     id="path11718"
     style="font-size:42.3185px;font-family:'Open Sans';text-anchor:middle;fill:#ffffff;stroke-width:0mm" />
  <path
     d="m 588.818,336.42329 h 8.53396 q 6.01303,0 8.69926,1.79771 2.68623,1.79771 2.68623,5.68242 0,2.68623 -1.50842,4.44261 -1.48776,1.73572 -4.35996,2.25231 v 0.20663 q 6.88089,1.17781 6.88089,7.23216 0,4.05002 -2.74823,6.32298 -2.72756,2.27297 -7.64543,2.27297 H 588.818 Z m 3.51277,12.93525 h 5.78573 q 3.7194,0 5.3518,-1.15715 1.63241,-1.17781 1.63241,-3.9467 0,-2.54159 -1.81838,-3.65741 -1.81837,-1.13648 -5.78573,-1.13648 h -5.16583 z m 0,2.97552 v 11.30284 h 6.30231 q 3.65741,0 5.49645,-1.40511 1.8597,-1.42577 1.8597,-4.44262 0,-2.81021 -1.90103,-4.13266 -1.88036,-1.32245 -5.7444,-1.32245 z"
     id="path11715"
     style="font-size:42.3185px;font-family:'Open Sans';text-anchor:middle;fill:#ffffff;stroke-width:0mm" />
  <path
     d="m 659.59563,366.63308 v -30.20979 h 3.51277 v 30.20979 z"
     id="path11712"
     style="font-size:42.3185px;font-family:'Open Sans';text-anchor:middle;fill:#ffffff;stroke-width:0mm" />
  <path
     d="m 726.05471,366.63308 h -3.51276 v -27.08963 h -9.56712 v -3.12016 h 22.64701 v 3.12016 h -9.56713 z"
     id="path11709"
     style="font-size:42.3185px;font-family:'Open Sans';text-anchor:middle;fill:#ffffff;stroke-width:0mm" />
  <path
     d="m 797.6589,366.63308 h -20.76664 v -2.74822 L 792.927,339.58478 h -15.53882 v -3.16149 h 19.81613 v 2.74822 l -16.03474,24.27942 h 16.48933 z"
     id="path11706"
     style="font-size:42.3185px;font-family:'Open Sans';text-anchor:middle;fill:#ffffff;stroke-width:0mm" />
  <path
     d="m 166.83248,427.10551 h -16.84062 v -30.20979 h 16.84062 v 3.12016 h -13.32785 v 9.73243 h 12.52198 v 3.0995 h -12.52198 v 11.11687 h 13.32785 z"
     id="path11703"
     style="font-size:42.3185px;font-family:'Open Sans';text-anchor:middle;fill:#ffffff;stroke-width:0mm" />
  <path
     d="m 218.82717,427.10551 v -30.20979 h 3.51277 v 30.20979 z"
     id="path11700"
     style="font-size:42.3185px;font-family:'Open Sans';text-anchor:middle;fill:#ffffff;stroke-width:0mm" />
  <path
     d="m 293.12794,419.06747 q 0,3.98802 -2.89287,6.21966 -2.89286,2.23164 -7.85206,2.23164 -5.37247,0 -8.26534,-1.38444 v -3.38879 q 1.8597,0.78521 4.05002,1.2398 2.19031,0.4546 4.3393,0.4546 3.51276,0 5.28981,-1.32246 1.77705,-1.34311 1.77705,-3.71939 0,-1.57042 -0.64057,-2.56226 -0.6199,-1.0125 -2.10766,-1.8597 -1.46709,-0.84719 -4.48394,-1.92169 -4.21532,-1.50842 -6.03369,-3.57475 -1.79771,-2.06634 -1.79771,-5.39313 0,-3.49211 2.62424,-5.55844 2.62424,-2.06633 6.94288,-2.06633 4.50461,0 8.28599,1.65306 l -1.09515,3.05818 q -3.74006,-1.57042 -7.27349,-1.57042 -2.78955,0 -4.35997,1.19848 -1.57041,1.19847 -1.57041,3.32679 0,1.57042 0.57857,2.58292 0.57858,0.99184 1.94236,1.83904 1.38444,0.82653 4.21532,1.83903 4.75256,1.6944 6.52961,3.63675 1.79771,1.94235 1.79771,5.04185 z"
     id="path11697"
     style="font-size:42.3185px;font-family:'Open Sans';text-anchor:middle;fill:#ffffff;stroke-width:0mm" />
  <path
     d="m 360.40318,411.95929 q 0,5.80639 -2.33496,9.64977 -2.33496,3.84338 -6.5916,5.20716 l 7.19084,7.48013 h -5.10385 l -5.88904,-6.8189 -1.13649,0.0413 q -6.67425,0 -10.311,-4.07067 -3.61608,-4.09134 -3.61608,-11.53014 0,-7.37681 3.63674,-11.42682 3.63675,-4.07068 10.33167,-4.07068 6.50895,0 10.16636,4.13267 3.65741,4.13266 3.65741,11.40616 z m -24.07278,0 q 0,6.13701 2.60358,9.31916 2.62424,3.16149 7.6041,3.16149 5.02119,0 7.58344,-3.16149 2.56226,-3.16149 2.56226,-9.31916 0,-6.09569 -2.56226,-9.23651 -2.54159,-3.16149 -7.54211,-3.16149 -5.02119,0 -7.64543,3.18215 -2.60358,3.16149 -2.60358,9.21585 z"
     id="path11694"
     style="font-size:42.3185px;font-family:'Open Sans';text-anchor:middle;fill:#ffffff;stroke-width:0mm" />
  <path
     d="m 419.85736,427.10551 h -20.76665 v -2.74823 l 16.03475,-24.30007 h -15.53883 v -3.16149 h 19.81614 v 2.74822 l -16.03475,24.27941 h 16.48934 z"
     id="path11691"
     style="font-size:42.3185px;font-family:'Open Sans';text-anchor:middle;fill:#ffffff;stroke-width:0mm" />
  <path
     d="m 483.37186,427.10551 h -3.47144 l -6.09568,-20.2294 q -0.43393,-1.34312 -0.97118,-3.38879 -0.53725,-2.04567 -0.55791,-2.45894 -0.45459,2.72756 -1.44643,5.97171 l -5.90972,20.10542 h -3.47144 l -8.03803,-30.20979 h 3.7194 l 4.77323,18.65899 q 0.99184,3.92603 1.44643,7.10818 0.55791,-3.78139 1.65307,-7.39747 l 5.41379,-18.3697 h 3.7194 l 5.68241,18.53501 q 0.99184,3.20281 1.67373,7.23216 0.39261,-2.93419 1.48776,-7.14951 l 4.75257,-18.61766 h 3.7194 z"
     id="path11688"
     style="font-size:42.3185px;font-family:'Open Sans';text-anchor:middle;fill:#ffffff;stroke-width:0mm" />
  <path
     d="m 544.63408,427.10551 h -16.84061 v -30.20979 h 16.84061 v 3.12016 h -13.32785 v 9.73243 h 12.52198 v 3.0995 h -12.52198 v 11.11687 h 13.32785 z"
     id="path11685"
     style="font-size:42.3185px;font-family:'Open Sans';text-anchor:middle;fill:#ffffff;stroke-width:0mm" />
  <path
     d="m 596.62874,427.10551 v -30.20979 h 3.51277 v 30.20979 z"
     id="path11682"
     style="font-size:42.3185px;font-family:'Open Sans';text-anchor:middle;fill:#ffffff;stroke-width:0mm" />
  <path
     d="m 674.18394,411.71133 q 0,7.48012 -4.07067,11.44748 -4.05002,3.9467 -11.67479,3.9467 h -8.36864 v -30.20979 h 9.25717 q 7.04619,0 10.95156,3.90537 3.90537,3.90537 3.90537,10.91024 z m -3.7194,0.12398 q 0,-5.90972 -2.97552,-8.9059 -2.95485,-2.99618 -8.80258,-2.99618 H 653.5826 V 424.068 h 4.27731 q 6.28165,0 9.44314,-3.07884 3.16149,-3.0995 3.16149,-9.15385 z"
     id="path11679"
     style="font-size:42.3185px;font-family:'Open Sans';text-anchor:middle;fill:#ffffff;stroke-width:0mm" />
  <path
     d="m 718.89487,414.5422 v 12.56331 h -3.51277 v -30.20979 h 8.286 q 5.55843,0 8.20334,2.12832 2.66557,2.12832 2.66557,6.40563 0,5.99237 -6.07502,8.10003 l 8.20334,13.57581 H 732.512 l -7.31482,-12.56331 z m 0,-3.01684 h 4.81456 q 3.71939,0 5.45511,-1.4671 1.73572,-1.48776 1.73572,-4.44262 0,-2.99618 -1.77704,-4.31863 -1.75639,-1.32246 -5.66175,-1.32246 h -4.5666 z"
     id="path11676"
     style="font-size:42.3185px;font-family:'Open Sans';text-anchor:middle;fill:#ffffff;stroke-width:0mm" />
  <path
     d="m 798.83671,396.89572 v 19.54751 q 0,5.16583 -3.12016,8.12069 -3.12016,2.95485 -8.57528,2.95485 -5.45512,0 -8.4513,-2.97552 -2.97552,-2.97552 -2.97552,-8.18267 v -19.46486 h 3.51276 v 19.71282 q 0,3.78139 2.06634,5.80639 2.06633,2.02501 6.07502,2.02501 3.82271,0 5.88904,-2.02501 2.06634,-2.04567 2.06634,-5.84772 v -19.67149 z m -17.43985,-5.55844 q 0,-1.07449 0.53725,-1.54975 0.55791,-0.47525 1.32245,-0.47525 0.78521,0 1.34312,0.47525 0.57857,0.47526 0.57857,1.54975 0,1.03317 -0.57857,1.54975 -0.55791,0.49592 -1.34312,0.49592 -0.76454,0 -1.32245,-0.49592 -0.53725,-0.51658 -0.53725,-1.54975 z m 7.87273,0 q 0,-1.07449 0.53725,-1.54975 0.55791,-0.47525 1.32245,-0.47525 0.76455,0 1.32245,0.47525 0.57858,0.47526 0.57858,1.54975 0,1.03317 -0.57858,1.54975 -0.5579,0.49592 -1.32245,0.49592 -0.76454,0 -1.32245,-0.49592 -0.53725,-0.51658 -0.53725,-1.54975 z"
     id="path11673"
     style="font-size:42.3185px;font-family:'Open Sans';text-anchor:middle;fill:#ffffff;stroke-width:0mm" />
  <path
     d="m 167.98962,487.57792 h -20.76664 v -2.74822 l 16.03474,-24.30008 H 147.7189 v -3.16149 h 19.81613 v 2.74822 l -16.03474,24.27942 h 16.48933 z"
     id="path11670"
     style="font-size:42.3185px;font-family:'Open Sans';text-anchor:middle;fill:#ffffff;stroke-width:0mm" />
  <path
     d="m 229.38614,457.36813 h 3.78139 l -10.88958,30.20979 h -3.47144 l -10.82758,-30.20979 h 3.7194 l 6.94288,19.54751 q 1.19847,3.36812 1.90102,6.55028 0.74388,-3.34746 1.94235,-6.67426 z"
     id="path11667"
     style="font-size:42.3185px;font-family:'Open Sans';text-anchor:middle;fill:#ffffff;stroke-width:0mm" />
  <path
     d="m 281.7941,487.57792 v -30.20979 h 3.51277 v 30.20979 z"
     id="path11664"
     style="font-size:42.3185px;font-family:'Open Sans';text-anchor:middle;fill:#ffffff;stroke-width:0mm" />
  <path
     d="m 355.73326,487.57792 h -16.84061 v -30.20979 h 16.84061 v 3.12016 h -13.32784 v 9.73243 h 12.52197 v 3.0995 h -12.52197 v 11.11687 h 13.32784 z"
     id="path11661"
     style="font-size:42.3185px;font-family:'Open Sans';text-anchor:middle;fill:#ffffff;stroke-width:0mm" />
  <path
     d="m 404.06024,475.01461 v 12.56331 h -3.51276 v -30.20979 h 8.28599 q 5.55844,0 8.20335,2.12832 2.66557,2.12833 2.66557,6.40564 0,5.99236 -6.07502,8.10002 l 8.20334,13.57581 h -4.15333 l -7.31482,-12.56331 z m 0,-3.01684 h 4.81456 q 3.7194,0 5.45512,-1.4671 1.73572,-1.48776 1.73572,-4.44261 0,-2.99619 -1.77705,-4.31864 -1.75638,-1.32245 -5.66175,-1.32245 h -4.5666 z"
     id="path11658"
     style="font-size:42.3185px;font-family:'Open Sans';text-anchor:middle;fill:#ffffff;stroke-width:0mm" />
  <path
     d="m 470.6949,487.57792 v -30.20979 h 3.51277 v 30.20979 z"
     id="path11655"
     style="font-size:42.3185px;font-family:'Open Sans';text-anchor:middle;fill:#ffffff;stroke-width:0mm" />
  <path
     d="m 532.15343,487.57792 h -3.51277 v -30.20979 h 16.84062 v 3.12016 h -13.32785 v 11.05489 h 12.52198 v 3.12016 h -12.52198 z"
     id="path11652"
     style="font-size:42.3185px;font-family:'Open Sans';text-anchor:middle;fill:#ffffff;stroke-width:0mm" />
  <path
     d="m 612.27088,472.4317 q 0,7.25283 -3.67807,11.40616 -3.65741,4.15333 -10.18702,4.15333 -6.67426,0 -10.311,-4.07068 -3.61609,-4.09134 -3.61609,-11.53014 0,-7.37681 3.63675,-11.42682 3.63675,-4.07068 10.33166,-4.07068 6.50895,0 10.16636,4.13267 3.65741,4.13267 3.65741,11.40616 z m -24.07278,0 q 0,6.13701 2.60358,9.31916 2.62425,3.16149 7.60411,3.16149 5.02119,0 7.58344,-3.16149 2.56225,-3.16149 2.56225,-9.31916 0,-6.09568 -2.56225,-9.23651 -2.54159,-3.16149 -7.54212,-3.16149 -5.02118,0 -7.64543,3.18215 -2.60358,3.16149 -2.60358,9.21585 z"
     id="path11649"
     style="font-size:42.3185px;font-family:'Open Sans';text-anchor:middle;fill:#ffffff;stroke-width:0mm" />
  <path
     d="m 659.59563,487.57792 v -30.20979 h 3.51277 v 30.20979 z"
     id="path11646"
     style="font-size:42.3185px;font-family:'Open Sans';text-anchor:middle;fill:#ffffff;stroke-width:0mm" />
  <path
     d="m 721.05419,487.57792 h -3.51277 v -30.20979 h 16.84062 v 3.12016 h -13.32785 v 11.05489 h 12.52198 v 3.12016 h -12.52198 z"
     id="path11643"
     style="font-size:42.3185px;font-family:'Open Sans';text-anchor:middle;fill:#ffffff;stroke-width:0mm" />
  <path
     d="m 785.52953,487.57792 v -30.20979 h 3.51277 v 30.20979 z"
     id="path11640"
     style="font-size:42.3185px;font-family:'Open Sans';text-anchor:middle;fill:#ffffff;stroke-width:0mm" />
  <path
     d="m 544.99569,540.01236 q 0,3.98802 -2.89287,6.21966 -2.89286,2.23164 -7.85206,2.23164 -5.37247,0 -8.26533,-1.38444 v -3.38879 q 1.8597,0.78521 4.05001,1.2398 2.19031,0.45459 4.3393,0.45459 3.51276,0 5.28981,-1.32245 1.77705,-1.34312 1.77705,-3.7194 0,-1.57041 -0.64057,-2.56225 -0.6199,-1.01251 -2.10766,-1.8597 -1.46709,-0.8472 -4.48394,-1.92169 -4.21532,-1.50843 -6.03369,-3.57476 -1.79771,-2.06633 -1.79771,-5.39313 0,-3.4921 2.62424,-5.55843 2.62425,-2.06634 6.94288,-2.06634 4.50461,0 8.286,1.65307 l -1.09516,3.05817 q -3.74006,-1.57041 -7.27349,-1.57041 -2.78955,0 -4.35996,1.19847 -1.57042,1.19848 -1.57042,3.3268 0,1.57041 0.57858,2.58292 0.57857,0.99184 1.94235,1.83903 1.38444,0.82654 4.21532,1.83904 4.75256,1.69439 6.52961,3.63674 1.79771,1.94236 1.79771,5.04186 z"
     id="path11619"
     style="font-size:42.3185px;font-family:'Open Sans';text-anchor:middle;fill:#ffffff;stroke-width:0mm" />
  <path
     d="M 596.62874,548.05039 V 517.8406 h 3.51277 v 30.20979 z"
     id="path11616"
     style="font-size:42.3185px;font-family:'Open Sans';text-anchor:middle;fill:#ffffff;stroke-width:0mm" />
  <path
     d="m 651.78489,517.8406 h 8.53396 q 6.01303,0 8.69926,1.79771 2.68623,1.79771 2.68623,5.68242 0,2.68623 -1.50842,4.44262 -1.48776,1.73572 -4.35996,2.2523 v 0.20663 q 6.88089,1.17781 6.88089,7.23217 0,4.05001 -2.74823,6.32298 -2.72756,2.27296 -7.64543,2.27296 h -10.5383 z m 3.51277,12.93525 h 5.78573 q 3.7194,0 5.3518,-1.15715 1.63241,-1.17781 1.63241,-3.94669 0,-2.54159 -1.81838,-3.65741 -1.81837,-1.13649 -5.78573,-1.13649 h -5.16583 z m 0,2.97552 v 11.30284 h 6.30231 q 3.65741,0 5.49645,-1.40511 1.8597,-1.42577 1.8597,-4.44261 0,-2.81022 -1.90103,-4.13267 -1.88036,-1.32245 -5.7444,-1.32245 z"
     id="path11613"
     style="font-size:42.3185px;font-family:'Open Sans';text-anchor:middle;fill:#ffffff;stroke-width:0mm" />
  <path
     d="m 736.10742,548.05039 h -4.00868 l -16.51,-25.3539 h -0.16531 q 0.33061,4.46328 0.33061,8.18268 v 17.17122 H 712.5099 V 517.8406 h 3.96736 l 16.46867,25.25059 h 0.16531 q -0.0413,-0.55791 -0.18597,-3.57475 -0.14464,-3.03751 -0.10332,-4.3393 V 517.8406 h 3.28547 z"
     id="path11610"
     style="font-size:42.3185px;font-family:'Open Sans';text-anchor:middle;fill:#ffffff;stroke-width:0mm" />
  <path
     d="M 785.52953,548.05039 V 517.8406 h 3.51277 v 30.20979 z"
     id="path11607"
     style="font-size:42.3185px;font-family:'Open Sans';text-anchor:middle;fill:#ffffff;stroke-width:0mm" />
  <path
     d="m 167.35939,608.5228 -3.76073,-9.60844 h -12.10871 l -3.7194,9.60844 h -3.55409 l 11.94341,-30.33376 h 2.95485 l 11.88142,30.33376 z m -4.85588,-12.76993 -3.51277,-9.36049 q -0.68189,-1.77705 -1.4051,-4.35996 -0.4546,1.98368 -1.30179,4.35996 l -3.5541,9.36049 z"
     id="path11604"
     style="font-size:42.3185px;font-family:'Open Sans';text-anchor:middle;fill:#ffffff;stroke-width:0mm" />
  <path
     d="m 224.31329,581.01991 q -4.97986,0 -7.87273,3.3268 -2.8722,3.30613 -2.8722,9.0712 0,5.93038 2.76888,9.17452 2.78955,3.22348 7.93472,3.22348 3.16149,0 7.2115,-1.13648 v 3.07883 q -3.14082,1.17781 -7.74874,1.17781 -6.67426,0 -10.31101,-4.05001 -3.61608,-4.05001 -3.61608,-11.50948 0,-4.66991 1.73572,-8.18268 1.75638,-3.51276 5.04185,-5.41379 3.30614,-1.90102 7.76942,-1.90102 4.75256,0 8.30665,1.73572 l -1.48776,3.01684 q -3.43011,-1.61174 -6.86022,-1.61174 z"
     id="path11601"
     style="font-size:42.3185px;font-family:'Open Sans';text-anchor:middle;fill:#ffffff;stroke-width:0mm" />
  <path
     d="m 295.01863,608.5228 h -3.51276 V 594.30643 H 275.5951 v 14.21637 h -3.51276 v -30.20978 h 3.51276 v 12.85259 h 15.91077 v -12.85259 h 3.51276 z"
     id="path11598"
     style="font-size:42.3185px;font-family:'Open Sans';text-anchor:middle;fill:#ffffff;stroke-width:0mm" />
  <path
     d="m 348.25314,608.5228 h -3.51277 v -27.08962 h -9.56712 v -3.12016 h 22.64701 v 3.12016 h -9.56712 z"
     id="path11595"
     style="font-size:42.3185px;font-family:'Open Sans';text-anchor:middle;fill:#ffffff;stroke-width:0mm" />
  <path
     d="m 407.72799,608.5228 v -30.20978 h 3.51276 v 30.20978 z"
     id="path11592"
     style="font-size:42.3185px;font-family:'Open Sans';text-anchor:middle;fill:#ffffff;stroke-width:0mm" />
  <path
     d="m 484.23972,608.5228 h -4.00869 l -16.51,-25.3539 h -0.16531 q 0.33062,4.46328 0.33062,8.18268 v 17.17122 h -3.24415 v -30.20978 h 3.96736 l 16.46868,25.25059 h 0.1653 q -0.0413,-0.55791 -0.18597,-3.57476 -0.14464,-3.03751 -0.10331,-4.3393 v -17.33653 h 3.28547 z"
     id="path11589"
     style="font-size:42.3185px;font-family:'Open Sans';text-anchor:middle;fill:#ffffff;stroke-width:0mm" />
  <path
     d="m 546.96904,578.31302 v 19.54751 q 0,5.16583 -3.12016,8.12069 -3.12017,2.95485 -8.57529,2.95485 -5.45512,0 -8.4513,-2.97552 -2.97552,-2.97552 -2.97552,-8.18268 v -19.46485 h 3.51277 v 19.71281 q 0,3.78139 2.06633,5.8064 2.06633,2.02501 6.07502,2.02501 3.82272,0 5.88905,-2.02501 2.06633,-2.04567 2.06633,-5.84772 v -19.67149 z m -17.43985,-5.55844 q 0,-1.07449 0.53724,-1.54975 0.55791,-0.47526 1.32246,-0.47526 0.7852,0 1.34311,0.47526 0.57858,0.47526 0.57858,1.54975 0,1.03317 -0.57858,1.54975 -0.55791,0.49592 -1.34311,0.49592 -0.76455,0 -1.32246,-0.49592 -0.53724,-0.51658 -0.53724,-1.54975 z m 7.87273,0 q 0,-1.07449 0.53724,-1.54975 0.55791,-0.47526 1.32246,-0.47526 0.76454,0 1.32245,0.47526 0.57857,0.47526 0.57857,1.54975 0,1.03317 -0.57857,1.54975 -0.55791,0.49592 -1.32245,0.49592 -0.76455,0 -1.32246,-0.49592 -0.53724,-0.51658 -0.53724,-1.54975 z"
     id="path11586"
     style="font-size:42.3185px;font-family:'Open Sans';text-anchor:middle;fill:#ffffff;stroke-width:0mm" />
  <path
     d="m 610.17355,608.5228 h -4.00868 l -16.51,-25.3539 h -0.16531 q 0.33061,4.46328 0.33061,8.18268 v 17.17122 h -3.24414 v -30.20978 h 3.96736 l 16.46868,25.25059 h 0.1653 q -0.0413,-0.55791 -0.18597,-3.57476 -0.14464,-3.03751 -0.10331,-4.3393 v -17.33653 h 3.28546 z"
     id="path11583"
     style="font-size:42.3185px;font-family:'Open Sans';text-anchor:middle;fill:#ffffff;stroke-width:0mm" />
  <path
     d="m 659.59563,608.5228 v -30.20978 h 3.51277 v 30.20978 z"
     id="path11580"
     style="font-size:42.3185px;font-family:'Open Sans';text-anchor:middle;fill:#ffffff;stroke-width:0mm" />
  <path
     d="m 738.20475,593.37658 q 0,7.25283 -3.67807,11.40616 -3.65741,4.15333 -10.18702,4.15333 -6.67426,0 -10.31101,-4.07067 -3.61608,-4.09134 -3.61608,-11.53014 0,-7.37681 3.63675,-11.42682 3.63674,-4.07068 10.33166,-4.07068 6.50895,0 10.16636,4.13267 3.65741,4.13266 3.65741,11.40615 z m -24.07278,0 q 0,6.13701 2.60358,9.31917 2.62424,3.16149 7.60411,3.16149 5.02119,0 7.58344,-3.16149 2.56225,-3.16149 2.56225,-9.31917 0,-6.09568 -2.56225,-9.23651 -2.54159,-3.16148 -7.54212,-3.16148 -5.02119,0 -7.64543,3.18215 -2.60358,3.16149 -2.60358,9.21584 z"
     id="path11577"
     style="font-size:42.3185px;font-family:'Open Sans';text-anchor:middle;fill:#ffffff;stroke-width:0mm" />
  <path
     d="m 784.02111,608.5228 h -3.51277 v -30.20978 h 16.84061 v 3.12016 h -13.32784 v 11.05488 h 12.52197 v 3.12016 h -12.52197 z"
     id="path11574"
     style="font-size:42.3185px;font-family:'Open Sans';text-anchor:middle;fill:#ffffff;stroke-width:0mm" />
  <path
     d="m 161.34636,641.49235 q -4.97986,0 -7.87273,3.3268 -2.8722,3.30613 -2.8722,9.0712 0,5.93038 2.76889,9.17452 2.78955,3.22348 7.93472,3.22348 3.16148,0 7.2115,-1.13648 v 3.07883 q -3.14083,1.17781 -7.74875,1.17781 -6.67426,0 -10.311,-4.05001 -3.61609,-4.05001 -3.61609,-11.50947 0,-4.66992 1.73572,-8.18268 1.75639,-3.51277 5.04186,-5.4138 3.30613,-1.90102 7.76941,-1.90102 4.75256,0 8.30666,1.73572 l -1.48776,3.01684 q -3.43012,-1.61174 -6.86023,-1.61174 z"
     id="path11571"
     style="font-size:42.3185px;font-family:'Open Sans';text-anchor:middle;fill:#ffffff;stroke-width:0mm" />
  <path
     d="m 607.72054,668.99525 h -16.84061 v -30.20979 h 16.84061 v 3.12016 h -13.32785 v 9.73243 h 12.52198 v 3.0995 h -12.52198 v 11.11687 h 13.32785 z"
     id="path11556"
     style="font-size:42.3185px;font-family:'Open Sans';text-anchor:middle;fill:#ffffff;stroke-width:0mm" />
  <path
     d="m 654.63208,668.99525 v -30.20979 h 3.51277 v 27.02763 h 13.32785 v 3.18216 z"
     id="path11553"
     style="font-size:42.3185px;font-family:'Open Sans';text-anchor:middle;fill:#ffffff;stroke-width:0mm" />
  <path
     d="m 721.17373,668.99525 h -3.51277 v -30.20979 h 16.84062 v 3.12016 h -13.32785 v 11.05488 h 12.52198 v 3.12017 h -12.52198 z"
     id="path11550"
     style="font-size:42.3185px;font-family:'Open Sans';text-anchor:middle;fill:#ffffff;stroke-width:0mm" />
  <path
     d="m 785.64904,668.99525 v -30.20979 h 3.51277 v 30.20979 z"
     id="path11547"
     style="font-size:42.3185px;font-family:'Open Sans';text-anchor:middle;fill:#ffffff;stroke-width:0mm" />
  <path
     d="m 171.50239,714.3215 q 0,7.25283 -3.67807,11.40616 -3.65741,4.15333 -10.18703,4.15333 -6.67425,0 -10.311,-4.07068 -3.61608,-4.09134 -3.61608,-11.53014 0,-7.37681 3.63675,-11.42682 3.63674,-4.07067 10.33166,-4.07067 6.50895,0 10.16636,4.13266 3.65741,4.13267 3.65741,11.40616 z m -24.07278,0 q 0,6.13701 2.60358,9.31916 2.62424,3.16149 7.6041,3.16149 5.02119,0 7.58345,-3.16149 2.56225,-3.16149 2.56225,-9.31916 0,-6.09568 -2.56225,-9.23651 -2.54159,-3.16149 -7.54212,-3.16149 -5.02119,0 -7.64543,3.18215 -2.60358,3.16149 -2.60358,9.21585 z"
     id="path11538"
     style="font-size:42.3185px;font-family:'Open Sans';text-anchor:middle;fill:#ffffff;stroke-width:0mm" />
  <path
     d="m 233.56013,729.46772 h -4.13267 l -11.01355,-14.6503 -3.16149,2.81021 v 11.84009 h -3.51277 v -30.20979 h 3.51277 v 14.98092 l 13.69979,-14.98092 h 4.15333 l -12.15004,13.12122 z"
     id="path11535"
     style="font-size:42.3185px;font-family:'Open Sans';text-anchor:middle;fill:#ffffff;stroke-width:0mm" />
  <path
     d="m 285.57549,713.63961 h 10.26968 v 14.69163 q -2.39695,0.76454 -4.87655,1.15714 -2.4796,0.39261 -5.74441,0.39261 -6.86022,0 -10.68294,-4.07068 -3.82271,-4.09134 -3.82271,-11.44748 0,-4.71124 1.88036,-8.24467 1.90103,-3.5541 5.45512,-5.4138 3.55409,-1.88036 8.32732,-1.88036 4.83522,0 9.00921,1.77705 l -1.36378,3.0995 q -4.09134,-1.73572 -7.87273,-1.73572 -5.51711,0 -8.6166,3.28547 -3.0995,3.28547 -3.0995,9.11253 0,6.11634 2.97552,9.27783 2.99618,3.16149 8.78191,3.16149 3.14083,0 6.13701,-0.72322 v -9.29849 h -6.75691 z"
     id="path11532"
     style="font-size:42.3185px;font-family:'Open Sans';text-anchor:middle;fill:#ffffff;stroke-width:0mm" />
  <path
     d="m 356.89041,729.46772 h -20.76665 v -2.74822 l 16.03475,-24.30008 h -15.53883 v -3.16149 h 19.81614 v 2.74822 l -16.03475,24.27942 h 16.48934 z"
     id="path11529"
     style="font-size:42.3185px;font-family:'Open Sans';text-anchor:middle;fill:#ffffff;stroke-width:0mm" />
  <path
     d="m 420.40494,729.46772 h -3.47144 l -6.09568,-20.2294 q -0.43393,-1.34312 -0.97118,-3.38879 -0.53725,-2.04567 -0.55791,-2.45893 -0.45459,2.72756 -1.44643,5.9717 l -5.90972,20.10542 h -3.47144 l -8.03803,-30.20979 h 3.7194 l 4.77323,18.65899 q 0.99184,3.92603 1.44643,7.10818 0.55791,-3.78138 1.65307,-7.39747 l 5.41379,-18.3697 h 3.7194 l 5.68242,18.53501 q 0.99184,3.20282 1.67373,7.23216 0.3926,-2.93419 1.48775,-7.14951 l 4.75257,-18.61766 h 3.7194 z"
     id="path11526"
     style="font-size:42.3185px;font-family:'Open Sans';text-anchor:middle;fill:#ffffff;stroke-width:0mm" />
  <path
     d="m 486.33705,714.3215 q 0,7.25283 -3.67808,11.40616 -3.65741,4.15333 -10.18702,4.15333 -6.67426,0 -10.311,-4.07068 -3.61608,-4.09134 -3.61608,-11.53014 0,-7.37681 3.63674,-11.42682 3.63675,-4.07067 10.33167,-4.07067 6.50895,0 10.16636,4.13266 3.65741,4.13267 3.65741,11.40616 z m -24.07278,0 q 0,6.13701 2.60357,9.31916 2.62425,3.16149 7.60411,3.16149 5.02119,0 7.58344,-3.16149 2.56226,-3.16149 2.56226,-9.31916 0,-6.09568 -2.56226,-9.23651 -2.54159,-3.16149 -7.54211,-3.16149 -5.02119,0 -7.64544,3.18215 -2.60357,3.16149 -2.60357,9.21585 z m 4.48394,-20.622 q 0,-1.0745 0.53724,-1.54975 0.55791,-0.47526 1.32246,-0.47526 0.7852,0 1.34311,0.47526 0.57858,0.47525 0.57858,1.54975 0,1.03316 -0.57858,1.54975 -0.55791,0.49592 -1.34311,0.49592 -0.76455,0 -1.32246,-0.49592 -0.53724,-0.51659 -0.53724,-1.54975 z m 7.87273,0 q 0,-1.0745 0.53724,-1.54975 0.55791,-0.47526 1.32246,-0.47526 0.76454,0 1.32245,0.47526 0.57857,0.47525 0.57857,1.54975 0,1.03316 -0.57857,1.54975 -0.55791,0.49592 -1.32245,0.49592 -0.76455,0 -1.32246,-0.49592 -0.53724,-0.51659 -0.53724,-1.54975 z"
     id="path11523"
     style="font-size:42.3185px;font-family:'Open Sans';text-anchor:middle;fill:#ffffff;stroke-width:0mm" />
  <path
     d="m 528.57867,729.46772 v -30.20979 h 3.51277 v 27.02764 h 13.32785 v 3.18215 z"
     id="path11520"
     style="font-size:42.3185px;font-family:'Open Sans';text-anchor:middle;fill:#ffffff;stroke-width:0mm" />
  <path
     d="m 595.12032,729.46772 h -3.51277 v -30.20979 h 16.84062 v 3.12016 h -13.32785 v 11.05489 h 12.52198 v 3.12016 h -12.52198 z"
     id="path11517"
     style="font-size:42.3185px;font-family:'Open Sans';text-anchor:middle;fill:#ffffff;stroke-width:0mm" />
  <path
     d="m 659.59563,729.46772 v -30.20979 h 3.51277 v 30.20979 z"
     id="path11514"
     style="font-size:42.3185px;font-family:'Open Sans';text-anchor:middle;fill:#ffffff;stroke-width:0mm" />
  <path
     d="m 799.3223,729.46772 h -3.98802 l -8.12069,-13.28652 -8.26533,13.28652 h -3.7194 l 10.04238,-15.78678 -9.36049,-14.42301 h 3.88471 l 7.50078,11.96407 7.56278,-11.96407 h 3.74007 l -9.36049,14.29903 z"
     id="path11508"
     style="font-size:42.3185px;font-family:'Open Sans';text-anchor:middle;fill:#ffffff;stroke-width:0mm" />
  <path
     d="m 547.40978,669.26471 h -3.98802 l -8.12069,-13.28652 -8.26533,13.28652 h -3.7194 l 10.04238,-15.78678 -9.36049,-14.42301 h 3.88471 l 7.50078,11.96407 7.56278,-11.96407 h 3.74007 l -9.36049,14.29903 z"
     id="path11508-5"
     style="font-size:42.3185px;font-family:'Open Sans';text-anchor:middle;fill:#ffffff;stroke-width:0mm" />
  <path
     d="M 150.77707,789.94019 V 759.7304 h 3.51276 v 27.02764 h 13.32785 v 3.18215 z"
     id="path11505"
     style="font-size:42.3185px;font-family:'Open Sans';text-anchor:middle;fill:#ffffff;stroke-width:0mm" />
  <path
     d="m 220.56289,774.8353 8.0587,-15.1049 h 3.80206 l -10.08371,18.49369 v 11.7161 h -3.55409 v -11.5508 L 208.72281,759.7304 h 3.84338 z"
     id="path11502"
     style="font-size:42.3185px;font-family:'Open Sans';text-anchor:middle;fill:#ffffff;stroke-width:0mm" />
  <path
     d="m 273.98336,759.7304 h 8.53396 q 6.01303,0 8.69926,1.79771 2.68623,1.79771 2.68623,5.68242 0,2.68623 -1.50842,4.44262 -1.48776,1.73572 -4.35996,2.2523 v 0.20663 q 6.88089,1.17781 6.88089,7.23217 0,4.05001 -2.74823,6.32298 -2.72756,2.27296 -7.64543,2.27296 h -10.5383 z m 3.51277,12.93525 h 5.78573 q 3.7194,0 5.3518,-1.15715 1.63241,-1.17781 1.63241,-3.94669 0,-2.54159 -1.81838,-3.65741 -1.81837,-1.13649 -5.78573,-1.13649 h -5.16583 z m 0,2.97552 v 11.30284 h 6.30231 q 3.65741,0 5.49645,-1.40511 1.8597,-1.42577 1.8597,-4.44261 0,-2.81021 -1.90103,-4.13267 -1.88036,-1.32245 -5.7444,-1.32245 z"
     id="path11499"
     style="font-size:42.3185px;font-family:'Open Sans';text-anchor:middle;fill:#ffffff;stroke-width:0mm" />
  <path
     d="m 483.01025,768.53298 q 0,4.58726 -3.14083,7.06686 -3.12016,2.45894 -8.94722,2.45894 h -3.55409 v 11.88141 h -3.51277 V 759.7304 h 7.8314 q 11.32351,0 11.32351,8.80258 z m -15.64214,6.50895 h 3.16149 q 4.66991,0 6.75691,-1.50842 2.08699,-1.50842 2.08699,-4.83522 0,-2.99618 -1.96301,-4.46328 -1.96302,-1.4671 -6.11635,-1.4671 h -3.92603 z"
     id="path11490"
     style="font-size:42.3185px;font-family:'Open Sans';text-anchor:middle;fill:#ffffff;stroke-width:0mm" />
  <path
     d="m 659.76094,789.94019 -10.24901,-26.77967 h -0.16531 q 0.28929,3.18215 0.28929,7.56278 v 19.21689 h -3.24415 V 759.7304 h 5.28981 l 9.56713,24.91998 h 0.1653 l 9.64978,-24.91998 h 5.24848 v 30.20979 h -3.51276 v -19.46485 q 0,-3.34746 0.28929,-7.2735 h -0.16531 l -10.33167,26.73835 z"
     id="path11481"
     style="font-size:42.3185px;font-family:'Open Sans';text-anchor:middle;fill:#ffffff;stroke-width:0mm" />
  <path
     d="m 737.29556,789.94019 h -4.13266 l -11.01356,-14.6503 -3.16149,2.81022 v 11.84008 h -3.51276 V 759.7304 h 3.51276 v 14.98092 l 13.69979,-14.98092 h 4.15333 l -12.15004,13.12122 z"
     id="path11478"
     style="font-size:42.3185px;font-family:'Open Sans';text-anchor:middle;fill:#ffffff;stroke-width:0mm" />
  <path
     style="fill:#ffffff;stroke-width:0.0681639"
     d="m 799.3805,790.32957 c -1.27857,0.82726 -2.95935,1.03714 -4.37535,0.54635 -0.8321,-0.28841 -1.3342,-0.60353 -1.96205,-1.23137 -0.63516,-0.63517 -0.94765,-1.13643 -1.23223,-1.97657 -0.46379,-1.36925 -0.31595,-2.80179 0.4316,-4.1822 0.28295,-0.52249 1.26089,-1.50043 1.78337,-1.78338 0.96193,-0.52091 1.74159,-0.71221 2.77413,-0.68069 0.84979,0.0259 1.81094,0.30891 2.48509,0.7316 0.53108,0.33297 1.31633,1.11789 1.64635,1.64566 0.8269,1.32236 0.97201,3.14389 0.36841,4.62487 -0.36086,0.88541 -1.1041,1.77827 -1.91933,2.30575 z m -15.96542,-0.66992 -2.38624,-0.0132 0.0126,-0.5289 c 0.0542,-2.2711 0.64885,-4.96001 1.55704,-7.04008 1.66264,-3.80799 4.51696,-7.00478 8.08287,-9.05265 2.61867,-1.50388 5.88933,-2.43374 8.83783,-2.51262 l 0.66456,-0.0178 0.0148,2.38362 0.0148,2.38362 -0.46722,0.0147 c -2.85596,0.0903 -5.7091,1.08385 -8.15101,2.83841 -0.60565,0.43517 -2.51557,2.34381 -2.94116,2.93914 -1.76119,2.46392 -2.7458,5.29242 -2.83765,8.15176 l -0.015,0.46699 -2.38623,-0.0132 z m -9.58865,-0.0101 -2.38503,0.005 0.0247,-1.02205 c 0.12957,-5.35089 1.98844,-10.92425 5.14362,-15.42178 1.09981,-1.56773 1.70949,-2.2841 3.2832,-3.85781 1.57371,-1.5737 2.29008,-2.18339 3.85781,-3.2832 4.4966,-3.15452 10.0728,-5.01409 15.42405,-5.14367 l 1.02433,-0.0248 -0.008,2.38509 -0.008,2.38509 -0.85135,0.025 c -5.0715,0.14904 -10.09565,2.02445 -14.22104,5.30842 -0.80224,0.63861 -2.92813,2.7645 -3.56674,3.56673 -3.28476,4.12639 -5.15934,9.14843 -5.30843,14.22136 l -0.025,0.85168 z"
     id="path5438"
     inkscape:connector-curvature="0" />
  <g
     aria-label="°"
     id="text7138"
     style="font-size:42.3185px;font-family:'Open Sans';text-anchor:middle;fill:#ffffff;stroke-width:0mm"
     transform="matrix(1.3625088,0,0,1.3625088,45.851652,-79.54059)">
    <path
       d="m 214.32558,626.25997 q 0,-2.68623 1.8597,-4.56659 1.88036,-1.88037 4.5666,-1.88037 2.68623,0 4.56659,1.88037 1.88036,1.8597 1.88036,4.56659 0,1.73572 -0.84719,3.22348 -0.8472,1.4671 -2.35562,2.33496 -1.50842,0.86786 -3.24414,0.86786 -2.68624,0 -4.5666,-1.8597 -1.8597,-1.8597 -1.8597,-4.5666 z m 2.37628,0 q 0,1.6944 1.19848,2.87221 1.21913,1.17781 2.89286,1.17781 1.65307,0 2.83088,-1.15715 1.19847,-1.17781 1.19847,-2.89287 0,-1.73572 -1.17781,-2.89286 -1.15714,-1.17781 -2.85154,-1.17781 -1.71505,0 -2.91353,1.17781 -1.17781,1.17781 -1.17781,2.89286 z"
       id="path7587" />
  </g>
  <g
     aria-label="°"
     id="text7138-3"
     style="font-size:42.3185px;font-family:'Open Sans';text-anchor:middle;fill:#ffffff;stroke-width:0mm"
     transform="matrix(1.3625088,0,0,1.3625088,108.28828,-79.28245)">
    <path
       d="m 214.32558,626.25997 q 0,-2.68623 1.8597,-4.56659 1.88036,-1.88037 4.5666,-1.88037 2.68623,0 4.56659,1.88037 1.88036,1.8597 1.88036,4.56659 0,1.73572 -0.84719,3.22348 -0.8472,1.4671 -2.35562,2.33496 -1.50842,0.86786 -3.24414,0.86786 -2.68624,0 -4.5666,-1.8597 -1.8597,-1.8597 -1.8597,-4.5666 z m 2.37628,0 q 0,1.6944 1.19848,2.87221 1.21913,1.17781 2.89286,1.17781 1.65307,0 2.83088,-1.15715 1.19847,-1.17781 1.19847,-2.89287 0,-1.73572 -1.17781,-2.89286 -1.15714,-1.17781 -2.85154,-1.17781 -1.71505,0 -2.91353,1.17781 -1.17781,1.17781 -1.17781,2.89286 z"
       id="path7587-3" />
  </g>
  <g
     aria-label="°"
     id="text7138-0"
     style="font-size:42.3185px;font-family:'Open Sans';text-anchor:middle;fill:#ffffff;stroke-width:0mm"
     transform="matrix(1.3625088,0,0,1.3625088,234.72558,-79.5355)">
    <path
       d="m 214.32558,626.25997 q 0,-2.68623 1.8597,-4.56659 1.88036,-1.88037 4.5666,-1.88037 2.68623,0 4.56659,1.88037 1.88036,1.8597 1.88036,4.56659 0,1.73572 -0.84719,3.22348 -0.8472,1.4671 -2.35562,2.33496 -1.50842,0.86786 -3.24414,0.86786 -2.68624,0 -4.5666,-1.8597 -1.8597,-1.8597 -1.8597,-4.5666 z m 2.37628,0 q 0,1.6944 1.19848,2.87221 1.21913,1.17781 2.89286,1.17781 1.65307,0 2.83088,-1.15715 1.19847,-1.17781 1.19847,-2.89287 0,-1.73572 -1.17781,-2.89286 -1.15714,-1.17781 -2.85154,-1.17781 -1.71505,0 -2.91353,1.17781 -1.17781,1.17781 -1.17781,2.89286 z"
       id="path7587-9" />
  </g>
  <g
     aria-label="°"
     id="text7138-3-4"
     style="font-size:42.3185px;font-family:'Open Sans';text-anchor:middle;fill:#ffffff;stroke-width:0mm"
     transform="matrix(1.3625088,0,0,1.3625088,297.16221,-79.27736)">
    <path
       d="m 214.32558,626.25997 q 0,-2.68623 1.8597,-4.56659 1.88036,-1.88037 4.5666,-1.88037 2.68623,0 4.56659,1.88037 1.88036,1.8597 1.88036,4.56659 0,1.73572 -0.84719,3.22348 -0.8472,1.4671 -2.35562,2.33496 -1.50842,0.86786 -3.24414,0.86786 -2.68624,0 -4.5666,-1.8597 -1.8597,-1.8597 -1.8597,-4.5666 z m 2.37628,0 q 0,1.6944 1.19848,2.87221 1.21913,1.17781 2.89286,1.17781 1.65307,0 2.83088,-1.15715 1.19847,-1.17781 1.19847,-2.89287 0,-1.73572 -1.17781,-2.89286 -1.15714,-1.17781 -2.85154,-1.17781 -1.71505,0 -2.91353,1.17781 -1.17781,1.17781 -1.17781,2.89286 z"
       id="path7587-3-3" />
  </g>
  <path
     d="m 735.86384,699.17318 v 19.5464 q 0,5.16553 -3.12016,8.12022 -3.12016,2.9547 -8.57528,2.9547 -5.45511,0 -8.4513,-2.97536 -2.97552,-2.97534 -2.97552,-8.18221 v -19.46375 h 3.51277 v 19.7117 q 0,3.78117 2.06632,5.80606 2.06634,2.02489 6.07503,2.02489 3.82272,0 5.88904,-2.02489 2.06634,-2.04555 2.06634,-5.84739 v -19.67037 z"
     id="path4785"
     style="font-size:42.3173px;font-family:'Open Sans';text-anchor:middle;fill:#ffffff;stroke-width:0mm" />
  <path
     d="m 158.51088,532.12146 h 10.26968 v 14.6908 q -2.39695,0.7645 -4.87654,1.15708 -2.4796,0.39258 -5.74442,0.39258 -6.86022,0 -10.68294,-4.07044 -3.82271,-4.09111 -3.82271,-11.44684 0,-4.71097 1.88037,-8.2442 1.90102,-3.5539 5.45511,-5.41348 3.55409,-1.88026 8.32733,-1.88026 4.83521,0 9.0092,1.77694 l -1.36378,3.09932 q -4.09133,-1.73562 -7.87272,-1.73562 -5.51712,0 -8.61661,3.28529 -3.0995,3.28529 -3.0995,9.11201 0,6.116 2.97552,9.27731 2.99618,3.16131 8.78191,3.16131 3.14083,0 6.13702,-0.72317 v -9.29798 h -6.75692 z"
     id="path4986-7"
     style="font-size:42.3173px;font-family:'Open Sans';text-anchor:middle;fill:#ffffff;stroke-width:0mm" />
  <path
     d="m 293.1358,540.02487 q 0,3.98779 -2.89287,6.2193 -2.89287,2.23152 -7.85207,2.23152 -5.37246,0 -8.26533,-1.38436 v -3.3886 q 1.8597,0.78516 4.05001,1.23973 2.19032,0.45456 4.3393,0.45456 3.51277,0 5.28982,-1.32237 1.77704,-1.34304 1.77704,-3.71919 0,-1.57033 -0.64056,-2.56211 -0.6199,-1.01244 -2.10766,-1.8596 -1.4671,-0.84714 -4.48394,-1.92157 -4.21532,-1.50834 -6.0337,-3.57456 -1.7977,-2.06621 -1.7977,-5.39282 0,-3.4919 2.62424,-5.55812 2.62424,-2.06621 6.94288,-2.06621 4.5046,0 8.28599,1.65297 l -1.09515,3.05799 q -3.74007,-1.57032 -7.2735,-1.57032 -2.78954,0 -4.35996,1.19841 -1.57041,1.1984 -1.57041,3.3266 0,1.57033 0.57857,2.58278 0.57857,0.99178 1.94235,1.83893 1.38445,0.82648 4.21532,1.83893 4.75257,1.6943 6.52962,3.63654 1.79771,1.94225 1.79771,5.04157 z"
     id="path4869"
     style="font-size:42.3173px;font-family:'Open Sans';text-anchor:middle;fill:#ffffff;stroke-width:0mm" />
  <path
     d="m 356.26804,548.06245 -3.76073,-9.60791 H 340.3986 l -3.7194,9.60791 h -3.55409 l 11.9434,-30.33205 h 2.95486 l 11.88141,30.33205 z m -4.85589,-12.76922 -3.51276,-9.35995 q -0.68189,-1.77695 -1.40511,-4.35972 -0.45459,1.98356 -1.30179,4.35972 l -3.55409,9.35995 z m -10.76559,-22.99698 q 0,-1.07444 0.53724,-1.54966 0.55791,-0.47523 1.32246,-0.47523 0.7852,0 1.34311,0.47523 0.57858,0.47522 0.57858,1.54966 0,1.0331 -0.57858,1.54966 -0.55791,0.4959 -1.34311,0.4959 -0.76455,0 -1.32246,-0.4959 -0.53724,-0.51656 -0.53724,-1.54966 z m 7.87273,0 q 0,-1.07444 0.53724,-1.54966 0.55791,-0.47523 1.32246,-0.47523 0.76454,0 1.32245,0.47523 0.57858,0.47522 0.57858,1.54966 0,1.0331 -0.57858,1.54966 -0.55791,0.4959 -1.32245,0.4959 -0.76455,0 -1.32246,-0.4959 -0.53724,-0.51656 -0.53724,-1.54966 z"
     id="path4866"
     style="font-size:42.3173px;font-family:'Open Sans';text-anchor:middle;fill:#ffffff;stroke-width:0mm" />
  <path
     d="m 413.22194,520.56111 q -4.97986,0 -7.87274,3.32662 -2.8722,3.30593 -2.8722,9.07068 0,5.93004 2.76889,9.174 2.78955,3.2233 7.93472,3.2233 3.16149,0 7.2115,-1.13643 v 3.07866 q -3.14083,1.17775 -7.74875,1.17775 -6.67425,0 -10.311,-4.04979 -3.61608,-4.04978 -3.61608,-11.50882 0,-4.66965 1.73571,-8.18221 1.75639,-3.51257 5.04186,-5.41349 3.30613,-1.90091 7.76941,-1.90091 4.75257,0 8.30666,1.73562 l -1.48776,3.01667 q -3.43012,-1.61165 -6.86022,-1.61165 z"
     id="path4863"
     style="font-size:42.3173px;font-family:'Open Sans';text-anchor:middle;fill:#ffffff;stroke-width:0mm" />
  <path
     d="m 483.92729,548.06245 h -3.51276 v -14.21557 h -15.91077 v 14.21557 h -3.51277 v -30.20808 h 3.51277 v 12.85186 h 15.91077 v -12.85186 h 3.51276 z"
     id="path4860"
     style="font-size:42.3173px;font-family:'Open Sans';text-anchor:middle;fill:#ffffff;stroke-width:0mm" />
  <path
     d="m 219.05575,547.90863 -10.24902,-26.77816 h -0.1653 q 0.28929,3.18198 0.28929,7.56235 v 19.21581 h -3.24414 v -30.20808 h 5.28981 l 9.56712,24.91857 h 0.1653 l 9.64979,-24.91857 h 5.24849 v 30.20808 h -3.51276 v -19.46375 q 0,-3.34728 0.28927,-7.27308 h -0.1653 l -10.33167,26.73683 z"
     id="path4713-7"
     style="font-size:42.3173px;font-family:'Open Sans';text-anchor:middle;fill:#ffffff;stroke-width:0mm" />
  <path
     d="m 294.1992,669.12304 h -20.76665 v -2.74806 l 16.03474,-24.2987 h -15.53882 v -3.16131 h 19.81614 v 2.74807 l -16.03475,24.27803 h 16.48934 z"
     id="path4800"
     style="font-size:42.3173px;font-family:'Open Sans';text-anchor:middle;fill:#ffffff;stroke-width:0mm" />
  <path
     d="m 356.5359,669.12304 -3.76073,-9.6079 h -12.10871 l -3.7194,9.6079 h -3.5541 l 11.94341,-30.33205 h 2.95485 l 11.88142,30.33205 z m -4.85589,-12.76921 -3.51276,-9.35996 q -0.68189,-1.77694 -1.40511,-4.35972 -0.45459,1.98357 -1.30179,4.35972 l -3.5541,9.35996 z m -10.7656,-22.99699 q 0,-1.07443 0.53725,-1.54965 0.55792,-0.47524 1.32246,-0.47524 0.7852,0 1.34312,0.47524 0.57856,0.47522 0.57856,1.54965 0,1.03311 -0.57856,1.54967 -0.55792,0.49588 -1.34312,0.49588 -0.76454,0 -1.32246,-0.49588 -0.53725,-0.51656 -0.53725,-1.54967 z m 7.87274,0 q 0,-1.07443 0.53724,-1.54965 0.55791,-0.47524 1.32246,-0.47524 0.76454,0 1.32245,0.47524 0.57857,0.47522 0.57857,1.54965 0,1.03311 -0.57857,1.54967 -0.55791,0.49588 -1.32245,0.49588 -0.76455,0 -1.32246,-0.49588 -0.53724,-0.51656 -0.53724,-1.54967 z"
     id="path4797"
     style="font-size:42.3173px;font-family:'Open Sans';text-anchor:middle;fill:#ffffff;stroke-width:0mm" />
  <path
     d="m 421.5485,669.12304 h -4.00868 l -16.51001,-25.35246 h -0.1653 q 0.33062,4.46302 0.33062,8.18221 v 17.17025 h -3.24416 v -30.20807 h 3.96737 l 16.46867,25.24915 h 0.16531 q -0.0413,-0.55788 -0.18597,-3.57455 -0.14464,-3.03733 -0.10332,-4.33906 v -17.33554 h 3.28547 z"
     id="path4794"
     style="font-size:42.3173px;font-family:'Open Sans';text-anchor:middle;fill:#ffffff;stroke-width:0mm" />
  <path
     d="m 470.97063,669.12304 v -30.20807 h 3.51276 v 30.20807 z"
     id="path4791"
     style="font-size:42.3173px;font-family:'Open Sans';text-anchor:middle;fill:#ffffff;stroke-width:0mm" />
  <path
     d="m 233.67712,653.8143 q 0,7.4797 -4.07067,11.44684 -4.05002,3.94647 -11.67477,3.94647 h -8.36865 v -30.20807 h 9.25716 q 7.04619,0 10.95156,3.90514 3.90537,3.90515 3.90537,10.90962 z m -3.71939,0.12397 q 0,-5.90937 -2.97553,-8.90539 -2.95485,-2.99601 -8.80258,-2.99601 h -5.10384 v 24.1334 h 4.27731 q 6.28166,0 9.44315,-3.07866 3.16149,-3.09932 3.16149,-9.15334 z"
     id="path4776-4"
     style="font-size:42.3173px;font-family:'Open Sans';text-anchor:middle;fill:#ffffff;stroke-width:0mm" />
</svg>
